%FSTAX23Y23*%
%MOIN*%
%SFA1B1*%

%IPPOS*%
%AMD94*
4,1,8,-0.023500,0.019500,-0.023500,-0.019500,-0.013500,-0.029500,0.013500,-0.029500,0.023500,-0.019500,0.023500,0.019500,0.013500,0.029500,-0.013500,0.029500,-0.023500,0.019500,0.0*
1,1,0.019913,-0.013500,0.019500*
1,1,0.019913,-0.013500,-0.019500*
1,1,0.019913,0.013500,-0.019500*
1,1,0.019913,0.013500,0.019500*
%
%AMD97*
4,1,8,-0.051200,0.062000,-0.051200,-0.062000,-0.024600,-0.088600,0.024600,-0.088600,0.051200,-0.062000,0.051200,0.062000,0.024600,0.088600,-0.024600,0.088600,-0.051200,0.062000,0.0*
1,1,0.053213,-0.024600,0.062000*
1,1,0.053213,-0.024600,-0.062000*
1,1,0.053213,0.024600,-0.062000*
1,1,0.053213,0.024600,0.062000*
%
%AMD98*
4,1,8,-0.004000,-0.012000,0.004000,-0.012000,0.012000,-0.004000,0.012000,0.004000,0.004000,0.012000,-0.004000,0.012000,-0.012000,0.004000,-0.012000,-0.004000,-0.004000,-0.012000,0.0*
1,1,0.016000,-0.004000,-0.004000*
1,1,0.016000,0.004000,-0.004000*
1,1,0.016000,0.004000,0.004000*
1,1,0.016000,-0.004000,0.004000*
%
%AMD101*
4,1,8,-0.020300,0.051500,-0.020300,-0.051500,-0.008800,-0.063000,0.008800,-0.063000,0.020300,-0.051500,0.020300,0.051500,0.008800,0.063000,-0.008800,0.063000,-0.020300,0.051500,0.0*
1,1,0.023031,-0.008800,0.051500*
1,1,0.023031,-0.008800,-0.051500*
1,1,0.023031,0.008800,-0.051500*
1,1,0.023031,0.008800,0.051500*
%
%AMD103*
4,1,8,0.025500,-0.027500,0.025500,0.027500,0.015500,0.037500,-0.015500,0.037500,-0.025500,0.027500,-0.025500,-0.027500,-0.015500,-0.037500,0.015500,-0.037500,0.025500,-0.027500,0.0*
1,1,0.019976,0.015500,-0.027500*
1,1,0.019976,0.015500,0.027500*
1,1,0.019976,-0.015500,0.027500*
1,1,0.019976,-0.015500,-0.027500*
%
%AMD104*
4,1,8,0.012000,-0.004000,0.012000,0.004000,0.004000,0.012000,-0.004000,0.012000,-0.012000,0.004000,-0.012000,-0.004000,-0.004000,-0.012000,0.004000,-0.012000,0.012000,-0.004000,0.0*
1,1,0.016000,0.004000,-0.004000*
1,1,0.016000,0.004000,0.004000*
1,1,0.016000,-0.004000,0.004000*
1,1,0.016000,-0.004000,-0.004000*
%
%AMD105*
4,1,8,0.027500,0.025500,-0.027500,0.025500,-0.037500,0.015500,-0.037500,-0.015500,-0.027500,-0.025500,0.027500,-0.025500,0.037500,-0.015500,0.037500,0.015500,0.027500,0.025500,0.0*
1,1,0.019976,0.027500,0.015500*
1,1,0.019976,-0.027500,0.015500*
1,1,0.019976,-0.027500,-0.015500*
1,1,0.019976,0.027500,-0.015500*
%
%AMD107*
4,1,8,0.068900,0.068900,-0.068900,0.068900,-0.068900,0.068900,-0.068900,-0.068900,-0.068900,-0.068900,0.068900,-0.068900,0.068900,-0.068900,0.068900,0.068900,0.068900,0.068900,0.0*
1,1,0.000000,0.068900,0.068900*
1,1,0.000000,-0.068900,0.068900*
1,1,0.000000,-0.068900,-0.068900*
1,1,0.000000,0.068900,-0.068900*
%
%AMD114*
4,1,8,0.062000,0.051200,-0.062000,0.051200,-0.088600,0.024600,-0.088600,-0.024600,-0.062000,-0.051200,0.062000,-0.051200,0.088600,-0.024600,0.088600,0.024600,0.062000,0.051200,0.0*
1,1,0.053213,0.062000,0.024600*
1,1,0.053213,-0.062000,0.024600*
1,1,0.053213,-0.062000,-0.024600*
1,1,0.053213,0.062000,-0.024600*
%
%AMD115*
4,1,8,0.031500,-0.037400,0.031500,0.037400,0.017700,0.051200,-0.017700,0.051200,-0.031500,0.037400,-0.031500,-0.037400,-0.017700,-0.051200,0.017700,-0.051200,0.031500,-0.037400,0.0*
1,1,0.027622,0.017700,-0.037400*
1,1,0.027622,0.017700,0.037400*
1,1,0.027622,-0.017700,0.037400*
1,1,0.027622,-0.017700,-0.037400*
%
%AMD116*
4,1,8,0.037400,0.031500,-0.037400,0.031500,-0.051200,0.017700,-0.051200,-0.017700,-0.037400,-0.031500,0.037400,-0.031500,0.051200,-0.017700,0.051200,0.017700,0.037400,0.031500,0.0*
1,1,0.027622,0.037400,0.017700*
1,1,0.027622,-0.037400,0.017700*
1,1,0.027622,-0.037400,-0.017700*
1,1,0.027622,0.037400,-0.017700*
%
%AMD117*
4,1,8,0.019500,0.023500,-0.019500,0.023500,-0.029500,0.013500,-0.029500,-0.013500,-0.019500,-0.023500,0.019500,-0.023500,0.029500,-0.013500,0.029500,0.013500,0.019500,0.023500,0.0*
1,1,0.019913,0.019500,0.013500*
1,1,0.019913,-0.019500,0.013500*
1,1,0.019913,-0.019500,-0.013500*
1,1,0.019913,0.019500,-0.013500*
%
%AMD119*
4,1,8,-0.014600,0.002800,-0.014600,-0.002800,-0.009900,-0.007500,0.009900,-0.007500,0.014600,-0.002800,0.014600,0.002800,0.009900,0.007500,-0.009900,0.007500,-0.014600,0.002800,0.0*
1,1,0.009386,-0.009900,0.002800*
1,1,0.009386,-0.009900,-0.002800*
1,1,0.009386,0.009900,-0.002800*
1,1,0.009386,0.009900,0.002800*
%
%AMD120*
4,1,8,-0.035200,0.045600,-0.035200,-0.045600,-0.030900,-0.050000,0.030900,-0.050000,0.035200,-0.045600,0.035200,0.045600,0.030900,0.050000,-0.030900,0.050000,-0.035200,0.045600,0.0*
1,1,0.008764,-0.030900,0.045600*
1,1,0.008764,-0.030900,-0.045600*
1,1,0.008764,0.030900,-0.045600*
1,1,0.008764,0.030900,0.045600*
%
%AMD122*
4,1,8,0.019000,-0.011600,0.019000,0.011600,0.011100,0.019500,-0.011100,0.019500,-0.019000,0.011600,-0.019000,-0.011600,-0.011100,-0.019500,0.011100,-0.019500,0.019000,-0.011600,0.0*
1,1,0.015898,0.011100,-0.011600*
1,1,0.015898,0.011100,0.011600*
1,1,0.015898,-0.011100,0.011600*
1,1,0.015898,-0.011100,-0.011600*
%
%AMD123*
4,1,8,0.011600,0.019000,-0.011600,0.019000,-0.019500,0.011100,-0.019500,-0.011100,-0.011600,-0.019000,0.011600,-0.019000,0.019500,-0.011100,0.019500,0.011100,0.011600,0.019000,0.0*
1,1,0.015898,0.011600,0.011100*
1,1,0.015898,-0.011600,0.011100*
1,1,0.015898,-0.011600,-0.011100*
1,1,0.015898,0.011600,-0.011100*
%
%AMD125*
4,1,8,-0.011800,-0.017700,0.011800,-0.017700,0.021700,-0.007900,0.021700,0.007900,0.011800,0.017700,-0.011800,0.017700,-0.021700,0.007900,-0.021700,-0.007900,-0.011800,-0.017700,0.0*
1,1,0.019748,-0.011800,-0.007900*
1,1,0.019748,0.011800,-0.007900*
1,1,0.019748,0.011800,0.007900*
1,1,0.019748,-0.011800,0.007900*
%
%AMD126*
4,1,8,-0.012600,-0.020500,0.012600,-0.020500,0.018500,-0.014600,0.018500,0.014600,0.012600,0.020500,-0.012600,0.020500,-0.018500,0.014600,-0.018500,-0.014600,-0.012600,-0.020500,0.0*
1,1,0.011811,-0.012600,-0.014600*
1,1,0.011811,0.012600,-0.014600*
1,1,0.011811,0.012600,0.014600*
1,1,0.011811,-0.012600,0.014600*
%
%AMD127*
4,1,8,-0.007900,-0.022400,0.007900,-0.022400,0.018500,-0.011800,0.018500,0.011800,0.007900,0.022400,-0.007900,0.022400,-0.018500,0.011800,-0.018500,-0.011800,-0.007900,-0.022400,0.0*
1,1,0.021260,-0.007900,-0.011800*
1,1,0.021260,0.007900,-0.011800*
1,1,0.021260,0.007900,0.011800*
1,1,0.021260,-0.007900,0.011800*
%
%AMD130*
4,1,8,0.006400,0.019500,-0.006400,0.019500,-0.015600,0.010300,-0.015600,-0.010300,-0.006400,-0.019500,0.006400,-0.019500,0.015600,-0.010300,0.015600,0.010300,0.006400,0.019500,0.0*
1,1,0.018307,0.006400,0.010300*
1,1,0.018307,-0.006400,0.010300*
1,1,0.018307,-0.006400,-0.010300*
1,1,0.018307,0.006400,-0.010300*
%
%AMD132*
4,1,8,-0.023200,-0.046500,0.023200,-0.046500,0.048500,-0.021300,0.048500,0.021300,0.023200,0.046500,-0.023200,0.046500,-0.048500,0.021300,-0.048500,-0.021300,-0.023200,-0.046500,0.0*
1,1,0.050520,-0.023200,-0.021300*
1,1,0.050520,0.023200,-0.021300*
1,1,0.050520,0.023200,0.021300*
1,1,0.050520,-0.023200,0.021300*
%
%AMD137*
4,1,8,-0.051500,-0.020300,0.051500,-0.020300,0.063000,-0.008800,0.063000,0.008800,0.051500,0.020300,-0.051500,0.020300,-0.063000,0.008800,-0.063000,-0.008800,-0.051500,-0.020300,0.0*
1,1,0.023031,-0.051500,-0.008800*
1,1,0.023031,0.051500,-0.008800*
1,1,0.023031,0.051500,0.008800*
1,1,0.023031,-0.051500,0.008800*
%
%AMD144*
4,1,8,0.015700,-0.005900,0.015700,0.005900,0.011800,0.009800,-0.011800,0.009800,-0.015700,0.005900,-0.015700,-0.005900,-0.011800,-0.009800,0.011800,-0.009800,0.015700,-0.005900,0.0*
1,1,0.007874,0.011800,-0.005900*
1,1,0.007874,0.011800,0.005900*
1,1,0.007874,-0.011800,0.005900*
1,1,0.007874,-0.011800,-0.005900*
%
%AMD153*
4,1,8,-0.010800,0.003000,-0.010800,-0.003000,-0.005900,-0.007900,0.005900,-0.007900,0.010800,-0.003000,0.010800,0.003000,0.005900,0.007900,-0.005900,0.007900,-0.010800,0.003000,0.0*
1,1,0.009843,-0.005900,0.003000*
1,1,0.009843,-0.005900,-0.003000*
1,1,0.009843,0.005900,-0.003000*
1,1,0.009843,0.005900,0.003000*
%
%AMD157*
4,1,8,0.017700,-0.011800,0.017700,0.011800,0.007900,0.021700,-0.007900,0.021700,-0.017700,0.011800,-0.017700,-0.011800,-0.007900,-0.021700,0.007900,-0.021700,0.017700,-0.011800,0.0*
1,1,0.019748,0.007900,-0.011800*
1,1,0.019748,0.007900,0.011800*
1,1,0.019748,-0.007900,0.011800*
1,1,0.019748,-0.007900,-0.011800*
%
%AMD166*
4,1,8,0.032000,-0.016000,0.032000,0.016000,0.016000,0.032000,-0.016000,0.032000,-0.032000,0.016000,-0.032000,-0.016000,-0.016000,-0.032000,0.016000,-0.032000,0.032000,-0.016000,0.0*
%
%ADD31R,0.203149X0.122047*%
%ADD35C,0.085000*%
G04~CAMADD=94~8~0.0~0.0~590.0~470.0~99.6~0.0~15~0.0~0.0~0.0~0.0~0~0.0~0.0~0.0~0.0~0~0.0~0.0~0.0~90.0~470.0~590.0*
%ADD94D94*%
%ADD95R,0.060630X0.113779*%
%ADD96C,0.090512*%
G04~CAMADD=97~8~0.0~0.0~1772.3~1024.3~266.1~0.0~15~0.0~0.0~0.0~0.0~0~0.0~0.0~0.0~0.0~0~0.0~0.0~0.0~90.0~1024.0~1772.0*
%ADD97D97*%
G04~CAMADD=98~8~0.0~0.0~240.0~240.0~80.0~0.0~15~0.0~0.0~0.0~0.0~0~0.0~0.0~0.0~0.0~0~0.0~0.0~0.0~180.0~240.0~240.0*
%ADD98D98*%
%ADD99C,0.021654*%
%ADD100R,0.046850X0.029134*%
G04~CAMADD=101~8~0.0~0.0~1259.8~405.5~115.2~0.0~15~0.0~0.0~0.0~0.0~0~0.0~0.0~0.0~0.0~0~0.0~0.0~0.0~90.0~406.0~1260.0*
%ADD101D101*%
%ADD102R,0.216141X0.341732*%
G04~CAMADD=103~8~0.0~0.0~750.0~510.0~99.9~0.0~15~0.0~0.0~0.0~0.0~0~0.0~0.0~0.0~0.0~0~0.0~0.0~0.0~270.0~510.0~750.0*
%ADD103D103*%
G04~CAMADD=104~8~0.0~0.0~240.0~240.0~80.0~0.0~15~0.0~0.0~0.0~0.0~0~0.0~0.0~0.0~0.0~0~0.0~0.0~0.0~270.0~240.0~240.0*
%ADD104D104*%
G04~CAMADD=105~8~0.0~0.0~750.0~510.0~99.9~0.0~15~0.0~0.0~0.0~0.0~0~0.0~0.0~0.0~0.0~0~0.0~0.0~0.0~0.0~750.0~510.0*
%ADD105D105*%
%ADD106R,0.035496X0.013842*%
G04~CAMADD=107~8~0.0~0.0~1378.6~1378.6~0.0~0.0~15~0.0~0.0~0.0~0.0~0~0.0~0.0~0.0~0.0~0~0.0~0.0~0.0~0.0~1378.6~1378.6*
%ADD107D107*%
%ADD108R,0.013842X0.035496*%
%ADD109O,0.037008X0.014567*%
%ADD110O,0.014567X0.037008*%
%ADD111R,0.296850X0.296850*%
%ADD112R,0.082283X0.066535*%
%ADD113O,0.057149X0.015811*%
G04~CAMADD=114~8~0.0~0.0~1772.3~1024.3~266.1~0.0~15~0.0~0.0~0.0~0.0~0~0.0~0.0~0.0~0.0~0~0.0~0.0~0.0~0.0~1772.3~1024.3*
%ADD114D114*%
G04~CAMADD=115~8~0.0~0.0~1024.3~630.6~138.1~0.0~15~0.0~0.0~0.0~0.0~0~0.0~0.0~0.0~0.0~0~0.0~0.0~0.0~270.0~630.0~1024.0*
%ADD115D115*%
G04~CAMADD=116~8~0.0~0.0~1024.3~630.6~138.1~0.0~15~0.0~0.0~0.0~0.0~0~0.0~0.0~0.0~0.0~0~0.0~0.0~0.0~0.0~1024.3~630.6*
%ADD116D116*%
G04~CAMADD=117~8~0.0~0.0~590.0~470.0~99.6~0.0~15~0.0~0.0~0.0~0.0~0~0.0~0.0~0.0~0.0~0~0.0~0.0~0.0~0.0~590.0~470.0*
%ADD117D117*%
%ADD118R,0.057149X0.090614*%
G04~CAMADD=119~8~0.0~0.0~149.6~291.3~46.9~0.0~15~0.0~0.0~0.0~0.0~0~0.0~0.0~0.0~0.0~0~0.0~0.0~0.0~90.0~292.0~151.0*
%ADD119D119*%
G04~CAMADD=120~8~0.0~0.0~1000.0~704.7~43.8~0.0~15~0.0~0.0~0.0~0.0~0~0.0~0.0~0.0~0.0~0~0.0~0.0~0.0~90.0~705.0~1000.0*
%ADD120D120*%
%ADD121C,0.021716*%
G04~CAMADD=122~8~0.0~0.0~390.0~380.0~79.5~0.0~15~0.0~0.0~0.0~0.0~0~0.0~0.0~0.0~0.0~0~0.0~0.0~0.0~270.0~380.0~390.0*
%ADD122D122*%
G04~CAMADD=123~8~0.0~0.0~390.0~380.0~79.5~0.0~15~0.0~0.0~0.0~0.0~0~0.0~0.0~0.0~0.0~0~0.0~0.0~0.0~0.0~390.0~380.0*
%ADD123D123*%
%ADD124O,0.068960X0.027622*%
G04~CAMADD=125~8~0.0~0.0~433.7~355.0~98.7~0.0~15~0.0~0.0~0.0~0.0~0~0.0~0.0~0.0~0.0~0~0.0~0.0~0.0~180.0~434.0~355.0*
%ADD125D125*%
G04~CAMADD=126~8~0.0~0.0~370.1~409.4~59.1~0.0~15~0.0~0.0~0.0~0.0~0~0.0~0.0~0.0~0.0~0~0.0~0.0~0.0~180.0~371.0~410.0*
%ADD126D126*%
G04~CAMADD=127~8~0.0~0.0~370.1~448.8~106.3~0.0~15~0.0~0.0~0.0~0.0~0~0.0~0.0~0.0~0.0~0~0.0~0.0~0.0~180.0~370.0~448.0*
%ADD127D127*%
%ADD128R,0.115748X0.096063*%
%ADD129R,0.096063X0.115748*%
G04~CAMADD=130~8~0.0~0.0~311.0~389.8~91.5~0.0~15~0.0~0.0~0.0~0.0~0~0.0~0.0~0.0~0.0~0~0.0~0.0~0.0~0.0~311.0~389.8*
%ADD130D130*%
%ADD131O,0.015811X0.066992*%
G04~CAMADD=132~8~0.0~0.0~969.8~930.4~252.6~0.0~15~0.0~0.0~0.0~0.0~0~0.0~0.0~0.0~0.0~0~0.0~0.0~0.0~180.0~970.0~930.0*
%ADD132D132*%
%ADD133R,0.051244X0.059118*%
%ADD134R,0.043370X0.059118*%
%ADD135R,0.059118X0.051244*%
%ADD136R,0.059118X0.043370*%
G04~CAMADD=137~8~0.0~0.0~1259.8~405.5~115.2~0.0~15~0.0~0.0~0.0~0.0~0~0.0~0.0~0.0~0.0~0~0.0~0.0~0.0~180.0~1260.0~405.0*
%ADD137D137*%
%ADD138R,0.341732X0.216141*%
%ADD139R,0.106362X0.102425*%
%ADD140R,0.296850X0.296850*%
%ADD141R,0.088582X0.088582*%
%ADD142O,0.013780X0.037401*%
%ADD143O,0.037401X0.013780*%
G04~CAMADD=144~8~0.0~0.0~196.9~315.0~39.4~0.0~15~0.0~0.0~0.0~0.0~0~0.0~0.0~0.0~0.0~0~0.0~0.0~0.0~270.0~314.0~196.0*
%ADD144D144*%
%ADD145O,0.016535X0.038976*%
%ADD146O,0.038976X0.016535*%
%ADD147R,0.225984X0.225984*%
%ADD148O,0.021260X0.076378*%
%ADD149R,0.022000X0.016000*%
%ADD150C,0.118110*%
%ADD151O,0.119000X0.034000*%
%ADD152R,0.175000X0.158000*%
G04~CAMADD=153~8~0.0~0.0~157.5~216.5~49.2~0.0~15~0.0~0.0~0.0~0.0~0~0.0~0.0~0.0~0.0~0~0.0~0.0~0.0~90.0~218.0~157.0*
%ADD153D153*%
%ADD154R,0.090614X0.057149*%
%ADD155O,0.066992X0.027622*%
%ADD156R,0.096023X0.027520*%
G04~CAMADD=157~8~0.0~0.0~433.7~355.0~98.7~0.0~15~0.0~0.0~0.0~0.0~0~0.0~0.0~0.0~0.0~0~0.0~0.0~0.0~270.0~356.0~434.0*
%ADD157D157*%
%ADD158C,0.249606*%
%ADD159C,0.027622*%
%ADD160C,0.090614*%
%ADD161C,0.084449*%
%ADD162R,0.084449X0.084449*%
%ADD163C,0.123622*%
%ADD164C,0.068504*%
%ADD165C,0.154000*%
G04~CAMADD=166~4~0.0~0.0~640.0~640.0~0.0~160.0~0~0.0~0.0~0.0~0.0~0~0.0~0.0~0.0~0.0~0~0.0~0.0~0.0~270.0~640.0~640.0*
%ADD166D166*%
%ADD167C,0.064000*%
%ADD168R,0.123622X0.123622*%
%ADD169C,0.123512*%
%ADD170C,0.011000*%
%ADD171C,0.019000*%
%ADD172C,0.024000*%
%ADD173C,0.023685*%
%LNprob_s7cas_pcb-1*%
%LPD*%
G36*
X05407Y07086D02*
X05407D01*
X05407Y07086*
X05407Y07086*
X05407Y07086*
X05407Y07086*
X05407Y07086*
X05407Y07086*
X05407Y07086*
X05407Y07086*
X05408Y07086*
X05408Y07086*
X05408Y07086*
X05408Y07086*
X05409Y07086*
X05409Y07086*
X05409Y07086*
X05409Y07086*
X05409Y07085*
X05409Y07085*
X05409Y07085*
X0541Y07085*
X0541Y07085*
X0541Y07085*
X0541Y07084*
X0541Y07084*
X0541Y07084*
X0541Y07084*
X0541Y07084*
X0541Y07084*
X0541Y07084*
X0541Y07084*
X05411Y07083*
X05411Y07083*
X05411Y07083*
X05411Y07083*
X05411Y07083*
X05411Y07083*
X05411Y07082*
X05411Y07082*
X05411Y07082*
Y07082*
X05411Y07082*
Y06951*
X05411Y06951*
Y06951*
X05411Y06951*
X05411Y06951*
X05411Y06951*
X05411Y06951*
X05411Y06951*
X05411Y06951*
X05411Y0695*
X05411Y0695*
X0541Y0695*
X0541Y06949*
X0541Y06949*
X0541Y06949*
X0541Y06949*
X0541Y06949*
X0541Y06949*
X0541Y06949*
X0541Y06949*
X0541Y06949*
X0541Y06949*
X05409Y06948*
X05409Y06948*
X05409Y06948*
X05409Y06948*
X05409Y06948*
X05409Y06948*
X05409Y06948*
X05408Y06948*
X05408Y06948*
X05408Y06948*
X05408Y06948*
X05407Y06947*
X05407Y06947*
X05407Y06947*
X05407Y06947*
X05407Y06947*
X05407Y06947*
X05407Y06947*
X05407Y06947*
X05407Y06947*
X05407*
X05406Y06947*
X054*
X054Y06947*
X054*
X05399Y06947*
X05399Y06947*
X05399Y06947*
X05399Y06947*
X05399Y06947*
X05399Y06947*
X05399Y06947*
X05399Y06947*
X05398Y06948*
X05398Y06948*
X05398Y06948*
X05398Y06948*
X05398Y06948*
X05397Y06948*
X05397Y06948*
X05397Y06948*
X05397Y06948*
X05397Y06948*
X05397Y06948*
X05396Y06949*
X05396Y06949*
X05396Y06949*
X05396Y06949*
X05396Y06949*
X05396Y06949*
X05396Y06949*
X05396Y06949*
X05396Y06949*
X05396Y06949*
X05396Y0695*
X05396Y0695*
X05396Y0695*
X05396Y06951*
X05395Y06951*
X05395Y06951*
X05395Y06951*
X05395Y06951*
X05395Y06951*
X05395Y06951*
Y06951*
X05395Y06951*
Y07082*
X05395Y07082*
Y07082*
X05395Y07082*
X05395Y07082*
X05395Y07083*
X05395Y07083*
X05395Y07083*
X05396Y07083*
X05396Y07083*
X05396Y07083*
X05396Y07084*
X05396Y07084*
X05396Y07084*
X05396Y07084*
X05396Y07084*
X05396Y07084*
X05396Y07084*
X05396Y07084*
X05396Y07085*
X05396Y07085*
X05396Y07085*
X05397Y07085*
X05397Y07085*
X05397Y07085*
X05397Y07086*
X05397Y07086*
X05397Y07086*
X05398Y07086*
X05398Y07086*
X05398Y07086*
X05398Y07086*
X05398Y07086*
X05399Y07086*
X05399Y07086*
X05399Y07086*
X05399Y07086*
X05399Y07086*
X05399Y07086*
X05399Y07086*
X05399Y07086*
X054Y07086*
X054*
X054Y07086*
X05406*
X05407Y07086*
G37*
G36*
X05387D02*
X05387D01*
X05387Y07086*
X05387Y07086*
X05387Y07086*
X05387Y07086*
X05387Y07086*
X05388Y07086*
X05388Y07086*
X05388Y07086*
X05389Y07086*
X05389Y07086*
X05389Y07086*
X05389Y07086*
X05389Y07086*
X05389Y07086*
X05389Y07086*
X05389Y07086*
X05389Y07085*
X05389Y07085*
X05389Y07085*
X0539Y07085*
X0539Y07085*
X0539Y07085*
X0539Y07084*
X0539Y07084*
X0539Y07084*
X0539Y07084*
X0539Y07084*
X0539Y07084*
X05391Y07084*
X05391Y07084*
X05391Y07083*
X05391Y07083*
X05391Y07083*
X05391Y07083*
X05391Y07083*
X05391Y07083*
X05391Y07082*
X05391Y07082*
X05391Y07082*
Y07082*
X05391Y07082*
Y06951*
X05391Y06951*
Y06951*
X05391Y06951*
X05391Y06951*
X05391Y06951*
X05391Y06951*
X05391Y06951*
X05391Y06951*
X05391Y0695*
X05391Y0695*
X05391Y0695*
X05391Y06949*
X0539Y06949*
X0539Y06949*
X0539Y06949*
X0539Y06949*
X0539Y06949*
X0539Y06949*
X0539Y06949*
X0539Y06949*
X0539Y06949*
X05389Y06948*
X05389Y06948*
X05389Y06948*
X05389Y06948*
X05389Y06948*
X05389Y06948*
X05389Y06948*
X05389Y06948*
X05389Y06948*
X05389Y06948*
X05389Y06948*
X05388Y06947*
X05388Y06947*
X05388Y06947*
X05387Y06947*
X05387Y06947*
X05387Y06947*
X05387Y06947*
X05387Y06947*
X05387Y06947*
X05387*
X05387Y06947*
X0538*
X0538Y06947*
X0538*
X0538Y06947*
X0538Y06947*
X05379Y06947*
X05379Y06947*
X05379Y06947*
X05379Y06947*
X05379Y06947*
X05379Y06947*
X05378Y06948*
X05378Y06948*
X05378Y06948*
X05378Y06948*
X05378Y06948*
X05378Y06948*
X05378Y06948*
X05378Y06948*
X05378Y06948*
X05377Y06948*
X05377Y06948*
X05377Y06949*
X05377Y06949*
X05377Y06949*
X05377Y06949*
X05377Y06949*
X05376Y06949*
X05376Y06949*
X05376Y06949*
X05376Y06949*
X05376Y06949*
X05376Y0695*
X05376Y0695*
X05376Y0695*
X05376Y06951*
X05376Y06951*
X05376Y06951*
X05376Y06951*
X05376Y06951*
X05376Y06951*
X05376Y06951*
Y06951*
X05376Y06951*
Y07082*
X05376Y07082*
Y07082*
X05376Y07082*
X05376Y07082*
X05376Y07083*
X05376Y07083*
X05376Y07083*
X05376Y07083*
X05376Y07083*
X05376Y07083*
X05376Y07084*
X05376Y07084*
X05376Y07084*
X05376Y07084*
X05376Y07084*
X05376Y07084*
X05377Y07084*
X05377Y07084*
X05377Y07085*
X05377Y07085*
X05377Y07085*
X05377Y07085*
X05377Y07085*
X05378Y07085*
X05378Y07086*
X05378Y07086*
X05378Y07086*
X05378Y07086*
X05378Y07086*
X05378Y07086*
X05378Y07086*
X05378Y07086*
X05379Y07086*
X05379Y07086*
X05379Y07086*
X05379Y07086*
X05379Y07086*
X05379Y07086*
X0538Y07086*
X0538Y07086*
X0538Y07086*
X0538*
X0538Y07086*
X05387*
X05387Y07086*
G37*
G54D31*
X01407Y07033D03*
G54D35*
X01912Y01525D03*
X01162D03*
Y0165D03*
X01912Y019D03*
X01162D03*
G54D94*
X03148Y04216D03*
X03081D03*
X03568Y05699D03*
X03501D03*
X0357Y0561D03*
X03503D03*
X03571Y04222D03*
X03504D03*
X02622Y04926D03*
X02689D03*
X03314Y05461D03*
X03247D03*
G54D95*
X02503Y01866D03*
X0266Y016D03*
Y01866D03*
X02503Y016D03*
X03043D03*
X032Y01866D03*
Y016D03*
X03043Y01866D03*
X03713Y01886D03*
X0387Y0162D03*
Y01886D03*
X03713Y0162D03*
G54D96*
X03319Y03627D03*
X03119D03*
X02819D03*
X03319Y03002D03*
X03119D03*
X03219D03*
X02919D03*
X03019D03*
X02819Y03127D03*
Y03002D03*
X0381Y08743D03*
X03685D03*
X0381Y08943D03*
Y08843D03*
Y09143D03*
Y09043D03*
Y09243D03*
X03185Y08743D03*
Y09043D03*
Y09243D03*
X04732Y08386D03*
Y08186D03*
Y07886D03*
X05357Y08386D03*
Y08186D03*
Y08286D03*
Y07986D03*
Y08086D03*
X05232Y07886D03*
X05357D03*
X01022Y04752D03*
Y04552D03*
Y04252D03*
X01647Y04752D03*
Y04552D03*
Y04652D03*
Y04352D03*
Y04452D03*
X01522Y04252D03*
X01647D03*
X02776Y0601D03*
X02651D03*
X02776Y0621D03*
Y0611D03*
Y0641D03*
Y0631D03*
Y0651D03*
X02151Y0601D03*
Y0631D03*
Y0651D03*
G54D97*
X04272Y07783D03*
Y08113D03*
X04225Y08743D03*
Y09074D03*
X02719Y08942D03*
Y08612D03*
X0382Y03478D03*
Y03147D03*
X03251Y06039D03*
Y0637D03*
X02129Y04163D03*
Y04494D03*
X00583Y04589D03*
Y04258D03*
X00608Y01662D03*
Y01993D03*
G54D98*
X01213Y03148D03*
Y03183D03*
X02985Y07411D03*
Y07376D03*
X02709Y07411D03*
Y07376D03*
X02867Y07411D03*
Y07376D03*
X02926Y07411D03*
Y07376D03*
X02768Y07411D03*
Y07376D03*
X02582Y07413D03*
Y07378D03*
X02478Y07888D03*
Y07853D03*
X03179Y07525D03*
Y0749D03*
X03139Y07525D03*
Y0749D03*
X03059Y07809D03*
Y07844D03*
X02935Y07193D03*
Y07228D03*
X0394Y08921D03*
Y08886D03*
X04441Y03377D03*
Y03412D03*
X04441Y03483D03*
Y03448D03*
X04479Y03411D03*
Y03376D03*
X03889Y0529D03*
Y05255D03*
X02782Y04533D03*
Y04498D03*
X02782Y04426D03*
Y04461D03*
X039Y04698D03*
Y04733D03*
Y04514D03*
Y04479D03*
Y04406D03*
Y04441D03*
Y0498D03*
Y04945D03*
X03889Y05181D03*
Y05216D03*
X02785Y04686D03*
Y04721D03*
X02747Y04906D03*
Y04941D03*
X02785Y04904D03*
Y04939D03*
X0277Y05176D03*
Y05211D03*
X0277Y05283D03*
Y05248D03*
X02914Y0625D03*
Y06215D03*
X02211Y08597D03*
Y08562D03*
X05049Y06153D03*
Y06188D03*
X05493Y0693D03*
Y06965D03*
X05487Y08047D03*
Y08012D03*
X01104Y09004D03*
Y08969D03*
X00853Y08892D03*
Y08857D03*
X01852Y10098D03*
Y10133D03*
X01891Y10099D03*
Y10134D03*
X01927Y10099D03*
Y10134D03*
X01617Y09958D03*
Y09923D03*
X01657Y09958D03*
Y09923D03*
X01807Y09379D03*
Y09344D03*
X01087Y09772D03*
Y09807D03*
X01087Y09958D03*
Y09923D03*
X02087Y05303D03*
Y05268D03*
X02128Y05303D03*
Y05268D03*
X02167Y05303D03*
Y05268D03*
X02207Y05303D03*
Y05268D03*
X02016Y0566D03*
Y05695D03*
X01957Y05643D03*
Y05678D03*
X02056Y0566D03*
Y05695D03*
X02027Y05351D03*
Y05316D03*
X0195Y05351D03*
Y05316D03*
X01988D03*
Y05351D03*
X01846Y05263D03*
Y05228D03*
X01306Y07474D03*
Y07439D03*
X01639Y07506D03*
Y07471D03*
X01574Y07243D03*
Y07208D03*
X01241Y07243D03*
Y07208D03*
X01667Y05742D03*
Y05707D03*
X01667Y05602D03*
Y05637D03*
X01667Y05316D03*
Y05351D03*
X01667Y0545D03*
Y05415D03*
X01789Y04431D03*
Y04396D03*
X02026Y01522D03*
Y01487D03*
X00824Y02665D03*
Y0263D03*
X00949Y02493D03*
Y02458D03*
X00911Y02459D03*
Y02494D03*
X02056Y009D03*
Y00865D03*
X01921Y00458D03*
Y00493D03*
X02692Y00691D03*
Y00726D03*
X02418Y00656D03*
Y00691D03*
X00832Y01084D03*
Y01049D03*
X00835Y0071D03*
Y00675D03*
X01911Y01072D03*
Y01107D03*
X012Y0073D03*
Y00765D03*
X01192Y0103D03*
Y01065D03*
X01153Y01078D03*
Y01113D03*
X01078Y00986D03*
Y00951D03*
X0109Y00696D03*
Y00731D03*
X01115Y01078D03*
Y01113D03*
X01318Y0068D03*
Y00715D03*
X0124Y0073D03*
Y00765D03*
X01281Y0068D03*
Y00715D03*
X01229Y0103D03*
Y01065D03*
X02275Y03078D03*
Y03043D03*
X02315Y03078D03*
Y03043D03*
X01887Y03245D03*
Y0328D03*
X0166Y02797D03*
Y02832D03*
X01675Y03858D03*
Y03823D03*
Y03444D03*
Y03479D03*
X00994Y03218D03*
Y03253D03*
X01084Y03534D03*
Y03499D03*
X01009Y03534D03*
Y03499D03*
X00969Y03534D03*
Y03499D03*
X01047Y03534D03*
Y03499D03*
X01172Y03183D03*
Y03148D03*
X01129Y03183D03*
Y03148D03*
X01898Y03692D03*
Y03657D03*
X01996Y03692D03*
Y03657D03*
X01948Y03692D03*
Y03657D03*
X02144Y03645D03*
Y0361D03*
X02118Y03548D03*
Y03513D03*
X02118Y03421D03*
Y03456D03*
X02206Y03302D03*
Y03267D03*
X02141Y03362D03*
Y03327D03*
X02387Y03674D03*
Y03709D03*
X02189Y03693D03*
Y03728D03*
X02384Y03285D03*
Y0325D03*
X02228Y03659D03*
Y03694D03*
X02346Y0366D03*
Y03695D03*
X02347Y03302D03*
Y03267D03*
X02103Y0326D03*
Y03225D03*
X02142Y0326D03*
Y03225D03*
X0224Y03302D03*
Y03267D03*
X0166Y03203D03*
Y03168D03*
X00802Y05747D03*
Y05782D03*
X02957Y09683D03*
Y09718D03*
X02751Y01888D03*
Y01853D03*
X03291Y01901D03*
Y01866D03*
X03971Y01866D03*
Y01901D03*
G54D99*
X03834Y04348D03*
Y04388D03*
Y04427D03*
Y04466D03*
Y04506D03*
Y04545D03*
Y04584D03*
Y04624D03*
Y04663D03*
Y04702D03*
Y04742D03*
Y04781D03*
Y04821D03*
Y0486D03*
Y04899D03*
Y04939D03*
Y04978D03*
Y05017D03*
Y05057D03*
Y05096D03*
Y05136D03*
Y05175D03*
Y05214D03*
Y05254D03*
Y05293D03*
Y05332D03*
X03795Y04348D03*
Y04388D03*
Y04427D03*
Y04466D03*
Y04506D03*
Y04545D03*
Y04584D03*
Y04624D03*
Y04663D03*
Y04702D03*
Y04742D03*
Y04781D03*
Y04821D03*
Y0486D03*
Y04899D03*
Y04939D03*
Y04978D03*
Y05017D03*
Y05057D03*
Y05096D03*
Y05136D03*
Y05175D03*
Y05214D03*
Y05254D03*
Y05293D03*
Y05332D03*
X03756Y04348D03*
Y04388D03*
Y04427D03*
Y04466D03*
Y04506D03*
Y04545D03*
Y04584D03*
Y04624D03*
Y04663D03*
Y04702D03*
Y04742D03*
Y04781D03*
Y04821D03*
Y0486D03*
Y04899D03*
Y04939D03*
Y04978D03*
Y05017D03*
Y05057D03*
Y05096D03*
Y05136D03*
Y05175D03*
Y05214D03*
Y05254D03*
Y05293D03*
Y05332D03*
X03716Y04348D03*
Y04388D03*
Y04427D03*
Y04466D03*
Y04506D03*
Y04545D03*
Y04584D03*
Y04624D03*
Y04663D03*
Y04702D03*
Y04742D03*
Y04781D03*
Y04821D03*
Y0486D03*
Y04899D03*
Y04939D03*
Y04978D03*
Y05017D03*
Y05057D03*
Y05096D03*
Y05136D03*
Y05175D03*
Y05214D03*
Y05254D03*
Y05293D03*
Y05332D03*
X03677Y04348D03*
Y04388D03*
Y04427D03*
Y04466D03*
Y04506D03*
Y04545D03*
Y04584D03*
Y04624D03*
Y04663D03*
Y04702D03*
Y04742D03*
Y04781D03*
Y04821D03*
Y0486D03*
Y04899D03*
Y04939D03*
Y04978D03*
Y05017D03*
Y05057D03*
Y05096D03*
Y05136D03*
Y05175D03*
Y05214D03*
Y05254D03*
Y05293D03*
Y05332D03*
X03638Y04348D03*
Y04388D03*
Y04427D03*
Y04466D03*
Y04506D03*
Y04545D03*
Y04584D03*
Y04624D03*
Y04663D03*
Y04702D03*
Y04742D03*
Y04781D03*
Y04821D03*
Y0486D03*
Y04899D03*
Y04939D03*
Y04978D03*
Y05017D03*
Y05057D03*
Y05096D03*
Y05136D03*
Y05175D03*
Y05214D03*
Y05254D03*
Y05293D03*
Y05332D03*
X03598Y04348D03*
Y04388D03*
Y04427D03*
Y04466D03*
Y04506D03*
Y04545D03*
Y04584D03*
Y04624D03*
Y04663D03*
Y04702D03*
Y04742D03*
Y04781D03*
Y04821D03*
Y0486D03*
Y04899D03*
Y04939D03*
Y04978D03*
Y05017D03*
Y05057D03*
Y05096D03*
Y05136D03*
Y05175D03*
Y05214D03*
Y05254D03*
Y05293D03*
Y05332D03*
X03559Y04348D03*
Y04388D03*
Y04427D03*
Y04466D03*
Y04506D03*
Y04545D03*
Y04584D03*
Y04624D03*
Y04663D03*
Y04702D03*
Y04742D03*
Y04781D03*
Y04821D03*
Y0486D03*
Y04899D03*
Y04939D03*
Y04978D03*
Y05017D03*
Y05057D03*
Y05096D03*
Y05136D03*
Y05175D03*
Y05214D03*
Y05254D03*
Y05293D03*
Y05332D03*
X03519Y04348D03*
Y04388D03*
Y04427D03*
Y04466D03*
Y04506D03*
Y04545D03*
Y04584D03*
Y04624D03*
Y04663D03*
Y04702D03*
Y04742D03*
Y04781D03*
Y04821D03*
Y0486D03*
Y04899D03*
Y04939D03*
Y04978D03*
Y05017D03*
Y05057D03*
Y05096D03*
Y05136D03*
Y05175D03*
Y05214D03*
Y05254D03*
Y05293D03*
Y05332D03*
X0348Y04348D03*
Y04388D03*
Y04427D03*
Y04466D03*
Y04506D03*
Y04545D03*
Y04584D03*
Y04624D03*
Y04663D03*
Y04702D03*
Y04742D03*
Y04781D03*
Y04821D03*
Y0486D03*
Y04899D03*
Y04939D03*
Y04978D03*
Y05017D03*
Y05057D03*
Y05096D03*
Y05136D03*
Y05175D03*
Y05214D03*
Y05254D03*
Y05293D03*
Y05332D03*
X03441Y04348D03*
Y04388D03*
Y04427D03*
Y04466D03*
Y04506D03*
Y04545D03*
Y04584D03*
Y04624D03*
Y04663D03*
Y04702D03*
Y04742D03*
Y04781D03*
Y04821D03*
Y0486D03*
Y04899D03*
Y04939D03*
Y04978D03*
Y05017D03*
Y05057D03*
Y05096D03*
Y05136D03*
Y05175D03*
Y05214D03*
Y05254D03*
Y05293D03*
Y05332D03*
X03401Y04348D03*
Y04388D03*
Y04427D03*
Y04466D03*
Y04506D03*
Y04545D03*
Y04584D03*
Y04624D03*
Y04663D03*
Y04702D03*
Y04742D03*
Y04781D03*
Y04821D03*
Y0486D03*
Y04899D03*
Y04939D03*
Y04978D03*
Y05017D03*
Y05057D03*
Y05096D03*
Y05136D03*
Y05175D03*
Y05214D03*
Y05254D03*
Y05293D03*
Y05332D03*
X03362Y04348D03*
Y04388D03*
Y04427D03*
Y04466D03*
Y04506D03*
Y04545D03*
Y04584D03*
Y04624D03*
Y04663D03*
Y04702D03*
Y04742D03*
Y04781D03*
Y04821D03*
Y0486D03*
Y04899D03*
Y04939D03*
Y04978D03*
Y05017D03*
Y05057D03*
Y05096D03*
Y05136D03*
Y05175D03*
Y05214D03*
Y05254D03*
Y05293D03*
Y05332D03*
X03323Y04348D03*
Y04388D03*
Y04427D03*
Y04466D03*
Y04506D03*
Y04545D03*
Y04584D03*
Y04624D03*
Y04663D03*
Y04702D03*
Y04742D03*
Y04781D03*
Y04821D03*
Y0486D03*
Y04899D03*
Y04939D03*
Y04978D03*
Y05017D03*
Y05057D03*
Y05096D03*
Y05136D03*
Y05175D03*
Y05214D03*
Y05254D03*
Y05293D03*
Y05332D03*
X03283Y04348D03*
Y04388D03*
Y04427D03*
Y04466D03*
Y04506D03*
Y04545D03*
Y04584D03*
Y04624D03*
Y04663D03*
Y04702D03*
Y04742D03*
Y04781D03*
Y04821D03*
Y0486D03*
Y04899D03*
Y04939D03*
Y04978D03*
Y05017D03*
Y05057D03*
Y05096D03*
Y05136D03*
Y05175D03*
Y05214D03*
Y05254D03*
Y05293D03*
Y05332D03*
X03244Y04348D03*
Y04388D03*
Y04427D03*
Y04466D03*
Y04506D03*
Y04545D03*
Y04584D03*
Y04624D03*
Y04663D03*
Y04702D03*
Y04742D03*
Y04781D03*
Y04821D03*
Y0486D03*
Y04899D03*
Y04939D03*
Y04978D03*
Y05017D03*
Y05057D03*
Y05096D03*
Y05136D03*
Y05175D03*
Y05214D03*
Y05254D03*
Y05293D03*
Y05332D03*
X03205Y04348D03*
Y04388D03*
Y04427D03*
Y04466D03*
Y04506D03*
Y04545D03*
Y04584D03*
Y04624D03*
Y04663D03*
Y04702D03*
Y04742D03*
Y04781D03*
Y04821D03*
Y0486D03*
Y04899D03*
Y04939D03*
Y04978D03*
Y05017D03*
Y05057D03*
Y05096D03*
Y05136D03*
Y05175D03*
Y05214D03*
Y05254D03*
Y05293D03*
Y05332D03*
X03165Y04348D03*
Y04388D03*
Y04427D03*
Y04466D03*
Y04506D03*
Y04545D03*
Y04584D03*
Y04624D03*
Y04663D03*
Y04702D03*
Y04742D03*
Y04781D03*
Y04821D03*
Y0486D03*
Y04899D03*
Y04939D03*
Y04978D03*
Y05017D03*
Y05057D03*
Y05096D03*
Y05136D03*
Y05175D03*
Y05214D03*
Y05254D03*
Y05293D03*
Y05332D03*
X03126Y04348D03*
Y04388D03*
Y04427D03*
Y04466D03*
Y04506D03*
Y04545D03*
Y04584D03*
Y04624D03*
Y04663D03*
Y04702D03*
Y04742D03*
Y04781D03*
Y04821D03*
Y0486D03*
Y04899D03*
Y04939D03*
Y04978D03*
Y05017D03*
Y05057D03*
Y05096D03*
Y05136D03*
Y05175D03*
Y05214D03*
Y05254D03*
Y05293D03*
Y05332D03*
X03086Y04348D03*
Y04388D03*
Y04427D03*
Y04466D03*
Y04506D03*
Y04545D03*
Y04584D03*
Y04624D03*
Y04663D03*
Y04702D03*
Y04742D03*
Y04781D03*
Y04821D03*
Y0486D03*
Y04899D03*
Y04939D03*
Y04978D03*
Y05017D03*
Y05057D03*
Y05096D03*
Y05136D03*
Y05175D03*
Y05214D03*
Y05254D03*
Y05293D03*
Y05332D03*
X03047Y04348D03*
Y04388D03*
Y04427D03*
Y04466D03*
Y04506D03*
Y04545D03*
Y04584D03*
Y04624D03*
Y04663D03*
Y04702D03*
Y04742D03*
Y04781D03*
Y04821D03*
Y0486D03*
Y04899D03*
Y04939D03*
Y04978D03*
Y05017D03*
Y05057D03*
Y05096D03*
Y05136D03*
Y05175D03*
Y05214D03*
Y05254D03*
Y05293D03*
Y05332D03*
X03008Y04348D03*
Y04388D03*
Y04427D03*
Y04466D03*
Y04506D03*
Y04545D03*
Y04584D03*
Y04624D03*
Y04663D03*
Y04702D03*
Y04742D03*
Y04781D03*
Y04821D03*
Y0486D03*
Y04899D03*
Y04939D03*
Y04978D03*
Y05017D03*
Y05057D03*
Y05096D03*
Y05136D03*
Y05175D03*
Y05214D03*
Y05254D03*
Y05293D03*
Y05332D03*
X02968Y04348D03*
Y04388D03*
Y04427D03*
Y04466D03*
Y04506D03*
Y04545D03*
Y04584D03*
Y04624D03*
Y04663D03*
Y04702D03*
Y04742D03*
Y04781D03*
Y04821D03*
Y0486D03*
Y04899D03*
Y04939D03*
Y04978D03*
Y05017D03*
Y05057D03*
Y05096D03*
Y05136D03*
Y05175D03*
Y05214D03*
Y05254D03*
Y05293D03*
Y05332D03*
X02929Y04348D03*
Y04388D03*
Y04427D03*
Y04466D03*
Y04506D03*
Y04545D03*
Y04584D03*
Y04624D03*
Y04663D03*
Y04702D03*
Y04742D03*
Y04781D03*
Y04821D03*
Y0486D03*
Y04899D03*
Y04939D03*
Y04978D03*
Y05017D03*
Y05057D03*
Y05096D03*
Y05136D03*
Y05175D03*
Y05214D03*
Y05254D03*
Y05293D03*
Y05332D03*
X0289Y04348D03*
Y04388D03*
Y04427D03*
Y04466D03*
Y04506D03*
Y04545D03*
Y04584D03*
Y04624D03*
Y04663D03*
Y04702D03*
Y04742D03*
Y04781D03*
Y04821D03*
Y0486D03*
Y04899D03*
Y04939D03*
Y04978D03*
Y05017D03*
Y05057D03*
Y05096D03*
Y05136D03*
Y05175D03*
Y05214D03*
Y05254D03*
Y05293D03*
Y05332D03*
X0285Y04348D03*
Y04388D03*
Y04584D03*
Y04545D03*
Y04506D03*
Y04427D03*
Y04466D03*
Y04624D03*
Y04702D03*
Y04663D03*
Y04742D03*
Y04781D03*
Y04821D03*
Y0486D03*
Y05096D03*
Y04939D03*
Y04899D03*
Y04978D03*
Y05017D03*
Y05057D03*
Y05136D03*
Y05175D03*
Y05254D03*
Y05214D03*
Y05293D03*
Y05332D03*
G54D100*
X03981Y04012D03*
Y04087D03*
X04083D03*
Y0405D03*
Y04012D03*
X00606Y09314D03*
Y09276D03*
Y09239D03*
X00708D03*
Y09314D03*
G54D101*
X01827Y08508D03*
X01877D03*
X01927D03*
X01977D03*
X02027D03*
X02077D03*
X02127D03*
G54D102*
X01977Y08796D03*
G54D103*
X05387Y07744D03*
X05273D03*
X03807Y08583D03*
X03693D03*
X03142Y03794D03*
X03256D03*
X0231Y06658D03*
X02196D03*
X05152Y07218D03*
X05038D03*
G54D104*
X0552Y0707D03*
X05485D03*
X03484Y05434D03*
X03519D03*
X02402Y07809D03*
X02437D03*
X0258Y07881D03*
X02545D03*
X02621D03*
X02656D03*
X02589Y07801D03*
X02554D03*
X02402Y07771D03*
X02437D03*
X02436Y07689D03*
X02401D03*
X02436Y07728D03*
X02401D03*
X02617Y07584D03*
X02582D03*
X02614Y07728D03*
X02579D03*
X02614Y07686D03*
X02579D03*
X02617Y07643D03*
X02582D03*
X02434Y07891D03*
X02399D03*
X03032Y07391D03*
X03067D03*
X03058Y07525D03*
X03093D03*
X03514Y07567D03*
X03479D03*
X03514Y07607D03*
X03479D03*
X03254Y07525D03*
X03219D03*
X03515Y07647D03*
X0348D03*
X03058Y07622D03*
X03093D03*
X03059Y07489D03*
X03094D03*
X03057Y07585D03*
X03092D03*
X03059Y07663D03*
X03094D03*
X03059Y07761D03*
X03094D03*
X03059Y07701D03*
X03094D03*
X03119Y07809D03*
X03154D03*
X02711Y07293D03*
X02746D03*
X02792D03*
X02827D03*
X0299Y02875D03*
X02955D03*
X03099Y04284D03*
X03134D03*
X03208D03*
X03173D03*
X02825Y0428D03*
X0286D03*
X03518Y05472D03*
X03483D03*
X03518Y05545D03*
X03483D03*
X0352Y04285D03*
X03485D03*
X03372Y04283D03*
X03337D03*
X03518Y05509D03*
X03483D03*
X0328Y05396D03*
X03245D03*
X03591Y05433D03*
X03556D03*
X03171Y05395D03*
X03206D03*
X03483Y05396D03*
X03518D03*
X03591D03*
X03556D03*
X02044Y08345D03*
X02079D03*
X02095Y08383D03*
X0206D03*
X02018Y08381D03*
X01983D03*
X04809Y06451D03*
X04774D03*
X04808Y06306D03*
X04773D03*
X04809Y06415D03*
X04774D03*
X04808Y06342D03*
X04773D03*
X04808Y06379D03*
X04773D03*
X04808Y06157D03*
X04773D03*
X04808Y06195D03*
X04773D03*
X04809Y06233D03*
X04774D03*
X04809Y0627D03*
X04774D03*
X04808Y06121D03*
X04773D03*
X04809Y06602D03*
X04774D03*
X04714Y06603D03*
X04679D03*
X04074Y07011D03*
X04039D03*
X0359Y06968D03*
X03625D03*
X0359Y06918D03*
X03625D03*
X04072Y06831D03*
X04107D03*
X04107Y06868D03*
X04072D03*
X04075Y06968D03*
X0404D03*
X04075Y07053D03*
X0404D03*
X05229Y06275D03*
X05264D03*
X0523Y06421D03*
X05265D03*
X0523Y06348D03*
X05265D03*
X05229Y06239D03*
X05264D03*
X05229Y06312D03*
X05264D03*
X0523Y06385D03*
X05265D03*
X0523Y06493D03*
X05265D03*
X05229Y06457D03*
X05264D03*
X04714Y06121D03*
X04679D03*
X04715Y06491D03*
X0468D03*
X05317Y06385D03*
X05352D03*
X05318Y06493D03*
X05353D03*
X05315Y06204D03*
X0535D03*
X05316Y06239D03*
X05351D03*
X05318Y06457D03*
X05353D03*
X05317Y06348D03*
X05352D03*
X05316Y06311D03*
X05351D03*
X04714Y0638D03*
X04679D03*
X04714Y06306D03*
X04679D03*
X04808Y06491D03*
X04773D03*
X04714Y06417D03*
X04679D03*
X04714Y06342D03*
X04679D03*
X04715Y06195D03*
X0468D03*
X04715Y0627D03*
X0468D03*
X04714Y06157D03*
X04679D03*
X04715Y06231D03*
X0468D03*
X04714Y06453D03*
X04679D03*
X04715Y06527D03*
X0468D03*
X04809D03*
X04774D03*
X04717Y06564D03*
X04682D03*
X04809Y06565D03*
X04774D03*
X05317Y06421D03*
X05352D03*
X05229Y06203D03*
X05264D03*
X05316Y06275D03*
X05351D03*
X05303Y0718D03*
X05338D03*
X05338Y07143D03*
X05373D03*
Y07107D03*
X05338D03*
X01887Y02392D03*
X01922D03*
X01887Y02622D03*
X01922D03*
X02236Y02401D03*
X02271D03*
X02229Y02611D03*
X02264D03*
X018Y09724D03*
X01765D03*
X018Y09674D03*
X01765D03*
X01807Y09301D03*
X01772D03*
X01347Y09299D03*
X01312D03*
X01097Y09664D03*
X01062D03*
X01097Y09714D03*
X01062D03*
X02212Y05601D03*
X02247D03*
X02213Y0549D03*
X02248D03*
X02212Y05528D03*
X02247D03*
X02213Y05453D03*
X02248D03*
X02212Y05564D03*
X02247D03*
X01827Y05165D03*
X01792D03*
X0218Y05376D03*
X02215D03*
X0218Y05417D03*
X02215D03*
X01872Y05625D03*
X01837D03*
X01896Y05564D03*
X01861D03*
X01846Y05314D03*
X01811D03*
X01897Y05525D03*
X01862D03*
X01396Y0761D03*
X01431D03*
X0134D03*
X01305D03*
X01526Y07407D03*
X01491D03*
X01452Y07407D03*
X01417D03*
X01514Y05707D03*
X01549D03*
X01514Y05351D03*
X01549D03*
X0155Y05402D03*
X01515D03*
X0155Y0565D03*
X01515D03*
X00837Y05707D03*
X00802D03*
X00764Y05625D03*
X00799D03*
X00764Y05586D03*
X00799D03*
X00837Y05668D03*
X00802D03*
X00948Y02406D03*
X00913D03*
X02206Y00866D03*
X02241D03*
X02206Y00903D03*
X02241D03*
X02206Y00941D03*
X02241D03*
X01472Y00699D03*
X01437D03*
X01471Y00741D03*
X01436D03*
X02726Y00941D03*
X02691D03*
X0265Y00691D03*
X02615D03*
X02638Y00653D03*
X02603D03*
X02207Y0073D03*
X02242D03*
X02279Y00694D03*
X02314D03*
X02279Y00656D03*
X02314D03*
X02279Y00619D03*
X02314D03*
X00834Y01121D03*
X00869D03*
X00874Y01084D03*
X00909D03*
X00835Y0075D03*
X0087D03*
X00876Y00711D03*
X00911D03*
X01302Y01031D03*
X01267D03*
X01042Y01024D03*
X01077D03*
X01013Y008D03*
X01048D03*
X01047Y00914D03*
X01082D03*
X01047Y00878D03*
X01082D03*
X01013Y00839D03*
X01048D03*
X01127Y0073D03*
X01162D03*
X01356Y00913D03*
X01391D03*
X01393Y0084D03*
X01428D03*
X01355Y00877D03*
X0139D03*
X01471Y00951D03*
X01436D03*
X01471Y00988D03*
X01436D03*
X01393Y00805D03*
X01428D03*
X02206Y01091D03*
X02241D03*
X0265Y01153D03*
X02615D03*
X0265Y01191D03*
X02615D03*
X02276Y01133D03*
X02311D03*
X02313Y03006D03*
X02278D03*
X01046Y02885D03*
X01011D03*
X01046Y02922D03*
X01011D03*
X01199Y03622D03*
X01164D03*
X01199Y0358D03*
X01164D03*
X0116Y03484D03*
X01195D03*
X01053Y03148D03*
X01088D03*
X0084Y03155D03*
X00805D03*
X00845Y03595D03*
X0081D03*
X00839Y09903D03*
X00874D03*
G54D105*
X02657Y03127D03*
Y03241D03*
X03007Y09063D03*
Y09177D03*
X04553Y0348D03*
Y03366D03*
X04106Y0348D03*
Y03366D03*
X02945Y05989D03*
Y06103D03*
X01581Y08813D03*
Y08927D03*
X01692Y08813D03*
Y08927D03*
X02284Y0858D03*
Y08694D03*
X04567Y08183D03*
Y08069D03*
X01827Y04297D03*
Y04183D03*
X00886Y01669D03*
Y01783D03*
X00864Y04234D03*
Y04348D03*
X00898Y02769D03*
Y02655D03*
X00938Y02333D03*
Y02219D03*
X01038Y02333D03*
Y02219D03*
G54D106*
X01942Y05452D03*
X02135Y05571D03*
Y05551D03*
Y05531D03*
Y05512D03*
Y05492D03*
Y05472D03*
Y05452D03*
Y05433D03*
X01942D03*
Y05472D03*
Y05492D03*
Y05512D03*
Y05531D03*
Y05551D03*
Y05571D03*
G54D107*
X02039Y05502D03*
G54D108*
X0197Y05598D03*
X01989D03*
X02009D03*
X02029D03*
X02048D03*
X02068D03*
X02088D03*
X02107D03*
Y05405D03*
X02088D03*
X02068D03*
X02048D03*
X02029D03*
X02009D03*
X01989D03*
X0197D03*
G54D109*
X02661Y07781D03*
Y07761D03*
Y07741D03*
Y07722D03*
Y07702D03*
Y07682D03*
Y07663D03*
Y07643D03*
Y07623D03*
Y07604D03*
Y07584D03*
Y07564D03*
Y07544D03*
Y07525D03*
Y07505D03*
Y07485D03*
X03013D03*
Y07505D03*
Y07525D03*
Y07544D03*
Y07564D03*
Y07584D03*
Y07604D03*
Y07623D03*
Y07643D03*
Y07663D03*
Y07682D03*
Y07702D03*
Y07722D03*
Y07741D03*
Y07761D03*
Y07781D03*
X02291Y01059D03*
Y0104D03*
Y0102D03*
Y01D03*
Y00981D03*
Y00961D03*
Y00941D03*
Y00922D03*
Y00902D03*
Y00882D03*
Y00862D03*
Y00843D03*
Y00823D03*
Y00803D03*
Y00784D03*
Y00764D03*
X02644D03*
Y00784D03*
Y00803D03*
Y00823D03*
Y00843D03*
Y00862D03*
Y00882D03*
Y00902D03*
Y00922D03*
Y00941D03*
Y00961D03*
Y00981D03*
Y01D03*
Y0102D03*
Y0104D03*
Y01059D03*
G54D110*
X02689Y07457D03*
X02709D03*
X02729D03*
X02748D03*
X02768D03*
X02788D03*
X02807D03*
X02827D03*
X02847D03*
X02867D03*
X02886D03*
X02906D03*
X02926D03*
X02945D03*
X02965D03*
X02985D03*
Y07809D03*
X02965D03*
X02945D03*
X02926D03*
X02906D03*
X02886D03*
X02867D03*
X02847D03*
X02827D03*
X02807D03*
X02788D03*
X02768D03*
X02748D03*
X02729D03*
X02709D03*
X02689D03*
X02615Y01088D03*
X02596D03*
X02576D03*
X02556D03*
X02537D03*
X02517D03*
X02497D03*
X02477D03*
X02458D03*
X02438D03*
X02418D03*
X02399D03*
X02379D03*
X02359D03*
X0234D03*
X0232D03*
Y00735D03*
X0234D03*
X02359D03*
X02379D03*
X02399D03*
X02418D03*
X02438D03*
X02458D03*
X02477D03*
X02497D03*
X02517D03*
X02537D03*
X02556D03*
X02576D03*
X02596D03*
X02615D03*
G54D111*
X02837Y07633D03*
G54D112*
X03604Y07562D03*
Y07762D03*
Y07662D03*
X0377D03*
Y07762D03*
Y07562D03*
G54D113*
X04385Y03402D03*
Y03421D03*
Y03441D03*
Y03461D03*
Y0348D03*
X0421Y03402D03*
Y03421D03*
Y03441D03*
Y03461D03*
Y0348D03*
G54D114*
X02741Y04063D03*
X0241D03*
X02519Y06944D03*
X02188D03*
X05095Y07565D03*
X04765D03*
X01586Y08021D03*
X01256D03*
X01587Y0846D03*
X01256D03*
X01228Y02373D03*
X01559D03*
X01157Y06343D03*
X00827D03*
G54D115*
X03471Y05823D03*
X03597D03*
X03144Y04093D03*
X03018D03*
X03508Y04099D03*
X03634D03*
X03307Y05582D03*
X03181D03*
G54D116*
X02592Y04494D03*
Y0462D03*
X04087Y04467D03*
Y04593D03*
X04102Y04946D03*
Y0482D03*
X04094Y05228D03*
Y05102D03*
X02573Y05216D03*
Y0509D03*
G54D117*
X02719Y04557D03*
Y0449D03*
X03968Y0453D03*
Y04463D03*
Y05034D03*
Y04967D03*
X0396Y05164D03*
Y05231D03*
X02701Y05153D03*
Y0522D03*
G54D118*
X02385Y08598D03*
Y08709D03*
G54D119*
X05338Y07056D03*
Y07036D03*
Y07017D03*
Y06997D03*
Y06977D03*
X05448Y07056D03*
Y07036D03*
Y07017D03*
Y06997D03*
Y06977D03*
G54D120*
X05393Y07017D03*
G54D121*
X05151Y0626D03*
X05119D03*
X05088D03*
X04962D03*
X0493D03*
X04899D03*
X05151Y06291D03*
X05119D03*
X05088D03*
X04962D03*
X0493D03*
X04899D03*
X05151Y06323D03*
X05119D03*
X05088D03*
X04962D03*
X0493D03*
X04899D03*
X05151Y06354D03*
X05119D03*
X05088D03*
X04962D03*
X0493D03*
X04899D03*
X05151Y06386D03*
X05119D03*
X05088D03*
X04962D03*
X0493D03*
X04899D03*
X05151Y06417D03*
X05119D03*
X05088D03*
X04962D03*
X0493D03*
X04899D03*
X05151Y06449D03*
X05119D03*
X05088D03*
X04962D03*
X0493D03*
X04899D03*
X05151Y0648D03*
X05119D03*
X05088D03*
X04962D03*
X0493D03*
X04899D03*
X05151Y06512D03*
X05119D03*
X05088D03*
X04962D03*
X0493D03*
X04899D03*
X05151Y06543D03*
X05119D03*
X05088D03*
X04962D03*
X0493D03*
X04899D03*
X05151Y06575D03*
X05119D03*
X05088D03*
X04962D03*
X0493D03*
X04899D03*
X05151Y06606D03*
X05119D03*
X05088D03*
X04962D03*
X0493D03*
X04899D03*
X05151Y06638D03*
X05119D03*
X05088D03*
X04962D03*
X0493D03*
X04899D03*
X05151Y06669D03*
X05119D03*
X05088D03*
X04962D03*
X0493D03*
X04899D03*
X05151Y06701D03*
X05119D03*
X05088D03*
X04962D03*
X0493D03*
X04899D03*
X05151Y06732D03*
X05119D03*
X05088D03*
X04962D03*
X0493D03*
X04899D03*
G54D122*
X04624Y06532D03*
Y06591D03*
X04543Y06163D03*
Y06222D03*
X05335Y06545D03*
Y06604D03*
X04624Y06222D03*
Y06163D03*
X04624Y06285D03*
Y06344D03*
X04543Y06589D03*
Y0653D03*
X04543Y06405D03*
Y06464D03*
X04624Y06467D03*
Y06408D03*
X04543Y06344D03*
Y06285D03*
X0548Y06299D03*
Y06358D03*
X05409D03*
Y06299D03*
Y06421D03*
Y0648D03*
X0548D03*
Y06421D03*
X05335Y06731D03*
Y06672D03*
X0143Y06833D03*
Y06774D03*
X01233Y07508D03*
Y07449D03*
X01729Y0754D03*
Y07481D03*
X0136Y06774D03*
Y06833D03*
X01241Y06784D03*
Y06843D03*
X01574Y06784D03*
Y06843D03*
X01948Y03209D03*
Y03268D03*
X01343Y07218D03*
Y07277D03*
G54D123*
X05101Y07125D03*
X0516D03*
X05101Y06976D03*
X0516D03*
X05101Y07052D03*
X0516D03*
X04871Y06817D03*
X0493D03*
X05105Y0617D03*
X05164D03*
X05507Y07122D03*
X05448D03*
X01552Y06663D03*
X01493D03*
X01556Y0751D03*
X01497D03*
G54D124*
X03978Y06818D03*
Y06868D03*
Y06918D03*
Y06968D03*
X03697Y06818D03*
Y06868D03*
Y06918D03*
Y06968D03*
G54D125*
X01104Y08925D03*
Y0886D03*
G54D126*
X00918Y08908D03*
X00993D03*
X00955Y08986D03*
G54D127*
X00955Y08824D03*
X00993Y08729D03*
X00918D03*
G54D128*
X0286Y09929D03*
Y09772D03*
Y09614D03*
Y09457D03*
X02015D03*
Y09614D03*
Y09772D03*
Y09929D03*
G54D129*
X02122Y10091D03*
X0228D03*
X02437D03*
X02595D03*
X02752D03*
Y09295D03*
X02595D03*
X02437D03*
X0228D03*
X02122D03*
G54D130*
X01879Y05104D03*
X01944D03*
Y05165D03*
X01879D03*
G54D131*
X01241Y06923D03*
X01267D03*
X01292D03*
X01318D03*
X01343D03*
X01369D03*
X01395D03*
X0142D03*
X01446D03*
X01471D03*
X01497D03*
X01522D03*
X01548D03*
X01574D03*
X01241Y07143D03*
X01267D03*
X01292D03*
X01318D03*
X01343D03*
X01369D03*
X01395D03*
X0142D03*
X01446D03*
X01471D03*
X01497D03*
X01522D03*
X01548D03*
X01574D03*
G54D132*
X00897Y0732D03*
Y07127D03*
Y06727D03*
Y0692D03*
X00577Y0673D03*
Y06537D03*
Y07311D03*
Y07504D03*
X01303Y08748D03*
Y08941D03*
G54D133*
X00792Y05436D03*
G54D134*
X0086Y05436D03*
Y05522D03*
X00784D03*
G54D135*
X00395Y05103D03*
G54D136*
X00395Y05036D03*
X00482D03*
Y05111D03*
G54D137*
X00789Y02243D03*
Y02293D03*
Y02343D03*
Y02393D03*
Y02443D03*
Y02493D03*
Y02543D03*
G54D138*
X00501Y02393D03*
G54D139*
X01821Y01207D03*
X01676D03*
X01821Y00363D03*
X01676D03*
X01821Y00584D03*
X01675D03*
X01821Y00988D03*
X01676D03*
X01574Y02885D03*
X01428D03*
X01588Y03536D03*
X01443D03*
X01588Y03761D03*
X01443D03*
X01574Y03112D03*
X01428D03*
G54D140*
X02468Y00912D03*
G54D141*
X01221Y00898D03*
G54D142*
X01172Y00979D03*
X01192D03*
X01212D03*
X01231D03*
X01251D03*
X01271D03*
Y00817D03*
X01251D03*
X01231D03*
X01212D03*
X01192D03*
X01172D03*
G54D143*
X01302Y00947D03*
Y00928D03*
Y00908D03*
Y00888D03*
Y00869D03*
Y00849D03*
X01141D03*
Y00869D03*
Y00888D03*
Y00908D03*
Y00928D03*
Y00947D03*
G54D144*
X00782Y01052D03*
Y0108D03*
X00786Y0068D03*
Y00707D03*
X00815Y03103D03*
Y03075D03*
X00819Y03543D03*
Y03515D03*
G54D145*
X02209Y03345D03*
X02228D03*
X02248D03*
X02268D03*
X02288D03*
X02307D03*
X02327D03*
X02347D03*
X02366D03*
X02386D03*
X02406D03*
X02425D03*
Y03618D03*
X02406D03*
X02386D03*
X02366D03*
X02347D03*
X02327D03*
X02307D03*
X02288D03*
X02268D03*
X02248D03*
X02228D03*
X02209D03*
G54D146*
X02454Y03373D03*
Y03393D03*
Y03413D03*
Y03432D03*
Y03452D03*
Y03472D03*
Y03491D03*
Y03511D03*
Y03531D03*
Y03551D03*
Y0357D03*
Y0359D03*
X0218D03*
Y0357D03*
Y03551D03*
Y03531D03*
Y03511D03*
Y03491D03*
Y03472D03*
Y03452D03*
Y03432D03*
Y03413D03*
Y03393D03*
Y03373D03*
G54D147*
X02317Y03482D03*
G54D148*
X0105Y03259D03*
X01076D03*
X01101D03*
X01127D03*
X0105Y03423D03*
X01076D03*
X01101D03*
X01127D03*
G54D149*
X01265Y03595D03*
Y03617D03*
X01116Y02889D03*
Y02911D03*
G54D150*
X04857Y00269D03*
X00942Y09256D03*
X0463Y1025D03*
G54D151*
X01422Y05351D03*
Y05401D03*
Y05451D03*
Y05501D03*
Y05551D03*
Y05601D03*
Y05651D03*
Y05701D03*
X01062Y05351D03*
Y05401D03*
Y05451D03*
Y05501D03*
Y05551D03*
Y05601D03*
Y05651D03*
Y05701D03*
G54D152*
X00681Y08875D03*
X0043D03*
G54D153*
X00894Y09713D03*
Y09673D03*
X00841D03*
Y09693D03*
Y09713D03*
G54D154*
X00623Y02657D03*
X00735D03*
G54D155*
X01674Y09299D03*
Y09399D03*
X0143Y09299D03*
Y09399D03*
G54D156*
X01536Y09814D03*
Y09864D03*
Y09914D03*
Y09964D03*
Y09764D03*
Y09714D03*
Y09664D03*
Y09614D03*
X01179D03*
Y09664D03*
Y09714D03*
Y09764D03*
Y09964D03*
Y09914D03*
Y09864D03*
Y09814D03*
G54D157*
X02388Y02612D03*
X02323D03*
X0239Y02401D03*
X02325D03*
X02041Y02622D03*
X01976D03*
X02039Y02392D03*
X01974D03*
G54D158*
X04551Y04964D03*
X04343Y04029D03*
X02347Y04963D03*
X00238Y00225D03*
X05462Y00289D03*
X0551Y10381D03*
X00267Y10413D03*
G54D159*
X02081Y0546D03*
X02039D03*
X01996D03*
X02081Y05502D03*
X02039D03*
X01996D03*
X02081Y05544D03*
X02039D03*
X01996D03*
G54D160*
X00601Y0116D03*
X00701Y0106D03*
X00501D03*
Y0126D03*
X00701D03*
X00601Y0076D03*
X00701Y0066D03*
X00501D03*
Y0086D03*
X00701D03*
X00715Y03236D03*
X00515D03*
Y03036D03*
X00715D03*
X00615Y03136D03*
X00715Y03676D03*
X00515D03*
Y03476D03*
X00715D03*
X00615Y03576D03*
G54D161*
X00267Y06726D03*
Y06923D03*
Y0712D03*
G54D162*
X00267Y07317D03*
G54D163*
X00327Y0995D03*
Y09476D03*
X00628Y08343D03*
Y08508D03*
X00844Y08178D03*
Y08343D03*
Y08508D03*
G54D164*
X00221Y09664D03*
Y09762D03*
X00142Y09664D03*
Y09762D03*
G54D165*
X00307Y05256D03*
Y05756D03*
G54D166*
X00407Y05366D03*
G54D167*
X00407Y05446D03*
Y05526D03*
Y05606D03*
X00477Y05406D03*
Y05486D03*
Y05566D03*
Y05646D03*
X00667Y05236D03*
Y05686D03*
Y05776D03*
Y05326D03*
G54D168*
X00628Y08178D03*
G54D169*
X0034Y08508D03*
Y08178D03*
G54D170*
X02943Y04767D03*
X02901Y04769D03*
X05074Y06467D03*
X04983Y06532D03*
X04827Y06529D03*
X04884Y0653D03*
X04581Y06469D03*
X04594Y06518D03*
X03345Y05269D03*
X03411Y05284D03*
X03333Y05204D03*
X03299Y05199D03*
X03338Y05238D03*
X037Y05231D03*
X04655Y06161D03*
X04624Y0613D03*
X03843Y05324D03*
X03443Y04819D03*
X03413Y0477D03*
X04834Y06117D03*
X03412Y05086D03*
X03373Y05046D03*
X03634Y05297D03*
X03413Y05163D03*
X04602Y06412D03*
X03481Y05292D03*
X04663Y06449D03*
X04601Y0645D03*
X03542Y0539D03*
X03561Y0541D03*
X03368Y04933D03*
X03525Y05091D03*
X03565Y0513D03*
X03328Y04894D03*
X03295Y04851D03*
X04743Y06252D03*
X04657Y06188D03*
X04661Y0612D03*
X04744Y06232D03*
X03374Y0477D03*
X03413Y04809D03*
X03452Y04848D03*
X03807Y05203D03*
X03728Y05124D03*
X03492Y04888D03*
X03659Y04997D03*
X03802Y05129D03*
X03915Y05253D03*
X03458Y04764D03*
X03728Y05045D03*
X039Y05317D03*
X03416Y04846D03*
X03455Y04885D03*
X03573Y05003D03*
X03337Y04768D03*
X03905Y05329D03*
X03376Y04806D03*
X04743Y06155D03*
X04744Y06121D03*
X04743Y06179D03*
X04572Y06161D03*
X03304Y04918D03*
X03285Y04898D03*
X03324Y04937D03*
X03245Y04859D03*
X03229Y04842D03*
X03527Y0501D03*
X03684Y05168D03*
X03488Y04972D03*
X03645Y05129D03*
X03369Y04853D03*
X03408Y04892D03*
X04666Y06226D03*
X0457Y06233D03*
X04838Y06196D03*
X0346Y0492D03*
X04596Y06208D03*
X04647Y06284D03*
X03254Y0489D03*
X03179Y04846D03*
X03258Y04924D03*
X046Y06278D03*
X03219Y04885D03*
X0483Y0627D03*
X0457Y06278D03*
X03515Y05493D03*
X03248Y05171D03*
X04571Y06402D03*
X03337Y0513D03*
X03293Y05087D03*
X03513Y05458D03*
X03218Y05162D03*
X03296Y05241D03*
X03335Y05163D03*
X03111Y04905D03*
X03102Y04885D03*
X03061Y04885D03*
X03589Y05417D03*
X03254Y05047D03*
X03171Y05003D03*
X03258Y05113D03*
X03219Y05082D03*
X03459Y05544D03*
X04543Y06624D03*
X03457Y05631D03*
X03435Y05607D03*
X03176Y05316D03*
X03452Y05584D03*
X03432Y05698D03*
X03285Y05527D03*
X03251Y05493D03*
X02789Y04942D03*
X03001Y05287D03*
X03099Y05283D03*
X02904Y05043D03*
X02983Y05121D03*
X03448Y05727D03*
X0345Y05673D03*
X03217Y05436D03*
X03417Y05781D03*
X03419Y05819D03*
X03395Y05801D03*
X03396Y05842D03*
X03419Y0586D03*
X02865Y05318D03*
X02901Y05203D03*
X02943Y05279D03*
X02983Y052D03*
X04017Y05115D03*
X03887Y0494D03*
X04031Y05084D03*
X0381Y04806D03*
X03796Y04741D03*
X04022Y04929D03*
X04042Y04949D03*
X03818Y0464D03*
X03723Y04578D03*
X03928Y04739D03*
X03952Y04719D03*
X03653Y04649D03*
X03613Y04609D03*
X03809Y0457D03*
X03941Y0512D03*
X04945Y06687D03*
X04976D03*
X03435Y0551D03*
X03227Y05312D03*
X03187Y05272D03*
X04945Y06655D03*
X04884Y06631D03*
X04945D03*
X05073Y06593D03*
X04977Y06625D03*
X04624Y06624D03*
X04976Y06561D03*
X03294Y05282D03*
X03334Y05321D03*
X03239Y05227D03*
X03216Y05203D03*
X04569Y06514D03*
X04744Y06527D03*
X04884Y06561D03*
X05073Y06498D03*
X02865Y04491D03*
Y04452D03*
X03219D03*
X03731Y0461D03*
X02865Y04688D03*
X02943Y04806D03*
X02983Y04846D03*
X03021Y04886D03*
X03809Y04885D03*
X02864Y04767D03*
X039Y05002D03*
X02904Y04885D03*
X0466Y06491D03*
X05165Y06435D03*
X05134Y06466D03*
X05073Y06435D03*
X05134Y06435D03*
X02983Y04767D03*
X03691Y04924D03*
X05134Y06309D03*
X0314Y05004D03*
X03022Y04806D03*
X0466Y06379D03*
X04744Y06452D03*
X05075Y06343D03*
X02983Y04806D03*
X04749Y06343D03*
X04745Y06305D03*
X0483Y06415D03*
Y06451D03*
X04976Y06403D03*
X04945Y06435D03*
X04976Y06466D03*
Y06435D03*
X04945Y06466D03*
Y06498D03*
Y06403D03*
X03328Y04974D03*
X05136Y06371D03*
X04884Y06435D03*
X0483Y0638D03*
X03573Y05279D03*
X03259Y04964D03*
X03219Y04924D03*
X03494Y052D03*
X03657Y04447D03*
X03494Y0457D03*
X0521Y06275D03*
X03731Y04806D03*
X03652Y04728D03*
X03455Y04531D03*
X05165Y06246D03*
Y06687D03*
X0507Y06152D03*
X04976Y0634D03*
Y06372D03*
Y06309D03*
X05073Y06404D03*
Y06309D03*
Y06561D03*
Y06624D03*
Y0653D03*
X05134Y0634D03*
X0521Y06203D03*
Y06493D03*
X05165Y06498D03*
X05134Y06529D03*
X05315Y07036D03*
X05303Y0716D03*
X02865Y04806D03*
Y0473D03*
X02863Y04649D03*
X04884Y06719D03*
X04976Y06718D03*
X02864Y0457D03*
X02865Y0461D03*
X03176Y05955D03*
X02943Y04491D03*
X04011Y05227D03*
X03805Y04968D03*
X0353Y04693D03*
X02983Y0461D03*
X02943D03*
X03918Y05055D03*
X04976Y06498D03*
X0318Y04648D03*
X02944Y04649D03*
X02903Y04688D03*
X04833Y06155D03*
X04977Y06276D03*
X04945Y06309D03*
X04884Y06309D03*
X04945Y06277D03*
X04884Y06246D03*
X03061Y04806D03*
X03101D03*
X03061Y04846D03*
X0314Y04885D03*
X03336Y04807D03*
X03298Y04806D03*
X03219Y04805D03*
X03376Y04885D03*
X03178Y04807D03*
X0314Y04806D03*
X03298Y04768D03*
X04885Y06273D03*
X0483Y06217D03*
X04884Y06372D03*
Y06341D03*
X04976Y06246D03*
X02748Y05209D03*
X03043Y05955D03*
X02943Y04846D03*
X0466Y06306D03*
X03249Y07541D03*
X0326Y07557D03*
X03248Y07569D03*
X03061Y07427D03*
X03073Y07412D03*
X02863Y07439D03*
X0287Y07426D03*
X02831Y07312D03*
X02822Y07321D03*
X0275Y07312D03*
X02741Y07321D03*
X02962Y07371D03*
X02947Y07383D03*
X02903Y07369D03*
X02889Y07383D03*
X02802Y07393D03*
X02791Y07376D03*
X02743Y07393D03*
X02731Y07376D03*
X02604Y07378D03*
X02616Y07396D03*
X02598Y07423D03*
X02605Y07443D03*
X02788Y07323D03*
X02797Y07311D03*
X02706Y07321D03*
X02715Y07312D03*
X03016Y07429D03*
X03036Y07417D03*
X03027Y07408D03*
X02988Y07427D03*
X02981Y07443D03*
X02929Y07426D03*
X02921Y07438D03*
X02771Y07426D03*
X02764Y07441D03*
X02713Y07426D03*
X02705Y07439D03*
X02447Y07647D03*
X02433Y07666D03*
X02633Y07647D03*
X02647Y07639D03*
X02647Y0758D03*
X02633Y07588D03*
X02522Y07881D03*
X02376Y07891D03*
X03473Y07627D03*
X03484Y07586D03*
X03511Y07627D03*
X03518Y07587D03*
X0371Y07749D03*
X03724Y07776D03*
X03595Y06989D03*
X03584Y07003D03*
X0363Y06875D03*
X03646Y06861D03*
X04068Y07032D03*
X04081Y0699D03*
X04112Y06796D03*
X041Y06807D03*
X04114Y0689D03*
X04101Y06905D03*
X04017Y07049D03*
X04035Y07032D03*
X0401Y0701D03*
X04034Y06989D03*
X04017Y06968D03*
X0399Y06953D03*
X04005Y06934D03*
X01817Y09403D03*
X01834Y09419D03*
X021Y09379D03*
X02143Y09379D03*
X02904Y09678D03*
X02945Y09651D03*
X02301Y09379D03*
X02257Y09379D03*
X02921Y09725D03*
X02949Y09766D03*
X01952Y10127D03*
X01871D03*
X01909Y10142D03*
X0205Y10097D03*
X0207Y10084D03*
X01487Y0995D03*
X01484Y09773D03*
X01482Y09825D03*
X01487Y09878D03*
X01595Y09921D03*
X01637Y09907D03*
X01594Y09956D03*
X01637Y09969D03*
X01872Y10089D03*
X01909Y10113D03*
X01936Y10073D03*
X01954Y10088D03*
X01981Y09999D03*
X02001Y09986D03*
X00566Y09239D03*
Y09276D03*
X01343Y07191D03*
X01275Y0761D03*
X01385Y07407D03*
X03469Y04122D03*
X03485Y04156D03*
X03496Y04175D03*
X03469Y04176D03*
X03497Y04266D03*
X03473Y04266D03*
X0317Y04171D03*
X03127Y0417D03*
X03169Y04126D03*
X03157Y0414D03*
X03145Y04125D03*
X03132Y0414D03*
X03119Y04125D03*
X03178Y04269D03*
X03169Y0426D03*
X03123Y0427D03*
X03134Y04258D03*
X03148Y04275D03*
X03398Y04288D03*
X03311D03*
X05487Y07D03*
X05465Y06994D03*
X02331Y00714D03*
X02314Y00718D03*
X0232Y00637D03*
X02309Y00675D03*
X02306Y00737D03*
X02272Y0072D03*
X02263Y00737D03*
X02323Y0111D03*
X02309Y01083D03*
X02299Y0111D03*
X0227Y01094D03*
X0226Y01082D03*
X04016Y01891D03*
X03999Y01909D03*
X03054Y01662D03*
X03036Y01685D03*
X03164Y01805D03*
X03141Y01783D03*
X02601D03*
X02624Y01805D03*
X02496Y01685D03*
X02514Y01662D03*
X02156Y03371D03*
X0213Y03432D03*
X02133Y03531D03*
X01923Y03692D03*
X01972Y03693D03*
X02021Y03692D03*
X02091Y03693D03*
X02123Y03667D03*
X0218Y03608D03*
X02172Y06077D03*
X02129Y06077D03*
X02139Y0663D03*
X02185Y06562D03*
X02078Y06904D03*
X02031Y06972D03*
X00953Y06689D03*
X00901Y06664D03*
X00845Y06692D03*
X00648Y06589D03*
X00676Y06549D03*
X0065Y06505D03*
X01787Y08482D03*
X01831Y08428D03*
X01641Y08573D03*
X01673Y08466D03*
X01642Y08356D03*
X01639Y08149D03*
X01671Y08062D03*
X01636Y08003D03*
X0175Y08777D03*
X01517Y08777D03*
X01729Y08727D03*
X01691Y08769D03*
X01636Y08726D03*
X01579Y08771D03*
X0154Y08729D03*
X0141Y08768D03*
X01362Y08711D03*
X01474Y06789D03*
X01501Y06763D03*
X01472Y06739D03*
X01375Y0673D03*
X01349Y06702D03*
X01325Y06731D03*
X01395Y06871D03*
X01573Y06875D03*
X0124D03*
X00852Y06445D03*
X00828Y06474D03*
X00802Y06446D03*
X01183Y06445D03*
X01159Y06474D03*
X01133Y06446D03*
X01102Y02218D03*
X01038Y02171D03*
X00988Y02228D03*
X00931Y0217D03*
X00874Y02243D03*
X00847Y02198D03*
X02371Y03655D03*
X02347Y03637D03*
X02199Y03666D03*
X02229Y03638D03*
X0251Y04084D03*
X02537Y04058D03*
X02508Y04034D03*
X03091Y03781D03*
X03155Y03738D03*
X03093Y03698D03*
X03153Y03666D03*
X03336Y03697D03*
X03309Y03679D03*
X02862Y03592D03*
X02891Y03616D03*
X02863Y03642D03*
X033Y03809D03*
X03327Y03783D03*
X03298Y03759D03*
X03923Y03171D03*
X0395Y03145D03*
X03922Y03122D03*
X04178Y03381D03*
X04129Y03395D03*
X04152Y03366D03*
X04152Y03439D03*
X04167Y03422D03*
X03888Y03547D03*
X03879Y03492D03*
X03838Y03571D03*
X04172Y03505D03*
X04202Y0349D03*
X04173Y03461D03*
X04245Y03428D03*
X04012Y04465D03*
X03921Y04492D03*
X03907Y0446D03*
X02721Y03081D03*
X02752Y03119D03*
X02773Y0316D03*
X02754Y03043D03*
X02808Y03067D03*
X02369Y03305D03*
X02346Y03323D03*
X02218Y03326D03*
X02172Y03276D03*
X0214Y03291D03*
X02624Y0113D03*
X02606Y01172D03*
X02658Y01166D03*
X02643Y01177D03*
X02672Y00941D03*
X02705Y00961D03*
X02664Y00961D03*
X02419Y00712D03*
X02695Y00669D03*
X02721Y00682D03*
X02663Y00651D03*
X02611Y00711D03*
X02593Y00679D03*
X02648Y00714D03*
X02668Y00731D03*
X02628Y00731D03*
X02677Y00764D03*
X03962Y05075D03*
X03896Y05142D03*
X03907Y05182D03*
X03494Y04728D03*
X03455Y04688D03*
X04037Y05272D03*
X01974Y0954D03*
X02089Y09539D03*
X02458Y0684D03*
X02418Y0687D03*
X02405Y06681D03*
X02373Y0664D03*
X02277Y06469D03*
X0219Y06382D03*
X02607Y05252D03*
X02652Y0521D03*
X02773Y04733D03*
X01232Y01001D03*
X01205Y01009D03*
X01163Y01041D03*
X01138Y01054D03*
X01379Y00859D03*
X01337Y00891D03*
X01322Y00906D03*
X01276Y00852D03*
X01165Y00924D03*
X00989Y035D03*
X01051Y03477D03*
X01035Y03455D03*
X01297Y00754D03*
X01271Y00739D03*
X01221Y00793D03*
X01074Y00853D03*
X01114Y009D03*
X01079Y01691D03*
X01003Y0176D03*
X01193Y03192D03*
X0115Y03173D03*
X01132Y03213D03*
X03849Y04334D03*
X03534Y04373D03*
X03061D03*
X02672Y046D03*
X02695Y04625D03*
X02742Y04531D03*
X02771Y04557D03*
X02668Y04493D03*
X0263Y04458D03*
X02764Y0448D03*
X02785Y04395D03*
X0277Y04375D03*
X04509Y03378D03*
X04498Y0336D03*
X04419Y0339D03*
X044Y03377D03*
X04494Y03471D03*
X04471Y03502D03*
X04412Y03503D03*
X02794Y04278D03*
X03518Y05527D03*
X02719Y04939D03*
X02152Y0542D03*
X02137Y05408D03*
X02152Y05396D03*
X04117Y04056D03*
X04138Y04041D03*
Y04079D03*
X04117Y04094D03*
X01098Y0805D03*
X01145Y07982D03*
X01099Y08489D03*
X01145Y08421D03*
X01463Y08964D03*
X01689Y08978D03*
X01579Y08981D03*
X0143Y08918D03*
X01391Y08964D03*
X01094Y09058D03*
X01121Y09034D03*
X00836Y08828D03*
X00863Y08803D03*
X01886Y08574D03*
X02162Y08536D03*
X02338Y08711D03*
X02282Y08741D03*
X02217Y08699D03*
X01995Y08583D03*
X0198Y08601D03*
X0236Y08536D03*
X02264D03*
X02311Y08512D03*
X02212Y08536D03*
X02187Y08512D03*
X0269Y08454D03*
X02758Y08501D03*
X03129Y08744D03*
X03052Y0921D03*
X03117Y09244D03*
X03649Y08568D03*
X03622Y08594D03*
X03651Y08617D03*
X0543Y07709D03*
X05459Y07733D03*
X05431Y07759D03*
X05191Y07719D03*
X05218Y07786D03*
X05297Y07842D03*
X0516Y07846D03*
X05122Y07657D03*
X05228Y07615D03*
X0308Y09098D03*
X02853D03*
X02933Y09053D03*
X0448Y08196D03*
X044Y08241D03*
X04627D03*
X0469Y0834D03*
X04732Y07972D03*
X04243Y07634D03*
X04311Y07681D03*
X03559Y07575D03*
X03545Y07548D03*
X0394Y0857D03*
X04005Y08663D03*
X0394Y08749D03*
X04185Y09184D03*
X04253Y09231D03*
X03032Y07552D03*
X03159Y07494D03*
X03116Y07496D03*
X04654Y07525D03*
X04607Y07593D03*
X01844Y0193D03*
X01881Y01979D03*
X01594Y02508D03*
X01521Y02463D03*
X01071Y01863D03*
X011Y019D03*
X02052Y0449D03*
X01889Y04325D03*
X00824Y02697D03*
X00888Y02726D03*
X00722Y02722D03*
X00654D03*
X02026Y0146D03*
X0119Y02463D03*
X01258Y0251D03*
X00889Y02437D03*
X0089Y02383D03*
X00866Y0241D03*
X00801Y01687D03*
X0074Y01645D03*
X00684Y01687D03*
X0088Y026D03*
X00809Y02573D03*
X00759Y02627D03*
X00838Y01846D03*
X0077Y01907D03*
X00712Y01958D03*
X02904Y04373D03*
X02865D03*
X02864Y04413D03*
X02903Y04533D03*
X02904Y04452D03*
X02865Y04533D03*
X02903Y0461D03*
X03258Y04806D03*
Y04768D03*
X03337Y04846D03*
X03416Y04924D03*
X03219Y05113D03*
X03022Y04728D03*
X03332Y04733D03*
X03061Y04688D03*
X03376D03*
X03416Y04728D03*
X03219Y04688D03*
X03258Y04688D03*
X03101Y04728D03*
X0314Y04767D03*
X03298Y04728D03*
X03258D03*
X03376D03*
X03061Y04613D03*
X03456Y04964D03*
X0521Y06239D03*
Y06312D03*
Y06348D03*
Y06385D03*
Y06421D03*
Y06457D03*
X0483Y06306D03*
Y06342D03*
Y06491D03*
Y06565D03*
Y06602D03*
X05452Y07077D03*
X0546Y071D03*
X0543Y0709D03*
X0518Y0718D03*
X05315Y07017D03*
X05315Y06976D03*
X0518Y0694D03*
Y07017D03*
Y071D03*
X0543Y06386D03*
X05393Y0639D03*
X05095Y0718D03*
X05119Y0694D03*
Y071D03*
X05119Y07017D03*
X05383Y07125D03*
X05374Y0709D03*
X05493Y071D03*
X05474Y0693D03*
X05474Y06966D03*
X05448Y06965D03*
X04871Y0679D03*
X05105Y06195D03*
X05164D03*
X05303Y06672D03*
Y06604D03*
X05507Y06386D03*
X0546Y0639D03*
X046Y06348D03*
X0457Y0633D03*
X0493Y0679D03*
X05303Y06732D03*
Y06543D03*
X0548Y0627D03*
X05409D03*
X05408Y06512D03*
X0548D03*
X0466Y06342D03*
Y06417D03*
Y06527D03*
Y06564D03*
Y06602D03*
X04744Y06602D03*
X04745Y06564D03*
X04744Y06491D03*
X04744Y06416D03*
X04743Y0638D03*
X0529Y06203D03*
X0529Y06239D03*
X0529Y06275D03*
X0529Y06311D03*
X05291Y06348D03*
X05291Y06385D03*
X05291Y06421D03*
X05291Y06457D03*
X05291Y06493D03*
X05371Y06203D03*
Y06239D03*
Y06275D03*
Y06311D03*
Y06348D03*
X05373Y06386D03*
Y06421D03*
Y06457D03*
Y06493D03*
X03263Y05239D03*
X02056Y05342D03*
X01988Y05695D03*
X02081Y05695D03*
X03218Y05224D03*
X03258Y05279D03*
X0322Y05279D03*
X02207Y0524D03*
X02239Y05376D03*
X0228Y05455D03*
X02289Y05496D03*
X00984Y04192D03*
X00926Y04258D03*
X00612Y04746D03*
X00544Y047D03*
X01022Y04871D03*
X0077Y04342D03*
X00678Y04234D03*
X00823Y04447D03*
X00895Y04552D03*
X01529Y04612D03*
X01579Y04666D03*
X02169Y04055D03*
X02127Y04009D03*
X02083Y0406D03*
X01588Y04191D03*
X01754Y04187D03*
X01931Y05678D03*
X03229Y06484D03*
X03272Y06485D03*
X02967Y0615D03*
X02924Y06149D03*
X03111Y06023D03*
X02878Y05997D03*
X03456Y05472D03*
X03258Y05318D03*
X02287Y0552D03*
X03299Y0532D03*
X02107Y05628D03*
X02166Y05568D03*
X02274Y05564D03*
X02274Y05601D03*
X02239Y05417D03*
X02128Y05239D03*
X02167D03*
X02087D03*
X01921Y05525D03*
X01879Y05544D03*
X0183Y0519D03*
X02029Y05293D03*
X01877Y052D03*
X01872Y05263D03*
Y05314D03*
X01988Y05293D03*
X01819Y05228D03*
X01944Y0507D03*
X01789Y0519D03*
X01931Y05594D03*
X01985Y05638D03*
X02038Y05384D03*
X02146Y0559D03*
X02088Y05642D03*
X02068Y05628D03*
X03809Y04413D03*
X03809Y05043D03*
X02904Y0473D03*
Y04413D03*
Y0457D03*
X03298Y04373D03*
X0314D03*
X03691Y04334D03*
X03613Y04373D03*
X03454D03*
X01916Y05555D03*
X01896Y05589D03*
X01884Y05601D03*
X0183Y0559D03*
X01853D03*
X01861Y05501D03*
X01789Y05314D03*
X01667Y05774D03*
X0155Y0562D03*
X017Y05314D03*
X0155Y05433D03*
X00993Y05351D03*
X00893Y05428D03*
X00993Y05451D03*
X00891Y05531D03*
X00802Y0581D03*
X02009Y05628D03*
X02904Y05121D03*
Y04806D03*
Y04491D03*
Y04649D03*
Y04964D03*
X03809Y04491D03*
X03691Y04373D03*
X03376D03*
X03219D03*
X02865Y04334D03*
X03731Y04452D03*
Y04491D03*
Y04531D03*
X03573Y0457D03*
X03613Y04413D03*
Y04491D03*
X03652Y04531D03*
X03691Y04413D03*
X03416Y0461D03*
X03455Y04413D03*
Y04491D03*
X03534Y04452D03*
X03258Y0457D03*
Y04531D03*
Y04491D03*
Y04452D03*
Y04413D03*
X03298Y04491D03*
Y0457D03*
Y0461D03*
X03337Y04491D03*
Y04531D03*
Y0457D03*
Y0461D03*
X03376Y04491D03*
Y0461D03*
X03101Y0457D03*
Y04413D03*
X0314Y04452D03*
X03219Y04491D03*
Y04531D03*
Y0457D03*
X03061Y04531D03*
Y04452D03*
X02983Y0457D03*
X02943Y04413D03*
Y0457D03*
X03731Y04688D03*
X03691D03*
Y04728D03*
Y04767D03*
Y04885D03*
X03652Y04688D03*
Y04767D03*
X03613Y04688D03*
Y04728D03*
Y04767D03*
Y04885D03*
X03574Y04649D03*
X03573Y04728D03*
Y04767D03*
Y04806D03*
X03534Y04649D03*
X03534Y04728D03*
Y04767D03*
Y04806D03*
X03495Y04649D03*
X03494Y04688D03*
Y04767D03*
Y04806D03*
X03455Y04728D03*
X03416Y04688D03*
X03377Y04649D03*
X03338D03*
X03337Y04688D03*
X03731Y04964D03*
X03731Y05239D03*
X03652Y05161D03*
Y052D03*
X03613Y05121D03*
Y05161D03*
Y052D03*
Y05239D03*
X03573Y05161D03*
Y052D03*
X03534Y05121D03*
Y05161D03*
Y052D03*
Y05239D03*
X03494Y05082D03*
Y05121D03*
Y05161D03*
Y05239D03*
X03455Y05043D03*
Y05082D03*
Y05121D03*
Y05161D03*
Y052D03*
Y05239D03*
X03416Y05003D03*
Y05043D03*
Y05121D03*
Y052D03*
Y05239D03*
X03376Y05003D03*
Y05082D03*
Y05161D03*
Y052D03*
Y05239D03*
X03298Y04649D03*
X03298Y04688D03*
X03179Y04767D03*
Y04885D03*
Y05121D03*
Y05161D03*
Y052D03*
Y05239D03*
X0314Y04846D03*
Y05082D03*
Y05161D03*
Y052D03*
Y05239D03*
X03101Y04846D03*
Y05239D03*
Y052D03*
Y05161D03*
Y05121D03*
X03061Y04924D03*
Y04767D03*
X03062Y04649D03*
X03061Y052D03*
Y05161D03*
Y05121D03*
Y05003D03*
X03022Y04924D03*
Y04846D03*
Y05239D03*
Y052D03*
X02983Y04924D03*
X02983Y04649D03*
X02983Y05043D03*
X02983Y04964D03*
X02943Y04924D03*
Y04728D03*
X05073Y06278D03*
Y06719D03*
X05165Y06655D03*
Y06624D03*
X05134Y06687D03*
Y06655D03*
Y06624D03*
X05073Y06656D03*
Y06687D03*
X04976Y06655D03*
X05165Y06561D03*
Y06592D03*
X05134D03*
Y06561D03*
X04945Y06372D03*
Y06561D03*
Y06529D03*
X05165Y06718D03*
X05134D03*
X05165Y0634D03*
Y06309D03*
X05134Y06277D03*
Y06246D03*
X05165Y06277D03*
Y06372D03*
X05134Y06498D03*
X05165Y06529D03*
X04945Y06246D03*
Y0634D03*
X04884Y06593D03*
Y06687D03*
Y06656D03*
Y06498D03*
X04976Y06592D03*
X04945D03*
Y06718D03*
X01008Y03566D03*
G54D171*
X00962Y08178D03*
X00918Y08264D03*
X00962Y08343D03*
X00918Y0843D03*
X00962Y08508D03*
X01172Y03116D03*
G54D172*
X01887Y08946D03*
X01947D03*
X02007D03*
X02067D03*
X02037Y08916D03*
X01917D03*
X02067Y08886D03*
X02007D03*
X01947D03*
X01887D03*
X02037Y08856D03*
X01917D03*
X02067Y08826D03*
X02007D03*
X01947D03*
X01887D03*
X02037Y08796D03*
X01917D03*
X02067Y08766D03*
X02007D03*
X01947D03*
X01887D03*
X02037Y08736D03*
X01977D03*
X01917D03*
X02067Y08706D03*
X02007D03*
X01947D03*
X02037Y08676D03*
X01977D03*
X02067Y08646D03*
X02007D03*
X01947D03*
X01887D03*
Y08706D03*
X01917Y08676D03*
X01977Y08916D03*
Y08856D03*
Y08796D03*
X00351Y02303D03*
Y02363D03*
Y02423D03*
Y02483D03*
X00381Y02453D03*
Y02333D03*
X00411Y02483D03*
Y02423D03*
Y02363D03*
Y02303D03*
X00441Y02453D03*
Y02333D03*
X00471Y02483D03*
Y02423D03*
Y02363D03*
Y02303D03*
X00501Y02453D03*
Y02333D03*
X00531Y02483D03*
Y02423D03*
Y02363D03*
Y02303D03*
X00561Y02453D03*
Y02393D03*
Y02333D03*
X00591Y02483D03*
Y02423D03*
Y02363D03*
X00621Y02453D03*
Y02393D03*
X00651Y02483D03*
Y02423D03*
Y02363D03*
Y02303D03*
X00591D03*
X00621Y02333D03*
X00381Y02393D03*
X00441D03*
X00501D03*
G54D173*
X0275Y0772D03*
X02794D03*
X02837D03*
X0288D03*
X02924D03*
X0275Y07676D03*
X02794D03*
X02837D03*
X0288D03*
X02924D03*
X0275Y07633D03*
X02794D03*
X02837D03*
X0288D03*
X02924D03*
X0275Y0759D03*
X02794D03*
X02837D03*
X0288D03*
X02924D03*
X0275Y07546D03*
X02794D03*
X02837D03*
X0288D03*
X02924D03*
X01234Y0699D03*
Y07033D03*
Y07076D03*
X01277Y0699D03*
Y07033D03*
Y07076D03*
X01321Y0699D03*
Y07033D03*
Y07076D03*
X01364Y0699D03*
Y07033D03*
Y07076D03*
X01407Y0699D03*
Y07033D03*
Y07076D03*
X01451Y0699D03*
Y07033D03*
Y07076D03*
X01494Y0699D03*
Y07033D03*
Y07076D03*
X01537Y0699D03*
Y07033D03*
Y07076D03*
X01581Y0699D03*
Y07033D03*
Y07076D03*
X02554Y00998D03*
Y00955D03*
Y00912D03*
Y00868D03*
Y00825D03*
X02511Y00998D03*
Y00955D03*
Y00912D03*
Y00868D03*
Y00825D03*
X02468Y00998D03*
Y00955D03*
Y00912D03*
Y00868D03*
Y00825D03*
X02424Y00998D03*
Y00955D03*
Y00912D03*
Y00868D03*
Y00825D03*
X02381Y00998D03*
Y00955D03*
Y00912D03*
Y00868D03*
Y00825D03*
X01243Y00876D03*
X012D03*
X01243Y0092D03*
X012D03*
X0223Y03395D03*
Y03438D03*
Y03482D03*
Y03525D03*
Y03568D03*
X02274Y03395D03*
Y03438D03*
Y03482D03*
Y03525D03*
Y03568D03*
X02317Y03395D03*
Y03438D03*
Y03482D03*
Y03525D03*
Y03568D03*
X0236Y03395D03*
Y03438D03*
Y03482D03*
Y03525D03*
Y03568D03*
X02404Y03395D03*
Y03438D03*
Y03482D03*
Y03525D03*
Y03568D03*
M02*