%FSTAX23Y23*%
%MOIN*%
%SFA1B1*%

%IPPOS*%
%ADD14C,0.005000*%
%LNprob_s7cas_pcb-1*%
%LPD*%
G54D14*
X04616Y04964D02*
D01*
X04616Y04969*
X04615Y04973*
X04614Y04978*
X04613Y04982*
X04612Y04986*
X0461Y04991*
X04608Y04995*
X04606Y04999*
X04603Y05002*
X04601Y05006*
X04598Y05009*
X04594Y05012*
X04591Y05015*
X04587Y05018*
X04583Y0502*
X04579Y05023*
X04575Y05024*
X04571Y05026*
X04567Y05027*
X04562Y05028*
X04558Y05029*
X04553Y05029*
X04549*
X04544Y05029*
X0454Y05028*
X04535Y05027*
X04531Y05026*
X04527Y05024*
X04522Y05023*
X04518Y0502*
X04515Y05018*
X04511Y05015*
X04507Y05012*
X04504Y05009*
X04501Y05006*
X04498Y05002*
X04496Y04999*
X04494Y04995*
X04492Y04991*
X0449Y04986*
X04488Y04982*
X04487Y04978*
X04487Y04973*
X04486Y04969*
X04486Y04964*
X04486Y0496*
X04487Y04955*
X04487Y04951*
X04488Y04946*
X0449Y04942*
X04492Y04938*
X04494Y04934*
X04496Y0493*
X04498Y04926*
X04501Y04922*
X04504Y04919*
X04507Y04916*
X04511Y04913*
X04515Y0491*
X04518Y04908*
X04522Y04906*
X04527Y04904*
X04531Y04902*
X04535Y04901*
X0454Y049*
X04544Y049*
X04549Y04899*
X04553*
X04558Y049*
X04562Y049*
X04567Y04901*
X04571Y04902*
X04575Y04904*
X04579Y04906*
X04583Y04908*
X04587Y0491*
X04591Y04913*
X04594Y04916*
X04598Y04919*
X04601Y04922*
X04603Y04926*
X04606Y0493*
X04608Y04934*
X0461Y04938*
X04612Y04942*
X04613Y04946*
X04614Y04951*
X04615Y04955*
X04616Y0496*
X04616Y04964*
X04673D02*
D01*
X04673Y04973*
X04672Y04981*
X0467Y0499*
X04668Y04998*
X04666Y05006*
X04662Y05014*
X04659Y05021*
X04654Y05029*
X0465Y05036*
X04644Y05043*
X04639Y05049*
X04633Y05055*
X04626Y0506*
X04619Y05065*
X04612Y0507*
X04604Y05074*
X04597Y05077*
X04589Y0508*
X0458Y05083*
X04572Y05084*
X04564Y05086*
X04555Y05086*
X04547*
X04538Y05086*
X0453Y05084*
X04521Y05083*
X04513Y0508*
X04505Y05077*
X04497Y05074*
X0449Y0507*
X04483Y05065*
X04476Y0506*
X04469Y05055*
X04463Y05049*
X04457Y05043*
X04452Y05036*
X04447Y05029*
X04443Y05021*
X04439Y05014*
X04436Y05006*
X04434Y04998*
X04432Y0499*
X0443Y04981*
X04429Y04973*
X04429Y04964*
X04429Y04956*
X0443Y04947*
X04432Y04939*
X04434Y04931*
X04436Y04922*
X04439Y04915*
X04443Y04907*
X04447Y04899*
X04452Y04892*
X04457Y04886*
X04463Y04879*
X04469Y04873*
X04476Y04868*
X04483Y04863*
X0449Y04858*
X04497Y04854*
X04505Y04851*
X04513Y04848*
X04521Y04846*
X0453Y04844*
X04538Y04843*
X04547Y04842*
X04555*
X04564Y04843*
X04572Y04844*
X0458Y04846*
X04589Y04848*
X04597Y04851*
X04604Y04854*
X04612Y04858*
X04619Y04863*
X04626Y04868*
X04633Y04873*
X04639Y04879*
X04644Y04886*
X0465Y04892*
X04654Y04899*
X04659Y04907*
X04662Y04915*
X04666Y04922*
X04668Y04931*
X0467Y04939*
X04672Y04947*
X04673Y04956*
X04673Y04964*
X04408Y04029D02*
D01*
X04407Y04033*
X04407Y04038*
X04406Y04042*
X04405Y04047*
X04404Y04051*
X04402Y04055*
X044Y04059*
X04398Y04063*
X04395Y04067*
X04392Y04071*
X04389Y04074*
X04386Y04077*
X04383Y0408*
X04379Y04083*
X04375Y04085*
X04371Y04087*
X04367Y04089*
X04363Y04091*
X04358Y04092*
X04354Y04093*
X04349Y04093*
X04345Y04094*
X0434*
X04336Y04093*
X04331Y04093*
X04327Y04092*
X04322Y04091*
X04318Y04089*
X04314Y04087*
X0431Y04085*
X04306Y04083*
X04303Y0408*
X04299Y04077*
X04296Y04074*
X04293Y04071*
X0429Y04067*
X04287Y04063*
X04285Y04059*
X04283Y04055*
X04282Y04051*
X0428Y04047*
X04279Y04042*
X04278Y04038*
X04278Y04033*
X04278Y04029*
X04278Y04024*
X04278Y0402*
X04279Y04015*
X0428Y04011*
X04282Y04007*
X04283Y04002*
X04285Y03998*
X04287Y03994*
X0429Y03991*
X04293Y03987*
X04296Y03984*
X04299Y0398*
X04303Y03978*
X04306Y03975*
X0431Y03973*
X04314Y0397*
X04318Y03969*
X04322Y03967*
X04327Y03966*
X04331Y03965*
X04336Y03964*
X0434Y03964*
X04345*
X04349Y03964*
X04354Y03965*
X04358Y03966*
X04363Y03967*
X04367Y03969*
X04371Y0397*
X04375Y03973*
X04379Y03975*
X04383Y03978*
X04386Y0398*
X04389Y03984*
X04392Y03987*
X04395Y03991*
X04398Y03994*
X044Y03998*
X04402Y04002*
X04404Y04007*
X04405Y04011*
X04406Y04015*
X04407Y0402*
X04407Y04024*
X04408Y04029*
X04465D02*
D01*
X04464Y04037*
X04463Y04046*
X04462Y04054*
X0446Y04062*
X04457Y04071*
X04454Y04078*
X0445Y04086*
X04446Y04093*
X04441Y04101*
X04436Y04107*
X0443Y04114*
X04424Y04119*
X04418Y04125*
X04411Y0413*
X04404Y04134*
X04396Y04138*
X04388Y04142*
X0438Y04145*
X04372Y04147*
X04364Y04149*
X04355Y0415*
X04347Y04151*
X04338*
X0433Y0415*
X04321Y04149*
X04313Y04147*
X04305Y04145*
X04297Y04142*
X04289Y04138*
X04282Y04134*
X04274Y0413*
X04267Y04125*
X04261Y04119*
X04255Y04114*
X04249Y04107*
X04244Y04101*
X04239Y04093*
X04235Y04086*
X04231Y04078*
X04228Y04071*
X04225Y04062*
X04223Y04054*
X04222Y04046*
X04221Y04037*
X04221Y04029*
X04221Y0402*
X04222Y04012*
X04223Y04003*
X04225Y03995*
X04228Y03987*
X04231Y03979*
X04235Y03971*
X04239Y03964*
X04244Y03957*
X04249Y0395*
X04255Y03944*
X04261Y03938*
X04267Y03933*
X04274Y03928*
X04282Y03923*
X04289Y03919*
X04297Y03916*
X04305Y03913*
X04313Y0391*
X04321Y03909*
X0433Y03907*
X04338Y03907*
X04347*
X04355Y03907*
X04364Y03909*
X04372Y0391*
X0438Y03913*
X04388Y03916*
X04396Y03919*
X04404Y03923*
X04411Y03928*
X04418Y03933*
X04424Y03938*
X0443Y03944*
X04436Y0395*
X04441Y03957*
X04446Y03964*
X0445Y03971*
X04454Y03979*
X04457Y03987*
X0446Y03995*
X04462Y04003*
X04463Y04012*
X04464Y0402*
X04465Y04029*
X02412Y04963D02*
D01*
X02412Y04967*
X02411Y04972*
X02411Y04976*
X0241Y04981*
X02408Y04985*
X02406Y04989*
X02405Y04993*
X02402Y04997*
X024Y05001*
X02397Y05005*
X02394Y05008*
X02391Y05011*
X02387Y05014*
X02383Y05017*
X0238Y05019*
X02376Y05021*
X02371Y05023*
X02367Y05025*
X02363Y05026*
X02358Y05027*
X02354Y05027*
X02349Y05028*
X02345*
X0234Y05027*
X02336Y05027*
X02331Y05026*
X02327Y05025*
X02323Y05023*
X02319Y05021*
X02315Y05019*
X02311Y05017*
X02307Y05014*
X02304Y05011*
X023Y05008*
X02297Y05005*
X02295Y05001*
X02292Y04997*
X0229Y04993*
X02288Y04989*
X02286Y04985*
X02285Y04981*
X02284Y04976*
X02283Y04972*
X02282Y04967*
X02282Y04963*
X02282Y04958*
X02283Y04954*
X02284Y04949*
X02285Y04945*
X02286Y04941*
X02288Y04936*
X0229Y04932*
X02292Y04928*
X02295Y04925*
X02297Y04921*
X023Y04918*
X02304Y04915*
X02307Y04912*
X02311Y04909*
X02315Y04907*
X02319Y04904*
X02323Y04903*
X02327Y04901*
X02331Y049*
X02336Y04899*
X0234Y04898*
X02345Y04898*
X02349*
X02354Y04898*
X02358Y04899*
X02363Y049*
X02367Y04901*
X02371Y04903*
X02376Y04904*
X0238Y04907*
X02383Y04909*
X02387Y04912*
X02391Y04915*
X02394Y04918*
X02397Y04921*
X024Y04925*
X02402Y04928*
X02405Y04932*
X02406Y04936*
X02408Y04941*
X0241Y04945*
X02411Y04949*
X02411Y04954*
X02412Y04958*
X02412Y04963*
X02469D02*
D01*
X02469Y04971*
X02468Y0498*
X02467Y04988*
X02464Y04997*
X02462Y05005*
X02459Y05013*
X02455Y0502*
X02451Y05028*
X02446Y05035*
X02441Y05041*
X02435Y05048*
X02429Y05054*
X02422Y05059*
X02415Y05064*
X02408Y05069*
X02401Y05073*
X02393Y05076*
X02385Y05079*
X02377Y05081*
X02368Y05083*
X0236Y05084*
X02351Y05085*
X02343*
X02334Y05084*
X02326Y05083*
X02318Y05081*
X02309Y05079*
X02301Y05076*
X02294Y05073*
X02286Y05069*
X02279Y05064*
X02272Y05059*
X02265Y05054*
X02259Y05048*
X02254Y05041*
X02248Y05035*
X02244Y05028*
X02239Y0502*
X02236Y05013*
X02232Y05005*
X0223Y04997*
X02228Y04988*
X02226Y0498*
X02225Y04971*
X02225Y04963*
X02225Y04954*
X02226Y04946*
X02228Y04938*
X0223Y04929*
X02232Y04921*
X02236Y04913*
X02239Y04906*
X02244Y04898*
X02248Y04891*
X02254Y04884*
X02259Y04878*
X02265Y04872*
X02272Y04867*
X02279Y04862*
X02286Y04857*
X02294Y04853*
X02301Y0485*
X02309Y04847*
X02318Y04844*
X02326Y04843*
X02334Y04841*
X02343Y04841*
X02351*
X0236Y04841*
X02368Y04843*
X02377Y04844*
X02385Y04847*
X02393Y0485*
X02401Y04853*
X02408Y04857*
X02415Y04862*
X02422Y04867*
X02429Y04872*
X02435Y04878*
X02441Y04884*
X02446Y04891*
X02451Y04898*
X02455Y04906*
X02459Y04913*
X02462Y04921*
X02464Y04929*
X02467Y04938*
X02468Y04946*
X02469Y04954*
X02469Y04963*
X00303Y00225D02*
D01*
X00303Y0023*
X00302Y00234*
X00302Y00239*
X003Y00243*
X00299Y00248*
X00297Y00252*
X00295Y00256*
X00293Y0026*
X00291Y00263*
X00288Y00267*
X00285Y0027*
X00282Y00274*
X00278Y00276*
X00274Y00279*
X00271Y00282*
X00267Y00284*
X00262Y00286*
X00258Y00287*
X00254Y00288*
X00249Y00289*
X00245Y0029*
X0024Y0029*
X00236*
X00231Y0029*
X00227Y00289*
X00222Y00288*
X00218Y00287*
X00214Y00286*
X0021Y00284*
X00206Y00282*
X00202Y00279*
X00198Y00276*
X00195Y00274*
X00191Y0027*
X00188Y00267*
X00185Y00263*
X00183Y0026*
X00181Y00256*
X00179Y00252*
X00177Y00248*
X00176Y00243*
X00174Y00239*
X00174Y00234*
X00173Y0023*
X00173Y00225*
X00173Y00221*
X00174Y00216*
X00174Y00212*
X00176Y00207*
X00177Y00203*
X00179Y00199*
X00181Y00195*
X00183Y00191*
X00185Y00187*
X00188Y00184*
X00191Y0018*
X00195Y00177*
X00198Y00174*
X00202Y00171*
X00206Y00169*
X0021Y00167*
X00214Y00165*
X00218Y00164*
X00222Y00162*
X00227Y00161*
X00231Y00161*
X00236Y0016*
X0024*
X00245Y00161*
X00249Y00161*
X00254Y00162*
X00258Y00164*
X00262Y00165*
X00267Y00167*
X00271Y00169*
X00274Y00171*
X00278Y00174*
X00282Y00177*
X00285Y0018*
X00288Y00184*
X00291Y00187*
X00293Y00191*
X00295Y00195*
X00297Y00199*
X00299Y00203*
X003Y00207*
X00302Y00212*
X00302Y00216*
X00303Y00221*
X00303Y00225*
X0036D02*
D01*
X0036Y00234*
X00359Y00242*
X00357Y00251*
X00355Y00259*
X00353Y00267*
X0035Y00275*
X00346Y00283*
X00342Y0029*
X00337Y00297*
X00332Y00304*
X00326Y0031*
X0032Y00316*
X00313Y00321*
X00306Y00326*
X00299Y00331*
X00292Y00335*
X00284Y00338*
X00276Y00341*
X00268Y00344*
X00259Y00345*
X00251Y00347*
X00242Y00347*
X00234*
X00225Y00347*
X00217Y00345*
X00209Y00344*
X002Y00341*
X00192Y00338*
X00185Y00335*
X00177Y00331*
X0017Y00326*
X00163Y00321*
X00156Y00316*
X0015Y0031*
X00145Y00304*
X00139Y00297*
X00135Y0029*
X0013Y00283*
X00127Y00275*
X00123Y00267*
X00121Y00259*
X00119Y00251*
X00117Y00242*
X00116Y00234*
X00116Y00225*
X00116Y00217*
X00117Y00208*
X00119Y002*
X00121Y00192*
X00123Y00184*
X00127Y00176*
X0013Y00168*
X00135Y00161*
X00139Y00154*
X00145Y00147*
X0015Y00141*
X00156Y00135*
X00163Y00129*
X0017Y00124*
X00177Y0012*
X00185Y00116*
X00192Y00112*
X002Y00109*
X00209Y00107*
X00217Y00105*
X00225Y00104*
X00234Y00103*
X00242*
X00251Y00104*
X00259Y00105*
X00268Y00107*
X00276Y00109*
X00284Y00112*
X00292Y00116*
X00299Y0012*
X00306Y00124*
X00313Y00129*
X0032Y00135*
X00326Y00141*
X00332Y00147*
X00337Y00154*
X00342Y00161*
X00346Y00168*
X0035Y00176*
X00353Y00184*
X00355Y00192*
X00357Y002*
X00359Y00208*
X0036Y00217*
X0036Y00225*
X05527Y00289D02*
D01*
X05527Y00293*
X05527Y00298*
X05526Y00302*
X05525Y00307*
X05523Y00311*
X05522Y00315*
X0552Y00319*
X05517Y00323*
X05515Y00327*
X05512Y0033*
X05509Y00334*
X05506Y00337*
X05502Y0034*
X05499Y00342*
X05495Y00345*
X05491Y00347*
X05487Y00349*
X05482Y0035*
X05478Y00352*
X05474Y00353*
X05469Y00353*
X05465Y00354*
X0546*
X05456Y00353*
X05451Y00353*
X05447Y00352*
X05442Y0035*
X05438Y00349*
X05434Y00347*
X0543Y00345*
X05426Y00342*
X05422Y0034*
X05419Y00337*
X05416Y00334*
X05413Y0033*
X0541Y00327*
X05407Y00323*
X05405Y00319*
X05403Y00315*
X05401Y00311*
X054Y00307*
X05399Y00302*
X05398Y00298*
X05398Y00293*
X05397Y00289*
X05398Y00284*
X05398Y0028*
X05399Y00275*
X054Y00271*
X05401Y00266*
X05403Y00262*
X05405Y00258*
X05407Y00254*
X0541Y0025*
X05413Y00247*
X05416Y00243*
X05419Y0024*
X05422Y00237*
X05426Y00235*
X0543Y00232*
X05434Y0023*
X05438Y00228*
X05442Y00227*
X05447Y00226*
X05451Y00225*
X05456Y00224*
X0546Y00224*
X05465*
X05469Y00224*
X05474Y00225*
X05478Y00226*
X05482Y00227*
X05487Y00228*
X05491Y0023*
X05495Y00232*
X05499Y00235*
X05502Y00237*
X05506Y0024*
X05509Y00243*
X05512Y00247*
X05515Y0025*
X05517Y00254*
X0552Y00258*
X05522Y00262*
X05523Y00266*
X05525Y00271*
X05526Y00275*
X05527Y0028*
X05527Y00284*
X05527Y00289*
X05584D02*
D01*
X05584Y00297*
X05583Y00306*
X05582Y00314*
X0558Y00322*
X05577Y0033*
X05574Y00338*
X0557Y00346*
X05566Y00353*
X05561Y0036*
X05556Y00367*
X0555Y00373*
X05544Y00379*
X05537Y00385*
X05531Y0039*
X05523Y00394*
X05516Y00398*
X05508Y00402*
X055Y00405*
X05492Y00407*
X05483Y00409*
X05475Y0041*
X05467Y00411*
X05458*
X0545Y0041*
X05441Y00409*
X05433Y00407*
X05425Y00405*
X05417Y00402*
X05409Y00398*
X05401Y00394*
X05394Y0039*
X05387Y00385*
X05381Y00379*
X05375Y00373*
X05369Y00367*
X05364Y0036*
X05359Y00353*
X05355Y00346*
X05351Y00338*
X05348Y0033*
X05345Y00322*
X05343Y00314*
X05341Y00306*
X05341Y00297*
X0534Y00289*
X05341Y0028*
X05341Y00272*
X05343Y00263*
X05345Y00255*
X05348Y00247*
X05351Y00239*
X05355Y00231*
X05359Y00224*
X05364Y00217*
X05369Y0021*
X05375Y00204*
X05381Y00198*
X05387Y00192*
X05394Y00187*
X05401Y00183*
X05409Y00179*
X05417Y00175*
X05425Y00173*
X05433Y0017*
X05441Y00168*
X0545Y00167*
X05458Y00167*
X05467*
X05475Y00167*
X05483Y00168*
X05492Y0017*
X055Y00173*
X05508Y00175*
X05516Y00179*
X05523Y00183*
X05531Y00187*
X05537Y00192*
X05544Y00198*
X0555Y00204*
X05556Y0021*
X05561Y00217*
X05566Y00224*
X0557Y00231*
X05574Y00239*
X05577Y00247*
X0558Y00255*
X05582Y00263*
X05583Y00272*
X05584Y0028*
X05584Y00289*
X05574Y10381D02*
D01*
X05574Y10386*
X05574Y10391*
X05573Y10395*
X05572Y10399*
X05571Y10404*
X05569Y10408*
X05567Y10412*
X05565Y10416*
X05562Y1042*
X05559Y10423*
X05556Y10427*
X05553Y1043*
X05549Y10433*
X05546Y10435*
X05542Y10438*
X05538Y1044*
X05534Y10442*
X0553Y10443*
X05525Y10445*
X05521Y10445*
X05516Y10446*
X05512Y10446*
X05507*
X05503Y10446*
X05498Y10445*
X05494Y10445*
X05489Y10443*
X05485Y10442*
X05481Y1044*
X05477Y10438*
X05473Y10435*
X0547Y10433*
X05466Y1043*
X05463Y10427*
X0546Y10423*
X05457Y1042*
X05454Y10416*
X05452Y10412*
X0545Y10408*
X05448Y10404*
X05447Y10399*
X05446Y10395*
X05445Y10391*
X05445Y10386*
X05445Y10381*
X05445Y10377*
X05445Y10372*
X05446Y10368*
X05447Y10364*
X05448Y10359*
X0545Y10355*
X05452Y10351*
X05454Y10347*
X05457Y10343*
X0546Y1034*
X05463Y10336*
X05466Y10333*
X0547Y1033*
X05473Y10328*
X05477Y10325*
X05481Y10323*
X05485Y10321*
X05489Y1032*
X05494Y10318*
X05498Y10318*
X05503Y10317*
X05507Y10317*
X05512*
X05516Y10317*
X05521Y10318*
X05525Y10318*
X0553Y1032*
X05534Y10321*
X05538Y10323*
X05542Y10325*
X05546Y10328*
X05549Y1033*
X05553Y10333*
X05556Y10336*
X05559Y1034*
X05562Y10343*
X05565Y10347*
X05567Y10351*
X05569Y10355*
X05571Y10359*
X05572Y10364*
X05573Y10368*
X05574Y10372*
X05574Y10377*
X05574Y10381*
X05632D02*
D01*
X05631Y1039*
X0563Y10398*
X05629Y10407*
X05627Y10415*
X05624Y10423*
X05621Y10431*
X05617Y10439*
X05613Y10446*
X05608Y10453*
X05603Y1046*
X05597Y10466*
X05591Y10472*
X05585Y10478*
X05578Y10483*
X05571Y10487*
X05563Y10491*
X05555Y10495*
X05547Y10498*
X05539Y105*
X05531Y10502*
X05522Y10503*
X05514Y10503*
X05505*
X05497Y10503*
X05488Y10502*
X0548Y105*
X05472Y10498*
X05464Y10495*
X05456Y10491*
X05448Y10487*
X05441Y10483*
X05434Y10478*
X05428Y10472*
X05422Y10466*
X05416Y1046*
X05411Y10453*
X05406Y10446*
X05402Y10439*
X05398Y10431*
X05395Y10423*
X05392Y10415*
X0539Y10407*
X05389Y10398*
X05388Y1039*
X05387Y10381*
X05388Y10373*
X05389Y10365*
X0539Y10356*
X05392Y10348*
X05395Y1034*
X05398Y10332*
X05402Y10324*
X05406Y10317*
X05411Y1031*
X05416Y10303*
X05422Y10297*
X05428Y10291*
X05434Y10285*
X05441Y1028*
X05448Y10276*
X05456Y10272*
X05464Y10268*
X05472Y10265*
X0548Y10263*
X05488Y10261*
X05497Y1026*
X05505Y1026*
X05514*
X05522Y1026*
X05531Y10261*
X05539Y10263*
X05547Y10265*
X05555Y10268*
X05563Y10272*
X05571Y10276*
X05578Y1028*
X05585Y10285*
X05591Y10291*
X05597Y10297*
X05603Y10303*
X05608Y1031*
X05613Y10317*
X05617Y10324*
X05621Y10332*
X05624Y1034*
X05627Y10348*
X05629Y10356*
X0563Y10365*
X05631Y10373*
X05632Y10381*
X00332Y10413D02*
D01*
X00332Y10418*
X00332Y10422*
X00331Y10427*
X0033Y10431*
X00328Y10435*
X00327Y1044*
X00325Y10444*
X00322Y10448*
X0032Y10451*
X00317Y10455*
X00314Y10458*
X00311Y10461*
X00307Y10464*
X00304Y10467*
X003Y10469*
X00296Y10471*
X00292Y10473*
X00287Y10475*
X00283Y10476*
X00279Y10477*
X00274Y10478*
X0027Y10478*
X00265*
X00261Y10478*
X00256Y10477*
X00252Y10476*
X00247Y10475*
X00243Y10473*
X00239Y10471*
X00235Y10469*
X00231Y10467*
X00227Y10464*
X00224Y10461*
X00221Y10458*
X00218Y10455*
X00215Y10451*
X00212Y10448*
X0021Y10444*
X00208Y1044*
X00206Y10435*
X00205Y10431*
X00204Y10427*
X00203Y10422*
X00202Y10418*
X00202Y10413*
X00202Y10409*
X00203Y10404*
X00204Y104*
X00205Y10395*
X00206Y10391*
X00208Y10387*
X0021Y10383*
X00212Y10379*
X00215Y10375*
X00218Y10371*
X00221Y10368*
X00224Y10365*
X00227Y10362*
X00231Y10359*
X00235Y10357*
X00239Y10355*
X00243Y10353*
X00247Y10351*
X00252Y1035*
X00256Y10349*
X00261Y10348*
X00265Y10348*
X0027*
X00274Y10348*
X00279Y10349*
X00283Y1035*
X00287Y10351*
X00292Y10353*
X00296Y10355*
X003Y10357*
X00304Y10359*
X00307Y10362*
X00311Y10365*
X00314Y10368*
X00317Y10371*
X0032Y10375*
X00322Y10379*
X00325Y10383*
X00327Y10387*
X00328Y10391*
X0033Y10395*
X00331Y104*
X00332Y10404*
X00332Y10409*
X00332Y10413*
X00389D02*
D01*
X00389Y10422*
X00388Y1043*
X00387Y10438*
X00385Y10447*
X00382Y10455*
X00379Y10463*
X00375Y1047*
X00371Y10478*
X00366Y10485*
X00361Y10492*
X00355Y10498*
X00349Y10504*
X00342Y10509*
X00336Y10514*
X00328Y10519*
X00321Y10523*
X00313Y10526*
X00305Y10529*
X00297Y10532*
X00288Y10533*
X0028Y10534*
X00272Y10535*
X00263*
X00255Y10534*
X00246Y10533*
X00238Y10532*
X0023Y10529*
X00222Y10526*
X00214Y10523*
X00206Y10519*
X00199Y10514*
X00192Y10509*
X00186Y10504*
X0018Y10498*
X00174Y10492*
X00169Y10485*
X00164Y10478*
X0016Y1047*
X00156Y10463*
X00153Y10455*
X0015Y10447*
X00148Y10438*
X00146Y1043*
X00146Y10422*
X00145Y10413*
X00146Y10405*
X00146Y10396*
X00148Y10388*
X0015Y10379*
X00153Y10371*
X00156Y10363*
X0016Y10356*
X00164Y10348*
X00169Y10341*
X00174Y10335*
X0018Y10328*
X00186Y10322*
X00192Y10317*
X00199Y10312*
X00206Y10307*
X00214Y10303*
X00222Y103*
X0023Y10297*
X00238Y10295*
X00246Y10293*
X00255Y10292*
X00263Y10291*
X00272*
X0028Y10292*
X00288Y10293*
X00297Y10295*
X00305Y10297*
X00313Y103*
X00321Y10303*
X00328Y10307*
X00336Y10312*
X00342Y10317*
X00349Y10322*
X00355Y10328*
X00361Y10335*
X00366Y10341*
X00371Y10348*
X00375Y10356*
X00379Y10363*
X00382Y10371*
X00385Y10379*
X00387Y10388*
X00388Y10396*
X00389Y10405*
X00389Y10413*
X04916Y00269D02*
D01*
X04916Y00273*
X04916Y00277*
X04915Y00281*
X04914Y00285*
X04913Y00289*
X04911Y00293*
X04909Y00296*
X04907Y003*
X04905Y00303*
X04903Y00307*
X049Y0031*
X04897Y00312*
X04894Y00315*
X0489Y00318*
X04887Y0032*
X04883Y00322*
X04879Y00323*
X04876Y00325*
X04872Y00326*
X04868Y00327*
X04863Y00327*
X04859Y00328*
X04855*
X04851Y00327*
X04847Y00327*
X04843Y00326*
X04839Y00325*
X04835Y00323*
X04831Y00322*
X04828Y0032*
X04824Y00318*
X04821Y00315*
X04818Y00312*
X04815Y0031*
X04812Y00307*
X0481Y00303*
X04807Y003*
X04805Y00296*
X04803Y00293*
X04802Y00289*
X04801Y00285*
X048Y00281*
X04799Y00277*
X04798Y00273*
X04798Y00269*
X04798Y00264*
X04799Y0026*
X048Y00256*
X04801Y00252*
X04802Y00248*
X04803Y00245*
X04805Y00241*
X04807Y00237*
X0481Y00234*
X04812Y00231*
X04815Y00228*
X04818Y00225*
X04821Y00222*
X04824Y0022*
X04828Y00217*
X04831Y00216*
X04835Y00214*
X04839Y00212*
X04843Y00211*
X04847Y0021*
X04851Y0021*
X04855Y0021*
X04859*
X04863Y0021*
X04868Y0021*
X04872Y00211*
X04876Y00212*
X04879Y00214*
X04883Y00216*
X04887Y00217*
X0489Y0022*
X04894Y00222*
X04897Y00225*
X049Y00228*
X04903Y00231*
X04905Y00234*
X04907Y00237*
X04909Y00241*
X04911Y00245*
X04913Y00248*
X04914Y00252*
X04915Y00256*
X04916Y0026*
X04916Y00264*
X04916Y00269*
X01001Y09256D02*
D01*
X01001Y0926*
X01001Y09264*
X01Y09269*
X00999Y09273*
X00998Y09276*
X00996Y0928*
X00995Y09284*
X00992Y09288*
X0099Y09291*
X00988Y09294*
X00985Y09297*
X00982Y093*
X00979Y09303*
X00975Y09305*
X00972Y09307*
X00968Y09309*
X00964Y09311*
X00961Y09312*
X00957Y09314*
X00953Y09314*
X00949Y09315*
X00944Y09315*
X0094*
X00936Y09315*
X00932Y09314*
X00928Y09314*
X00924Y09312*
X0092Y09311*
X00916Y09309*
X00913Y09307*
X00909Y09305*
X00906Y09303*
X00903Y093*
X009Y09297*
X00897Y09294*
X00895Y09291*
X00892Y09288*
X0089Y09284*
X00888Y0928*
X00887Y09276*
X00886Y09273*
X00885Y09269*
X00884Y09264*
X00883Y0926*
X00883Y09256*
X00883Y09252*
X00884Y09248*
X00885Y09244*
X00886Y0924*
X00887Y09236*
X00888Y09232*
X0089Y09229*
X00892Y09225*
X00895Y09222*
X00897Y09218*
X009Y09215*
X00903Y09212*
X00906Y0921*
X00909Y09207*
X00913Y09205*
X00916Y09203*
X0092Y09201*
X00924Y092*
X00928Y09199*
X00932Y09198*
X00936Y09197*
X0094Y09197*
X00944*
X00949Y09197*
X00953Y09198*
X00957Y09199*
X00961Y092*
X00964Y09201*
X00968Y09203*
X00972Y09205*
X00975Y09207*
X00979Y0921*
X00982Y09212*
X00985Y09215*
X00988Y09218*
X0099Y09222*
X00992Y09225*
X00995Y09229*
X00996Y09232*
X00998Y09236*
X00999Y0924*
X01Y09244*
X01001Y09248*
X01001Y09252*
X01001Y09256*
X04689Y1025D02*
D01*
X04688Y10254*
X04688Y10258*
X04687Y10262*
X04686Y10266*
X04685Y1027*
X04683Y10274*
X04682Y10277*
X0468Y10281*
X04677Y10284*
X04675Y10287*
X04672Y10291*
X04669Y10293*
X04666Y10296*
X04663Y10298*
X04659Y10301*
X04655Y10303*
X04652Y10304*
X04648Y10306*
X04644Y10307*
X0464Y10308*
X04636Y10308*
X04632Y10309*
X04627*
X04623Y10308*
X04619Y10308*
X04615Y10307*
X04611Y10306*
X04607Y10304*
X04604Y10303*
X046Y10301*
X04596Y10298*
X04593Y10296*
X0459Y10293*
X04587Y10291*
X04584Y10287*
X04582Y10284*
X04579Y10281*
X04577Y10277*
X04576Y10274*
X04574Y1027*
X04573Y10266*
X04572Y10262*
X04571Y10258*
X04571Y10254*
X0457Y1025*
X04571Y10245*
X04571Y10241*
X04572Y10237*
X04573Y10233*
X04574Y10229*
X04576Y10225*
X04577Y10222*
X04579Y10218*
X04582Y10215*
X04584Y10212*
X04587Y10208*
X0459Y10206*
X04593Y10203*
X04596Y10201*
X046Y10198*
X04604Y10196*
X04607Y10195*
X04611Y10193*
X04615Y10192*
X04619Y10191*
X04623Y10191*
X04627Y1019*
X04632*
X04636Y10191*
X0464Y10191*
X04644Y10192*
X04648Y10193*
X04652Y10195*
X04655Y10196*
X04659Y10198*
X04663Y10201*
X04666Y10203*
X04669Y10206*
X04672Y10208*
X04675Y10212*
X04677Y10215*
X0468Y10218*
X04682Y10222*
X04683Y10225*
X04685Y10229*
X04686Y10233*
X04687Y10237*
X04688Y10241*
X04688Y10245*
X04689Y1025*
X04857Y0021D02*
Y00328D01*
X04798Y00269D02*
X04916D01*
X00942Y09197D02*
Y09315D01*
X00883Y09256D02*
X01001D01*
X0463Y1019D02*
Y10309D01*
X0457Y1025D02*
X04689D01*
M02*