%FSTAX23Y23*%
%MOIN*%
%SFA1B1*%

%IPPOS*%
%AMD205*
4,1,8,0.030000,-0.015000,0.030000,0.015000,0.015000,0.030000,-0.015000,0.030000,-0.030000,0.015000,-0.030000,-0.015000,-0.015000,-0.030000,0.015000,-0.030000,0.030000,-0.015000,0.0*
%
%ADD190C,0.004000*%
%ADD197C,0.244094*%
%ADD198C,0.023622*%
%ADD199C,0.086614*%
%ADD200C,0.075000*%
%ADD201R,0.075000X0.075000*%
%ADD202C,0.118110*%
%ADD203C,0.062992*%
%ADD204C,0.150000*%
G04~CAMADD=205~4~0.0~0.0~600.0~600.0~0.0~150.0~0~0.0~0.0~0.0~0.0~0~0.0~0.0~0.0~0.0~0~0.0~0.0~0.0~270.0~600.0~600.0*
%ADD205D205*%
%ADD206C,0.060000*%
%ADD207R,0.118110X0.118110*%
%ADD208C,0.007000*%
%ADD209C,0.015000*%
%ADD210C,0.020000*%
%ADD211C,0.019685*%
%LNprob_s7cas_pcb-1*%
%LPD*%
G54D190*
X04485Y0584D02*
X04536Y05891D01*
X04546*
X04547Y0589*
X04558*
X04564Y05896*
Y05907*
X04549Y05922D02*
X04564Y05907D01*
X04549Y05922D02*
Y05932D01*
X04556Y05939*
X04566*
X04584Y05921*
X04594*
X04601Y05928*
Y05938*
X04583Y05956D02*
X04601Y05938D01*
X04583Y05956D02*
Y05966D01*
X0459Y05973*
X046*
X04618Y05955*
X04628*
X04635Y05962*
Y05972*
X04631Y05976D02*
X04635Y05972D01*
X04631Y05976D02*
Y05986D01*
X04632Y05987*
X03424Y04779D02*
X04485Y0584D01*
X04632Y05987D02*
X04669Y06024D01*
X04364Y06016D02*
X04367Y06018D01*
X04364Y06006D02*
Y06016D01*
Y06006D02*
X04368Y06002D01*
Y05992D02*
Y06002D01*
X04362Y05985D02*
X04368Y05992D01*
X04351Y05985D02*
X04362D01*
X04346Y0599D02*
X04351Y05985D01*
X04335Y0599D02*
X04346D01*
X04329Y05984D02*
X04335Y0599D01*
X04329Y05973D02*
Y05984D01*
Y05973D02*
X04334Y05968D01*
Y05958D02*
Y05968D01*
X04328Y05951D02*
X04334Y05958D01*
X04317Y05951D02*
X04328D01*
X04312Y05957D02*
X04317Y05951D01*
X04302Y05957D02*
X04312D01*
X04295Y0595D02*
X04302Y05957D01*
X04295Y0594D02*
Y0595D01*
Y0594D02*
X043Y05934D01*
Y05924D02*
Y05934D01*
X04294Y05917D02*
X043Y05924D01*
X04283Y05917D02*
X04294D01*
X04278Y05923D02*
X04283Y05917D01*
X04268Y05923D02*
X04278D01*
X04261Y05916D02*
X04268Y05923D01*
X04261Y05906D02*
Y05916D01*
Y05906D02*
X04267Y059D01*
Y0589D02*
Y059D01*
X0426Y05883D02*
X04267Y0589D01*
X0425Y05883D02*
X0426D01*
X04244Y05889D02*
X0425Y05883D01*
X04234Y05889D02*
X04244D01*
X04227Y05882D02*
X04234Y05889D01*
X04227Y05872D02*
Y05882D01*
Y05872D02*
X04233Y05866D01*
Y05856D02*
Y05866D01*
X04226Y05849D02*
X04233Y05856D01*
X04216Y05849D02*
X04226D01*
X0421Y05855D02*
X04216Y05849D01*
X042Y05855D02*
X0421D01*
X04193Y05848D02*
X042Y05855D01*
X04193Y05838D02*
Y05848D01*
Y05838D02*
X04199Y05832D01*
Y05822D02*
Y05832D01*
X04192Y05815D02*
X04199Y05822D01*
X04182Y05815D02*
X04192D01*
X04176Y05821D02*
X04182Y05815D01*
X04166Y05821D02*
X04176D01*
X04159Y05814D02*
X04166Y05821D01*
X04159Y05804D02*
Y05814D01*
Y05804D02*
X04165Y05798D01*
Y05788D02*
Y05798D01*
X04158Y05781D02*
X04165Y05788D01*
X04148Y05781D02*
X04158D01*
X04142Y05787D02*
X04148Y05781D01*
X04132Y05787D02*
X04142D01*
X04125Y0578D02*
X04132Y05787D01*
X04125Y0577D02*
Y0578D01*
Y0577D02*
X04131Y05764D01*
Y05754D02*
Y05764D01*
X04124Y05747D02*
X04131Y05754D01*
X04114Y05747D02*
X04124D01*
X0411Y05751D02*
X04114Y05747D01*
X041Y05751D02*
X0411D01*
X04081Y05733D02*
X041Y05751D01*
X04367Y06018D02*
X04519Y06171D01*
X03549Y05201D02*
X04081Y05733D01*
X0424Y05979D02*
X04242Y0598D01*
X0423Y05979D02*
X0424D01*
X04226Y05983D02*
X0423Y05979D01*
X04216Y05983D02*
X04226D01*
X04209Y05976D02*
X04216Y05983D01*
X04209Y05966D02*
Y05976D01*
Y05966D02*
X04219Y05955D01*
Y05945D02*
Y05955D01*
X04212Y05938D02*
X04219Y05945D01*
X04202Y05938D02*
X04212D01*
X04192Y05949D02*
X04202Y05938D01*
X04182Y05949D02*
X04192D01*
X04175Y05942D02*
X04182Y05949D01*
X04175Y05932D02*
Y05942D01*
Y05932D02*
X04185Y05921D01*
Y05911D02*
Y05921D01*
X04178Y05905D02*
X04185Y05911D01*
X04168Y05905D02*
X04178D01*
X04158Y05915D02*
X04168Y05905D01*
X04148Y05915D02*
X04158D01*
X04141Y05908D02*
X04148Y05915D01*
X04141Y05898D02*
Y05908D01*
Y05898D02*
X04151Y05888D01*
Y05877D02*
Y05888D01*
X04144Y05871D02*
X04151Y05877D01*
X04134Y05871D02*
X04144D01*
X04124Y05881D02*
X04134Y05871D01*
X04114Y05881D02*
X04124D01*
X04107Y05874D02*
X04114Y05881D01*
X04107Y05864D02*
Y05874D01*
Y05864D02*
X04117Y05854D01*
Y05843D02*
Y05854D01*
X0411Y05837D02*
X04117Y05843D01*
X041Y05837D02*
X0411D01*
X0409Y05847D02*
X041Y05837D01*
X0408Y05847D02*
X0409D01*
X04073Y0584D02*
X0408Y05847D01*
X04073Y0583D02*
Y0584D01*
Y0583D02*
X04083Y0582D01*
Y05809D02*
Y0582D01*
X04077Y05803D02*
X04083Y05809D01*
X04066Y05803D02*
X04077D01*
X04056Y05813D02*
X04066Y05803D01*
X04046Y05813D02*
X04056D01*
X04039Y05806D02*
X04046Y05813D01*
X04039Y05796D02*
Y05806D01*
Y05796D02*
X04049Y05786D01*
Y05776D02*
Y05786D01*
X04043Y05769D02*
X04049Y05776D01*
X04032Y05769D02*
X04043D01*
X04022Y05779D02*
X04032Y05769D01*
X04012Y05779D02*
X04022D01*
X04005Y05772D02*
X04012Y05779D01*
X04005Y05762D02*
Y05772D01*
Y05762D02*
X04015Y05752D01*
Y05742D02*
Y05752D01*
X04009Y05735D02*
X04015Y05742D01*
X03998Y05735D02*
X04009D01*
X03988Y05745D02*
X03998Y05735D01*
X03978Y05745D02*
X03988D01*
X03971Y05738D02*
X03978Y05745D01*
X03971Y05728D02*
Y05738D01*
Y05728D02*
X03975Y05724D01*
Y05714D02*
Y05724D01*
X03974Y05712D02*
X03975Y05714D01*
X04242Y0598D02*
X04503Y06241D01*
X03503Y05242D02*
X03974Y05712D01*
X0296Y04758D02*
X02969Y04767D01*
X02983*
X0294Y04758D02*
X0296D01*
X02959Y04767D02*
X02963Y04771D01*
X02948Y04789D02*
X02963Y04775D01*
Y04771D02*
Y04775D01*
X02943Y04767D02*
X02959D01*
X02869Y04789D02*
X02948D01*
X02866Y04782D02*
X02916D01*
X0294Y04758*
X04988Y06542D02*
X05073Y06456D01*
X04824Y06542D02*
X04988D01*
X05073Y06435D02*
Y06456D01*
X04993Y06549D02*
X05074Y06467D01*
X04821Y06549D02*
X04993D01*
X04792Y0651D02*
X04824Y06542D01*
X04611Y0651D02*
X04792D01*
X04789Y06517D02*
X04821Y06549D01*
X04605Y06517D02*
X04789D01*
X04827Y06507D02*
X04987D01*
X04802Y06482D02*
X04827Y06507D01*
X04684Y06482D02*
X04802D01*
X03225Y05137D02*
X04605Y06517D01*
X03348Y05248D02*
X04611Y0651D01*
X03348Y05235D02*
Y05248D01*
X03243Y0513D02*
X03348Y05235D01*
X03176Y0513D02*
X03243D01*
X03173Y05137D02*
X03225D01*
X04672Y0585D02*
X04687Y05865D01*
Y05875*
X04687Y05875D02*
X04687Y05875D01*
X04687Y05875D02*
Y05885D01*
X04694Y05892*
X04704*
X04718Y05878*
X04729*
X04735Y05884*
Y05895*
X04717Y05913D02*
X04735Y05895D01*
X04717Y05913D02*
Y05923D01*
X04724Y0593*
X04734*
X04752Y05911*
X04762*
X04769Y05918*
Y05928*
X04751Y05947D02*
X04769Y05928D01*
X04751Y05947D02*
Y05957D01*
X04758Y05964*
X04768*
X04786Y05945*
X04796*
X04803Y05952*
Y05962*
X04785Y0598D02*
X04803Y05962D01*
X04785Y0598D02*
Y05991D01*
X04792Y05997*
X04802*
X0482Y05979*
X0483*
X04837Y05986*
Y05996*
X04819Y06014D02*
X04837Y05996D01*
X04819Y06014D02*
Y06025D01*
X04826Y06031*
X04836*
X04854Y06013*
X04864*
X04871Y0602*
Y0603*
X04853Y06048D02*
X04871Y0603D01*
X04853Y06048D02*
Y06059D01*
X0486Y06065*
X0487*
X04888Y06047*
X04898*
X04905Y06054*
Y06064*
X04887Y06082D02*
X04905Y06064D01*
X04887Y06082D02*
Y06092D01*
X04894Y06099*
X04904*
X04922Y06081*
X04932*
X04939Y06088*
Y06098*
X04921Y06116D02*
X04939Y06098D01*
X04921Y06116D02*
Y06126D01*
X04928Y06133*
X04938*
X04956Y06115*
X04966*
X04973Y06122*
Y06132*
X04969Y06136D02*
X04973Y06132D01*
X04969Y06136D02*
Y06146D01*
X0497Y06148*
X04509Y05686D02*
X04672Y0585D01*
X0497Y06148D02*
X05073Y06251D01*
X04517Y06316D02*
X04544Y06343D01*
X04517Y06306D02*
Y06316D01*
Y06306D02*
X0452Y06303D01*
Y06293D02*
Y06303D01*
X04513Y06286D02*
X0452Y06293D01*
X04503Y06286D02*
X04513D01*
X04486Y06303D02*
X04503Y06286D01*
X04476Y06303D02*
X04486D01*
X04469Y06296D02*
X04476Y06303D01*
X04469Y06286D02*
Y06296D01*
Y06286D02*
X04487Y06268D01*
Y06258D02*
Y06268D01*
X04481Y06251D02*
X04487Y06258D01*
X0447Y06251D02*
X04481D01*
X04452Y06269D02*
X0447Y06251D01*
X04442Y06269D02*
X04452D01*
X04435Y06262D02*
X04442Y06269D01*
X04435Y06252D02*
Y06262D01*
Y06252D02*
X04453Y06234D01*
Y06224D02*
Y06234D01*
X04447Y06217D02*
X04453Y06224D01*
X04437Y06217D02*
X04447D01*
X04418Y06235D02*
X04437Y06217D01*
X04408Y06235D02*
X04418D01*
X04401Y06228D02*
X04408Y06235D01*
X04401Y06218D02*
Y06228D01*
Y06218D02*
X0442Y062D01*
Y0619D02*
Y062D01*
X04413Y06183D02*
X0442Y0619D01*
X04403Y06183D02*
X04413D01*
X04384Y06201D02*
X04403Y06183D01*
X04374Y06201D02*
X04384D01*
X04368Y06194D02*
X04374Y06201D01*
X04368Y06184D02*
Y06194D01*
Y06184D02*
X04386Y06166D01*
Y06156D02*
Y06166D01*
X04379Y06149D02*
X04386Y06156D01*
X04369Y06149D02*
X04379D01*
X04351Y06167D02*
X04369Y06149D01*
X0434Y06167D02*
X04351D01*
X04334Y0616D02*
X0434Y06167D01*
X04334Y0615D02*
Y0616D01*
Y0615D02*
X04352Y06132D01*
Y06122D02*
Y06132D01*
X04345Y06115D02*
X04352Y06122D01*
X04335Y06115D02*
X04345D01*
X04317Y06133D02*
X04335Y06115D01*
X04306Y06133D02*
X04317D01*
X043Y06126D02*
X04306Y06133D01*
X043Y06116D02*
Y06126D01*
Y06116D02*
X04318Y06098D01*
Y06088D02*
Y06098D01*
X04311Y06081D02*
X04318Y06088D01*
X04301Y06081D02*
X04311D01*
X04283Y06099D02*
X04301Y06081D01*
X04272Y06099D02*
X04283D01*
X04266Y06092D02*
X04272Y06099D01*
X04266Y06082D02*
Y06092D01*
Y06082D02*
X04284Y06064D01*
Y06054D02*
Y06064D01*
X04277Y06047D02*
X04284Y06054D01*
X04267Y06047D02*
X04277D01*
X04249Y06065D02*
X04267Y06047D01*
X04239Y06065D02*
X04249D01*
X04232Y06059D02*
X04239Y06065D01*
X04232Y06048D02*
Y06059D01*
Y06048D02*
X0425Y0603D01*
Y0602D02*
Y0603D01*
X04243Y06013D02*
X0425Y0602D01*
X04233Y06013D02*
X04243D01*
X04215Y06031D02*
X04233Y06013D01*
X04205Y06031D02*
X04215D01*
X04198Y06025D02*
X04205Y06031D01*
X04198Y06014D02*
Y06025D01*
Y06014D02*
X04202Y0601D01*
Y06D02*
Y0601D01*
X042Y05999D02*
X04202Y06D01*
X04544Y06343D02*
X04684Y06482D01*
X03464Y05262D02*
X042Y05999D01*
X04906Y06152D02*
X0494Y06186D01*
X04906Y06142D02*
Y06152D01*
Y06142D02*
X0491Y06138D01*
Y06128D02*
Y06138D01*
X04903Y06121D02*
X0491Y06128D01*
X04893Y06121D02*
X04903D01*
X04875Y06139D02*
X04893Y06121D01*
X04865Y06139D02*
X04875D01*
X04858Y06132D02*
X04865Y06139D01*
X04858Y06122D02*
Y06132D01*
Y06122D02*
X04876Y06104D01*
Y06094D02*
Y06104D01*
X04869Y06087D02*
X04876Y06094D01*
X04859Y06087D02*
X04869D01*
X04843Y06103D02*
X04859Y06087D01*
X04833Y06103D02*
X04843D01*
X04826Y06097D02*
X04833Y06103D01*
X04826Y06087D02*
Y06097D01*
Y06087D02*
X04842Y0607D01*
Y0606D02*
Y0607D01*
X04835Y06053D02*
X04842Y0606D01*
X04825Y06053D02*
X04835D01*
X04807Y06071D02*
X04825Y06053D01*
X04797Y06071D02*
X04807D01*
X0479Y06065D02*
X04797Y06071D01*
X0479Y06054D02*
Y06065D01*
Y06054D02*
X04808Y06036D01*
Y06026D02*
Y06036D01*
X04801Y06019D02*
X04808Y06026D01*
X04791Y06019D02*
X04801D01*
X04773Y06037D02*
X04791Y06019D01*
X04763Y06037D02*
X04773D01*
X04756Y06031D02*
X04763Y06037D01*
X04756Y0602D02*
Y06031D01*
Y0602D02*
X04774Y06002D01*
Y05992D02*
Y06002D01*
X04767Y05985D02*
X04774Y05992D01*
X04757Y05985D02*
X04767D01*
X04739Y06003D02*
X04757Y05985D01*
X04729Y06003D02*
X04739D01*
X04722Y05997D02*
X04729Y06003D01*
X04722Y05986D02*
Y05997D01*
Y05986D02*
X0474Y05968D01*
Y05958D02*
Y05968D01*
X04733Y05951D02*
X0474Y05958D01*
X04723Y05951D02*
X04733D01*
X04705Y0597D02*
X04723Y05951D01*
X04695Y0597D02*
X04705D01*
X04688Y05963D02*
X04695Y0597D01*
X04688Y05953D02*
Y05963D01*
Y05953D02*
X04706Y05934D01*
Y05924D02*
Y05934D01*
X04699Y05917D02*
X04706Y05924D01*
X04689Y05917D02*
X04699D01*
X04671Y05936D02*
X04689Y05917D01*
X04661Y05936D02*
X04671D01*
X04654Y05929D02*
X04661Y05936D01*
X04654Y05919D02*
Y05929D01*
Y05919D02*
X04672Y05901D01*
Y0589D02*
Y05901D01*
X04666Y05884D02*
X04672Y0589D01*
X04655Y05884D02*
X04666D01*
X04637Y05902D02*
X04655Y05884D01*
X04627Y05902D02*
X04637D01*
X0462Y05895D02*
X04627Y05902D01*
X0462Y05885D02*
Y05895D01*
Y05885D02*
X04638Y05867D01*
Y05856D02*
Y05867D01*
X04632Y0585D02*
X04638Y05856D01*
X04621Y0585D02*
X04632D01*
X04603Y05868D02*
X04621Y0585D01*
X04593Y05868D02*
X04603D01*
X04586Y05861D02*
X04593Y05868D01*
X04586Y05851D02*
Y05861D01*
Y05851D02*
X04604Y05833D01*
Y05822D02*
Y05833D01*
X04598Y05816D02*
X04604Y05822D01*
X04587Y05816D02*
X04598D01*
X04569Y05834D02*
X04587Y05816D01*
X04559Y05834D02*
X04569D01*
X04552Y05827D02*
X04559Y05834D01*
X04552Y05817D02*
Y05827D01*
Y05817D02*
X04556Y05813D01*
Y05803D02*
Y05813D01*
X04555Y05801D02*
X04556Y05803D01*
X0494Y06186D02*
X04958Y06204D01*
X04342Y05589D02*
X04555Y05801D01*
X04613Y0568D02*
X04656Y05722D01*
Y05732*
X04653Y05735D02*
X04656Y05732D01*
X04653Y05735D02*
Y05745D01*
X04659Y05752*
X0467*
X04687Y05735*
X04697*
X04704Y05742*
Y05752*
X04686Y0577D02*
X04704Y05752D01*
X04686Y0577D02*
Y0578D01*
X04692Y05787*
X04703*
X04721Y05769*
X04731*
X04738Y05776*
Y05786*
X04719Y05804D02*
X04738Y05786D01*
X04719Y05804D02*
Y05814D01*
X04726Y05821*
X04736*
X04755Y05803*
X04765*
X04772Y0581*
Y0582*
X04753Y05838D02*
X04772Y0582D01*
X04753Y05838D02*
Y05848D01*
X0476Y05855*
X0477*
X04788Y05837*
X04799*
X04805Y05844*
Y05854*
X04787Y05872D02*
X04805Y05854D01*
X04787Y05872D02*
Y05882D01*
X04794Y05889*
X04804*
X04822Y05871*
X04833*
X04839Y05878*
Y05888*
X04821Y05906D02*
X04839Y05888D01*
X04821Y05906D02*
Y05916D01*
X04828Y05923*
X04838*
X04856Y05905*
X04867*
X04873Y05912*
Y05922*
X04855Y0594D02*
X04873Y05922D01*
X04855Y0594D02*
Y0595D01*
X04862Y05957*
X04872*
X0489Y05939*
X049*
X04907Y05946*
Y05956*
X04889Y05974D02*
X04907Y05956D01*
X04889Y05974D02*
Y05984D01*
X04896Y05991*
X04906*
X04924Y05973*
X04934*
X04941Y0598*
Y0599*
X04923Y06008D02*
X04941Y0599D01*
X04923Y06008D02*
Y06018D01*
X0493Y06025*
X0494*
X04958Y06007*
X04968*
X04975Y06013*
Y06024*
X04957Y06042D02*
X04975Y06024D01*
X04957Y06042D02*
Y06052D01*
X04964Y06059*
X04974*
X04992Y06041*
X05002*
X05009Y06047*
Y06058*
X04991Y06076D02*
X05009Y06058D01*
X04991Y06076D02*
Y06086D01*
X04998Y06093*
X05008*
X05026Y06075*
X05036*
X05043Y06081*
Y06092*
X05039Y06095D02*
X05043Y06092D01*
X05039Y06095D02*
Y06106D01*
X05041Y06107*
X03878Y04945D02*
X04613Y0568D01*
X05041Y06107D02*
X05142Y06209D01*
X04023Y05633D02*
X04396Y06007D01*
X03997Y05608D02*
X04023Y05633D01*
X03997Y05598D02*
Y05608D01*
Y05598D02*
X0401Y05585D01*
Y05575D02*
Y05585D01*
X04003Y05568D02*
X0401Y05575D01*
X03993Y05568D02*
X04003D01*
X03975Y05586D02*
X03993Y05568D01*
X03965Y05586D02*
X03975D01*
X03958Y05579D02*
X03965Y05586D01*
X03958Y05569D02*
Y05579D01*
Y05569D02*
X03976Y05551D01*
Y05541D02*
Y05551D01*
X0397Y05534D02*
X03976Y05541D01*
X03959Y05534D02*
X0397D01*
X03941Y05552D02*
X03959Y05534D01*
X03931Y05552D02*
X03941D01*
X03924Y05545D02*
X03931Y05552D01*
X03924Y05535D02*
Y05545D01*
Y05535D02*
X03942Y05517D01*
Y05507D02*
Y05517D01*
X03936Y055D02*
X03942Y05507D01*
X03925Y055D02*
X03936D01*
X03907Y05518D02*
X03925Y055D01*
X03897Y05518D02*
X03907D01*
X0389Y05511D02*
X03897Y05518D01*
X0389Y05501D02*
Y05511D01*
Y05501D02*
X03908Y05483D01*
Y05473D02*
Y05483D01*
X03902Y05466D02*
X03908Y05473D01*
X03891Y05466D02*
X03902D01*
X03873Y05484D02*
X03891Y05466D01*
X03863Y05484D02*
X03873D01*
X03856Y05477D02*
X03863Y05484D01*
X03856Y05467D02*
Y05477D01*
Y05467D02*
X03875Y05449D01*
Y05439D02*
Y05449D01*
X03868Y05432D02*
X03875Y05439D01*
X03858Y05432D02*
X03868D01*
X03839Y0545D02*
X03858Y05432D01*
X03829Y0545D02*
X03839D01*
X03822Y05443D02*
X03829Y0545D01*
X03822Y05433D02*
Y05443D01*
Y05433D02*
X03841Y05415D01*
Y05405D02*
Y05415D01*
X03834Y05398D02*
X03841Y05405D01*
X03824Y05398D02*
X03834D01*
X03806Y05416D02*
X03824Y05398D01*
X03795Y05416D02*
X03806D01*
X03789Y05409D02*
X03795Y05416D01*
X03789Y05399D02*
Y05409D01*
Y05399D02*
X03807Y05381D01*
Y05371D02*
Y05381D01*
X038Y05364D02*
X03807Y05371D01*
X0379Y05364D02*
X038D01*
X03772Y05382D02*
X0379Y05364D01*
X03761Y05382D02*
X03772D01*
X03755Y05376D02*
X03761Y05382D01*
X03755Y05365D02*
Y05376D01*
Y05365D02*
X03773Y05347D01*
Y05337D02*
Y05347D01*
X03766Y0533D02*
X03773Y05337D01*
X03756Y0533D02*
X03766D01*
X03738Y05348D02*
X03756Y0533D01*
X03727Y05348D02*
X03738D01*
X03721Y05342D02*
X03727Y05348D01*
X03721Y05331D02*
Y05342D01*
Y05331D02*
X03739Y05313D01*
Y05303D02*
Y05313D01*
X03732Y05296D02*
X03739Y05303D01*
X03722Y05296D02*
X03732D01*
X03704Y05314D02*
X03722Y05296D01*
X03693Y05314D02*
X03704D01*
X03687Y05308D02*
X03693Y05314D01*
X03687Y05297D02*
Y05308D01*
Y05297D02*
X03705Y05279D01*
Y05269D02*
Y05279D01*
X03698Y05262D02*
X03705Y05269D01*
X03688Y05262D02*
X03698D01*
X03675Y05275D02*
X03688Y05262D01*
X03665Y05275D02*
X03675D01*
X03646Y05257D02*
X03665Y05275D01*
X03335Y04946D02*
X03646Y05257D01*
X04492Y06103D02*
X04508Y06119D01*
X04482Y06103D02*
X04492D01*
X04478Y06107D02*
X04482Y06103D01*
X04468Y06107D02*
X04478D01*
X04461Y061D02*
X04468Y06107D01*
X04461Y0609D02*
Y061D01*
Y0609D02*
X04475Y06076D01*
Y06066D02*
Y06076D01*
X04468Y06059D02*
X04475Y06066D01*
X04458Y06059D02*
X04468D01*
X04444Y06073D02*
X04458Y06059D01*
X04434Y06073D02*
X04444D01*
X04427Y06066D02*
X04434Y06073D01*
X04427Y06056D02*
Y06066D01*
Y06056D02*
X04441Y06042D01*
Y06032D02*
Y06042D01*
X04435Y06025D02*
X04441Y06032D01*
X04424Y06025D02*
X04435D01*
X0441Y06039D02*
X04424Y06025D01*
X044Y06039D02*
X0441D01*
X04393Y06032D02*
X044Y06039D01*
X04393Y06022D02*
Y06032D01*
Y06022D02*
X04397Y06018D01*
Y06008D02*
Y06018D01*
X04396Y06007D02*
X04397Y06008D01*
X04508Y06119D02*
X04517Y06127D01*
X045Y06189D02*
X04506Y06195D01*
X04489Y06189D02*
X045D01*
X04485Y06193D02*
X04489Y06189D01*
X04475Y06193D02*
X04485D01*
X04468Y06186D02*
X04475Y06193D01*
X04468Y06176D02*
Y06186D01*
Y06176D02*
X04486Y06158D01*
Y06148D02*
Y06158D01*
X04479Y06141D02*
X04486Y06148D01*
X04469Y06141D02*
X04479D01*
X04451Y06159D02*
X04469Y06141D01*
X04441Y06159D02*
X04451D01*
X04435Y06152D02*
X04441Y06159D01*
X04435Y06142D02*
Y06152D01*
Y06142D02*
X04452Y06124D01*
Y06114D02*
Y06124D01*
X04446Y06107D02*
X04452Y06114D01*
X04435Y06107D02*
X04446D01*
X04418Y06125D02*
X04435Y06107D01*
X04407Y06125D02*
X04418D01*
X04401Y06118D02*
X04407Y06125D01*
X04401Y06108D02*
Y06118D01*
Y06108D02*
X04418Y0609D01*
Y0608D02*
Y0609D01*
X04412Y06073D02*
X04418Y0608D01*
X04401Y06073D02*
X04412D01*
X04384Y06091D02*
X04401Y06073D01*
X04373Y06091D02*
X04384D01*
X04367Y06084D02*
X04373Y06091D01*
X04367Y06074D02*
Y06084D01*
Y06074D02*
X04384Y06056D01*
Y06046D02*
Y06056D01*
X04378Y06039D02*
X04384Y06046D01*
X04367Y06039D02*
X04378D01*
X0435Y06057D02*
X04367Y06039D01*
X04339Y06057D02*
X0435D01*
X04333Y0605D02*
X04339Y06057D01*
X04333Y0604D02*
Y0605D01*
Y0604D02*
X04351Y06022D01*
Y06012D02*
Y06022D01*
X04344Y06005D02*
X04351Y06012D01*
X04334Y06005D02*
X04344D01*
X04316Y06023D02*
X04334Y06005D01*
X04306Y06023D02*
X04316D01*
X04299Y06016D02*
X04306Y06023D01*
X04299Y06006D02*
Y06016D01*
Y06006D02*
X04317Y05988D01*
Y05978D02*
Y05988D01*
X0431Y05971D02*
X04317Y05978D01*
X043Y05971D02*
X0431D01*
X04282Y05989D02*
X043Y05971D01*
X04272Y05989D02*
X04282D01*
X04265Y05982D02*
X04272Y05989D01*
X04265Y05972D02*
Y05982D01*
Y05972D02*
X04283Y05954D01*
Y05944D02*
Y05954D01*
X04276Y05937D02*
X04283Y05944D01*
X04266Y05937D02*
X04276D01*
X04248Y05955D02*
X04266Y05937D01*
X04238Y05955D02*
X04248D01*
X04231Y05948D02*
X04238Y05955D01*
X04231Y05938D02*
Y05948D01*
Y05938D02*
X04249Y0592D01*
Y0591D02*
Y0592D01*
X04242Y05903D02*
X04249Y0591D01*
X04232Y05903D02*
X04242D01*
X04214Y05921D02*
X04232Y05903D01*
X04204Y05921D02*
X04214D01*
X04197Y05914D02*
X04204Y05921D01*
X04197Y05904D02*
Y05914D01*
Y05904D02*
X04215Y05886D01*
Y05876D02*
Y05886D01*
X04208Y05869D02*
X04215Y05876D01*
X04198Y05869D02*
X04208D01*
X0418Y05887D02*
X04198Y05869D01*
X0417Y05887D02*
X0418D01*
X04163Y0588D02*
X0417Y05887D01*
X04163Y0587D02*
Y0588D01*
Y0587D02*
X04181Y05852D01*
Y05842D02*
Y05852D01*
X04174Y05835D02*
X04181Y05842D01*
X04164Y05835D02*
X04174D01*
X04146Y05853D02*
X04164Y05835D01*
X04136Y05853D02*
X04146D01*
X04129Y05846D02*
X04136Y05853D01*
X04129Y05836D02*
Y05846D01*
Y05836D02*
X04147Y05818D01*
Y05808D02*
Y05818D01*
X0414Y05801D02*
X04147Y05808D01*
X0413Y05801D02*
X0414D01*
X04112Y05819D02*
X0413Y05801D01*
X04102Y05819D02*
X04112D01*
X04095Y05812D02*
X04102Y05819D01*
X04095Y05802D02*
Y05812D01*
Y05802D02*
X04113Y05784D01*
Y05774D02*
Y05784D01*
X04106Y05768D02*
X04113Y05774D01*
X04096Y05768D02*
X04106D01*
X04078Y05785D02*
X04096Y05768D01*
X04068Y05785D02*
X04078D01*
X04061Y05779D02*
X04068Y05785D01*
X04061Y05768D02*
Y05779D01*
Y05768D02*
X04079Y05751D01*
Y0574D02*
Y05751D01*
X04072Y05734D02*
X04079Y0574D01*
X04062Y05734D02*
X04072D01*
X04044Y05751D02*
X04062Y05734D01*
X04034Y05751D02*
X04044D01*
X04027Y05745D02*
X04034Y05751D01*
X04027Y05734D02*
Y05745D01*
Y05734D02*
X04045Y05717D01*
Y05706D02*
Y05717D01*
X04038Y057D02*
X04045Y05706D01*
X04028Y057D02*
X04038D01*
X0401Y05717D02*
X04028Y057D01*
X04Y05717D02*
X0401D01*
X03993Y05711D02*
X04Y05717D01*
X03993Y057D02*
Y05711D01*
Y057D02*
X03997Y05697D01*
Y05686D02*
Y05697D01*
X03996Y05685D02*
X03997Y05686D01*
X04506Y06195D02*
X04511Y062D01*
X03542Y05231D02*
X03996Y05685D01*
X0459Y06142D02*
X04617Y06169D01*
X0459Y06132D02*
Y06142D01*
Y06132D02*
X04594Y06128D01*
Y06118D02*
Y06128D01*
X04587Y06111D02*
X04594Y06118D01*
X04577Y06111D02*
X04587D01*
X04565Y06122D02*
X04577Y06111D01*
X04555Y06122D02*
X04565D01*
X04548Y06116D02*
X04555Y06122D01*
X04548Y06105D02*
Y06116D01*
Y06105D02*
X0456Y06094D01*
Y06084D02*
Y06094D01*
X04553Y06077D02*
X0456Y06084D01*
X04543Y06077D02*
X04553D01*
X04525Y06095D02*
X04543Y06077D01*
X04515Y06095D02*
X04525D01*
X04508Y06088D02*
X04515Y06095D01*
X04508Y06078D02*
Y06088D01*
Y06078D02*
X04526Y0606D01*
Y0605D02*
Y0606D01*
X04519Y06043D02*
X04526Y0605D01*
X04509Y06043D02*
X04519D01*
X04491Y06061D02*
X04509Y06043D01*
X04481Y06061D02*
X04491D01*
X04474Y06054D02*
X04481Y06061D01*
X04474Y06044D02*
Y06054D01*
Y06044D02*
X04492Y06026D01*
Y06016D02*
Y06026D01*
X04485Y06009D02*
X04492Y06016D01*
X04475Y06009D02*
X04485D01*
X04457Y06027D02*
X04475Y06009D01*
X04447Y06027D02*
X04457D01*
X0444Y06021D02*
X04447Y06027D01*
X0444Y0601D02*
Y06021D01*
Y0601D02*
X04458Y05992D01*
Y05982D02*
Y05992D01*
X04451Y05975D02*
X04458Y05982D01*
X04441Y05975D02*
X04451D01*
X04423Y05993D02*
X04441Y05975D01*
X04413Y05993D02*
X04423D01*
X04406Y05987D02*
X04413Y05993D01*
X04406Y05976D02*
Y05987D01*
Y05976D02*
X04424Y05958D01*
Y05948D02*
Y05958D01*
X04417Y05941D02*
X04424Y05948D01*
X04407Y05941D02*
X04417D01*
X04389Y05959D02*
X04407Y05941D01*
X04379Y05959D02*
X04389D01*
X04372Y05953D02*
X04379Y05959D01*
X04372Y05942D02*
Y05953D01*
Y05942D02*
X0439Y05924D01*
Y05914D02*
Y05924D01*
X04383Y05907D02*
X0439Y05914D01*
X04373Y05907D02*
X04383D01*
X04355Y05926D02*
X04373Y05907D01*
X04345Y05926D02*
X04355D01*
X04338Y05919D02*
X04345Y05926D01*
X04338Y05909D02*
Y05919D01*
Y05909D02*
X04356Y0589D01*
Y0588D02*
Y0589D01*
X04349Y05873D02*
X04356Y0588D01*
X04339Y05873D02*
X04349D01*
X04321Y05892D02*
X04339Y05873D01*
X04311Y05892D02*
X04321D01*
X04304Y05885D02*
X04311Y05892D01*
X04304Y05875D02*
Y05885D01*
Y05875D02*
X04322Y05857D01*
Y05846D02*
Y05857D01*
X04315Y0584D02*
X04322Y05846D01*
X04305Y0584D02*
X04315D01*
X04287Y05858D02*
X04305Y0584D01*
X04277Y05858D02*
X04287D01*
X0427Y05851D02*
X04277Y05858D01*
X0427Y05841D02*
Y05851D01*
Y05841D02*
X04288Y05823D01*
Y05812D02*
Y05823D01*
X04282Y05806D02*
X04288Y05812D01*
X04271Y05806D02*
X04282D01*
X04253Y05824D02*
X04271Y05806D01*
X04243Y05824D02*
X04253D01*
X04236Y05817D02*
X04243Y05824D01*
X04236Y05807D02*
Y05817D01*
Y05807D02*
X04254Y05789D01*
Y05778D02*
Y05789D01*
X04248Y05772D02*
X04254Y05778D01*
X04237Y05772D02*
X04248D01*
X04219Y0579D02*
X04237Y05772D01*
X04209Y0579D02*
X04219D01*
X04202Y05783D02*
X04209Y0579D01*
X04202Y05773D02*
Y05783D01*
Y05773D02*
X0422Y05755D01*
Y05745D02*
Y05755D01*
X04214Y05738D02*
X0422Y05745D01*
X04203Y05738D02*
X04214D01*
X04185Y05756D02*
X04203Y05738D01*
X04175Y05756D02*
X04185D01*
X04168Y05749D02*
X04175Y05756D01*
X04168Y05739D02*
Y05749D01*
Y05739D02*
X04186Y05721D01*
Y05711D02*
Y05721D01*
X0418Y05704D02*
X04186Y05711D01*
X0417Y05704D02*
X0418D01*
X04151Y05722D02*
X0417Y05704D01*
X04141Y05722D02*
X04151D01*
X04134Y05715D02*
X04141Y05722D01*
X04134Y05705D02*
Y05715D01*
Y05705D02*
X04153Y05687D01*
Y05677D02*
Y05687D01*
X04146Y0567D02*
X04153Y05677D01*
X04136Y0567D02*
X04146D01*
X04117Y05688D02*
X04136Y0567D01*
X04107Y05688D02*
X04117D01*
X04101Y05681D02*
X04107Y05688D01*
X04101Y05671D02*
Y05681D01*
Y05671D02*
X04119Y05653D01*
Y05643D02*
Y05653D01*
X04112Y05636D02*
X04119Y05643D01*
X04102Y05636D02*
X04112D01*
X04084Y05654D02*
X04102Y05636D01*
X04073Y05654D02*
X04084D01*
X04067Y05647D02*
X04073Y05654D01*
X04067Y05637D02*
Y05647D01*
Y05637D02*
X04085Y05619D01*
Y05609D02*
Y05619D01*
X04078Y05602D02*
X04085Y05609D01*
X04068Y05602D02*
X04078D01*
X0405Y0562D02*
X04068Y05602D01*
X04039Y0562D02*
X0405D01*
X04033Y05613D02*
X04039Y0562D01*
X04033Y05603D02*
Y05613D01*
Y05603D02*
X04037Y05599D01*
Y05589D02*
Y05599D01*
X04035Y05588D02*
X04037Y05589D01*
X04617Y06169D02*
X04657Y06209D01*
X03656Y05209D02*
X04035Y05588D01*
X03604Y05164D02*
X03648Y05209D01*
X03604Y05156D02*
Y05164D01*
X0366Y05197D02*
Y05203D01*
X03708Y0525*
X03757*
X03333Y04885D02*
X03604Y05156D01*
X04657Y06209D02*
Y06229D01*
X03648Y05209D02*
X03656D01*
X03317Y04885D02*
X03333D01*
X03722Y05179D02*
Y05192D01*
X03924Y05394*
X04665Y06159D02*
Y06186D01*
X03757Y0525D02*
X04665Y06159D01*
X03924Y05394D02*
Y05395D01*
X04629Y061D02*
X04787Y06258D01*
X04614Y06085D02*
X04629Y061D01*
X04614Y06075D02*
Y06085D01*
Y06075D02*
X04632Y06057D01*
Y06047D02*
Y06057D01*
X04626Y0604D02*
X04632Y06047D01*
X04615Y0604D02*
X04626D01*
X04597Y06058D02*
X04615Y0604D01*
X04587Y06058D02*
X04597D01*
X0458Y06051D02*
X04587Y06058D01*
X0458Y06041D02*
Y06051D01*
Y06041D02*
X04598Y06023D01*
Y06013D02*
Y06023D01*
X04592Y06006D02*
X04598Y06013D01*
X04581Y06006D02*
X04592D01*
X04563Y06024D02*
X04581Y06006D01*
X04553Y06024D02*
X04563D01*
X04546Y06018D02*
X04553Y06024D01*
X04546Y06007D02*
Y06018D01*
Y06007D02*
X04564Y05989D01*
Y05979D02*
Y05989D01*
X04558Y05972D02*
X04564Y05979D01*
X04548Y05972D02*
X04558D01*
X04529Y0599D02*
X04548Y05972D01*
X04519Y0599D02*
X04529D01*
X04512Y05984D02*
X04519Y0599D01*
X04512Y05973D02*
Y05984D01*
Y05973D02*
X04531Y05955D01*
Y05945D02*
Y05955D01*
X04524Y05938D02*
X04531Y05945D01*
X04514Y05938D02*
X04524D01*
X04495Y05956D02*
X04514Y05938D01*
X04485Y05956D02*
X04495D01*
X04478Y0595D02*
X04485Y05956D01*
X04478Y05939D02*
Y0595D01*
Y05939D02*
X04497Y05921D01*
Y05911D02*
Y05921D01*
X0449Y05904D02*
X04497Y05911D01*
X0448Y05904D02*
X0449D01*
X04462Y05922D02*
X0448Y05904D01*
X04451Y05922D02*
X04462D01*
X04445Y05916D02*
X04451Y05922D01*
X04445Y05906D02*
Y05916D01*
Y05906D02*
X04463Y05887D01*
Y05877D02*
Y05887D01*
X04456Y0587D02*
X04463Y05877D01*
X04446Y0587D02*
X04456D01*
X04428Y05889D02*
X04446Y0587D01*
X04417Y05889D02*
X04428D01*
X04411Y05882D02*
X04417Y05889D01*
X04411Y05872D02*
Y05882D01*
Y05872D02*
X04429Y05853D01*
Y05843D02*
Y05853D01*
X04422Y05836D02*
X04429Y05843D01*
X04412Y05836D02*
X04422D01*
X04394Y05855D02*
X04412Y05836D01*
X04383Y05855D02*
X04394D01*
X04377Y05848D02*
X04383Y05855D01*
X04377Y05838D02*
Y05848D01*
Y05838D02*
X04395Y0582D01*
Y05809D02*
Y0582D01*
X04388Y05803D02*
X04395Y05809D01*
X04378Y05803D02*
X04388D01*
X0436Y05821D02*
X04378Y05803D01*
X0435Y05821D02*
X0436D01*
X04343Y05814D02*
X0435Y05821D01*
X04343Y05804D02*
Y05814D01*
Y05804D02*
X04361Y05786D01*
Y05775D02*
Y05786D01*
X04354Y05769D02*
X04361Y05775D01*
X04344Y05769D02*
X04354D01*
X04326Y05787D02*
X04344Y05769D01*
X04316Y05787D02*
X04326D01*
X04309Y0578D02*
X04316Y05787D01*
X04309Y0577D02*
Y0578D01*
Y0577D02*
X04327Y05752D01*
Y05741D02*
Y05752D01*
X0432Y05735D02*
X04327Y05741D01*
X0431Y05735D02*
X0432D01*
X04292Y05753D02*
X0431Y05735D01*
X04282Y05753D02*
X04292D01*
X04275Y05746D02*
X04282Y05753D01*
X04275Y05736D02*
Y05746D01*
Y05736D02*
X04293Y05718D01*
Y05708D02*
Y05718D01*
X04286Y05701D02*
X04293Y05708D01*
X04276Y05701D02*
X04286D01*
X04258Y05719D02*
X04276Y05701D01*
X04248Y05719D02*
X04258D01*
X04241Y05712D02*
X04248Y05719D01*
X04241Y05702D02*
Y05712D01*
Y05702D02*
X04259Y05684D01*
Y05674D02*
Y05684D01*
X04252Y05667D02*
X04259Y05674D01*
X04242Y05667D02*
X04252D01*
X04224Y05685D02*
X04242Y05667D01*
X04214Y05685D02*
X04224D01*
X04207Y05678D02*
X04214Y05685D01*
X04207Y05668D02*
Y05678D01*
Y05668D02*
X04225Y0565D01*
Y0564D02*
Y0565D01*
X04218Y05633D02*
X04225Y0564D01*
X04208Y05633D02*
X04218D01*
X0419Y05651D02*
X04208Y05633D01*
X0418Y05651D02*
X0419D01*
X04173Y05644D02*
X0418Y05651D01*
X04173Y05634D02*
Y05644D01*
Y05634D02*
X04191Y05616D01*
Y05606D02*
Y05616D01*
X04184Y05599D02*
X04191Y05606D01*
X04174Y05599D02*
X04184D01*
X04156Y05617D02*
X04174Y05599D01*
X04146Y05617D02*
X04156D01*
X04139Y0561D02*
X04146Y05617D01*
X04139Y056D02*
Y0561D01*
Y056D02*
X04157Y05582D01*
Y05572D02*
Y05582D01*
X0415Y05565D02*
X04157Y05572D01*
X0414Y05565D02*
X0415D01*
X04122Y05583D02*
X0414Y05565D01*
X04112Y05583D02*
X04122D01*
X04105Y05576D02*
X04112Y05583D01*
X04105Y05566D02*
Y05576D01*
Y05566D02*
X04123Y05548D01*
Y05538D02*
Y05548D01*
X04116Y05531D02*
X04123Y05538D01*
X04106Y05531D02*
X04116D01*
X04088Y05549D02*
X04106Y05531D01*
X04078Y05549D02*
X04088D01*
X04071Y05542D02*
X04078Y05549D01*
X04071Y05532D02*
Y05542D01*
Y05532D02*
X04089Y05514D01*
Y05504D02*
Y05514D01*
X04083Y05497D02*
X04089Y05504D01*
X04072Y05497D02*
X04083D01*
X04054Y05515D02*
X04072Y05497D01*
X04044Y05515D02*
X04054D01*
X04037Y05508D02*
X04044Y05515D01*
X04037Y05498D02*
Y05508D01*
Y05498D02*
X04055Y0548D01*
Y0547D02*
Y0548D01*
X04049Y05463D02*
X04055Y0547D01*
X04038Y05463D02*
X04049D01*
X0402Y05481D02*
X04038Y05463D01*
X0401Y05481D02*
X0402D01*
X04003Y05474D02*
X0401Y05481D01*
X04003Y05464D02*
Y05474D01*
Y05464D02*
X04021Y05446D01*
Y05436D02*
Y05446D01*
X04015Y05429D02*
X04021Y05436D01*
X04004Y05429D02*
X04015D01*
X03986Y05447D02*
X04004Y05429D01*
X03976Y05447D02*
X03986D01*
X03969Y05441D02*
X03976Y05447D01*
X03969Y0543D02*
Y05441D01*
Y0543D02*
X03987Y05412D01*
Y05402D02*
Y05412D01*
X03981Y05395D02*
X03987Y05402D01*
X03971Y05395D02*
X03981D01*
X03952Y05413D02*
X03971Y05395D01*
X03942Y05413D02*
X03952D01*
X03924Y05395D02*
X03942Y05413D01*
X03405Y04774D02*
X0341Y04779D01*
X03406Y04761D02*
Y04766D01*
X03405Y04767D02*
X03406Y04766D01*
X03137Y04758D02*
X03403D01*
X0341Y04779D02*
X03424D01*
X04669Y06024D02*
Y06116D01*
X0347Y04815D02*
X03516D01*
X03405Y04767D02*
Y04774D01*
X03406Y04751D02*
X0347Y04815D01*
X03329Y04751D02*
X03406D01*
X03403Y04758D02*
X03406Y04761D01*
X04943Y06243D02*
X04945Y06245D01*
X03516Y04815D02*
X04943Y06242D01*
X04945Y06245D02*
Y06246D01*
X04943Y06242D02*
Y06243D01*
X04342Y05546D02*
Y05589D01*
X04958Y06204D02*
X04987D01*
X05073Y06251D02*
Y06278D01*
X04509Y05676D02*
Y05686D01*
X03542Y05197D02*
Y05231D01*
X03451Y05113D02*
X03459D01*
X03319Y04974D02*
Y04981D01*
X03454Y05106D02*
X03461D01*
X03459Y05113D02*
X03542Y05197D01*
X03461Y05106D02*
X03549Y05194D01*
Y05201*
X04519Y06171D02*
X04565D01*
X03336Y04988D02*
X03454Y05106D01*
X03171Y04916D02*
X03262D01*
X03336Y0497D02*
Y04988D01*
X03319Y04981D02*
X03451Y05113D01*
X03262Y04916D02*
X03319Y04974D01*
X04511Y062D02*
X04576D01*
X03503Y05236D02*
Y05242D01*
X04503Y06241D02*
X04583D01*
X03256Y04995D02*
X03453Y05192D01*
X03459D02*
X03503Y05236D01*
X03453Y05192D02*
X03459D01*
X03189Y04995D02*
X03256D01*
X03464Y05236D02*
Y05262D01*
X03321Y04946D02*
X03335D01*
X04517Y06127D02*
X0455D01*
X04649Y06226*
X04565Y06171D02*
X04591Y06197D01*
X04576Y062D02*
X04735Y06359D01*
X03088Y04833D02*
X03297D01*
X03234Y04849D02*
X03284D01*
X03297Y04833D02*
X0366Y05197D01*
X03287Y04852D02*
Y04855D01*
X03284Y04849D02*
X03287Y04852D01*
Y04855D02*
X03317Y04885D01*
X04753Y06274D02*
Y06315D01*
X04665Y06186D02*
X04753Y06274D01*
X04735Y06187D02*
X04838Y0629D01*
Y06306*
X04735Y06182D02*
Y06187D01*
X04838Y06306D02*
X04881Y06349D01*
X04669Y06116D02*
X04735Y06182D01*
X04787Y06258D02*
Y06299D01*
X04891Y06349D02*
X04945Y06403D01*
X04881Y06349D02*
X04891D01*
X03539Y04744D02*
X03746Y04952D01*
X03332Y04744D02*
X03539D01*
X03314Y04736D02*
X03329Y04751D01*
X033Y04712D02*
X03332Y04744D01*
X04649Y06231D02*
X04759Y06341D01*
X04657Y06229D02*
X04872Y06444D01*
X03319Y04953D02*
X03336Y0497D01*
X03274Y04909D02*
X03318Y04953D01*
X03277Y04902D02*
X03321Y04946D01*
X04872Y06444D02*
X04893D01*
X04649Y06226D02*
Y06231D01*
X03318Y04953D02*
X03319D01*
X03231Y04909D02*
X03274D01*
X03236Y04902D02*
X03277D01*
X04583Y06241D02*
X04651Y06309D01*
X0307Y04857D02*
Y04872D01*
Y04842D02*
Y04857D01*
X03476Y04933D02*
X03722Y05179D01*
X03412Y04933D02*
X03476D01*
X03277Y04798D02*
X03412Y04933D01*
X03219Y04885D02*
X03236Y04902D01*
X03061Y04806D02*
X03088Y04833D01*
X04735Y06359D02*
Y06359D01*
X04672Y06278D02*
X04742Y06348D01*
X04597Y06197D02*
X04672Y06271D01*
X04591Y06197D02*
X04597D01*
X0487Y0648D02*
X04946D01*
X04672Y06271D02*
Y06278D01*
X04742Y06348D02*
Y06351D01*
X0487Y0648*
X03179Y04846D02*
X03205D01*
X03213Y04854*
X04759Y06341D02*
Y06356D01*
X04735Y06359D02*
X04752Y06376D01*
Y06394*
X04151Y06456D02*
X04183Y06488D01*
X04141Y06456D02*
X04151D01*
X04137Y0646D02*
X04141Y06456D01*
X04127Y0646D02*
X04137D01*
X0412Y06453D02*
X04127Y0646D01*
X0412Y06443D02*
Y06453D01*
Y06443D02*
X04138Y06425D01*
Y06415D02*
Y06425D01*
X04131Y06408D02*
X04138Y06415D01*
X04121Y06408D02*
X04131D01*
X04103Y06426D02*
X04121Y06408D01*
X04093Y06426D02*
X04103D01*
X04086Y06419D02*
X04093Y06426D01*
X04086Y06409D02*
Y06419D01*
Y06409D02*
X04104Y06391D01*
Y06381D02*
Y06391D01*
X04097Y06374D02*
X04104Y06381D01*
X04087Y06374D02*
X04097D01*
X04069Y06392D02*
X04087Y06374D01*
X04059Y06392D02*
X04069D01*
X04052Y06386D02*
X04059Y06392D01*
X04052Y06375D02*
Y06386D01*
Y06375D02*
X0407Y06357D01*
Y06347D02*
Y06357D01*
X04063Y0634D02*
X0407Y06347D01*
X04053Y0634D02*
X04063D01*
X04035Y06358D02*
X04053Y0634D01*
X04025Y06358D02*
X04035D01*
X04018Y06352D02*
X04025Y06358D01*
X04018Y06341D02*
Y06352D01*
Y06341D02*
X04036Y06323D01*
Y06313D02*
Y06323D01*
X04029Y06306D02*
X04036Y06313D01*
X04019Y06306D02*
X04029D01*
X04001Y06324D02*
X04019Y06306D01*
X03991Y06324D02*
X04001D01*
X03984Y06318D02*
X03991Y06324D01*
X03984Y06307D02*
Y06318D01*
Y06307D02*
X03988Y06303D01*
Y06293D02*
Y06303D01*
X03987Y06292D02*
X03988Y06293D01*
X04183Y06488D02*
X04366Y06671D01*
X03185Y0549D02*
X03987Y06292D01*
X04378Y06632D02*
X04392Y06646D01*
X04368Y06632D02*
X04378D01*
X04364Y06636D02*
X04368Y06632D01*
X04354Y06636D02*
X04364D01*
X04347Y06629D02*
X04354Y06636D01*
X04347Y06619D02*
Y06629D01*
Y06619D02*
X04365Y06601D01*
Y06591D02*
Y06601D01*
X04358Y06584D02*
X04365Y06591D01*
X04348Y06584D02*
X04358D01*
X0433Y06602D02*
X04348Y06584D01*
X0432Y06602D02*
X0433D01*
X04313Y06595D02*
X0432Y06602D01*
X04313Y06585D02*
Y06595D01*
Y06585D02*
X04331Y06567D01*
Y06557D02*
Y06567D01*
X04324Y0655D02*
X04331Y06557D01*
X04314Y0655D02*
X04324D01*
X04296Y06568D02*
X04314Y0655D01*
X04286Y06568D02*
X04296D01*
X04279Y06561D02*
X04286Y06568D01*
X04279Y06551D02*
Y06561D01*
Y06551D02*
X04297Y06533D01*
Y06523D02*
Y06533D01*
X0429Y06516D02*
X04297Y06523D01*
X0428Y06516D02*
X0429D01*
X04262Y06534D02*
X0428Y06516D01*
X04252Y06534D02*
X04262D01*
X04245Y06528D02*
X04252Y06534D01*
X04245Y06517D02*
Y06528D01*
Y06517D02*
X04263Y06499D01*
Y06489D02*
Y06499D01*
X04257Y06482D02*
X04263Y06489D01*
X04246Y06482D02*
X04257D01*
X04228Y065D02*
X04246Y06482D01*
X04218Y065D02*
X04228D01*
X04211Y06494D02*
X04218Y065D01*
X04211Y06483D02*
Y06494D01*
Y06483D02*
X04215Y06479D01*
Y06469D02*
Y06479D01*
X04214Y06468D02*
X04215Y06469D01*
X04392Y06646D02*
X04401Y06655D01*
X02804Y05058D02*
X04214Y06468D01*
X04226Y06411D02*
X04245Y0643D01*
X04215Y06411D02*
X04226D01*
X04214Y06413D02*
X04215Y06411D01*
X04204Y06413D02*
X04214D01*
X04197Y06406D02*
X04204Y06413D01*
X04197Y06396D02*
Y06406D01*
Y06396D02*
X04212Y0638D01*
Y0637D02*
Y0638D01*
X04206Y06363D02*
X04212Y0637D01*
X04196Y06363D02*
X04206D01*
X04177Y06381D02*
X04196Y06363D01*
X04167Y06381D02*
X04177D01*
X0416Y06374D02*
X04167Y06381D01*
X0416Y06364D02*
Y06374D01*
Y06364D02*
X04179Y06346D01*
Y06336D02*
Y06346D01*
X04172Y06329D02*
X04179Y06336D01*
X04162Y06329D02*
X04172D01*
X04143Y06347D02*
X04162Y06329D01*
X04133Y06347D02*
X04143D01*
X04127Y0634D02*
X04133Y06347D01*
X04127Y0633D02*
Y0634D01*
Y0633D02*
X04145Y06312D01*
Y06302D02*
Y06312D01*
X04138Y06295D02*
X04145Y06302D01*
X04128Y06295D02*
X04138D01*
X0411Y06313D02*
X04128Y06295D01*
X04099Y06313D02*
X0411D01*
X04093Y06307D02*
X04099Y06313D01*
X04093Y06296D02*
Y06307D01*
Y06296D02*
X04111Y06278D01*
Y06268D02*
Y06278D01*
X04104Y06261D02*
X04111Y06268D01*
X04094Y06261D02*
X04104D01*
X04076Y06279D02*
X04094Y06261D01*
X04065Y06279D02*
X04076D01*
X04059Y06273D02*
X04065Y06279D01*
X04059Y06262D02*
Y06273D01*
Y06262D02*
X04077Y06244D01*
Y06234D02*
Y06244D01*
X0407Y06227D02*
X04077Y06234D01*
X0406Y06227D02*
X0407D01*
X04042Y06245D02*
X0406Y06227D01*
X04031Y06245D02*
X04042D01*
X04025Y06239D02*
X04031Y06245D01*
X04025Y06228D02*
Y06239D01*
Y06228D02*
X04029Y06224D01*
Y06214D02*
Y06224D01*
X04027Y06213D02*
X04029Y06214D01*
X04245Y0643D02*
X04461Y06647D01*
X03168Y05354D02*
X04027Y06213D01*
X04522Y06636D02*
X04526Y0664D01*
X04522Y06626D02*
Y06636D01*
Y06626D02*
X04526Y06622D01*
Y06612D02*
Y06622D01*
X04519Y06605D02*
X04526Y06612D01*
X04509Y06605D02*
X04519D01*
X04491Y06623D02*
X04509Y06605D01*
X04481Y06623D02*
X04491D01*
X04474Y06616D02*
X04481Y06623D01*
X04474Y06606D02*
Y06616D01*
Y06606D02*
X04492Y06588D01*
Y06578D02*
Y06588D01*
X04486Y06571D02*
X04492Y06578D01*
X04475Y06571D02*
X04486D01*
X04457Y06589D02*
X04475Y06571D01*
X04447Y06589D02*
X04457D01*
X0444Y06582D02*
X04447Y06589D01*
X0444Y06572D02*
Y06582D01*
Y06572D02*
X04458Y06554D01*
Y06544D02*
Y06554D01*
X04452Y06537D02*
X04458Y06544D01*
X04441Y06537D02*
X04452D01*
X04423Y06555D02*
X04441Y06537D01*
X04413Y06555D02*
X04423D01*
X04406Y06548D02*
X04413Y06555D01*
X04406Y06538D02*
Y06548D01*
Y06538D02*
X04424Y0652D01*
Y0651D02*
Y0652D01*
X04418Y06503D02*
X04424Y0651D01*
X04407Y06503D02*
X04418D01*
X04389Y06521D02*
X04407Y06503D01*
X04379Y06521D02*
X04389D01*
X04372Y06514D02*
X04379Y06521D01*
X04372Y06504D02*
Y06514D01*
Y06504D02*
X0439Y06486D01*
Y06476D02*
Y06486D01*
X04384Y06469D02*
X0439Y06476D01*
X04374Y06469D02*
X04384D01*
X04355Y06487D02*
X04374Y06469D01*
X04345Y06487D02*
X04355D01*
X04338Y0648D02*
X04345Y06487D01*
X04338Y0647D02*
Y0648D01*
Y0647D02*
X04357Y06452D01*
Y06442D02*
Y06452D01*
X0435Y06435D02*
X04357Y06442D01*
X0434Y06435D02*
X0435D01*
X04321Y06453D02*
X0434Y06435D01*
X04311Y06453D02*
X04321D01*
X04304Y06446D02*
X04311Y06453D01*
X04304Y06436D02*
Y06446D01*
Y06436D02*
X04323Y06418D01*
Y06408D02*
Y06418D01*
X04316Y06401D02*
X04323Y06408D01*
X04306Y06401D02*
X04316D01*
X04288Y06419D02*
X04306Y06401D01*
X04277Y06419D02*
X04288D01*
X04271Y06413D02*
X04277Y06419D01*
X04271Y06402D02*
Y06413D01*
Y06402D02*
X04275Y06398D01*
Y06388D02*
Y06398D01*
X04273Y06387D02*
X04275Y06388D01*
X0334Y05454D02*
X04273Y06387D01*
X04238Y062D02*
X04255Y06217D01*
X04238Y0619D02*
Y062D01*
Y0619D02*
X04241Y06186D01*
Y06176D02*
Y06186D01*
X04235Y06169D02*
X04241Y06176D01*
X04225Y06169D02*
X04235D01*
X04206Y06187D02*
X04225Y06169D01*
X04196Y06187D02*
X04206D01*
X04189Y0618D02*
X04196Y06187D01*
X04189Y0617D02*
Y0618D01*
Y0617D02*
X04208Y06152D01*
Y06142D02*
Y06152D01*
X04201Y06135D02*
X04208Y06142D01*
X04191Y06135D02*
X04201D01*
X04172Y06153D02*
X04191Y06135D01*
X04162Y06153D02*
X04172D01*
X04156Y06146D02*
X04162Y06153D01*
X04156Y06136D02*
Y06146D01*
Y06136D02*
X04174Y06118D01*
Y06108D02*
Y06118D01*
X04167Y06101D02*
X04174Y06108D01*
X04157Y06101D02*
X04167D01*
X04139Y06119D02*
X04157Y06101D01*
X04128Y06119D02*
X04139D01*
X04122Y06112D02*
X04128Y06119D01*
X04122Y06102D02*
Y06112D01*
Y06102D02*
X0414Y06084D01*
Y06074D02*
Y06084D01*
X04133Y06067D02*
X0414Y06074D01*
X04123Y06067D02*
X04133D01*
X04105Y06085D02*
X04123Y06067D01*
X04094Y06085D02*
X04105D01*
X04088Y06078D02*
X04094Y06085D01*
X04088Y06068D02*
Y06078D01*
Y06068D02*
X04106Y0605D01*
Y0604D02*
Y0605D01*
X04099Y06033D02*
X04106Y0604D01*
X04089Y06033D02*
X04099D01*
X04071Y06051D02*
X04089Y06033D01*
X0406Y06051D02*
X04071D01*
X04054Y06045D02*
X0406Y06051D01*
X04054Y06034D02*
Y06045D01*
Y06034D02*
X04072Y06016D01*
Y06006D02*
Y06016D01*
X04065Y05999D02*
X04072Y06006D01*
X04055Y05999D02*
X04065D01*
X04037Y06017D02*
X04055Y05999D01*
X04027Y06017D02*
X04037D01*
X0402Y06011D02*
X04027Y06017D01*
X0402Y06D02*
Y06011D01*
Y06D02*
X04038Y05982D01*
Y05972D02*
Y05982D01*
X04031Y05965D02*
X04038Y05972D01*
X04021Y05965D02*
X04031D01*
X04003Y05983D02*
X04021Y05965D01*
X03993Y05983D02*
X04003D01*
X03986Y05977D02*
X03993Y05983D01*
X03986Y05966D02*
Y05977D01*
Y05966D02*
X04004Y05948D01*
Y05938D02*
Y05948D01*
X03997Y05931D02*
X04004Y05938D01*
X03987Y05931D02*
X03997D01*
X03969Y05949D02*
X03987Y05931D01*
X03959Y05949D02*
X03969D01*
X03952Y05943D02*
X03959Y05949D01*
X03952Y05933D02*
Y05943D01*
Y05933D02*
X0397Y05914D01*
Y05904D02*
Y05914D01*
X03963Y05897D02*
X0397Y05904D01*
X03953Y05897D02*
X03963D01*
X03935Y05916D02*
X03953Y05897D01*
X03925Y05916D02*
X03935D01*
X03918Y05909D02*
X03925Y05916D01*
X03918Y05899D02*
Y05909D01*
Y05899D02*
X03922Y05895D01*
Y05884D02*
Y05895D01*
X0392Y05883D02*
X03922Y05884D01*
X04255Y06217D02*
X04648Y06611D01*
X03308Y0527D02*
X0392Y05883D01*
X04574Y06604D02*
X04581Y06611D01*
X04564Y06604D02*
X04574D01*
X0456Y06608D02*
X04564Y06604D01*
X0455Y06608D02*
X0456D01*
X04543Y06601D02*
X0455Y06608D01*
X04543Y06591D02*
Y06601D01*
Y06591D02*
X04561Y06573D01*
Y06563D02*
Y06573D01*
X04555Y06556D02*
X04561Y06563D01*
X04544Y06556D02*
X04555D01*
X04526Y06574D02*
X04544Y06556D01*
X04516Y06574D02*
X04526D01*
X04509Y06567D02*
X04516Y06574D01*
X04509Y06557D02*
Y06567D01*
Y06557D02*
X04528Y06539D01*
Y06529D02*
Y06539D01*
X04521Y06522D02*
X04528Y06529D01*
X04511Y06522D02*
X04521D01*
X04492Y0654D02*
X04511Y06522D01*
X04482Y0654D02*
X04492D01*
X04475Y06533D02*
X04482Y0654D01*
X04475Y06523D02*
Y06533D01*
Y06523D02*
X04494Y06505D01*
Y06495D02*
Y06505D01*
X04487Y06488D02*
X04494Y06495D01*
X04477Y06488D02*
X04487D01*
X04458Y06506D02*
X04477Y06488D01*
X04448Y06506D02*
X04458D01*
X04442Y06499D02*
X04448Y06506D01*
X04442Y06489D02*
Y06499D01*
Y06489D02*
X0446Y06471D01*
Y06461D02*
Y06471D01*
X04453Y06454D02*
X0446Y06461D01*
X04443Y06454D02*
X04453D01*
X04425Y06472D02*
X04443Y06454D01*
X04414Y06472D02*
X04425D01*
X04408Y06465D02*
X04414Y06472D01*
X04408Y06455D02*
Y06465D01*
Y06455D02*
X04426Y06437D01*
Y06427D02*
Y06437D01*
X04419Y0642D02*
X04426Y06427D01*
X04409Y0642D02*
X04419D01*
X04391Y06438D02*
X04409Y0642D01*
X0438Y06438D02*
X04391D01*
X04374Y06432D02*
X0438Y06438D01*
X04374Y06421D02*
Y06432D01*
Y06421D02*
X04392Y06403D01*
Y06393D02*
Y06403D01*
X04385Y06386D02*
X04392Y06393D01*
X04375Y06386D02*
X04385D01*
X04357Y06404D02*
X04375Y06386D01*
X04346Y06404D02*
X04357D01*
X0434Y06398D02*
X04346Y06404D01*
X0434Y06387D02*
Y06398D01*
Y06387D02*
X04358Y06369D01*
Y06359D02*
Y06369D01*
X04351Y06352D02*
X04358Y06359D01*
X04341Y06352D02*
X04351D01*
X04323Y0637D02*
X04341Y06352D01*
X04313Y0637D02*
X04323D01*
X04306Y06364D02*
X04313Y0637D01*
X04306Y06353D02*
Y06364D01*
Y06353D02*
X04324Y06335D01*
Y06325D02*
Y06335D01*
X04317Y06318D02*
X04324Y06325D01*
X04307Y06318D02*
X04317D01*
X04289Y06336D02*
X04307Y06318D01*
X04279Y06336D02*
X04289D01*
X04272Y0633D02*
X04279Y06336D01*
X04272Y0632D02*
Y0633D01*
Y0632D02*
X0429Y06301D01*
Y06291D02*
Y06301D01*
X04283Y06284D02*
X0429Y06291D01*
X04273Y06284D02*
X04283D01*
X04255Y06303D02*
X04273Y06284D01*
X04245Y06303D02*
X04255D01*
X04238Y06296D02*
X04245Y06303D01*
X04238Y06286D02*
Y06296D01*
Y06286D02*
X04242Y06282D01*
Y06271D02*
Y06282D01*
X0424Y0627D02*
X04242Y06271D01*
X04581Y06611D02*
X04603Y06632D01*
X03717Y05746D02*
X0424Y0627D01*
X03282Y0527D02*
X03308D01*
X04648Y06611D02*
X04854D01*
X0338Y05152D02*
X03464Y05236D01*
X03377Y05152D02*
X0338D01*
X03247Y05062D02*
X03287D01*
X03377Y05152*
X03087Y04879D02*
Y04883D01*
X03048Y0486D02*
Y04863D01*
X03087Y04883D02*
X03098Y04894D01*
X03065Y04877D02*
X03073Y04885D01*
X03098Y04894D02*
X031D01*
X03077Y04869D02*
X03087Y04879D01*
X031Y04894D02*
X03111Y04905D01*
X03077Y04839D02*
Y04869D01*
X0307Y04872D02*
X0308Y04882D01*
X03061Y04877D02*
X03065D01*
X03048Y0486D02*
X03061Y04846D01*
X0308Y04882D02*
Y04886D01*
X03073Y04885D02*
Y04889D01*
X03048Y04863D02*
X03061Y04877D01*
X03073Y04889D02*
X03247Y05062D01*
X0308Y04886D02*
X03189Y04995D01*
X04526Y0664D02*
X04846D01*
X0334Y05413D02*
Y05454D01*
X04461Y06647D02*
X04997D01*
X03168Y05255D02*
Y05354D01*
X02797Y04938D02*
X02797Y04938D01*
X02784Y04612D02*
Y04831D01*
X02797Y04938D02*
Y05061D01*
X0278Y05054D02*
X03009Y05283D01*
X03185Y05449D02*
Y0549D01*
X03009Y05283D02*
Y05393D01*
X02797Y04669D02*
Y04938D01*
X02797Y05061D02*
X03185Y05449D01*
X04401Y06655D02*
X04753D01*
X0278Y04835D02*
Y05054D01*
Y04835D02*
X02784Y04831D01*
X03009Y05393D02*
X04294Y06678D01*
X02804Y04671D02*
Y05058D01*
X04366Y06671D02*
X05026D01*
X04294Y06678D02*
X05076D01*
X05142Y06209D02*
Y06255D01*
X03751Y04815D02*
X03878Y04942D01*
Y04945*
X03712Y04815D02*
X03751D01*
X02784Y04612D02*
X0282Y04577D01*
X05085Y06687D02*
X05134D01*
X05076Y06678D02*
X05085Y06687D01*
X05026Y06671D02*
X05073Y06624D01*
X04762Y06664D02*
X04989D01*
X05038Y06616*
X04997Y06647D02*
X05042Y06601D01*
X02797Y04669D02*
X0282Y04646D01*
Y04603D02*
Y04646D01*
X02804Y04671D02*
X02832Y04643D01*
X02832Y04658D02*
Y04673D01*
X02814Y04691D02*
Y04883D01*
Y04691D02*
X02832Y04673D01*
X02821Y04698D02*
Y04864D01*
X02814Y04883D02*
X02895Y04964D01*
X02821Y04698D02*
X02839Y0468D01*
X02856*
X02895Y04964D02*
Y04983D01*
X03233Y05306D02*
X0334Y05413D01*
X03233Y05275D02*
Y05306D01*
X02895Y04983D02*
X03168Y05255D01*
X04753Y06655D02*
X04762Y06664D01*
X05042Y06601D02*
X05079D01*
X04843Y06632D02*
X0486Y06615D01*
X04846Y0664D02*
X04863Y06622D01*
X04968*
X04997Y06593*
X0486Y06615D02*
X04965D01*
X04603Y06632D02*
X04843D01*
X04965Y06615D02*
X05026Y06554D01*
X05038Y06616D02*
X05075D01*
X05073Y06561D02*
X05089Y06577D01*
Y06602*
X05075Y06616D02*
X05089Y06602D01*
X05079Y06601D02*
X05082Y06599D01*
Y06589D02*
Y06599D01*
X04997Y06593D02*
X05073D01*
X05058Y06565D02*
X05082Y06589D01*
X05058Y06562D02*
Y06565D01*
Y06562D02*
X05066Y06553D01*
X05097*
X05105Y06561*
X05134*
X02821Y04864D02*
X03233Y05275D01*
X02828Y04861D02*
X03714Y05746D01*
X02828Y04755D02*
Y04861D01*
X03714Y05746D02*
X03717D01*
X02842Y04835D02*
X02931Y04924D01*
X03087Y0509D02*
X03112D01*
X02835Y04838D02*
X03087Y0509D01*
X02835Y04777D02*
Y04838D01*
X02842Y04797D02*
Y04835D01*
X0282Y04566D02*
Y04577D01*
Y04566D02*
X02875Y04511D01*
X02896*
X02916Y04491*
X02943*
X02889Y04533D02*
X02903D01*
X0282Y04603D02*
X02889Y04533D01*
X02832Y04626D02*
Y04643D01*
Y04626D02*
X02864Y04593D01*
Y0457D02*
Y04593D01*
X02865Y0461D02*
Y04625D01*
X02832Y04658D02*
X02865Y04625D01*
X02856Y0468D02*
X02926Y0461D01*
X02943*
X02828Y04755D02*
X02865Y04718D01*
Y04688D02*
Y04718D01*
X05026Y06546D02*
Y06554D01*
Y06546D02*
X05073Y06498D01*
X04882Y06584D02*
X04975D01*
X05072Y06487*
X04854Y06611D02*
X04882Y06584D01*
X02849Y048D02*
X02866Y04782D01*
X02856Y04803D02*
X02869Y04789D01*
X02976Y04673D02*
X03491D01*
X02873Y04775D02*
X02976Y04673D01*
X02864Y04775D02*
X02873D01*
X02856Y04803D02*
Y0481D01*
X03112Y0509D02*
X03174Y05152D01*
X02835Y04777D02*
X02865Y04748D01*
X03248Y05221D02*
Y05236D01*
X03196Y0517D02*
X03248Y05221D01*
X02842Y04797D02*
X02864Y04775D01*
X02849Y048D02*
Y04813D01*
X03174Y05152D02*
X03183D01*
X03196Y05166D02*
Y0517D01*
X02849Y04813D02*
X03173Y05137D01*
X02856Y0481D02*
X03176Y0513D01*
X03183Y05152D02*
X03196Y05166D01*
X03248Y05236D02*
X03282Y0527D01*
X02931Y04924D02*
X02943D01*
X04987Y06507D02*
X05073Y06421D01*
X05123Y06487D02*
X05134Y06498D01*
X05072Y06487D02*
X05123D01*
X02865Y0473D02*
Y04748D01*
X02864Y04757D02*
X02956Y04666D01*
X02864Y04757D02*
Y04767D01*
X02956Y04666D02*
X03563D01*
X029Y04815D02*
X02947D01*
X02991Y04771*
X02892Y04806D02*
X029Y04815D01*
X03563Y04666D02*
X03712Y04815D01*
X05134Y06264D02*
X05142Y06255D01*
X05134Y06264D02*
Y06277D01*
X03491Y04673D02*
X03554Y04736D01*
X03594*
X03776Y04919*
Y04952*
X03937Y05112*
X03945*
X04509Y05676*
X03057Y0468D02*
X03198D01*
X03231Y04712*
X02991Y04746D02*
X03057Y0468D01*
X0514Y06453D02*
X05177D01*
X05108Y06421D02*
X0514Y06453D01*
X05073Y06404D02*
X05115D01*
X05154Y06443D02*
X05169D01*
X05115Y06404D02*
X05154Y06443D01*
X05073Y06421D02*
X05108D01*
X05177Y06453D02*
X05181Y0645D01*
Y06404D02*
Y0645D01*
X05169Y06443D02*
X05174Y06438D01*
X05121Y0639D02*
X05165Y06435D01*
X05174Y06425D02*
Y06438D01*
X05128Y0638D02*
X05174Y06425D01*
X03746Y04952D02*
X03748D01*
X03231Y04712D02*
X033D01*
X02991Y04746D02*
Y04771D01*
X03255Y04736D02*
X03314D01*
X02865Y04806D02*
X02892D01*
X03748Y04952D02*
X04342Y05546D01*
X04987Y06204D02*
X0507Y06286D01*
X05093D02*
X05106Y06299D01*
X0507Y06286D02*
X05093D01*
X04924Y06443D02*
X05066Y06301D01*
X05097*
X05105Y06309D02*
X05134D01*
X05097Y06301D02*
X05105Y06309D01*
X05106Y06299D02*
X05136D01*
X05134Y06327D02*
Y0634D01*
Y06327D02*
X05142Y06318D01*
Y06305D02*
Y06318D01*
X05136Y06299D02*
X05142Y06305D01*
X0305Y04837D02*
X03065D01*
X03033Y04854D02*
X0305Y04837D01*
X03013Y04849D02*
X03018Y04854D01*
X03053Y04815D02*
X03077Y04839D01*
X03053Y04803D02*
Y04815D01*
X03065Y04837D02*
X0307Y04842D01*
X03018Y04854D02*
X03033D01*
X03058Y04798D02*
X03073D01*
X03013Y04815D02*
X03022Y04806D01*
X03013Y04815D02*
Y04849D01*
X04752Y06394D02*
X04847Y0649D01*
X04969D02*
X05026Y06433D01*
X04847Y0649D02*
X04969D01*
X05073Y06332D02*
X05077D01*
X05116Y06339D02*
X05181Y06404D01*
X0507Y06325D02*
X05079D01*
X05128Y06374*
X05073Y06309D02*
X05103Y06339D01*
X05116*
X05128Y06374D02*
Y0638D01*
X05121Y06376D02*
Y0639D01*
X05026Y06391D02*
X05075Y06343D01*
X05077Y06332D02*
X05121Y06376D01*
X04927Y06468D02*
X0507Y06325D01*
X05019Y06386D02*
X05073Y06332D01*
X02958Y04844D02*
X03083Y04719D01*
X02958Y049D02*
X02983Y04924D01*
X02958Y04844D02*
Y049D01*
X03083Y04719D02*
X03238D01*
X03229Y04854D02*
X03234Y04849D01*
X03213Y04854D02*
X03229D01*
X04753Y06315D02*
X04847Y06409D01*
X04893Y06444D02*
X04893Y06443D01*
X04759Y06356D02*
X04838Y06435D01*
X04845*
X04878Y06468*
X04927*
X04893Y06443D02*
X04924D01*
X05019Y06386D02*
Y06407D01*
X05026Y06391D02*
Y06433D01*
X04946Y0648D02*
X05019Y06407D01*
X04858Y06409D02*
X04884Y06435D01*
X03207Y04885D02*
X03231Y04909D01*
X03179Y04885D02*
X03207D01*
X0314D02*
X03171Y04916D01*
X04847Y06409D02*
X04858D01*
X03238Y04719D02*
X03255Y04736D01*
X03078Y04803D02*
X03092D01*
X03073Y04798D02*
X03078Y04803D01*
X03053D02*
X03058Y04798D01*
X03101Y04806D02*
X03109Y04798D01*
X03092Y04803D02*
X03137Y04758D01*
X03109Y04798D02*
X03181D01*
X04651Y06309D02*
Y06311D01*
X0483Y0649*
Y06491*
X03238Y04814D02*
X03254Y04798D01*
X03277*
X03197Y04814D02*
X03238D01*
X03181Y04798D02*
X03197Y04814D01*
X04787Y06299D02*
X0483Y06342D01*
G54D197*
X04551Y04964D03*
X04343Y04029D03*
X02347Y04963D03*
X00238Y00225D03*
X05462Y00289D03*
X0551Y10381D03*
X00267Y10413D03*
G54D198*
X02081Y0546D03*
X02039D03*
X01996D03*
X02081Y05502D03*
X02039D03*
X01996D03*
X02081Y05544D03*
X02039D03*
X01996D03*
G54D199*
X00601Y0116D03*
X00701Y0106D03*
X00501D03*
Y0126D03*
X00701D03*
X00601Y0076D03*
X00701Y0066D03*
X00501D03*
Y0086D03*
X00701D03*
X00715Y03236D03*
X00515D03*
Y03036D03*
X00715D03*
X00615Y03136D03*
X00715Y03676D03*
X00515D03*
Y03476D03*
X00715D03*
X00615Y03576D03*
G54D200*
X00267Y06726D03*
Y06923D03*
Y0712D03*
G54D201*
X00267Y07317D03*
G54D202*
X00327Y0995D03*
Y09476D03*
X00628Y08343D03*
Y08508D03*
X00844Y08178D03*
Y08343D03*
Y08508D03*
G54D203*
X00221Y09664D03*
Y09762D03*
X00142Y09664D03*
Y09762D03*
G54D204*
X00307Y05256D03*
Y05756D03*
G54D205*
X00407Y05366D03*
G54D206*
X00407Y05446D03*
Y05526D03*
Y05606D03*
X00477Y05406D03*
Y05486D03*
Y05566D03*
Y05646D03*
X00667Y05236D03*
Y05686D03*
Y05776D03*
Y05326D03*
G54D207*
X00628Y08178D03*
G54D208*
X02943Y04767D03*
X02901Y04769D03*
X05074Y06467D03*
X04983Y06532D03*
X04827Y06529D03*
X04884Y0653D03*
X04581Y06469D03*
X04594Y06518D03*
X03345Y05269D03*
X03411Y05284D03*
X03333Y05204D03*
X03299Y05199D03*
X03338Y05238D03*
X037Y05231D03*
X04655Y06161D03*
X04624Y0613D03*
X03843Y05324D03*
X03443Y04819D03*
X03413Y0477D03*
X04834Y06117D03*
X03412Y05086D03*
X03373Y05046D03*
X03634Y05297D03*
X03413Y05163D03*
X04602Y06412D03*
X03481Y05292D03*
X04663Y06449D03*
X04601Y0645D03*
X03542Y0539D03*
X03561Y0541D03*
X03368Y04933D03*
X03525Y05091D03*
X03565Y0513D03*
X03328Y04894D03*
X03295Y04851D03*
X04743Y06252D03*
X04657Y06188D03*
X04661Y0612D03*
X04744Y06232D03*
X03374Y0477D03*
X03413Y04809D03*
X03452Y04848D03*
X03807Y05203D03*
X03728Y05124D03*
X03492Y04888D03*
X03659Y04997D03*
X03802Y05129D03*
X03915Y05253D03*
X03458Y04764D03*
X03728Y05045D03*
X039Y05317D03*
X03416Y04846D03*
X03455Y04885D03*
X03573Y05003D03*
X03337Y04768D03*
X03905Y05329D03*
X03376Y04806D03*
X04743Y06155D03*
X04744Y06121D03*
X04743Y06179D03*
X04572Y06161D03*
X03304Y04918D03*
X03285Y04898D03*
X03324Y04937D03*
X03245Y04859D03*
X03229Y04842D03*
X03527Y0501D03*
X03684Y05168D03*
X03488Y04972D03*
X03645Y05129D03*
X03369Y04853D03*
X03408Y04892D03*
X04666Y06226D03*
X0457Y06233D03*
X04838Y06196D03*
X0346Y0492D03*
X04596Y06208D03*
X04647Y06284D03*
X03254Y0489D03*
X03179Y04846D03*
X03258Y04924D03*
X046Y06278D03*
X03219Y04885D03*
X0483Y0627D03*
X0457Y06278D03*
X03515Y05493D03*
X03248Y05171D03*
X04571Y06402D03*
X03337Y0513D03*
X03293Y05087D03*
X03513Y05458D03*
X03218Y05162D03*
X03296Y05241D03*
X03335Y05163D03*
X03111Y04905D03*
X03102Y04885D03*
X03061Y04885D03*
X03589Y05417D03*
X03254Y05047D03*
X03171Y05003D03*
X03258Y05113D03*
X03219Y05082D03*
X03459Y05544D03*
X04543Y06624D03*
X03457Y05631D03*
X03435Y05607D03*
X03176Y05316D03*
X03452Y05584D03*
X03432Y05698D03*
X03285Y05527D03*
X03251Y05493D03*
X02789Y04942D03*
X03001Y05287D03*
X03099Y05283D03*
X02904Y05043D03*
X02983Y05121D03*
X03448Y05727D03*
X0345Y05673D03*
X03217Y05436D03*
X03417Y05781D03*
X03419Y05819D03*
X03395Y05801D03*
X03396Y05842D03*
X03419Y0586D03*
X02865Y05318D03*
X02901Y05203D03*
X02943Y05279D03*
X02983Y052D03*
X04017Y05115D03*
X03887Y0494D03*
X04031Y05084D03*
X0381Y04806D03*
X03796Y04741D03*
X04022Y04929D03*
X04042Y04949D03*
X03818Y0464D03*
X03723Y04578D03*
X03928Y04739D03*
X03952Y04719D03*
X03653Y04649D03*
X03613Y04609D03*
X03809Y0457D03*
X03941Y0512D03*
X04945Y06687D03*
X04976D03*
X03435Y0551D03*
X03227Y05312D03*
X03187Y05272D03*
X04945Y06655D03*
X04884Y06631D03*
X04945D03*
X05073Y06593D03*
X04977Y06625D03*
X04624Y06624D03*
X04976Y06561D03*
X03294Y05282D03*
X03334Y05321D03*
X03239Y05227D03*
X03216Y05203D03*
X04569Y06514D03*
X04744Y06527D03*
X04884Y06561D03*
X05073Y06498D03*
X02865Y04491D03*
Y04452D03*
X03219D03*
X03731Y0461D03*
X02865Y04688D03*
X02943Y04806D03*
X02983Y04846D03*
X03021Y04886D03*
X03809Y04885D03*
X02864Y04767D03*
X039Y05002D03*
X02904Y04885D03*
X0466Y06491D03*
X05165Y06435D03*
X05134Y06466D03*
X05073Y06435D03*
X05134Y06435D03*
X02983Y04767D03*
X03691Y04924D03*
X05134Y06309D03*
X0314Y05004D03*
X03022Y04806D03*
X0466Y06379D03*
X04744Y06452D03*
X05075Y06343D03*
X02983Y04806D03*
X04749Y06343D03*
X04745Y06305D03*
X0483Y06415D03*
Y06451D03*
X04976Y06403D03*
X04945Y06435D03*
X04976Y06466D03*
Y06435D03*
X04945Y06466D03*
Y06498D03*
Y06403D03*
X03328Y04974D03*
X05136Y06371D03*
X04884Y06435D03*
X0483Y0638D03*
X03573Y05279D03*
X03259Y04964D03*
X03219Y04924D03*
X03494Y052D03*
X03657Y04447D03*
X03494Y0457D03*
X0521Y06275D03*
X03731Y04806D03*
X03652Y04728D03*
X03455Y04531D03*
X05165Y06246D03*
Y06687D03*
X0507Y06152D03*
X04976Y0634D03*
Y06372D03*
Y06309D03*
X05073Y06404D03*
Y06309D03*
Y06561D03*
Y06624D03*
Y0653D03*
X05134Y0634D03*
X0521Y06203D03*
Y06493D03*
X05165Y06498D03*
X05134Y06529D03*
X05315Y07036D03*
X05303Y0716D03*
X02865Y04806D03*
Y0473D03*
X02863Y04649D03*
X04884Y06719D03*
X04976Y06718D03*
X02864Y0457D03*
X02865Y0461D03*
X03176Y05955D03*
X02943Y04491D03*
X04011Y05227D03*
X03805Y04968D03*
X0353Y04693D03*
X02983Y0461D03*
X02943D03*
X03918Y05055D03*
X04976Y06498D03*
X0318Y04648D03*
X02944Y04649D03*
X02903Y04688D03*
X04833Y06155D03*
X04977Y06276D03*
X04945Y06309D03*
X04884Y06309D03*
X04945Y06277D03*
X04884Y06246D03*
X03061Y04806D03*
X03101D03*
X03061Y04846D03*
X0314Y04885D03*
X03336Y04807D03*
X03298Y04806D03*
X03219Y04805D03*
X03376Y04885D03*
X03178Y04807D03*
X0314Y04806D03*
X03298Y04768D03*
X04885Y06273D03*
X0483Y06217D03*
X04884Y06372D03*
Y06341D03*
X04976Y06246D03*
X02748Y05209D03*
X03043Y05955D03*
X02943Y04846D03*
X0466Y06306D03*
X03249Y07541D03*
X0326Y07557D03*
X03248Y07569D03*
X03061Y07427D03*
X03073Y07412D03*
X02863Y07439D03*
X0287Y07426D03*
X02831Y07312D03*
X02822Y07321D03*
X0275Y07312D03*
X02741Y07321D03*
X02962Y07371D03*
X02947Y07383D03*
X02903Y07369D03*
X02889Y07383D03*
X02802Y07393D03*
X02791Y07376D03*
X02743Y07393D03*
X02731Y07376D03*
X02604Y07378D03*
X02616Y07396D03*
X02598Y07423D03*
X02605Y07443D03*
X02788Y07323D03*
X02797Y07311D03*
X02706Y07321D03*
X02715Y07312D03*
X03016Y07429D03*
X03036Y07417D03*
X03027Y07408D03*
X02988Y07427D03*
X02981Y07443D03*
X02929Y07426D03*
X02921Y07438D03*
X02771Y07426D03*
X02764Y07441D03*
X02713Y07426D03*
X02705Y07439D03*
X02447Y07647D03*
X02433Y07666D03*
X02633Y07647D03*
X02647Y07639D03*
X02647Y0758D03*
X02633Y07588D03*
X02522Y07881D03*
X02376Y07891D03*
X03473Y07627D03*
X03484Y07586D03*
X03511Y07627D03*
X03518Y07587D03*
X0371Y07749D03*
X03724Y07776D03*
X03595Y06989D03*
X03584Y07003D03*
X0363Y06875D03*
X03646Y06861D03*
X04068Y07032D03*
X04081Y0699D03*
X04112Y06796D03*
X041Y06807D03*
X04114Y0689D03*
X04101Y06905D03*
X04017Y07049D03*
X04035Y07032D03*
X0401Y0701D03*
X04034Y06989D03*
X04017Y06968D03*
X0399Y06953D03*
X04005Y06934D03*
X01817Y09403D03*
X01834Y09419D03*
X021Y09379D03*
X02143Y09379D03*
X02904Y09678D03*
X02945Y09651D03*
X02301Y09379D03*
X02257Y09379D03*
X02921Y09725D03*
X02949Y09766D03*
X01952Y10127D03*
X01871D03*
X01909Y10142D03*
X0205Y10097D03*
X0207Y10084D03*
X01487Y0995D03*
X01484Y09773D03*
X01482Y09825D03*
X01487Y09878D03*
X01595Y09921D03*
X01637Y09907D03*
X01594Y09956D03*
X01637Y09969D03*
X01872Y10089D03*
X01909Y10113D03*
X01936Y10073D03*
X01954Y10088D03*
X01981Y09999D03*
X02001Y09986D03*
X00566Y09239D03*
Y09276D03*
X01343Y07191D03*
X01275Y0761D03*
X01385Y07407D03*
X03469Y04122D03*
X03485Y04156D03*
X03496Y04175D03*
X03469Y04176D03*
X03497Y04266D03*
X03473Y04266D03*
X0317Y04171D03*
X03127Y0417D03*
X03169Y04126D03*
X03157Y0414D03*
X03145Y04125D03*
X03132Y0414D03*
X03119Y04125D03*
X03178Y04269D03*
X03169Y0426D03*
X03123Y0427D03*
X03134Y04258D03*
X03148Y04275D03*
X03398Y04288D03*
X03311D03*
X05487Y07D03*
X05465Y06994D03*
X02331Y00714D03*
X02314Y00718D03*
X0232Y00637D03*
X02309Y00675D03*
X02306Y00737D03*
X02272Y0072D03*
X02263Y00737D03*
X02323Y0111D03*
X02309Y01083D03*
X02299Y0111D03*
X0227Y01094D03*
X0226Y01082D03*
X04016Y01891D03*
X03999Y01909D03*
X03054Y01662D03*
X03036Y01685D03*
X03164Y01805D03*
X03141Y01783D03*
X02601D03*
X02624Y01805D03*
X02496Y01685D03*
X02514Y01662D03*
X02156Y03371D03*
X0213Y03432D03*
X02133Y03531D03*
X01923Y03692D03*
X01972Y03693D03*
X02021Y03692D03*
X02091Y03693D03*
X02123Y03667D03*
X0218Y03608D03*
X02172Y06077D03*
X02129Y06077D03*
X02139Y0663D03*
X02185Y06562D03*
X02078Y06904D03*
X02031Y06972D03*
X00953Y06689D03*
X00901Y06664D03*
X00845Y06692D03*
X00648Y06589D03*
X00676Y06549D03*
X0065Y06505D03*
X01787Y08482D03*
X01831Y08428D03*
X01641Y08573D03*
X01673Y08466D03*
X01642Y08356D03*
X01639Y08149D03*
X01671Y08062D03*
X01636Y08003D03*
X0175Y08777D03*
X01517Y08777D03*
X01729Y08727D03*
X01691Y08769D03*
X01636Y08726D03*
X01579Y08771D03*
X0154Y08729D03*
X0141Y08768D03*
X01362Y08711D03*
X01474Y06789D03*
X01501Y06763D03*
X01472Y06739D03*
X01375Y0673D03*
X01349Y06702D03*
X01325Y06731D03*
X01395Y06871D03*
X01573Y06875D03*
X0124D03*
X00852Y06445D03*
X00828Y06474D03*
X00802Y06446D03*
X01183Y06445D03*
X01159Y06474D03*
X01133Y06446D03*
X01102Y02218D03*
X01038Y02171D03*
X00988Y02228D03*
X00931Y0217D03*
X00874Y02243D03*
X00847Y02198D03*
X02371Y03655D03*
X02347Y03637D03*
X02199Y03666D03*
X02229Y03638D03*
X0251Y04084D03*
X02537Y04058D03*
X02508Y04034D03*
X03091Y03781D03*
X03155Y03738D03*
X03093Y03698D03*
X03153Y03666D03*
X03336Y03697D03*
X03309Y03679D03*
X02862Y03592D03*
X02891Y03616D03*
X02863Y03642D03*
X033Y03809D03*
X03327Y03783D03*
X03298Y03759D03*
X03923Y03171D03*
X0395Y03145D03*
X03922Y03122D03*
X04178Y03381D03*
X04129Y03395D03*
X04152Y03366D03*
X04152Y03439D03*
X04167Y03422D03*
X03888Y03547D03*
X03879Y03492D03*
X03838Y03571D03*
X04172Y03505D03*
X04202Y0349D03*
X04173Y03461D03*
X04245Y03428D03*
X04012Y04465D03*
X03921Y04492D03*
X03907Y0446D03*
X02721Y03081D03*
X02752Y03119D03*
X02773Y0316D03*
X02754Y03043D03*
X02808Y03067D03*
X02369Y03305D03*
X02346Y03323D03*
X02218Y03326D03*
X02172Y03276D03*
X0214Y03291D03*
X02624Y0113D03*
X02606Y01172D03*
X02658Y01166D03*
X02643Y01177D03*
X02672Y00941D03*
X02705Y00961D03*
X02664Y00961D03*
X02419Y00712D03*
X02695Y00669D03*
X02721Y00682D03*
X02663Y00651D03*
X02611Y00711D03*
X02593Y00679D03*
X02648Y00714D03*
X02668Y00731D03*
X02628Y00731D03*
X02677Y00764D03*
X03962Y05075D03*
X03896Y05142D03*
X03907Y05182D03*
X03494Y04728D03*
X03455Y04688D03*
X04037Y05272D03*
X01974Y0954D03*
X02089Y09539D03*
X02458Y0684D03*
X02418Y0687D03*
X02405Y06681D03*
X02373Y0664D03*
X02277Y06469D03*
X0219Y06382D03*
X02607Y05252D03*
X02652Y0521D03*
X02773Y04733D03*
X01232Y01001D03*
X01205Y01009D03*
X01163Y01041D03*
X01138Y01054D03*
X01379Y00859D03*
X01337Y00891D03*
X01322Y00906D03*
X01276Y00852D03*
X01165Y00924D03*
X00989Y035D03*
X01051Y03477D03*
X01035Y03455D03*
X01297Y00754D03*
X01271Y00739D03*
X01221Y00793D03*
X01074Y00853D03*
X01114Y009D03*
X01079Y01691D03*
X01003Y0176D03*
X01193Y03192D03*
X0115Y03173D03*
X01132Y03213D03*
X03849Y04334D03*
X03534Y04373D03*
X03061D03*
X02672Y046D03*
X02695Y04625D03*
X02742Y04531D03*
X02771Y04557D03*
X02668Y04493D03*
X0263Y04458D03*
X02764Y0448D03*
X02785Y04395D03*
X0277Y04375D03*
X04509Y03378D03*
X04498Y0336D03*
X04419Y0339D03*
X044Y03377D03*
X04494Y03471D03*
X04471Y03502D03*
X04412Y03503D03*
X02794Y04278D03*
X03518Y05527D03*
X02719Y04939D03*
X02152Y0542D03*
X02137Y05408D03*
X02152Y05396D03*
X04117Y04056D03*
X04138Y04041D03*
Y04079D03*
X04117Y04094D03*
X01098Y0805D03*
X01145Y07982D03*
X01099Y08489D03*
X01145Y08421D03*
X01463Y08964D03*
X01689Y08978D03*
X01579Y08981D03*
X0143Y08918D03*
X01391Y08964D03*
X01094Y09058D03*
X01121Y09034D03*
X00836Y08828D03*
X00863Y08803D03*
X01886Y08574D03*
X02162Y08536D03*
X02338Y08711D03*
X02282Y08741D03*
X02217Y08699D03*
X01995Y08583D03*
X0198Y08601D03*
X0236Y08536D03*
X02264D03*
X02311Y08512D03*
X02212Y08536D03*
X02187Y08512D03*
X0269Y08454D03*
X02758Y08501D03*
X03129Y08744D03*
X03052Y0921D03*
X03117Y09244D03*
X03649Y08568D03*
X03622Y08594D03*
X03651Y08617D03*
X0543Y07709D03*
X05459Y07733D03*
X05431Y07759D03*
X05191Y07719D03*
X05218Y07786D03*
X05297Y07842D03*
X0516Y07846D03*
X05122Y07657D03*
X05228Y07615D03*
X0308Y09098D03*
X02853D03*
X02933Y09053D03*
X0448Y08196D03*
X044Y08241D03*
X04627D03*
X0469Y0834D03*
X04732Y07972D03*
X04243Y07634D03*
X04311Y07681D03*
X03559Y07575D03*
X03545Y07548D03*
X0394Y0857D03*
X04005Y08663D03*
X0394Y08749D03*
X04185Y09184D03*
X04253Y09231D03*
X03032Y07552D03*
X03159Y07494D03*
X03116Y07496D03*
X04654Y07525D03*
X04607Y07593D03*
X01844Y0193D03*
X01881Y01979D03*
X01594Y02508D03*
X01521Y02463D03*
X01071Y01863D03*
X011Y019D03*
X02052Y0449D03*
X01889Y04325D03*
X00824Y02697D03*
X00888Y02726D03*
X00722Y02722D03*
X00654D03*
X02026Y0146D03*
X0119Y02463D03*
X01258Y0251D03*
X00889Y02437D03*
X0089Y02383D03*
X00866Y0241D03*
X00801Y01687D03*
X0074Y01645D03*
X00684Y01687D03*
X0088Y026D03*
X00809Y02573D03*
X00759Y02627D03*
X00838Y01846D03*
X0077Y01907D03*
X00712Y01958D03*
X02904Y04373D03*
X02865D03*
X02864Y04413D03*
X02903Y04533D03*
X02904Y04452D03*
X02865Y04533D03*
X02903Y0461D03*
X03258Y04806D03*
Y04768D03*
X03337Y04846D03*
X03416Y04924D03*
X03219Y05113D03*
X03022Y04728D03*
X03332Y04733D03*
X03061Y04688D03*
X03376D03*
X03416Y04728D03*
X03219Y04688D03*
X03258Y04688D03*
X03101Y04728D03*
X0314Y04767D03*
X03298Y04728D03*
X03258D03*
X03376D03*
X03061Y04613D03*
X03456Y04964D03*
X0521Y06239D03*
Y06312D03*
Y06348D03*
Y06385D03*
Y06421D03*
Y06457D03*
X0483Y06306D03*
Y06342D03*
Y06491D03*
Y06565D03*
Y06602D03*
X05452Y07077D03*
X0546Y071D03*
X0543Y0709D03*
X0518Y0718D03*
X05315Y07017D03*
X05315Y06976D03*
X0518Y0694D03*
Y07017D03*
Y071D03*
X0543Y06386D03*
X05393Y0639D03*
X05095Y0718D03*
X05119Y0694D03*
Y071D03*
X05119Y07017D03*
X05383Y07125D03*
X05374Y0709D03*
X05493Y071D03*
X05474Y0693D03*
X05474Y06966D03*
X05448Y06965D03*
X04871Y0679D03*
X05105Y06195D03*
X05164D03*
X05303Y06672D03*
Y06604D03*
X05507Y06386D03*
X0546Y0639D03*
X046Y06348D03*
X0457Y0633D03*
X0493Y0679D03*
X05303Y06732D03*
Y06543D03*
X0548Y0627D03*
X05409D03*
X05408Y06512D03*
X0548D03*
X0466Y06342D03*
Y06417D03*
Y06527D03*
Y06564D03*
Y06602D03*
X04744Y06602D03*
X04745Y06564D03*
X04744Y06491D03*
X04744Y06416D03*
X04743Y0638D03*
X0529Y06203D03*
X0529Y06239D03*
X0529Y06275D03*
X0529Y06311D03*
X05291Y06348D03*
X05291Y06385D03*
X05291Y06421D03*
X05291Y06457D03*
X05291Y06493D03*
X05371Y06203D03*
Y06239D03*
Y06275D03*
Y06311D03*
Y06348D03*
X05373Y06386D03*
Y06421D03*
Y06457D03*
Y06493D03*
X03263Y05239D03*
X02056Y05342D03*
X01988Y05695D03*
X02081Y05695D03*
X03218Y05224D03*
X03258Y05279D03*
X0322Y05279D03*
X02207Y0524D03*
X02239Y05376D03*
X0228Y05455D03*
X02289Y05496D03*
X00984Y04192D03*
X00926Y04258D03*
X00612Y04746D03*
X00544Y047D03*
X01022Y04871D03*
X0077Y04342D03*
X00678Y04234D03*
X00823Y04447D03*
X00895Y04552D03*
X01529Y04612D03*
X01579Y04666D03*
X02169Y04055D03*
X02127Y04009D03*
X02083Y0406D03*
X01588Y04191D03*
X01754Y04187D03*
X01931Y05678D03*
X03229Y06484D03*
X03272Y06485D03*
X02967Y0615D03*
X02924Y06149D03*
X03111Y06023D03*
X02878Y05997D03*
X03456Y05472D03*
X03258Y05318D03*
X02287Y0552D03*
X03299Y0532D03*
X02107Y05628D03*
X02166Y05568D03*
X02274Y05564D03*
X02274Y05601D03*
X02239Y05417D03*
X02128Y05239D03*
X02167D03*
X02087D03*
X01921Y05525D03*
X01879Y05544D03*
X0183Y0519D03*
X02029Y05293D03*
X01877Y052D03*
X01872Y05263D03*
Y05314D03*
X01988Y05293D03*
X01819Y05228D03*
X01944Y0507D03*
X01789Y0519D03*
X01931Y05594D03*
X01985Y05638D03*
X02038Y05384D03*
X02146Y0559D03*
X02088Y05642D03*
X02068Y05628D03*
X03809Y04413D03*
X03809Y05043D03*
X02904Y0473D03*
Y04413D03*
Y0457D03*
X03298Y04373D03*
X0314D03*
X03691Y04334D03*
X03613Y04373D03*
X03454D03*
X01916Y05555D03*
X01896Y05589D03*
X01884Y05601D03*
X0183Y0559D03*
X01853D03*
X01861Y05501D03*
X01789Y05314D03*
X01667Y05774D03*
X0155Y0562D03*
X017Y05314D03*
X0155Y05433D03*
X00993Y05351D03*
X00893Y05428D03*
X00993Y05451D03*
X00891Y05531D03*
X00802Y0581D03*
X02009Y05628D03*
X02904Y05121D03*
Y04806D03*
Y04491D03*
Y04649D03*
Y04964D03*
X03809Y04491D03*
X03691Y04373D03*
X03376D03*
X03219D03*
X02865Y04334D03*
X03731Y04452D03*
Y04491D03*
Y04531D03*
X03573Y0457D03*
X03613Y04413D03*
Y04491D03*
X03652Y04531D03*
X03691Y04413D03*
X03416Y0461D03*
X03455Y04413D03*
Y04491D03*
X03534Y04452D03*
X03258Y0457D03*
Y04531D03*
Y04491D03*
Y04452D03*
Y04413D03*
X03298Y04491D03*
Y0457D03*
Y0461D03*
X03337Y04491D03*
Y04531D03*
Y0457D03*
Y0461D03*
X03376Y04491D03*
Y0461D03*
X03101Y0457D03*
Y04413D03*
X0314Y04452D03*
X03219Y04491D03*
Y04531D03*
Y0457D03*
X03061Y04531D03*
Y04452D03*
X02983Y0457D03*
X02943Y04413D03*
Y0457D03*
X03731Y04688D03*
X03691D03*
Y04728D03*
Y04767D03*
Y04885D03*
X03652Y04688D03*
Y04767D03*
X03613Y04688D03*
Y04728D03*
Y04767D03*
Y04885D03*
X03574Y04649D03*
X03573Y04728D03*
Y04767D03*
Y04806D03*
X03534Y04649D03*
X03534Y04728D03*
Y04767D03*
Y04806D03*
X03495Y04649D03*
X03494Y04688D03*
Y04767D03*
Y04806D03*
X03455Y04728D03*
X03416Y04688D03*
X03377Y04649D03*
X03338D03*
X03337Y04688D03*
X03731Y04964D03*
X03731Y05239D03*
X03652Y05161D03*
Y052D03*
X03613Y05121D03*
Y05161D03*
Y052D03*
Y05239D03*
X03573Y05161D03*
Y052D03*
X03534Y05121D03*
Y05161D03*
Y052D03*
Y05239D03*
X03494Y05082D03*
Y05121D03*
Y05161D03*
Y05239D03*
X03455Y05043D03*
Y05082D03*
Y05121D03*
Y05161D03*
Y052D03*
Y05239D03*
X03416Y05003D03*
Y05043D03*
Y05121D03*
Y052D03*
Y05239D03*
X03376Y05003D03*
Y05082D03*
Y05161D03*
Y052D03*
Y05239D03*
X03298Y04649D03*
X03298Y04688D03*
X03179Y04767D03*
Y04885D03*
Y05121D03*
Y05161D03*
Y052D03*
Y05239D03*
X0314Y04846D03*
Y05082D03*
Y05161D03*
Y052D03*
Y05239D03*
X03101Y04846D03*
Y05239D03*
Y052D03*
Y05161D03*
Y05121D03*
X03061Y04924D03*
Y04767D03*
X03062Y04649D03*
X03061Y052D03*
Y05161D03*
Y05121D03*
Y05003D03*
X03022Y04924D03*
Y04846D03*
Y05239D03*
Y052D03*
X02983Y04924D03*
X02983Y04649D03*
X02983Y05043D03*
X02983Y04964D03*
X02943Y04924D03*
Y04728D03*
X05073Y06278D03*
Y06719D03*
X05165Y06655D03*
Y06624D03*
X05134Y06687D03*
Y06655D03*
Y06624D03*
X05073Y06656D03*
Y06687D03*
X04976Y06655D03*
X05165Y06561D03*
Y06592D03*
X05134D03*
Y06561D03*
X04945Y06372D03*
Y06561D03*
Y06529D03*
X05165Y06718D03*
X05134D03*
X05165Y0634D03*
Y06309D03*
X05134Y06277D03*
Y06246D03*
X05165Y06277D03*
Y06372D03*
X05134Y06498D03*
X05165Y06529D03*
X04945Y06246D03*
Y0634D03*
X04884Y06593D03*
Y06687D03*
Y06656D03*
Y06498D03*
X04976Y06592D03*
X04945D03*
Y06718D03*
X01008Y03566D03*
G54D209*
X00962Y08178D03*
X00918Y08264D03*
X00962Y08343D03*
X00918Y0843D03*
X00962Y08508D03*
X01172Y03116D03*
G54D210*
X01887Y08946D03*
X01947D03*
X02007D03*
X02067D03*
X02037Y08916D03*
X01917D03*
X02067Y08886D03*
X02007D03*
X01947D03*
X01887D03*
X02037Y08856D03*
X01917D03*
X02067Y08826D03*
X02007D03*
X01947D03*
X01887D03*
X02037Y08796D03*
X01917D03*
X02067Y08766D03*
X02007D03*
X01947D03*
X01887D03*
X02037Y08736D03*
X01977D03*
X01917D03*
X02067Y08706D03*
X02007D03*
X01947D03*
X02037Y08676D03*
X01977D03*
X02067Y08646D03*
X02007D03*
X01947D03*
X01887D03*
Y08706D03*
X01917Y08676D03*
X01977Y08916D03*
Y08856D03*
Y08796D03*
X00351Y02303D03*
Y02363D03*
Y02423D03*
Y02483D03*
X00381Y02453D03*
Y02333D03*
X00411Y02483D03*
Y02423D03*
Y02363D03*
Y02303D03*
X00441Y02453D03*
Y02333D03*
X00471Y02483D03*
Y02423D03*
Y02363D03*
Y02303D03*
X00501Y02453D03*
Y02333D03*
X00531Y02483D03*
Y02423D03*
Y02363D03*
Y02303D03*
X00561Y02453D03*
Y02393D03*
Y02333D03*
X00591Y02483D03*
Y02423D03*
Y02363D03*
X00621Y02453D03*
Y02393D03*
X00651Y02483D03*
Y02423D03*
Y02363D03*
Y02303D03*
X00591D03*
X00621Y02333D03*
X00381Y02393D03*
X00441D03*
X00501D03*
G54D211*
X0275Y0772D03*
X02794D03*
X02837D03*
X0288D03*
X02924D03*
X0275Y07676D03*
X02794D03*
X02837D03*
X0288D03*
X02924D03*
X0275Y07633D03*
X02794D03*
X02837D03*
X0288D03*
X02924D03*
X0275Y0759D03*
X02794D03*
X02837D03*
X0288D03*
X02924D03*
X0275Y07546D03*
X02794D03*
X02837D03*
X0288D03*
X02924D03*
X05393Y06979D03*
X05416Y07017D03*
X05371D03*
X05393Y07054D03*
X01234Y0699D03*
Y07033D03*
Y07076D03*
X01277Y0699D03*
Y07033D03*
Y07076D03*
X01321Y0699D03*
Y07033D03*
Y07076D03*
X01364Y0699D03*
Y07033D03*
Y07076D03*
X01407Y0699D03*
Y07033D03*
Y07076D03*
X01451Y0699D03*
Y07033D03*
Y07076D03*
X01494Y0699D03*
Y07033D03*
Y07076D03*
X01537Y0699D03*
Y07033D03*
Y07076D03*
X01581Y0699D03*
Y07033D03*
Y07076D03*
X02554Y00998D03*
Y00955D03*
Y00912D03*
Y00868D03*
Y00825D03*
X02511Y00998D03*
Y00955D03*
Y00912D03*
Y00868D03*
Y00825D03*
X02468Y00998D03*
Y00955D03*
Y00912D03*
Y00868D03*
Y00825D03*
X02424Y00998D03*
Y00955D03*
Y00912D03*
Y00868D03*
Y00825D03*
X02381Y00998D03*
Y00955D03*
Y00912D03*
Y00868D03*
Y00825D03*
X01243Y00876D03*
X012D03*
X01243Y0092D03*
X012D03*
X0223Y03395D03*
Y03438D03*
Y03482D03*
Y03525D03*
Y03568D03*
X02274Y03395D03*
Y03438D03*
Y03482D03*
Y03525D03*
Y03568D03*
X02317Y03395D03*
Y03438D03*
Y03482D03*
Y03525D03*
Y03568D03*
X0236Y03395D03*
Y03438D03*
Y03482D03*
Y03525D03*
Y03568D03*
X02404Y03395D03*
Y03438D03*
Y03482D03*
Y03525D03*
Y03568D03*
M02*