%FSTAX23Y23*%
%MOIN*%
%SFA1B1*%

%IPPOS*%
%ADD14C,0.005000*%
%LNprob_s7cas_pcb-1*%
%LPD*%
G54D14*
X04685Y04964D02*
D01*
X04684Y04974*
X04683Y04983*
X04682Y04992*
X0468Y05001*
X04677Y0501*
X04673Y05019*
X04669Y05027*
X04664Y05035*
X04659Y05043*
X04653Y0505*
X04647Y05057*
X04641Y05064*
X04633Y0507*
X04626Y05075*
X04618Y0508*
X0461Y05084*
X04601Y05088*
X04592Y05091*
X04583Y05094*
X04574Y05096*
X04565Y05097*
X04556Y05098*
X04546*
X04537Y05097*
X04528Y05096*
X04519Y05094*
X0451Y05091*
X04501Y05088*
X04492Y05084*
X04484Y0508*
X04476Y05075*
X04469Y0507*
X04461Y05064*
X04455Y05057*
X04448Y0505*
X04443Y05043*
X04437Y05035*
X04433Y05027*
X04429Y05019*
X04425Y0501*
X04422Y05001*
X0442Y04992*
X04418Y04983*
X04417Y04974*
X04417Y04964*
X04417Y04955*
X04418Y04946*
X0442Y04936*
X04422Y04927*
X04425Y04918*
X04429Y0491*
X04433Y04901*
X04437Y04893*
X04443Y04885*
X04448Y04878*
X04455Y04871*
X04461Y04865*
X04469Y04859*
X04476Y04853*
X04484Y04848*
X04492Y04844*
X04501Y0484*
X0451Y04837*
X04519Y04834*
X04528Y04832*
X04537Y04831*
X04546Y0483*
X04556*
X04565Y04831*
X04574Y04832*
X04583Y04834*
X04592Y04837*
X04601Y0484*
X0461Y04844*
X04618Y04848*
X04626Y04853*
X04633Y04859*
X04641Y04865*
X04647Y04871*
X04653Y04878*
X04659Y04885*
X04664Y04893*
X04669Y04901*
X04673Y0491*
X04677Y04918*
X0468Y04927*
X04682Y04936*
X04683Y04946*
X04684Y04955*
X04685Y04964*
X04476Y04029D02*
D01*
X04476Y04038*
X04475Y04047*
X04474Y04057*
X04471Y04066*
X04468Y04075*
X04465Y04083*
X04461Y04092*
X04456Y041*
X04451Y04107*
X04445Y04115*
X04439Y04122*
X04432Y04128*
X04425Y04134*
X04417Y0414*
X0441Y04145*
X04401Y04149*
X04393Y04153*
X04384Y04156*
X04375Y04159*
X04366Y04161*
X04357Y04162*
X04347Y04163*
X04338*
X04329Y04162*
X04319Y04161*
X0431Y04159*
X04301Y04156*
X04292Y04153*
X04284Y04149*
X04276Y04145*
X04268Y0414*
X0426Y04134*
X04253Y04128*
X04246Y04122*
X0424Y04115*
X04234Y04107*
X04229Y041*
X04224Y04092*
X0422Y04083*
X04217Y04075*
X04214Y04066*
X04212Y04057*
X0421Y04047*
X04209Y04038*
X04209Y04029*
X04209Y04019*
X0421Y0401*
X04212Y04001*
X04214Y03992*
X04217Y03983*
X0422Y03974*
X04224Y03966*
X04229Y03958*
X04234Y0395*
X0424Y03943*
X04246Y03936*
X04253Y03929*
X0426Y03923*
X04268Y03918*
X04276Y03913*
X04284Y03908*
X04292Y03905*
X04301Y03901*
X0431Y03899*
X04319Y03897*
X04329Y03896*
X04338Y03895*
X04347*
X04357Y03896*
X04366Y03897*
X04375Y03899*
X04384Y03901*
X04393Y03905*
X04401Y03908*
X0441Y03913*
X04417Y03918*
X04425Y03923*
X04432Y03929*
X04439Y03936*
X04445Y03943*
X04451Y0395*
X04456Y03958*
X04461Y03966*
X04465Y03974*
X04468Y03983*
X04471Y03992*
X04474Y04001*
X04475Y0401*
X04476Y04019*
X04476Y04029*
X02481Y04963D02*
D01*
X02481Y04972*
X0248Y04982*
X02478Y04991*
X02476Y05*
X02473Y05009*
X02469Y05017*
X02465Y05026*
X02461Y05034*
X02455Y05042*
X0245Y05049*
X02443Y05056*
X02437Y05062*
X0243Y05068*
X02422Y05074*
X02414Y05079*
X02406Y05083*
X02397Y05087*
X02389Y0509*
X0238Y05093*
X0237Y05095*
X02361Y05096*
X02352Y05097*
X02342*
X02333Y05096*
X02324Y05095*
X02315Y05093*
X02306Y0509*
X02297Y05087*
X02288Y05083*
X0228Y05079*
X02272Y05074*
X02265Y05068*
X02258Y05062*
X02251Y05056*
X02245Y05049*
X02239Y05042*
X02234Y05034*
X02229Y05026*
X02225Y05017*
X02221Y05009*
X02218Y05*
X02216Y04991*
X02215Y04982*
X02214Y04972*
X02213Y04963*
X02214Y04954*
X02215Y04944*
X02216Y04935*
X02218Y04926*
X02221Y04917*
X02225Y04908*
X02229Y049*
X02234Y04892*
X02239Y04884*
X02245Y04877*
X02251Y0487*
X02258Y04863*
X02265Y04857*
X02272Y04852*
X0228Y04847*
X02288Y04843*
X02297Y04839*
X02306Y04836*
X02315Y04833*
X02324Y04831*
X02333Y0483*
X02342Y04829*
X02352*
X02361Y0483*
X0237Y04831*
X0238Y04833*
X02389Y04836*
X02397Y04839*
X02406Y04843*
X02414Y04847*
X02422Y04852*
X0243Y04857*
X02437Y04863*
X02443Y0487*
X0245Y04877*
X02455Y04884*
X02461Y04892*
X02465Y049*
X02469Y04908*
X02473Y04917*
X02476Y04926*
X02478Y04935*
X0248Y04944*
X02481Y04954*
X02481Y04963*
X00372Y00225D02*
D01*
X00372Y00235*
X00371Y00244*
X00369Y00253*
X00367Y00262*
X00364Y00271*
X0036Y0028*
X00356Y00288*
X00352Y00296*
X00346Y00304*
X00341Y00311*
X00334Y00318*
X00328Y00325*
X0032Y00331*
X00313Y00336*
X00305Y00341*
X00297Y00346*
X00288Y00349*
X00279Y00353*
X0027Y00355*
X00261Y00357*
X00252Y00358*
X00243Y00359*
X00233*
X00224Y00358*
X00215Y00357*
X00206Y00355*
X00197Y00353*
X00188Y00349*
X00179Y00346*
X00171Y00341*
X00163Y00336*
X00156Y00331*
X00148Y00325*
X00142Y00318*
X00135Y00311*
X0013Y00304*
X00125Y00296*
X0012Y00288*
X00116Y0028*
X00112Y00271*
X00109Y00262*
X00107Y00253*
X00105Y00244*
X00105Y00235*
X00104Y00225*
X00105Y00216*
X00105Y00207*
X00107Y00197*
X00109Y00188*
X00112Y0018*
X00116Y00171*
X0012Y00162*
X00125Y00154*
X0013Y00147*
X00135Y00139*
X00142Y00132*
X00148Y00126*
X00156Y0012*
X00163Y00114*
X00171Y00109*
X00179Y00105*
X00188Y00101*
X00197Y00098*
X00206Y00095*
X00215Y00093*
X00224Y00092*
X00233Y00092*
X00243*
X00252Y00092*
X00261Y00093*
X0027Y00095*
X00279Y00098*
X00288Y00101*
X00297Y00105*
X00305Y00109*
X00313Y00114*
X0032Y0012*
X00328Y00126*
X00334Y00132*
X00341Y00139*
X00346Y00147*
X00352Y00154*
X00356Y00162*
X0036Y00171*
X00364Y0018*
X00367Y00188*
X00369Y00197*
X00371Y00207*
X00372Y00216*
X00372Y00225*
X05596Y00289D02*
D01*
X05596Y00298*
X05595Y00307*
X05593Y00316*
X05591Y00326*
X05588Y00334*
X05585Y00343*
X0558Y00351*
X05576Y0036*
X05571Y00367*
X05565Y00375*
X05559Y00382*
X05552Y00388*
X05545Y00394*
X05537Y004*
X05529Y00405*
X05521Y00409*
X05512Y00413*
X05504Y00416*
X05495Y00418*
X05486Y0042*
X05476Y00422*
X05467Y00422*
X05458*
X05448Y00422*
X05439Y0042*
X0543Y00418*
X05421Y00416*
X05412Y00413*
X05404Y00409*
X05395Y00405*
X05387Y004*
X0538Y00394*
X05373Y00388*
X05366Y00382*
X0536Y00375*
X05354Y00367*
X05349Y0036*
X05344Y00351*
X0534Y00343*
X05337Y00334*
X05334Y00326*
X05331Y00316*
X0533Y00307*
X05329Y00298*
X05328Y00289*
X05329Y00279*
X0533Y0027*
X05331Y00261*
X05334Y00252*
X05337Y00243*
X0534Y00234*
X05344Y00226*
X05349Y00218*
X05354Y0021*
X0536Y00203*
X05366Y00196*
X05373Y00189*
X0538Y00183*
X05387Y00178*
X05395Y00173*
X05404Y00168*
X05412Y00164*
X05421Y00161*
X0543Y00159*
X05439Y00157*
X05448Y00155*
X05458Y00155*
X05467*
X05476Y00155*
X05486Y00157*
X05495Y00159*
X05504Y00161*
X05512Y00164*
X05521Y00168*
X05529Y00173*
X05537Y00178*
X05545Y00183*
X05552Y00189*
X05559Y00196*
X05565Y00203*
X05571Y0021*
X05576Y00218*
X0558Y00226*
X05585Y00234*
X05588Y00243*
X05591Y00252*
X05593Y00261*
X05595Y0027*
X05596Y00279*
X05596Y00289*
X05643Y10381D02*
D01*
X05643Y10391*
X05642Y104*
X0564Y10409*
X05638Y10418*
X05635Y10427*
X05632Y10436*
X05628Y10444*
X05623Y10452*
X05618Y1046*
X05612Y10468*
X05606Y10474*
X05599Y10481*
X05592Y10487*
X05584Y10492*
X05576Y10497*
X05568Y10502*
X0556Y10506*
X05551Y10509*
X05542Y10511*
X05533Y10513*
X05523Y10515*
X05514Y10515*
X05505*
X05496Y10515*
X05486Y10513*
X05477Y10511*
X05468Y10509*
X05459Y10506*
X05451Y10502*
X05443Y10497*
X05435Y10492*
X05427Y10487*
X0542Y10481*
X05413Y10474*
X05407Y10468*
X05401Y1046*
X05396Y10452*
X05391Y10444*
X05387Y10436*
X05384Y10427*
X05381Y10418*
X05379Y10409*
X05377Y104*
X05376Y10391*
X05376Y10381*
X05376Y10372*
X05377Y10363*
X05379Y10354*
X05381Y10345*
X05384Y10336*
X05387Y10327*
X05391Y10319*
X05396Y10311*
X05401Y10303*
X05407Y10295*
X05413Y10289*
X0542Y10282*
X05427Y10276*
X05435Y10271*
X05443Y10266*
X05451Y10261*
X05459Y10257*
X05468Y10254*
X05477Y10252*
X05486Y1025*
X05496Y10248*
X05505Y10248*
X05514*
X05523Y10248*
X05533Y1025*
X05542Y10252*
X05551Y10254*
X0556Y10257*
X05568Y10261*
X05576Y10266*
X05584Y10271*
X05592Y10276*
X05599Y10282*
X05606Y10289*
X05612Y10295*
X05618Y10303*
X05623Y10311*
X05628Y10319*
X05632Y10327*
X05635Y10336*
X05638Y10345*
X0564Y10354*
X05642Y10363*
X05643Y10372*
X05643Y10381*
X00401Y10413D02*
D01*
X00401Y10422*
X004Y10432*
X00398Y10441*
X00396Y1045*
X00393Y10459*
X0039Y10468*
X00385Y10476*
X00381Y10484*
X00376Y10492*
X0037Y10499*
X00364Y10506*
X00357Y10513*
X0035Y10519*
X00342Y10524*
X00334Y10529*
X00326Y10533*
X00317Y10537*
X00309Y1054*
X003Y10543*
X00291Y10545*
X00281Y10546*
X00272Y10547*
X00263*
X00253Y10546*
X00244Y10545*
X00235Y10543*
X00226Y1054*
X00217Y10537*
X00209Y10533*
X002Y10529*
X00192Y10524*
X00185Y10519*
X00178Y10513*
X00171Y10506*
X00165Y10499*
X00159Y10492*
X00154Y10484*
X00149Y10476*
X00145Y10468*
X00142Y10459*
X00139Y1045*
X00136Y10441*
X00135Y10432*
X00134Y10422*
X00133Y10413*
X00134Y10404*
X00135Y10394*
X00136Y10385*
X00139Y10376*
X00142Y10367*
X00145Y10359*
X00149Y1035*
X00154Y10342*
X00159Y10334*
X00165Y10327*
X00171Y1032*
X00178Y10314*
X00185Y10308*
X00192Y10302*
X002Y10297*
X00209Y10293*
X00217Y10289*
X00226Y10286*
X00235Y10283*
X00244Y10281*
X00253Y1028*
X00263Y10279*
X00272*
X00281Y1028*
X00291Y10281*
X003Y10283*
X00309Y10286*
X00317Y10289*
X00326Y10293*
X00334Y10297*
X00342Y10302*
X0035Y10308*
X00357Y10314*
X00364Y1032*
X0037Y10327*
X00376Y10334*
X00381Y10342*
X00385Y1035*
X0039Y10359*
X00393Y10367*
X00396Y10376*
X00398Y10385*
X004Y10394*
X00401Y10404*
X00401Y10413*
X04551Y04944D02*
Y04984D01*
X04531Y04964D02*
X04571D01*
X04343Y04009D02*
Y04049D01*
X04323Y04029D02*
X04363D01*
X02347Y04943D02*
Y04983D01*
X02327Y04963D02*
X02367D01*
X00238Y00205D02*
Y00245D01*
X00218Y00225D02*
X00258D01*
X05462Y00269D02*
Y00309D01*
X05442Y00289D02*
X05482D01*
X0551Y10361D02*
Y10401D01*
X0549Y10381D02*
X0553D01*
X00267Y10393D02*
Y10433D01*
X00247Y10413D02*
X00287D01*
X04787Y00339D02*
X04927D01*
X04787Y00199D02*
X04927D01*
X04837Y00269D02*
X04877D01*
X04857Y00249D02*
Y00289D01*
X04927Y00199D02*
Y00339D01*
X04787Y00199D02*
Y00339D01*
X00872Y09326D02*
X01012D01*
X00872Y09186D02*
X01012D01*
X00922Y09256D02*
X00962D01*
X00942Y09236D02*
Y09276D01*
X01012Y09186D02*
Y09326D01*
X00872Y09186D02*
Y09326D01*
X0456Y1032D02*
X047D01*
X0456Y1018D02*
X047D01*
X0461Y1025D02*
X0465D01*
X0463Y1023D02*
Y1027D01*
X047Y1018D02*
Y1032D01*
X0456Y1018D02*
Y1032D01*
M02*