%FSTAX23Y23*%
%MOIN*%
%SFA1B1*%

%IPPOS*%
%AMD212*
1,1,0.189921,0.000000,0.000000*
1,0,0.169921,0.000000,0.000000*
4,0,4,0.063600,0.070600,-0.070600,-0.063600,-0.063600,-0.070600,0.070600,0.063600,0.063600,0.070600,0.0*
4,0,4,-0.063600,0.070600,0.070600,-0.063600,0.063600,-0.070600,-0.070600,0.063600,-0.063600,0.070600,0.0*
%
%AMD213*
1,1,0.073780,0.000000,0.000000*
1,0,0.053780,0.000000,0.000000*
4,0,4,0.022500,0.029600,-0.029600,-0.022500,-0.022500,-0.029600,0.029600,0.022500,0.022500,0.029600,0.0*
4,0,4,-0.022500,0.029600,0.029600,-0.022500,0.022500,-0.029600,-0.029600,0.022500,-0.022500,0.029600,0.0*
%
%AMD215*
1,1,0.124961,0.000000,0.000000*
1,0,0.104961,0.000000,0.000000*
4,0,4,0.040600,0.047700,-0.047700,-0.040600,-0.040600,-0.047700,0.047700,0.040600,0.040600,0.047700,0.0*
4,0,4,-0.040600,0.047700,0.047700,-0.040600,0.040600,-0.047700,-0.047700,0.040600,-0.040600,0.047700,0.0*
%
%AMD221*
1,1,0.095000,0.000000,0.000000*
1,0,0.075000,0.000000,0.000000*
4,0,4,0.030100,0.037100,-0.037100,-0.030100,-0.030100,-0.037100,0.037100,0.030100,0.030100,0.037100,0.0*
4,0,4,-0.030100,0.037100,0.037100,-0.030100,0.030100,-0.037100,-0.037100,0.030100,-0.030100,0.037100,0.0*
%
%AMD223*
1,1,0.131000,0.000000,0.000000*
1,0,0.111000,0.000000,0.000000*
4,0,4,0.042800,0.049900,-0.049900,-0.042800,-0.042800,-0.049900,0.049900,0.042800,0.042800,0.049900,0.0*
4,0,4,-0.042800,0.049900,0.049900,-0.042800,0.042800,-0.049900,-0.049900,0.042800,-0.042800,0.049900,0.0*
%
%ADD193C,0.040000*%
%ADD210C,0.020000*%
G04~CAMADD=212~12~0.0~0.0~0.0~0.0~0.0~0.0~0~1899.2~1699.2~0.0~45.0~4~100.0~0.0~0.0~0.0~0~0.0~0.0~0.0~0.0~1899.2~1899.2*
%ADD212D212*%
G04~CAMADD=213~12~0.0~0.0~0.0~0.0~0.0~0.0~0~737.8~537.8~0.0~45.0~4~100.0~0.0~0.0~0.0~0~0.0~0.0~0.0~0.0~737.8~737.8*
%ADD213D213*%
%ADD214C,0.080960*%
G04~CAMADD=215~12~0.0~0.0~0.0~0.0~0.0~0.0~0~1249.6~1049.6~0.0~45.0~4~100.0~0.0~0.0~0.0~0~0.0~0.0~0.0~0.0~1249.6~1249.6*
%ADD215D215*%
%ADD216C,0.067181*%
%ADD217C,0.106551*%
%ADD218C,0.051433*%
%ADD219C,0.144000*%
%ADD220C,0.051000*%
G04~CAMADD=221~12~0.0~0.0~0.0~0.0~0.0~0.0~0~950.0~750.0~0.0~45.0~4~100.0~0.0~0.0~0.0~0~0.0~0.0~0.0~0.0~950.0~950.0*
%ADD221D221*%
%ADD222C,0.087000*%
G04~CAMADD=223~12~0.0~0.0~0.0~0.0~0.0~0.0~0~1310.0~1110.0~0.0~45.0~4~100.0~0.0~0.0~0.0~0~0.0~0.0~0.0~0.0~1310.0~1310.0*
%ADD223D223*%
%ADD224C,0.134000*%
%ADD225C,0.023874*%
%LNprob_s7cas_pcb-1*%
%LPD*%
G54D193*
X-00125Y10796D02*
Y-00122D01*
Y10796D02*
X0582D01*
Y-00122*
X-00125D02*
X0582D01*
G54D210*
X02943Y04767D03*
X02901Y04769D03*
X05074Y06467D03*
X04983Y06532D03*
X04827Y06529D03*
X04581Y06469D03*
X04594Y06518D03*
X03411Y05284D03*
X03333Y05204D03*
X03299Y05199D03*
X03338Y05238D03*
X037Y05231D03*
X04834Y06117D03*
X03412Y05086D03*
X03373Y05046D03*
X04601Y0645D03*
X03542Y0539D03*
X03561Y0541D03*
X03368Y04933D03*
X03525Y05091D03*
X03328Y04894D03*
X03295Y04851D03*
X04743Y06252D03*
X04744Y06232D03*
X03374Y0477D03*
X03413Y04809D03*
X03452Y04848D03*
X03807Y05203D03*
X03728Y05124D03*
X03492Y04888D03*
X03659Y04997D03*
X03915Y05253D03*
X03458Y04764D03*
X04743Y06155D03*
X04744Y06121D03*
X04743Y06179D03*
X03304Y04918D03*
X03229Y04842D03*
X03527Y0501D03*
X03488Y04972D03*
X03645Y05129D03*
X03369Y04853D03*
X03408Y04892D03*
X0457Y06233D03*
X04838Y06196D03*
X0346Y0492D03*
X04596Y06208D03*
X03254Y0489D03*
X03179Y04846D03*
X046Y06278D03*
X03219Y04885D03*
X0483Y0627D03*
X0457Y06278D03*
X03337Y0513D03*
X03293Y05087D03*
X03218Y05162D03*
X03296Y05241D03*
X03335Y05163D03*
X03111Y04905D03*
X03102Y04885D03*
X03061Y04885D03*
X03171Y05003D03*
X03258Y05113D03*
X03219Y05082D03*
X03459Y05544D03*
X03457Y05631D03*
X03435Y05607D03*
X03176Y05316D03*
X03452Y05584D03*
X03432Y05698D03*
X03285Y05527D03*
X03251Y05493D03*
X02789Y04942D03*
X03099Y05283D03*
X02904Y05043D03*
X02983Y05121D03*
X03448Y05727D03*
X0345Y05673D03*
X03217Y05436D03*
X03417Y05781D03*
X03419Y05819D03*
X03395Y05801D03*
X03396Y05842D03*
X03419Y0586D03*
X02901Y05203D03*
X02943Y05279D03*
X03887Y0494D03*
X03796Y04741D03*
X04022Y04929D03*
X04042Y04949D03*
X03928Y04739D03*
X03952Y04719D03*
X03653Y04649D03*
X03809Y0457D03*
X04945Y06687D03*
X03435Y0551D03*
X03227Y05312D03*
X04945Y06655D03*
Y06631D03*
X05073Y06593D03*
X04977Y06625D03*
X04976Y06561D03*
X03294Y05282D03*
X03334Y05321D03*
X03239Y05227D03*
X03216Y05203D03*
X04569Y06514D03*
X04744Y06527D03*
X04884Y06561D03*
X05073Y06498D03*
X02865Y04491D03*
Y04452D03*
X03219D03*
X03731Y0461D03*
X02865Y04688D03*
X02943Y04806D03*
X02983Y04846D03*
X03809Y04885D03*
X02864Y04767D03*
X02904Y04885D03*
X05165Y06435D03*
X05073Y06435D03*
X05134Y06435D03*
X02983Y04767D03*
X03691Y04924D03*
X05134Y06309D03*
X03022Y04806D03*
X04744Y06452D03*
X05075Y06343D03*
X02983Y04806D03*
X04749Y06343D03*
X04745Y06305D03*
X0483Y06415D03*
Y06451D03*
X04976Y06403D03*
X04945Y06435D03*
X04976Y06466D03*
Y06435D03*
X04945Y06498D03*
Y06403D03*
X03328Y04974D03*
X05136Y06371D03*
X04884Y06435D03*
X0483Y0638D03*
X03573Y05279D03*
X03259Y04964D03*
X03219Y04924D03*
X03494Y052D03*
X03657Y04447D03*
X03494Y0457D03*
X0521Y06275D03*
X03731Y04806D03*
X03455Y04531D03*
X04976Y0634D03*
Y06372D03*
Y06309D03*
X05073Y06404D03*
Y06309D03*
Y06561D03*
Y06624D03*
Y0653D03*
X05134Y0634D03*
X0521Y06203D03*
Y06493D03*
X05165Y06498D03*
X05315Y07036D03*
X05303Y0716D03*
X02865Y04806D03*
Y0473D03*
X02863Y04649D03*
X04884Y06719D03*
X04976Y06718D03*
X02864Y0457D03*
X02865Y0461D03*
X03176Y05955D03*
X02943Y04491D03*
X04011Y05227D03*
X0353Y04693D03*
X02983Y0461D03*
X02943D03*
X04976Y06498D03*
X0318Y04648D03*
X02944Y04649D03*
X02903Y04688D03*
X04833Y06155D03*
X04977Y06276D03*
X04945Y06309D03*
X04945Y06277D03*
X03061Y04806D03*
X03101D03*
X03061Y04846D03*
X0314Y04885D03*
X03336Y04807D03*
X03219Y04805D03*
X03178Y04807D03*
X0314Y04806D03*
X03298Y04768D03*
X04885Y06273D03*
X0483Y06217D03*
X04884Y06341D03*
X04976Y06246D03*
X02748Y05209D03*
X03043Y05955D03*
X02943Y04846D03*
X03249Y07541D03*
X0326Y07557D03*
X03248Y07569D03*
X02863Y07439D03*
X0287Y07426D03*
X02598Y07423D03*
X02605Y07443D03*
X02788Y07323D03*
X02797Y07311D03*
X02706Y07321D03*
X02715Y07312D03*
X03016Y07429D03*
X03036Y07417D03*
X03027Y07408D03*
X02988Y07427D03*
X02981Y07443D03*
X02929Y07426D03*
X02921Y07438D03*
X02771Y07426D03*
X02764Y07441D03*
X02713Y07426D03*
X02705Y07439D03*
X02447Y07647D03*
X02433Y07666D03*
X02633Y07647D03*
X02647Y07639D03*
X02647Y0758D03*
X02633Y07588D03*
X02522Y07881D03*
X02376Y07891D03*
X03511Y07627D03*
X03518Y07587D03*
X03595Y06989D03*
X03584Y07003D03*
X0363Y06875D03*
X03646Y06861D03*
X04114Y0689D03*
X04101Y06905D03*
X04017Y07049D03*
X04035Y07032D03*
X0401Y0701D03*
X04034Y06989D03*
X04017Y06968D03*
X0399Y06953D03*
X04005Y06934D03*
X02301Y09379D03*
X02257Y09379D03*
X02921Y09725D03*
X02949Y09766D03*
X01487Y0995D03*
X01484Y09773D03*
X01482Y09825D03*
X01487Y09878D03*
X01594Y09956D03*
X01637Y09969D03*
X01872Y10089D03*
X01909Y10113D03*
X01936Y10073D03*
X01954Y10088D03*
X01981Y09999D03*
X02001Y09986D03*
X00566Y09239D03*
X01343Y07191D03*
X01275Y0761D03*
X01385Y07407D03*
X03469Y04122D03*
X03485Y04156D03*
X03496Y04175D03*
X03469Y04176D03*
X03497Y04266D03*
X03473Y04266D03*
X0317Y04171D03*
X03127Y0417D03*
X03169Y04126D03*
X03157Y0414D03*
X03145Y04125D03*
X03132Y0414D03*
X03119Y04125D03*
X03178Y04269D03*
X03169Y0426D03*
X03123Y0427D03*
X03134Y04258D03*
X03148Y04275D03*
X03311Y04288D03*
X05487Y07D03*
X05465Y06994D03*
X02331Y00714D03*
X02314Y00718D03*
X0232Y00637D03*
X02309Y00675D03*
X02306Y00737D03*
X02272Y0072D03*
X02263Y00737D03*
X02323Y0111D03*
X02309Y01083D03*
X02299Y0111D03*
X0227Y01094D03*
X0226Y01082D03*
X04016Y01891D03*
X03999Y01909D03*
X03054Y01662D03*
X03036Y01685D03*
X03164Y01805D03*
X03141Y01783D03*
X02601D03*
X02624Y01805D03*
X02496Y01685D03*
X02514Y01662D03*
X02156Y03371D03*
X0213Y03432D03*
X02133Y03531D03*
X01923Y03692D03*
X01972Y03693D03*
X02021Y03692D03*
X02091Y03693D03*
X02123Y03667D03*
X0218Y03608D03*
X01787Y08482D03*
X01831Y08428D03*
X01641Y08573D03*
X01673Y08466D03*
X01642Y08356D03*
X01639Y08149D03*
X01671Y08062D03*
X01636Y08003D03*
X0175Y08777D03*
X01517Y08777D03*
X01729Y08727D03*
X01691Y08769D03*
X01636Y08726D03*
X01579Y08771D03*
X0154Y08729D03*
X0141Y08768D03*
X01362Y08711D03*
X01474Y06789D03*
X01501Y06763D03*
X01472Y06739D03*
X01573Y06875D03*
X0124D03*
X01183Y06445D03*
X01159Y06474D03*
X01133Y06446D03*
X01102Y02218D03*
X01038Y02171D03*
X00988Y02228D03*
X00931Y0217D03*
X00874Y02243D03*
X00847Y02198D03*
X02371Y03655D03*
X02347Y03637D03*
X02199Y03666D03*
X02229Y03638D03*
X03091Y03781D03*
X03155Y03738D03*
X03093Y03698D03*
X03153Y03666D03*
X03888Y03547D03*
X03879Y03492D03*
X03838Y03571D03*
X04172Y03505D03*
X04202Y0349D03*
X04173Y03461D03*
X04245Y03428D03*
X04012Y04465D03*
X03921Y04492D03*
X03907Y0446D03*
X02721Y03081D03*
X02752Y03119D03*
X02773Y0316D03*
X02754Y03043D03*
X02808Y03067D03*
X02369Y03305D03*
X02346Y03323D03*
X02218Y03326D03*
X02172Y03276D03*
X0214Y03291D03*
X02624Y0113D03*
X02606Y01172D03*
X02672Y00941D03*
X02419Y00712D03*
X02611Y00711D03*
X02593Y00679D03*
X02648Y00714D03*
X02668Y00731D03*
X02628Y00731D03*
X03494Y04728D03*
X03455Y04688D03*
X04037Y05272D03*
X01974Y0954D03*
X02089Y09539D03*
X02458Y0684D03*
X02418Y0687D03*
X02405Y06681D03*
X02373Y0664D03*
X02277Y06469D03*
X0219Y06382D03*
X02607Y05252D03*
X02652Y0521D03*
X02773Y04733D03*
X01232Y01001D03*
X01205Y01009D03*
X01163Y01041D03*
X01138Y01054D03*
X01379Y00859D03*
X01337Y00891D03*
X01322Y00906D03*
X01276Y00852D03*
X01165Y00924D03*
X00989Y035D03*
X01051Y03477D03*
X01035Y03455D03*
X01297Y00754D03*
X01271Y00739D03*
X01221Y00793D03*
X01074Y00853D03*
X01114Y009D03*
X01079Y01691D03*
X01003Y0176D03*
X01193Y03192D03*
X0115Y03173D03*
X01132Y03213D03*
X02668Y04493D03*
X0263Y04458D03*
X02764Y0448D03*
X04494Y03471D03*
X04471Y03502D03*
X04412Y03503D03*
X02794Y04278D03*
X02719Y04939D03*
X02152Y0542D03*
X02137Y05408D03*
X02152Y05396D03*
X04138Y04079D03*
X04117Y04094D03*
X02162Y08536D03*
X0236D03*
X02264D03*
X02311Y08512D03*
X02212Y08536D03*
X02187Y08512D03*
X05191Y07719D03*
X05218Y07786D03*
X05297Y07842D03*
X0516Y07846D03*
X05122Y07657D03*
X05228Y07615D03*
X0308Y09098D03*
X02853D03*
X02933Y09053D03*
X0448Y08196D03*
X044Y08241D03*
X04627D03*
X03559Y07575D03*
X03545Y07548D03*
X0394Y0857D03*
X04005Y08663D03*
X0394Y08749D03*
X01844Y0193D03*
X01881Y01979D03*
X01594Y02508D03*
X01521Y02463D03*
X0088Y026D03*
X00809Y02573D03*
X00759Y02627D03*
X00838Y01846D03*
X0077Y01907D03*
X00712Y01958D03*
X02904Y04373D03*
X02865D03*
X02864Y04413D03*
X02903Y04533D03*
X02904Y04452D03*
X02865Y04533D03*
X02903Y0461D03*
X03258Y04806D03*
X03219Y05113D03*
X03332Y04733D03*
X03061Y04688D03*
X03376D03*
X03416Y04728D03*
X03219Y04688D03*
X03101Y04728D03*
X03258D03*
X03061Y04613D03*
X0521Y06239D03*
Y06312D03*
Y06348D03*
Y06385D03*
Y06421D03*
Y06457D03*
X0483Y06306D03*
Y06342D03*
Y06491D03*
Y06565D03*
Y06602D03*
X05452Y07077D03*
X0546Y071D03*
X0543Y0709D03*
X0518Y0718D03*
X05315Y07017D03*
X05315Y06976D03*
X0518Y0694D03*
Y07017D03*
Y071D03*
X0543Y06386D03*
X05393Y0639D03*
X05474Y06966D03*
X05448Y06965D03*
X04871Y0679D03*
X05105Y06195D03*
X05303Y06672D03*
Y06604D03*
X05507Y06386D03*
X0546Y0639D03*
X04744Y06602D03*
X04745Y06564D03*
X04744Y06491D03*
X04744Y06416D03*
X04743Y0638D03*
X0529Y06203D03*
X0529Y06239D03*
X0529Y06275D03*
X0529Y06311D03*
X05291Y06348D03*
X05291Y06385D03*
X05291Y06421D03*
X05291Y06457D03*
X05291Y06493D03*
X03263Y05239D03*
X02056Y05342D03*
X01988Y05695D03*
X02081Y05695D03*
X03218Y05224D03*
X03258Y05279D03*
X0322Y05279D03*
X02207Y0524D03*
X0228Y05455D03*
X02289Y05496D03*
X0077Y04342D03*
X00678Y04234D03*
X00823Y04447D03*
X00895Y04552D03*
X01529Y04612D03*
X01579Y04666D03*
X02169Y04055D03*
X02127Y04009D03*
X02083Y0406D03*
X01588Y04191D03*
X01754Y04187D03*
X01931Y05678D03*
X03111Y06023D03*
X02878Y05997D03*
X03456Y05472D03*
X03258Y05318D03*
X02287Y0552D03*
X03299Y0532D03*
X02107Y05628D03*
X02166Y05568D03*
X02274Y05564D03*
X02274Y05601D03*
X02128Y05239D03*
X02167D03*
X02087D03*
X01921Y05525D03*
X01879Y05544D03*
X0183Y0519D03*
X02029Y05293D03*
X01877Y052D03*
X01872Y05263D03*
Y05314D03*
X01819Y05228D03*
X01985Y05638D03*
X02038Y05384D03*
X02146Y0559D03*
X02088Y05642D03*
X02068Y05628D03*
X03809Y04413D03*
X03809Y05043D03*
X02904Y0473D03*
Y04413D03*
Y0457D03*
X03298Y04373D03*
X0314D03*
X03691Y04334D03*
X03613Y04373D03*
X03454D03*
X01916Y05555D03*
X01896Y05589D03*
X01884Y05601D03*
X00993Y05351D03*
X00893Y05428D03*
X00993Y05451D03*
X00891Y05531D03*
X02009Y05628D03*
X03731Y04452D03*
Y04491D03*
Y04531D03*
X03573Y0457D03*
X03613Y04413D03*
X03652Y04531D03*
X03691Y04413D03*
X03534Y04452D03*
X03258Y04531D03*
Y04491D03*
Y04452D03*
Y04413D03*
X03298Y0457D03*
Y0461D03*
X03337Y04491D03*
Y04531D03*
Y0457D03*
Y0461D03*
X03376Y04491D03*
Y0461D03*
X03101Y04413D03*
X03219Y04491D03*
Y04531D03*
Y0457D03*
X03061Y04531D03*
Y04452D03*
X02943Y04413D03*
Y0457D03*
X03731Y04688D03*
X03691D03*
Y04728D03*
Y04767D03*
X03652Y04688D03*
Y04767D03*
X03613Y04688D03*
Y04728D03*
Y04767D03*
Y04885D03*
X03574Y04649D03*
X03573Y04728D03*
Y04767D03*
X03534Y04649D03*
X03534Y04728D03*
Y04767D03*
Y04806D03*
X03495Y04649D03*
X03494Y04688D03*
Y04767D03*
Y04806D03*
X03416Y04688D03*
X03377Y04649D03*
X03338D03*
X03337Y04688D03*
X03731Y04964D03*
X03731Y05239D03*
X03652Y05161D03*
Y052D03*
X03613Y05121D03*
Y05161D03*
Y052D03*
Y05239D03*
X03573Y05161D03*
Y052D03*
X03534Y05121D03*
Y05161D03*
Y052D03*
Y05239D03*
X03494Y05082D03*
Y05121D03*
Y05161D03*
Y05239D03*
X03455Y05043D03*
Y05082D03*
Y05121D03*
Y05161D03*
Y052D03*
Y05239D03*
X03416Y05003D03*
Y05043D03*
Y05121D03*
Y052D03*
Y05239D03*
X03376Y05003D03*
Y05082D03*
Y05161D03*
Y052D03*
Y05239D03*
X03298Y04649D03*
X03298Y04688D03*
X03179Y04767D03*
Y04885D03*
Y05121D03*
Y05161D03*
Y052D03*
Y05239D03*
X0314Y04846D03*
Y05082D03*
Y05161D03*
Y052D03*
Y05239D03*
X03101Y04846D03*
Y05239D03*
Y052D03*
Y05121D03*
X03061Y04924D03*
Y04767D03*
X03062Y04649D03*
X03061Y052D03*
Y05161D03*
Y05121D03*
Y05003D03*
X03022Y04924D03*
Y04846D03*
Y05239D03*
Y052D03*
X02983Y04924D03*
X02983Y04649D03*
Y04964D03*
X02943Y04924D03*
Y04728D03*
X05073Y06278D03*
Y06719D03*
X05165Y06655D03*
Y06624D03*
X05134Y06687D03*
Y06655D03*
X05073Y06656D03*
Y06687D03*
X04976Y06655D03*
X05165Y06592D03*
X05134Y06561D03*
X04945Y06372D03*
Y06561D03*
Y06529D03*
X05134Y06718D03*
X05165Y0634D03*
X05134Y06277D03*
Y06246D03*
X05165Y06277D03*
X05134Y06498D03*
X04945Y06246D03*
Y0634D03*
X04884Y06656D03*
Y06498D03*
X04976Y06592D03*
X04945Y06718D03*
G54D212*
X04551Y04964D03*
X04343Y04029D03*
X02347Y04963D03*
X00238Y00225D03*
X05462Y00289D03*
X0551Y10381D03*
X00267Y10413D03*
G54D213*
X02081Y0546D03*
X02039D03*
X01996D03*
X02081Y05502D03*
X02039D03*
X01996D03*
X02081Y05544D03*
X02039D03*
X01996D03*
G54D214*
X00601Y0116D03*
Y0076D03*
X00615Y03136D03*
Y03576D03*
G54D215*
X00701Y0106D03*
X00501D03*
Y0126D03*
X00701D03*
Y0066D03*
X00501D03*
Y0086D03*
X00701D03*
X00715Y03236D03*
X00515D03*
Y03036D03*
X00715D03*
Y03676D03*
X00515D03*
Y03476D03*
X00715D03*
G54D216*
X00267Y06726D03*
Y06923D03*
Y0712D03*
Y07317D03*
G54D217*
X00327Y0995D03*
Y09476D03*
G54D218*
X00221Y09664D03*
Y09762D03*
X00142Y09664D03*
Y09762D03*
G54D219*
X00307Y05256D03*
Y05756D03*
G54D220*
X00407Y05366D03*
Y05446D03*
Y05526D03*
Y05606D03*
X00477Y05406D03*
Y05486D03*
Y05566D03*
Y05646D03*
X00667Y05686D03*
Y05776D03*
Y05326D03*
G54D221*
X00667Y05236D03*
G54D222*
X00628Y08178D03*
Y08343D03*
Y08508D03*
G54D223*
X00844Y08178D03*
Y08343D03*
Y08508D03*
G54D224*
X0034Y08508D03*
Y08178D03*
G54D225*
X01243Y00876D03*
X012D03*
X01243Y0092D03*
X012D03*
M02*