%FSTAX23Y23*%
%MOIN*%
%SFA1B1*%

%IPPOS*%
%ADD11C,0.010000*%
%ADD14C,0.005000*%
%ADD17C,0.006000*%
%ADD18C,0.006890*%
%ADD230C,0.001969*%
%ADD231C,0.003937*%
%ADD232C,0.002559*%
%LNprob_s7cas_pcb-1*%
%LPD*%
G54D11*
X00254Y09448D02*
D01*
X00255Y09445*
X00255Y09441*
X00256Y09438*
X00256Y09434*
X00257Y09431*
X00259Y09428*
X0026Y09425*
X00262Y09422*
X00264Y09419*
X00266Y09416*
X00268Y09413*
X00271Y09411*
X00274Y09409*
X00277Y09407*
X00279Y09405*
X00283Y09403*
X00286Y09402*
X00289Y09401*
X00292Y094*
X00296Y09399*
X00299Y09398*
X00303Y09398*
X00304Y09398*
X00351D02*
D01*
X00355Y09398*
X00358Y09399*
X00362Y09399*
X00365Y094*
X00368Y09401*
X00371Y09402*
X00375Y09404*
X00378Y09406*
X00381Y09408*
X00383Y0941*
X00386Y09412*
X00388Y09415*
X00391Y09417*
X00393Y0942*
X00394Y09423*
X00396Y09426*
X00397Y09429*
X00399Y09433*
X004Y09436*
X004Y09439*
X00401Y09443*
X00401Y09446*
X00401Y09448*
X0041Y09457D02*
D01*
X0041Y09457*
X00409Y09457*
X00408Y09457*
X00408Y09457*
X00407Y09457*
X00406Y09456*
X00406Y09456*
X00405Y09456*
X00405Y09455*
X00404Y09455*
X00404Y09455*
X00403Y09454*
X00403Y09454*
X00403Y09453*
X00402Y09453*
X00402Y09452*
X00402Y09452*
X00402Y09451*
X00401Y0945*
X00401Y0945*
X00401Y09449*
X00401Y09448*
X00401Y09448*
Y09978D02*
D01*
X00401Y09977*
X00401Y09977*
X00401Y09976*
X00401Y09976*
X00402Y09975*
X00402Y09974*
X00402Y09974*
X00402Y09973*
X00403Y09973*
X00403Y09972*
X00404Y09972*
X00404Y09971*
X00405Y09971*
X00405Y09971*
X00406Y0997*
X00406Y0997*
X00407Y0997*
X00407Y09969*
X00408Y09969*
X00409Y09969*
X00409Y09969*
X0041Y09969*
X0041Y09969*
X00401Y09978D02*
D01*
X00401Y09982*
X00401Y09985*
X004Y09988*
X00399Y09992*
X00398Y09995*
X00397Y09998*
X00395Y10002*
X00394Y10005*
X00392Y10007*
X00389Y1001*
X00387Y10013*
X00385Y10015*
X00382Y10017*
X00379Y10019*
X00376Y10021*
X00373Y10023*
X0037Y10024*
X00367Y10026*
X00363Y10027*
X0036Y10027*
X00356Y10028*
X00353Y10028*
X00351Y10028*
X00304D02*
D01*
X00301Y10028*
X00298Y10028*
X00294Y10027*
X00291Y10026*
X00287Y10025*
X00284Y10024*
X00281Y10022*
X00278Y1002*
X00275Y10018*
X00272Y10016*
X0027Y10014*
X00267Y10011*
X00265Y10009*
X00263Y10006*
X00261Y10003*
X0026Y1*
X00258Y09997*
X00257Y09993*
X00256Y0999*
X00255Y09987*
X00255Y09983*
X00254Y0998*
X00254Y09978*
X03069Y03265D02*
Y03365D01*
X03014Y03315D02*
X03124D01*
X03419Y029D02*
Y0373D01*
X02719Y029D02*
Y0373D01*
X02834Y029D02*
X03294D01*
X02719Y0373D02*
X03419D01*
X02719Y029D02*
X02834D01*
X03294D02*
X03419D01*
X03912Y09218D02*
Y09343D01*
Y08643D02*
Y08758D01*
X03082Y08643D02*
Y09343D01*
X03912Y08758D02*
Y09218D01*
X03082Y08643D02*
X03912D01*
X03082Y09343D02*
X03912D01*
X03497Y08938D02*
Y09048D01*
X03447Y08993D02*
X03547D01*
X04994Y08136D02*
X05094D01*
X05044Y08081D02*
Y08191D01*
X04629Y08486D02*
X05459D01*
X04629Y07786D02*
X05459D01*
Y07901D02*
Y08361D01*
X04629Y07786D02*
Y08486D01*
X05459Y07786D02*
Y07901D01*
Y08361D02*
Y08486D01*
X01285Y04502D02*
X01385D01*
X01335Y04447D02*
Y04557D01*
X0092Y04852D02*
X0175D01*
X0092Y04152D02*
X0175D01*
Y04267D02*
Y04727D01*
X0092Y04152D02*
Y04852D01*
X0175Y04152D02*
Y04267D01*
Y04727D02*
Y04852D01*
X02878Y06485D02*
Y0661D01*
Y0591D02*
Y06025D01*
X02048Y0591D02*
Y0661D01*
X02878Y06025D02*
Y06485D01*
X02048Y0591D02*
X02878D01*
X02048Y0661D02*
X02878D01*
X02463Y06205D02*
Y06315D01*
X02413Y0626D02*
X02513D01*
X00254Y09448D02*
Y09457D01*
X00304Y09398D02*
X00351D01*
X0041Y09457D02*
X00751D01*
Y09969*
X0041D02*
X00751D01*
X00304Y10028D02*
X00351D01*
X00254Y09969D02*
Y09978D01*
X00071Y09969D02*
X00254D01*
X00071Y09457D02*
Y09969D01*
Y09457D02*
X00254D01*
X01467Y01713D02*
X01567D01*
X01517Y01658D02*
Y01768D01*
X01042Y02001D02*
X01992D01*
X01042Y01426D02*
X01992D01*
Y02001*
X01042Y01426D02*
Y02001D01*
G54D14*
X04685Y04964D02*
D01*
X04684Y04974*
X04683Y04983*
X04682Y04992*
X0468Y05001*
X04677Y0501*
X04673Y05019*
X04669Y05027*
X04664Y05035*
X04659Y05043*
X04653Y0505*
X04647Y05057*
X04641Y05064*
X04633Y0507*
X04626Y05075*
X04618Y0508*
X0461Y05084*
X04601Y05088*
X04592Y05091*
X04583Y05094*
X04574Y05096*
X04565Y05097*
X04556Y05098*
X04546*
X04537Y05097*
X04528Y05096*
X04519Y05094*
X0451Y05091*
X04501Y05088*
X04492Y05084*
X04484Y0508*
X04476Y05075*
X04469Y0507*
X04461Y05064*
X04455Y05057*
X04448Y0505*
X04443Y05043*
X04437Y05035*
X04433Y05027*
X04429Y05019*
X04425Y0501*
X04422Y05001*
X0442Y04992*
X04418Y04983*
X04417Y04974*
X04417Y04964*
X04417Y04955*
X04418Y04946*
X0442Y04936*
X04422Y04927*
X04425Y04918*
X04429Y0491*
X04433Y04901*
X04437Y04893*
X04443Y04885*
X04448Y04878*
X04455Y04871*
X04461Y04865*
X04469Y04859*
X04476Y04853*
X04484Y04848*
X04492Y04844*
X04501Y0484*
X0451Y04837*
X04519Y04834*
X04528Y04832*
X04537Y04831*
X04546Y0483*
X04556*
X04565Y04831*
X04574Y04832*
X04583Y04834*
X04592Y04837*
X04601Y0484*
X0461Y04844*
X04618Y04848*
X04626Y04853*
X04633Y04859*
X04641Y04865*
X04647Y04871*
X04653Y04878*
X04659Y04885*
X04664Y04893*
X04669Y04901*
X04673Y0491*
X04677Y04918*
X0468Y04927*
X04682Y04936*
X04683Y04946*
X04684Y04955*
X04685Y04964*
X04476Y04029D02*
D01*
X04476Y04038*
X04475Y04047*
X04474Y04057*
X04471Y04066*
X04468Y04075*
X04465Y04083*
X04461Y04092*
X04456Y041*
X04451Y04107*
X04445Y04115*
X04439Y04122*
X04432Y04128*
X04425Y04134*
X04417Y0414*
X0441Y04145*
X04401Y04149*
X04393Y04153*
X04384Y04156*
X04375Y04159*
X04366Y04161*
X04357Y04162*
X04347Y04163*
X04338*
X04329Y04162*
X04319Y04161*
X0431Y04159*
X04301Y04156*
X04292Y04153*
X04284Y04149*
X04276Y04145*
X04268Y0414*
X0426Y04134*
X04253Y04128*
X04246Y04122*
X0424Y04115*
X04234Y04107*
X04229Y041*
X04224Y04092*
X0422Y04083*
X04217Y04075*
X04214Y04066*
X04212Y04057*
X0421Y04047*
X04209Y04038*
X04209Y04029*
X04209Y04019*
X0421Y0401*
X04212Y04001*
X04214Y03992*
X04217Y03983*
X0422Y03974*
X04224Y03966*
X04229Y03958*
X04234Y0395*
X0424Y03943*
X04246Y03936*
X04253Y03929*
X0426Y03923*
X04268Y03918*
X04276Y03913*
X04284Y03908*
X04292Y03905*
X04301Y03901*
X0431Y03899*
X04319Y03897*
X04329Y03896*
X04338Y03895*
X04347*
X04357Y03896*
X04366Y03897*
X04375Y03899*
X04384Y03901*
X04393Y03905*
X04401Y03908*
X0441Y03913*
X04417Y03918*
X04425Y03923*
X04432Y03929*
X04439Y03936*
X04445Y03943*
X04451Y0395*
X04456Y03958*
X04461Y03966*
X04465Y03974*
X04468Y03983*
X04471Y03992*
X04474Y04001*
X04475Y0401*
X04476Y04019*
X04476Y04029*
X02481Y04963D02*
D01*
X02481Y04972*
X0248Y04982*
X02478Y04991*
X02476Y05*
X02473Y05009*
X02469Y05017*
X02465Y05026*
X02461Y05034*
X02455Y05042*
X0245Y05049*
X02443Y05056*
X02437Y05062*
X0243Y05068*
X02422Y05074*
X02414Y05079*
X02406Y05083*
X02397Y05087*
X02389Y0509*
X0238Y05093*
X0237Y05095*
X02361Y05096*
X02352Y05097*
X02342*
X02333Y05096*
X02324Y05095*
X02315Y05093*
X02306Y0509*
X02297Y05087*
X02288Y05083*
X0228Y05079*
X02272Y05074*
X02265Y05068*
X02258Y05062*
X02251Y05056*
X02245Y05049*
X02239Y05042*
X02234Y05034*
X02229Y05026*
X02225Y05017*
X02221Y05009*
X02218Y05*
X02216Y04991*
X02215Y04982*
X02214Y04972*
X02213Y04963*
X02214Y04954*
X02215Y04944*
X02216Y04935*
X02218Y04926*
X02221Y04917*
X02225Y04908*
X02229Y049*
X02234Y04892*
X02239Y04884*
X02245Y04877*
X02251Y0487*
X02258Y04863*
X02265Y04857*
X02272Y04852*
X0228Y04847*
X02288Y04843*
X02297Y04839*
X02306Y04836*
X02315Y04833*
X02324Y04831*
X02333Y0483*
X02342Y04829*
X02352*
X02361Y0483*
X0237Y04831*
X0238Y04833*
X02389Y04836*
X02397Y04839*
X02406Y04843*
X02414Y04847*
X02422Y04852*
X0243Y04857*
X02437Y04863*
X02443Y0487*
X0245Y04877*
X02455Y04884*
X02461Y04892*
X02465Y049*
X02469Y04908*
X02473Y04917*
X02476Y04926*
X02478Y04935*
X0248Y04944*
X02481Y04954*
X02481Y04963*
X00372Y00225D02*
D01*
X00372Y00235*
X00371Y00244*
X00369Y00253*
X00367Y00262*
X00364Y00271*
X0036Y0028*
X00356Y00288*
X00352Y00296*
X00346Y00304*
X00341Y00311*
X00334Y00318*
X00328Y00325*
X0032Y00331*
X00313Y00336*
X00305Y00341*
X00297Y00346*
X00288Y00349*
X00279Y00353*
X0027Y00355*
X00261Y00357*
X00252Y00358*
X00243Y00359*
X00233*
X00224Y00358*
X00215Y00357*
X00206Y00355*
X00197Y00353*
X00188Y00349*
X00179Y00346*
X00171Y00341*
X00163Y00336*
X00156Y00331*
X00148Y00325*
X00142Y00318*
X00135Y00311*
X0013Y00304*
X00125Y00296*
X0012Y00288*
X00116Y0028*
X00112Y00271*
X00109Y00262*
X00107Y00253*
X00105Y00244*
X00105Y00235*
X00104Y00225*
X00105Y00216*
X00105Y00207*
X00107Y00197*
X00109Y00188*
X00112Y0018*
X00116Y00171*
X0012Y00162*
X00125Y00154*
X0013Y00147*
X00135Y00139*
X00142Y00132*
X00148Y00126*
X00156Y0012*
X00163Y00114*
X00171Y00109*
X00179Y00105*
X00188Y00101*
X00197Y00098*
X00206Y00095*
X00215Y00093*
X00224Y00092*
X00233Y00092*
X00243*
X00252Y00092*
X00261Y00093*
X0027Y00095*
X00279Y00098*
X00288Y00101*
X00297Y00105*
X00305Y00109*
X00313Y00114*
X0032Y0012*
X00328Y00126*
X00334Y00132*
X00341Y00139*
X00346Y00147*
X00352Y00154*
X00356Y00162*
X0036Y00171*
X00364Y0018*
X00367Y00188*
X00369Y00197*
X00371Y00207*
X00372Y00216*
X00372Y00225*
X05596Y00289D02*
D01*
X05596Y00298*
X05595Y00307*
X05593Y00316*
X05591Y00326*
X05588Y00334*
X05585Y00343*
X0558Y00351*
X05576Y0036*
X05571Y00367*
X05565Y00375*
X05559Y00382*
X05552Y00388*
X05545Y00394*
X05537Y004*
X05529Y00405*
X05521Y00409*
X05512Y00413*
X05504Y00416*
X05495Y00418*
X05486Y0042*
X05476Y00422*
X05467Y00422*
X05458*
X05448Y00422*
X05439Y0042*
X0543Y00418*
X05421Y00416*
X05412Y00413*
X05404Y00409*
X05395Y00405*
X05387Y004*
X0538Y00394*
X05373Y00388*
X05366Y00382*
X0536Y00375*
X05354Y00367*
X05349Y0036*
X05344Y00351*
X0534Y00343*
X05337Y00334*
X05334Y00326*
X05331Y00316*
X0533Y00307*
X05329Y00298*
X05328Y00289*
X05329Y00279*
X0533Y0027*
X05331Y00261*
X05334Y00252*
X05337Y00243*
X0534Y00234*
X05344Y00226*
X05349Y00218*
X05354Y0021*
X0536Y00203*
X05366Y00196*
X05373Y00189*
X0538Y00183*
X05387Y00178*
X05395Y00173*
X05404Y00168*
X05412Y00164*
X05421Y00161*
X0543Y00159*
X05439Y00157*
X05448Y00155*
X05458Y00155*
X05467*
X05476Y00155*
X05486Y00157*
X05495Y00159*
X05504Y00161*
X05512Y00164*
X05521Y00168*
X05529Y00173*
X05537Y00178*
X05545Y00183*
X05552Y00189*
X05559Y00196*
X05565Y00203*
X05571Y0021*
X05576Y00218*
X0558Y00226*
X05585Y00234*
X05588Y00243*
X05591Y00252*
X05593Y00261*
X05595Y0027*
X05596Y00279*
X05596Y00289*
X05643Y10381D02*
D01*
X05643Y10391*
X05642Y104*
X0564Y10409*
X05638Y10418*
X05635Y10427*
X05632Y10436*
X05628Y10444*
X05623Y10452*
X05618Y1046*
X05612Y10468*
X05606Y10474*
X05599Y10481*
X05592Y10487*
X05584Y10492*
X05576Y10497*
X05568Y10502*
X0556Y10506*
X05551Y10509*
X05542Y10511*
X05533Y10513*
X05523Y10515*
X05514Y10515*
X05505*
X05496Y10515*
X05486Y10513*
X05477Y10511*
X05468Y10509*
X05459Y10506*
X05451Y10502*
X05443Y10497*
X05435Y10492*
X05427Y10487*
X0542Y10481*
X05413Y10474*
X05407Y10468*
X05401Y1046*
X05396Y10452*
X05391Y10444*
X05387Y10436*
X05384Y10427*
X05381Y10418*
X05379Y10409*
X05377Y104*
X05376Y10391*
X05376Y10381*
X05376Y10372*
X05377Y10363*
X05379Y10354*
X05381Y10345*
X05384Y10336*
X05387Y10327*
X05391Y10319*
X05396Y10311*
X05401Y10303*
X05407Y10295*
X05413Y10289*
X0542Y10282*
X05427Y10276*
X05435Y10271*
X05443Y10266*
X05451Y10261*
X05459Y10257*
X05468Y10254*
X05477Y10252*
X05486Y1025*
X05496Y10248*
X05505Y10248*
X05514*
X05523Y10248*
X05533Y1025*
X05542Y10252*
X05551Y10254*
X0556Y10257*
X05568Y10261*
X05576Y10266*
X05584Y10271*
X05592Y10276*
X05599Y10282*
X05606Y10289*
X05612Y10295*
X05618Y10303*
X05623Y10311*
X05628Y10319*
X05632Y10327*
X05635Y10336*
X05638Y10345*
X0564Y10354*
X05642Y10363*
X05643Y10372*
X05643Y10381*
X00401Y10413D02*
D01*
X00401Y10422*
X004Y10432*
X00398Y10441*
X00396Y1045*
X00393Y10459*
X0039Y10468*
X00385Y10476*
X00381Y10484*
X00376Y10492*
X0037Y10499*
X00364Y10506*
X00357Y10513*
X0035Y10519*
X00342Y10524*
X00334Y10529*
X00326Y10533*
X00317Y10537*
X00309Y1054*
X003Y10543*
X00291Y10545*
X00281Y10546*
X00272Y10547*
X00263*
X00253Y10546*
X00244Y10545*
X00235Y10543*
X00226Y1054*
X00217Y10537*
X00209Y10533*
X002Y10529*
X00192Y10524*
X00185Y10519*
X00178Y10513*
X00171Y10506*
X00165Y10499*
X00159Y10492*
X00154Y10484*
X00149Y10476*
X00145Y10468*
X00142Y10459*
X00139Y1045*
X00136Y10441*
X00135Y10432*
X00134Y10422*
X00133Y10413*
X00134Y10404*
X00135Y10394*
X00136Y10385*
X00139Y10376*
X00142Y10367*
X00145Y10359*
X00149Y1035*
X00154Y10342*
X00159Y10334*
X00165Y10327*
X00171Y1032*
X00178Y10314*
X00185Y10308*
X00192Y10302*
X002Y10297*
X00209Y10293*
X00217Y10289*
X00226Y10286*
X00235Y10283*
X00244Y10281*
X00253Y1028*
X00263Y10279*
X00272*
X00281Y1028*
X00291Y10281*
X003Y10283*
X00309Y10286*
X00317Y10289*
X00326Y10293*
X00334Y10297*
X00342Y10302*
X0035Y10308*
X00357Y10314*
X00364Y1032*
X0037Y10327*
X00376Y10334*
X00381Y10342*
X00385Y1035*
X0039Y10359*
X00393Y10367*
X00396Y10376*
X00398Y10385*
X004Y10394*
X00401Y10404*
X00401Y10413*
X04531Y04964D02*
X04571D01*
X04551Y04944D02*
Y04984D01*
X04323Y04029D02*
X04363D01*
X04343Y04009D02*
Y04049D01*
X02327Y04963D02*
X02367D01*
X02347Y04943D02*
Y04983D01*
X02561Y01733D02*
X02581D01*
X02601*
X02581Y01713D02*
Y01753D01*
X02451Y01524D02*
Y01942D01*
X02711*
Y01524D02*
Y01942D01*
X02451Y01524D02*
X02711D01*
X04054Y07686D02*
Y08211D01*
X04491*
Y07686D02*
Y08211D01*
X04054Y07686D02*
X04491D01*
X03837Y07492D02*
Y07832D01*
X03537D02*
X03837D01*
X03537Y07492D02*
Y07832D01*
Y07492D02*
X03837D01*
X03687Y07622D02*
Y07702D01*
X03647Y07662D02*
X03727D01*
X04006Y09171D02*
X04443D01*
X04006Y08646D02*
Y09171D01*
Y08646D02*
X04443D01*
Y09171*
X02501Y08515D02*
X02938D01*
Y0904*
X02501D02*
X02938D01*
X02501Y08515D02*
Y0904D01*
X03602Y0305D02*
X04039D01*
Y03575*
X03602D02*
X04039D01*
X03602Y0305D02*
Y03575D01*
X02313Y03844D02*
Y04281D01*
Y03844D02*
X02838D01*
Y04281*
X02313D02*
X02838D01*
X02091Y06725D02*
Y07162D01*
Y06725D02*
X02616D01*
Y07162*
X02091D02*
X02616D01*
X03032Y06467D02*
X03469D01*
X03032Y05942D02*
Y06467D01*
Y05942D02*
X03469D01*
Y06467*
X04668Y07346D02*
Y07783D01*
Y07346D02*
X05193D01*
Y07783*
X04668D02*
X05193D01*
X00218Y00225D02*
X00258D01*
X00238Y00205D02*
Y00245D01*
X05442Y00289D02*
X05482D01*
X05462Y00269D02*
Y00309D01*
X0549Y10381D02*
X0553D01*
X0551Y10361D02*
Y10401D01*
X00247Y10413D02*
X00287D01*
X00267Y10393D02*
Y10433D01*
X01024Y08703D02*
Y0885D01*
X00886Y08703D02*
Y0885D01*
X01024*
X00886Y08703D02*
X01024D01*
X01159Y07802D02*
Y08239D01*
Y07802D02*
X01684D01*
Y08239*
X01159D02*
X01684D01*
X01159Y08241D02*
Y08678D01*
Y08241D02*
X01684D01*
Y08678*
X01159D02*
X01684D01*
X01949Y09339D02*
Y10154D01*
Y09339D02*
X02055Y09232D01*
X02925*
Y10154*
X01949D02*
X02925D01*
X02418Y09693D02*
X02457D01*
X02437Y09673D02*
Y09713D01*
X01892Y05135D02*
X01931D01*
X01912Y05115D02*
Y05154D01*
X00986Y071D02*
Y07346D01*
X00809Y071D02*
Y07346D01*
X00986*
X00809Y071D02*
X00986D01*
X00809Y067D02*
Y06946D01*
X00986Y067D02*
Y06946D01*
X00809Y067D02*
X00986D01*
X00809Y06946D02*
X00986D01*
X0191Y04591D02*
X02347D01*
X0191Y04066D02*
Y04591D01*
Y04066D02*
X02347D01*
Y04591*
X01656Y02155D02*
Y02592D01*
X01131D02*
X01656D01*
X01131Y02155D02*
Y02592D01*
Y02155D02*
X01656D01*
X00801Y04161D02*
Y04686D01*
X00364Y04161D02*
X00801D01*
X00364D02*
Y04686D01*
X00801*
X00807Y01034D02*
Y01099D01*
X00757Y01034D02*
X00807D01*
X00757D02*
Y01099D01*
X00807*
X00811Y00661D02*
Y00726D01*
X00761Y00661D02*
X00811D01*
X00761D02*
Y00726D01*
X00811*
X00791Y03122D02*
X0084D01*
X00791Y03057D02*
Y03122D01*
Y03057D02*
X0084D01*
Y03122*
X00795Y03562D02*
X00844D01*
X00795Y03497D02*
Y03562D01*
Y03497D02*
X00844D01*
Y03562*
X04857Y00249D02*
Y00289D01*
X04837Y00269D02*
X04877D01*
X04787Y00339D02*
X04927D01*
Y00199D02*
Y00339D01*
X04787Y00199D02*
X04927D01*
X04787D02*
Y00339D01*
X00942Y09236D02*
Y09276D01*
X00922Y09256D02*
X00962D01*
X00872Y09326D02*
X01012D01*
Y09186D02*
Y09326D01*
X00872Y09186D02*
X01012D01*
X00872D02*
Y09326D01*
X0463Y1023D02*
Y1027D01*
X0461Y1025D02*
X0465D01*
X0456Y1032D02*
X047D01*
Y1018D02*
Y1032D01*
X0456Y1018D02*
X047D01*
X0456D02*
Y1032D01*
X00308Y09713D02*
X00347D01*
X00327Y09693D02*
Y09733D01*
X00489Y06756D02*
X00666D01*
X00489Y0651D02*
X00666D01*
Y06756*
X00489Y0651D02*
Y06756D01*
Y07284D02*
X00666D01*
X00489Y0753D02*
X00666D01*
X00489Y07284D02*
Y0753D01*
X00666Y07284D02*
Y0753D01*
X00867Y09673D02*
Y09713D01*
X00848Y09693D02*
X00887D01*
X00824Y0965D02*
X00911D01*
X00824Y09736D02*
X00911D01*
Y0965D02*
Y09736D01*
X00824Y0965D02*
Y09736D01*
X01215Y08722D02*
X01392D01*
X01215Y08968D02*
X01392D01*
X01215Y08722D02*
Y08968D01*
X01392Y08722D02*
Y08968D01*
X0039Y01565D02*
Y0209D01*
X00827*
Y01565D02*
Y0209D01*
X0039Y01565D02*
X00827D01*
X01125Y09571D02*
Y10019D01*
Y09571D02*
X0159D01*
Y10019*
X01125D02*
X0159D01*
X01349Y09789D02*
X01365D01*
X01357Y09781D02*
Y09797D01*
X02991Y01524D02*
X03251D01*
Y01942*
X02991D02*
X03251D01*
X02991Y01524D02*
Y01942D01*
X03121Y01713D02*
Y01753D01*
Y01733D02*
X03141D01*
X03101D02*
X03121D01*
X03771Y01753D02*
X03791D01*
X03811*
X03791Y01733D02*
Y01773D01*
X03661Y01544D02*
Y01962D01*
X03921*
Y01544D02*
Y01962D01*
X03661Y01544D02*
X03921D01*
X0073Y06124D02*
Y06561D01*
Y06124D02*
X01255D01*
Y06561*
X0073D02*
X01255D01*
G54D17*
X01852Y05079D02*
Y0519D01*
X01971Y05079D02*
Y0519D01*
X01852Y05079D02*
X01971D01*
X01852Y0519D02*
X01971D01*
G54D18*
X01767Y08416D02*
Y09006D01*
X02187Y08416D02*
Y09006D01*
X01977Y08796D02*
X02007D01*
X01977D02*
Y08826D01*
X01947Y08796D02*
X01977D01*
X01767Y08416D02*
X02187D01*
X01767Y09006D02*
X02187D01*
X01977Y08766D02*
Y08796D01*
X00291Y02183D02*
X00881D01*
X00291Y02603D02*
X00881D01*
X00501Y02393D02*
Y02423D01*
X00471Y02393D02*
X00501D01*
Y02363D02*
Y02393D01*
X00881Y02183D02*
Y02603D01*
X00291Y02183D02*
Y02603D01*
X00501Y02393D02*
X00531D01*
X00555Y08855D02*
Y08875D01*
X00535D02*
X00555D01*
Y08895*
Y08875D02*
X00575D01*
X0032Y0876D02*
Y0899D01*
Y0876D02*
X0079D01*
Y0899*
X0032D02*
X0079D01*
G54D230*
X02635Y07431D02*
Y07835D01*
X03039Y07431D02*
Y07835D01*
X02635D02*
X03039D01*
X02635Y07431D02*
X03039D01*
X04173Y0337D02*
X04421D01*
X04173Y03512D02*
X04421D01*
Y0337D02*
Y03512D01*
X04173Y0337D02*
Y03512D01*
X0531Y06946D02*
Y07088D01*
X05476Y06946D02*
Y07088D01*
X0531D02*
X05476D01*
X0531Y06946D02*
X05476D01*
X03654Y06775D02*
X0402D01*
X03654Y07011D02*
X0402D01*
Y06775D02*
Y07011D01*
X03654Y06775D02*
Y07011D01*
X01205Y0688D02*
Y07187D01*
X0161Y0688D02*
Y07187D01*
X01205Y0688D02*
X0161D01*
X01205Y07187D02*
X0161D01*
X01614Y01097D02*
X01883D01*
X01614Y01317D02*
X01883D01*
Y01097D02*
Y01317D01*
X01614Y01097D02*
Y01317D01*
Y00253D02*
X01883D01*
X01614Y00473D02*
X01883D01*
Y00253D02*
Y00473D01*
X01614Y00253D02*
Y00473D01*
X01613Y00474D02*
X01883D01*
X01613Y00694D02*
X01883D01*
Y00474D02*
Y00694D01*
X01613Y00474D02*
Y00694D01*
X02266Y01113D02*
X02669D01*
X02266Y0071D02*
X02669D01*
Y01113*
X02266Y0071D02*
Y01113D01*
X00749Y01013D02*
Y01307D01*
X0014D02*
X00749D01*
X0014Y01013D02*
X00749D01*
X0014D02*
Y01307D01*
X00749Y00613D02*
Y00907D01*
X0014D02*
X00749D01*
X0014Y00613D02*
X00749D01*
X0014D02*
Y00907D01*
X01105Y00782D02*
X01338D01*
X01105Y01014D02*
X01338D01*
Y00782D02*
Y01014D01*
X01105Y00782D02*
Y01014D01*
X01614Y00878D02*
X01883D01*
X01614Y01098D02*
X01883D01*
Y00878D02*
Y01098D01*
X01614Y00878D02*
Y01098D01*
X02154Y03318D02*
X0248D01*
X02154Y03645D02*
X0248D01*
X02154Y03318D02*
Y03645D01*
X0248Y03318D02*
Y03645D01*
X01636Y02775D02*
Y02996D01*
X01366Y02775D02*
Y02996D01*
Y02775D02*
X01636D01*
X01366Y02996D02*
X01636D01*
X0165Y03426D02*
Y03647D01*
X01381Y03426D02*
Y03647D01*
Y03426D02*
X0165D01*
X01381Y03647D02*
X0165D01*
X01015Y03214D02*
Y03468D01*
X01161Y03214D02*
Y03468D01*
X01015Y03214D02*
X01161D01*
X01015Y03468D02*
X01161D01*
X0165Y0365D02*
Y03871D01*
X01381Y0365D02*
Y03871D01*
Y0365D02*
X0165D01*
X01381Y03871D02*
X0165D01*
X01636Y03002D02*
Y03222D01*
X01366Y03002D02*
Y03222D01*
Y03002D02*
X01636D01*
X01366Y03222D02*
X01636D01*
X01486Y05278D02*
Y05774D01*
X00998Y05278D02*
Y05774D01*
Y05278D02*
X01486D01*
X00998Y05774D02*
X01486D01*
X00154Y02988D02*
Y03283D01*
Y02988D02*
X00763D01*
X00154Y03283D02*
X00763D01*
Y02988D02*
Y03283D01*
X00154Y03428D02*
Y03723D01*
Y03428D02*
X00763D01*
X00154Y03723D02*
X00763D01*
Y03428D02*
Y03723D01*
X01389Y09256D02*
X01716D01*
X01389Y09441D02*
X01716D01*
Y09256D02*
Y09441D01*
X01389Y09256D02*
Y09441D01*
G54D231*
X02817Y07633D02*
X02857D01*
X02837Y07613D02*
Y07653D01*
X04297Y03421D02*
Y03461D01*
X04278Y03441D02*
X04317D01*
X05374Y07017D02*
X05413D01*
X05393Y06997D02*
Y07036D01*
X03837Y06873D02*
Y06913D01*
X03818Y06893D02*
X03857D01*
X01084Y08893D02*
X01124D01*
X01104Y08873D02*
Y08912D01*
X01136Y08834D02*
Y0895D01*
X01073Y08834D02*
Y0895D01*
X01136*
X01073Y08834D02*
X01136D01*
X00886Y08871D02*
X01024D01*
X00886Y09023D02*
X01024D01*
X00886Y08871D02*
Y09023D01*
X01024Y08871D02*
Y09023D01*
X00955Y08927D02*
Y08967D01*
X00935Y08947D02*
X00975D01*
X00935Y08776D02*
X00975D01*
X00955Y08757D02*
Y08796D01*
X01388Y07033D02*
X01427D01*
X01407Y07013D02*
Y07053D01*
X00878Y07223D02*
X00917D01*
X00897Y07203D02*
Y07243D01*
X00878Y06823D02*
X00917D01*
X00897Y06803D02*
Y06843D01*
X00751Y05402D02*
X00893D01*
X00751Y05556D02*
X00893D01*
X00751Y05402D02*
Y05556D01*
X00893Y05402D02*
Y05556D01*
X00822Y05459D02*
Y05499D01*
X00802Y05479D02*
X00842D01*
X00362Y05003D02*
Y05144D01*
X00515Y05003D02*
Y05144D01*
X00362D02*
X00515D01*
X00362Y05003D02*
X00515D01*
X00419Y05074D02*
X00458D01*
X00439Y05054D02*
Y05093D01*
X01749Y01187D02*
Y01227D01*
X01729Y01207D02*
X01768D01*
X01749Y00343D02*
Y00383D01*
X01729Y00363D02*
X01768D01*
X01748Y00564D02*
Y00603D01*
X01729Y00584D02*
X01768D01*
X02468Y00892D02*
Y00931D01*
X02448Y00912D02*
X02487D01*
X00601Y0114D02*
Y0118D01*
X00582Y0116D02*
X00621D01*
X00601Y0074D02*
Y0078D01*
X00582Y0076D02*
X00621D01*
X01221Y00878D02*
Y00918D01*
X01202Y00898D02*
X01241D01*
X01749Y00968D02*
Y01007D01*
X01729Y00988D02*
X01768D01*
X02317Y03462D02*
Y03501D01*
X02297Y03482D02*
X02337D01*
X01481Y02885D02*
X01521D01*
X01501Y02866D02*
Y02905D01*
X01496Y03536D02*
X01535D01*
X01515Y03517D02*
Y03556D01*
X01069Y03341D02*
X01108D01*
X01088Y03321D02*
Y03361D01*
X01496Y03761D02*
X01535D01*
X01515Y03741D02*
Y0378D01*
X01481Y03112D02*
X01521D01*
X01501Y03092D02*
Y03131D01*
X01222Y05526D02*
X01262D01*
X01242Y05506D02*
Y05545D01*
X00596Y03136D02*
X00635D01*
X00615Y03116D02*
Y03155D01*
X00596Y03576D02*
X00635D01*
X00615Y03556D02*
Y03595D01*
X0011Y07439D02*
X00464D01*
X0011Y06604D02*
Y07439D01*
X00256Y07317D02*
X00278D01*
X00267Y07306D02*
Y07328D01*
X00464Y06604D02*
Y07439D01*
X0011Y06604D02*
X00464D01*
X00107Y05171D02*
X00707D01*
Y05836*
X00107Y05171D02*
Y05836D01*
X00707*
X00447Y08323D02*
Y08363D01*
X00428Y08343D02*
X00467D01*
X00072Y08048D02*
Y08623D01*
Y08048D02*
X00917D01*
Y08623*
X00072D02*
X00917D01*
X00577Y06613D02*
Y06653D01*
X00558Y06633D02*
X00597D01*
X00577Y07388D02*
Y07427D01*
X00558Y07407D02*
X00597D01*
X01303Y08825D02*
Y08864D01*
X01284Y08845D02*
X01323D01*
X01552Y09329D02*
Y09368D01*
X01533Y09349D02*
X01572D01*
X02415Y02581D02*
Y02644D01*
X02299Y02581D02*
Y02644D01*
Y02581D02*
X02415D01*
X02299Y02644D02*
X02415D01*
X02336Y02612D02*
X02376D01*
X02356Y02593D02*
Y02632D01*
X02416Y0237D02*
Y02433D01*
X023Y0237D02*
Y02433D01*
Y0237D02*
X02416D01*
X023Y02433D02*
X02416D01*
X02338Y02401D02*
X02377D01*
X02357Y02382D02*
Y02421D01*
X02067Y02591D02*
Y02654D01*
X01951Y02591D02*
Y02654D01*
Y02591D02*
X02067D01*
X01951Y02654D02*
X02067D01*
X01989Y02622D02*
X02028D01*
X02008Y02603D02*
Y02642D01*
X02066Y02361D02*
Y02424D01*
X0195Y02361D02*
Y02424D01*
Y02361D02*
X02066D01*
X0195Y02424D02*
X02066D01*
X01987Y02392D02*
X02026D01*
X02007Y02373D02*
Y02412D01*
G54D232*
X00782Y01062D02*
Y0107D01*
X00778Y01066D02*
X00786D01*
Y0069D02*
Y00698D01*
X00782Y00694D02*
X0079D01*
X00812Y03089D02*
X00819D01*
X00815Y03085D02*
Y03093D01*
Y03529D02*
X00823D01*
X00819Y03525D02*
Y03533D01*
M02*