%FSTAX23Y23*%
%MOIN*%
%SFA1B1*%

%IPPOS*%
%AMD33*
4,1,8,-0.021500,0.019500,-0.021500,-0.019500,-0.013500,-0.027500,0.013500,-0.027500,0.021500,-0.019500,0.021500,0.019500,0.013500,0.027500,-0.013500,0.027500,-0.021500,0.019500,0.0*
1,1,0.015913,-0.013500,0.019500*
1,1,0.015913,-0.013500,-0.019500*
1,1,0.015913,0.013500,-0.019500*
1,1,0.015913,0.013500,0.019500*
%
%AMD36*
4,1,8,-0.049200,0.062000,-0.049200,-0.062000,-0.024600,-0.086600,0.024600,-0.086600,0.049200,-0.062000,0.049200,0.062000,0.024600,0.086600,-0.024600,0.086600,-0.049200,0.062000,0.0*
1,1,0.049213,-0.024600,0.062000*
1,1,0.049213,-0.024600,-0.062000*
1,1,0.049213,0.024600,-0.062000*
1,1,0.049213,0.024600,0.062000*
%
%AMD37*
4,1,8,-0.004000,-0.010000,0.004000,-0.010000,0.010000,-0.004000,0.010000,0.004000,0.004000,0.010000,-0.004000,0.010000,-0.010000,0.004000,-0.010000,-0.004000,-0.004000,-0.010000,0.0*
1,1,0.012000,-0.004000,-0.004000*
1,1,0.012000,0.004000,-0.004000*
1,1,0.012000,0.004000,0.004000*
1,1,0.012000,-0.004000,0.004000*
%
%AMD40*
4,1,8,-0.017500,0.051500,-0.017500,-0.051500,-0.008800,-0.060200,0.008800,-0.060200,0.017500,-0.051500,0.017500,0.051500,0.008800,0.060200,-0.008800,0.060200,-0.017500,0.051500,0.0*
1,1,0.017520,-0.008800,0.051500*
1,1,0.017520,-0.008800,-0.051500*
1,1,0.017520,0.008800,-0.051500*
1,1,0.017520,0.008800,0.051500*
%
%AMD41*
4,1,8,0.023500,-0.027500,0.023500,0.027500,0.015500,0.035500,-0.015500,0.035500,-0.023500,0.027500,-0.023500,-0.027500,-0.015500,-0.035500,0.015500,-0.035500,0.023500,-0.027500,0.0*
1,1,0.015984,0.015500,-0.027500*
1,1,0.015984,0.015500,0.027500*
1,1,0.015984,-0.015500,0.027500*
1,1,0.015984,-0.015500,-0.027500*
%
%AMD42*
4,1,8,0.010000,-0.004000,0.010000,0.004000,0.004000,0.010000,-0.004000,0.010000,-0.010000,0.004000,-0.010000,-0.004000,-0.004000,-0.010000,0.004000,-0.010000,0.010000,-0.004000,0.0*
1,1,0.012000,0.004000,-0.004000*
1,1,0.012000,0.004000,0.004000*
1,1,0.012000,-0.004000,0.004000*
1,1,0.012000,-0.004000,-0.004000*
%
%AMD43*
4,1,8,0.027500,0.023500,-0.027500,0.023500,-0.035500,0.015500,-0.035500,-0.015500,-0.027500,-0.023500,0.027500,-0.023500,0.035500,-0.015500,0.035500,0.015500,0.027500,0.023500,0.0*
1,1,0.015984,0.027500,0.015500*
1,1,0.015984,-0.027500,0.015500*
1,1,0.015984,-0.027500,-0.015500*
1,1,0.015984,0.027500,-0.015500*
%
%AMD45*
4,1,8,0.066900,0.066900,-0.066900,0.066900,-0.066900,0.066900,-0.066900,-0.066900,-0.066900,-0.066900,0.066900,-0.066900,0.066900,-0.066900,0.066900,0.066900,0.066900,0.066900,0.0*
1,1,0.000000,0.066900,0.066900*
1,1,0.000000,-0.066900,0.066900*
1,1,0.000000,-0.066900,-0.066900*
1,1,0.000000,0.066900,-0.066900*
%
%AMD52*
4,1,8,0.062000,0.049200,-0.062000,0.049200,-0.086600,0.024600,-0.086600,-0.024600,-0.062000,-0.049200,0.062000,-0.049200,0.086600,-0.024600,0.086600,0.024600,0.062000,0.049200,0.0*
1,1,0.049213,0.062000,0.024600*
1,1,0.049213,-0.062000,0.024600*
1,1,0.049213,-0.062000,-0.024600*
1,1,0.049213,0.062000,-0.024600*
%
%AMD53*
4,1,8,0.029500,-0.037400,0.029500,0.037400,0.017700,0.049200,-0.017700,0.049200,-0.029500,0.037400,-0.029500,-0.037400,-0.017700,-0.049200,0.017700,-0.049200,0.029500,-0.037400,0.0*
1,1,0.023622,0.017700,-0.037400*
1,1,0.023622,0.017700,0.037400*
1,1,0.023622,-0.017700,0.037400*
1,1,0.023622,-0.017700,-0.037400*
%
%AMD54*
4,1,8,0.037400,0.029500,-0.037400,0.029500,-0.049200,0.017700,-0.049200,-0.017700,-0.037400,-0.029500,0.037400,-0.029500,0.049200,-0.017700,0.049200,0.017700,0.037400,0.029500,0.0*
1,1,0.023622,0.037400,0.017700*
1,1,0.023622,-0.037400,0.017700*
1,1,0.023622,-0.037400,-0.017700*
1,1,0.023622,0.037400,-0.017700*
%
%AMD55*
4,1,8,0.019500,0.021500,-0.019500,0.021500,-0.027500,0.013500,-0.027500,-0.013500,-0.019500,-0.021500,0.019500,-0.021500,0.027500,-0.013500,0.027500,0.013500,0.019500,0.021500,0.0*
1,1,0.015913,0.019500,0.013500*
1,1,0.015913,-0.019500,0.013500*
1,1,0.015913,-0.019500,-0.013500*
1,1,0.015913,0.019500,-0.013500*
%
%AMD57*
4,1,8,-0.011800,0.002800,-0.011800,-0.002800,-0.009900,-0.004700,0.009900,-0.004700,0.011800,-0.002800,0.011800,0.002800,0.009900,0.004700,-0.009900,0.004700,-0.011800,0.002800,0.0*
1,1,0.003874,-0.009900,0.002800*
1,1,0.003874,-0.009900,-0.002800*
1,1,0.003874,0.009900,-0.002800*
1,1,0.003874,0.009900,0.002800*
%
%AMD58*
4,1,8,0.017000,-0.011600,0.017000,0.011600,0.011100,0.017500,-0.011100,0.017500,-0.017000,0.011600,-0.017000,-0.011600,-0.011100,-0.017500,0.011100,-0.017500,0.017000,-0.011600,0.0*
1,1,0.011898,0.011100,-0.011600*
1,1,0.011898,0.011100,0.011600*
1,1,0.011898,-0.011100,0.011600*
1,1,0.011898,-0.011100,-0.011600*
%
%AMD59*
4,1,8,0.011600,0.017000,-0.011600,0.017000,-0.017500,0.011100,-0.017500,-0.011100,-0.011600,-0.017000,0.011600,-0.017000,0.017500,-0.011100,0.017500,0.011100,0.011600,0.017000,0.0*
1,1,0.011898,0.011600,0.011100*
1,1,0.011898,-0.011600,0.011100*
1,1,0.011898,-0.011600,-0.011100*
1,1,0.011898,0.011600,-0.011100*
%
%AMD61*
4,1,8,-0.011800,-0.015700,0.011800,-0.015700,0.019700,-0.007900,0.019700,0.007900,0.011800,0.015700,-0.011800,0.015700,-0.019700,0.007900,-0.019700,-0.007900,-0.011800,-0.015700,0.0*
1,1,0.015748,-0.011800,-0.007900*
1,1,0.015748,0.011800,-0.007900*
1,1,0.015748,0.011800,0.007900*
1,1,0.015748,-0.011800,0.007900*
%
%AMD62*
4,1,8,-0.012600,-0.016700,0.012600,-0.016700,0.014800,-0.014600,0.014800,0.014600,0.012600,0.016700,-0.012600,0.016700,-0.014800,0.014600,-0.014800,-0.014600,-0.012600,-0.016700,0.0*
1,1,0.004331,-0.012600,-0.014600*
1,1,0.004331,0.012600,-0.014600*
1,1,0.004331,0.012600,0.014600*
1,1,0.004331,-0.012600,0.014600*
%
%AMD63*
4,1,8,-0.007900,-0.018700,0.007900,-0.018700,0.014800,-0.011800,0.014800,0.011800,0.007900,0.018700,-0.007900,0.018700,-0.014800,0.011800,-0.014800,-0.011800,-0.007900,-0.018700,0.0*
1,1,0.013780,-0.007900,-0.011800*
1,1,0.013780,0.007900,-0.011800*
1,1,0.013780,0.007900,0.011800*
1,1,0.013780,-0.007900,0.011800*
%
%AMD66*
4,1,8,0.006400,0.015700,-0.006400,0.015700,-0.011800,0.010300,-0.011800,-0.010300,-0.006400,-0.015700,0.006400,-0.015700,0.011800,-0.010300,0.011800,0.010300,0.006400,0.015700,0.0*
1,1,0.010827,0.006400,0.010300*
1,1,0.010827,-0.006400,0.010300*
1,1,0.010827,-0.006400,-0.010300*
1,1,0.010827,0.006400,-0.010300*
%
%AMD68*
4,1,8,-0.023200,-0.042500,0.023200,-0.042500,0.044500,-0.021300,0.044500,0.021300,0.023200,0.042500,-0.023200,0.042500,-0.044500,0.021300,-0.044500,-0.021300,-0.023200,-0.042500,0.0*
1,1,0.042520,-0.023200,-0.021300*
1,1,0.042520,0.023200,-0.021300*
1,1,0.042520,0.023200,0.021300*
1,1,0.042520,-0.023200,0.021300*
%
%AMD73*
4,1,8,-0.051500,-0.017500,0.051500,-0.017500,0.060200,-0.008800,0.060200,0.008800,0.051500,0.017500,-0.051500,0.017500,-0.060200,0.008800,-0.060200,-0.008800,-0.051500,-0.017500,0.0*
1,1,0.017520,-0.051500,-0.008800*
1,1,0.017520,0.051500,-0.008800*
1,1,0.017520,0.051500,0.008800*
1,1,0.017520,-0.051500,0.008800*
%
%AMD79*
4,1,8,0.012800,-0.005900,0.012800,0.005900,0.011800,0.006900,-0.011800,0.006900,-0.012800,0.005900,-0.012800,-0.005900,-0.011800,-0.006900,0.011800,-0.006900,0.012800,-0.005900,0.0*
1,1,0.001969,0.011800,-0.005900*
1,1,0.001969,0.011800,0.005900*
1,1,0.001969,-0.011800,0.005900*
1,1,0.001969,-0.011800,-0.005900*
%
%AMD87*
4,1,8,-0.007900,0.003000,-0.007900,-0.003000,-0.005900,-0.004900,0.005900,-0.004900,0.007900,-0.003000,0.007900,0.003000,0.005900,0.004900,-0.005900,0.004900,-0.007900,0.003000,0.0*
1,1,0.003937,-0.005900,0.003000*
1,1,0.003937,-0.005900,-0.003000*
1,1,0.003937,0.005900,-0.003000*
1,1,0.003937,0.005900,0.003000*
%
%AMD93*
4,1,8,0.015700,-0.011800,0.015700,0.011800,0.007900,0.019700,-0.007900,0.019700,-0.015700,0.011800,-0.015700,-0.011800,-0.007900,-0.019700,0.007900,-0.019700,0.015700,-0.011800,0.0*
1,1,0.015748,0.007900,-0.011800*
1,1,0.015748,0.007900,0.011800*
1,1,0.015748,-0.007900,0.011800*
1,1,0.015748,-0.007900,-0.011800*
%
%ADD30R,0.101378X0.106693*%
%ADD31R,0.203149X0.122047*%
%ADD32R,0.106693X0.101378*%
G04~CAMADD=33~8~0.0~0.0~550.0~430.0~79.6~0.0~15~0.0~0.0~0.0~0.0~0~0.0~0.0~0.0~0.0~0~0.0~0.0~0.0~90.0~430.0~550.0*
%ADD33D33*%
%ADD34R,0.053150X0.106299*%
%ADD35C,0.085000*%
G04~CAMADD=36~8~0.0~0.0~1732.3~984.3~246.1~0.0~15~0.0~0.0~0.0~0.0~0~0.0~0.0~0.0~0.0~0~0.0~0.0~0.0~90.0~984.0~1732.0*
%ADD36D36*%
G04~CAMADD=37~8~0.0~0.0~200.0~200.0~60.0~0.0~15~0.0~0.0~0.0~0.0~0~0.0~0.0~0.0~0.0~0~0.0~0.0~0.0~180.0~200.0~200.0*
%ADD37D37*%
%ADD38C,0.017716*%
%ADD39R,0.037401X0.019685*%
G04~CAMADD=40~8~0.0~0.0~1204.7~350.4~87.6~0.0~15~0.0~0.0~0.0~0.0~0~0.0~0.0~0.0~0.0~0~0.0~0.0~0.0~90.0~350.0~1204.0*
%ADD40D40*%
G04~CAMADD=41~8~0.0~0.0~710.0~470.0~79.9~0.0~15~0.0~0.0~0.0~0.0~0~0.0~0.0~0.0~0.0~0~0.0~0.0~0.0~270.0~470.0~710.0*
%ADD41D41*%
G04~CAMADD=42~8~0.0~0.0~200.0~200.0~60.0~0.0~15~0.0~0.0~0.0~0.0~0~0.0~0.0~0.0~0.0~0~0.0~0.0~0.0~270.0~200.0~200.0*
%ADD42D42*%
G04~CAMADD=43~8~0.0~0.0~710.0~470.0~79.9~0.0~15~0.0~0.0~0.0~0.0~0~0.0~0.0~0.0~0.0~0~0.0~0.0~0.0~0.0~710.0~470.0*
%ADD43D43*%
%ADD44R,0.031496X0.009843*%
G04~CAMADD=45~8~0.0~0.0~1338.6~1338.6~0.0~0.0~15~0.0~0.0~0.0~0.0~0~0.0~0.0~0.0~0.0~0~0.0~0.0~0.0~0.0~1338.6~1338.6*
%ADD45D45*%
%ADD46R,0.009843X0.031496*%
%ADD47O,0.031496X0.009055*%
%ADD48O,0.009055X0.031496*%
%ADD49R,0.291338X0.291338*%
%ADD50R,0.074803X0.059055*%
%ADD51O,0.053150X0.011811*%
G04~CAMADD=52~8~0.0~0.0~1732.3~984.3~246.1~0.0~15~0.0~0.0~0.0~0.0~0~0.0~0.0~0.0~0.0~0~0.0~0.0~0.0~0.0~1732.3~984.3*
%ADD52D52*%
G04~CAMADD=53~8~0.0~0.0~984.3~590.6~118.1~0.0~15~0.0~0.0~0.0~0.0~0~0.0~0.0~0.0~0.0~0~0.0~0.0~0.0~270.0~590.0~984.0*
%ADD53D53*%
G04~CAMADD=54~8~0.0~0.0~984.3~590.6~118.1~0.0~15~0.0~0.0~0.0~0.0~0~0.0~0.0~0.0~0.0~0~0.0~0.0~0.0~0.0~984.3~590.6*
%ADD54D54*%
G04~CAMADD=55~8~0.0~0.0~550.0~430.0~79.6~0.0~15~0.0~0.0~0.0~0.0~0~0.0~0.0~0.0~0.0~0~0.0~0.0~0.0~0.0~550.0~430.0*
%ADD55D55*%
%ADD56R,0.053150X0.086614*%
G04~CAMADD=57~8~0.0~0.0~94.5~236.2~19.4~0.0~15~0.0~0.0~0.0~0.0~0~0.0~0.0~0.0~0.0~0~0.0~0.0~0.0~90.0~236.0~95.0*
%ADD57D57*%
G04~CAMADD=58~8~0.0~0.0~350.0~340.0~59.5~0.0~15~0.0~0.0~0.0~0.0~0~0.0~0.0~0.0~0.0~0~0.0~0.0~0.0~270.0~340.0~350.0*
%ADD58D58*%
G04~CAMADD=59~8~0.0~0.0~350.0~340.0~59.5~0.0~15~0.0~0.0~0.0~0.0~0~0.0~0.0~0.0~0.0~0~0.0~0.0~0.0~0.0~350.0~340.0*
%ADD59D59*%
%ADD60O,0.064960X0.023622*%
G04~CAMADD=61~8~0.0~0.0~393.7~315.0~78.7~0.0~15~0.0~0.0~0.0~0.0~0~0.0~0.0~0.0~0.0~0~0.0~0.0~0.0~180.0~394.0~315.0*
%ADD61D61*%
G04~CAMADD=62~8~0.0~0.0~295.3~334.6~21.7~0.0~15~0.0~0.0~0.0~0.0~0~0.0~0.0~0.0~0.0~0~0.0~0.0~0.0~180.0~296.0~335.0*
%ADD62D62*%
G04~CAMADD=63~8~0.0~0.0~295.3~374.0~68.9~0.0~15~0.0~0.0~0.0~0.0~0~0.0~0.0~0.0~0.0~0~0.0~0.0~0.0~180.0~296.0~374.0*
%ADD63D63*%
%ADD64R,0.108268X0.088582*%
%ADD65R,0.088582X0.108268*%
G04~CAMADD=66~8~0.0~0.0~236.2~315.0~54.1~0.0~15~0.0~0.0~0.0~0.0~0~0.0~0.0~0.0~0.0~0~0.0~0.0~0.0~0.0~236.2~315.0*
%ADD66D66*%
%ADD67O,0.011811X0.062992*%
G04~CAMADD=68~8~0.0~0.0~889.8~850.4~212.6~0.0~15~0.0~0.0~0.0~0.0~0~0.0~0.0~0.0~0.0~0~0.0~0.0~0.0~180.0~890.0~850.0*
%ADD68D68*%
%ADD69R,0.047244X0.055118*%
%ADD70R,0.039370X0.055118*%
%ADD71R,0.055118X0.047244*%
%ADD72R,0.055118X0.039370*%
G04~CAMADD=73~8~0.0~0.0~1204.7~350.4~87.6~0.0~15~0.0~0.0~0.0~0.0~0~0.0~0.0~0.0~0.0~0~0.0~0.0~0.0~180.0~1204.0~349.0*
%ADD73D73*%
%ADD74R,0.102362X0.098425*%
%ADD75R,0.291338X0.291338*%
%ADD76R,0.082677X0.082677*%
%ADD77O,0.007874X0.031496*%
%ADD78O,0.031496X0.007874*%
G04~CAMADD=79~8~0.0~0.0~137.8~255.9~9.8~0.0~15~0.0~0.0~0.0~0.0~0~0.0~0.0~0.0~0.0~0~0.0~0.0~0.0~270.0~256.0~138.0*
%ADD79D79*%
%ADD80O,0.011024X0.033465*%
%ADD81O,0.033465X0.011024*%
%ADD82R,0.220472X0.220472*%
%ADD83O,0.015748X0.070866*%
%ADD84R,0.018000X0.012000*%
%ADD85O,0.115000X0.030000*%
%ADD86R,0.167000X0.150000*%
G04~CAMADD=87~8~0.0~0.0~98.4~157.5~19.7~0.0~15~0.0~0.0~0.0~0.0~0~0.0~0.0~0.0~0.0~0~0.0~0.0~0.0~90.0~158.0~99.0*
%ADD87D87*%
%ADD88C,0.083031*%
%ADD89C,0.081000*%
%ADD90R,0.086614X0.053150*%
%ADD91O,0.062992X0.023622*%
%ADD92R,0.086575X0.018071*%
G04~CAMADD=93~8~0.0~0.0~393.7~315.0~78.7~0.0~15~0.0~0.0~0.0~0.0~0~0.0~0.0~0.0~0.0~0~0.0~0.0~0.0~270.0~316.0~394.0*
%ADD93D93*%
%LNprob_s7cas_pcb-1*%
%LPD*%
G36*
X054Y07084D02*
X05406Y07084D01*
X05406*
X05407Y07083*
X05408Y07083*
X05408Y07082*
Y07082*
Y07072*
Y07072*
X05408Y07071*
X05407Y07071*
X05406Y0707*
X05406*
X054*
X054*
X05399Y07071*
X05398Y07071*
X05398Y07072*
Y07072*
Y07082*
Y07082*
X05398Y07083*
X05399Y07083*
X054Y07084*
X054*
G37*
G36*
X0538D02*
X05386Y07084D01*
X05387*
X05387Y07083*
X05388Y07083*
X05388Y07082*
Y07082*
X05388Y07072*
Y07072*
X05388Y07071*
X05387Y07071*
X05387Y0707*
X05386*
X0538*
X0538*
X05379Y07071*
X05379Y07071*
X05378Y07072*
Y07072*
Y07082*
Y07082*
X05379Y07083*
X05379Y07083*
X0538Y07084*
X0538*
G37*
G36*
X05421Y07062D02*
X05422Y07061D01*
X05423Y07059*
Y07058*
Y07025*
Y07024*
X05422Y07022*
X05421Y07021*
X0542Y07021*
X05419*
X05368Y07021*
X05367*
X05365Y07021*
X05364Y07022*
X05364Y07024*
Y07025*
Y07058*
X05364Y07059*
X05364Y07061*
X05365Y07062*
X05367Y07062*
X05368Y07062*
X05419Y07062*
X0542*
X05421Y07062*
G37*
G36*
X0542Y07013D02*
X05421Y07012D01*
X05422Y07011*
X05423Y0701*
Y07009*
X05423Y06975*
Y06974*
X05422Y06973*
X05421Y06972*
X0542Y06971*
X05419*
X05368*
X05367*
X05365Y06972*
X05364Y06973*
X05364Y06974*
Y06975*
Y07009*
Y0701*
X05364Y07011*
X05365Y07012*
X05367Y07013*
X05368*
X05419Y07013*
X0542Y07013*
G37*
G36*
X054Y06963D02*
X05406D01*
X05406Y06963*
X05407Y06963*
X05408Y06962*
X05408Y06962*
Y06961*
Y06952*
Y06951*
X05408Y06951*
X05407Y0695*
X05406Y0695*
X05406*
X054Y0695*
X054Y0695*
X05399Y0695*
X05398Y06951*
X05398Y06951*
Y06952*
X05398Y06961*
Y06962*
X05398Y06962*
X05399Y06963*
X054Y06963*
X054*
G37*
G36*
X0538D02*
X05386D01*
X05387Y06963*
X05387Y06963*
X05388Y06962*
X05388Y06962*
Y06961*
Y06952*
Y06951*
X05388Y06951*
X05387Y0695*
X05387Y0695*
X05386*
X0538Y0695*
X0538Y0695*
X05379Y0695*
X05379Y06951*
X05378Y06951*
Y06952*
X05378Y06961*
Y06962*
X05379Y06962*
X05379Y06963*
X0538Y06963*
X0538*
G37*
G36*
X02098Y05527D02*
X02064D01*
Y05561*
X02098*
Y05527*
G37*
G36*
X02056D02*
X02021D01*
Y05561*
X02056*
Y05527*
G37*
G36*
X02014D02*
X01979D01*
Y05561*
X02014*
Y05527*
G37*
G36*
X02098Y05485D02*
X02064D01*
Y05519*
X02098*
Y05485*
G37*
G36*
X02056D02*
X02021D01*
Y05519*
X02056*
Y05485*
G37*
G36*
X02014D02*
X01979D01*
Y05519*
X02014*
Y05485*
G37*
G36*
X02098Y05442D02*
X02064D01*
Y05477*
X02098*
Y05442*
G37*
G36*
X02056D02*
X02021D01*
Y05477*
X02056*
Y05442*
G37*
G36*
X02014D02*
X01979D01*
Y05477*
X02014*
Y05442*
G37*
G54D30*
X02032Y08796D03*
Y08681D03*
Y0891D03*
X01923D03*
Y08681D03*
Y08796D03*
G54D31*
X01407Y07033D03*
G54D32*
X00502Y02448D03*
X00616D03*
X00387D03*
Y02338D03*
X00616D03*
X00502D03*
G54D33*
X03148Y04216D03*
X03081D03*
X03568Y05699D03*
X03501D03*
X0357Y0561D03*
X03503D03*
X03571Y04222D03*
X03504D03*
X02622Y04926D03*
X02689D03*
X03314Y05461D03*
X03247D03*
G54D34*
X02503Y01866D03*
X0266Y016D03*
Y01866D03*
X02503Y016D03*
X03043D03*
X032Y01866D03*
Y016D03*
X03043Y01866D03*
X03713Y01886D03*
X0387Y0162D03*
Y01886D03*
X03713Y0162D03*
G54D35*
X03319Y03627D03*
X03119D03*
X02819D03*
X03319Y03002D03*
X03119D03*
X03219D03*
X02919D03*
X03019D03*
X02819Y03127D03*
Y03002D03*
X0381Y08743D03*
X03685D03*
X0381Y08943D03*
Y08843D03*
Y09143D03*
Y09043D03*
Y09243D03*
X03185Y08743D03*
Y09043D03*
Y09243D03*
X04732Y08386D03*
Y08186D03*
Y07886D03*
X05357Y08386D03*
Y08186D03*
Y08286D03*
Y07986D03*
Y08086D03*
X05232Y07886D03*
X05357D03*
X01022Y04752D03*
Y04552D03*
Y04252D03*
X01647Y04752D03*
Y04552D03*
Y04652D03*
Y04352D03*
Y04452D03*
X01522Y04252D03*
X01647D03*
X02776Y0601D03*
X02651D03*
X02776Y0621D03*
Y0611D03*
Y0641D03*
Y0631D03*
Y0651D03*
X02151Y0601D03*
Y0631D03*
Y0651D03*
G54D36*
X04272Y07783D03*
Y08113D03*
X04225Y08743D03*
Y09074D03*
X02719Y08942D03*
Y08612D03*
X0382Y03478D03*
Y03147D03*
X03251Y06039D03*
Y0637D03*
X02129Y04163D03*
Y04494D03*
X00583Y04589D03*
Y04258D03*
X00608Y01662D03*
Y01993D03*
G54D37*
X01213Y03148D03*
Y03183D03*
X02985Y07411D03*
Y07376D03*
X02709Y07411D03*
Y07376D03*
X02867Y07411D03*
Y07376D03*
X02926Y07411D03*
Y07376D03*
X02768Y07411D03*
Y07376D03*
X02582Y07413D03*
Y07378D03*
X02478Y07888D03*
Y07853D03*
X03179Y07525D03*
Y0749D03*
X03139Y07525D03*
Y0749D03*
X03059Y07809D03*
Y07844D03*
X02935Y07193D03*
Y07228D03*
X0394Y08921D03*
Y08886D03*
X04441Y03377D03*
Y03412D03*
X04441Y03483D03*
Y03448D03*
X04479Y03411D03*
Y03376D03*
X03889Y0529D03*
Y05255D03*
X02782Y04533D03*
Y04498D03*
X02782Y04426D03*
Y04461D03*
X039Y04698D03*
Y04733D03*
Y04514D03*
Y04479D03*
Y04406D03*
Y04441D03*
Y0498D03*
Y04945D03*
X03889Y05181D03*
Y05216D03*
X02785Y04686D03*
Y04721D03*
X02747Y04906D03*
Y04941D03*
X02785Y04904D03*
Y04939D03*
X0277Y05176D03*
Y05211D03*
X0277Y05283D03*
Y05248D03*
X02914Y0625D03*
Y06215D03*
X02211Y08597D03*
Y08562D03*
X05049Y06153D03*
Y06188D03*
X05493Y0693D03*
Y06965D03*
X05487Y08047D03*
Y08012D03*
X01104Y09004D03*
Y08969D03*
X00853Y08892D03*
Y08857D03*
X01852Y10098D03*
Y10133D03*
X01891Y10099D03*
Y10134D03*
X01927Y10099D03*
Y10134D03*
X01617Y09958D03*
Y09923D03*
X01657Y09958D03*
Y09923D03*
X01807Y09379D03*
Y09344D03*
X01087Y09772D03*
Y09807D03*
X01087Y09958D03*
Y09923D03*
X02087Y05303D03*
Y05268D03*
X02128Y05303D03*
Y05268D03*
X02167Y05303D03*
Y05268D03*
X02207Y05303D03*
Y05268D03*
X02016Y0566D03*
Y05695D03*
X01957Y05643D03*
Y05678D03*
X02056Y0566D03*
Y05695D03*
X02027Y05351D03*
Y05316D03*
X0195Y05351D03*
Y05316D03*
X01988D03*
Y05351D03*
X01846Y05263D03*
Y05228D03*
X01306Y07474D03*
Y07439D03*
X01639Y07506D03*
Y07471D03*
X01574Y07243D03*
Y07208D03*
X01241Y07243D03*
Y07208D03*
X01667Y05742D03*
Y05707D03*
X01667Y05602D03*
Y05637D03*
X01667Y05316D03*
Y05351D03*
X01667Y0545D03*
Y05415D03*
X01789Y04431D03*
Y04396D03*
X02026Y01522D03*
Y01487D03*
X00824Y02665D03*
Y0263D03*
X00949Y02493D03*
Y02458D03*
X00911Y02459D03*
Y02494D03*
X02056Y009D03*
Y00865D03*
X01921Y00458D03*
Y00493D03*
X02692Y00691D03*
Y00726D03*
X02418Y00656D03*
Y00691D03*
X00832Y01084D03*
Y01049D03*
X00835Y0071D03*
Y00675D03*
X01911Y01072D03*
Y01107D03*
X012Y0073D03*
Y00765D03*
X01192Y0103D03*
Y01065D03*
X01153Y01078D03*
Y01113D03*
X01078Y00986D03*
Y00951D03*
X0109Y00696D03*
Y00731D03*
X01115Y01078D03*
Y01113D03*
X01318Y0068D03*
Y00715D03*
X0124Y0073D03*
Y00765D03*
X01281Y0068D03*
Y00715D03*
X01229Y0103D03*
Y01065D03*
X02275Y03078D03*
Y03043D03*
X02315Y03078D03*
Y03043D03*
X01887Y03245D03*
Y0328D03*
X0166Y02797D03*
Y02832D03*
X01675Y03858D03*
Y03823D03*
Y03444D03*
Y03479D03*
X00994Y03218D03*
Y03253D03*
X01084Y03534D03*
Y03499D03*
X01009Y03534D03*
Y03499D03*
X00969Y03534D03*
Y03499D03*
X01047Y03534D03*
Y03499D03*
X01172Y03183D03*
Y03148D03*
X01129Y03183D03*
Y03148D03*
X01898Y03692D03*
Y03657D03*
X01996Y03692D03*
Y03657D03*
X01948Y03692D03*
Y03657D03*
X02144Y03645D03*
Y0361D03*
X02118Y03548D03*
Y03513D03*
X02118Y03421D03*
Y03456D03*
X02206Y03302D03*
Y03267D03*
X02141Y03362D03*
Y03327D03*
X02387Y03674D03*
Y03709D03*
X02189Y03693D03*
Y03728D03*
X02384Y03285D03*
Y0325D03*
X02228Y03659D03*
Y03694D03*
X02346Y0366D03*
Y03695D03*
X02347Y03302D03*
Y03267D03*
X02103Y0326D03*
Y03225D03*
X02142Y0326D03*
Y03225D03*
X0224Y03302D03*
Y03267D03*
X0166Y03203D03*
Y03168D03*
X00802Y05747D03*
Y05782D03*
X02957Y09683D03*
Y09718D03*
X02751Y01888D03*
Y01853D03*
X03291Y01901D03*
Y01866D03*
X03971Y01866D03*
Y01901D03*
G54D38*
X03834Y04348D03*
Y04388D03*
Y04427D03*
Y04466D03*
Y04506D03*
Y04545D03*
Y04584D03*
Y04624D03*
Y04663D03*
Y04702D03*
Y04742D03*
Y04781D03*
Y04821D03*
Y0486D03*
Y04899D03*
Y04939D03*
Y04978D03*
Y05017D03*
Y05057D03*
Y05096D03*
Y05136D03*
Y05175D03*
Y05214D03*
Y05254D03*
Y05293D03*
Y05332D03*
X03795Y04348D03*
Y04388D03*
Y04427D03*
Y04466D03*
Y04506D03*
Y04545D03*
Y04584D03*
Y04624D03*
Y04663D03*
Y04702D03*
Y04742D03*
Y04781D03*
Y04821D03*
Y0486D03*
Y04899D03*
Y04939D03*
Y04978D03*
Y05017D03*
Y05057D03*
Y05096D03*
Y05136D03*
Y05175D03*
Y05214D03*
Y05254D03*
Y05293D03*
Y05332D03*
X03756Y04348D03*
Y04388D03*
Y04427D03*
Y04466D03*
Y04506D03*
Y04545D03*
Y04584D03*
Y04624D03*
Y04663D03*
Y04702D03*
Y04742D03*
Y04781D03*
Y04821D03*
Y0486D03*
Y04899D03*
Y04939D03*
Y04978D03*
Y05017D03*
Y05057D03*
Y05096D03*
Y05136D03*
Y05175D03*
Y05214D03*
Y05254D03*
Y05293D03*
Y05332D03*
X03716Y04348D03*
Y04388D03*
Y04427D03*
Y04466D03*
Y04506D03*
Y04545D03*
Y04584D03*
Y04624D03*
Y04663D03*
Y04702D03*
Y04742D03*
Y04781D03*
Y04821D03*
Y0486D03*
Y04899D03*
Y04939D03*
Y04978D03*
Y05017D03*
Y05057D03*
Y05096D03*
Y05136D03*
Y05175D03*
Y05214D03*
Y05254D03*
Y05293D03*
Y05332D03*
X03677Y04348D03*
Y04388D03*
Y04427D03*
Y04466D03*
Y04506D03*
Y04545D03*
Y04584D03*
Y04624D03*
Y04663D03*
Y04702D03*
Y04742D03*
Y04781D03*
Y04821D03*
Y0486D03*
Y04899D03*
Y04939D03*
Y04978D03*
Y05017D03*
Y05057D03*
Y05096D03*
Y05136D03*
Y05175D03*
Y05214D03*
Y05254D03*
Y05293D03*
Y05332D03*
X03638Y04348D03*
Y04388D03*
Y04427D03*
Y04466D03*
Y04506D03*
Y04545D03*
Y04584D03*
Y04624D03*
Y04663D03*
Y04702D03*
Y04742D03*
Y04781D03*
Y04821D03*
Y0486D03*
Y04899D03*
Y04939D03*
Y04978D03*
Y05017D03*
Y05057D03*
Y05096D03*
Y05136D03*
Y05175D03*
Y05214D03*
Y05254D03*
Y05293D03*
Y05332D03*
X03598Y04348D03*
Y04388D03*
Y04427D03*
Y04466D03*
Y04506D03*
Y04545D03*
Y04584D03*
Y04624D03*
Y04663D03*
Y04702D03*
Y04742D03*
Y04781D03*
Y04821D03*
Y0486D03*
Y04899D03*
Y04939D03*
Y04978D03*
Y05017D03*
Y05057D03*
Y05096D03*
Y05136D03*
Y05175D03*
Y05214D03*
Y05254D03*
Y05293D03*
Y05332D03*
X03559Y04348D03*
Y04388D03*
Y04427D03*
Y04466D03*
Y04506D03*
Y04545D03*
Y04584D03*
Y04624D03*
Y04663D03*
Y04702D03*
Y04742D03*
Y04781D03*
Y04821D03*
Y0486D03*
Y04899D03*
Y04939D03*
Y04978D03*
Y05017D03*
Y05057D03*
Y05096D03*
Y05136D03*
Y05175D03*
Y05214D03*
Y05254D03*
Y05293D03*
Y05332D03*
X03519Y04348D03*
Y04388D03*
Y04427D03*
Y04466D03*
Y04506D03*
Y04545D03*
Y04584D03*
Y04624D03*
Y04663D03*
Y04702D03*
Y04742D03*
Y04781D03*
Y04821D03*
Y0486D03*
Y04899D03*
Y04939D03*
Y04978D03*
Y05017D03*
Y05057D03*
Y05096D03*
Y05136D03*
Y05175D03*
Y05214D03*
Y05254D03*
Y05293D03*
Y05332D03*
X0348Y04348D03*
Y04388D03*
Y04427D03*
Y04466D03*
Y04506D03*
Y04545D03*
Y04584D03*
Y04624D03*
Y04663D03*
Y04702D03*
Y04742D03*
Y04781D03*
Y04821D03*
Y0486D03*
Y04899D03*
Y04939D03*
Y04978D03*
Y05017D03*
Y05057D03*
Y05096D03*
Y05136D03*
Y05175D03*
Y05214D03*
Y05254D03*
Y05293D03*
Y05332D03*
X03441Y04348D03*
Y04388D03*
Y04427D03*
Y04466D03*
Y04506D03*
Y04545D03*
Y04584D03*
Y04624D03*
Y04663D03*
Y04702D03*
Y04742D03*
Y04781D03*
Y04821D03*
Y0486D03*
Y04899D03*
Y04939D03*
Y04978D03*
Y05017D03*
Y05057D03*
Y05096D03*
Y05136D03*
Y05175D03*
Y05214D03*
Y05254D03*
Y05293D03*
Y05332D03*
X03401Y04348D03*
Y04388D03*
Y04427D03*
Y04466D03*
Y04506D03*
Y04545D03*
Y04584D03*
Y04624D03*
Y04663D03*
Y04702D03*
Y04742D03*
Y04781D03*
Y04821D03*
Y0486D03*
Y04899D03*
Y04939D03*
Y04978D03*
Y05017D03*
Y05057D03*
Y05096D03*
Y05136D03*
Y05175D03*
Y05214D03*
Y05254D03*
Y05293D03*
Y05332D03*
X03362Y04348D03*
Y04388D03*
Y04427D03*
Y04466D03*
Y04506D03*
Y04545D03*
Y04584D03*
Y04624D03*
Y04663D03*
Y04702D03*
Y04742D03*
Y04781D03*
Y04821D03*
Y0486D03*
Y04899D03*
Y04939D03*
Y04978D03*
Y05017D03*
Y05057D03*
Y05096D03*
Y05136D03*
Y05175D03*
Y05214D03*
Y05254D03*
Y05293D03*
Y05332D03*
X03323Y04348D03*
Y04388D03*
Y04427D03*
Y04466D03*
Y04506D03*
Y04545D03*
Y04584D03*
Y04624D03*
Y04663D03*
Y04702D03*
Y04742D03*
Y04781D03*
Y04821D03*
Y0486D03*
Y04899D03*
Y04939D03*
Y04978D03*
Y05017D03*
Y05057D03*
Y05096D03*
Y05136D03*
Y05175D03*
Y05214D03*
Y05254D03*
Y05293D03*
Y05332D03*
X03283Y04348D03*
Y04388D03*
Y04427D03*
Y04466D03*
Y04506D03*
Y04545D03*
Y04584D03*
Y04624D03*
Y04663D03*
Y04702D03*
Y04742D03*
Y04781D03*
Y04821D03*
Y0486D03*
Y04899D03*
Y04939D03*
Y04978D03*
Y05017D03*
Y05057D03*
Y05096D03*
Y05136D03*
Y05175D03*
Y05214D03*
Y05254D03*
Y05293D03*
Y05332D03*
X03244Y04348D03*
Y04388D03*
Y04427D03*
Y04466D03*
Y04506D03*
Y04545D03*
Y04584D03*
Y04624D03*
Y04663D03*
Y04702D03*
Y04742D03*
Y04781D03*
Y04821D03*
Y0486D03*
Y04899D03*
Y04939D03*
Y04978D03*
Y05017D03*
Y05057D03*
Y05096D03*
Y05136D03*
Y05175D03*
Y05214D03*
Y05254D03*
Y05293D03*
Y05332D03*
X03205Y04348D03*
Y04388D03*
Y04427D03*
Y04466D03*
Y04506D03*
Y04545D03*
Y04584D03*
Y04624D03*
Y04663D03*
Y04702D03*
Y04742D03*
Y04781D03*
Y04821D03*
Y0486D03*
Y04899D03*
Y04939D03*
Y04978D03*
Y05017D03*
Y05057D03*
Y05096D03*
Y05136D03*
Y05175D03*
Y05214D03*
Y05254D03*
Y05293D03*
Y05332D03*
X03165Y04348D03*
Y04388D03*
Y04427D03*
Y04466D03*
Y04506D03*
Y04545D03*
Y04584D03*
Y04624D03*
Y04663D03*
Y04702D03*
Y04742D03*
Y04781D03*
Y04821D03*
Y0486D03*
Y04899D03*
Y04939D03*
Y04978D03*
Y05017D03*
Y05057D03*
Y05096D03*
Y05136D03*
Y05175D03*
Y05214D03*
Y05254D03*
Y05293D03*
Y05332D03*
X03126Y04348D03*
Y04388D03*
Y04427D03*
Y04466D03*
Y04506D03*
Y04545D03*
Y04584D03*
Y04624D03*
Y04663D03*
Y04702D03*
Y04742D03*
Y04781D03*
Y04821D03*
Y0486D03*
Y04899D03*
Y04939D03*
Y04978D03*
Y05017D03*
Y05057D03*
Y05096D03*
Y05136D03*
Y05175D03*
Y05214D03*
Y05254D03*
Y05293D03*
Y05332D03*
X03086Y04348D03*
Y04388D03*
Y04427D03*
Y04466D03*
Y04506D03*
Y04545D03*
Y04584D03*
Y04624D03*
Y04663D03*
Y04702D03*
Y04742D03*
Y04781D03*
Y04821D03*
Y0486D03*
Y04899D03*
Y04939D03*
Y04978D03*
Y05017D03*
Y05057D03*
Y05096D03*
Y05136D03*
Y05175D03*
Y05214D03*
Y05254D03*
Y05293D03*
Y05332D03*
X03047Y04348D03*
Y04388D03*
Y04427D03*
Y04466D03*
Y04506D03*
Y04545D03*
Y04584D03*
Y04624D03*
Y04663D03*
Y04702D03*
Y04742D03*
Y04781D03*
Y04821D03*
Y0486D03*
Y04899D03*
Y04939D03*
Y04978D03*
Y05017D03*
Y05057D03*
Y05096D03*
Y05136D03*
Y05175D03*
Y05214D03*
Y05254D03*
Y05293D03*
Y05332D03*
X03008Y04348D03*
Y04388D03*
Y04427D03*
Y04466D03*
Y04506D03*
Y04545D03*
Y04584D03*
Y04624D03*
Y04663D03*
Y04702D03*
Y04742D03*
Y04781D03*
Y04821D03*
Y0486D03*
Y04899D03*
Y04939D03*
Y04978D03*
Y05017D03*
Y05057D03*
Y05096D03*
Y05136D03*
Y05175D03*
Y05214D03*
Y05254D03*
Y05293D03*
Y05332D03*
X02968Y04348D03*
Y04388D03*
Y04427D03*
Y04466D03*
Y04506D03*
Y04545D03*
Y04584D03*
Y04624D03*
Y04663D03*
Y04702D03*
Y04742D03*
Y04781D03*
Y04821D03*
Y0486D03*
Y04899D03*
Y04939D03*
Y04978D03*
Y05017D03*
Y05057D03*
Y05096D03*
Y05136D03*
Y05175D03*
Y05214D03*
Y05254D03*
Y05293D03*
Y05332D03*
X02929Y04348D03*
Y04388D03*
Y04427D03*
Y04466D03*
Y04506D03*
Y04545D03*
Y04584D03*
Y04624D03*
Y04663D03*
Y04702D03*
Y04742D03*
Y04781D03*
Y04821D03*
Y0486D03*
Y04899D03*
Y04939D03*
Y04978D03*
Y05017D03*
Y05057D03*
Y05096D03*
Y05136D03*
Y05175D03*
Y05214D03*
Y05254D03*
Y05293D03*
Y05332D03*
X0289Y04348D03*
Y04388D03*
Y04427D03*
Y04466D03*
Y04506D03*
Y04545D03*
Y04584D03*
Y04624D03*
Y04663D03*
Y04702D03*
Y04742D03*
Y04781D03*
Y04821D03*
Y0486D03*
Y04899D03*
Y04939D03*
Y04978D03*
Y05017D03*
Y05057D03*
Y05096D03*
Y05136D03*
Y05175D03*
Y05214D03*
Y05254D03*
Y05293D03*
Y05332D03*
X0285Y04348D03*
Y04388D03*
Y04584D03*
Y04545D03*
Y04506D03*
Y04427D03*
Y04466D03*
Y04624D03*
Y04702D03*
Y04663D03*
Y04742D03*
Y04781D03*
Y04821D03*
Y0486D03*
Y05096D03*
Y04939D03*
Y04899D03*
Y04978D03*
Y05017D03*
Y05057D03*
Y05136D03*
Y05175D03*
Y05254D03*
Y05214D03*
Y05293D03*
Y05332D03*
X05151Y0626D03*
X05119D03*
X05088D03*
X04962D03*
X0493D03*
X04899D03*
X05151Y06291D03*
X05119D03*
X05088D03*
X04962D03*
X0493D03*
X04899D03*
X05151Y06323D03*
X05119D03*
X05088D03*
X04962D03*
X0493D03*
X04899D03*
X05151Y06354D03*
X05119D03*
X05088D03*
X04962D03*
X0493D03*
X04899D03*
X05151Y06386D03*
X05119D03*
X05088D03*
X04962D03*
X0493D03*
X04899D03*
X05151Y06417D03*
X05119D03*
X05088D03*
X04962D03*
X0493D03*
X04899D03*
X05151Y06449D03*
X05119D03*
X05088D03*
X04962D03*
X0493D03*
X04899D03*
X05151Y0648D03*
X05119D03*
X05088D03*
X04962D03*
X0493D03*
X04899D03*
X05151Y06512D03*
X05119D03*
X05088D03*
X04962D03*
X0493D03*
X04899D03*
X05151Y06543D03*
X05119D03*
X05088D03*
X04962D03*
X0493D03*
X04899D03*
X05151Y06575D03*
X05119D03*
X05088D03*
X04962D03*
X0493D03*
X04899D03*
X05151Y06606D03*
X05119D03*
X05088D03*
X04962D03*
X0493D03*
X04899D03*
X05151Y06638D03*
X05119D03*
X05088D03*
X04962D03*
X0493D03*
X04899D03*
X05151Y06669D03*
X05119D03*
X05088D03*
X04962D03*
X0493D03*
X04899D03*
X05151Y06701D03*
X05119D03*
X05088D03*
X04962D03*
X0493D03*
X04899D03*
X05151Y06732D03*
X05119D03*
X05088D03*
X04962D03*
X0493D03*
X04899D03*
G54D39*
X03981Y04012D03*
Y04087D03*
X04083D03*
Y0405D03*
Y04012D03*
X00606Y09314D03*
Y09276D03*
Y09239D03*
X00708D03*
Y09314D03*
G54D40*
X01827Y08508D03*
X01877D03*
X01927D03*
X01977D03*
X02027D03*
X02077D03*
X02127D03*
G54D41*
X05387Y07744D03*
X05273D03*
X03807Y08583D03*
X03693D03*
X03142Y03794D03*
X03256D03*
X0231Y06658D03*
X02196D03*
X05152Y07218D03*
X05038D03*
G54D42*
X0552Y0707D03*
X05485D03*
X03484Y05434D03*
X03519D03*
X02402Y07809D03*
X02437D03*
X0258Y07881D03*
X02545D03*
X02621D03*
X02656D03*
X02589Y07801D03*
X02554D03*
X02402Y07771D03*
X02437D03*
X02436Y07689D03*
X02401D03*
X02436Y07728D03*
X02401D03*
X02617Y07584D03*
X02582D03*
X02614Y07728D03*
X02579D03*
X02614Y07686D03*
X02579D03*
X02617Y07643D03*
X02582D03*
X02434Y07891D03*
X02399D03*
X03032Y07391D03*
X03067D03*
X03058Y07525D03*
X03093D03*
X03514Y07567D03*
X03479D03*
X03514Y07607D03*
X03479D03*
X03254Y07525D03*
X03219D03*
X03515Y07647D03*
X0348D03*
X03058Y07622D03*
X03093D03*
X03059Y07489D03*
X03094D03*
X03057Y07585D03*
X03092D03*
X03059Y07663D03*
X03094D03*
X03059Y07761D03*
X03094D03*
X03059Y07701D03*
X03094D03*
X03119Y07809D03*
X03154D03*
X02711Y07293D03*
X02746D03*
X02792D03*
X02827D03*
X0299Y02875D03*
X02955D03*
X03099Y04284D03*
X03134D03*
X03208D03*
X03173D03*
X02825Y0428D03*
X0286D03*
X03518Y05472D03*
X03483D03*
X03518Y05545D03*
X03483D03*
X0352Y04285D03*
X03485D03*
X03372Y04283D03*
X03337D03*
X03518Y05509D03*
X03483D03*
X0328Y05396D03*
X03245D03*
X03591Y05433D03*
X03556D03*
X03171Y05395D03*
X03206D03*
X03483Y05396D03*
X03518D03*
X03591D03*
X03556D03*
X02044Y08345D03*
X02079D03*
X02095Y08383D03*
X0206D03*
X02018Y08381D03*
X01983D03*
X04809Y06451D03*
X04774D03*
X04808Y06306D03*
X04773D03*
X04809Y06415D03*
X04774D03*
X04808Y06342D03*
X04773D03*
X04808Y06379D03*
X04773D03*
X04808Y06157D03*
X04773D03*
X04808Y06195D03*
X04773D03*
X04809Y06233D03*
X04774D03*
X04809Y0627D03*
X04774D03*
X04808Y06121D03*
X04773D03*
X04809Y06602D03*
X04774D03*
X04714Y06603D03*
X04679D03*
X04074Y07011D03*
X04039D03*
X0359Y06968D03*
X03625D03*
X0359Y06918D03*
X03625D03*
X04072Y06831D03*
X04107D03*
X04107Y06868D03*
X04072D03*
X04075Y06968D03*
X0404D03*
X04075Y07053D03*
X0404D03*
X05229Y06275D03*
X05264D03*
X0523Y06421D03*
X05265D03*
X0523Y06348D03*
X05265D03*
X05229Y06239D03*
X05264D03*
X05229Y06312D03*
X05264D03*
X0523Y06385D03*
X05265D03*
X0523Y06493D03*
X05265D03*
X05229Y06457D03*
X05264D03*
X04714Y06121D03*
X04679D03*
X04715Y06491D03*
X0468D03*
X05317Y06385D03*
X05352D03*
X05318Y06493D03*
X05353D03*
X05315Y06204D03*
X0535D03*
X05316Y06239D03*
X05351D03*
X05318Y06457D03*
X05353D03*
X05317Y06348D03*
X05352D03*
X05316Y06311D03*
X05351D03*
X04714Y0638D03*
X04679D03*
X04714Y06306D03*
X04679D03*
X04808Y06491D03*
X04773D03*
X04714Y06417D03*
X04679D03*
X04714Y06342D03*
X04679D03*
X04715Y06195D03*
X0468D03*
X04715Y0627D03*
X0468D03*
X04714Y06157D03*
X04679D03*
X04715Y06231D03*
X0468D03*
X04714Y06453D03*
X04679D03*
X04715Y06527D03*
X0468D03*
X04809D03*
X04774D03*
X04717Y06564D03*
X04682D03*
X04809Y06565D03*
X04774D03*
X05317Y06421D03*
X05352D03*
X05229Y06203D03*
X05264D03*
X05316Y06275D03*
X05351D03*
X05303Y0718D03*
X05338D03*
X05338Y07143D03*
X05373D03*
Y07107D03*
X05338D03*
X01887Y02392D03*
X01922D03*
X01887Y02622D03*
X01922D03*
X02236Y02401D03*
X02271D03*
X02229Y02611D03*
X02264D03*
X018Y09724D03*
X01765D03*
X018Y09674D03*
X01765D03*
X01807Y09301D03*
X01772D03*
X01347Y09299D03*
X01312D03*
X01097Y09664D03*
X01062D03*
X01097Y09714D03*
X01062D03*
X02212Y05601D03*
X02247D03*
X02213Y0549D03*
X02248D03*
X02212Y05528D03*
X02247D03*
X02213Y05453D03*
X02248D03*
X02212Y05564D03*
X02247D03*
X01827Y05165D03*
X01792D03*
X0218Y05376D03*
X02215D03*
X0218Y05417D03*
X02215D03*
X01872Y05625D03*
X01837D03*
X01896Y05564D03*
X01861D03*
X01846Y05314D03*
X01811D03*
X01897Y05525D03*
X01862D03*
X01396Y0761D03*
X01431D03*
X0134D03*
X01305D03*
X01526Y07407D03*
X01491D03*
X01452Y07407D03*
X01417D03*
X01514Y05707D03*
X01549D03*
X01514Y05351D03*
X01549D03*
X0155Y05402D03*
X01515D03*
X0155Y0565D03*
X01515D03*
X00837Y05707D03*
X00802D03*
X00764Y05625D03*
X00799D03*
X00764Y05586D03*
X00799D03*
X00837Y05668D03*
X00802D03*
X00948Y02406D03*
X00913D03*
X02206Y00866D03*
X02241D03*
X02206Y00903D03*
X02241D03*
X02206Y00941D03*
X02241D03*
X01472Y00699D03*
X01437D03*
X01471Y00741D03*
X01436D03*
X02726Y00941D03*
X02691D03*
X0265Y00691D03*
X02615D03*
X02638Y00653D03*
X02603D03*
X02207Y0073D03*
X02242D03*
X02279Y00694D03*
X02314D03*
X02279Y00656D03*
X02314D03*
X02279Y00619D03*
X02314D03*
X00834Y01121D03*
X00869D03*
X00874Y01084D03*
X00909D03*
X00835Y0075D03*
X0087D03*
X00876Y00711D03*
X00911D03*
X01302Y01031D03*
X01267D03*
X01042Y01024D03*
X01077D03*
X01013Y008D03*
X01048D03*
X01047Y00914D03*
X01082D03*
X01047Y00878D03*
X01082D03*
X01013Y00839D03*
X01048D03*
X01127Y0073D03*
X01162D03*
X01356Y00913D03*
X01391D03*
X01393Y0084D03*
X01428D03*
X01355Y00877D03*
X0139D03*
X01471Y00951D03*
X01436D03*
X01471Y00988D03*
X01436D03*
X01393Y00805D03*
X01428D03*
X02206Y01091D03*
X02241D03*
X0265Y01153D03*
X02615D03*
X0265Y01191D03*
X02615D03*
X02276Y01133D03*
X02311D03*
X02313Y03006D03*
X02278D03*
X01046Y02885D03*
X01011D03*
X01046Y02922D03*
X01011D03*
X01199Y03622D03*
X01164D03*
X01199Y0358D03*
X01164D03*
X0116Y03484D03*
X01195D03*
X01053Y03148D03*
X01088D03*
X0084Y03155D03*
X00805D03*
X00845Y03595D03*
X0081D03*
X00839Y09903D03*
X00874D03*
G54D43*
X02657Y03127D03*
Y03241D03*
X03007Y09063D03*
Y09177D03*
X04553Y0348D03*
Y03366D03*
X04106Y0348D03*
Y03366D03*
X02945Y05989D03*
Y06103D03*
X01581Y08813D03*
Y08927D03*
X01692Y08813D03*
Y08927D03*
X02284Y0858D03*
Y08694D03*
X04567Y08183D03*
Y08069D03*
X01827Y04297D03*
Y04183D03*
X00886Y01669D03*
Y01783D03*
X00864Y04234D03*
Y04348D03*
X00898Y02769D03*
Y02655D03*
X00938Y02333D03*
Y02219D03*
X01038Y02333D03*
Y02219D03*
G54D44*
X01942Y05452D03*
X02135Y05571D03*
Y05551D03*
Y05531D03*
Y05512D03*
Y05492D03*
Y05472D03*
Y05452D03*
Y05433D03*
X01942D03*
Y05472D03*
Y05492D03*
Y05512D03*
Y05531D03*
Y05551D03*
Y05571D03*
G54D45*
X02039Y05502D03*
G54D46*
X0197Y05598D03*
X01989D03*
X02009D03*
X02029D03*
X02048D03*
X02068D03*
X02088D03*
X02107D03*
Y05405D03*
X02088D03*
X02068D03*
X02048D03*
X02029D03*
X02009D03*
X01989D03*
X0197D03*
G54D47*
X02661Y07781D03*
Y07761D03*
Y07741D03*
Y07722D03*
Y07702D03*
Y07682D03*
Y07663D03*
Y07643D03*
Y07623D03*
Y07604D03*
Y07584D03*
Y07564D03*
Y07544D03*
Y07525D03*
Y07505D03*
Y07485D03*
X03013D03*
Y07505D03*
Y07525D03*
Y07544D03*
Y07564D03*
Y07584D03*
Y07604D03*
Y07623D03*
Y07643D03*
Y07663D03*
Y07682D03*
Y07702D03*
Y07722D03*
Y07741D03*
Y07761D03*
Y07781D03*
X02291Y01059D03*
Y0104D03*
Y0102D03*
Y01D03*
Y00981D03*
Y00961D03*
Y00941D03*
Y00922D03*
Y00902D03*
Y00882D03*
Y00862D03*
Y00843D03*
Y00823D03*
Y00803D03*
Y00784D03*
Y00764D03*
X02644D03*
Y00784D03*
Y00803D03*
Y00823D03*
Y00843D03*
Y00862D03*
Y00882D03*
Y00902D03*
Y00922D03*
Y00941D03*
Y00961D03*
Y00981D03*
Y01D03*
Y0102D03*
Y0104D03*
Y01059D03*
G54D48*
X02689Y07457D03*
X02709D03*
X02729D03*
X02748D03*
X02768D03*
X02788D03*
X02807D03*
X02827D03*
X02847D03*
X02867D03*
X02886D03*
X02906D03*
X02926D03*
X02945D03*
X02965D03*
X02985D03*
Y07809D03*
X02965D03*
X02945D03*
X02926D03*
X02906D03*
X02886D03*
X02867D03*
X02847D03*
X02827D03*
X02807D03*
X02788D03*
X02768D03*
X02748D03*
X02729D03*
X02709D03*
X02689D03*
X02615Y01088D03*
X02596D03*
X02576D03*
X02556D03*
X02537D03*
X02517D03*
X02497D03*
X02477D03*
X02458D03*
X02438D03*
X02418D03*
X02399D03*
X02379D03*
X02359D03*
X0234D03*
X0232D03*
Y00735D03*
X0234D03*
X02359D03*
X02379D03*
X02399D03*
X02418D03*
X02438D03*
X02458D03*
X02477D03*
X02497D03*
X02517D03*
X02537D03*
X02556D03*
X02576D03*
X02596D03*
X02615D03*
G54D49*
X02837Y07633D03*
G54D50*
X03604Y07562D03*
Y07762D03*
Y07662D03*
X0377D03*
Y07762D03*
Y07562D03*
G54D51*
X04385Y03402D03*
Y03421D03*
Y03441D03*
Y03461D03*
Y0348D03*
X0421Y03402D03*
Y03421D03*
Y03441D03*
Y03461D03*
Y0348D03*
G54D52*
X02741Y04063D03*
X0241D03*
X02519Y06944D03*
X02188D03*
X05095Y07565D03*
X04765D03*
X01586Y08021D03*
X01256D03*
X01587Y0846D03*
X01256D03*
X01228Y02373D03*
X01559D03*
X01157Y06343D03*
X00827D03*
G54D53*
X03471Y05823D03*
X03597D03*
X03144Y04093D03*
X03018D03*
X03508Y04099D03*
X03634D03*
X03307Y05582D03*
X03181D03*
G54D54*
X02592Y04494D03*
Y0462D03*
X04087Y04467D03*
Y04593D03*
X04102Y04946D03*
Y0482D03*
X04094Y05228D03*
Y05102D03*
X02573Y05216D03*
Y0509D03*
G54D55*
X02719Y04557D03*
Y0449D03*
X03968Y0453D03*
Y04463D03*
Y05034D03*
Y04967D03*
X0396Y05164D03*
Y05231D03*
X02701Y05153D03*
Y0522D03*
G54D56*
X02385Y08598D03*
Y08709D03*
G54D57*
X05338Y07056D03*
Y07036D03*
Y07017D03*
Y06997D03*
Y06977D03*
X05448Y07056D03*
Y07036D03*
Y07017D03*
Y06997D03*
Y06977D03*
G54D58*
X04624Y06532D03*
Y06591D03*
X04543Y06163D03*
Y06222D03*
X05335Y06545D03*
Y06604D03*
X04624Y06222D03*
Y06163D03*
X04624Y06285D03*
Y06344D03*
X04543Y06589D03*
Y0653D03*
X04543Y06405D03*
Y06464D03*
X04624Y06467D03*
Y06408D03*
X04543Y06344D03*
Y06285D03*
X0548Y06299D03*
Y06358D03*
X05409D03*
Y06299D03*
Y06421D03*
Y0648D03*
X0548D03*
Y06421D03*
X05335Y06731D03*
Y06672D03*
X0143Y06833D03*
Y06774D03*
X01233Y07508D03*
Y07449D03*
X01729Y0754D03*
Y07481D03*
X0136Y06774D03*
Y06833D03*
X01241Y06784D03*
Y06843D03*
X01574Y06784D03*
Y06843D03*
X01948Y03209D03*
Y03268D03*
X01343Y07218D03*
Y07277D03*
G54D59*
X05101Y07125D03*
X0516D03*
X05101Y06976D03*
X0516D03*
X05101Y07052D03*
X0516D03*
X04871Y06817D03*
X0493D03*
X05105Y0617D03*
X05164D03*
X05507Y07122D03*
X05448D03*
X01552Y06663D03*
X01493D03*
X01556Y0751D03*
X01497D03*
G54D60*
X03978Y06818D03*
Y06868D03*
Y06918D03*
Y06968D03*
X03697Y06818D03*
Y06868D03*
Y06918D03*
Y06968D03*
G54D61*
X01104Y08925D03*
Y0886D03*
G54D62*
X00918Y08908D03*
X00993D03*
X00955Y08986D03*
G54D63*
X00955Y08824D03*
X00993Y08729D03*
X00918D03*
G54D64*
X0286Y09929D03*
Y09772D03*
Y09614D03*
Y09457D03*
X02015D03*
Y09614D03*
Y09772D03*
Y09929D03*
G54D65*
X02122Y10091D03*
X0228D03*
X02437D03*
X02595D03*
X02752D03*
Y09295D03*
X02595D03*
X02437D03*
X0228D03*
X02122D03*
G54D66*
X01879Y05104D03*
X01944D03*
Y05165D03*
X01879D03*
G54D67*
X01241Y06923D03*
X01267D03*
X01292D03*
X01318D03*
X01343D03*
X01369D03*
X01395D03*
X0142D03*
X01446D03*
X01471D03*
X01497D03*
X01522D03*
X01548D03*
X01574D03*
X01241Y07143D03*
X01267D03*
X01292D03*
X01318D03*
X01343D03*
X01369D03*
X01395D03*
X0142D03*
X01446D03*
X01471D03*
X01497D03*
X01522D03*
X01548D03*
X01574D03*
G54D68*
X00897Y0732D03*
Y07127D03*
Y06727D03*
Y0692D03*
X00577Y0673D03*
Y06537D03*
Y07311D03*
Y07504D03*
X01303Y08748D03*
Y08941D03*
G54D69*
X00792Y05436D03*
G54D70*
X0086Y05436D03*
Y05522D03*
X00784D03*
G54D71*
X00395Y05103D03*
G54D72*
X00395Y05036D03*
X00482D03*
Y05111D03*
G54D73*
X00789Y02243D03*
Y02293D03*
Y02343D03*
Y02393D03*
Y02443D03*
Y02493D03*
Y02543D03*
G54D74*
X01821Y01207D03*
X01676D03*
X01821Y00363D03*
X01676D03*
X01821Y00584D03*
X01675D03*
X01821Y00988D03*
X01676D03*
X01574Y02885D03*
X01428D03*
X01588Y03536D03*
X01443D03*
X01588Y03761D03*
X01443D03*
X01574Y03112D03*
X01428D03*
G54D75*
X02468Y00912D03*
G54D76*
X01221Y00898D03*
G54D77*
X01172Y00979D03*
X01192D03*
X01212D03*
X01231D03*
X01251D03*
X01271D03*
Y00817D03*
X01251D03*
X01231D03*
X01212D03*
X01192D03*
X01172D03*
G54D78*
X01302Y00947D03*
Y00928D03*
Y00908D03*
Y00888D03*
Y00869D03*
Y00849D03*
X01141D03*
Y00869D03*
Y00888D03*
Y00908D03*
Y00928D03*
Y00947D03*
G54D79*
X00782Y01052D03*
Y0108D03*
X00786Y0068D03*
Y00707D03*
X00815Y03103D03*
Y03075D03*
X00819Y03543D03*
Y03515D03*
G54D80*
X02209Y03345D03*
X02228D03*
X02248D03*
X02268D03*
X02288D03*
X02307D03*
X02327D03*
X02347D03*
X02366D03*
X02386D03*
X02406D03*
X02425D03*
Y03618D03*
X02406D03*
X02386D03*
X02366D03*
X02347D03*
X02327D03*
X02307D03*
X02288D03*
X02268D03*
X02248D03*
X02228D03*
X02209D03*
G54D81*
X02454Y03373D03*
Y03393D03*
Y03413D03*
Y03432D03*
Y03452D03*
Y03472D03*
Y03491D03*
Y03511D03*
Y03531D03*
Y03551D03*
Y0357D03*
Y0359D03*
X0218D03*
Y0357D03*
Y03551D03*
Y03531D03*
Y03511D03*
Y03491D03*
Y03472D03*
Y03452D03*
Y03432D03*
Y03413D03*
Y03393D03*
Y03373D03*
G54D82*
X02317Y03482D03*
G54D83*
X0105Y03259D03*
X01076D03*
X01101D03*
X01127D03*
X0105Y03423D03*
X01076D03*
X01101D03*
X01127D03*
G54D84*
X01265Y03595D03*
Y03617D03*
X01116Y02889D03*
Y02911D03*
G54D85*
X01422Y05351D03*
Y05401D03*
Y05451D03*
Y05501D03*
Y05551D03*
Y05601D03*
Y05651D03*
Y05701D03*
X01062Y05351D03*
Y05401D03*
Y05451D03*
Y05501D03*
Y05551D03*
Y05601D03*
Y05651D03*
Y05701D03*
G54D86*
X00681Y08875D03*
X0043D03*
G54D87*
X00894Y09713D03*
Y09673D03*
X00841D03*
Y09693D03*
Y09713D03*
G54D88*
X01912Y01525D03*
G54D89*
X01162Y01525D03*
Y0165D03*
X01912Y019D03*
X01162D03*
G54D90*
X00623Y02657D03*
X00735D03*
G54D91*
X01674Y09299D03*
Y09399D03*
X0143Y09299D03*
Y09399D03*
G54D92*
X01536Y09814D03*
Y09864D03*
Y09914D03*
Y09964D03*
Y09764D03*
Y09714D03*
Y09664D03*
Y09614D03*
X01179D03*
Y09664D03*
Y09714D03*
Y09764D03*
Y09964D03*
Y09914D03*
Y09864D03*
Y09814D03*
G54D93*
X02388Y02612D03*
X02323D03*
X0239Y02401D03*
X02325D03*
X02041Y02622D03*
X01976D03*
X02039Y02392D03*
X01974D03*
M02*