%FSTAX23Y23*%
%MOIN*%
%SFA1B1*%

%IPPOS*%
%ADD14C,0.005000*%
%LNprob_s7cas_pcb-1*%
%LPD*%
G54D14*
X04486Y04964D02*
X04616D01*
X04551Y04899D02*
Y05029D01*
X04278Y04029D02*
X04408D01*
X04343Y03964D02*
Y04094D01*
X02282Y04963D02*
X02412D01*
X02347Y04898D02*
Y05028D01*
X02074Y0546D02*
X02088D01*
X02081Y05453D02*
Y05466D01*
X02032Y0546D02*
X02045D01*
X02039Y05453D02*
Y05466D01*
X0199Y0546D02*
X02003D01*
X01996Y05453D02*
Y05466D01*
X02074Y05502D02*
X02088D01*
X02081Y05495D02*
Y05509D01*
X02032Y05502D02*
X02045D01*
X02039Y05495D02*
Y05509D01*
X0199Y05502D02*
X02003D01*
X01996Y05495D02*
Y05509D01*
X02074Y05544D02*
X02088D01*
X02081Y05537D02*
Y05551D01*
X02032Y05544D02*
X02045D01*
X02039Y05537D02*
Y05551D01*
X0199Y05544D02*
X02003D01*
X01996Y05537D02*
Y05551D01*
X00173Y00225D02*
X00303D01*
X00238Y0016D02*
Y0029D01*
X05397Y00289D02*
X05527D01*
X05462Y00224D02*
Y00354D01*
X05445Y10381D02*
X05574D01*
X0551Y10317D02*
Y10446D01*
X00202Y10413D02*
X00332D01*
X00267Y10348D02*
Y10478D01*
X00569Y0116D02*
X00634D01*
X00601Y01128D02*
Y01193D01*
X00669Y0106D02*
X00734D01*
X00701Y01028D02*
Y01093D01*
X00469Y0106D02*
X00534D01*
X00501Y01028D02*
Y01093D01*
X00469Y0126D02*
X00534D01*
X00501Y01228D02*
Y01293D01*
X00669Y0126D02*
X00734D01*
X00701Y01228D02*
Y01293D01*
X00569Y0076D02*
X00634D01*
X00601Y00728D02*
Y00793D01*
X00669Y0066D02*
X00734D01*
X00701Y00628D02*
Y00693D01*
X00469Y0066D02*
X00534D01*
X00501Y00628D02*
Y00693D01*
X00469Y0086D02*
X00534D01*
X00501Y00828D02*
Y00893D01*
X00669Y0086D02*
X00734D01*
X00701Y00828D02*
Y00893D01*
X00683Y03236D02*
X00748D01*
X00715Y03203D02*
Y03268D01*
X00483Y03236D02*
X00548D01*
X00515Y03203D02*
Y03268D01*
X00483Y03036D02*
X00548D01*
X00515Y03003D02*
Y03068D01*
X00683Y03036D02*
X00748D01*
X00715Y03003D02*
Y03068D01*
X00583Y03136D02*
X00648D01*
X00615Y03103D02*
Y03168D01*
X00683Y03676D02*
X00748D01*
X00715Y03643D02*
Y03708D01*
X00483Y03676D02*
X00548D01*
X00515Y03643D02*
Y03708D01*
X00483Y03476D02*
X00548D01*
X00515Y03443D02*
Y03508D01*
X00683Y03476D02*
X00748D01*
X00715Y03443D02*
Y03508D01*
X00583Y03576D02*
X00648D01*
X00615Y03543D02*
Y03608D01*
X00242Y06726D02*
X00293D01*
X00267Y06701D02*
Y06752D01*
X00242Y06923D02*
X00293D01*
X00267Y06897D02*
Y06949D01*
X00242Y0712D02*
X00293D01*
X00267Y07094D02*
Y07146D01*
X00242Y07317D02*
X00293D01*
X00267Y07291D02*
Y07342D01*
X00282Y0995D02*
X00373D01*
X00327Y09905D02*
Y09995D01*
X00282Y09476D02*
X00373D01*
X00327Y09431D02*
Y09521D01*
X00203Y09664D02*
X00239D01*
X00221Y09646D02*
Y09682D01*
X00203Y09762D02*
X00239D01*
X00221Y09745D02*
Y0978D01*
X00125Y09664D02*
X0016D01*
X00142Y09646D02*
Y09682D01*
X00125Y09762D02*
X0016D01*
X00142Y09745D02*
Y0978D01*
X00243Y05256D02*
X00371D01*
X00307Y05192D02*
Y0532D01*
X00243Y05756D02*
X00371D01*
X00307Y05692D02*
Y0582D01*
X0039Y05366D02*
X00425D01*
X00407Y05348D02*
Y05383D01*
X0039Y05446D02*
X00425D01*
X00407Y05428D02*
Y05463D01*
X0039Y05526D02*
X00425D01*
X00407Y05508D02*
Y05543D01*
X0039Y05606D02*
X00425D01*
X00407Y05588D02*
Y05623D01*
X0046Y05406D02*
X00495D01*
X00477Y05388D02*
Y05423D01*
X0046Y05486D02*
X00495D01*
X00477Y05468D02*
Y05503D01*
X0046Y05566D02*
X00495D01*
X00477Y05548D02*
Y05583D01*
X0046Y05646D02*
X00495D01*
X00477Y05628D02*
Y05663D01*
X0065Y05236D02*
X00685D01*
X00667Y05218D02*
Y05253D01*
X0065Y05686D02*
X00685D01*
X00667Y05668D02*
Y05703D01*
X0065Y05776D02*
X00685D01*
X00667Y05758D02*
Y05793D01*
X0065Y05326D02*
X00685D01*
X00667Y05308D02*
Y05343D01*
X00592Y08178D02*
X00663D01*
X00628Y08142D02*
Y08213D01*
X00592Y08343D02*
X00663D01*
X00628Y08308D02*
Y08379D01*
X00592Y08508D02*
X00663D01*
X00628Y08473D02*
Y08544D01*
X00809Y08178D02*
X0088D01*
X00844Y08142D02*
Y08213D01*
X00809Y08343D02*
X0088D01*
X00844Y08308D02*
Y08379D01*
X00809Y08508D02*
X0088D01*
X00844Y08473D02*
Y08544D01*
X00281Y08508D02*
X00399D01*
X0034Y08449D02*
Y08567D01*
X00281Y08178D02*
X00399D01*
X0034Y08119D02*
Y08237D01*
X02941Y04767D02*
X02945D01*
X02943Y04765D02*
Y04769D01*
X02899Y04769D02*
X02903D01*
X02901Y04767D02*
Y04771D01*
X05072Y06467D02*
X05076D01*
X05074Y06465D02*
Y06469D01*
X04981Y06532D02*
X04985D01*
X04983Y0653D02*
Y06534D01*
X04825Y06529D02*
X04829D01*
X04827Y06527D02*
Y06531D01*
X04882Y0653D02*
X04886D01*
X04884Y06528D02*
Y06532D01*
X04579Y06469D02*
X04583D01*
X04581Y06467D02*
Y06471D01*
X04592Y06518D02*
X04596D01*
X04594Y06516D02*
Y0652D01*
X03343Y05269D02*
X03347D01*
X03345Y05267D02*
Y05271D01*
X03409Y05284D02*
X03413D01*
X03411Y05282D02*
Y05286D01*
X03331Y05204D02*
X03335D01*
X03333Y05202D02*
Y05206D01*
X03297Y05199D02*
X03301D01*
X03299Y05197D02*
Y05201D01*
X03336Y05238D02*
X0334D01*
X03338Y05236D02*
Y0524D01*
X03698Y05231D02*
X03702D01*
X037Y05229D02*
Y05233D01*
X04653Y06161D02*
X04657D01*
X04655Y06159D02*
Y06163D01*
X04622Y0613D02*
X04626D01*
X04624Y06128D02*
Y06132D01*
X03841Y05324D02*
X03845D01*
X03843Y05322D02*
Y05326D01*
X03441Y04819D02*
X03445D01*
X03443Y04817D02*
Y04821D01*
X03411Y0477D02*
X03415D01*
X03413Y04768D02*
Y04772D01*
X04832Y06117D02*
X04836D01*
X04834Y06115D02*
Y06119D01*
X0341Y05086D02*
X03414D01*
X03412Y05084D02*
Y05088D01*
X03371Y05046D02*
X03375D01*
X03373Y05044D02*
Y05048D01*
X03632Y05297D02*
X03636D01*
X03634Y05295D02*
Y05299D01*
X03411Y05163D02*
X03415D01*
X03413Y05161D02*
Y05165D01*
X046Y06412D02*
X04604D01*
X04602Y0641D02*
Y06414D01*
X03479Y05292D02*
X03483D01*
X03481Y0529D02*
Y05294D01*
X04661Y06449D02*
X04665D01*
X04663Y06447D02*
Y06451D01*
X04599Y0645D02*
X04603D01*
X04601Y06448D02*
Y06452D01*
X0354Y0539D02*
X03544D01*
X03542Y05388D02*
Y05392D01*
X03559Y0541D02*
X03563D01*
X03561Y05408D02*
Y05412D01*
X03366Y04933D02*
X0337D01*
X03368Y04931D02*
Y04935D01*
X03523Y05091D02*
X03527D01*
X03525Y05089D02*
Y05093D01*
X03563Y0513D02*
X03567D01*
X03565Y05128D02*
Y05132D01*
X03326Y04894D02*
X0333D01*
X03328Y04892D02*
Y04896D01*
X03293Y04851D02*
X03297D01*
X03295Y04849D02*
Y04853D01*
X04741Y06252D02*
X04745D01*
X04743Y0625D02*
Y06254D01*
X04655Y06188D02*
X04659D01*
X04657Y06186D02*
Y0619D01*
X04659Y0612D02*
X04663D01*
X04661Y06118D02*
Y06122D01*
X04742Y06232D02*
X04746D01*
X04744Y0623D02*
Y06234D01*
X03372Y0477D02*
X03376D01*
X03374Y04768D02*
Y04772D01*
X03411Y04809D02*
X03415D01*
X03413Y04807D02*
Y04811D01*
X0345Y04848D02*
X03454D01*
X03452Y04846D02*
Y0485D01*
X03805Y05203D02*
X03809D01*
X03807Y05201D02*
Y05205D01*
X03726Y05124D02*
X0373D01*
X03728Y05122D02*
Y05126D01*
X0349Y04888D02*
X03494D01*
X03492Y04886D02*
Y0489D01*
X03657Y04997D02*
X03661D01*
X03659Y04995D02*
Y04999D01*
X038Y05129D02*
X03804D01*
X03802Y05127D02*
Y05131D01*
X03913Y05253D02*
X03917D01*
X03915Y05251D02*
Y05255D01*
X03456Y04764D02*
X0346D01*
X03458Y04762D02*
Y04766D01*
X03726Y05045D02*
X0373D01*
X03728Y05043D02*
Y05047D01*
X03898Y05317D02*
X03902D01*
X039Y05315D02*
Y05319D01*
X03414Y04846D02*
X03418D01*
X03416Y04844D02*
Y04848D01*
X03453Y04885D02*
X03457D01*
X03455Y04883D02*
Y04887D01*
X03571Y05003D02*
X03575D01*
X03573Y05001D02*
Y05005D01*
X03335Y04768D02*
X03339D01*
X03337Y04766D02*
Y0477D01*
X03903Y05329D02*
X03907D01*
X03905Y05327D02*
Y05331D01*
X03374Y04806D02*
X03378D01*
X03376Y04804D02*
Y04808D01*
X04741Y06155D02*
X04745D01*
X04743Y06153D02*
Y06157D01*
X04742Y06121D02*
X04746D01*
X04744Y06119D02*
Y06123D01*
X04741Y06179D02*
X04745D01*
X04743Y06177D02*
Y06181D01*
X0457Y06161D02*
X04574D01*
X04572Y06159D02*
Y06163D01*
X03302Y04918D02*
X03306D01*
X03304Y04916D02*
Y0492D01*
X03283Y04898D02*
X03287D01*
X03285Y04896D02*
Y049D01*
X03322Y04937D02*
X03326D01*
X03324Y04935D02*
Y04939D01*
X03243Y04859D02*
X03247D01*
X03245Y04857D02*
Y04861D01*
X03227Y04842D02*
X03231D01*
X03229Y0484D02*
Y04844D01*
X03525Y0501D02*
X03529D01*
X03527Y05008D02*
Y05012D01*
X03682Y05168D02*
X03686D01*
X03684Y05166D02*
Y0517D01*
X03486Y04972D02*
X0349D01*
X03488Y0497D02*
Y04974D01*
X03643Y05129D02*
X03647D01*
X03645Y05127D02*
Y05131D01*
X03367Y04853D02*
X03371D01*
X03369Y04851D02*
Y04855D01*
X03406Y04892D02*
X0341D01*
X03408Y0489D02*
Y04894D01*
X04664Y06226D02*
X04668D01*
X04666Y06224D02*
Y06228D01*
X04568Y06233D02*
X04572D01*
X0457Y06231D02*
Y06235D01*
X04836Y06196D02*
X0484D01*
X04838Y06194D02*
Y06198D01*
X03458Y0492D02*
X03462D01*
X0346Y04918D02*
Y04922D01*
X04594Y06208D02*
X04598D01*
X04596Y06206D02*
Y0621D01*
X04645Y06284D02*
X04649D01*
X04647Y06282D02*
Y06286D01*
X03252Y0489D02*
X03256D01*
X03254Y04888D02*
Y04892D01*
X03177Y04846D02*
X03181D01*
X03179Y04844D02*
Y04848D01*
X03256Y04924D02*
X0326D01*
X03258Y04922D02*
Y04926D01*
X04598Y06278D02*
X04602D01*
X046Y06276D02*
Y0628D01*
X03217Y04885D02*
X03221D01*
X03219Y04883D02*
Y04887D01*
X04828Y0627D02*
X04832D01*
X0483Y06268D02*
Y06272D01*
X04568Y06278D02*
X04572D01*
X0457Y06276D02*
Y0628D01*
X03513Y05493D02*
X03517D01*
X03515Y05491D02*
Y05495D01*
X03246Y05171D02*
X0325D01*
X03248Y05169D02*
Y05173D01*
X04569Y06402D02*
X04573D01*
X04571Y064D02*
Y06404D01*
X03335Y0513D02*
X03339D01*
X03337Y05128D02*
Y05132D01*
X03291Y05087D02*
X03295D01*
X03293Y05085D02*
Y05089D01*
X03511Y05458D02*
X03515D01*
X03513Y05456D02*
Y0546D01*
X03216Y05162D02*
X0322D01*
X03218Y0516D02*
Y05164D01*
X03294Y05241D02*
X03298D01*
X03296Y05239D02*
Y05243D01*
X03333Y05163D02*
X03337D01*
X03335Y05161D02*
Y05165D01*
X03109Y04905D02*
X03113D01*
X03111Y04903D02*
Y04907D01*
X031Y04885D02*
X03104D01*
X03102Y04883D02*
Y04887D01*
X03059Y04885D02*
X03063D01*
X03061Y04883D02*
Y04887D01*
X03587Y05417D02*
X03591D01*
X03589Y05415D02*
Y05419D01*
X03252Y05047D02*
X03256D01*
X03254Y05045D02*
Y05049D01*
X03169Y05003D02*
X03173D01*
X03171Y05001D02*
Y05005D01*
X03256Y05113D02*
X0326D01*
X03258Y05111D02*
Y05115D01*
X03217Y05082D02*
X03221D01*
X03219Y0508D02*
Y05084D01*
X03457Y05544D02*
X03461D01*
X03459Y05542D02*
Y05546D01*
X04541Y06624D02*
X04545D01*
X04543Y06622D02*
Y06626D01*
X03455Y05631D02*
X03459D01*
X03457Y05629D02*
Y05633D01*
X03433Y05607D02*
X03437D01*
X03435Y05605D02*
Y05609D01*
X03174Y05316D02*
X03178D01*
X03176Y05314D02*
Y05318D01*
X0345Y05584D02*
X03454D01*
X03452Y05582D02*
Y05586D01*
X0343Y05698D02*
X03434D01*
X03432Y05696D02*
Y057D01*
X03283Y05527D02*
X03287D01*
X03285Y05525D02*
Y05529D01*
X03249Y05493D02*
X03253D01*
X03251Y05491D02*
Y05495D01*
X02787Y04942D02*
X02791D01*
X02789Y0494D02*
Y04944D01*
X02999Y05287D02*
X03003D01*
X03001Y05285D02*
Y05289D01*
X03097Y05283D02*
X03101D01*
X03099Y05281D02*
Y05285D01*
X02902Y05043D02*
X02906D01*
X02904Y05041D02*
Y05045D01*
X02981Y05121D02*
X02985D01*
X02983Y05119D02*
Y05123D01*
X03446Y05727D02*
X0345D01*
X03448Y05725D02*
Y05729D01*
X03448Y05673D02*
X03452D01*
X0345Y05671D02*
Y05675D01*
X03215Y05436D02*
X03219D01*
X03217Y05434D02*
Y05438D01*
X03415Y05781D02*
X03419D01*
X03417Y05779D02*
Y05783D01*
X03417Y05819D02*
X03421D01*
X03419Y05817D02*
Y05821D01*
X03393Y05801D02*
X03397D01*
X03395Y05799D02*
Y05803D01*
X03394Y05842D02*
X03398D01*
X03396Y0584D02*
Y05844D01*
X03417Y0586D02*
X03421D01*
X03419Y05858D02*
Y05862D01*
X02863Y05318D02*
X02867D01*
X02865Y05316D02*
Y0532D01*
X02899Y05203D02*
X02903D01*
X02901Y05201D02*
Y05205D01*
X02941Y05279D02*
X02945D01*
X02943Y05277D02*
Y05281D01*
X02981Y052D02*
X02985D01*
X02983Y05198D02*
Y05202D01*
X04015Y05115D02*
X04019D01*
X04017Y05113D02*
Y05117D01*
X03885Y0494D02*
X03889D01*
X03887Y04938D02*
Y04942D01*
X04029Y05084D02*
X04033D01*
X04031Y05082D02*
Y05086D01*
X03808Y04806D02*
X03812D01*
X0381Y04804D02*
Y04808D01*
X03794Y04741D02*
X03798D01*
X03796Y04739D02*
Y04743D01*
X0402Y04929D02*
X04024D01*
X04022Y04927D02*
Y04931D01*
X0404Y04949D02*
X04044D01*
X04042Y04947D02*
Y04951D01*
X03816Y0464D02*
X0382D01*
X03818Y04638D02*
Y04642D01*
X03721Y04578D02*
X03725D01*
X03723Y04576D02*
Y0458D01*
X03926Y04739D02*
X0393D01*
X03928Y04737D02*
Y04741D01*
X0395Y04719D02*
X03954D01*
X03952Y04717D02*
Y04721D01*
X03651Y04649D02*
X03655D01*
X03653Y04647D02*
Y04651D01*
X03611Y04609D02*
X03615D01*
X03613Y04607D02*
Y04611D01*
X03807Y0457D02*
X03811D01*
X03809Y04568D02*
Y04572D01*
X03939Y0512D02*
X03943D01*
X03941Y05118D02*
Y05122D01*
X04943Y06687D02*
X04947D01*
X04945Y06685D02*
Y06689D01*
X04974Y06687D02*
X04978D01*
X04976Y06685D02*
Y06689D01*
X03433Y0551D02*
X03437D01*
X03435Y05508D02*
Y05512D01*
X03225Y05312D02*
X03229D01*
X03227Y0531D02*
Y05314D01*
X03185Y05272D02*
X03189D01*
X03187Y0527D02*
Y05274D01*
X04943Y06655D02*
X04947D01*
X04945Y06653D02*
Y06657D01*
X04882Y06631D02*
X04886D01*
X04884Y06629D02*
Y06633D01*
X04943Y06631D02*
X04947D01*
X04945Y06629D02*
Y06633D01*
X05071Y06593D02*
X05075D01*
X05073Y06591D02*
Y06595D01*
X04975Y06625D02*
X04979D01*
X04977Y06623D02*
Y06627D01*
X04622Y06624D02*
X04626D01*
X04624Y06622D02*
Y06626D01*
X04974Y06561D02*
X04978D01*
X04976Y06559D02*
Y06563D01*
X03292Y05282D02*
X03296D01*
X03294Y0528D02*
Y05284D01*
X03332Y05321D02*
X03336D01*
X03334Y05319D02*
Y05323D01*
X03237Y05227D02*
X03241D01*
X03239Y05225D02*
Y05229D01*
X03214Y05203D02*
X03218D01*
X03216Y05201D02*
Y05205D01*
X04567Y06514D02*
X04571D01*
X04569Y06512D02*
Y06516D01*
X04742Y06527D02*
X04746D01*
X04744Y06525D02*
Y06529D01*
X04882Y06561D02*
X04886D01*
X04884Y06559D02*
Y06563D01*
X05071Y06498D02*
X05075D01*
X05073Y06496D02*
Y065D01*
X02863Y04491D02*
X02867D01*
X02865Y04489D02*
Y04493D01*
X02863Y04452D02*
X02867D01*
X02865Y0445D02*
Y04454D01*
X03217Y04452D02*
X03221D01*
X03219Y0445D02*
Y04454D01*
X03729Y0461D02*
X03733D01*
X03731Y04608D02*
Y04612D01*
X02863Y04688D02*
X02867D01*
X02865Y04686D02*
Y0469D01*
X02941Y04806D02*
X02945D01*
X02943Y04804D02*
Y04808D01*
X02981Y04846D02*
X02985D01*
X02983Y04844D02*
Y04848D01*
X03019Y04886D02*
X03023D01*
X03021Y04884D02*
Y04888D01*
X03807Y04885D02*
X03811D01*
X03809Y04883D02*
Y04887D01*
X02862Y04767D02*
X02866D01*
X02864Y04765D02*
Y04769D01*
X03898Y05002D02*
X03902D01*
X039Y05D02*
Y05004D01*
X02902Y04885D02*
X02906D01*
X02904Y04883D02*
Y04887D01*
X04658Y06491D02*
X04662D01*
X0466Y06489D02*
Y06493D01*
X05163Y06435D02*
X05167D01*
X05165Y06433D02*
Y06437D01*
X05132Y06466D02*
X05136D01*
X05134Y06464D02*
Y06468D01*
X05071Y06435D02*
X05075D01*
X05073Y06433D02*
Y06437D01*
X05132Y06435D02*
X05136D01*
X05134Y06433D02*
Y06437D01*
X02981Y04767D02*
X02985D01*
X02983Y04765D02*
Y04769D01*
X03689Y04924D02*
X03693D01*
X03691Y04922D02*
Y04926D01*
X05132Y06309D02*
X05136D01*
X05134Y06307D02*
Y06311D01*
X03138Y05004D02*
X03142D01*
X0314Y05002D02*
Y05006D01*
X0302Y04806D02*
X03024D01*
X03022Y04804D02*
Y04808D01*
X04658Y06379D02*
X04662D01*
X0466Y06377D02*
Y06381D01*
X04742Y06452D02*
X04746D01*
X04744Y0645D02*
Y06454D01*
X05073Y06343D02*
X05077D01*
X05075Y06341D02*
Y06345D01*
X02981Y04806D02*
X02985D01*
X02983Y04804D02*
Y04808D01*
X04747Y06343D02*
X04751D01*
X04749Y06341D02*
Y06345D01*
X04743Y06305D02*
X04747D01*
X04745Y06303D02*
Y06307D01*
X04828Y06415D02*
X04832D01*
X0483Y06413D02*
Y06417D01*
X04828Y06451D02*
X04832D01*
X0483Y06449D02*
Y06453D01*
X04974Y06403D02*
X04978D01*
X04976Y06401D02*
Y06405D01*
X04943Y06435D02*
X04947D01*
X04945Y06433D02*
Y06437D01*
X04974Y06466D02*
X04978D01*
X04976Y06464D02*
Y06468D01*
X04974Y06435D02*
X04978D01*
X04976Y06433D02*
Y06437D01*
X04943Y06466D02*
X04947D01*
X04945Y06464D02*
Y06468D01*
X04943Y06498D02*
X04947D01*
X04945Y06496D02*
Y065D01*
X04943Y06403D02*
X04947D01*
X04945Y06401D02*
Y06405D01*
X03326Y04974D02*
X0333D01*
X03328Y04972D02*
Y04976D01*
X05134Y06371D02*
X05138D01*
X05136Y06369D02*
Y06373D01*
X04882Y06435D02*
X04886D01*
X04884Y06433D02*
Y06437D01*
X04828Y0638D02*
X04832D01*
X0483Y06378D02*
Y06382D01*
X03571Y05279D02*
X03575D01*
X03573Y05277D02*
Y05281D01*
X03257Y04964D02*
X03261D01*
X03259Y04962D02*
Y04966D01*
X03217Y04924D02*
X03221D01*
X03219Y04922D02*
Y04926D01*
X03492Y052D02*
X03496D01*
X03494Y05198D02*
Y05202D01*
X03655Y04447D02*
X03659D01*
X03657Y04445D02*
Y04449D01*
X03492Y0457D02*
X03496D01*
X03494Y04568D02*
Y04572D01*
X05208Y06275D02*
X05212D01*
X0521Y06273D02*
Y06277D01*
X03729Y04806D02*
X03733D01*
X03731Y04804D02*
Y04808D01*
X0365Y04728D02*
X03654D01*
X03652Y04726D02*
Y0473D01*
X03453Y04531D02*
X03457D01*
X03455Y04529D02*
Y04533D01*
X05163Y06246D02*
X05167D01*
X05165Y06244D02*
Y06248D01*
X05163Y06687D02*
X05167D01*
X05165Y06685D02*
Y06689D01*
X05068Y06152D02*
X05072D01*
X0507Y0615D02*
Y06154D01*
X04974Y0634D02*
X04978D01*
X04976Y06338D02*
Y06342D01*
X04974Y06372D02*
X04978D01*
X04976Y0637D02*
Y06374D01*
X04974Y06309D02*
X04978D01*
X04976Y06307D02*
Y06311D01*
X05071Y06404D02*
X05075D01*
X05073Y06402D02*
Y06406D01*
X05071Y06309D02*
X05075D01*
X05073Y06307D02*
Y06311D01*
X05071Y06561D02*
X05075D01*
X05073Y06559D02*
Y06563D01*
X05071Y06624D02*
X05075D01*
X05073Y06622D02*
Y06626D01*
X05071Y0653D02*
X05075D01*
X05073Y06528D02*
Y06532D01*
X05132Y0634D02*
X05136D01*
X05134Y06338D02*
Y06342D01*
X05208Y06203D02*
X05212D01*
X0521Y06201D02*
Y06205D01*
X05208Y06493D02*
X05212D01*
X0521Y06491D02*
Y06495D01*
X05163Y06498D02*
X05167D01*
X05165Y06496D02*
Y065D01*
X05132Y06529D02*
X05136D01*
X05134Y06527D02*
Y06531D01*
X05313Y07036D02*
X05317D01*
X05315Y07034D02*
Y07038D01*
X05301Y0716D02*
X05305D01*
X05303Y07158D02*
Y07162D01*
X02863Y04806D02*
X02867D01*
X02865Y04804D02*
Y04808D01*
X02863Y0473D02*
X02867D01*
X02865Y04728D02*
Y04732D01*
X02861Y04649D02*
X02865D01*
X02863Y04647D02*
Y04651D01*
X04882Y06719D02*
X04886D01*
X04884Y06717D02*
Y06721D01*
X04974Y06718D02*
X04978D01*
X04976Y06716D02*
Y0672D01*
X02862Y0457D02*
X02866D01*
X02864Y04568D02*
Y04572D01*
X02863Y0461D02*
X02867D01*
X02865Y04608D02*
Y04612D01*
X03174Y05955D02*
X03178D01*
X03176Y05953D02*
Y05957D01*
X02941Y04491D02*
X02945D01*
X02943Y04489D02*
Y04493D01*
X04009Y05227D02*
X04013D01*
X04011Y05225D02*
Y05229D01*
X03803Y04968D02*
X03807D01*
X03805Y04966D02*
Y0497D01*
X03528Y04693D02*
X03532D01*
X0353Y04691D02*
Y04695D01*
X02981Y0461D02*
X02985D01*
X02983Y04608D02*
Y04612D01*
X02941Y0461D02*
X02945D01*
X02943Y04608D02*
Y04612D01*
X03916Y05055D02*
X0392D01*
X03918Y05053D02*
Y05057D01*
X04974Y06498D02*
X04978D01*
X04976Y06496D02*
Y065D01*
X03178Y04648D02*
X03182D01*
X0318Y04646D02*
Y0465D01*
X02942Y04649D02*
X02946D01*
X02944Y04647D02*
Y04651D01*
X02901Y04688D02*
X02905D01*
X02903Y04686D02*
Y0469D01*
X04831Y06155D02*
X04835D01*
X04833Y06153D02*
Y06157D01*
X04975Y06276D02*
X04979D01*
X04977Y06274D02*
Y06278D01*
X04943Y06309D02*
X04947D01*
X04945Y06307D02*
Y06311D01*
X04882Y06309D02*
X04886D01*
X04884Y06307D02*
Y06311D01*
X04943Y06277D02*
X04947D01*
X04945Y06275D02*
Y06279D01*
X04882Y06246D02*
X04886D01*
X04884Y06244D02*
Y06248D01*
X03059Y04806D02*
X03063D01*
X03061Y04804D02*
Y04808D01*
X03099Y04806D02*
X03103D01*
X03101Y04804D02*
Y04808D01*
X03059Y04846D02*
X03063D01*
X03061Y04844D02*
Y04848D01*
X03138Y04885D02*
X03142D01*
X0314Y04883D02*
Y04887D01*
X03334Y04807D02*
X03338D01*
X03336Y04805D02*
Y04809D01*
X03296Y04806D02*
X033D01*
X03298Y04804D02*
Y04808D01*
X03217Y04805D02*
X03221D01*
X03219Y04803D02*
Y04807D01*
X03374Y04885D02*
X03378D01*
X03376Y04883D02*
Y04887D01*
X03176Y04807D02*
X0318D01*
X03178Y04805D02*
Y04809D01*
X03138Y04806D02*
X03142D01*
X0314Y04804D02*
Y04808D01*
X03296Y04768D02*
X033D01*
X03298Y04766D02*
Y0477D01*
X04883Y06273D02*
X04887D01*
X04885Y06271D02*
Y06275D01*
X04828Y06217D02*
X04832D01*
X0483Y06215D02*
Y06219D01*
X04882Y06372D02*
X04886D01*
X04884Y0637D02*
Y06374D01*
X04882Y06341D02*
X04886D01*
X04884Y06339D02*
Y06343D01*
X04974Y06246D02*
X04978D01*
X04976Y06244D02*
Y06248D01*
X02746Y05209D02*
X0275D01*
X02748Y05207D02*
Y05211D01*
X03041Y05955D02*
X03045D01*
X03043Y05953D02*
Y05957D01*
X02941Y04846D02*
X02945D01*
X02943Y04844D02*
Y04848D01*
X04658Y06306D02*
X04662D01*
X0466Y06304D02*
Y06308D01*
X03247Y07541D02*
X03251D01*
X03249Y07539D02*
Y07543D01*
X03258Y07557D02*
X03262D01*
X0326Y07555D02*
Y07559D01*
X03246Y07569D02*
X0325D01*
X03248Y07567D02*
Y07571D01*
X03059Y07427D02*
X03063D01*
X03061Y07425D02*
Y07429D01*
X03071Y07412D02*
X03075D01*
X03073Y0741D02*
Y07414D01*
X02861Y07439D02*
X02865D01*
X02863Y07437D02*
Y07441D01*
X02868Y07426D02*
X02872D01*
X0287Y07424D02*
Y07428D01*
X02829Y07312D02*
X02833D01*
X02831Y0731D02*
Y07314D01*
X0282Y07321D02*
X02824D01*
X02822Y07319D02*
Y07323D01*
X02748Y07312D02*
X02752D01*
X0275Y0731D02*
Y07314D01*
X02739Y07321D02*
X02743D01*
X02741Y07319D02*
Y07323D01*
X0296Y07371D02*
X02964D01*
X02962Y07369D02*
Y07373D01*
X02945Y07383D02*
X02949D01*
X02947Y07381D02*
Y07385D01*
X02901Y07369D02*
X02905D01*
X02903Y07367D02*
Y07371D01*
X02887Y07383D02*
X02891D01*
X02889Y07381D02*
Y07385D01*
X028Y07393D02*
X02804D01*
X02802Y07391D02*
Y07395D01*
X02789Y07376D02*
X02793D01*
X02791Y07374D02*
Y07378D01*
X02741Y07393D02*
X02745D01*
X02743Y07391D02*
Y07395D01*
X02729Y07376D02*
X02733D01*
X02731Y07374D02*
Y07378D01*
X02602Y07378D02*
X02606D01*
X02604Y07376D02*
Y0738D01*
X02614Y07396D02*
X02618D01*
X02616Y07394D02*
Y07398D01*
X02596Y07423D02*
X026D01*
X02598Y07421D02*
Y07425D01*
X02603Y07443D02*
X02607D01*
X02605Y07441D02*
Y07445D01*
X02786Y07323D02*
X0279D01*
X02788Y07321D02*
Y07325D01*
X02795Y07311D02*
X02799D01*
X02797Y07309D02*
Y07313D01*
X02704Y07321D02*
X02708D01*
X02706Y07319D02*
Y07323D01*
X02713Y07312D02*
X02717D01*
X02715Y0731D02*
Y07314D01*
X03014Y07429D02*
X03018D01*
X03016Y07427D02*
Y07431D01*
X03034Y07417D02*
X03038D01*
X03036Y07415D02*
Y07419D01*
X03025Y07408D02*
X03029D01*
X03027Y07406D02*
Y0741D01*
X02986Y07427D02*
X0299D01*
X02988Y07425D02*
Y07429D01*
X02979Y07443D02*
X02983D01*
X02981Y07441D02*
Y07445D01*
X02927Y07426D02*
X02931D01*
X02929Y07424D02*
Y07428D01*
X02919Y07438D02*
X02923D01*
X02921Y07436D02*
Y0744D01*
X02769Y07426D02*
X02773D01*
X02771Y07424D02*
Y07428D01*
X02762Y07441D02*
X02766D01*
X02764Y07439D02*
Y07443D01*
X02711Y07426D02*
X02715D01*
X02713Y07424D02*
Y07428D01*
X02703Y07439D02*
X02707D01*
X02705Y07437D02*
Y07441D01*
X02445Y07647D02*
X02449D01*
X02447Y07645D02*
Y07649D01*
X02431Y07666D02*
X02435D01*
X02433Y07664D02*
Y07668D01*
X02631Y07647D02*
X02635D01*
X02633Y07645D02*
Y07649D01*
X02645Y07639D02*
X02649D01*
X02647Y07637D02*
Y07641D01*
X02645Y0758D02*
X02649D01*
X02647Y07578D02*
Y07582D01*
X02631Y07588D02*
X02635D01*
X02633Y07586D02*
Y0759D01*
X0252Y07881D02*
X02524D01*
X02522Y07879D02*
Y07883D01*
X02374Y07891D02*
X02378D01*
X02376Y07889D02*
Y07893D01*
X03471Y07627D02*
X03475D01*
X03473Y07625D02*
Y07629D01*
X03482Y07586D02*
X03486D01*
X03484Y07584D02*
Y07588D01*
X03509Y07627D02*
X03513D01*
X03511Y07625D02*
Y07629D01*
X03516Y07587D02*
X0352D01*
X03518Y07585D02*
Y07589D01*
X03708Y07749D02*
X03712D01*
X0371Y07747D02*
Y07751D01*
X03722Y07776D02*
X03726D01*
X03724Y07774D02*
Y07778D01*
X03593Y06989D02*
X03597D01*
X03595Y06987D02*
Y06991D01*
X03582Y07003D02*
X03586D01*
X03584Y07001D02*
Y07005D01*
X03628Y06875D02*
X03632D01*
X0363Y06873D02*
Y06877D01*
X03644Y06861D02*
X03648D01*
X03646Y06859D02*
Y06863D01*
X04066Y07032D02*
X0407D01*
X04068Y0703D02*
Y07034D01*
X04079Y0699D02*
X04083D01*
X04081Y06988D02*
Y06992D01*
X0411Y06796D02*
X04114D01*
X04112Y06794D02*
Y06798D01*
X04098Y06807D02*
X04102D01*
X041Y06805D02*
Y06809D01*
X04112Y0689D02*
X04116D01*
X04114Y06888D02*
Y06892D01*
X04099Y06905D02*
X04103D01*
X04101Y06903D02*
Y06907D01*
X04015Y07049D02*
X04019D01*
X04017Y07047D02*
Y07051D01*
X04033Y07032D02*
X04037D01*
X04035Y0703D02*
Y07034D01*
X04008Y0701D02*
X04012D01*
X0401Y07008D02*
Y07012D01*
X04032Y06989D02*
X04036D01*
X04034Y06987D02*
Y06991D01*
X04015Y06968D02*
X04019D01*
X04017Y06966D02*
Y0697D01*
X03988Y06953D02*
X03992D01*
X0399Y06951D02*
Y06955D01*
X04003Y06934D02*
X04007D01*
X04005Y06932D02*
Y06936D01*
X01815Y09403D02*
X01819D01*
X01817Y09401D02*
Y09405D01*
X01832Y09419D02*
X01836D01*
X01834Y09417D02*
Y09421D01*
X02098Y09379D02*
X02102D01*
X021Y09377D02*
Y09381D01*
X02141Y09379D02*
X02145D01*
X02143Y09377D02*
Y09381D01*
X02902Y09678D02*
X02906D01*
X02904Y09676D02*
Y0968D01*
X02943Y09651D02*
X02947D01*
X02945Y09649D02*
Y09653D01*
X02299Y09379D02*
X02303D01*
X02301Y09377D02*
Y09381D01*
X02255Y09379D02*
X02259D01*
X02257Y09377D02*
Y09381D01*
X02919Y09725D02*
X02923D01*
X02921Y09723D02*
Y09727D01*
X02947Y09766D02*
X02951D01*
X02949Y09764D02*
Y09768D01*
X0195Y10127D02*
X01954D01*
X01952Y10125D02*
Y10129D01*
X01869Y10127D02*
X01873D01*
X01871Y10125D02*
Y10129D01*
X01907Y10142D02*
X01911D01*
X01909Y1014D02*
Y10144D01*
X02048Y10097D02*
X02052D01*
X0205Y10095D02*
Y10099D01*
X02068Y10084D02*
X02072D01*
X0207Y10082D02*
Y10086D01*
X01485Y0995D02*
X01489D01*
X01487Y09948D02*
Y09952D01*
X01482Y09773D02*
X01486D01*
X01484Y09771D02*
Y09775D01*
X0148Y09825D02*
X01484D01*
X01482Y09823D02*
Y09827D01*
X01485Y09878D02*
X01489D01*
X01487Y09876D02*
Y0988D01*
X01593Y09921D02*
X01597D01*
X01595Y09919D02*
Y09923D01*
X01635Y09907D02*
X01639D01*
X01637Y09905D02*
Y09909D01*
X01592Y09956D02*
X01596D01*
X01594Y09954D02*
Y09958D01*
X01635Y09969D02*
X01639D01*
X01637Y09967D02*
Y09971D01*
X0187Y10089D02*
X01874D01*
X01872Y10087D02*
Y10091D01*
X01907Y10113D02*
X01911D01*
X01909Y10111D02*
Y10115D01*
X01934Y10073D02*
X01938D01*
X01936Y10071D02*
Y10075D01*
X01952Y10088D02*
X01956D01*
X01954Y10086D02*
Y1009D01*
X01979Y09999D02*
X01983D01*
X01981Y09997D02*
Y10001D01*
X01999Y09986D02*
X02003D01*
X02001Y09984D02*
Y09988D01*
X00564Y09239D02*
X00568D01*
X00566Y09237D02*
Y09241D01*
X00564Y09276D02*
X00568D01*
X00566Y09274D02*
Y09278D01*
X01341Y07191D02*
X01345D01*
X01343Y07189D02*
Y07193D01*
X01273Y0761D02*
X01277D01*
X01275Y07608D02*
Y07612D01*
X01383Y07407D02*
X01387D01*
X01385Y07405D02*
Y07409D01*
X03467Y04122D02*
X03471D01*
X03469Y0412D02*
Y04124D01*
X03483Y04156D02*
X03487D01*
X03485Y04154D02*
Y04158D01*
X03494Y04175D02*
X03498D01*
X03496Y04173D02*
Y04177D01*
X03467Y04176D02*
X03471D01*
X03469Y04174D02*
Y04178D01*
X03495Y04266D02*
X03499D01*
X03497Y04264D02*
Y04268D01*
X03471Y04266D02*
X03475D01*
X03473Y04264D02*
Y04268D01*
X03168Y04171D02*
X03172D01*
X0317Y04169D02*
Y04173D01*
X03125Y0417D02*
X03129D01*
X03127Y04168D02*
Y04172D01*
X03167Y04126D02*
X03171D01*
X03169Y04124D02*
Y04128D01*
X03155Y0414D02*
X03159D01*
X03157Y04138D02*
Y04142D01*
X03143Y04125D02*
X03147D01*
X03145Y04123D02*
Y04127D01*
X0313Y0414D02*
X03134D01*
X03132Y04138D02*
Y04142D01*
X03117Y04125D02*
X03121D01*
X03119Y04123D02*
Y04127D01*
X03176Y04269D02*
X0318D01*
X03178Y04267D02*
Y04271D01*
X03167Y0426D02*
X03171D01*
X03169Y04258D02*
Y04262D01*
X03121Y0427D02*
X03125D01*
X03123Y04268D02*
Y04272D01*
X03132Y04258D02*
X03136D01*
X03134Y04256D02*
Y0426D01*
X03146Y04275D02*
X0315D01*
X03148Y04273D02*
Y04277D01*
X03396Y04288D02*
X034D01*
X03398Y04286D02*
Y0429D01*
X03309Y04288D02*
X03313D01*
X03311Y04286D02*
Y0429D01*
X05485Y07D02*
X05489D01*
X05487Y06998D02*
Y07002D01*
X05463Y06994D02*
X05467D01*
X05465Y06992D02*
Y06996D01*
X02329Y00714D02*
X02333D01*
X02331Y00712D02*
Y00716D01*
X02312Y00718D02*
X02316D01*
X02314Y00716D02*
Y0072D01*
X02318Y00637D02*
X02322D01*
X0232Y00635D02*
Y00639D01*
X02307Y00675D02*
X02311D01*
X02309Y00673D02*
Y00677D01*
X02304Y00737D02*
X02308D01*
X02306Y00735D02*
Y00739D01*
X0227Y0072D02*
X02274D01*
X02272Y00718D02*
Y00722D01*
X02261Y00737D02*
X02265D01*
X02263Y00735D02*
Y00739D01*
X02321Y0111D02*
X02325D01*
X02323Y01108D02*
Y01112D01*
X02307Y01083D02*
X02311D01*
X02309Y01081D02*
Y01085D01*
X02297Y0111D02*
X02301D01*
X02299Y01108D02*
Y01112D01*
X02268Y01094D02*
X02272D01*
X0227Y01092D02*
Y01096D01*
X02258Y01082D02*
X02262D01*
X0226Y0108D02*
Y01084D01*
X04014Y01891D02*
X04018D01*
X04016Y01889D02*
Y01893D01*
X03997Y01909D02*
X04001D01*
X03999Y01907D02*
Y01911D01*
X03052Y01662D02*
X03056D01*
X03054Y0166D02*
Y01664D01*
X03034Y01685D02*
X03038D01*
X03036Y01683D02*
Y01687D01*
X03162Y01805D02*
X03166D01*
X03164Y01803D02*
Y01807D01*
X03139Y01783D02*
X03143D01*
X03141Y01781D02*
Y01785D01*
X02599Y01783D02*
X02603D01*
X02601Y01781D02*
Y01785D01*
X02622Y01805D02*
X02626D01*
X02624Y01803D02*
Y01807D01*
X02494Y01685D02*
X02498D01*
X02496Y01683D02*
Y01687D01*
X02512Y01662D02*
X02516D01*
X02514Y0166D02*
Y01664D01*
X02154Y03371D02*
X02158D01*
X02156Y03369D02*
Y03373D01*
X02128Y03432D02*
X02132D01*
X0213Y0343D02*
Y03434D01*
X02131Y03531D02*
X02135D01*
X02133Y03529D02*
Y03533D01*
X01921Y03692D02*
X01925D01*
X01923Y0369D02*
Y03694D01*
X0197Y03693D02*
X01974D01*
X01972Y03691D02*
Y03695D01*
X02019Y03692D02*
X02023D01*
X02021Y0369D02*
Y03694D01*
X02089Y03693D02*
X02093D01*
X02091Y03691D02*
Y03695D01*
X02121Y03667D02*
X02125D01*
X02123Y03665D02*
Y03669D01*
X02178Y03608D02*
X02182D01*
X0218Y03606D02*
Y0361D01*
X0217Y06077D02*
X02174D01*
X02172Y06075D02*
Y06079D01*
X02127Y06077D02*
X02131D01*
X02129Y06075D02*
Y06079D01*
X02137Y0663D02*
X02141D01*
X02139Y06628D02*
Y06632D01*
X02183Y06562D02*
X02187D01*
X02185Y0656D02*
Y06564D01*
X02076Y06904D02*
X0208D01*
X02078Y06902D02*
Y06906D01*
X02029Y06972D02*
X02033D01*
X02031Y0697D02*
Y06974D01*
X00951Y06689D02*
X00955D01*
X00953Y06687D02*
Y06691D01*
X00899Y06664D02*
X00903D01*
X00901Y06662D02*
Y06666D01*
X00843Y06692D02*
X00847D01*
X00845Y0669D02*
Y06694D01*
X00646Y06589D02*
X0065D01*
X00648Y06587D02*
Y06591D01*
X00674Y06549D02*
X00678D01*
X00676Y06547D02*
Y06551D01*
X00648Y06505D02*
X00652D01*
X0065Y06503D02*
Y06507D01*
X01785Y08482D02*
X01789D01*
X01787Y0848D02*
Y08484D01*
X01829Y08428D02*
X01833D01*
X01831Y08426D02*
Y0843D01*
X01639Y08573D02*
X01643D01*
X01641Y08571D02*
Y08575D01*
X01671Y08466D02*
X01675D01*
X01673Y08464D02*
Y08468D01*
X0164Y08356D02*
X01644D01*
X01642Y08354D02*
Y08358D01*
X01637Y08149D02*
X01641D01*
X01639Y08147D02*
Y08151D01*
X01669Y08062D02*
X01673D01*
X01671Y0806D02*
Y08064D01*
X01634Y08003D02*
X01638D01*
X01636Y08001D02*
Y08005D01*
X01748Y08777D02*
X01752D01*
X0175Y08775D02*
Y08779D01*
X01515Y08777D02*
X01519D01*
X01517Y08775D02*
Y08779D01*
X01727Y08727D02*
X01731D01*
X01729Y08725D02*
Y08729D01*
X01689Y08769D02*
X01693D01*
X01691Y08767D02*
Y08771D01*
X01634Y08726D02*
X01638D01*
X01636Y08724D02*
Y08728D01*
X01577Y08771D02*
X01581D01*
X01579Y08769D02*
Y08773D01*
X01538Y08729D02*
X01542D01*
X0154Y08727D02*
Y08731D01*
X01408Y08768D02*
X01412D01*
X0141Y08766D02*
Y0877D01*
X0136Y08711D02*
X01364D01*
X01362Y08709D02*
Y08713D01*
X01472Y06789D02*
X01476D01*
X01474Y06787D02*
Y06791D01*
X01499Y06763D02*
X01503D01*
X01501Y06761D02*
Y06765D01*
X0147Y06739D02*
X01474D01*
X01472Y06737D02*
Y06741D01*
X01373Y0673D02*
X01377D01*
X01375Y06728D02*
Y06732D01*
X01347Y06702D02*
X01351D01*
X01349Y067D02*
Y06704D01*
X01323Y06731D02*
X01327D01*
X01325Y06729D02*
Y06733D01*
X01393Y06871D02*
X01397D01*
X01395Y06869D02*
Y06873D01*
X01571Y06875D02*
X01575D01*
X01573Y06873D02*
Y06877D01*
X01238Y06875D02*
X01242D01*
X0124Y06873D02*
Y06877D01*
X0085Y06445D02*
X00854D01*
X00852Y06443D02*
Y06447D01*
X00826Y06474D02*
X0083D01*
X00828Y06472D02*
Y06476D01*
X008Y06446D02*
X00804D01*
X00802Y06444D02*
Y06448D01*
X01181Y06445D02*
X01185D01*
X01183Y06443D02*
Y06447D01*
X01157Y06474D02*
X01161D01*
X01159Y06472D02*
Y06476D01*
X01131Y06446D02*
X01135D01*
X01133Y06444D02*
Y06448D01*
X011Y02218D02*
X01104D01*
X01102Y02216D02*
Y0222D01*
X01036Y02171D02*
X0104D01*
X01038Y02169D02*
Y02173D01*
X00986Y02228D02*
X0099D01*
X00988Y02226D02*
Y0223D01*
X00929Y0217D02*
X00933D01*
X00931Y02168D02*
Y02172D01*
X00872Y02243D02*
X00876D01*
X00874Y02241D02*
Y02245D01*
X00845Y02198D02*
X00849D01*
X00847Y02196D02*
Y022D01*
X02369Y03655D02*
X02373D01*
X02371Y03653D02*
Y03657D01*
X02345Y03637D02*
X02349D01*
X02347Y03635D02*
Y03639D01*
X02197Y03666D02*
X02201D01*
X02199Y03664D02*
Y03668D01*
X02227Y03638D02*
X02231D01*
X02229Y03636D02*
Y0364D01*
X02508Y04084D02*
X02512D01*
X0251Y04082D02*
Y04086D01*
X02535Y04058D02*
X02539D01*
X02537Y04056D02*
Y0406D01*
X02506Y04034D02*
X0251D01*
X02508Y04032D02*
Y04036D01*
X03089Y03781D02*
X03093D01*
X03091Y03779D02*
Y03783D01*
X03153Y03738D02*
X03157D01*
X03155Y03736D02*
Y0374D01*
X03091Y03698D02*
X03095D01*
X03093Y03696D02*
Y037D01*
X03151Y03666D02*
X03155D01*
X03153Y03664D02*
Y03668D01*
X03334Y03697D02*
X03338D01*
X03336Y03695D02*
Y03699D01*
X03307Y03679D02*
X03311D01*
X03309Y03677D02*
Y03681D01*
X0286Y03592D02*
X02864D01*
X02862Y0359D02*
Y03594D01*
X02889Y03616D02*
X02893D01*
X02891Y03614D02*
Y03618D01*
X02861Y03642D02*
X02865D01*
X02863Y0364D02*
Y03644D01*
X03298Y03809D02*
X03302D01*
X033Y03807D02*
Y03811D01*
X03325Y03783D02*
X03329D01*
X03327Y03781D02*
Y03785D01*
X03296Y03759D02*
X033D01*
X03298Y03757D02*
Y03761D01*
X03921Y03171D02*
X03925D01*
X03923Y03169D02*
Y03173D01*
X03948Y03145D02*
X03952D01*
X0395Y03143D02*
Y03147D01*
X0392Y03122D02*
X03924D01*
X03922Y0312D02*
Y03124D01*
X04176Y03381D02*
X0418D01*
X04178Y03379D02*
Y03383D01*
X04127Y03395D02*
X04131D01*
X04129Y03393D02*
Y03397D01*
X0415Y03366D02*
X04154D01*
X04152Y03364D02*
Y03368D01*
X0415Y03439D02*
X04154D01*
X04152Y03437D02*
Y03441D01*
X04165Y03422D02*
X04169D01*
X04167Y0342D02*
Y03424D01*
X03886Y03547D02*
X0389D01*
X03888Y03545D02*
Y03549D01*
X03877Y03492D02*
X03881D01*
X03879Y0349D02*
Y03494D01*
X03836Y03571D02*
X0384D01*
X03838Y03569D02*
Y03573D01*
X0417Y03505D02*
X04174D01*
X04172Y03503D02*
Y03507D01*
X042Y0349D02*
X04204D01*
X04202Y03488D02*
Y03492D01*
X04171Y03461D02*
X04175D01*
X04173Y03459D02*
Y03463D01*
X04243Y03428D02*
X04247D01*
X04245Y03426D02*
Y0343D01*
X0401Y04465D02*
X04014D01*
X04012Y04463D02*
Y04467D01*
X03919Y04492D02*
X03923D01*
X03921Y0449D02*
Y04494D01*
X03905Y0446D02*
X03909D01*
X03907Y04458D02*
Y04462D01*
X02719Y03081D02*
X02723D01*
X02721Y03079D02*
Y03083D01*
X0275Y03119D02*
X02754D01*
X02752Y03117D02*
Y03121D01*
X02771Y0316D02*
X02775D01*
X02773Y03158D02*
Y03162D01*
X02752Y03043D02*
X02756D01*
X02754Y03041D02*
Y03045D01*
X02806Y03067D02*
X0281D01*
X02808Y03065D02*
Y03069D01*
X02367Y03305D02*
X02371D01*
X02369Y03303D02*
Y03307D01*
X02344Y03323D02*
X02348D01*
X02346Y03321D02*
Y03325D01*
X02216Y03326D02*
X0222D01*
X02218Y03324D02*
Y03328D01*
X0217Y03276D02*
X02174D01*
X02172Y03274D02*
Y03278D01*
X02138Y03291D02*
X02142D01*
X0214Y03289D02*
Y03293D01*
X02622Y0113D02*
X02626D01*
X02624Y01128D02*
Y01132D01*
X02604Y01172D02*
X02608D01*
X02606Y0117D02*
Y01174D01*
X02656Y01166D02*
X0266D01*
X02658Y01164D02*
Y01168D01*
X02641Y01177D02*
X02645D01*
X02643Y01175D02*
Y01179D01*
X0267Y00941D02*
X02674D01*
X02672Y00939D02*
Y00943D01*
X02703Y00961D02*
X02707D01*
X02705Y00959D02*
Y00963D01*
X02662Y00961D02*
X02666D01*
X02664Y00959D02*
Y00963D01*
X02417Y00712D02*
X02421D01*
X02419Y0071D02*
Y00714D01*
X02693Y00669D02*
X02697D01*
X02695Y00667D02*
Y00671D01*
X02719Y00682D02*
X02723D01*
X02721Y0068D02*
Y00684D01*
X02661Y00651D02*
X02665D01*
X02663Y00649D02*
Y00653D01*
X02609Y00711D02*
X02613D01*
X02611Y00709D02*
Y00713D01*
X02591Y00679D02*
X02595D01*
X02593Y00677D02*
Y00681D01*
X02646Y00714D02*
X0265D01*
X02648Y00712D02*
Y00716D01*
X02666Y00731D02*
X0267D01*
X02668Y00729D02*
Y00733D01*
X02626Y00731D02*
X0263D01*
X02628Y00729D02*
Y00733D01*
X02675Y00764D02*
X02679D01*
X02677Y00762D02*
Y00766D01*
X0396Y05075D02*
X03964D01*
X03962Y05073D02*
Y05077D01*
X03894Y05142D02*
X03898D01*
X03896Y0514D02*
Y05144D01*
X03905Y05182D02*
X03909D01*
X03907Y0518D02*
Y05184D01*
X03492Y04728D02*
X03496D01*
X03494Y04726D02*
Y0473D01*
X03453Y04688D02*
X03457D01*
X03455Y04686D02*
Y0469D01*
X04035Y05272D02*
X04039D01*
X04037Y0527D02*
Y05274D01*
X01972Y0954D02*
X01976D01*
X01974Y09538D02*
Y09542D01*
X02087Y09539D02*
X02091D01*
X02089Y09537D02*
Y09541D01*
X02456Y0684D02*
X0246D01*
X02458Y06838D02*
Y06842D01*
X02416Y0687D02*
X0242D01*
X02418Y06868D02*
Y06872D01*
X02403Y06681D02*
X02407D01*
X02405Y06679D02*
Y06683D01*
X02371Y0664D02*
X02375D01*
X02373Y06638D02*
Y06642D01*
X02275Y06469D02*
X02279D01*
X02277Y06467D02*
Y06471D01*
X02188Y06382D02*
X02192D01*
X0219Y0638D02*
Y06384D01*
X02605Y05252D02*
X02609D01*
X02607Y0525D02*
Y05254D01*
X0265Y0521D02*
X02654D01*
X02652Y05208D02*
Y05212D01*
X02771Y04733D02*
X02775D01*
X02773Y04731D02*
Y04735D01*
X0123Y01001D02*
X01234D01*
X01232Y00999D02*
Y01003D01*
X01203Y01009D02*
X01207D01*
X01205Y01007D02*
Y01011D01*
X01161Y01041D02*
X01165D01*
X01163Y01039D02*
Y01043D01*
X01136Y01054D02*
X0114D01*
X01138Y01052D02*
Y01056D01*
X01377Y00859D02*
X01381D01*
X01379Y00857D02*
Y00861D01*
X01335Y00891D02*
X01339D01*
X01337Y00889D02*
Y00893D01*
X0132Y00906D02*
X01324D01*
X01322Y00904D02*
Y00908D01*
X01274Y00852D02*
X01278D01*
X01276Y0085D02*
Y00854D01*
X01163Y00924D02*
X01167D01*
X01165Y00922D02*
Y00926D01*
X00987Y035D02*
X00991D01*
X00989Y03498D02*
Y03502D01*
X01049Y03477D02*
X01053D01*
X01051Y03475D02*
Y03479D01*
X01033Y03455D02*
X01037D01*
X01035Y03453D02*
Y03457D01*
X01295Y00754D02*
X01299D01*
X01297Y00752D02*
Y00756D01*
X01269Y00739D02*
X01273D01*
X01271Y00737D02*
Y00741D01*
X01219Y00793D02*
X01223D01*
X01221Y00791D02*
Y00795D01*
X01072Y00853D02*
X01076D01*
X01074Y00851D02*
Y00855D01*
X01112Y009D02*
X01116D01*
X01114Y00898D02*
Y00902D01*
X01077Y01691D02*
X01081D01*
X01079Y01689D02*
Y01693D01*
X01001Y0176D02*
X01005D01*
X01003Y01758D02*
Y01762D01*
X01191Y03192D02*
X01195D01*
X01193Y0319D02*
Y03194D01*
X01148Y03173D02*
X01152D01*
X0115Y03171D02*
Y03175D01*
X0113Y03213D02*
X01134D01*
X01132Y03211D02*
Y03215D01*
X03847Y04334D02*
X03851D01*
X03849Y04332D02*
Y04336D01*
X03532Y04373D02*
X03536D01*
X03534Y04371D02*
Y04375D01*
X03059Y04373D02*
X03063D01*
X03061Y04371D02*
Y04375D01*
X0267Y046D02*
X02674D01*
X02672Y04598D02*
Y04602D01*
X02693Y04625D02*
X02697D01*
X02695Y04623D02*
Y04627D01*
X0274Y04531D02*
X02744D01*
X02742Y04529D02*
Y04533D01*
X02769Y04557D02*
X02773D01*
X02771Y04555D02*
Y04559D01*
X02666Y04493D02*
X0267D01*
X02668Y04491D02*
Y04495D01*
X02628Y04458D02*
X02632D01*
X0263Y04456D02*
Y0446D01*
X02762Y0448D02*
X02766D01*
X02764Y04478D02*
Y04482D01*
X02783Y04395D02*
X02787D01*
X02785Y04393D02*
Y04397D01*
X02768Y04375D02*
X02772D01*
X0277Y04373D02*
Y04377D01*
X04507Y03378D02*
X04511D01*
X04509Y03376D02*
Y0338D01*
X04496Y0336D02*
X045D01*
X04498Y03358D02*
Y03362D01*
X04417Y0339D02*
X04421D01*
X04419Y03388D02*
Y03392D01*
X04398Y03377D02*
X04402D01*
X044Y03375D02*
Y03379D01*
X04492Y03471D02*
X04496D01*
X04494Y03469D02*
Y03473D01*
X04469Y03502D02*
X04473D01*
X04471Y035D02*
Y03504D01*
X0441Y03503D02*
X04414D01*
X04412Y03501D02*
Y03505D01*
X02792Y04278D02*
X02796D01*
X02794Y04276D02*
Y0428D01*
X03516Y05527D02*
X0352D01*
X03518Y05525D02*
Y05529D01*
X02717Y04939D02*
X02721D01*
X02719Y04937D02*
Y04941D01*
X0215Y0542D02*
X02154D01*
X02152Y05418D02*
Y05422D01*
X02135Y05408D02*
X02139D01*
X02137Y05406D02*
Y0541D01*
X0215Y05396D02*
X02154D01*
X02152Y05394D02*
Y05398D01*
X04115Y04056D02*
X04119D01*
X04117Y04054D02*
Y04058D01*
X04136Y04041D02*
X0414D01*
X04138Y04039D02*
Y04043D01*
X04136Y04079D02*
X0414D01*
X04138Y04077D02*
Y04081D01*
X04115Y04094D02*
X04119D01*
X04117Y04092D02*
Y04096D01*
X01096Y0805D02*
X011D01*
X01098Y08048D02*
Y08052D01*
X01143Y07982D02*
X01147D01*
X01145Y0798D02*
Y07984D01*
X01097Y08489D02*
X01101D01*
X01099Y08487D02*
Y08491D01*
X01143Y08421D02*
X01147D01*
X01145Y08419D02*
Y08423D01*
X01461Y08964D02*
X01465D01*
X01463Y08962D02*
Y08966D01*
X01687Y08978D02*
X01691D01*
X01689Y08976D02*
Y0898D01*
X01577Y08981D02*
X01581D01*
X01579Y08979D02*
Y08983D01*
X01428Y08918D02*
X01432D01*
X0143Y08916D02*
Y0892D01*
X01389Y08964D02*
X01393D01*
X01391Y08962D02*
Y08966D01*
X01092Y09058D02*
X01096D01*
X01094Y09056D02*
Y0906D01*
X01119Y09034D02*
X01123D01*
X01121Y09032D02*
Y09036D01*
X00834Y08828D02*
X00838D01*
X00836Y08826D02*
Y0883D01*
X00861Y08803D02*
X00865D01*
X00863Y08801D02*
Y08805D01*
X0096Y08178D02*
X00964D01*
X00962Y08176D02*
Y0818D01*
X00916Y08264D02*
X0092D01*
X00918Y08262D02*
Y08266D01*
X0096Y08343D02*
X00964D01*
X00962Y08341D02*
Y08345D01*
X00916Y0843D02*
X0092D01*
X00918Y08428D02*
Y08432D01*
X0096Y08508D02*
X00964D01*
X00962Y08506D02*
Y0851D01*
X01884Y08574D02*
X01888D01*
X01886Y08572D02*
Y08576D01*
X0216Y08536D02*
X02164D01*
X02162Y08534D02*
Y08538D01*
X02336Y08711D02*
X0234D01*
X02338Y08709D02*
Y08713D01*
X0228Y08741D02*
X02284D01*
X02282Y08739D02*
Y08743D01*
X02215Y08699D02*
X02219D01*
X02217Y08697D02*
Y08701D01*
X01993Y08583D02*
X01997D01*
X01995Y08581D02*
Y08585D01*
X01978Y08601D02*
X01982D01*
X0198Y08599D02*
Y08603D01*
X02358Y08536D02*
X02362D01*
X0236Y08534D02*
Y08538D01*
X02262Y08536D02*
X02266D01*
X02264Y08534D02*
Y08538D01*
X02309Y08512D02*
X02313D01*
X02311Y0851D02*
Y08514D01*
X0221Y08536D02*
X02214D01*
X02212Y08534D02*
Y08538D01*
X01882Y08946D02*
X01892D01*
X01887Y08941D02*
Y08951D01*
X01942Y08946D02*
X01952D01*
X01947Y08941D02*
Y08951D01*
X02002Y08946D02*
X02012D01*
X02007Y08941D02*
Y08951D01*
X02062Y08946D02*
X02072D01*
X02067Y08941D02*
Y08951D01*
X02032Y08916D02*
X02042D01*
X02037Y08911D02*
Y08921D01*
X01912Y08916D02*
X01922D01*
X01917Y08911D02*
Y08921D01*
X02062Y08886D02*
X02072D01*
X02067Y08881D02*
Y08891D01*
X02002Y08886D02*
X02012D01*
X02007Y08881D02*
Y08891D01*
X01942Y08886D02*
X01952D01*
X01947Y08881D02*
Y08891D01*
X01882Y08886D02*
X01892D01*
X01887Y08881D02*
Y08891D01*
X02032Y08856D02*
X02042D01*
X02037Y08851D02*
Y08861D01*
X01912Y08856D02*
X01922D01*
X01917Y08851D02*
Y08861D01*
X02062Y08826D02*
X02072D01*
X02067Y08821D02*
Y08831D01*
X02002Y08826D02*
X02012D01*
X02007Y08821D02*
Y08831D01*
X01942Y08826D02*
X01952D01*
X01947Y08821D02*
Y08831D01*
X01882Y08826D02*
X01892D01*
X01887Y08821D02*
Y08831D01*
X02032Y08796D02*
X02042D01*
X02037Y08791D02*
Y08801D01*
X01912Y08796D02*
X01922D01*
X01917Y08791D02*
Y08801D01*
X02062Y08766D02*
X02072D01*
X02067Y08761D02*
Y08771D01*
X02002Y08766D02*
X02012D01*
X02007Y08761D02*
Y08771D01*
X01942Y08766D02*
X01952D01*
X01947Y08761D02*
Y08771D01*
X01882Y08766D02*
X01892D01*
X01887Y08761D02*
Y08771D01*
X02032Y08736D02*
X02042D01*
X02037Y08731D02*
Y08741D01*
X01972Y08736D02*
X01982D01*
X01977Y08731D02*
Y08741D01*
X01912Y08736D02*
X01922D01*
X01917Y08731D02*
Y08741D01*
X02062Y08706D02*
X02072D01*
X02067Y08701D02*
Y08711D01*
X02002Y08706D02*
X02012D01*
X02007Y08701D02*
Y08711D01*
X01942Y08706D02*
X01952D01*
X01947Y08701D02*
Y08711D01*
X02032Y08676D02*
X02042D01*
X02037Y08671D02*
Y08681D01*
X01972Y08676D02*
X01982D01*
X01977Y08671D02*
Y08681D01*
X02062Y08646D02*
X02072D01*
X02067Y08641D02*
Y08651D01*
X02002Y08646D02*
X02012D01*
X02007Y08641D02*
Y08651D01*
X01942Y08646D02*
X01952D01*
X01947Y08641D02*
Y08651D01*
X01882Y08646D02*
X01892D01*
X01887Y08641D02*
Y08651D01*
X01882Y08706D02*
X01892D01*
X01887Y08701D02*
Y08711D01*
X01912Y08676D02*
X01922D01*
X01917Y08671D02*
Y08681D01*
X01972Y08916D02*
X01982D01*
X01977Y08911D02*
Y08921D01*
X01972Y08856D02*
X01982D01*
X01977Y08851D02*
Y08861D01*
X01972Y08796D02*
X01982D01*
X01977Y08791D02*
Y08801D01*
X02185Y08512D02*
X02189D01*
X02187Y0851D02*
Y08514D01*
X02688Y08454D02*
X02692D01*
X0269Y08452D02*
Y08456D01*
X02756Y08501D02*
X0276D01*
X02758Y08499D02*
Y08503D01*
X03127Y08744D02*
X03131D01*
X03129Y08742D02*
Y08746D01*
X0305Y0921D02*
X03054D01*
X03052Y09208D02*
Y09212D01*
X03115Y09244D02*
X03119D01*
X03117Y09242D02*
Y09246D01*
X03647Y08568D02*
X03651D01*
X03649Y08566D02*
Y0857D01*
X0362Y08594D02*
X03624D01*
X03622Y08592D02*
Y08596D01*
X03649Y08617D02*
X03653D01*
X03651Y08615D02*
Y08619D01*
X05428Y07709D02*
X05432D01*
X0543Y07707D02*
Y07711D01*
X05457Y07733D02*
X05461D01*
X05459Y07731D02*
Y07735D01*
X05429Y07759D02*
X05433D01*
X05431Y07757D02*
Y07761D01*
X05189Y07719D02*
X05193D01*
X05191Y07717D02*
Y07721D01*
X05216Y07786D02*
X0522D01*
X05218Y07784D02*
Y07788D01*
X05295Y07842D02*
X05299D01*
X05297Y0784D02*
Y07844D01*
X05158Y07846D02*
X05162D01*
X0516Y07844D02*
Y07848D01*
X0512Y07657D02*
X05124D01*
X05122Y07655D02*
Y07659D01*
X05226Y07615D02*
X0523D01*
X05228Y07613D02*
Y07617D01*
X03078Y09098D02*
X03082D01*
X0308Y09096D02*
Y091D01*
X02851Y09098D02*
X02855D01*
X02853Y09096D02*
Y091D01*
X02931Y09053D02*
X02935D01*
X02933Y09051D02*
Y09055D01*
X04478Y08196D02*
X04482D01*
X0448Y08194D02*
Y08198D01*
X04398Y08241D02*
X04402D01*
X044Y08239D02*
Y08243D01*
X04625Y08241D02*
X04629D01*
X04627Y08239D02*
Y08243D01*
X04688Y0834D02*
X04692D01*
X0469Y08338D02*
Y08342D01*
X0473Y07972D02*
X04734D01*
X04732Y0797D02*
Y07974D01*
X04241Y07634D02*
X04245D01*
X04243Y07632D02*
Y07636D01*
X04309Y07681D02*
X04313D01*
X04311Y07679D02*
Y07683D01*
X03557Y07575D02*
X03561D01*
X03559Y07573D02*
Y07577D01*
X03543Y07548D02*
X03547D01*
X03545Y07546D02*
Y0755D01*
X03938Y0857D02*
X03942D01*
X0394Y08568D02*
Y08572D01*
X04003Y08663D02*
X04007D01*
X04005Y08661D02*
Y08665D01*
X03938Y08749D02*
X03942D01*
X0394Y08747D02*
Y08751D01*
X04183Y09184D02*
X04187D01*
X04185Y09182D02*
Y09186D01*
X04251Y09231D02*
X04255D01*
X04253Y09229D02*
Y09233D01*
X0303Y07552D02*
X03034D01*
X03032Y0755D02*
Y07554D01*
X03157Y07494D02*
X03161D01*
X03159Y07492D02*
Y07496D01*
X03114Y07496D02*
X03118D01*
X03116Y07494D02*
Y07498D01*
X04652Y07525D02*
X04656D01*
X04654Y07523D02*
Y07527D01*
X04605Y07593D02*
X04609D01*
X04607Y07591D02*
Y07595D01*
X01842Y0193D02*
X01846D01*
X01844Y01928D02*
Y01932D01*
X01879Y01979D02*
X01883D01*
X01881Y01977D02*
Y01981D01*
X01592Y02508D02*
X01596D01*
X01594Y02506D02*
Y0251D01*
X01519Y02463D02*
X01523D01*
X01521Y02461D02*
Y02465D01*
X01069Y01863D02*
X01073D01*
X01071Y01861D02*
Y01865D01*
X01098Y019D02*
X01102D01*
X011Y01898D02*
Y01902D01*
X0205Y0449D02*
X02054D01*
X02052Y04488D02*
Y04492D01*
X01887Y04325D02*
X01891D01*
X01889Y04323D02*
Y04327D01*
X00822Y02697D02*
X00826D01*
X00824Y02695D02*
Y02699D01*
X00886Y02726D02*
X0089D01*
X00888Y02724D02*
Y02728D01*
X0072Y02722D02*
X00724D01*
X00722Y0272D02*
Y02724D01*
X00652Y02722D02*
X00656D01*
X00654Y0272D02*
Y02724D01*
X02024Y0146D02*
X02028D01*
X02026Y01458D02*
Y01462D01*
X01188Y02463D02*
X01192D01*
X0119Y02461D02*
Y02465D01*
X01256Y0251D02*
X0126D01*
X01258Y02508D02*
Y02512D01*
X00887Y02437D02*
X00891D01*
X00889Y02435D02*
Y02439D01*
X00888Y02383D02*
X00892D01*
X0089Y02381D02*
Y02385D01*
X00864Y0241D02*
X00868D01*
X00866Y02408D02*
Y02412D01*
X00799Y01687D02*
X00803D01*
X00801Y01685D02*
Y01689D01*
X00738Y01645D02*
X00742D01*
X0074Y01643D02*
Y01647D01*
X00682Y01687D02*
X00686D01*
X00684Y01685D02*
Y01689D01*
X00878Y026D02*
X00882D01*
X0088Y02598D02*
Y02602D01*
X00807Y02573D02*
X00811D01*
X00809Y02571D02*
Y02575D01*
X00757Y02627D02*
X00761D01*
X00759Y02625D02*
Y02629D01*
X00836Y01846D02*
X0084D01*
X00838Y01844D02*
Y01848D01*
X00768Y01907D02*
X00772D01*
X0077Y01905D02*
Y01909D01*
X0071Y01958D02*
X00714D01*
X00712Y01956D02*
Y0196D01*
X02902Y04373D02*
X02906D01*
X02904Y04371D02*
Y04375D01*
X02863Y04373D02*
X02867D01*
X02865Y04371D02*
Y04375D01*
X02862Y04413D02*
X02866D01*
X02864Y04411D02*
Y04415D01*
X02901Y04533D02*
X02905D01*
X02903Y04531D02*
Y04535D01*
X02902Y04452D02*
X02906D01*
X02904Y0445D02*
Y04454D01*
X02863Y04533D02*
X02867D01*
X02865Y04531D02*
Y04535D01*
X02901Y0461D02*
X02905D01*
X02903Y04608D02*
Y04612D01*
X03256Y04806D02*
X0326D01*
X03258Y04804D02*
Y04808D01*
X03256Y04768D02*
X0326D01*
X03258Y04766D02*
Y0477D01*
X03335Y04846D02*
X03339D01*
X03337Y04844D02*
Y04848D01*
X03414Y04924D02*
X03418D01*
X03416Y04922D02*
Y04926D01*
X03217Y05113D02*
X03221D01*
X03219Y05111D02*
Y05115D01*
X0302Y04728D02*
X03024D01*
X03022Y04726D02*
Y0473D01*
X0333Y04733D02*
X03334D01*
X03332Y04731D02*
Y04735D01*
X03059Y04688D02*
X03063D01*
X03061Y04686D02*
Y0469D01*
X03374Y04688D02*
X03378D01*
X03376Y04686D02*
Y0469D01*
X03414Y04728D02*
X03418D01*
X03416Y04726D02*
Y0473D01*
X03217Y04688D02*
X03221D01*
X03219Y04686D02*
Y0469D01*
X03256Y04688D02*
X0326D01*
X03258Y04686D02*
Y0469D01*
X03099Y04728D02*
X03103D01*
X03101Y04726D02*
Y0473D01*
X03138Y04767D02*
X03142D01*
X0314Y04765D02*
Y04769D01*
X03296Y04728D02*
X033D01*
X03298Y04726D02*
Y0473D01*
X03256Y04728D02*
X0326D01*
X03258Y04726D02*
Y0473D01*
X03374Y04728D02*
X03378D01*
X03376Y04726D02*
Y0473D01*
X03059Y04613D02*
X03063D01*
X03061Y04611D02*
Y04615D01*
X03454Y04964D02*
X03458D01*
X03456Y04962D02*
Y04966D01*
X05208Y06239D02*
X05212D01*
X0521Y06237D02*
Y06241D01*
X05208Y06312D02*
X05212D01*
X0521Y0631D02*
Y06314D01*
X05208Y06348D02*
X05212D01*
X0521Y06346D02*
Y0635D01*
X05208Y06385D02*
X05212D01*
X0521Y06383D02*
Y06387D01*
X05208Y06421D02*
X05212D01*
X0521Y06419D02*
Y06423D01*
X05208Y06457D02*
X05212D01*
X0521Y06455D02*
Y06459D01*
X04828Y06306D02*
X04832D01*
X0483Y06304D02*
Y06308D01*
X04828Y06342D02*
X04832D01*
X0483Y0634D02*
Y06344D01*
X04828Y06491D02*
X04832D01*
X0483Y06489D02*
Y06493D01*
X04828Y06565D02*
X04832D01*
X0483Y06563D02*
Y06567D01*
X04828Y06602D02*
X04832D01*
X0483Y066D02*
Y06604D01*
X0545Y07077D02*
X05454D01*
X05452Y07075D02*
Y07079D01*
X05458Y071D02*
X05462D01*
X0546Y07098D02*
Y07102D01*
X05428Y0709D02*
X05432D01*
X0543Y07088D02*
Y07092D01*
X05178Y0718D02*
X05182D01*
X0518Y07178D02*
Y07182D01*
X05313Y07017D02*
X05317D01*
X05315Y07015D02*
Y07019D01*
X05313Y06976D02*
X05317D01*
X05315Y06974D02*
Y06978D01*
X05178Y0694D02*
X05182D01*
X0518Y06938D02*
Y06942D01*
X05178Y07017D02*
X05182D01*
X0518Y07015D02*
Y07019D01*
X05178Y071D02*
X05182D01*
X0518Y07098D02*
Y07102D01*
X05428Y06386D02*
X05432D01*
X0543Y06384D02*
Y06388D01*
X05391Y0639D02*
X05395D01*
X05393Y06388D02*
Y06392D01*
X05093Y0718D02*
X05097D01*
X05095Y07178D02*
Y07182D01*
X05117Y0694D02*
X05121D01*
X05119Y06938D02*
Y06942D01*
X05117Y071D02*
X05121D01*
X05119Y07098D02*
Y07102D01*
X05117Y07017D02*
X05121D01*
X05119Y07015D02*
Y07019D01*
X05381Y07125D02*
X05385D01*
X05383Y07123D02*
Y07127D01*
X05372Y0709D02*
X05376D01*
X05374Y07088D02*
Y07092D01*
X05491Y071D02*
X05495D01*
X05493Y07098D02*
Y07102D01*
X05472Y0693D02*
X05476D01*
X05474Y06928D02*
Y06932D01*
X05472Y06966D02*
X05476D01*
X05474Y06964D02*
Y06968D01*
X05446Y06965D02*
X0545D01*
X05448Y06963D02*
Y06967D01*
X04869Y0679D02*
X04873D01*
X04871Y06788D02*
Y06792D01*
X05103Y06195D02*
X05107D01*
X05105Y06193D02*
Y06197D01*
X05162Y06195D02*
X05166D01*
X05164Y06193D02*
Y06197D01*
X05301Y06672D02*
X05305D01*
X05303Y0667D02*
Y06674D01*
X05301Y06604D02*
X05305D01*
X05303Y06602D02*
Y06606D01*
X05505Y06386D02*
X05509D01*
X05507Y06384D02*
Y06388D01*
X05458Y0639D02*
X05462D01*
X0546Y06388D02*
Y06392D01*
X04598Y06348D02*
X04602D01*
X046Y06346D02*
Y0635D01*
X04568Y0633D02*
X04572D01*
X0457Y06328D02*
Y06332D01*
X04928Y0679D02*
X04932D01*
X0493Y06788D02*
Y06792D01*
X05301Y06732D02*
X05305D01*
X05303Y0673D02*
Y06734D01*
X05301Y06543D02*
X05305D01*
X05303Y06541D02*
Y06545D01*
X05478Y0627D02*
X05482D01*
X0548Y06268D02*
Y06272D01*
X05407Y0627D02*
X05411D01*
X05409Y06268D02*
Y06272D01*
X05406Y06512D02*
X0541D01*
X05408Y0651D02*
Y06514D01*
X05478Y06512D02*
X05482D01*
X0548Y0651D02*
Y06514D01*
X04658Y06342D02*
X04662D01*
X0466Y0634D02*
Y06344D01*
X04658Y06417D02*
X04662D01*
X0466Y06415D02*
Y06419D01*
X04658Y06527D02*
X04662D01*
X0466Y06525D02*
Y06529D01*
X04658Y06564D02*
X04662D01*
X0466Y06562D02*
Y06566D01*
X04658Y06602D02*
X04662D01*
X0466Y066D02*
Y06604D01*
X04742Y06602D02*
X04746D01*
X04744Y066D02*
Y06604D01*
X04743Y06564D02*
X04747D01*
X04745Y06562D02*
Y06566D01*
X04742Y06491D02*
X04746D01*
X04744Y06489D02*
Y06493D01*
X04742Y06416D02*
X04746D01*
X04744Y06414D02*
Y06418D01*
X04741Y0638D02*
X04745D01*
X04743Y06378D02*
Y06382D01*
X05288Y06203D02*
X05292D01*
X0529Y06201D02*
Y06205D01*
X05288Y06239D02*
X05292D01*
X0529Y06237D02*
Y06241D01*
X05288Y06275D02*
X05292D01*
X0529Y06273D02*
Y06277D01*
X05288Y06311D02*
X05292D01*
X0529Y06309D02*
Y06313D01*
X05289Y06348D02*
X05293D01*
X05291Y06346D02*
Y0635D01*
X05289Y06385D02*
X05293D01*
X05291Y06383D02*
Y06387D01*
X05289Y06421D02*
X05293D01*
X05291Y06419D02*
Y06423D01*
X05289Y06457D02*
X05293D01*
X05291Y06455D02*
Y06459D01*
X05289Y06493D02*
X05293D01*
X05291Y06491D02*
Y06495D01*
X05369Y06203D02*
X05373D01*
X05371Y06201D02*
Y06205D01*
X05369Y06239D02*
X05373D01*
X05371Y06237D02*
Y06241D01*
X05369Y06275D02*
X05373D01*
X05371Y06273D02*
Y06277D01*
X05369Y06311D02*
X05373D01*
X05371Y06309D02*
Y06313D01*
X05369Y06348D02*
X05373D01*
X05371Y06346D02*
Y0635D01*
X05371Y06386D02*
X05375D01*
X05373Y06384D02*
Y06388D01*
X05371Y06421D02*
X05375D01*
X05373Y06419D02*
Y06423D01*
X05371Y06457D02*
X05375D01*
X05373Y06455D02*
Y06459D01*
X05371Y06493D02*
X05375D01*
X05373Y06491D02*
Y06495D01*
X03261Y05239D02*
X03265D01*
X03263Y05237D02*
Y05241D01*
X02054Y05342D02*
X02058D01*
X02056Y0534D02*
Y05344D01*
X01986Y05695D02*
X0199D01*
X01988Y05693D02*
Y05697D01*
X02079Y05695D02*
X02083D01*
X02081Y05693D02*
Y05697D01*
X03216Y05224D02*
X0322D01*
X03218Y05222D02*
Y05226D01*
X03256Y05279D02*
X0326D01*
X03258Y05277D02*
Y05281D01*
X03218Y05279D02*
X03222D01*
X0322Y05277D02*
Y05281D01*
X02205Y0524D02*
X02209D01*
X02207Y05238D02*
Y05242D01*
X02237Y05376D02*
X02241D01*
X02239Y05374D02*
Y05378D01*
X02278Y05455D02*
X02282D01*
X0228Y05453D02*
Y05457D01*
X02287Y05496D02*
X02291D01*
X02289Y05494D02*
Y05498D01*
X00982Y04192D02*
X00986D01*
X00984Y0419D02*
Y04194D01*
X00924Y04258D02*
X00928D01*
X00926Y04256D02*
Y0426D01*
X0061Y04746D02*
X00614D01*
X00612Y04744D02*
Y04748D01*
X00542Y047D02*
X00546D01*
X00544Y04698D02*
Y04702D01*
X0102Y04871D02*
X01024D01*
X01022Y04869D02*
Y04873D01*
X00768Y04342D02*
X00772D01*
X0077Y0434D02*
Y04344D01*
X00676Y04234D02*
X0068D01*
X00678Y04232D02*
Y04236D01*
X00821Y04447D02*
X00825D01*
X00823Y04445D02*
Y04449D01*
X00893Y04552D02*
X00897D01*
X00895Y0455D02*
Y04554D01*
X01527Y04612D02*
X01531D01*
X01529Y0461D02*
Y04614D01*
X01577Y04666D02*
X01581D01*
X01579Y04664D02*
Y04668D01*
X02167Y04055D02*
X02171D01*
X02169Y04053D02*
Y04057D01*
X02125Y04009D02*
X02129D01*
X02127Y04007D02*
Y04011D01*
X02081Y0406D02*
X02085D01*
X02083Y04058D02*
Y04062D01*
X01586Y04191D02*
X0159D01*
X01588Y04189D02*
Y04193D01*
X01752Y04187D02*
X01756D01*
X01754Y04185D02*
Y04189D01*
X01929Y05678D02*
X01933D01*
X01931Y05676D02*
Y0568D01*
X03227Y06484D02*
X03231D01*
X03229Y06482D02*
Y06486D01*
X0327Y06485D02*
X03274D01*
X03272Y06483D02*
Y06487D01*
X02965Y0615D02*
X02969D01*
X02967Y06148D02*
Y06152D01*
X02922Y06149D02*
X02926D01*
X02924Y06147D02*
Y06151D01*
X03109Y06023D02*
X03113D01*
X03111Y06021D02*
Y06025D01*
X02876Y05997D02*
X0288D01*
X02878Y05995D02*
Y05999D01*
X03454Y05472D02*
X03458D01*
X03456Y0547D02*
Y05474D01*
X03256Y05318D02*
X0326D01*
X03258Y05316D02*
Y0532D01*
X02285Y0552D02*
X02289D01*
X02287Y05518D02*
Y05522D01*
X03297Y0532D02*
X03301D01*
X03299Y05318D02*
Y05322D01*
X02105Y05628D02*
X02109D01*
X02107Y05626D02*
Y0563D01*
X02164Y05568D02*
X02168D01*
X02166Y05566D02*
Y0557D01*
X02272Y05564D02*
X02276D01*
X02274Y05562D02*
Y05566D01*
X02272Y05601D02*
X02276D01*
X02274Y05599D02*
Y05603D01*
X02237Y05417D02*
X02241D01*
X02239Y05415D02*
Y05419D01*
X02126Y05239D02*
X0213D01*
X02128Y05237D02*
Y05241D01*
X02165Y05239D02*
X02169D01*
X02167Y05237D02*
Y05241D01*
X02085Y05239D02*
X02089D01*
X02087Y05237D02*
Y05241D01*
X01919Y05525D02*
X01923D01*
X01921Y05523D02*
Y05527D01*
X01877Y05544D02*
X01881D01*
X01879Y05542D02*
Y05546D01*
X01828Y0519D02*
X01832D01*
X0183Y05188D02*
Y05192D01*
X02027Y05293D02*
X02031D01*
X02029Y05291D02*
Y05295D01*
X01875Y052D02*
X01879D01*
X01877Y05198D02*
Y05202D01*
X0187Y05263D02*
X01874D01*
X01872Y05261D02*
Y05265D01*
X0187Y05314D02*
X01874D01*
X01872Y05312D02*
Y05316D01*
X01986Y05293D02*
X0199D01*
X01988Y05291D02*
Y05295D01*
X01817Y05228D02*
X01821D01*
X01819Y05226D02*
Y0523D01*
X01942Y0507D02*
X01946D01*
X01944Y05068D02*
Y05072D01*
X01787Y0519D02*
X01791D01*
X01789Y05188D02*
Y05192D01*
X01929Y05594D02*
X01933D01*
X01931Y05592D02*
Y05596D01*
X01983Y05638D02*
X01987D01*
X01985Y05636D02*
Y0564D01*
X02036Y05384D02*
X0204D01*
X02038Y05382D02*
Y05386D01*
X02144Y0559D02*
X02148D01*
X02146Y05588D02*
Y05592D01*
X02086Y05642D02*
X0209D01*
X02088Y0564D02*
Y05644D01*
X02066Y05628D02*
X0207D01*
X02068Y05626D02*
Y0563D01*
X03807Y04413D02*
X03811D01*
X03809Y04411D02*
Y04415D01*
X03807Y05043D02*
X03811D01*
X03809Y05041D02*
Y05045D01*
X02902Y0473D02*
X02906D01*
X02904Y04728D02*
Y04732D01*
X02902Y04413D02*
X02906D01*
X02904Y04411D02*
Y04415D01*
X02902Y0457D02*
X02906D01*
X02904Y04568D02*
Y04572D01*
X03296Y04373D02*
X033D01*
X03298Y04371D02*
Y04375D01*
X03138Y04373D02*
X03142D01*
X0314Y04371D02*
Y04375D01*
X03689Y04334D02*
X03693D01*
X03691Y04332D02*
Y04336D01*
X03611Y04373D02*
X03615D01*
X03613Y04371D02*
Y04375D01*
X03452Y04373D02*
X03456D01*
X03454Y04371D02*
Y04375D01*
X01914Y05555D02*
X01918D01*
X01916Y05553D02*
Y05557D01*
X01894Y05589D02*
X01898D01*
X01896Y05587D02*
Y05591D01*
X01882Y05601D02*
X01886D01*
X01884Y05599D02*
Y05603D01*
X01828Y0559D02*
X01832D01*
X0183Y05588D02*
Y05592D01*
X01851Y0559D02*
X01855D01*
X01853Y05588D02*
Y05592D01*
X01859Y05501D02*
X01863D01*
X01861Y05499D02*
Y05503D01*
X01787Y05314D02*
X01791D01*
X01789Y05312D02*
Y05316D01*
X01665Y05774D02*
X01669D01*
X01667Y05772D02*
Y05776D01*
X01548Y0562D02*
X01552D01*
X0155Y05618D02*
Y05622D01*
X01698Y05314D02*
X01702D01*
X017Y05312D02*
Y05316D01*
X01548Y05433D02*
X01552D01*
X0155Y05431D02*
Y05435D01*
X00991Y05351D02*
X00995D01*
X00993Y05349D02*
Y05353D01*
X00891Y05428D02*
X00895D01*
X00893Y05426D02*
Y0543D01*
X00991Y05451D02*
X00995D01*
X00993Y05449D02*
Y05453D01*
X00889Y05531D02*
X00893D01*
X00891Y05529D02*
Y05533D01*
X008Y0581D02*
X00804D01*
X00802Y05808D02*
Y05812D01*
X02007Y05628D02*
X02011D01*
X02009Y05626D02*
Y0563D01*
X02902Y05121D02*
X02906D01*
X02904Y05119D02*
Y05123D01*
X02902Y04806D02*
X02906D01*
X02904Y04804D02*
Y04808D01*
X02902Y04491D02*
X02906D01*
X02904Y04489D02*
Y04493D01*
X02902Y04649D02*
X02906D01*
X02904Y04647D02*
Y04651D01*
X02902Y04964D02*
X02906D01*
X02904Y04962D02*
Y04966D01*
X03807Y04491D02*
X03811D01*
X03809Y04489D02*
Y04493D01*
X03689Y04373D02*
X03693D01*
X03691Y04371D02*
Y04375D01*
X03374Y04373D02*
X03378D01*
X03376Y04371D02*
Y04375D01*
X03217Y04373D02*
X03221D01*
X03219Y04371D02*
Y04375D01*
X02863Y04334D02*
X02867D01*
X02865Y04332D02*
Y04336D01*
X03729Y04452D02*
X03733D01*
X03731Y0445D02*
Y04454D01*
X03729Y04491D02*
X03733D01*
X03731Y04489D02*
Y04493D01*
X03729Y04531D02*
X03733D01*
X03731Y04529D02*
Y04533D01*
X03571Y0457D02*
X03575D01*
X03573Y04568D02*
Y04572D01*
X03611Y04413D02*
X03615D01*
X03613Y04411D02*
Y04415D01*
X03611Y04491D02*
X03615D01*
X03613Y04489D02*
Y04493D01*
X0365Y04531D02*
X03654D01*
X03652Y04529D02*
Y04533D01*
X03689Y04413D02*
X03693D01*
X03691Y04411D02*
Y04415D01*
X03414Y0461D02*
X03418D01*
X03416Y04608D02*
Y04612D01*
X03453Y04413D02*
X03457D01*
X03455Y04411D02*
Y04415D01*
X03453Y04491D02*
X03457D01*
X03455Y04489D02*
Y04493D01*
X03532Y04452D02*
X03536D01*
X03534Y0445D02*
Y04454D01*
X03256Y0457D02*
X0326D01*
X03258Y04568D02*
Y04572D01*
X03256Y04531D02*
X0326D01*
X03258Y04529D02*
Y04533D01*
X03256Y04491D02*
X0326D01*
X03258Y04489D02*
Y04493D01*
X03256Y04452D02*
X0326D01*
X03258Y0445D02*
Y04454D01*
X03256Y04413D02*
X0326D01*
X03258Y04411D02*
Y04415D01*
X03296Y04491D02*
X033D01*
X03298Y04489D02*
Y04493D01*
X03296Y0457D02*
X033D01*
X03298Y04568D02*
Y04572D01*
X03296Y0461D02*
X033D01*
X03298Y04608D02*
Y04612D01*
X03335Y04491D02*
X03339D01*
X03337Y04489D02*
Y04493D01*
X03335Y04531D02*
X03339D01*
X03337Y04529D02*
Y04533D01*
X03335Y0457D02*
X03339D01*
X03337Y04568D02*
Y04572D01*
X03335Y0461D02*
X03339D01*
X03337Y04608D02*
Y04612D01*
X03374Y04491D02*
X03378D01*
X03376Y04489D02*
Y04493D01*
X03374Y0461D02*
X03378D01*
X03376Y04608D02*
Y04612D01*
X03099Y0457D02*
X03103D01*
X03101Y04568D02*
Y04572D01*
X03099Y04413D02*
X03103D01*
X03101Y04411D02*
Y04415D01*
X03138Y04452D02*
X03142D01*
X0314Y0445D02*
Y04454D01*
X03217Y04491D02*
X03221D01*
X03219Y04489D02*
Y04493D01*
X03217Y04531D02*
X03221D01*
X03219Y04529D02*
Y04533D01*
X03217Y0457D02*
X03221D01*
X03219Y04568D02*
Y04572D01*
X03059Y04531D02*
X03063D01*
X03061Y04529D02*
Y04533D01*
X03059Y04452D02*
X03063D01*
X03061Y0445D02*
Y04454D01*
X02981Y0457D02*
X02985D01*
X02983Y04568D02*
Y04572D01*
X02941Y04413D02*
X02945D01*
X02943Y04411D02*
Y04415D01*
X02941Y0457D02*
X02945D01*
X02943Y04568D02*
Y04572D01*
X03729Y04688D02*
X03733D01*
X03731Y04686D02*
Y0469D01*
X03689Y04688D02*
X03693D01*
X03691Y04686D02*
Y0469D01*
X03689Y04728D02*
X03693D01*
X03691Y04726D02*
Y0473D01*
X03689Y04767D02*
X03693D01*
X03691Y04765D02*
Y04769D01*
X03689Y04885D02*
X03693D01*
X03691Y04883D02*
Y04887D01*
X0365Y04688D02*
X03654D01*
X03652Y04686D02*
Y0469D01*
X0365Y04767D02*
X03654D01*
X03652Y04765D02*
Y04769D01*
X03611Y04688D02*
X03615D01*
X03613Y04686D02*
Y0469D01*
X03611Y04728D02*
X03615D01*
X03613Y04726D02*
Y0473D01*
X03611Y04767D02*
X03615D01*
X03613Y04765D02*
Y04769D01*
X03611Y04885D02*
X03615D01*
X03613Y04883D02*
Y04887D01*
X03572Y04649D02*
X03576D01*
X03574Y04647D02*
Y04651D01*
X03571Y04728D02*
X03575D01*
X03573Y04726D02*
Y0473D01*
X03571Y04767D02*
X03575D01*
X03573Y04765D02*
Y04769D01*
X03571Y04806D02*
X03575D01*
X03573Y04804D02*
Y04808D01*
X03532Y04649D02*
X03536D01*
X03534Y04647D02*
Y04651D01*
X03532Y04728D02*
X03536D01*
X03534Y04726D02*
Y0473D01*
X03532Y04767D02*
X03536D01*
X03534Y04765D02*
Y04769D01*
X03532Y04806D02*
X03536D01*
X03534Y04804D02*
Y04808D01*
X03493Y04649D02*
X03497D01*
X03495Y04647D02*
Y04651D01*
X03492Y04688D02*
X03496D01*
X03494Y04686D02*
Y0469D01*
X03492Y04767D02*
X03496D01*
X03494Y04765D02*
Y04769D01*
X03492Y04806D02*
X03496D01*
X03494Y04804D02*
Y04808D01*
X03453Y04728D02*
X03457D01*
X03455Y04726D02*
Y0473D01*
X03414Y04688D02*
X03418D01*
X03416Y04686D02*
Y0469D01*
X03375Y04649D02*
X03379D01*
X03377Y04647D02*
Y04651D01*
X03336Y04649D02*
X0334D01*
X03338Y04647D02*
Y04651D01*
X03335Y04688D02*
X03339D01*
X03337Y04686D02*
Y0469D01*
X03729Y04964D02*
X03733D01*
X03731Y04962D02*
Y04966D01*
X03729Y05239D02*
X03733D01*
X03731Y05237D02*
Y05241D01*
X0365Y05161D02*
X03654D01*
X03652Y05159D02*
Y05163D01*
X0365Y052D02*
X03654D01*
X03652Y05198D02*
Y05202D01*
X03611Y05121D02*
X03615D01*
X03613Y05119D02*
Y05123D01*
X03611Y05161D02*
X03615D01*
X03613Y05159D02*
Y05163D01*
X03611Y052D02*
X03615D01*
X03613Y05198D02*
Y05202D01*
X03611Y05239D02*
X03615D01*
X03613Y05237D02*
Y05241D01*
X03571Y05161D02*
X03575D01*
X03573Y05159D02*
Y05163D01*
X03571Y052D02*
X03575D01*
X03573Y05198D02*
Y05202D01*
X03532Y05121D02*
X03536D01*
X03534Y05119D02*
Y05123D01*
X03532Y05161D02*
X03536D01*
X03534Y05159D02*
Y05163D01*
X03532Y052D02*
X03536D01*
X03534Y05198D02*
Y05202D01*
X03532Y05239D02*
X03536D01*
X03534Y05237D02*
Y05241D01*
X03492Y05082D02*
X03496D01*
X03494Y0508D02*
Y05084D01*
X03492Y05121D02*
X03496D01*
X03494Y05119D02*
Y05123D01*
X03492Y05161D02*
X03496D01*
X03494Y05159D02*
Y05163D01*
X03492Y05239D02*
X03496D01*
X03494Y05237D02*
Y05241D01*
X03453Y05043D02*
X03457D01*
X03455Y05041D02*
Y05045D01*
X03453Y05082D02*
X03457D01*
X03455Y0508D02*
Y05084D01*
X03453Y05121D02*
X03457D01*
X03455Y05119D02*
Y05123D01*
X03453Y05161D02*
X03457D01*
X03455Y05159D02*
Y05163D01*
X03453Y052D02*
X03457D01*
X03455Y05198D02*
Y05202D01*
X03453Y05239D02*
X03457D01*
X03455Y05237D02*
Y05241D01*
X03414Y05003D02*
X03418D01*
X03416Y05001D02*
Y05005D01*
X03414Y05043D02*
X03418D01*
X03416Y05041D02*
Y05045D01*
X03414Y05121D02*
X03418D01*
X03416Y05119D02*
Y05123D01*
X03414Y052D02*
X03418D01*
X03416Y05198D02*
Y05202D01*
X03414Y05239D02*
X03418D01*
X03416Y05237D02*
Y05241D01*
X03374Y05003D02*
X03378D01*
X03376Y05001D02*
Y05005D01*
X03374Y05082D02*
X03378D01*
X03376Y0508D02*
Y05084D01*
X03374Y05161D02*
X03378D01*
X03376Y05159D02*
Y05163D01*
X03374Y052D02*
X03378D01*
X03376Y05198D02*
Y05202D01*
X03374Y05239D02*
X03378D01*
X03376Y05237D02*
Y05241D01*
X03296Y04649D02*
X033D01*
X03298Y04647D02*
Y04651D01*
X03296Y04688D02*
X033D01*
X03298Y04686D02*
Y0469D01*
X03177Y04767D02*
X03181D01*
X03179Y04765D02*
Y04769D01*
X03177Y04885D02*
X03181D01*
X03179Y04883D02*
Y04887D01*
X03177Y05121D02*
X03181D01*
X03179Y05119D02*
Y05123D01*
X03177Y05161D02*
X03181D01*
X03179Y05159D02*
Y05163D01*
X03177Y052D02*
X03181D01*
X03179Y05198D02*
Y05202D01*
X03177Y05239D02*
X03181D01*
X03179Y05237D02*
Y05241D01*
X03138Y04846D02*
X03142D01*
X0314Y04844D02*
Y04848D01*
X03138Y05082D02*
X03142D01*
X0314Y0508D02*
Y05084D01*
X03138Y05161D02*
X03142D01*
X0314Y05159D02*
Y05163D01*
X03138Y052D02*
X03142D01*
X0314Y05198D02*
Y05202D01*
X03138Y05239D02*
X03142D01*
X0314Y05237D02*
Y05241D01*
X03099Y04846D02*
X03103D01*
X03101Y04844D02*
Y04848D01*
X03099Y05239D02*
X03103D01*
X03101Y05237D02*
Y05241D01*
X03099Y052D02*
X03103D01*
X03101Y05198D02*
Y05202D01*
X03099Y05161D02*
X03103D01*
X03101Y05159D02*
Y05163D01*
X03099Y05121D02*
X03103D01*
X03101Y05119D02*
Y05123D01*
X03059Y04924D02*
X03063D01*
X03061Y04922D02*
Y04926D01*
X03059Y04767D02*
X03063D01*
X03061Y04765D02*
Y04769D01*
X0306Y04649D02*
X03064D01*
X03062Y04647D02*
Y04651D01*
X03059Y052D02*
X03063D01*
X03061Y05198D02*
Y05202D01*
X03059Y05161D02*
X03063D01*
X03061Y05159D02*
Y05163D01*
X03059Y05121D02*
X03063D01*
X03061Y05119D02*
Y05123D01*
X03059Y05003D02*
X03063D01*
X03061Y05001D02*
Y05005D01*
X0302Y04924D02*
X03024D01*
X03022Y04922D02*
Y04926D01*
X0302Y04846D02*
X03024D01*
X03022Y04844D02*
Y04848D01*
X0302Y05239D02*
X03024D01*
X03022Y05237D02*
Y05241D01*
X0302Y052D02*
X03024D01*
X03022Y05198D02*
Y05202D01*
X02981Y04924D02*
X02985D01*
X02983Y04922D02*
Y04926D01*
X02981Y04649D02*
X02985D01*
X02983Y04647D02*
Y04651D01*
X02981Y05043D02*
X02985D01*
X02983Y05041D02*
Y05045D01*
X02981Y04964D02*
X02985D01*
X02983Y04962D02*
Y04966D01*
X02941Y04924D02*
X02945D01*
X02943Y04922D02*
Y04926D01*
X02941Y04728D02*
X02945D01*
X02943Y04726D02*
Y0473D01*
X02746Y0772D02*
X02754D01*
X0275Y07716D02*
Y07724D01*
X0279Y0772D02*
X02798D01*
X02794Y07716D02*
Y07724D01*
X02833Y0772D02*
X02841D01*
X02837Y07716D02*
Y07724D01*
X02876Y0772D02*
X02884D01*
X0288Y07716D02*
Y07724D01*
X0292Y0772D02*
X02928D01*
X02924Y07716D02*
Y07724D01*
X02746Y07676D02*
X02754D01*
X0275Y07672D02*
Y0768D01*
X0279Y07676D02*
X02798D01*
X02794Y07672D02*
Y0768D01*
X02833Y07676D02*
X02841D01*
X02837Y07672D02*
Y0768D01*
X02876Y07676D02*
X02884D01*
X0288Y07672D02*
Y0768D01*
X0292Y07676D02*
X02928D01*
X02924Y07672D02*
Y0768D01*
X02746Y07633D02*
X02754D01*
X0275Y07629D02*
Y07637D01*
X0279Y07633D02*
X02798D01*
X02794Y07629D02*
Y07637D01*
X02833Y07633D02*
X02841D01*
X02837Y07629D02*
Y07637D01*
X02876Y07633D02*
X02884D01*
X0288Y07629D02*
Y07637D01*
X0292Y07633D02*
X02928D01*
X02924Y07629D02*
Y07637D01*
X02746Y0759D02*
X02754D01*
X0275Y07586D02*
Y07594D01*
X0279Y0759D02*
X02798D01*
X02794Y07586D02*
Y07594D01*
X02833Y0759D02*
X02841D01*
X02837Y07586D02*
Y07594D01*
X02876Y0759D02*
X02884D01*
X0288Y07586D02*
Y07594D01*
X0292Y0759D02*
X02928D01*
X02924Y07586D02*
Y07594D01*
X02746Y07546D02*
X02754D01*
X0275Y07543D02*
Y0755D01*
X0279Y07546D02*
X02798D01*
X02794Y07543D02*
Y0755D01*
X02833Y07546D02*
X02841D01*
X02837Y07543D02*
Y0755D01*
X02876Y07546D02*
X02884D01*
X0288Y07543D02*
Y0755D01*
X0292Y07546D02*
X02928D01*
X02924Y07543D02*
Y0755D01*
X05389Y06979D02*
X05397D01*
X05393Y06975D02*
Y06983D01*
X05412Y07017D02*
X0542D01*
X05416Y07013D02*
Y07021D01*
X05367Y07017D02*
X05375D01*
X05371Y07013D02*
Y07021D01*
X05389Y07054D02*
X05397D01*
X05393Y0705D02*
Y07058D01*
X05071Y06278D02*
X05075D01*
X05073Y06276D02*
Y0628D01*
X05071Y06719D02*
X05075D01*
X05073Y06717D02*
Y06721D01*
X05163Y06655D02*
X05167D01*
X05165Y06653D02*
Y06657D01*
X05163Y06624D02*
X05167D01*
X05165Y06622D02*
Y06626D01*
X05132Y06687D02*
X05136D01*
X05134Y06685D02*
Y06689D01*
X05132Y06655D02*
X05136D01*
X05134Y06653D02*
Y06657D01*
X05132Y06624D02*
X05136D01*
X05134Y06622D02*
Y06626D01*
X05071Y06656D02*
X05075D01*
X05073Y06654D02*
Y06658D01*
X05071Y06687D02*
X05075D01*
X05073Y06685D02*
Y06689D01*
X04974Y06655D02*
X04978D01*
X04976Y06653D02*
Y06657D01*
X05163Y06561D02*
X05167D01*
X05165Y06559D02*
Y06563D01*
X05163Y06592D02*
X05167D01*
X05165Y0659D02*
Y06594D01*
X05132Y06592D02*
X05136D01*
X05134Y0659D02*
Y06594D01*
X05132Y06561D02*
X05136D01*
X05134Y06559D02*
Y06563D01*
X04943Y06372D02*
X04947D01*
X04945Y0637D02*
Y06374D01*
X04943Y06561D02*
X04947D01*
X04945Y06559D02*
Y06563D01*
X04943Y06529D02*
X04947D01*
X04945Y06527D02*
Y06531D01*
X05163Y06718D02*
X05167D01*
X05165Y06716D02*
Y0672D01*
X05132Y06718D02*
X05136D01*
X05134Y06716D02*
Y0672D01*
X05163Y0634D02*
X05167D01*
X05165Y06338D02*
Y06342D01*
X05163Y06309D02*
X05167D01*
X05165Y06307D02*
Y06311D01*
X05132Y06277D02*
X05136D01*
X05134Y06275D02*
Y06279D01*
X05132Y06246D02*
X05136D01*
X05134Y06244D02*
Y06248D01*
X05163Y06277D02*
X05167D01*
X05165Y06275D02*
Y06279D01*
X05163Y06372D02*
X05167D01*
X05165Y0637D02*
Y06374D01*
X05132Y06498D02*
X05136D01*
X05134Y06496D02*
Y065D01*
X05163Y06529D02*
X05167D01*
X05165Y06527D02*
Y06531D01*
X04943Y06246D02*
X04947D01*
X04945Y06244D02*
Y06248D01*
X04943Y0634D02*
X04947D01*
X04945Y06338D02*
Y06342D01*
X04882Y06593D02*
X04886D01*
X04884Y06591D02*
Y06595D01*
X04882Y06687D02*
X04886D01*
X04884Y06685D02*
Y06689D01*
X04882Y06656D02*
X04886D01*
X04884Y06654D02*
Y06658D01*
X04882Y06498D02*
X04886D01*
X04884Y06496D02*
Y065D01*
X04974Y06592D02*
X04978D01*
X04976Y0659D02*
Y06594D01*
X04943Y06592D02*
X04947D01*
X04945Y0659D02*
Y06594D01*
X04943Y06718D02*
X04947D01*
X04945Y06716D02*
Y0672D01*
X0123Y0699D02*
X01238D01*
X01234Y06986D02*
Y06994D01*
X0123Y07033D02*
X01238D01*
X01234Y07029D02*
Y07037D01*
X0123Y07076D02*
X01238D01*
X01234Y07072D02*
Y0708D01*
X01273Y0699D02*
X01281D01*
X01277Y06986D02*
Y06994D01*
X01273Y07033D02*
X01281D01*
X01277Y07029D02*
Y07037D01*
X01273Y07076D02*
X01281D01*
X01277Y07072D02*
Y0708D01*
X01317Y0699D02*
X01325D01*
X01321Y06986D02*
Y06994D01*
X01317Y07033D02*
X01325D01*
X01321Y07029D02*
Y07037D01*
X01317Y07076D02*
X01325D01*
X01321Y07072D02*
Y0708D01*
X0136Y0699D02*
X01368D01*
X01364Y06986D02*
Y06994D01*
X0136Y07033D02*
X01368D01*
X01364Y07029D02*
Y07037D01*
X0136Y07076D02*
X01368D01*
X01364Y07072D02*
Y0708D01*
X01403Y0699D02*
X01411D01*
X01407Y06986D02*
Y06994D01*
X01403Y07033D02*
X01411D01*
X01407Y07029D02*
Y07037D01*
X01403Y07076D02*
X01411D01*
X01407Y07072D02*
Y0708D01*
X01447Y0699D02*
X01455D01*
X01451Y06986D02*
Y06994D01*
X01447Y07033D02*
X01455D01*
X01451Y07029D02*
Y07037D01*
X01447Y07076D02*
X01455D01*
X01451Y07072D02*
Y0708D01*
X0149Y0699D02*
X01498D01*
X01494Y06986D02*
Y06994D01*
X0149Y07033D02*
X01498D01*
X01494Y07029D02*
Y07037D01*
X0149Y07076D02*
X01498D01*
X01494Y07072D02*
Y0708D01*
X01533Y0699D02*
X01541D01*
X01537Y06986D02*
Y06994D01*
X01533Y07033D02*
X01541D01*
X01537Y07029D02*
Y07037D01*
X01533Y07076D02*
X01541D01*
X01537Y07072D02*
Y0708D01*
X01577Y0699D02*
X01584D01*
X01581Y06986D02*
Y06994D01*
X01577Y07033D02*
X01584D01*
X01581Y07029D02*
Y07037D01*
X01577Y07076D02*
X01584D01*
X01581Y07072D02*
Y0708D01*
X00346Y02303D02*
X00356D01*
X00351Y02298D02*
Y02308D01*
X00346Y02363D02*
X00356D01*
X00351Y02358D02*
Y02368D01*
X00346Y02423D02*
X00356D01*
X00351Y02418D02*
Y02428D01*
X00346Y02483D02*
X00356D01*
X00351Y02478D02*
Y02488D01*
X00376Y02453D02*
X00386D01*
X00381Y02448D02*
Y02458D01*
X00376Y02333D02*
X00386D01*
X00381Y02328D02*
Y02338D01*
X00406Y02483D02*
X00416D01*
X00411Y02478D02*
Y02488D01*
X00406Y02423D02*
X00416D01*
X00411Y02418D02*
Y02428D01*
X00406Y02363D02*
X00416D01*
X00411Y02358D02*
Y02368D01*
X00406Y02303D02*
X00416D01*
X00411Y02298D02*
Y02308D01*
X00436Y02453D02*
X00446D01*
X00441Y02448D02*
Y02458D01*
X00436Y02333D02*
X00446D01*
X00441Y02328D02*
Y02338D01*
X00466Y02483D02*
X00476D01*
X00471Y02478D02*
Y02488D01*
X00466Y02423D02*
X00476D01*
X00471Y02418D02*
Y02428D01*
X00466Y02363D02*
X00476D01*
X00471Y02358D02*
Y02368D01*
X00466Y02303D02*
X00476D01*
X00471Y02298D02*
Y02308D01*
X00496Y02453D02*
X00506D01*
X00501Y02448D02*
Y02458D01*
X00496Y02333D02*
X00506D01*
X00501Y02328D02*
Y02338D01*
X00526Y02483D02*
X00536D01*
X00531Y02478D02*
Y02488D01*
X00526Y02423D02*
X00536D01*
X00531Y02418D02*
Y02428D01*
X00526Y02363D02*
X00536D01*
X00531Y02358D02*
Y02368D01*
X00526Y02303D02*
X00536D01*
X00531Y02298D02*
Y02308D01*
X00556Y02453D02*
X00566D01*
X00561Y02448D02*
Y02458D01*
X00556Y02393D02*
X00566D01*
X00561Y02388D02*
Y02398D01*
X00556Y02333D02*
X00566D01*
X00561Y02328D02*
Y02338D01*
X00586Y02483D02*
X00596D01*
X00591Y02478D02*
Y02488D01*
X00586Y02423D02*
X00596D01*
X00591Y02418D02*
Y02428D01*
X00586Y02363D02*
X00596D01*
X00591Y02358D02*
Y02368D01*
X00616Y02453D02*
X00626D01*
X00621Y02448D02*
Y02458D01*
X00616Y02393D02*
X00626D01*
X00621Y02388D02*
Y02398D01*
X00646Y02483D02*
X00656D01*
X00651Y02478D02*
Y02488D01*
X00646Y02423D02*
X00656D01*
X00651Y02418D02*
Y02428D01*
X00646Y02363D02*
X00656D01*
X00651Y02358D02*
Y02368D01*
X00646Y02303D02*
X00656D01*
X00651Y02298D02*
Y02308D01*
X00586Y02303D02*
X00596D01*
X00591Y02298D02*
Y02308D01*
X00616Y02333D02*
X00626D01*
X00621Y02328D02*
Y02338D01*
X00376Y02393D02*
X00386D01*
X00381Y02388D02*
Y02398D01*
X00436Y02393D02*
X00446D01*
X00441Y02388D02*
Y02398D01*
X00496Y02393D02*
X00506D01*
X00501Y02388D02*
Y02398D01*
X0255Y00998D02*
X02558D01*
X02554Y00994D02*
Y01002D01*
X0255Y00955D02*
X02558D01*
X02554Y00951D02*
Y00959D01*
X0255Y00912D02*
X02558D01*
X02554Y00908D02*
Y00916D01*
X0255Y00868D02*
X02558D01*
X02554Y00864D02*
Y00872D01*
X0255Y00825D02*
X02558D01*
X02554Y00821D02*
Y00829D01*
X02507Y00998D02*
X02515D01*
X02511Y00994D02*
Y01002D01*
X02507Y00955D02*
X02515D01*
X02511Y00951D02*
Y00959D01*
X02507Y00912D02*
X02515D01*
X02511Y00908D02*
Y00916D01*
X02507Y00868D02*
X02515D01*
X02511Y00864D02*
Y00872D01*
X02507Y00825D02*
X02515D01*
X02511Y00821D02*
Y00829D01*
X02464Y00998D02*
X02472D01*
X02468Y00994D02*
Y01002D01*
X02464Y00955D02*
X02472D01*
X02468Y00951D02*
Y00959D01*
X02464Y00912D02*
X02472D01*
X02468Y00908D02*
Y00916D01*
X02464Y00868D02*
X02472D01*
X02468Y00864D02*
Y00872D01*
X02464Y00825D02*
X02472D01*
X02468Y00821D02*
Y00829D01*
X0242Y00998D02*
X02428D01*
X02424Y00994D02*
Y01002D01*
X0242Y00955D02*
X02428D01*
X02424Y00951D02*
Y00959D01*
X0242Y00912D02*
X02428D01*
X02424Y00908D02*
Y00916D01*
X0242Y00868D02*
X02428D01*
X02424Y00864D02*
Y00872D01*
X0242Y00825D02*
X02428D01*
X02424Y00821D02*
Y00829D01*
X02377Y00998D02*
X02385D01*
X02381Y00994D02*
Y01002D01*
X02377Y00955D02*
X02385D01*
X02381Y00951D02*
Y00959D01*
X02377Y00912D02*
X02385D01*
X02381Y00908D02*
Y00916D01*
X02377Y00868D02*
X02385D01*
X02381Y00864D02*
Y00872D01*
X02377Y00825D02*
X02385D01*
X02381Y00821D02*
Y00829D01*
X01239Y00876D02*
X01247D01*
X01243Y00872D02*
Y0088D01*
X01196Y00876D02*
X01204D01*
X012Y00872D02*
Y0088D01*
X01239Y0092D02*
X01247D01*
X01243Y00916D02*
Y00924D01*
X01196Y0092D02*
X01204D01*
X012Y00916D02*
Y00924D01*
X02226Y03395D02*
X02234D01*
X0223Y03391D02*
Y03399D01*
X02226Y03438D02*
X02234D01*
X0223Y03434D02*
Y03442D01*
X02226Y03482D02*
X02234D01*
X0223Y03478D02*
Y03486D01*
X02226Y03525D02*
X02234D01*
X0223Y03521D02*
Y03529D01*
X02226Y03568D02*
X02234D01*
X0223Y03564D02*
Y03572D01*
X0227Y03395D02*
X02278D01*
X02274Y03391D02*
Y03399D01*
X0227Y03438D02*
X02278D01*
X02274Y03434D02*
Y03442D01*
X0227Y03482D02*
X02278D01*
X02274Y03478D02*
Y03486D01*
X0227Y03525D02*
X02278D01*
X02274Y03521D02*
Y03529D01*
X0227Y03568D02*
X02278D01*
X02274Y03564D02*
Y03572D01*
X02313Y03395D02*
X02321D01*
X02317Y03391D02*
Y03399D01*
X02313Y03438D02*
X02321D01*
X02317Y03434D02*
Y03442D01*
X02313Y03482D02*
X02321D01*
X02317Y03478D02*
Y03486D01*
X02313Y03525D02*
X02321D01*
X02317Y03521D02*
Y03529D01*
X02313Y03568D02*
X02321D01*
X02317Y03564D02*
Y03572D01*
X02356Y03395D02*
X02364D01*
X0236Y03391D02*
Y03399D01*
X02356Y03438D02*
X02364D01*
X0236Y03434D02*
Y03442D01*
X02356Y03482D02*
X02364D01*
X0236Y03478D02*
Y03486D01*
X02356Y03525D02*
X02364D01*
X0236Y03521D02*
Y03529D01*
X02356Y03568D02*
X02364D01*
X0236Y03564D02*
Y03572D01*
X024Y03395D02*
X02408D01*
X02404Y03391D02*
Y03399D01*
X024Y03438D02*
X02408D01*
X02404Y03434D02*
Y03442D01*
X024Y03482D02*
X02408D01*
X02404Y03478D02*
Y03486D01*
X024Y03525D02*
X02408D01*
X02404Y03521D02*
Y03529D01*
X024Y03568D02*
X02408D01*
X02404Y03564D02*
Y03572D01*
X01006Y03566D02*
X0101D01*
X01008Y03564D02*
Y03568D01*
X01169Y03116D02*
X01175D01*
X01172Y03113D02*
Y03119D01*
M02*