%FSTAX23Y23*%
%MOIN*%
%SFA1B1*%

%IPPOS*%
%AMD205*
4,1,8,0.030000,-0.015000,0.030000,0.015000,0.015000,0.030000,-0.015000,0.030000,-0.030000,0.015000,-0.030000,-0.015000,-0.015000,-0.030000,0.015000,-0.030000,0.030000,-0.015000,0.0*
%
%ADD190C,0.004000*%
%ADD197C,0.244094*%
%ADD198C,0.023622*%
%ADD199C,0.086614*%
%ADD200C,0.075000*%
%ADD201R,0.075000X0.075000*%
%ADD202C,0.118110*%
%ADD203C,0.062992*%
%ADD204C,0.150000*%
G04~CAMADD=205~4~0.0~0.0~600.0~600.0~0.0~150.0~0~0.0~0.0~0.0~0.0~0~0.0~0.0~0.0~0.0~0~0.0~0.0~0.0~270.0~600.0~600.0*
%ADD205D205*%
%ADD206C,0.060000*%
%ADD207R,0.118110X0.118110*%
%ADD208C,0.007000*%
%ADD209C,0.015000*%
%ADD210C,0.020000*%
%ADD211C,0.019685*%
%LNprob_s7cas_pcb-1*%
%LPD*%
G54D190*
X04461Y05982D02*
X04479Y05999D01*
Y0601*
X04475Y06014D02*
X04479Y0601D01*
X04475Y06014D02*
Y06024D01*
X04481Y06031*
X04492*
X0451Y06012*
X0452*
X04527Y06019*
Y06029*
X04509Y06047D02*
X04527Y06029D01*
X04509Y06047D02*
Y06058D01*
X04515Y06064*
X04526*
X04544Y06046*
X04554*
X04561Y06053*
Y06063*
X04543Y06081D02*
X04561Y06063D01*
X04543Y06081D02*
Y06092D01*
X04549Y06098*
X0456*
X04578Y0608*
X04588*
X04595Y06087*
Y06097*
X04591Y06101D02*
X04595Y06097D01*
X04591Y06101D02*
Y06111D01*
X04592Y06113*
X04192Y05713D02*
X04461Y05982D01*
X04592Y06113D02*
X04659Y06179D01*
X02901Y04769D02*
X02902D01*
X02908Y04775*
X029Y04758D02*
X02917D01*
X02908Y04775D02*
X02912D01*
X02893Y04783D02*
X02912Y04803D01*
X02893Y04766D02*
X029Y04758D01*
X02893Y04766D02*
Y04783D01*
X02917Y04758D02*
X02967Y04809D01*
X02912Y04775D02*
X02935Y04798D01*
X04983Y06532D02*
X05027Y06489D01*
Y06068D02*
Y06489D01*
X04827Y06529D02*
X04884Y06472D01*
X04964Y06466D02*
X04976D01*
X04886Y06545D02*
X04964Y06466D01*
X04886Y06545D02*
Y06546D01*
X04485Y06086D02*
X04516Y06117D01*
X04485Y06076D02*
Y06086D01*
Y06076D02*
X04486Y06075D01*
Y06065D02*
Y06075D01*
X04479Y06058D02*
X04486Y06065D01*
X04469Y06058D02*
X04479D01*
X04454Y06073D02*
X04469Y06058D01*
X04444Y06073D02*
X04454D01*
X04437Y06066D02*
X04444Y06073D01*
X04437Y06056D02*
Y06066D01*
Y06056D02*
X04455Y06038D01*
Y06028D02*
Y06038D01*
X04448Y06021D02*
X04455Y06028D01*
X04438Y06021D02*
X04448D01*
X0442Y06039D02*
X04438Y06021D01*
X0441Y06039D02*
X0442D01*
X04403Y06032D02*
X0441Y06039D01*
X04403Y06022D02*
Y06032D01*
Y06022D02*
X04421Y06004D01*
Y05994D02*
Y06004D01*
X04414Y05987D02*
X04421Y05994D01*
X04404Y05987D02*
X04414D01*
X04386Y06005D02*
X04404Y05987D01*
X04376Y06005D02*
X04386D01*
X04369Y05998D02*
X04376Y06005D01*
X04369Y05988D02*
Y05998D01*
Y05988D02*
X04387Y0597D01*
Y0596D02*
Y0597D01*
X0438Y05953D02*
X04387Y0596D01*
X0437Y05953D02*
X0438D01*
X04352Y05971D02*
X0437Y05953D01*
X04342Y05971D02*
X04352D01*
X04335Y05964D02*
X04342Y05971D01*
X04335Y05954D02*
Y05964D01*
Y05954D02*
X04353Y05936D01*
Y05926D02*
Y05936D01*
X04346Y05919D02*
X04353Y05926D01*
X04336Y05919D02*
X04346D01*
X04318Y05937D02*
X04336Y05919D01*
X04308Y05937D02*
X04318D01*
X04301Y0593D02*
X04308Y05937D01*
X04301Y0592D02*
Y0593D01*
Y0592D02*
X04319Y05902D01*
Y05892D02*
Y05902D01*
X04312Y05885D02*
X04319Y05892D01*
X04302Y05885D02*
X04312D01*
X04284Y05903D02*
X04302Y05885D01*
X04274Y05903D02*
X04284D01*
X04267Y05896D02*
X04274Y05903D01*
X04267Y05886D02*
Y05896D01*
Y05886D02*
X04285Y05868D01*
Y05858D02*
Y05868D01*
X04278Y05851D02*
X04285Y05858D01*
X04268Y05851D02*
X04278D01*
X0425Y05869D02*
X04268Y05851D01*
X0424Y05869D02*
X0425D01*
X04233Y05863D02*
X0424Y05869D01*
X04233Y05852D02*
Y05863D01*
Y05852D02*
X04251Y05834D01*
Y05824D02*
Y05834D01*
X04244Y05817D02*
X04251Y05824D01*
X04234Y05817D02*
X04244D01*
X04216Y05835D02*
X04234Y05817D01*
X04206Y05835D02*
X04216D01*
X04199Y05829D02*
X04206Y05835D01*
X04199Y05818D02*
Y05829D01*
Y05818D02*
X04217Y058D01*
Y0579D02*
Y058D01*
X04211Y05783D02*
X04217Y0579D01*
X042Y05783D02*
X04211D01*
X04182Y05801D02*
X042Y05783D01*
X04172Y05801D02*
X04182D01*
X04165Y05795D02*
X04172Y05801D01*
X04165Y05784D02*
Y05795D01*
Y05784D02*
X04183Y05766D01*
Y05756D02*
Y05766D01*
X04177Y05749D02*
X04183Y05756D01*
X04166Y05749D02*
X04177D01*
X04148Y05767D02*
X04166Y05749D01*
X04138Y05767D02*
X04148D01*
X04131Y05761D02*
X04138Y05767D01*
X04131Y05751D02*
Y05761D01*
Y05751D02*
X04149Y05732D01*
Y05722D02*
Y05732D01*
X04143Y05715D02*
X04149Y05722D01*
X04132Y05715D02*
X04143D01*
X04114Y05734D02*
X04132Y05715D01*
X04104Y05734D02*
X04114D01*
X04097Y05727D02*
X04104Y05734D01*
X04097Y05717D02*
Y05727D01*
Y05717D02*
X04115Y05698D01*
Y05688D02*
Y05698D01*
X04109Y05682D02*
X04115Y05688D01*
X04099Y05682D02*
X04109D01*
X0408Y057D02*
X04099Y05682D01*
X0407Y057D02*
X0408D01*
X04063Y05693D02*
X0407Y057D01*
X04063Y05683D02*
Y05693D01*
Y05683D02*
X04082Y05665D01*
Y05654D02*
Y05665D01*
X04075Y05648D02*
X04082Y05654D01*
X04065Y05648D02*
X04075D01*
X04046Y05666D02*
X04065Y05648D01*
X04036Y05666D02*
X04046D01*
X04029Y05659D02*
X04036Y05666D01*
X04029Y05649D02*
Y05659D01*
Y05649D02*
X04048Y05631D01*
Y0562D02*
Y05631D01*
X04041Y05614D02*
X04048Y0562D01*
X04031Y05614D02*
X04041D01*
X04013Y05632D02*
X04031Y05614D01*
X04002Y05632D02*
X04013D01*
X03996Y05625D02*
X04002Y05632D01*
X03996Y05615D02*
Y05625D01*
Y05615D02*
X04014Y05597D01*
Y05586D02*
Y05597D01*
X04007Y0558D02*
X04014Y05586D01*
X03997Y0558D02*
X04007D01*
X03979Y05598D02*
X03997Y0558D01*
X03968Y05598D02*
X03979D01*
X03962Y05591D02*
X03968Y05598D01*
X03962Y05581D02*
Y05591D01*
Y05581D02*
X0398Y05563D01*
Y05553D02*
Y05563D01*
X03973Y05546D02*
X0398Y05553D01*
X03963Y05546D02*
X03973D01*
X03945Y05564D02*
X03963Y05546D01*
X03934Y05564D02*
X03945D01*
X03928Y05557D02*
X03934Y05564D01*
X03928Y05547D02*
Y05557D01*
Y05547D02*
X03946Y05529D01*
Y05519D02*
Y05529D01*
X03939Y05512D02*
X03946Y05519D01*
X03929Y05512D02*
X03939D01*
X03911Y0553D02*
X03929Y05512D01*
X03901Y0553D02*
X03911D01*
X03894Y05523D02*
X03901Y0553D01*
X03894Y05513D02*
Y05523D01*
Y05513D02*
X03912Y05495D01*
Y05485D02*
Y05495D01*
X03905Y05478D02*
X03912Y05485D01*
X03895Y05478D02*
X03905D01*
X03877Y05496D02*
X03895Y05478D01*
X03867Y05496D02*
X03877D01*
X0386Y05489D02*
X03867Y05496D01*
X0386Y05479D02*
Y05489D01*
Y05479D02*
X03878Y05461D01*
Y05451D02*
Y05461D01*
X03871Y05444D02*
X03878Y05451D01*
X03861Y05444D02*
X03871D01*
X03843Y05462D02*
X03861Y05444D01*
X03833Y05462D02*
X03843D01*
X03826Y05455D02*
X03833Y05462D01*
X03826Y05445D02*
Y05455D01*
Y05445D02*
X03844Y05427D01*
Y05417D02*
Y05427D01*
X03837Y0541D02*
X03844Y05417D01*
X03827Y0541D02*
X03837D01*
X03809Y05428D02*
X03827Y0541D01*
X03799Y05428D02*
X03809D01*
X03792Y05421D02*
X03799Y05428D01*
X03792Y05411D02*
Y05421D01*
Y05411D02*
X0381Y05393D01*
Y05383D02*
Y05393D01*
X03803Y05376D02*
X0381Y05383D01*
X03793Y05376D02*
X03803D01*
X03775Y05394D02*
X03793Y05376D01*
X03765Y05394D02*
X03775D01*
X03758Y05387D02*
X03765Y05394D01*
X03758Y05377D02*
Y05387D01*
Y05377D02*
X03776Y05359D01*
Y05349D02*
Y05359D01*
X03769Y05342D02*
X03776Y05349D01*
X03759Y05342D02*
X03769D01*
X03741Y0536D02*
X03759Y05342D01*
X03731Y0536D02*
X03741D01*
X03724Y05353D02*
X03731Y0536D01*
X03724Y05343D02*
Y05353D01*
Y05343D02*
X03742Y05325D01*
Y05315D02*
Y05325D01*
X03735Y05308D02*
X03742Y05315D01*
X03725Y05308D02*
X03735D01*
X03707Y05326D02*
X03725Y05308D01*
X03697Y05326D02*
X03707D01*
X0369Y05319D02*
X03697Y05326D01*
X0369Y05309D02*
Y05319D01*
Y05309D02*
X03694Y05305D01*
Y05295D02*
Y05305D01*
X03693Y05294D02*
X03694Y05295D01*
X03667Y05269D02*
X03693Y05294D01*
X04176Y06412D02*
X04188Y06424D01*
X04176Y06401D02*
Y06412D01*
Y06401D02*
X04176Y06401D01*
Y06391D02*
Y06401D01*
X0417Y06384D02*
X04176Y06391D01*
X0416Y06384D02*
X0417D01*
X04145Y06399D02*
X0416Y06384D01*
X04135Y06399D02*
X04145D01*
X04128Y06392D02*
X04135Y06399D01*
X04128Y06382D02*
Y06392D01*
Y06382D02*
X04146Y06364D01*
Y06353D02*
Y06364D01*
X04139Y06347D02*
X04146Y06353D01*
X04129Y06347D02*
X04139D01*
X04111Y06365D02*
X04129Y06347D01*
X04101Y06365D02*
X04111D01*
X04094Y06358D02*
X04101Y06365D01*
X04094Y06348D02*
Y06358D01*
Y06348D02*
X04112Y0633D01*
Y06319D02*
Y0633D01*
X04105Y06313D02*
X04112Y06319D01*
X04095Y06313D02*
X04105D01*
X04077Y06331D02*
X04095Y06313D01*
X04067Y06331D02*
X04077D01*
X0406Y06324D02*
X04067Y06331D01*
X0406Y06314D02*
Y06324D01*
Y06314D02*
X04078Y06296D01*
Y06285D02*
Y06296D01*
X04072Y06279D02*
X04078Y06285D01*
X04061Y06279D02*
X04072D01*
X04043Y06297D02*
X04061Y06279D01*
X04033Y06297D02*
X04043D01*
X04026Y0629D02*
X04033Y06297D01*
X04026Y0628D02*
Y0629D01*
Y0628D02*
X04044Y06262D01*
Y06252D02*
Y06262D01*
X04038Y06245D02*
X04044Y06252D01*
X04027Y06245D02*
X04038D01*
X04009Y06263D02*
X04027Y06245D01*
X03999Y06263D02*
X04009D01*
X03992Y06256D02*
X03999Y06263D01*
X03992Y06246D02*
Y06256D01*
Y06246D02*
X0401Y06228D01*
Y06218D02*
Y06228D01*
X04004Y06211D02*
X0401Y06218D01*
X03993Y06211D02*
X04004D01*
X03975Y06229D02*
X03993Y06211D01*
X03965Y06229D02*
X03975D01*
X03958Y06222D02*
X03965Y06229D01*
X03958Y06212D02*
Y06222D01*
Y06212D02*
X03976Y06194D01*
Y06184D02*
Y06194D01*
X0397Y06177D02*
X03976Y06184D01*
X0396Y06177D02*
X0397D01*
X03941Y06195D02*
X0396Y06177D01*
X03931Y06195D02*
X03941D01*
X03924Y06188D02*
X03931Y06195D01*
X03924Y06178D02*
Y06188D01*
Y06178D02*
X03943Y0616D01*
Y0615D02*
Y0616D01*
X03936Y06143D02*
X03943Y0615D01*
X03926Y06143D02*
X03936D01*
X03907Y06161D02*
X03926Y06143D01*
X03897Y06161D02*
X03907D01*
X0389Y06154D02*
X03897Y06161D01*
X0389Y06144D02*
Y06154D01*
Y06144D02*
X03909Y06126D01*
Y06116D02*
Y06126D01*
X03902Y06109D02*
X03909Y06116D01*
X03892Y06109D02*
X03902D01*
X03874Y06127D02*
X03892Y06109D01*
X03863Y06127D02*
X03874D01*
X03857Y0612D02*
X03863Y06127D01*
X03857Y0611D02*
Y0612D01*
Y0611D02*
X03875Y06092D01*
Y06082D02*
Y06092D01*
X03868Y06075D02*
X03875Y06082D01*
X03858Y06075D02*
X03868D01*
X0384Y06093D02*
X03858Y06075D01*
X03829Y06093D02*
X0384D01*
X03823Y06086D02*
X03829Y06093D01*
X03823Y06076D02*
Y06086D01*
Y06076D02*
X03827Y06072D01*
Y06062D02*
Y06072D01*
X03825Y06061D02*
X03827Y06062D01*
X03441Y05677D02*
X03825Y06061D01*
X04768Y06122D02*
X04792Y06145D01*
X04768Y06112D02*
Y06122D01*
Y06112D02*
X04771Y06109D01*
Y06099D02*
Y06109D01*
X04764Y06092D02*
X04771Y06099D01*
X04754Y06092D02*
X04764D01*
X04737Y06109D02*
X04754Y06092D01*
X04727Y06109D02*
X04737D01*
X0472Y06102D02*
X04727Y06109D01*
X0472Y06092D02*
Y06102D01*
Y06092D02*
X04738Y06074D01*
Y06064D02*
Y06074D01*
X04731Y06057D02*
X04738Y06064D01*
X04721Y06057D02*
X04731D01*
X04703Y06075D02*
X04721Y06057D01*
X04693Y06075D02*
X04703D01*
X04686Y06068D02*
X04693Y06075D01*
X04686Y06058D02*
Y06068D01*
Y06058D02*
X04704Y0604D01*
Y0603D02*
Y0604D01*
X04697Y06023D02*
X04704Y0603D01*
X04687Y06023D02*
X04697D01*
X04669Y06041D02*
X04687Y06023D01*
X04659Y06041D02*
X04669D01*
X04652Y06034D02*
X04659Y06041D01*
X04652Y06024D02*
Y06034D01*
Y06024D02*
X0467Y06006D01*
Y05996D02*
Y06006D01*
X04663Y05989D02*
X0467Y05996D01*
X04653Y05989D02*
X04663D01*
X04635Y06007D02*
X04653Y05989D01*
X04625Y06007D02*
X04635D01*
X04618Y06D02*
X04625Y06007D01*
X04618Y0599D02*
Y06D01*
Y0599D02*
X04636Y05972D01*
Y05962D02*
Y05972D01*
X04629Y05955D02*
X04636Y05962D01*
X04619Y05955D02*
X04629D01*
X04601Y05973D02*
X04619Y05955D01*
X04591Y05973D02*
X04601D01*
X04584Y05966D02*
X04591Y05973D01*
X04584Y05956D02*
Y05966D01*
Y05956D02*
X04602Y05938D01*
Y05928D02*
Y05938D01*
X04595Y05921D02*
X04602Y05928D01*
X04585Y05921D02*
X04595D01*
X04567Y05939D02*
X04585Y05921D01*
X04557Y05939D02*
X04567D01*
X0455Y05932D02*
X04557Y05939D01*
X0455Y05922D02*
Y05932D01*
Y05922D02*
X04568Y05904D01*
Y05894D02*
Y05904D01*
X04562Y05887D02*
X04568Y05894D01*
X04551Y05887D02*
X04562D01*
X04533Y05905D02*
X04551Y05887D01*
X04523Y05905D02*
X04533D01*
X04516Y05898D02*
X04523Y05905D01*
X04516Y05888D02*
Y05898D01*
Y05888D02*
X04534Y0587D01*
Y0586D02*
Y0587D01*
X04528Y05853D02*
X04534Y0586D01*
X04517Y05853D02*
X04528D01*
X04499Y05871D02*
X04517Y05853D01*
X04489Y05871D02*
X04499D01*
X04482Y05865D02*
X04489Y05871D01*
X04482Y05854D02*
Y05865D01*
Y05854D02*
X045Y05836D01*
Y05826D02*
Y05836D01*
X04494Y05819D02*
X045Y05826D01*
X04483Y05819D02*
X04494D01*
X04465Y05837D02*
X04483Y05819D01*
X04455Y05837D02*
X04465D01*
X04448Y05831D02*
X04455Y05837D01*
X04448Y0582D02*
Y05831D01*
Y0582D02*
X04466Y05802D01*
Y05792D02*
Y05802D01*
X0446Y05785D02*
X04466Y05792D01*
X0445Y05785D02*
X0446D01*
X04431Y05803D02*
X0445Y05785D01*
X04421Y05803D02*
X04431D01*
X04414Y05797D02*
X04421Y05803D01*
X04414Y05786D02*
Y05797D01*
Y05786D02*
X04433Y05768D01*
Y05758D02*
Y05768D01*
X04426Y05751D02*
X04433Y05758D01*
X04416Y05751D02*
X04426D01*
X04397Y0577D02*
X04416Y05751D01*
X04387Y0577D02*
X04397D01*
X04381Y05763D02*
X04387Y0577D01*
X04381Y05753D02*
Y05763D01*
Y05753D02*
X04399Y05734D01*
Y05724D02*
Y05734D01*
X04392Y05717D02*
X04399Y05724D01*
X04382Y05717D02*
X04392D01*
X04364Y05736D02*
X04382Y05717D01*
X04353Y05736D02*
X04364D01*
X04347Y05729D02*
X04353Y05736D01*
X04347Y05719D02*
Y05729D01*
Y05719D02*
X04365Y05701D01*
Y0569D02*
Y05701D01*
X04358Y05684D02*
X04365Y0569D01*
X04348Y05684D02*
X04358D01*
X0433Y05702D02*
X04348Y05684D01*
X04319Y05702D02*
X0433D01*
X04313Y05695D02*
X04319Y05702D01*
X04313Y05685D02*
Y05695D01*
Y05685D02*
X04317Y05681D01*
Y05671D02*
Y05681D01*
X04315Y05669D02*
X04317Y05671D01*
X04792Y06145D02*
X04801Y06155D01*
X03479Y04833D02*
X04315Y05669D01*
X04275Y05535D02*
X04279Y0554D01*
Y0555*
D01*
Y0556D01*
X04286Y05567*
X04296*
X04303Y0556*
X04313*
X0432Y05567*
Y05577*
X04305Y05592D02*
X0432Y05577D01*
X04305Y05592D02*
Y05602D01*
X04311Y05609*
X04321*
X0434Y05591*
X0435*
X04357Y05598*
Y05608*
X04338Y05626D02*
X04357Y05608D01*
X04338Y05626D02*
Y05636D01*
X04345Y05643*
X04355*
X04374Y05625*
X04384*
X04391Y05632*
Y05642*
X04372Y0566D02*
X04391Y05642D01*
X04372Y0566D02*
Y0567D01*
X04379Y05677*
X04389*
X04407Y05659*
X04418*
X04424Y05666*
Y05676*
X04406Y05694D02*
X04424Y05676D01*
X04406Y05694D02*
Y05704D01*
X04413Y05711*
X04423*
X04441Y05693*
X04451*
X04458Y057*
Y0571*
X0444Y05728D02*
X04458Y0571D01*
X0444Y05728D02*
Y05738D01*
X04447Y05745*
X04457*
X04475Y05727*
X04485*
X04492Y05734*
Y05744*
X04474Y05762D02*
X04492Y05744D01*
X04474Y05762D02*
Y05772D01*
X04481Y05779*
X04491*
X04509Y05761*
X04519*
X04526Y05768*
Y05778*
X04508Y05796D02*
X04526Y05778D01*
X04508Y05796D02*
Y05806D01*
X04515Y05813*
X04525*
X04543Y05795*
X04553*
X0456Y05802*
Y05812*
X04542Y0583D02*
X0456Y05812D01*
X04542Y0583D02*
Y0584D01*
X04549Y05847*
X04559*
X04577Y05829*
X04587*
X04594Y05836*
Y05846*
X04576Y05864D02*
X04594Y05846D01*
X04576Y05864D02*
Y05874D01*
X04583Y05881*
X04593*
X04611Y05863*
X04621*
X04628Y0587*
Y0588*
X0461Y05898D02*
X04628Y0588D01*
X0461Y05898D02*
Y05908D01*
X04617Y05915*
X04627*
X04645Y05897*
X04655*
X04662Y05904*
Y05914*
X04644Y05932D02*
X04662Y05914D01*
X04644Y05932D02*
Y05942D01*
X04651Y05949*
X04661*
X04679Y05931*
X04689*
X04696Y05938*
Y05948*
X04678Y05966D02*
X04696Y05948D01*
X04678Y05966D02*
Y05976D01*
X04685Y05983*
X04695*
X04713Y05965*
X04723*
X0473Y05972*
Y05982*
X04712Y06D02*
X0473Y05982D01*
X04712Y06D02*
Y0601D01*
X04719Y06017*
X04729*
X04747Y05999*
X04757*
X04764Y06006*
Y06016*
X04746Y06033D02*
X04764Y06016D01*
X04746Y06033D02*
Y06044D01*
X04753Y0605*
X04763*
X0478Y06033*
X04791*
X04797Y06039*
Y0605*
X0478Y06067D02*
X04797Y0605D01*
X0478Y06067D02*
Y06078D01*
X04786Y06084*
X04797*
X04814Y06067*
X04825*
X04831Y06073*
Y06084*
X04828Y06087D02*
X04831Y06084D01*
X04828Y06087D02*
Y06097D01*
X04829Y06099*
X03554Y04815D02*
X04275Y05535D01*
X04829Y06099D02*
X04851Y06121D01*
X04139Y06299D02*
X04145Y06305D01*
X04128Y06299D02*
X04139D01*
X04124Y06302D02*
X04128Y06299D01*
X04114Y06302D02*
X04124D01*
X04107Y06296D02*
X04114Y06302D01*
X04107Y06286D02*
Y06296D01*
Y06286D02*
X04126Y06267D01*
Y06257D02*
Y06267D01*
X04119Y0625D02*
X04126Y06257D01*
X04109Y0625D02*
X04119D01*
X04091Y06269D02*
X04109Y0625D01*
X0408Y06269D02*
X04091D01*
X04074Y06262D02*
X0408Y06269D01*
X04074Y06252D02*
Y06262D01*
Y06252D02*
X04092Y06233D01*
Y06223D02*
Y06233D01*
X04085Y06216D02*
X04092Y06223D01*
X04075Y06216D02*
X04085D01*
X04057Y06235D02*
X04075Y06216D01*
X04046Y06235D02*
X04057D01*
X0404Y06228D02*
X04046Y06235D01*
X0404Y06218D02*
Y06228D01*
Y06218D02*
X04058Y062D01*
Y06189D02*
Y062D01*
X04051Y06183D02*
X04058Y06189D01*
X04041Y06183D02*
X04051D01*
X04023Y06201D02*
X04041Y06183D01*
X04012Y06201D02*
X04023D01*
X04006Y06194D02*
X04012Y06201D01*
X04006Y06184D02*
Y06194D01*
Y06184D02*
X04024Y06166D01*
Y06155D02*
Y06166D01*
X04017Y06149D02*
X04024Y06155D01*
X04007Y06149D02*
X04017D01*
X03989Y06167D02*
X04007Y06149D01*
X03979Y06167D02*
X03989D01*
X03972Y0616D02*
X03979Y06167D01*
X03972Y0615D02*
Y0616D01*
Y0615D02*
X0399Y06132D01*
Y06121D02*
Y06132D01*
X03983Y06115D02*
X0399Y06121D01*
X03973Y06115D02*
X03983D01*
X03955Y06133D02*
X03973Y06115D01*
X03945Y06133D02*
X03955D01*
X03938Y06126D02*
X03945Y06133D01*
X03938Y06116D02*
Y06126D01*
Y06116D02*
X03956Y06098D01*
Y06088D02*
Y06098D01*
X03949Y06081D02*
X03956Y06088D01*
X03939Y06081D02*
X03949D01*
X03921Y06099D02*
X03939Y06081D01*
X03911Y06099D02*
X03921D01*
X03904Y06092D02*
X03911Y06099D01*
X03904Y06082D02*
Y06092D01*
Y06082D02*
X03922Y06064D01*
Y06054D02*
Y06064D01*
X03915Y06047D02*
X03922Y06054D01*
X03905Y06047D02*
X03915D01*
X03887Y06065D02*
X03905Y06047D01*
X03877Y06065D02*
X03887D01*
X0387Y06058D02*
X03877Y06065D01*
X0387Y06048D02*
Y06058D01*
Y06048D02*
X03888Y0603D01*
Y0602D02*
Y0603D01*
X03881Y06013D02*
X03888Y0602D01*
X03871Y06013D02*
X03881D01*
X03853Y06031D02*
X03871Y06013D01*
X03843Y06031D02*
X03853D01*
X03836Y06024D02*
X03843Y06031D01*
X03836Y06014D02*
Y06024D01*
Y06014D02*
X03854Y05996D01*
Y05986D02*
Y05996D01*
X03847Y05979D02*
X03854Y05986D01*
X03837Y05979D02*
X03847D01*
X03819Y05997D02*
X03837Y05979D01*
X03809Y05997D02*
X03819D01*
X03802Y0599D02*
X03809Y05997D01*
X03802Y0598D02*
Y0599D01*
Y0598D02*
X03811Y05971D01*
Y05961D02*
Y05971D01*
X03804Y05954D02*
X03811Y05961D01*
X03794Y05954D02*
X03804D01*
X03785Y05963D02*
X03794Y05954D01*
X03775Y05963D02*
X03785D01*
X03768Y05956D02*
X03775Y05963D01*
X03768Y05946D02*
Y05956D01*
Y05946D02*
X03777Y05937D01*
Y05927D02*
Y05937D01*
X0377Y0592D02*
X03777Y05927D01*
X0376Y0592D02*
X0377D01*
X03751Y05929D02*
X0376Y0592D01*
X03741Y05929D02*
X03751D01*
X03734Y05922D02*
X03741Y05929D01*
X03734Y05912D02*
Y05922D01*
Y05912D02*
X03743Y05903D01*
Y05893D02*
Y05903D01*
X03737Y05886D02*
X03743Y05893D01*
X03726Y05886D02*
X03737D01*
X03717Y05895D02*
X03726Y05886D01*
X03707Y05895D02*
X03717D01*
X037Y05888D02*
X03707Y05895D01*
X037Y05878D02*
Y05888D01*
Y05878D02*
X03709Y05869D01*
Y05859D02*
Y05869D01*
X03703Y05852D02*
X03709Y05859D01*
X03692Y05852D02*
X03703D01*
X03683Y05861D02*
X03692Y05852D01*
X03673Y05861D02*
X03683D01*
X03666Y05854D02*
X03673Y05861D01*
X03666Y05844D02*
Y05854D01*
Y05844D02*
X03675Y05835D01*
Y05825D02*
Y05835D01*
X03669Y05818D02*
X03675Y05825D01*
X03658Y05818D02*
X03669D01*
X03649Y05827D02*
X03658Y05818D01*
X03639Y05827D02*
X03649D01*
X03632Y05821D02*
X03639Y05827D01*
X03632Y0581D02*
Y05821D01*
Y0581D02*
X03641Y05801D01*
Y05791D02*
Y05801D01*
X03635Y05784D02*
X03641Y05791D01*
X03624Y05784D02*
X03635D01*
X03615Y05793D02*
X03624Y05784D01*
X03605Y05793D02*
X03615D01*
X03598Y05787D02*
X03605Y05793D01*
X03598Y05776D02*
Y05787D01*
Y05776D02*
X03608Y05767D01*
Y05757D02*
Y05767D01*
X03601Y0575D02*
X03608Y05757D01*
X03591Y0575D02*
X03601D01*
X03581Y05759D02*
X03591Y0575D01*
X03571Y05759D02*
X03581D01*
X03564Y05753D02*
X03571Y05759D01*
X03564Y05742D02*
Y05753D01*
Y05742D02*
X03574Y05733D01*
Y05723D02*
Y05733D01*
X03567Y05716D02*
X03574Y05723D01*
X03557Y05716D02*
X03567D01*
X03547Y05725D02*
X03557Y05716D01*
X03537Y05725D02*
X03547D01*
X0353Y05719D02*
X03537Y05725D01*
X0353Y05709D02*
Y05719D01*
Y05709D02*
X03549Y0569D01*
Y0568D02*
Y0569D01*
X03542Y05673D02*
X03549Y0568D01*
X03532Y05673D02*
X03542D01*
X03514Y05692D02*
X03532Y05673D01*
X03503Y05692D02*
X03514D01*
X03497Y05685D02*
X03503Y05692D01*
X03497Y05675D02*
Y05685D01*
Y05675D02*
X03501Y05671D01*
Y0566D02*
Y05671D01*
X03499Y05659D02*
X03501Y0566D01*
X04145Y06305D02*
X04155Y06315D01*
X02928Y05088D02*
X03499Y05659D01*
X03849Y0596D02*
X03867Y05978D01*
X03849Y0595D02*
Y0596D01*
Y0595D02*
X03853Y05946D01*
Y05936D02*
Y05946D01*
X03846Y05929D02*
X03853Y05936D01*
X03836Y05929D02*
X03846D01*
X03818Y05947D02*
X03836Y05929D01*
X03808Y05947D02*
X03818D01*
X03801Y0594D02*
X03808Y05947D01*
X03801Y0593D02*
Y0594D01*
Y0593D02*
X03819Y05912D01*
Y05902D02*
Y05912D01*
X03812Y05895D02*
X03819Y05902D01*
X03802Y05895D02*
X03812D01*
X03784Y05913D02*
X03802Y05895D01*
X03774Y05913D02*
X03784D01*
X03767Y05906D02*
X03774Y05913D01*
X03767Y05896D02*
Y05906D01*
Y05896D02*
X03785Y05878D01*
Y05868D02*
Y05878D01*
X03778Y05861D02*
X03785Y05868D01*
X03768Y05861D02*
X03778D01*
X0375Y05879D02*
X03768Y05861D01*
X0374Y05879D02*
X0375D01*
X03733Y05872D02*
X0374Y05879D01*
X03733Y05862D02*
Y05872D01*
Y05862D02*
X03751Y05844D01*
Y05834D02*
Y05844D01*
X03744Y05827D02*
X03751Y05834D01*
X03734Y05827D02*
X03744D01*
X03716Y05845D02*
X03734Y05827D01*
X03706Y05845D02*
X03716D01*
X03699Y05839D02*
X03706Y05845D01*
X03699Y05828D02*
Y05839D01*
Y05828D02*
X03717Y0581D01*
Y058D02*
Y0581D01*
X0371Y05793D02*
X03717Y058D01*
X037Y05793D02*
X0371D01*
X03682Y05811D02*
X037Y05793D01*
X03672Y05811D02*
X03682D01*
X03665Y05805D02*
X03672Y05811D01*
X03665Y05794D02*
Y05805D01*
Y05794D02*
X03683Y05776D01*
Y05766D02*
Y05776D01*
X03676Y05759D02*
X03683Y05766D01*
X03666Y05759D02*
X03676D01*
X03648Y05777D02*
X03666Y05759D01*
X03638Y05777D02*
X03648D01*
X03631Y05771D02*
X03638Y05777D01*
X03631Y0576D02*
Y05771D01*
Y0576D02*
X03649Y05742D01*
Y05732D02*
Y05742D01*
X03642Y05725D02*
X03649Y05732D01*
X03632Y05725D02*
X03642D01*
X03614Y05744D02*
X03632Y05725D01*
X03604Y05744D02*
X03614D01*
X03597Y05737D02*
X03604Y05744D01*
X03597Y05727D02*
Y05737D01*
Y05727D02*
X03615Y05708D01*
Y05698D02*
Y05708D01*
X03608Y05691D02*
X03615Y05698D01*
X03598Y05691D02*
X03608D01*
X0358Y0571D02*
X03598Y05691D01*
X0357Y0571D02*
X0358D01*
X03563Y05703D02*
X0357Y0571D01*
X03563Y05693D02*
Y05703D01*
Y05693D02*
X03567Y05689D01*
Y05678D02*
Y05689D01*
X03566Y05677D02*
X03567Y05678D01*
X03867Y05978D02*
X03878Y05989D01*
X02952Y05063D02*
X03566Y05677D01*
X04295Y06258D02*
X04307Y0627D01*
X04285Y06258D02*
X04295D01*
X04281Y06261D02*
X04285Y06258D01*
X04271Y06261D02*
X04281D01*
X04264Y06255D02*
X04271Y06261D01*
X04264Y06244D02*
Y06255D01*
Y06244D02*
X04282Y06226D01*
Y06216D02*
Y06226D01*
X04275Y06209D02*
X04282Y06216D01*
X04265Y06209D02*
X04275D01*
X04247Y06228D02*
X04265Y06209D01*
X04237Y06228D02*
X04247D01*
X0423Y06221D02*
X04237Y06228D01*
X0423Y06211D02*
Y06221D01*
Y06211D02*
X04248Y06192D01*
Y06182D02*
Y06192D01*
X04241Y06175D02*
X04248Y06182D01*
X04231Y06175D02*
X04241D01*
X04213Y06194D02*
X04231Y06175D01*
X04203Y06194D02*
X04213D01*
X04196Y06187D02*
X04203Y06194D01*
X04196Y06177D02*
Y06187D01*
Y06177D02*
X04214Y06159D01*
Y06148D02*
Y06159D01*
X04207Y06142D02*
X04214Y06148D01*
X04197Y06142D02*
X04207D01*
X04179Y0616D02*
X04197Y06142D01*
X04169Y0616D02*
X04179D01*
X04162Y06153D02*
X04169Y0616D01*
X04162Y06143D02*
Y06153D01*
Y06143D02*
X0418Y06125D01*
Y06114D02*
Y06125D01*
X04173Y06108D02*
X0418Y06114D01*
X04163Y06108D02*
X04173D01*
X04145Y06126D02*
X04163Y06108D01*
X04135Y06126D02*
X04145D01*
X04128Y06119D02*
X04135Y06126D01*
X04128Y06109D02*
Y06119D01*
Y06109D02*
X04146Y06091D01*
Y0608D02*
Y06091D01*
X04139Y06074D02*
X04146Y0608D01*
X04129Y06074D02*
X04139D01*
X04111Y06092D02*
X04129Y06074D01*
X04101Y06092D02*
X04111D01*
X04094Y06085D02*
X04101Y06092D01*
X04094Y06075D02*
Y06085D01*
Y06075D02*
X04112Y06057D01*
Y06047D02*
Y06057D01*
X04105Y0604D02*
X04112Y06047D01*
X04095Y0604D02*
X04105D01*
X04077Y06058D02*
X04095Y0604D01*
X04067Y06058D02*
X04077D01*
X0406Y06051D02*
X04067Y06058D01*
X0406Y06041D02*
Y06051D01*
Y06041D02*
X04078Y06023D01*
Y06013D02*
Y06023D01*
X04071Y06006D02*
X04078Y06013D01*
X04061Y06006D02*
X04071D01*
X04043Y06024D02*
X04061Y06006D01*
X04033Y06024D02*
X04043D01*
X04026Y06017D02*
X04033Y06024D01*
X04026Y06007D02*
Y06017D01*
Y06007D02*
X0403Y06003D01*
Y05993D02*
Y06003D01*
X04029Y05991D02*
X0403Y05993D01*
X04026Y05989D02*
X04029Y05991D01*
X04659Y06179D02*
X04662D01*
X04192Y05566D02*
Y05713D01*
X0339Y04799D02*
X03434D01*
X03465Y04829*
X0336Y04758D02*
X03389D01*
X03417Y04786*
X03447*
X03465Y04829D02*
Y04839D01*
X04192Y05566*
X03472Y04811D02*
Y04836D01*
X03447Y04786D02*
X03472Y04811D01*
X04834Y06117D02*
X04834D01*
X04839Y06121*
X03294Y0483D02*
X0366Y05197D01*
X03297Y04823D02*
X03667Y05194D01*
X03232Y0483D02*
X03294D01*
X03235Y04823D02*
X03297D01*
X03667Y05194D02*
Y05269D01*
X04667Y06186D02*
X0467Y06188D01*
X04662Y06179D02*
X04667Y06184D01*
Y06186*
X0467Y06188D02*
X04865D01*
X04415Y06247D02*
X0443Y06263D01*
X04405Y06247D02*
X04415D01*
X04401Y06251D02*
X04405Y06247D01*
X04391Y06251D02*
X04401D01*
X04384Y06245D02*
X04391Y06251D01*
X04384Y06234D02*
Y06245D01*
Y06234D02*
X04402Y06216D01*
Y06206D02*
Y06216D01*
X04395Y06199D02*
X04402Y06206D01*
X04385Y06199D02*
X04395D01*
X04367Y06217D02*
X04385Y06199D01*
X04357Y06217D02*
X04367D01*
X0435Y06211D02*
X04357Y06217D01*
X0435Y062D02*
Y06211D01*
Y062D02*
X04368Y06182D01*
Y06172D02*
Y06182D01*
X04362Y06165D02*
X04368Y06172D01*
X04351Y06165D02*
X04362D01*
X04333Y06184D02*
X04351Y06165D01*
X04323Y06184D02*
X04333D01*
X04316Y06177D02*
X04323Y06184D01*
X04316Y06167D02*
Y06177D01*
Y06167D02*
X04334Y06148D01*
Y06138D02*
Y06148D01*
X04328Y06131D02*
X04334Y06138D01*
X04317Y06131D02*
X04328D01*
X04299Y0615D02*
X04317Y06131D01*
X04289Y0615D02*
X04299D01*
X04282Y06143D02*
X04289Y0615D01*
X04282Y06133D02*
Y06143D01*
Y06133D02*
X043Y06114D01*
Y06104D02*
Y06114D01*
X04294Y06098D02*
X043Y06104D01*
X04283Y06098D02*
X04294D01*
X04265Y06116D02*
X04283Y06098D01*
X04255Y06116D02*
X04265D01*
X04248Y06109D02*
X04255Y06116D01*
X04248Y06099D02*
Y06109D01*
Y06099D02*
X04266Y06081D01*
Y0607D02*
Y06081D01*
X0426Y06064D02*
X04266Y0607D01*
X0425Y06064D02*
X0426D01*
X04231Y06082D02*
X0425Y06064D01*
X04221Y06082D02*
X04231D01*
X04214Y06075D02*
X04221Y06082D01*
X04214Y06065D02*
Y06075D01*
Y06065D02*
X04233Y06047D01*
Y06036D02*
Y06047D01*
X04226Y0603D02*
X04233Y06036D01*
X04216Y0603D02*
X04226D01*
X04197Y06048D02*
X04216Y0603D01*
X04187Y06048D02*
X04197D01*
X04181Y06041D02*
X04187Y06048D01*
X04181Y06031D02*
Y06041D01*
Y06031D02*
X04199Y06013D01*
Y06002D02*
Y06013D01*
X04192Y05996D02*
X04199Y06002D01*
X04182Y05996D02*
X04192D01*
X04164Y06014D02*
X04182Y05996D01*
X04153Y06014D02*
X04164D01*
X04147Y06007D02*
X04153Y06014D01*
X04147Y05997D02*
Y06007D01*
Y05997D02*
X04165Y05979D01*
Y05969D02*
Y05979D01*
X04158Y05962D02*
X04165Y05969D01*
X04148Y05962D02*
X04158D01*
X0413Y0598D02*
X04148Y05962D01*
X04119Y0598D02*
X0413D01*
X04113Y05973D02*
X04119Y0598D01*
X04113Y05963D02*
Y05973D01*
Y05963D02*
X04131Y05945D01*
Y05935D02*
Y05945D01*
X04124Y05928D02*
X04131Y05935D01*
X04114Y05928D02*
X04124D01*
X04096Y05946D02*
X04114Y05928D01*
X04085Y05946D02*
X04096D01*
X04079Y05939D02*
X04085Y05946D01*
X04079Y05929D02*
Y05939D01*
Y05929D02*
X04097Y05911D01*
Y05901D02*
Y05911D01*
X0409Y05894D02*
X04097Y05901D01*
X0408Y05894D02*
X0409D01*
X04062Y05912D02*
X0408Y05894D01*
X04052Y05912D02*
X04062D01*
X04045Y05905D02*
X04052Y05912D01*
X04045Y05895D02*
Y05905D01*
Y05895D02*
X04063Y05877D01*
Y05867D02*
Y05877D01*
X04056Y0586D02*
X04063Y05867D01*
X04046Y0586D02*
X04056D01*
X04028Y05878D02*
X04046Y0586D01*
X04018Y05878D02*
X04028D01*
X04011Y05871D02*
X04018Y05878D01*
X04011Y05861D02*
Y05871D01*
Y05861D02*
X04029Y05843D01*
Y05833D02*
Y05843D01*
X04022Y05826D02*
X04029Y05833D01*
X04012Y05826D02*
X04022D01*
X03994Y05844D02*
X04012Y05826D01*
X03984Y05844D02*
X03994D01*
X03977Y05837D02*
X03984Y05844D01*
X03977Y05827D02*
Y05837D01*
Y05827D02*
X03995Y05809D01*
Y05799D02*
Y05809D01*
X03988Y05792D02*
X03995Y05799D01*
X03978Y05792D02*
X03988D01*
X0396Y0581D02*
X03978Y05792D01*
X0395Y0581D02*
X0396D01*
X03943Y05803D02*
X0395Y0581D01*
X03943Y05793D02*
Y05803D01*
Y05793D02*
X03961Y05775D01*
Y05765D02*
Y05775D01*
X03954Y05758D02*
X03961Y05765D01*
X03944Y05758D02*
X03954D01*
X03926Y05776D02*
X03944Y05758D01*
X03916Y05776D02*
X03926D01*
X03909Y05769D02*
X03916Y05776D01*
X03909Y05759D02*
Y05769D01*
Y05759D02*
X03927Y05741D01*
Y05731D02*
Y05741D01*
X0392Y05724D02*
X03927Y05731D01*
X0391Y05724D02*
X0392D01*
X03892Y05742D02*
X0391Y05724D01*
X03882Y05742D02*
X03892D01*
X03875Y05735D02*
X03882Y05742D01*
X03875Y05725D02*
Y05735D01*
Y05725D02*
X03893Y05707D01*
Y05697D02*
Y05707D01*
X03886Y0569D02*
X03893Y05697D01*
X03876Y0569D02*
X03886D01*
X03858Y05708D02*
X03876Y0569D01*
X03848Y05708D02*
X03858D01*
X03841Y05702D02*
X03848Y05708D01*
X03841Y05691D02*
Y05702D01*
Y05691D02*
X03845Y05687D01*
Y05677D02*
Y05687D01*
X03844Y05676D02*
X03845Y05677D01*
X03653Y05486D02*
X03844Y05676D01*
X0335Y04758D02*
X0339Y04799D01*
X0452Y06209D02*
X04528Y06217D01*
X0451Y06209D02*
X0452D01*
X04507Y06212D02*
X0451Y06209D01*
X04496Y06212D02*
X04507D01*
X0449Y06206D02*
X04496Y06212D01*
X0449Y06195D02*
Y06206D01*
Y06195D02*
X04507Y06178D01*
Y06168D02*
Y06178D01*
X045Y06161D02*
X04507Y06168D01*
X0449Y06161D02*
X045D01*
X04472Y06179D02*
X0449Y06161D01*
X04462Y06179D02*
X04472D01*
X04455Y06173D02*
X04462Y06179D01*
X04455Y06162D02*
Y06173D01*
Y06162D02*
X04473Y06144D01*
Y06134D02*
Y06144D01*
X04466Y06127D02*
X04473Y06134D01*
X04456Y06127D02*
X04466D01*
X04438Y06145D02*
X04456Y06127D01*
X04428Y06145D02*
X04438D01*
X04421Y06139D02*
X04428Y06145D01*
X04421Y06129D02*
Y06139D01*
Y06129D02*
X04439Y0611D01*
Y061D02*
Y0611D01*
X04432Y06093D02*
X04439Y061D01*
X04422Y06093D02*
X04432D01*
X04404Y06112D02*
X04422Y06093D01*
X04394Y06112D02*
X04404D01*
X04387Y06105D02*
X04394Y06112D01*
X04387Y06095D02*
Y06105D01*
Y06095D02*
X04405Y06076D01*
Y06066D02*
Y06076D01*
X04398Y0606D02*
X04405Y06066D01*
X04388Y0606D02*
X04398D01*
X0437Y06078D02*
X04388Y0606D01*
X0436Y06078D02*
X0437D01*
X04353Y06071D02*
X0436Y06078D01*
X04353Y06061D02*
Y06071D01*
Y06061D02*
X04371Y06043D01*
Y06032D02*
Y06043D01*
X04364Y06026D02*
X04371Y06032D01*
X04354Y06026D02*
X04364D01*
X04336Y06044D02*
X04354Y06026D01*
X04326Y06044D02*
X04336D01*
X04319Y06037D02*
X04326Y06044D01*
X04319Y06027D02*
Y06037D01*
Y06027D02*
X04337Y06009D01*
Y05998D02*
Y06009D01*
X0433Y05992D02*
X04337Y05998D01*
X0432Y05992D02*
X0433D01*
X04302Y0601D02*
X0432Y05992D01*
X04292Y0601D02*
X04302D01*
X04285Y06003D02*
X04292Y0601D01*
X04285Y05993D02*
Y06003D01*
Y05993D02*
X04303Y05975D01*
Y05964D02*
Y05975D01*
X04296Y05958D02*
X04303Y05964D01*
X04286Y05958D02*
X04296D01*
X04268Y05976D02*
X04286Y05958D01*
X04258Y05976D02*
X04268D01*
X04251Y05969D02*
X04258Y05976D01*
X04251Y05959D02*
Y05969D01*
Y05959D02*
X04269Y05941D01*
Y05931D02*
Y05941D01*
X04262Y05924D02*
X04269Y05931D01*
X04252Y05924D02*
X04262D01*
X04234Y05942D02*
X04252Y05924D01*
X04224Y05942D02*
X04234D01*
X04217Y05935D02*
X04224Y05942D01*
X04217Y05925D02*
Y05935D01*
Y05925D02*
X04235Y05907D01*
Y05897D02*
Y05907D01*
X04228Y0589D02*
X04235Y05897D01*
X04218Y0589D02*
X04228D01*
X042Y05908D02*
X04218Y0589D01*
X0419Y05908D02*
X042D01*
X04183Y05901D02*
X0419Y05908D01*
X04183Y05891D02*
Y05901D01*
Y05891D02*
X04201Y05873D01*
Y05863D02*
Y05873D01*
X04194Y05856D02*
X04201Y05863D01*
X04184Y05856D02*
X04194D01*
X04166Y05874D02*
X04184Y05856D01*
X04156Y05874D02*
X04166D01*
X04149Y05867D02*
X04156Y05874D01*
X04149Y05857D02*
Y05867D01*
Y05857D02*
X04167Y05839D01*
Y05829D02*
Y05839D01*
X04161Y05822D02*
X04167Y05829D01*
X0415Y05822D02*
X04161D01*
X04132Y0584D02*
X0415Y05822D01*
X04122Y0584D02*
X04132D01*
X04115Y05833D02*
X04122Y0584D01*
X04115Y05823D02*
Y05833D01*
Y05823D02*
X04133Y05805D01*
Y05795D02*
Y05805D01*
X04127Y05788D02*
X04133Y05795D01*
X04116Y05788D02*
X04127D01*
X04098Y05806D02*
X04116Y05788D01*
X04088Y05806D02*
X04098D01*
X04081Y05799D02*
X04088Y05806D01*
X04081Y05789D02*
Y05799D01*
Y05789D02*
X04099Y05771D01*
Y05761D02*
Y05771D01*
X04093Y05754D02*
X04099Y05761D01*
X04082Y05754D02*
X04093D01*
X04064Y05772D02*
X04082Y05754D01*
X04054Y05772D02*
X04064D01*
X04047Y05765D02*
X04054Y05772D01*
X04047Y05755D02*
Y05765D01*
Y05755D02*
X04066Y05737D01*
Y05727D02*
Y05737D01*
X04059Y0572D02*
X04066Y05727D01*
X04049Y0572D02*
X04059D01*
X0403Y05738D02*
X04049Y0572D01*
X0402Y05738D02*
X0403D01*
X04013Y05731D02*
X0402Y05738D01*
X04013Y05721D02*
Y05731D01*
Y05721D02*
X04032Y05703D01*
Y05693D02*
Y05703D01*
X04025Y05686D02*
X04032Y05693D01*
X04015Y05686D02*
X04025D01*
X03997Y05704D02*
X04015Y05686D01*
X03986Y05704D02*
X03997D01*
X0398Y05697D02*
X03986Y05704D01*
X0398Y05687D02*
Y05697D01*
Y05687D02*
X03998Y05669D01*
Y05659D02*
Y05669D01*
X03991Y05652D02*
X03998Y05659D01*
X03981Y05652D02*
X03991D01*
X03963Y0567D02*
X03981Y05652D01*
X03952Y0567D02*
X03963D01*
X03946Y05664D02*
X03952Y0567D01*
X03946Y05653D02*
Y05664D01*
Y05653D02*
X03964Y05635D01*
Y05625D02*
Y05635D01*
X03957Y05618D02*
X03964Y05625D01*
X03947Y05618D02*
X03957D01*
X03929Y05636D02*
X03947Y05618D01*
X03918Y05636D02*
X03929D01*
X03912Y0563D02*
X03918Y05636D01*
X03912Y05619D02*
Y0563D01*
Y05619D02*
X0393Y05601D01*
Y05591D02*
Y05601D01*
X03923Y05584D02*
X0393Y05591D01*
X03913Y05584D02*
X03923D01*
X03895Y05602D02*
X03913Y05584D01*
X03885Y05602D02*
X03895D01*
X03878Y05596D02*
X03885Y05602D01*
X03878Y05585D02*
Y05596D01*
Y05585D02*
X03896Y05567D01*
Y05557D02*
Y05567D01*
X03889Y0555D02*
X03896Y05557D01*
X03879Y0555D02*
X03889D01*
X03861Y05568D02*
X03879Y0555D01*
X03851Y05568D02*
X03861D01*
X03844Y05562D02*
X03851Y05568D01*
X03844Y05552D02*
Y05562D01*
Y05552D02*
X03862Y05533D01*
Y05523D02*
Y05533D01*
X03855Y05516D02*
X03862Y05523D01*
X03845Y05516D02*
X03855D01*
X03827Y05535D02*
X03845Y05516D01*
X03817Y05535D02*
X03827D01*
X0381Y05528D02*
X03817Y05535D01*
X0381Y05518D02*
Y05528D01*
Y05518D02*
X03814Y05514D01*
Y05503D02*
Y05514D01*
X03812Y05502D02*
X03814Y05503D01*
X0366Y0535D02*
X03812Y05502D01*
X0443Y06263D02*
X04745D01*
X03653Y05268D02*
Y05486D01*
X04516Y06117D02*
X04595Y06196D01*
X04199Y05627D02*
X04735Y06163D01*
X03472Y04836D02*
X04199Y05563D01*
X03479Y04807D02*
Y04833D01*
X04199Y05563D02*
Y05627D01*
X04801Y06155D02*
X04833D01*
X04735Y06163D02*
X04861D01*
X0322Y04808D02*
X03235Y04823D01*
X03219Y04805D02*
X0322Y04806D01*
X0337Y04995D02*
X0338D01*
X03276Y04901D02*
X0337Y04995D01*
X03245Y04869D02*
X03276Y049D01*
X03244Y04869D02*
X03245D01*
X03109Y04837D02*
X03212D01*
X03244Y04869*
X04595Y06196D02*
X04838D01*
X0322Y04806D02*
Y04808D01*
X03276Y049D02*
Y04901D01*
X03179Y04778D02*
X03232Y0483D01*
X0366Y05197D02*
Y0535D01*
X04669Y06217D02*
X0483D01*
X04662Y06217D02*
X04669D01*
X04662Y06217D02*
X04662Y06217D01*
X04669D02*
X04669Y06217D01*
X0338Y04995D02*
X03653Y05268D01*
X04528Y06217D02*
X04662D01*
X03878Y05989D02*
X04026D01*
X04307Y0627D02*
X0483D01*
X04851Y06195D02*
X04862D01*
X0485Y06196D02*
X04851Y06195D01*
X04839Y06196D02*
X0485D01*
X0483Y0622D02*
X04865Y06255D01*
X04746Y06261D02*
X04833D01*
X04745Y06263D02*
X04746Y06261D01*
X04852Y06282D02*
X04928D01*
X04838Y06268D02*
X04852Y06282D01*
X04833Y06261D02*
X04838Y06266D01*
Y06268*
X04849Y06289D02*
X04925D01*
X0483Y0627D02*
X04849Y06289D01*
X05152Y05905D02*
X05162Y05915D01*
X05152Y05895D02*
Y05905D01*
Y05895D02*
X05156Y05891D01*
Y05881D02*
Y05891D01*
X05149Y05874D02*
X05156Y05881D01*
X05139Y05874D02*
X05149D01*
X05121Y05892D02*
X05139Y05874D01*
X05111Y05892D02*
X05121D01*
X05104Y05885D02*
X05111Y05892D01*
X05104Y05875D02*
Y05885D01*
Y05875D02*
X05108Y05871D01*
Y05861D02*
Y05871D01*
X05107Y05859D02*
X05108Y05861D01*
X05162Y05915D02*
X0521Y05962D01*
X03975Y04728D02*
X05107Y05859D01*
X04654Y05632D02*
X04676Y05654D01*
Y05664*
D01*
Y05675D01*
X04683Y05681*
X04693*
X04707Y05667*
X04717*
X04724Y05674*
Y05684*
X04708Y057D02*
X04724Y05684D01*
X04708Y057D02*
Y0571D01*
X04715Y05717*
X04725*
X04741Y05701*
X04751*
X04758Y05708*
Y05718*
X04742Y05734D02*
X04758Y05718D01*
X04742Y05734D02*
Y05744D01*
X04749Y05751*
X04759*
X04775Y05735*
X04785*
X04792Y05742*
Y05752*
X04788Y05756D02*
X04792Y05752D01*
X04788Y05756D02*
Y05766D01*
X04789Y05768*
X03726Y04704D02*
X04654Y05632D01*
X04789Y05768D02*
X05041Y06019D01*
X04336Y0672D02*
X04343Y06727D01*
X04336Y0671D02*
Y0672D01*
Y0671D02*
X04336Y0671D01*
Y067D02*
Y0671D01*
X04329Y06693D02*
X04336Y067D01*
X04319Y06693D02*
X04329D01*
X04305Y06707D02*
X04319Y06693D01*
X04295Y06707D02*
X04305D01*
X04288Y067D02*
X04295Y06707D01*
X04288Y0669D02*
Y067D01*
Y0669D02*
X04306Y06672D01*
Y06662D02*
Y06672D01*
X04299Y06655D02*
X04306Y06662D01*
X04289Y06655D02*
X04299D01*
X04271Y06673D02*
X04289Y06655D01*
X04261Y06673D02*
X04271D01*
X04254Y06666D02*
X04261Y06673D01*
X04254Y06656D02*
Y06666D01*
Y06656D02*
X04272Y06638D01*
Y06628D02*
Y06638D01*
X04265Y06621D02*
X04272Y06628D01*
X04255Y06621D02*
X04265D01*
X04237Y06639D02*
X04255Y06621D01*
X04227Y06639D02*
X04237D01*
X0422Y06632D02*
X04227Y06639D01*
X0422Y06622D02*
Y06632D01*
Y06622D02*
X04238Y06604D01*
Y06594D02*
Y06604D01*
X04232Y06587D02*
X04238Y06594D01*
X04221Y06587D02*
X04232D01*
X04203Y06605D02*
X04221Y06587D01*
X04193Y06605D02*
X04203D01*
X04186Y06599D02*
X04193Y06605D01*
X04186Y06588D02*
Y06599D01*
Y06588D02*
X04204Y0657D01*
Y0656D02*
Y0657D01*
X04198Y06553D02*
X04204Y0656D01*
X04187Y06553D02*
X04198D01*
X04169Y06571D02*
X04187Y06553D01*
X04159Y06571D02*
X04169D01*
X04152Y06565D02*
X04159Y06571D01*
X04152Y06554D02*
Y06565D01*
Y06554D02*
X04156Y0655D01*
Y0654D02*
Y0655D01*
X04155Y06539D02*
X04156Y0654D01*
X0282Y05203D02*
X04155Y06539D01*
X04807Y05698D02*
X04809Y057D01*
X04807Y05688D02*
Y05698D01*
Y05688D02*
X04811Y05684D01*
Y05674D02*
Y05684D01*
X04804Y05667D02*
X04811Y05674D01*
X04794Y05667D02*
X04804D01*
X04776Y05685D02*
X04794Y05667D01*
X04766Y05685D02*
X04776D01*
X04759Y05678D02*
X04766Y05685D01*
X04759Y05668D02*
Y05678D01*
Y05668D02*
X04777Y0565D01*
Y0564D02*
Y0565D01*
X0477Y05633D02*
X04777Y0564D01*
X0476Y05633D02*
X0477D01*
X04742Y05651D02*
X0476Y05633D01*
X04732Y05651D02*
X04742D01*
X04725Y05644D02*
X04732Y05651D01*
X04725Y05634D02*
Y05644D01*
Y05634D02*
X04743Y05616D01*
Y05606D02*
Y05616D01*
X04736Y05599D02*
X04743Y05606D01*
X04726Y05599D02*
X04736D01*
X04708Y05617D02*
X04726Y05599D01*
X04698Y05617D02*
X04708D01*
X04691Y0561D02*
X04698Y05617D01*
X04691Y056D02*
Y0561D01*
Y056D02*
X04709Y05582D01*
Y05572D02*
Y05582D01*
X04702Y05565D02*
X04709Y05572D01*
X04692Y05565D02*
X04702D01*
X04674Y05583D02*
X04692Y05565D01*
X04664Y05583D02*
X04674D01*
X04657Y05576D02*
X04664Y05583D01*
X04657Y05566D02*
Y05576D01*
Y05566D02*
X04675Y05548D01*
Y05538D02*
Y05548D01*
X04668Y05531D02*
X04675Y05538D01*
X04658Y05531D02*
X04668D01*
X0464Y05549D02*
X04658Y05531D01*
X0463Y05549D02*
X0464D01*
X04623Y05542D02*
X0463Y05549D01*
X04623Y05532D02*
Y05542D01*
Y05532D02*
X04627Y05528D01*
Y05518D02*
Y05528D01*
X04626Y05517D02*
X04627Y05518D01*
X04809Y057D02*
X05055Y05945D01*
X03757Y04648D02*
X04626Y05517D01*
X05028Y05872D02*
X05055Y05898D01*
X05018Y05872D02*
X05028D01*
X05015Y05875D02*
X05018Y05872D01*
X05004Y05875D02*
X05015D01*
X04998Y05868D02*
X05004Y05875D01*
X04998Y05858D02*
Y05868D01*
Y05858D02*
X05015Y0584D01*
Y0583D02*
Y0584D01*
X05008Y05823D02*
X05015Y0583D01*
X04998Y05823D02*
X05008D01*
X0498Y05842D02*
X04998Y05823D01*
X0497Y05842D02*
X0498D01*
X04963Y05835D02*
X0497Y05842D01*
X04963Y05825D02*
Y05835D01*
Y05825D02*
X04981Y05807D01*
Y05796D02*
Y05807D01*
X04974Y0579D02*
X04981Y05796D01*
X04964Y0579D02*
X04974D01*
X04946Y05808D02*
X04964Y0579D01*
X04936Y05808D02*
X04946D01*
X04929Y05801D02*
X04936Y05808D01*
X04929Y05791D02*
Y05801D01*
Y05791D02*
X04947Y05773D01*
Y05762D02*
Y05773D01*
X0494Y05756D02*
X04947Y05762D01*
X0493Y05756D02*
X0494D01*
X04912Y05774D02*
X0493Y05756D01*
X04902Y05774D02*
X04912D01*
X04895Y05767D02*
X04902Y05774D01*
X04895Y05757D02*
Y05767D01*
Y05757D02*
X04913Y05739D01*
Y05728D02*
Y05739D01*
X04906Y05722D02*
X04913Y05728D01*
X04896Y05722D02*
X04906D01*
X04878Y0574D02*
X04896Y05722D01*
X04868Y0574D02*
X04878D01*
X04861Y05733D02*
X04868Y0574D01*
X04861Y05723D02*
Y05733D01*
Y05723D02*
X04879Y05705D01*
Y05695D02*
Y05705D01*
X04873Y05688D02*
X04879Y05695D01*
X04862Y05688D02*
X04873D01*
X04844Y05706D02*
X04862Y05688D01*
X04834Y05706D02*
X04844D01*
X04827Y05699D02*
X04834Y05706D01*
X04827Y05689D02*
Y05699D01*
Y05689D02*
X04831Y05685D01*
Y05675D02*
Y05685D01*
X0483Y05673D02*
X04831Y05675D01*
X03625Y04469D02*
X0483Y05673D01*
X05016Y05949D02*
X05042Y05975D01*
X05006Y05949D02*
X05016D01*
X05004Y05951D02*
X05006Y05949D01*
X04993Y05951D02*
X05004D01*
X04987Y05944D02*
X04993Y05951D01*
X04987Y05934D02*
Y05944D01*
Y05934D02*
X05003Y05918D01*
Y05907D02*
Y05918D01*
X04996Y05901D02*
X05003Y05907D01*
X04986Y05901D02*
X04996D01*
X04968Y05919D02*
X04986Y05901D01*
X04958Y05919D02*
X04968D01*
X04951Y05912D02*
X04958Y05919D01*
X04951Y05902D02*
Y05912D01*
Y05902D02*
X04969Y05884D01*
Y05874D02*
Y05884D01*
X04962Y05867D02*
X04969Y05874D01*
X04952Y05867D02*
X04962D01*
X04934Y05885D02*
X04952Y05867D01*
X04924Y05885D02*
X04934D01*
X04917Y05878D02*
X04924Y05885D01*
X04917Y05868D02*
Y05878D01*
Y05868D02*
X04935Y0585D01*
Y0584D02*
Y0585D01*
X04928Y05833D02*
X04935Y0584D01*
X04918Y05833D02*
X04928D01*
X049Y05851D02*
X04918Y05833D01*
X0489Y05851D02*
X049D01*
X04883Y05844D02*
X0489Y05851D01*
X04883Y05834D02*
Y05844D01*
Y05834D02*
X04901Y05816D01*
Y05806D02*
Y05816D01*
X04894Y05799D02*
X04901Y05806D01*
X04884Y05799D02*
X04894D01*
X04866Y05817D02*
X04884Y05799D01*
X04856Y05817D02*
X04866D01*
X04849Y0581D02*
X04856Y05817D01*
X04849Y058D02*
Y0581D01*
Y058D02*
X04867Y05782D01*
Y05772D02*
Y05782D01*
X0486Y05765D02*
X04867Y05772D01*
X0485Y05765D02*
X0486D01*
X04832Y05783D02*
X0485Y05765D01*
X04822Y05783D02*
X04832D01*
X04815Y05776D02*
X04822Y05783D01*
X04815Y05766D02*
Y05776D01*
Y05766D02*
X04819Y05762D01*
Y05752D02*
Y05762D01*
X04818Y05751D02*
X04819Y05752D01*
X03764Y04697D02*
X04818Y05751D01*
X05042Y05975D02*
X05048Y0598D01*
X05055Y05898D02*
X05062Y05905D01*
X04806Y06632D02*
X0481D01*
X04799Y06639D02*
X04806Y06632D01*
X04799Y06639D02*
Y06645D01*
X04792Y06652D02*
X04799Y06645D01*
X04782Y06652D02*
X04792D01*
X04775Y06645D02*
X04782Y06652D01*
X04775Y06619D02*
Y06645D01*
X04768Y06612D02*
X04775Y06619D01*
X04758Y06612D02*
X04768D01*
X04751Y06619D02*
X04758Y06612D01*
X04751Y06619D02*
Y06645D01*
X04744Y06652D02*
X04751Y06645D01*
X04734Y06652D02*
X04744D01*
X04727Y06645D02*
X04734Y06652D01*
X04727Y06619D02*
Y06645D01*
X0472Y06612D02*
X04727Y06619D01*
X0471Y06612D02*
X0472D01*
X04703Y06619D02*
X0471Y06612D01*
X04703Y06619D02*
Y06645D01*
X04696Y06652D02*
X04703Y06645D01*
X04686Y06652D02*
X04696D01*
X04679Y06645D02*
X04686Y06652D01*
X04679Y06619D02*
Y06645D01*
X04672Y06612D02*
X04679Y06619D01*
X04662Y06612D02*
X04672D01*
X04655Y06619D02*
X04662Y06612D01*
X04655Y06619D02*
Y06645D01*
X04648Y06652D02*
X04655Y06645D01*
X04638Y06652D02*
X04648D01*
X04631Y06645D02*
X04638Y06652D01*
X04631Y06639D02*
Y06645D01*
X04624Y06632D02*
X04631Y06639D01*
X04614Y06632D02*
X04624D01*
X04607Y06639D02*
X04614Y06632D01*
X04607Y06639D02*
Y06645D01*
X046Y06652D02*
X04607Y06645D01*
X0459Y06652D02*
X046D01*
X04583Y06645D02*
X0459Y06652D01*
X04583Y06619D02*
Y06645D01*
X04576Y06612D02*
X04583Y06619D01*
X04566Y06612D02*
X04576D01*
X04559Y06619D02*
X04566Y06612D01*
X04559Y06619D02*
Y06645D01*
X04552Y06652D02*
X04559Y06645D01*
X04542Y06652D02*
X04552D01*
X04535Y06645D02*
X04542Y06652D01*
X04535Y06635D02*
Y06645D01*
X04528Y06628D02*
X04535Y06635D01*
X04518Y06628D02*
X04528D01*
X04511Y06635D02*
X04518Y06628D01*
X04511Y06635D02*
Y06645D01*
X04504Y06652D02*
X04511Y06645D01*
X04494Y06652D02*
X04504D01*
X04487Y06645D02*
X04494Y06652D01*
X04487Y06619D02*
Y06645D01*
X0448Y06612D02*
X04487Y06619D01*
X0447Y06612D02*
X0448D01*
X04463Y06619D02*
X0447Y06612D01*
X04463Y06619D02*
Y06645D01*
X04456Y06652D02*
X04463Y06645D01*
X04446Y06652D02*
X04456D01*
X04439Y06645D02*
X04446Y06652D01*
X04439Y06639D02*
Y06645D01*
X04432Y06632D02*
X04439Y06639D01*
X0443Y06632D02*
X04432D01*
X04334D02*
X0443D01*
X04933Y05975D02*
X04938Y05979D01*
X04923Y05975D02*
X04933D01*
X0492Y05977D02*
X04923Y05975D01*
X0491Y05977D02*
X0492D01*
X04904Y05971D02*
X0491Y05977D01*
X04904Y0596D02*
Y05971D01*
Y0596D02*
X04916Y05948D01*
Y05938D02*
Y05948D01*
X04909Y05931D02*
X04916Y05938D01*
X04899Y05931D02*
X04909D01*
X04887Y05943D02*
X04899Y05931D01*
X04876Y05943D02*
X04887D01*
X0487Y05937D02*
X04876Y05943D01*
X0487Y05926D02*
Y05937D01*
Y05926D02*
X04882Y05914D01*
Y05904D02*
Y05914D01*
X04875Y05897D02*
X04882Y05904D01*
X04865Y05897D02*
X04875D01*
X04853Y0591D02*
X04865Y05897D01*
X04842Y0591D02*
X04853D01*
X04836Y05903D02*
X04842Y0591D01*
X04836Y05893D02*
Y05903D01*
Y05893D02*
X04848Y0588D01*
Y0587D02*
Y0588D01*
X04841Y05863D02*
X04848Y0587D01*
X04831Y05863D02*
X04841D01*
X04819Y05876D02*
X04831Y05863D01*
X04808Y05876D02*
X04819D01*
X04802Y05869D02*
X04808Y05876D01*
X04802Y05859D02*
Y05869D01*
Y05859D02*
X04814Y05846D01*
Y05836D02*
Y05846D01*
X04807Y05829D02*
X04814Y05836D01*
X04797Y05829D02*
X04807D01*
X04785Y05842D02*
X04797Y05829D01*
X04775Y05842D02*
X04785D01*
X04768Y05835D02*
X04775Y05842D01*
X04768Y05825D02*
Y05835D01*
Y05825D02*
X04771Y05822D01*
Y05812D02*
Y05822D01*
X04769Y0581D02*
X04771Y05812D01*
X04938Y05979D02*
X05027Y06068D01*
X04063Y05104D02*
X04769Y0581D01*
X03695Y04736D02*
X03712Y04753D01*
Y04763*
X03708Y04767D02*
X03712Y04763D01*
X03708Y04767D02*
Y04777D01*
X03714Y04784*
X03725*
X03738Y0477*
X03749*
X03755Y04777*
Y04787*
X03744Y04798D02*
X03755Y04787D01*
X03744Y04798D02*
Y04808D01*
X03751Y04815*
X03761*
X03772Y04804*
X03783*
X03789Y04811*
Y04821*
X03776Y04835D02*
X03789Y04821D01*
X03776Y04835D02*
Y04845D01*
X03782Y04852*
X03793*
X03806Y04838*
X03816*
X03823Y04845*
Y04855*
X03812Y04866D02*
X03823Y04855D01*
X03812Y04866D02*
Y04876D01*
X03819Y04883*
X03829*
X0384Y04872*
X0385*
X03857Y04879*
Y04889*
X03843Y04903D02*
X03857Y04889D01*
X03843Y04903D02*
Y04913D01*
X0385Y0492*
X0386*
X03864Y04916*
X03875*
X03915Y04956*
Y04967*
X03911Y04971D02*
X03915Y04967D01*
X03911Y04971D02*
Y04981D01*
X03918Y04988*
X03928*
X03932Y04984*
X03942*
X03949Y0499*
Y05001*
X03945Y05004D02*
X03949Y05001D01*
X03945Y05004D02*
Y05015D01*
X03952Y05021*
X03962*
X03966Y05017*
X03976*
X03983Y05024*
Y05034*
X03979Y05038D02*
X03983Y05034D01*
X03979Y05038D02*
Y05049D01*
X03986Y05055*
X03996*
X04Y05051*
X0401*
X04063Y05104*
X04746Y05823D02*
X04754Y05831D01*
X04746Y05813D02*
Y05823D01*
Y05813D02*
X04749Y0581D01*
Y058D02*
Y0581D01*
X04742Y05793D02*
X04749Y058D01*
X04732Y05793D02*
X04742D01*
X04728Y05797D02*
X04732Y05793D01*
X04718Y05797D02*
X04728D01*
X04711Y0579D02*
X04718Y05797D01*
X04711Y0578D02*
Y0579D01*
Y0578D02*
X04715Y05776D01*
Y05766D02*
Y05776D01*
X04708Y05759D02*
X04715Y05766D01*
X04698Y05759D02*
X04708D01*
X04694Y05763D02*
X04698Y05759D01*
X04684Y05763D02*
X04694D01*
X04677Y05756D02*
X04684Y05763D01*
X04677Y05746D02*
Y05756D01*
Y05746D02*
X04681Y05742D01*
Y05732D02*
Y05742D01*
X04674Y05725D02*
X04681Y05732D01*
X04664Y05725D02*
X04674D01*
X0466Y05729D02*
X04664Y05725D01*
X0465Y05729D02*
X0466D01*
X04643Y05722D02*
X0465Y05729D01*
X04643Y05712D02*
Y05722D01*
Y05712D02*
X04647Y05708D01*
Y05698D02*
Y05708D01*
X0464Y05691D02*
X04647Y05698D01*
X0463Y05691D02*
X0464D01*
X04627Y05695D02*
X0463Y05691D01*
X04616Y05695D02*
X04627D01*
X0461Y05688D02*
X04616Y05695D01*
X0461Y05678D02*
Y05688D01*
Y05678D02*
X04613Y05674D01*
Y05664D02*
Y05674D01*
X04607Y05658D02*
X04613Y05664D01*
X04596Y05658D02*
X04607D01*
X04593Y05661D02*
X04596Y05658D01*
X04582Y05661D02*
X04593D01*
X04576Y05654D02*
X04582Y05661D01*
X04576Y05644D02*
Y05654D01*
Y05644D02*
X04579Y05641D01*
Y0563D02*
Y05641D01*
X04573Y05624D02*
X04579Y0563D01*
X04562Y05624D02*
X04573D01*
X04559Y05627D02*
X04562Y05624D01*
X04548Y05627D02*
X04559D01*
X04542Y05621D02*
X04548Y05627D01*
X04542Y0561D02*
Y05621D01*
Y0561D02*
X04545Y05607D01*
Y05596D02*
Y05607D01*
X04539Y0559D02*
X04545Y05596D01*
X04528Y0559D02*
X04539D01*
X04525Y05593D02*
X04528Y0559D01*
X04515Y05593D02*
X04525D01*
X04508Y05587D02*
X04515Y05593D01*
X04508Y05576D02*
Y05587D01*
Y05576D02*
X04511Y05573D01*
Y05562D02*
Y05573D01*
X04505Y05556D02*
X04511Y05562D01*
X04495Y05556D02*
X04505D01*
X04491Y05559D02*
X04495Y05556D01*
X04481Y05559D02*
X04491D01*
X04474Y05553D02*
X04481Y05559D01*
X04474Y05542D02*
Y05553D01*
Y05542D02*
X04478Y05539D01*
Y05529D02*
Y05539D01*
X04471Y05522D02*
X04478Y05529D01*
X04461Y05522D02*
X04471D01*
X04457Y05525D02*
X04461Y05522D01*
X04447Y05525D02*
X04457D01*
X0444Y05519D02*
X04447Y05525D01*
X0444Y05509D02*
Y05519D01*
Y05509D02*
X04444Y05505D01*
Y05495D02*
Y05505D01*
X04437Y05488D02*
X04444Y05495D01*
X04427Y05488D02*
X04437D01*
X04423Y05492D02*
X04427Y05488D01*
X04413Y05492D02*
X04423D01*
X04406Y05485D02*
X04413Y05492D01*
X04406Y05475D02*
Y05485D01*
Y05475D02*
X0441Y05471D01*
Y05461D02*
Y05471D01*
X04403Y05454D02*
X0441Y05461D01*
X04393Y05454D02*
X04403D01*
X04389Y05458D02*
X04393Y05454D01*
X04379Y05458D02*
X04389D01*
X04372Y05451D02*
X04379Y05458D01*
X04372Y05441D02*
Y05451D01*
Y05441D02*
X04376Y05437D01*
Y05427D02*
Y05437D01*
X04369Y0542D02*
X04376Y05427D01*
X04359Y0542D02*
X04369D01*
X04355Y05424D02*
X04359Y0542D01*
X04345Y05424D02*
X04355D01*
X04338Y05417D02*
X04345Y05424D01*
X04338Y05407D02*
Y05417D01*
Y05407D02*
X04342Y05403D01*
Y05393D02*
Y05403D01*
X04335Y05386D02*
X04342Y05393D01*
X04325Y05386D02*
X04335D01*
X04321Y0539D02*
X04325Y05386D01*
X04311Y0539D02*
X04321D01*
X04304Y05383D02*
X04311Y0539D01*
X04304Y05373D02*
Y05383D01*
Y05373D02*
X04308Y05369D01*
Y05359D02*
Y05369D01*
X04301Y05352D02*
X04308Y05359D01*
X04291Y05352D02*
X04301D01*
X04287Y05356D02*
X04291Y05352D01*
X04277Y05356D02*
X04287D01*
X0427Y05349D02*
X04277Y05356D01*
X0427Y05339D02*
Y05349D01*
Y05339D02*
X04274Y05335D01*
Y05325D02*
Y05335D01*
X04267Y05318D02*
X04274Y05325D01*
X04257Y05318D02*
X04267D01*
X04253Y05322D02*
X04257Y05318D01*
X04243Y05322D02*
X04253D01*
X04236Y05315D02*
X04243Y05322D01*
X04236Y05305D02*
Y05315D01*
Y05305D02*
X0424Y05301D01*
Y05291D02*
Y05301D01*
X04233Y05284D02*
X0424Y05291D01*
X04223Y05284D02*
X04233D01*
X04219Y05288D02*
X04223Y05284D01*
X04209Y05288D02*
X04219D01*
X04202Y05281D02*
X04209Y05288D01*
X04202Y05271D02*
Y05281D01*
Y05271D02*
X04206Y05267D01*
Y05257D02*
Y05267D01*
X04199Y0525D02*
X04206Y05257D01*
X04189Y0525D02*
X04199D01*
X04185Y05254D02*
X04189Y0525D01*
X04175Y05254D02*
X04185D01*
X04168Y05247D02*
X04175Y05254D01*
X04168Y05237D02*
Y05247D01*
Y05237D02*
X04172Y05233D01*
Y05223D02*
Y05233D01*
X04165Y05216D02*
X04172Y05223D01*
X04155Y05216D02*
X04165D01*
X04141Y05231D02*
X04155Y05216D01*
X04131Y05231D02*
X04141D01*
X04124Y05224D02*
X04131Y05231D01*
X04124Y05214D02*
Y05224D01*
Y05214D02*
X04138Y05199D01*
Y05189D02*
Y05199D01*
X04131Y05182D02*
X04138Y05189D01*
X04121Y05182D02*
X04131D01*
X04107Y05197D02*
X04121Y05182D01*
X04097Y05197D02*
X04107D01*
X0409Y0519D02*
X04097Y05197D01*
X0409Y0518D02*
Y0519D01*
Y0518D02*
X04104Y05165D01*
Y05155D02*
Y05165D01*
X04097Y05148D02*
X04104Y05155D01*
X04087Y05148D02*
X04097D01*
X04073Y05163D02*
X04087Y05148D01*
X04063Y05163D02*
X04073D01*
X04056Y05156D02*
X04063Y05163D01*
X04056Y05146D02*
Y05156D01*
Y05146D02*
X0407Y05131D01*
Y05121D02*
Y05131D01*
X04063Y05114D02*
X0407Y05121D01*
X04053Y05114D02*
X04063D01*
X0405Y05117D02*
X04053Y05114D01*
X0404Y05117D02*
X0405D01*
X04022Y05099D02*
X0404Y05117D01*
X04754Y05831D02*
X0502Y06097D01*
X04021Y05098D02*
X04022Y05099D01*
X04301Y05313D02*
X04308Y0532D01*
X04301Y05302D02*
Y05313D01*
Y05302D02*
X04303Y05301D01*
Y05291D02*
Y05301D01*
X04296Y05284D02*
X04303Y05291D01*
X04286Y05284D02*
X04296D01*
X04274Y05295D02*
X04286Y05284D01*
X04264Y05295D02*
X04274D01*
X04257Y05288D02*
X04264Y05295D01*
X04257Y05278D02*
Y05288D01*
Y05278D02*
X04269Y05267D01*
Y05257D02*
Y05267D01*
X04262Y0525D02*
X04269Y05257D01*
X04252Y0525D02*
X04262D01*
X0424Y05261D02*
X04252Y0525D01*
X0423Y05261D02*
X0424D01*
X04223Y05255D02*
X0423Y05261D01*
X04223Y05244D02*
Y05255D01*
Y05244D02*
X04235Y05233D01*
Y05223D02*
Y05233D01*
X04228Y05216D02*
X04235Y05223D01*
X04218Y05216D02*
X04228D01*
X04206Y05227D02*
X04218Y05216D01*
X04196Y05227D02*
X04206D01*
X04189Y05221D02*
X04196Y05227D01*
X04189Y0521D02*
Y05221D01*
Y0521D02*
X04201Y05199D01*
Y05189D02*
Y05199D01*
X04194Y05182D02*
X04201Y05189D01*
X04184Y05182D02*
X04194D01*
X04172Y05193D02*
X04184Y05182D01*
X04162Y05193D02*
X04172D01*
X04155Y05187D02*
X04162Y05193D01*
X04155Y05176D02*
Y05187D01*
Y05176D02*
X04167Y05165D01*
Y05155D02*
Y05165D01*
X0416Y05148D02*
X04167Y05155D01*
X0415Y05148D02*
X0416D01*
X04138Y05159D02*
X0415Y05148D01*
X04128Y05159D02*
X04138D01*
X04122Y05153D02*
X04128Y05159D01*
X04122Y05143D02*
Y05153D01*
Y05143D02*
X04133Y05131D01*
Y05121D02*
Y05131D01*
X04126Y05114D02*
X04133Y05121D01*
X04116Y05114D02*
X04126D01*
X04105Y05126D02*
X04116Y05114D01*
X04094Y05126D02*
X04105D01*
X04088Y05119D02*
X04094Y05126D01*
X04088Y05109D02*
Y05119D01*
Y05109D02*
X04099Y05097D01*
Y05087D02*
Y05097D01*
X04092Y0508D02*
X04099Y05087D01*
X04082Y0508D02*
X04092D01*
X04071Y05092D02*
X04082Y0508D01*
X0406Y05092D02*
X04071D01*
X04054Y05085D02*
X0406Y05092D01*
X04054Y05075D02*
Y05085D01*
Y05075D02*
X04065Y05063D01*
Y05053D02*
Y05063D01*
X04058Y05046D02*
X04065Y05053D01*
X04048Y05046D02*
X04058D01*
X04037Y05058D02*
X04048Y05046D01*
X04026Y05058D02*
X04037D01*
X0402Y05051D02*
X04026Y05058D01*
X0402Y05041D02*
Y05051D01*
Y05041D02*
X04031Y05029D01*
Y05019D02*
Y05029D01*
X04024Y05012D02*
X04031Y05019D01*
X04014Y05012D02*
X04024D01*
X04003Y05024D02*
X04014Y05012D01*
X03993Y05024D02*
X04003D01*
X03986Y05017D02*
X03993Y05024D01*
X03986Y05007D02*
Y05017D01*
Y05007D02*
X03997Y04995D01*
Y04985D02*
Y04995D01*
X0399Y04978D02*
X03997Y04985D01*
X0398Y04978D02*
X0399D01*
X03969Y0499D02*
X0398Y04978D01*
X03959Y0499D02*
X03969D01*
X03952Y04983D02*
X03959Y0499D01*
X03952Y04973D02*
Y04983D01*
Y04973D02*
X03963Y04961D01*
Y04951D02*
Y04961D01*
X03956Y04944D02*
X03963Y04951D01*
X03946Y04944D02*
X03956D01*
X03935Y04956D02*
X03946Y04944D01*
X03925Y04956D02*
X03935D01*
X03918Y04949D02*
X03925Y04956D01*
X03918Y04939D02*
Y04949D01*
Y04939D02*
X03929Y04927D01*
Y04917D02*
Y04927D01*
X03922Y0491D02*
X03929Y04917D01*
X03912Y0491D02*
X03922D01*
X03901Y04922D02*
X03912Y0491D01*
X03891Y04922D02*
X03901D01*
X03884Y04915D02*
X03891Y04922D01*
X03884Y04905D02*
Y04915D01*
Y04905D02*
X03895Y04894D01*
Y04883D02*
Y04894D01*
X03889Y04877D02*
X03895Y04883D01*
X03878Y04877D02*
X03889D01*
X03877Y04878D02*
X03878Y04877D01*
X03867Y04878D02*
X03877D01*
X03848Y0486D02*
X03867Y04878D01*
X04308Y0532D02*
X05034Y06045D01*
X03724Y04736D02*
X03848Y0486D01*
X0481Y06632D02*
X04887Y0671D01*
X02992Y0529D02*
X04334Y06632D01*
X02928Y04822D02*
Y05088D01*
X04155Y06315D02*
X04765D01*
X02992Y05283D02*
Y0529D01*
X02912Y04803D02*
Y05143D01*
X03441Y05671D02*
Y05677D01*
X03214Y05444D02*
X03441Y05671D01*
X02912Y05143D02*
X03213Y05444D01*
X03214*
X04188Y06424D02*
X04641D01*
X02832Y05123D02*
X02992Y05283D01*
X04343Y06727D02*
X04935D01*
X0282Y04458D02*
Y05203D01*
X02832Y04496D02*
Y05123D01*
X02813Y04453D02*
Y053D01*
X04262Y0675D02*
X04957D01*
X02813Y053D02*
X04262Y0675D01*
X02952Y04876D02*
Y05063D01*
X04961Y06071D02*
X04965Y06075D01*
X04961Y06061D02*
Y06071D01*
Y06061D02*
X04962Y06061D01*
Y0605D02*
Y06061D01*
X04955Y06044D02*
X04962Y0605D01*
X04945Y06044D02*
X04955D01*
X04941Y06047D02*
X04945Y06044D01*
X04931Y06047D02*
X04941D01*
X04924Y0604D02*
X04931Y06047D01*
X04924Y0603D02*
Y0604D01*
Y0603D02*
X04928Y06027D01*
Y06017D02*
Y06027D01*
X04921Y0601D02*
X04928Y06017D01*
X04911Y0601D02*
X04921D01*
X04907Y06013D02*
X04911Y0601D01*
X04897Y06013D02*
X04907D01*
X0489Y06006D02*
X04897Y06013D01*
X0489Y05996D02*
Y06006D01*
Y05996D02*
X04894Y05993D01*
Y05983D02*
Y05993D01*
X04887Y05976D02*
X04894Y05983D01*
X04877Y05976D02*
X04887D01*
X04873Y05979D02*
X04877Y05976D01*
X04863Y05979D02*
X04873D01*
X04856Y05973D02*
X04863Y05979D01*
X04856Y05962D02*
Y05973D01*
Y05962D02*
X0486Y05959D01*
Y05949D02*
Y05959D01*
X04853Y05942D02*
X0486Y05949D01*
X04843Y05942D02*
X04853D01*
X04839Y05945D02*
X04843Y05942D01*
X04829Y05945D02*
X04839D01*
X04822Y05939D02*
X04829Y05945D01*
X04822Y05928D02*
Y05939D01*
Y05928D02*
X04826Y05925D01*
Y05915D02*
Y05925D01*
X04819Y05908D02*
X04826Y05915D01*
X04809Y05908D02*
X04819D01*
X04805Y05911D02*
X04809Y05908D01*
X04795Y05911D02*
X04805D01*
X04789Y05905D02*
X04795Y05911D01*
X04789Y05894D02*
Y05905D01*
Y05894D02*
X04792Y05891D01*
Y05881D02*
Y05891D01*
X04785Y05874D02*
X04792Y05881D01*
X04775Y05874D02*
X04785D01*
X04772Y05877D02*
X04775Y05874D01*
X04761Y05877D02*
X04772D01*
X04755Y05871D02*
X04761Y05877D01*
X04755Y05861D02*
Y05871D01*
Y05861D02*
X04758Y05857D01*
Y05847D02*
Y05857D01*
X04751Y0584D02*
X04758Y05847D01*
X04741Y0584D02*
X04751D01*
X04738Y05844D02*
X04741Y0584D01*
X04727Y05844D02*
X04738D01*
X04721Y05837D02*
X04727Y05844D01*
X04721Y05827D02*
Y05837D01*
Y05827D02*
X04724Y05823D01*
Y05813D02*
Y05823D01*
X04717Y05806D02*
X04724Y05813D01*
X04707Y05806D02*
X04717D01*
X04704Y0581D02*
X04707Y05806D01*
X04693Y0581D02*
X04704D01*
X04687Y05803D02*
X04693Y0581D01*
X04687Y05793D02*
Y05803D01*
Y05793D02*
X0469Y05789D01*
Y05779D02*
Y05789D01*
X04683Y05772D02*
X0469Y05779D01*
X04673Y05772D02*
X04683D01*
X0467Y05776D02*
X04673Y05772D01*
X0466Y05776D02*
X0467D01*
X04653Y05769D02*
X0466Y05776D01*
X04653Y05759D02*
Y05769D01*
Y05759D02*
X04656Y05755D01*
Y05745D02*
Y05755D01*
X04649Y05738D02*
X04656Y05745D01*
X04639Y05738D02*
X04649D01*
X04636Y05742D02*
X04639Y05738D01*
X04626Y05742D02*
X04636D01*
X04619Y05735D02*
X04626Y05742D01*
X04619Y05725D02*
Y05735D01*
Y05725D02*
X04622Y05721D01*
Y05711D02*
Y05721D01*
X04616Y05704D02*
X04622Y05711D01*
X04605Y05704D02*
X04616D01*
X04602Y05708D02*
X04605Y05704D01*
X04592Y05708D02*
X04602D01*
X04585Y05701D02*
X04592Y05708D01*
X04585Y05691D02*
Y05701D01*
Y05691D02*
X04588Y05687D01*
Y05677D02*
Y05687D01*
X04582Y0567D02*
X04588Y05677D01*
X04571Y0567D02*
X04582D01*
X04568Y05674D02*
X04571Y0567D01*
X04558Y05674D02*
X04568D01*
X04551Y05667D02*
X04558Y05674D01*
X04551Y05657D02*
Y05667D01*
Y05657D02*
X04554Y05653D01*
Y05643D02*
Y05653D01*
X04548Y05636D02*
X04554Y05643D01*
X04537Y05636D02*
X04548D01*
X04534Y0564D02*
X04537Y05636D01*
X04524Y0564D02*
X04534D01*
X04517Y05633D02*
X04524Y0564D01*
X04517Y05623D02*
Y05633D01*
Y05623D02*
X0452Y05619D01*
Y05609D02*
Y05619D01*
X04514Y05602D02*
X0452Y05609D01*
X04504Y05602D02*
X04514D01*
X045Y05606D02*
X04504Y05602D01*
X0449Y05606D02*
X045D01*
X04483Y05599D02*
X0449Y05606D01*
X04483Y05589D02*
Y05599D01*
Y05589D02*
X04487Y05585D01*
Y05575D02*
Y05585D01*
X0448Y05569D02*
X04487Y05575D01*
X0447Y05569D02*
X0448D01*
X04466Y05572D02*
X0447Y05569D01*
X04456Y05572D02*
X04466D01*
X04449Y05565D02*
X04456Y05572D01*
X04449Y05555D02*
Y05565D01*
Y05555D02*
X04453Y05552D01*
Y05541D02*
Y05552D01*
X04446Y05535D02*
X04453Y05541D01*
X04436Y05535D02*
X04446D01*
X04432Y05538D02*
X04436Y05535D01*
X04422Y05538D02*
X04432D01*
X04415Y05531D02*
X04422Y05538D01*
X04415Y05521D02*
Y05531D01*
Y05521D02*
X04419Y05518D01*
Y05507D02*
Y05518D01*
X04412Y05501D02*
X04419Y05507D01*
X04402Y05501D02*
X04412D01*
X04395Y05508D02*
X04402Y05501D01*
X04384Y05508D02*
X04395D01*
X04378Y05501D02*
X04384Y05508D01*
X04378Y05491D02*
Y05501D01*
Y05491D02*
X04385Y05484D01*
Y05473D02*
Y05484D01*
X04378Y05467D02*
X04385Y05473D01*
X04368Y05467D02*
X04378D01*
X04357Y05478D02*
X04368Y05467D01*
X04347Y05478D02*
X04357D01*
X0434Y05471D02*
X04347Y05478D01*
X0434Y05461D02*
Y05471D01*
Y05461D02*
X04351Y0545D01*
Y0544D02*
Y0545D01*
X04344Y05433D02*
X04351Y0544D01*
X04334Y05433D02*
X04344D01*
X04323Y05444D02*
X04334Y05433D01*
X04313Y05444D02*
X04323D01*
X04306Y05437D02*
X04313Y05444D01*
X04306Y05427D02*
Y05437D01*
Y05427D02*
X04317Y05416D01*
Y05406D02*
Y05416D01*
X0431Y05399D02*
X04317Y05406D01*
X043Y05399D02*
X0431D01*
X04289Y0541D02*
X043Y05399D01*
X04279Y0541D02*
X04289D01*
X04272Y05403D02*
X04279Y0541D01*
X04272Y05393D02*
Y05403D01*
Y05393D02*
X04283Y05382D01*
Y05372D02*
Y05382D01*
X04276Y05365D02*
X04283Y05372D01*
X04266Y05365D02*
X04276D01*
X04255Y05376D02*
X04266Y05365D01*
X04245Y05376D02*
X04255D01*
X04238Y05369D02*
X04245Y05376D01*
X04238Y05359D02*
Y05369D01*
Y05359D02*
X04249Y05348D01*
Y05338D02*
Y05348D01*
X04242Y05331D02*
X04249Y05338D01*
X04232Y05331D02*
X04242D01*
X04221Y05342D02*
X04232Y05331D01*
X04211Y05342D02*
X04221D01*
X04204Y05335D02*
X04211Y05342D01*
X04204Y05325D02*
Y05335D01*
Y05325D02*
X04215Y05314D01*
Y05304D02*
Y05314D01*
X04208Y05297D02*
X04215Y05304D01*
X04198Y05297D02*
X04208D01*
X04187Y05308D02*
X04198Y05297D01*
X04177Y05308D02*
X04187D01*
X0417Y05301D02*
X04177Y05308D01*
X0417Y05291D02*
Y05301D01*
Y05291D02*
X04181Y0528D01*
Y0527D02*
Y0528D01*
X04174Y05263D02*
X04181Y0527D01*
X04164Y05263D02*
X04174D01*
X04153Y05274D02*
X04164Y05263D01*
X04143Y05274D02*
X04153D01*
X04136Y05267D02*
X04143Y05274D01*
X04136Y05257D02*
Y05267D01*
Y05257D02*
X04137Y05257D01*
Y05247D02*
Y05257D01*
X04135Y05245D02*
X04137Y05247D01*
X04965Y06075D02*
X05013Y06122D01*
X03995Y05105D02*
X04135Y05245D01*
X04912Y06056D02*
X04915Y0606D01*
X04912Y06046D02*
Y06056D01*
Y06046D02*
X04912Y06046D01*
Y06036D02*
Y06046D01*
X04905Y06029D02*
X04912Y06036D01*
X04895Y06029D02*
X04905D01*
X04884Y0604D02*
X04895Y06029D01*
X04874Y0604D02*
X04884D01*
X04867Y06033D02*
X04874Y0604D01*
X04867Y06023D02*
Y06033D01*
Y06023D02*
X04878Y06012D01*
Y06002D02*
Y06012D01*
X04871Y05995D02*
X04878Y06002D01*
X04861Y05995D02*
X04871D01*
X0485Y06006D02*
X04861Y05995D01*
X0484Y06006D02*
X0485D01*
X04833Y05999D02*
X0484Y06006D01*
X04833Y05989D02*
Y05999D01*
Y05989D02*
X04844Y05978D01*
Y05968D02*
Y05978D01*
X04838Y05961D02*
X04844Y05968D01*
X04827Y05961D02*
X04838D01*
X04816Y05972D02*
X04827Y05961D01*
X04806Y05972D02*
X04816D01*
X04799Y05965D02*
X04806Y05972D01*
X04799Y05955D02*
Y05965D01*
Y05955D02*
X0481Y05944D01*
Y05934D02*
Y05944D01*
X04804Y05927D02*
X0481Y05934D01*
X04793Y05927D02*
X04804D01*
X04783Y05938D02*
X04793Y05927D01*
X04772Y05938D02*
X04783D01*
X04766Y05931D02*
X04772Y05938D01*
X04766Y05921D02*
Y05931D01*
Y05921D02*
X04776Y0591D01*
Y059D02*
Y0591D01*
X0477Y05893D02*
X04776Y059D01*
X04759Y05893D02*
X0477D01*
X04749Y05904D02*
X04759Y05893D01*
X04738Y05904D02*
X04749D01*
X04732Y05897D02*
X04738Y05904D01*
X04732Y05887D02*
Y05897D01*
Y05887D02*
X04743Y05876D01*
Y05866D02*
Y05876D01*
X04736Y05859D02*
X04743Y05866D01*
X04726Y05859D02*
X04736D01*
X04715Y0587D02*
X04726Y05859D01*
X04704Y0587D02*
X04715D01*
X04698Y05863D02*
X04704Y0587D01*
X04698Y05853D02*
Y05863D01*
Y05853D02*
X04709Y05842D01*
Y05832D02*
Y05842D01*
X04702Y05825D02*
X04709Y05832D01*
X04692Y05825D02*
X04702D01*
X04681Y05836D02*
X04692Y05825D01*
X04671Y05836D02*
X04681D01*
X04664Y05829D02*
X04671Y05836D01*
X04664Y05819D02*
Y05829D01*
Y05819D02*
X04675Y05808D01*
Y05798D02*
Y05808D01*
X04668Y05791D02*
X04675Y05798D01*
X04658Y05791D02*
X04668D01*
X04647Y05802D02*
X04658Y05791D01*
X04637Y05802D02*
X04647D01*
X0463Y05795D02*
X04637Y05802D01*
X0463Y05785D02*
Y05795D01*
Y05785D02*
X04641Y05774D01*
Y05764D02*
Y05774D01*
X04634Y05757D02*
X04641Y05764D01*
X04624Y05757D02*
X04634D01*
X04613Y05768D02*
X04624Y05757D01*
X04603Y05768D02*
X04613D01*
X04596Y05761D02*
X04603Y05768D01*
X04596Y05751D02*
Y05761D01*
Y05751D02*
X04607Y0574D01*
Y0573D02*
Y0574D01*
X046Y05723D02*
X04607Y0573D01*
X0459Y05723D02*
X046D01*
X04579Y05734D02*
X0459Y05723D01*
X04569Y05734D02*
X04579D01*
X04562Y05728D02*
X04569Y05734D01*
X04562Y05717D02*
Y05728D01*
Y05717D02*
X04573Y05706D01*
Y05696D02*
Y05706D01*
X04566Y05689D02*
X04573Y05696D01*
X04556Y05689D02*
X04566D01*
X04545Y057D02*
X04556Y05689D01*
X04535Y057D02*
X04545D01*
X04528Y05694D02*
X04535Y057D01*
X04528Y05683D02*
Y05694D01*
Y05683D02*
X04539Y05673D01*
Y05662D02*
Y05673D01*
X04532Y05656D02*
X04539Y05662D01*
X04522Y05656D02*
X04532D01*
X04511Y05667D02*
X04522Y05656D01*
X04501Y05667D02*
X04511D01*
X04494Y0566D02*
X04501Y05667D01*
X04494Y0565D02*
Y0566D01*
Y0565D02*
X04505Y05639D01*
Y05628D02*
Y05639D01*
X04498Y05622D02*
X04505Y05628D01*
X04488Y05622D02*
X04498D01*
X04477Y05633D02*
X04488Y05622D01*
X04467Y05633D02*
X04477D01*
X0446Y05626D02*
X04467Y05633D01*
X0446Y05616D02*
Y05626D01*
Y05616D02*
X04471Y05605D01*
Y05594D02*
Y05605D01*
X04464Y05588D02*
X04471Y05594D01*
X04454Y05588D02*
X04464D01*
X04443Y05599D02*
X04454Y05588D01*
X04433Y05599D02*
X04443D01*
X04426Y05592D02*
X04433Y05599D01*
X04426Y05582D02*
Y05592D01*
Y05582D02*
X04437Y05571D01*
Y05561D02*
Y05571D01*
X0443Y05554D02*
X04437Y05561D01*
X0442Y05554D02*
X0443D01*
X04409Y05565D02*
X0442Y05554D01*
X04399Y05565D02*
X04409D01*
X04392Y05558D02*
X04399Y05565D01*
X04392Y05548D02*
Y05558D01*
Y05548D02*
X04403Y05537D01*
Y05527D02*
Y05537D01*
X04396Y0552D02*
X04403Y05527D01*
X04386Y0552D02*
X04396D01*
X04375Y05531D02*
X04386Y0552D01*
X04365Y05531D02*
X04375D01*
X04358Y05524D02*
X04365Y05531D01*
X04358Y05514D02*
Y05524D01*
Y05514D02*
X04359Y05513D01*
Y05503D02*
Y05513D01*
X04357Y05502D02*
X04359Y05503D01*
X04915Y0606D02*
X05006Y0615D01*
X03967Y05112D02*
X04357Y05502D01*
X03728Y04932D02*
X0447Y05673D01*
X04905Y06109D02*
X04923Y06127D01*
X04895Y06109D02*
X04905D01*
X04892Y06113D02*
X04895Y06109D01*
X04882Y06113D02*
X04892D01*
X04875Y06106D02*
X04882Y06113D01*
X04875Y06096D02*
Y06106D01*
Y06096D02*
X04892Y06078D01*
Y06068D02*
Y06078D01*
X04886Y06061D02*
X04892Y06068D01*
X04875Y06061D02*
X04886D01*
X04857Y06079D02*
X04875Y06061D01*
X04847Y06079D02*
X04857D01*
X0484Y06073D02*
X04847Y06079D01*
X0484Y06062D02*
Y06073D01*
Y06062D02*
X04858Y06044D01*
Y06034D02*
Y06044D01*
X04852Y06027D02*
X04858Y06034D01*
X04842Y06027D02*
X04852D01*
X04823Y06045D02*
X04842Y06027D01*
X04813Y06045D02*
X04823D01*
X04806Y06039D02*
X04813Y06045D01*
X04806Y06028D02*
Y06039D01*
Y06028D02*
X04825Y0601D01*
Y06D02*
Y0601D01*
X04818Y05993D02*
X04825Y06D01*
X04808Y05993D02*
X04818D01*
X04789Y06011D02*
X04808Y05993D01*
X04779Y06011D02*
X04789D01*
X04773Y06005D02*
X04779Y06011D01*
X04773Y05994D02*
Y06005D01*
Y05994D02*
X04791Y05976D01*
Y05966D02*
Y05976D01*
X04784Y05959D02*
X04791Y05966D01*
X04774Y05959D02*
X04784D01*
X04756Y05977D02*
X04774Y05959D01*
X04745Y05977D02*
X04756D01*
X04739Y05971D02*
X04745Y05977D01*
X04739Y05961D02*
Y05971D01*
Y05961D02*
X04757Y05942D01*
Y05932D02*
Y05942D01*
X0475Y05925D02*
X04757Y05932D01*
X0474Y05925D02*
X0475D01*
X04722Y05944D02*
X0474Y05925D01*
X04711Y05944D02*
X04722D01*
X04705Y05937D02*
X04711Y05944D01*
X04705Y05927D02*
Y05937D01*
Y05927D02*
X04723Y05908D01*
Y05898D02*
Y05908D01*
X04716Y05891D02*
X04723Y05898D01*
X04706Y05891D02*
X04716D01*
X04688Y0591D02*
X04706Y05891D01*
X04677Y0591D02*
X04688D01*
X04671Y05903D02*
X04677Y0591D01*
X04671Y05893D02*
Y05903D01*
Y05893D02*
X04689Y05875D01*
Y05864D02*
Y05875D01*
X04682Y05858D02*
X04689Y05864D01*
X04672Y05858D02*
X04682D01*
X04654Y05876D02*
X04672Y05858D01*
X04644Y05876D02*
X04654D01*
X04637Y05869D02*
X04644Y05876D01*
X04637Y05859D02*
Y05869D01*
Y05859D02*
X04655Y05841D01*
Y0583D02*
Y05841D01*
X04648Y05824D02*
X04655Y0583D01*
X04638Y05824D02*
X04648D01*
X0462Y05842D02*
X04638Y05824D01*
X0461Y05842D02*
X0462D01*
X04603Y05835D02*
X0461Y05842D01*
X04603Y05825D02*
Y05835D01*
Y05825D02*
X04621Y05807D01*
Y05796D02*
Y05807D01*
X04614Y0579D02*
X04621Y05796D01*
X04604Y0579D02*
X04614D01*
X04586Y05808D02*
X04604Y0579D01*
X04576Y05808D02*
X04586D01*
X04569Y05801D02*
X04576Y05808D01*
X04569Y05791D02*
Y05801D01*
Y05791D02*
X04587Y05773D01*
Y05763D02*
Y05773D01*
X0458Y05756D02*
X04587Y05763D01*
X0457Y05756D02*
X0458D01*
X04552Y05774D02*
X0457Y05756D01*
X04542Y05774D02*
X04552D01*
X04535Y05767D02*
X04542Y05774D01*
X04535Y05757D02*
Y05767D01*
Y05757D02*
X04553Y05739D01*
Y05729D02*
Y05739D01*
X04546Y05722D02*
X04553Y05729D01*
X04536Y05722D02*
X04546D01*
X04518Y0574D02*
X04536Y05722D01*
X04508Y0574D02*
X04518D01*
X04501Y05733D02*
X04508Y0574D01*
X04501Y05723D02*
Y05733D01*
Y05723D02*
X04519Y05705D01*
Y05695D02*
Y05705D01*
X04512Y05688D02*
X04519Y05695D01*
X04502Y05688D02*
X04512D01*
X04484Y05706D02*
X04502Y05688D01*
X04474Y05706D02*
X04484D01*
X04467Y05699D02*
X04474Y05706D01*
X04467Y05689D02*
Y05699D01*
Y05689D02*
X04471Y05685D01*
Y05675D02*
Y05685D01*
X0447Y05673D02*
X04471Y05675D01*
X03936Y05112D02*
X03967D01*
X05006Y0615D02*
Y06466D01*
X03946Y05105D02*
X03995D01*
X05013Y06122D02*
Y06469D01*
X03949Y05098D02*
X04021D01*
X0502Y06097D02*
Y06486D01*
X03643Y04685D02*
Y04692D01*
X03649Y0468D02*
X03655D01*
X03712Y04736D02*
X03724D01*
X03655Y0468D02*
X03712Y04736D01*
X03688D02*
X03695D01*
X02964Y04562D02*
X03521D01*
X03501Y04522D02*
X03557Y04579D01*
X02959Y04555D02*
X03523D01*
X03557Y04579D02*
X03571D01*
X03523Y04555D02*
X03649Y0468D01*
X03521Y04562D02*
X03643Y04685D01*
Y04692D02*
X03688Y04736D01*
X029Y04522D02*
X03501D01*
X05034Y06045D02*
Y06535D01*
X03724Y04704D02*
X03726D01*
X03717Y04697D02*
X03724Y04704D01*
X03688Y04697D02*
X03717D01*
X03727D02*
X03764D01*
X03722Y04692D02*
X03727Y04697D01*
X05041Y06019D02*
Y06562D01*
X03722Y04684D02*
Y04692D01*
X05048Y0598D02*
Y06584D01*
X05055Y05945D02*
Y06285D01*
X03698Y04648D02*
X03757D01*
X03248Y04444D02*
X0361D01*
X03263Y04469D02*
X03625D01*
X05062Y05905D02*
Y06624D01*
X0361Y04444D02*
X03824Y04657D01*
X03858*
X03938Y04728D02*
X03975D01*
X03842Y0465D02*
X03861D01*
X05134Y05933D02*
Y06246D01*
X03858Y04657D02*
X05134Y05933D01*
X03774Y04582D02*
X03842Y0465D01*
X03861D02*
X03938Y04728D01*
X0521Y05962D02*
Y06097D01*
X0523Y05939D02*
Y06385D01*
X0372Y04522D02*
X03813D01*
X0523Y05939*
X03521Y04483D02*
X03722Y04684D01*
X0293Y04483D02*
X03521D01*
X03571Y04579D02*
X03683Y04691D01*
Y04692D02*
X03688Y04697D01*
X03683Y04691D02*
Y04692D01*
X03624Y04437D02*
X0377Y04582D01*
X03774*
X03813Y04972D02*
X03946Y05105D01*
X0501Y06472D02*
Y06486D01*
Y06472D02*
X05013Y06469D01*
X03813Y04956D02*
Y04972D01*
X0382Y04969D02*
X03949Y05098D01*
X04982Y06513D02*
X0501Y06486D01*
X04923Y06127D02*
X04935Y06139D01*
X05218Y06152D02*
Y06161D01*
X05211Y06145D02*
X05218Y06152D01*
X05205Y06145D02*
X05211D01*
X05198Y06138D02*
X05205Y06145D01*
X05198Y06128D02*
Y06138D01*
Y06128D02*
X05205Y06121D01*
X05209*
X05216Y06114*
Y06104D02*
Y06114D01*
X05214Y06102D02*
X05216Y06104D01*
X05218Y06161D02*
Y06583D01*
X0521Y06097D02*
X05214Y06102D01*
X0523Y06545D02*
Y06559D01*
Y06545D02*
X05237Y06538D01*
X05242*
X05249Y06531*
Y06521D02*
Y06531D01*
X05242Y06514D02*
X05249Y06521D01*
X05232Y06514D02*
X05242D01*
X05225Y06507D02*
X05232Y06514D01*
X05225Y06497D02*
Y06507D01*
Y06497D02*
X05232Y0649D01*
X05242*
X05249Y06483*
Y06473D02*
Y06483D01*
X05242Y06466D02*
X05249Y06473D01*
X05232Y06466D02*
X05242D01*
X05225Y06459D02*
X05232Y06466D01*
X05225Y06449D02*
Y06459D01*
Y06449D02*
X05232Y06442D01*
X05242*
X05249Y06435*
Y06425D02*
Y06435D01*
X05242Y06418D02*
X05249Y06425D01*
X05237Y06418D02*
X05242D01*
X0523Y06411D02*
X05237Y06418D01*
X0523Y06385D02*
Y06411D01*
Y06559D02*
Y06581D01*
X04945Y06655D02*
X04959Y06669D01*
X04977Y06625D02*
X05041Y06562D01*
X04976Y06547D02*
Y06561D01*
X04968Y06538D02*
X04976Y06547D01*
X04983Y06544D02*
Y06545D01*
X04968Y06526D02*
Y06538D01*
X04975Y06529D02*
Y06536D01*
X04968Y06526D02*
X0498Y06513D01*
X04975Y06536D02*
X04983Y06544D01*
Y06545D02*
X04985Y06547D01*
X04975Y06529D02*
X04983Y0652D01*
X04985Y06547D02*
Y06564D01*
X0498Y06513D02*
X04982D01*
X04983Y0652D02*
X04985D01*
X02874Y04486D02*
Y04507D01*
X02839Y04542D02*
X02874Y04507D01*
X02839Y04542D02*
Y04688D01*
X02849Y04462D02*
X02874Y04486D01*
X02837Y04491D02*
X02865D01*
X02849Y04445D02*
X02857Y04437D01*
X02849Y04445D02*
Y04462D01*
X02857Y04437D02*
X03241D01*
X02865Y04452D02*
X02892D01*
X0327Y04437D02*
X03624D01*
X02909Y0443D02*
X03263D01*
X0327Y04437*
X03241D02*
X03248Y04444D01*
X02895Y04416D02*
X02909Y0443D01*
X03238Y04444D02*
X03263Y04469D01*
X03161Y04444D02*
X03238D01*
X03144Y04461D02*
X03161Y04444D01*
X03028Y04461D02*
X03144D01*
X02839Y04688D02*
X02897Y04745D01*
X02934*
X02991Y04803*
X02983Y04828D02*
X02991Y0482D01*
Y04803D02*
Y0482D01*
X02983Y04828D02*
Y04846D01*
X03006Y04861D02*
X03022Y04846D01*
X02983Y04861D02*
X03006D01*
X02967Y04846D02*
X02983Y04861D01*
X02967Y04809D02*
Y04846D01*
X02928Y04822D02*
X02943Y04806D01*
X02935Y04798D02*
X0294D01*
X0294Y04798*
X02947D02*
X02952Y04803D01*
Y04818*
X0294Y04798D02*
X02947D01*
X03041Y04877D02*
X03058Y04894D01*
X02943Y04858D02*
X02962Y04877D01*
X03041*
X02935Y04859D02*
X02952Y04876D01*
X02943Y04846D02*
Y04858D01*
X02935Y04835D02*
Y04859D01*
X05165Y06435D02*
Y06449D01*
X05096Y06426D02*
X05179D01*
X05073Y06404D02*
X05096Y06426D01*
X05179D02*
X0521Y06457D01*
X05176Y06414D02*
X05183Y06421D01*
X05073Y06355D02*
X05132Y06414D01*
X05176*
X05134Y06309D02*
X05142Y06317D01*
X05074Y06343D02*
X05075Y06343D01*
X04788Y06415D02*
X0483D01*
X04781Y06408D02*
X04788Y06415D01*
X0483Y06451D02*
X04877Y06403D01*
X05073Y06351D02*
X05074Y0635D01*
Y06343D02*
Y0635D01*
X05073Y06351D02*
Y06355D01*
X04976Y06403D02*
Y06403D01*
X04856Y06452D02*
X04882Y06426D01*
X04953D02*
X04976Y06403D01*
X04882Y06426D02*
X04953D01*
X0496Y06435D02*
X04976D01*
X0483Y06565D02*
X0496Y06435D01*
X0483Y06565D02*
X0483D01*
X04976Y06478D02*
Y06497D01*
Y06478D02*
X04999Y06456D01*
Y06207D02*
Y06456D01*
X04976Y06466D02*
X04992Y06451D01*
X04877Y06403D02*
X04945D01*
X04877Y06393D02*
X04954D01*
X04976Y06372*
X04856Y06415D02*
X04877Y06393D01*
X04884Y06435D02*
Y06472D01*
X04856Y06452D02*
Y06465D01*
X0483Y06602D02*
X04886Y06546D01*
X0483Y0638D02*
X04859D01*
X0346Y0443D02*
X03627D01*
X03435Y04404D02*
X0346Y0443D01*
X03627D02*
X0372Y04522D01*
X02952Y04404D02*
X03435D01*
X02943Y04413D02*
X02952Y04404D01*
X0519Y06275D02*
X0521D01*
X0518Y06286D02*
X0519Y06275D01*
X05164Y06647D02*
X0523Y06581D01*
X05089Y06719D02*
X05162Y06647D01*
X05164*
X05073Y06719D02*
X05089D01*
X05149Y0664D02*
X05161D01*
X05218Y06583*
X05134Y06655D02*
X05149Y0664D01*
X02895Y04399D02*
Y04416D01*
Y04399D02*
X02904Y04391D01*
Y04373D02*
Y04391D01*
X0302Y04452D02*
X03028Y04461D01*
X02904Y04452D02*
X0302D01*
X0282Y04458D02*
X02864Y04413D01*
X02813Y04453D02*
X02865Y04401D01*
Y04373D02*
Y04401D01*
X02892Y04452D02*
X02916Y04476D01*
X05055Y06285D02*
X05055Y06285D01*
X05055Y06285D02*
Y06668D01*
X05062Y06624D02*
X05073Y06636D01*
Y06656*
X04944Y06254D02*
X04992Y06302D01*
X04976Y0634D02*
Y0634D01*
X04976Y06592D02*
X05034Y06535D01*
X04959Y06323D02*
X04976Y0634D01*
X04935Y06143D02*
X04999Y06207D01*
X04941Y06261D02*
X04985Y06305D01*
X04976Y06415D02*
X04985Y06407D01*
X05055Y06668D02*
X05073Y06687D01*
X04976Y06309D02*
Y06309D01*
X04994Y06477D02*
X05006Y06466D01*
X04985Y06305D02*
Y06407D01*
X04976Y06655D02*
X05048Y06584D01*
X04985Y0652D02*
X0502Y06486D01*
X04976Y06372D02*
Y06372D01*
X04953Y06286D02*
X04976Y06309D01*
X04992Y06302D02*
Y06451D01*
X04994Y06477D02*
Y06491D01*
X04976Y06415D02*
Y06435D01*
X05073Y06309D02*
X05093Y06329D01*
X05134Y0634D02*
X05149D01*
X05093Y06329D02*
X05166D01*
X05149Y0634D02*
X05194Y06385D01*
X05166Y06329D02*
X05185Y06348D01*
X05177Y06203D02*
X0521D01*
X05165Y06449D02*
X0521Y06493D01*
X03526Y04476D02*
X03698Y04648D01*
X02916Y04476D02*
X03526D01*
X02863Y04638D02*
Y04649D01*
X04954Y0671D02*
X04962Y06718D01*
X04976*
X04887Y0671D02*
X04954D01*
X04957Y0675D02*
X04985Y06722D01*
Y06683D02*
Y06722D01*
X04971Y06669D02*
X04985Y06683D01*
X04959Y06669D02*
X04971D01*
X04935Y06727D02*
X04945Y06718D01*
X02832Y04496D02*
X02837Y04491D01*
X02863Y04638D02*
X02907Y04594D01*
X02865Y04533D02*
X02879D01*
X0293Y04483*
X02936Y04697D02*
X02983Y04649D01*
X02899Y04697D02*
X02936D01*
X02855Y04652D02*
X02899Y04697D01*
X02855Y04568D02*
Y04652D01*
Y04568D02*
X029Y04522D01*
X02943Y0457D02*
X02959Y04555D01*
X03514Y0468D02*
X03537D01*
X0382Y04953D02*
Y04969D01*
X03486Y04619D02*
X0382Y04953D01*
X03413Y04619D02*
X03486D01*
X03395Y04601D02*
X03413Y04619D01*
X03154Y04601D02*
X03395D01*
X03154Y04601D02*
X03154Y04601D01*
X02912Y04601D02*
X03154D01*
X02903Y0461D02*
X02912Y04601D01*
X03537Y0468D02*
X03813Y04956D01*
X02907Y04594D02*
X02931D01*
X02964Y04562*
X02988Y04633D02*
X03456D01*
X03726Y04932D02*
X03728D01*
X03031Y0464D02*
X03434D01*
X04935Y06139D02*
Y06143D01*
X03434Y0464D02*
X03726Y04932D01*
X03456Y04633D02*
X03936Y05112D01*
X04979Y06506D02*
X04994Y06491D01*
X04976Y06498D02*
X04976Y06497D01*
X04945Y06529D02*
X04968Y06506D01*
X04979*
X04958Y06561D02*
X04967Y06569D01*
X0498*
X04945Y06561D02*
X04958D01*
X0498Y06569D02*
X04985Y06564D01*
X03459Y04626D02*
X03514Y0468D01*
X02967Y04626D02*
X03459D01*
X02944Y04649D02*
X02967Y04626D01*
X02943Y04728D02*
X03031Y0464D01*
X02903Y04688D02*
X02934Y04658D01*
X02963D02*
X02988Y04633D01*
X02934Y04658D02*
X02963D01*
X03353Y04751D02*
X0336Y04758D01*
X03277Y04719D02*
X03309Y04751D01*
X03092Y04803D02*
Y04849D01*
X03309Y04751D02*
X03353D01*
X03092Y04849D02*
X03097Y04854D01*
X03132*
X0314Y04846*
X03176Y04758D02*
X0335D01*
X03092Y04803D02*
X03176Y04719D01*
X03277*
X0314Y04794D02*
X03176Y04758D01*
X04861Y06163D02*
X04867Y0617D01*
Y06156D02*
X04977Y06266D01*
X04833Y06156D02*
X04867D01*
Y0617D02*
Y0618D01*
X04938Y06261D02*
X04941D01*
X04865Y06188D02*
X04938Y06261D01*
X04977Y06276D02*
X04977Y06276D01*
X04867Y0618D02*
X04941Y06254D01*
X04944*
X04944Y06277D02*
X04945D01*
X04862Y06195D02*
X04944Y06277D01*
X04977Y06266D02*
Y06276D01*
X04911Y06255D02*
X04941Y06286D01*
X04865Y06255D02*
X04911D01*
X04941Y06286D02*
X04953D01*
X0314Y04794D02*
Y04806D01*
X04928Y06282D02*
X04938Y06293D01*
X04925Y06289D02*
X04945Y06309D01*
X0494Y06293D02*
X04953Y06305D01*
Y06323*
X04938Y06293D02*
X0494D01*
X04847Y06323D02*
X04953D01*
X0483Y06306D02*
X04847Y06323D01*
X04765Y06315D02*
X0483Y0638D01*
X04839Y06121D02*
X04851D01*
X05183Y06421D02*
X0521D01*
X04953Y06323D02*
X04959D01*
X0486Y06381D02*
X04935D01*
X04863Y06349D02*
X04935D01*
X04859Y0638D02*
X0486Y06381D01*
X04935Y06349D02*
X04945Y0634D01*
X04935Y06381D02*
X04945Y06372D01*
X04855Y06342D02*
X04863Y06349D01*
X0483Y06415D02*
X04856D01*
X04851Y06121D02*
X04976Y06246D01*
X04641Y06424D02*
X04657Y06408D01*
X04781*
X02935Y04835D02*
X02952Y04818D01*
X03101Y04846D02*
X03109Y04837D01*
X03179Y04767D02*
Y04778D01*
X03336Y04724D02*
X03363Y04751D01*
X03321Y04724D02*
X03336D01*
X03262Y04665D02*
X03321Y04724D01*
X03047Y04665D02*
X03262D01*
X03044Y04667D02*
X03047Y04665D01*
X03044Y04667D02*
Y04856D01*
X03044Y04658D02*
X03279D01*
X03037Y04861D02*
X03061Y04885D01*
X03037Y04664D02*
Y04861D01*
X03044Y04856D02*
X0307Y04882D01*
X03279Y04658D02*
X03366Y04744D01*
X0307Y04882D02*
Y04889D01*
X03037Y04664D02*
X03044Y04658D01*
X03424Y04751D02*
X03479Y04807D01*
X03058Y04894D02*
X03065D01*
X03363Y04751D02*
X03424D01*
X03065Y04894D02*
X0307Y04889D01*
X03426Y04744D02*
X03486Y04804D01*
X03366Y04744D02*
X03426D01*
X03486Y0481D02*
X03491Y04815D01*
X03554*
X03486Y04804D02*
Y0481D01*
X0483Y06342D02*
X04855D01*
X0483Y06491D02*
X04856Y06465D01*
X05134Y06246D02*
X05177Y06203D01*
X05073Y06278D02*
X05113D01*
X05154Y06237*
X05184*
X05186Y06239*
X0521*
X05142Y06286D02*
X0518D01*
X05134Y06277D02*
X05142Y06286D01*
X05182Y06317D02*
X05188Y06312D01*
X0521*
X05142Y06317D02*
X05182D01*
X05185Y06348D02*
X0521D01*
X05194Y06385D02*
X0521D01*
G54D197*
X04551Y04964D03*
X04343Y04029D03*
X02347Y04963D03*
X00238Y00225D03*
X05462Y00289D03*
X0551Y10381D03*
X00267Y10413D03*
G54D198*
X02081Y0546D03*
X02039D03*
X01996D03*
X02081Y05502D03*
X02039D03*
X01996D03*
X02081Y05544D03*
X02039D03*
X01996D03*
G54D199*
X00601Y0116D03*
X00701Y0106D03*
X00501D03*
Y0126D03*
X00701D03*
X00601Y0076D03*
X00701Y0066D03*
X00501D03*
Y0086D03*
X00701D03*
X00715Y03236D03*
X00515D03*
Y03036D03*
X00715D03*
X00615Y03136D03*
X00715Y03676D03*
X00515D03*
Y03476D03*
X00715D03*
X00615Y03576D03*
G54D200*
X00267Y06726D03*
Y06923D03*
Y0712D03*
G54D201*
X00267Y07317D03*
G54D202*
X00327Y0995D03*
Y09476D03*
X00628Y08343D03*
Y08508D03*
X00844Y08178D03*
Y08343D03*
Y08508D03*
G54D203*
X00221Y09664D03*
Y09762D03*
X00142Y09664D03*
Y09762D03*
G54D204*
X00307Y05256D03*
Y05756D03*
G54D205*
X00407Y05366D03*
G54D206*
X00407Y05446D03*
Y05526D03*
Y05606D03*
X00477Y05406D03*
Y05486D03*
Y05566D03*
Y05646D03*
X00667Y05236D03*
Y05686D03*
Y05776D03*
Y05326D03*
G54D207*
X00628Y08178D03*
G54D208*
X02943Y04767D03*
X02901Y04769D03*
X05074Y06467D03*
X04983Y06532D03*
X04827Y06529D03*
X04884Y0653D03*
X04581Y06469D03*
X04594Y06518D03*
X03345Y05269D03*
X03411Y05284D03*
X03333Y05204D03*
X03299Y05199D03*
X03338Y05238D03*
X037Y05231D03*
X04655Y06161D03*
X04624Y0613D03*
X03843Y05324D03*
X03443Y04819D03*
X03413Y0477D03*
X04834Y06117D03*
X03412Y05086D03*
X03373Y05046D03*
X03634Y05297D03*
X03413Y05163D03*
X04602Y06412D03*
X03481Y05292D03*
X04663Y06449D03*
X04601Y0645D03*
X03542Y0539D03*
X03561Y0541D03*
X03368Y04933D03*
X03525Y05091D03*
X03565Y0513D03*
X03328Y04894D03*
X03295Y04851D03*
X04743Y06252D03*
X04657Y06188D03*
X04661Y0612D03*
X04744Y06232D03*
X03374Y0477D03*
X03413Y04809D03*
X03452Y04848D03*
X03807Y05203D03*
X03728Y05124D03*
X03492Y04888D03*
X03659Y04997D03*
X03802Y05129D03*
X03915Y05253D03*
X03458Y04764D03*
X03728Y05045D03*
X039Y05317D03*
X03416Y04846D03*
X03455Y04885D03*
X03573Y05003D03*
X03337Y04768D03*
X03905Y05329D03*
X03376Y04806D03*
X04743Y06155D03*
X04744Y06121D03*
X04743Y06179D03*
X04572Y06161D03*
X03304Y04918D03*
X03285Y04898D03*
X03324Y04937D03*
X03245Y04859D03*
X03229Y04842D03*
X03527Y0501D03*
X03684Y05168D03*
X03488Y04972D03*
X03645Y05129D03*
X03369Y04853D03*
X03408Y04892D03*
X04666Y06226D03*
X0457Y06233D03*
X04838Y06196D03*
X0346Y0492D03*
X04596Y06208D03*
X04647Y06284D03*
X03254Y0489D03*
X03179Y04846D03*
X03258Y04924D03*
X046Y06278D03*
X03219Y04885D03*
X0483Y0627D03*
X0457Y06278D03*
X03515Y05493D03*
X03248Y05171D03*
X04571Y06402D03*
X03337Y0513D03*
X03293Y05087D03*
X03513Y05458D03*
X03218Y05162D03*
X03296Y05241D03*
X03335Y05163D03*
X03111Y04905D03*
X03102Y04885D03*
X03061Y04885D03*
X03589Y05417D03*
X03254Y05047D03*
X03171Y05003D03*
X03258Y05113D03*
X03219Y05082D03*
X03459Y05544D03*
X04543Y06624D03*
X03457Y05631D03*
X03435Y05607D03*
X03176Y05316D03*
X03452Y05584D03*
X03432Y05698D03*
X03285Y05527D03*
X03251Y05493D03*
X02789Y04942D03*
X03001Y05287D03*
X03099Y05283D03*
X02904Y05043D03*
X02983Y05121D03*
X03448Y05727D03*
X0345Y05673D03*
X03217Y05436D03*
X03417Y05781D03*
X03419Y05819D03*
X03395Y05801D03*
X03396Y05842D03*
X03419Y0586D03*
X02865Y05318D03*
X02901Y05203D03*
X02943Y05279D03*
X02983Y052D03*
X04017Y05115D03*
X03887Y0494D03*
X04031Y05084D03*
X0381Y04806D03*
X03796Y04741D03*
X04022Y04929D03*
X04042Y04949D03*
X03818Y0464D03*
X03723Y04578D03*
X03928Y04739D03*
X03952Y04719D03*
X03653Y04649D03*
X03613Y04609D03*
X03809Y0457D03*
X03941Y0512D03*
X04945Y06687D03*
X04976D03*
X03435Y0551D03*
X03227Y05312D03*
X03187Y05272D03*
X04945Y06655D03*
X04884Y06631D03*
X04945D03*
X05073Y06593D03*
X04977Y06625D03*
X04624Y06624D03*
X04976Y06561D03*
X03294Y05282D03*
X03334Y05321D03*
X03239Y05227D03*
X03216Y05203D03*
X04569Y06514D03*
X04744Y06527D03*
X04884Y06561D03*
X05073Y06498D03*
X02865Y04491D03*
Y04452D03*
X03219D03*
X03731Y0461D03*
X02865Y04688D03*
X02943Y04806D03*
X02983Y04846D03*
X03021Y04886D03*
X03809Y04885D03*
X02864Y04767D03*
X039Y05002D03*
X02904Y04885D03*
X0466Y06491D03*
X05165Y06435D03*
X05134Y06466D03*
X05073Y06435D03*
X05134Y06435D03*
X02983Y04767D03*
X03691Y04924D03*
X05134Y06309D03*
X0314Y05004D03*
X03022Y04806D03*
X0466Y06379D03*
X04744Y06452D03*
X05075Y06343D03*
X02983Y04806D03*
X04749Y06343D03*
X04745Y06305D03*
X0483Y06415D03*
Y06451D03*
X04976Y06403D03*
X04945Y06435D03*
X04976Y06466D03*
Y06435D03*
X04945Y06466D03*
Y06498D03*
Y06403D03*
X03328Y04974D03*
X05136Y06371D03*
X04884Y06435D03*
X0483Y0638D03*
X03573Y05279D03*
X03259Y04964D03*
X03219Y04924D03*
X03494Y052D03*
X03657Y04447D03*
X03494Y0457D03*
X0521Y06275D03*
X03731Y04806D03*
X03652Y04728D03*
X03455Y04531D03*
X05165Y06246D03*
Y06687D03*
X0507Y06152D03*
X04976Y0634D03*
Y06372D03*
Y06309D03*
X05073Y06404D03*
Y06309D03*
Y06561D03*
Y06624D03*
Y0653D03*
X05134Y0634D03*
X0521Y06203D03*
Y06493D03*
X05165Y06498D03*
X05134Y06529D03*
X05315Y07036D03*
X05303Y0716D03*
X02865Y04806D03*
Y0473D03*
X02863Y04649D03*
X04884Y06719D03*
X04976Y06718D03*
X02864Y0457D03*
X02865Y0461D03*
X03176Y05955D03*
X02943Y04491D03*
X04011Y05227D03*
X03805Y04968D03*
X0353Y04693D03*
X02983Y0461D03*
X02943D03*
X03918Y05055D03*
X04976Y06498D03*
X0318Y04648D03*
X02944Y04649D03*
X02903Y04688D03*
X04833Y06155D03*
X04977Y06276D03*
X04945Y06309D03*
X04884Y06309D03*
X04945Y06277D03*
X04884Y06246D03*
X03061Y04806D03*
X03101D03*
X03061Y04846D03*
X0314Y04885D03*
X03336Y04807D03*
X03298Y04806D03*
X03219Y04805D03*
X03376Y04885D03*
X03178Y04807D03*
X0314Y04806D03*
X03298Y04768D03*
X04885Y06273D03*
X0483Y06217D03*
X04884Y06372D03*
Y06341D03*
X04976Y06246D03*
X02748Y05209D03*
X03043Y05955D03*
X02943Y04846D03*
X0466Y06306D03*
X03249Y07541D03*
X0326Y07557D03*
X03248Y07569D03*
X03061Y07427D03*
X03073Y07412D03*
X02863Y07439D03*
X0287Y07426D03*
X02831Y07312D03*
X02822Y07321D03*
X0275Y07312D03*
X02741Y07321D03*
X02962Y07371D03*
X02947Y07383D03*
X02903Y07369D03*
X02889Y07383D03*
X02802Y07393D03*
X02791Y07376D03*
X02743Y07393D03*
X02731Y07376D03*
X02604Y07378D03*
X02616Y07396D03*
X02598Y07423D03*
X02605Y07443D03*
X02788Y07323D03*
X02797Y07311D03*
X02706Y07321D03*
X02715Y07312D03*
X03016Y07429D03*
X03036Y07417D03*
X03027Y07408D03*
X02988Y07427D03*
X02981Y07443D03*
X02929Y07426D03*
X02921Y07438D03*
X02771Y07426D03*
X02764Y07441D03*
X02713Y07426D03*
X02705Y07439D03*
X02447Y07647D03*
X02433Y07666D03*
X02633Y07647D03*
X02647Y07639D03*
X02647Y0758D03*
X02633Y07588D03*
X02522Y07881D03*
X02376Y07891D03*
X03473Y07627D03*
X03484Y07586D03*
X03511Y07627D03*
X03518Y07587D03*
X0371Y07749D03*
X03724Y07776D03*
X03595Y06989D03*
X03584Y07003D03*
X0363Y06875D03*
X03646Y06861D03*
X04068Y07032D03*
X04081Y0699D03*
X04112Y06796D03*
X041Y06807D03*
X04114Y0689D03*
X04101Y06905D03*
X04017Y07049D03*
X04035Y07032D03*
X0401Y0701D03*
X04034Y06989D03*
X04017Y06968D03*
X0399Y06953D03*
X04005Y06934D03*
X01817Y09403D03*
X01834Y09419D03*
X021Y09379D03*
X02143Y09379D03*
X02904Y09678D03*
X02945Y09651D03*
X02301Y09379D03*
X02257Y09379D03*
X02921Y09725D03*
X02949Y09766D03*
X01952Y10127D03*
X01871D03*
X01909Y10142D03*
X0205Y10097D03*
X0207Y10084D03*
X01487Y0995D03*
X01484Y09773D03*
X01482Y09825D03*
X01487Y09878D03*
X01595Y09921D03*
X01637Y09907D03*
X01594Y09956D03*
X01637Y09969D03*
X01872Y10089D03*
X01909Y10113D03*
X01936Y10073D03*
X01954Y10088D03*
X01981Y09999D03*
X02001Y09986D03*
X00566Y09239D03*
Y09276D03*
X01343Y07191D03*
X01275Y0761D03*
X01385Y07407D03*
X03469Y04122D03*
X03485Y04156D03*
X03496Y04175D03*
X03469Y04176D03*
X03497Y04266D03*
X03473Y04266D03*
X0317Y04171D03*
X03127Y0417D03*
X03169Y04126D03*
X03157Y0414D03*
X03145Y04125D03*
X03132Y0414D03*
X03119Y04125D03*
X03178Y04269D03*
X03169Y0426D03*
X03123Y0427D03*
X03134Y04258D03*
X03148Y04275D03*
X03398Y04288D03*
X03311D03*
X05487Y07D03*
X05465Y06994D03*
X02331Y00714D03*
X02314Y00718D03*
X0232Y00637D03*
X02309Y00675D03*
X02306Y00737D03*
X02272Y0072D03*
X02263Y00737D03*
X02323Y0111D03*
X02309Y01083D03*
X02299Y0111D03*
X0227Y01094D03*
X0226Y01082D03*
X04016Y01891D03*
X03999Y01909D03*
X03054Y01662D03*
X03036Y01685D03*
X03164Y01805D03*
X03141Y01783D03*
X02601D03*
X02624Y01805D03*
X02496Y01685D03*
X02514Y01662D03*
X02156Y03371D03*
X0213Y03432D03*
X02133Y03531D03*
X01923Y03692D03*
X01972Y03693D03*
X02021Y03692D03*
X02091Y03693D03*
X02123Y03667D03*
X0218Y03608D03*
X02172Y06077D03*
X02129Y06077D03*
X02139Y0663D03*
X02185Y06562D03*
X02078Y06904D03*
X02031Y06972D03*
X00953Y06689D03*
X00901Y06664D03*
X00845Y06692D03*
X00648Y06589D03*
X00676Y06549D03*
X0065Y06505D03*
X01787Y08482D03*
X01831Y08428D03*
X01641Y08573D03*
X01673Y08466D03*
X01642Y08356D03*
X01639Y08149D03*
X01671Y08062D03*
X01636Y08003D03*
X0175Y08777D03*
X01517Y08777D03*
X01729Y08727D03*
X01691Y08769D03*
X01636Y08726D03*
X01579Y08771D03*
X0154Y08729D03*
X0141Y08768D03*
X01362Y08711D03*
X01474Y06789D03*
X01501Y06763D03*
X01472Y06739D03*
X01375Y0673D03*
X01349Y06702D03*
X01325Y06731D03*
X01395Y06871D03*
X01573Y06875D03*
X0124D03*
X00852Y06445D03*
X00828Y06474D03*
X00802Y06446D03*
X01183Y06445D03*
X01159Y06474D03*
X01133Y06446D03*
X01102Y02218D03*
X01038Y02171D03*
X00988Y02228D03*
X00931Y0217D03*
X00874Y02243D03*
X00847Y02198D03*
X02371Y03655D03*
X02347Y03637D03*
X02199Y03666D03*
X02229Y03638D03*
X0251Y04084D03*
X02537Y04058D03*
X02508Y04034D03*
X03091Y03781D03*
X03155Y03738D03*
X03093Y03698D03*
X03153Y03666D03*
X03336Y03697D03*
X03309Y03679D03*
X02862Y03592D03*
X02891Y03616D03*
X02863Y03642D03*
X033Y03809D03*
X03327Y03783D03*
X03298Y03759D03*
X03923Y03171D03*
X0395Y03145D03*
X03922Y03122D03*
X04178Y03381D03*
X04129Y03395D03*
X04152Y03366D03*
X04152Y03439D03*
X04167Y03422D03*
X03888Y03547D03*
X03879Y03492D03*
X03838Y03571D03*
X04172Y03505D03*
X04202Y0349D03*
X04173Y03461D03*
X04245Y03428D03*
X04012Y04465D03*
X03921Y04492D03*
X03907Y0446D03*
X02721Y03081D03*
X02752Y03119D03*
X02773Y0316D03*
X02754Y03043D03*
X02808Y03067D03*
X02369Y03305D03*
X02346Y03323D03*
X02218Y03326D03*
X02172Y03276D03*
X0214Y03291D03*
X02624Y0113D03*
X02606Y01172D03*
X02658Y01166D03*
X02643Y01177D03*
X02672Y00941D03*
X02705Y00961D03*
X02664Y00961D03*
X02419Y00712D03*
X02695Y00669D03*
X02721Y00682D03*
X02663Y00651D03*
X02611Y00711D03*
X02593Y00679D03*
X02648Y00714D03*
X02668Y00731D03*
X02628Y00731D03*
X02677Y00764D03*
X03962Y05075D03*
X03896Y05142D03*
X03907Y05182D03*
X03494Y04728D03*
X03455Y04688D03*
X04037Y05272D03*
X01974Y0954D03*
X02089Y09539D03*
X02458Y0684D03*
X02418Y0687D03*
X02405Y06681D03*
X02373Y0664D03*
X02277Y06469D03*
X0219Y06382D03*
X02607Y05252D03*
X02652Y0521D03*
X02773Y04733D03*
X01232Y01001D03*
X01205Y01009D03*
X01163Y01041D03*
X01138Y01054D03*
X01379Y00859D03*
X01337Y00891D03*
X01322Y00906D03*
X01276Y00852D03*
X01165Y00924D03*
X00989Y035D03*
X01051Y03477D03*
X01035Y03455D03*
X01297Y00754D03*
X01271Y00739D03*
X01221Y00793D03*
X01074Y00853D03*
X01114Y009D03*
X01079Y01691D03*
X01003Y0176D03*
X01193Y03192D03*
X0115Y03173D03*
X01132Y03213D03*
X03849Y04334D03*
X03534Y04373D03*
X03061D03*
X02672Y046D03*
X02695Y04625D03*
X02742Y04531D03*
X02771Y04557D03*
X02668Y04493D03*
X0263Y04458D03*
X02764Y0448D03*
X02785Y04395D03*
X0277Y04375D03*
X04509Y03378D03*
X04498Y0336D03*
X04419Y0339D03*
X044Y03377D03*
X04494Y03471D03*
X04471Y03502D03*
X04412Y03503D03*
X02794Y04278D03*
X03518Y05527D03*
X02719Y04939D03*
X02152Y0542D03*
X02137Y05408D03*
X02152Y05396D03*
X04117Y04056D03*
X04138Y04041D03*
Y04079D03*
X04117Y04094D03*
X01098Y0805D03*
X01145Y07982D03*
X01099Y08489D03*
X01145Y08421D03*
X01463Y08964D03*
X01689Y08978D03*
X01579Y08981D03*
X0143Y08918D03*
X01391Y08964D03*
X01094Y09058D03*
X01121Y09034D03*
X00836Y08828D03*
X00863Y08803D03*
X01886Y08574D03*
X02162Y08536D03*
X02338Y08711D03*
X02282Y08741D03*
X02217Y08699D03*
X01995Y08583D03*
X0198Y08601D03*
X0236Y08536D03*
X02264D03*
X02311Y08512D03*
X02212Y08536D03*
X02187Y08512D03*
X0269Y08454D03*
X02758Y08501D03*
X03129Y08744D03*
X03052Y0921D03*
X03117Y09244D03*
X03649Y08568D03*
X03622Y08594D03*
X03651Y08617D03*
X0543Y07709D03*
X05459Y07733D03*
X05431Y07759D03*
X05191Y07719D03*
X05218Y07786D03*
X05297Y07842D03*
X0516Y07846D03*
X05122Y07657D03*
X05228Y07615D03*
X0308Y09098D03*
X02853D03*
X02933Y09053D03*
X0448Y08196D03*
X044Y08241D03*
X04627D03*
X0469Y0834D03*
X04732Y07972D03*
X04243Y07634D03*
X04311Y07681D03*
X03559Y07575D03*
X03545Y07548D03*
X0394Y0857D03*
X04005Y08663D03*
X0394Y08749D03*
X04185Y09184D03*
X04253Y09231D03*
X03032Y07552D03*
X03159Y07494D03*
X03116Y07496D03*
X04654Y07525D03*
X04607Y07593D03*
X01844Y0193D03*
X01881Y01979D03*
X01594Y02508D03*
X01521Y02463D03*
X01071Y01863D03*
X011Y019D03*
X02052Y0449D03*
X01889Y04325D03*
X00824Y02697D03*
X00888Y02726D03*
X00722Y02722D03*
X00654D03*
X02026Y0146D03*
X0119Y02463D03*
X01258Y0251D03*
X00889Y02437D03*
X0089Y02383D03*
X00866Y0241D03*
X00801Y01687D03*
X0074Y01645D03*
X00684Y01687D03*
X0088Y026D03*
X00809Y02573D03*
X00759Y02627D03*
X00838Y01846D03*
X0077Y01907D03*
X00712Y01958D03*
X02904Y04373D03*
X02865D03*
X02864Y04413D03*
X02903Y04533D03*
X02904Y04452D03*
X02865Y04533D03*
X02903Y0461D03*
X03258Y04806D03*
Y04768D03*
X03337Y04846D03*
X03416Y04924D03*
X03219Y05113D03*
X03022Y04728D03*
X03332Y04733D03*
X03061Y04688D03*
X03376D03*
X03416Y04728D03*
X03219Y04688D03*
X03258Y04688D03*
X03101Y04728D03*
X0314Y04767D03*
X03298Y04728D03*
X03258D03*
X03376D03*
X03061Y04613D03*
X03456Y04964D03*
X0521Y06239D03*
Y06312D03*
Y06348D03*
Y06385D03*
Y06421D03*
Y06457D03*
X0483Y06306D03*
Y06342D03*
Y06491D03*
Y06565D03*
Y06602D03*
X05452Y07077D03*
X0546Y071D03*
X0543Y0709D03*
X0518Y0718D03*
X05315Y07017D03*
X05315Y06976D03*
X0518Y0694D03*
Y07017D03*
Y071D03*
X0543Y06386D03*
X05393Y0639D03*
X05095Y0718D03*
X05119Y0694D03*
Y071D03*
X05119Y07017D03*
X05383Y07125D03*
X05374Y0709D03*
X05493Y071D03*
X05474Y0693D03*
X05474Y06966D03*
X05448Y06965D03*
X04871Y0679D03*
X05105Y06195D03*
X05164D03*
X05303Y06672D03*
Y06604D03*
X05507Y06386D03*
X0546Y0639D03*
X046Y06348D03*
X0457Y0633D03*
X0493Y0679D03*
X05303Y06732D03*
Y06543D03*
X0548Y0627D03*
X05409D03*
X05408Y06512D03*
X0548D03*
X0466Y06342D03*
Y06417D03*
Y06527D03*
Y06564D03*
Y06602D03*
X04744Y06602D03*
X04745Y06564D03*
X04744Y06491D03*
X04744Y06416D03*
X04743Y0638D03*
X0529Y06203D03*
X0529Y06239D03*
X0529Y06275D03*
X0529Y06311D03*
X05291Y06348D03*
X05291Y06385D03*
X05291Y06421D03*
X05291Y06457D03*
X05291Y06493D03*
X05371Y06203D03*
Y06239D03*
Y06275D03*
Y06311D03*
Y06348D03*
X05373Y06386D03*
Y06421D03*
Y06457D03*
Y06493D03*
X03263Y05239D03*
X02056Y05342D03*
X01988Y05695D03*
X02081Y05695D03*
X03218Y05224D03*
X03258Y05279D03*
X0322Y05279D03*
X02207Y0524D03*
X02239Y05376D03*
X0228Y05455D03*
X02289Y05496D03*
X00984Y04192D03*
X00926Y04258D03*
X00612Y04746D03*
X00544Y047D03*
X01022Y04871D03*
X0077Y04342D03*
X00678Y04234D03*
X00823Y04447D03*
X00895Y04552D03*
X01529Y04612D03*
X01579Y04666D03*
X02169Y04055D03*
X02127Y04009D03*
X02083Y0406D03*
X01588Y04191D03*
X01754Y04187D03*
X01931Y05678D03*
X03229Y06484D03*
X03272Y06485D03*
X02967Y0615D03*
X02924Y06149D03*
X03111Y06023D03*
X02878Y05997D03*
X03456Y05472D03*
X03258Y05318D03*
X02287Y0552D03*
X03299Y0532D03*
X02107Y05628D03*
X02166Y05568D03*
X02274Y05564D03*
X02274Y05601D03*
X02239Y05417D03*
X02128Y05239D03*
X02167D03*
X02087D03*
X01921Y05525D03*
X01879Y05544D03*
X0183Y0519D03*
X02029Y05293D03*
X01877Y052D03*
X01872Y05263D03*
Y05314D03*
X01988Y05293D03*
X01819Y05228D03*
X01944Y0507D03*
X01789Y0519D03*
X01931Y05594D03*
X01985Y05638D03*
X02038Y05384D03*
X02146Y0559D03*
X02088Y05642D03*
X02068Y05628D03*
X03809Y04413D03*
X03809Y05043D03*
X02904Y0473D03*
Y04413D03*
Y0457D03*
X03298Y04373D03*
X0314D03*
X03691Y04334D03*
X03613Y04373D03*
X03454D03*
X01916Y05555D03*
X01896Y05589D03*
X01884Y05601D03*
X0183Y0559D03*
X01853D03*
X01861Y05501D03*
X01789Y05314D03*
X01667Y05774D03*
X0155Y0562D03*
X017Y05314D03*
X0155Y05433D03*
X00993Y05351D03*
X00893Y05428D03*
X00993Y05451D03*
X00891Y05531D03*
X00802Y0581D03*
X02009Y05628D03*
X02904Y05121D03*
Y04806D03*
Y04491D03*
Y04649D03*
Y04964D03*
X03809Y04491D03*
X03691Y04373D03*
X03376D03*
X03219D03*
X02865Y04334D03*
X03731Y04452D03*
Y04491D03*
Y04531D03*
X03573Y0457D03*
X03613Y04413D03*
Y04491D03*
X03652Y04531D03*
X03691Y04413D03*
X03416Y0461D03*
X03455Y04413D03*
Y04491D03*
X03534Y04452D03*
X03258Y0457D03*
Y04531D03*
Y04491D03*
Y04452D03*
Y04413D03*
X03298Y04491D03*
Y0457D03*
Y0461D03*
X03337Y04491D03*
Y04531D03*
Y0457D03*
Y0461D03*
X03376Y04491D03*
Y0461D03*
X03101Y0457D03*
Y04413D03*
X0314Y04452D03*
X03219Y04491D03*
Y04531D03*
Y0457D03*
X03061Y04531D03*
Y04452D03*
X02983Y0457D03*
X02943Y04413D03*
Y0457D03*
X03731Y04688D03*
X03691D03*
Y04728D03*
Y04767D03*
Y04885D03*
X03652Y04688D03*
Y04767D03*
X03613Y04688D03*
Y04728D03*
Y04767D03*
Y04885D03*
X03574Y04649D03*
X03573Y04728D03*
Y04767D03*
Y04806D03*
X03534Y04649D03*
X03534Y04728D03*
Y04767D03*
Y04806D03*
X03495Y04649D03*
X03494Y04688D03*
Y04767D03*
Y04806D03*
X03455Y04728D03*
X03416Y04688D03*
X03377Y04649D03*
X03338D03*
X03337Y04688D03*
X03731Y04964D03*
X03731Y05239D03*
X03652Y05161D03*
Y052D03*
X03613Y05121D03*
Y05161D03*
Y052D03*
Y05239D03*
X03573Y05161D03*
Y052D03*
X03534Y05121D03*
Y05161D03*
Y052D03*
Y05239D03*
X03494Y05082D03*
Y05121D03*
Y05161D03*
Y05239D03*
X03455Y05043D03*
Y05082D03*
Y05121D03*
Y05161D03*
Y052D03*
Y05239D03*
X03416Y05003D03*
Y05043D03*
Y05121D03*
Y052D03*
Y05239D03*
X03376Y05003D03*
Y05082D03*
Y05161D03*
Y052D03*
Y05239D03*
X03298Y04649D03*
X03298Y04688D03*
X03179Y04767D03*
Y04885D03*
Y05121D03*
Y05161D03*
Y052D03*
Y05239D03*
X0314Y04846D03*
Y05082D03*
Y05161D03*
Y052D03*
Y05239D03*
X03101Y04846D03*
Y05239D03*
Y052D03*
Y05161D03*
Y05121D03*
X03061Y04924D03*
Y04767D03*
X03062Y04649D03*
X03061Y052D03*
Y05161D03*
Y05121D03*
Y05003D03*
X03022Y04924D03*
Y04846D03*
Y05239D03*
Y052D03*
X02983Y04924D03*
X02983Y04649D03*
X02983Y05043D03*
X02983Y04964D03*
X02943Y04924D03*
Y04728D03*
X05073Y06278D03*
Y06719D03*
X05165Y06655D03*
Y06624D03*
X05134Y06687D03*
Y06655D03*
Y06624D03*
X05073Y06656D03*
Y06687D03*
X04976Y06655D03*
X05165Y06561D03*
Y06592D03*
X05134D03*
Y06561D03*
X04945Y06372D03*
Y06561D03*
Y06529D03*
X05165Y06718D03*
X05134D03*
X05165Y0634D03*
Y06309D03*
X05134Y06277D03*
Y06246D03*
X05165Y06277D03*
Y06372D03*
X05134Y06498D03*
X05165Y06529D03*
X04945Y06246D03*
Y0634D03*
X04884Y06593D03*
Y06687D03*
Y06656D03*
Y06498D03*
X04976Y06592D03*
X04945D03*
Y06718D03*
X01008Y03566D03*
G54D209*
X00962Y08178D03*
X00918Y08264D03*
X00962Y08343D03*
X00918Y0843D03*
X00962Y08508D03*
X01172Y03116D03*
G54D210*
X01887Y08946D03*
X01947D03*
X02007D03*
X02067D03*
X02037Y08916D03*
X01917D03*
X02067Y08886D03*
X02007D03*
X01947D03*
X01887D03*
X02037Y08856D03*
X01917D03*
X02067Y08826D03*
X02007D03*
X01947D03*
X01887D03*
X02037Y08796D03*
X01917D03*
X02067Y08766D03*
X02007D03*
X01947D03*
X01887D03*
X02037Y08736D03*
X01977D03*
X01917D03*
X02067Y08706D03*
X02007D03*
X01947D03*
X02037Y08676D03*
X01977D03*
X02067Y08646D03*
X02007D03*
X01947D03*
X01887D03*
Y08706D03*
X01917Y08676D03*
X01977Y08916D03*
Y08856D03*
Y08796D03*
X00351Y02303D03*
Y02363D03*
Y02423D03*
Y02483D03*
X00381Y02453D03*
Y02333D03*
X00411Y02483D03*
Y02423D03*
Y02363D03*
Y02303D03*
X00441Y02453D03*
Y02333D03*
X00471Y02483D03*
Y02423D03*
Y02363D03*
Y02303D03*
X00501Y02453D03*
Y02333D03*
X00531Y02483D03*
Y02423D03*
Y02363D03*
Y02303D03*
X00561Y02453D03*
Y02393D03*
Y02333D03*
X00591Y02483D03*
Y02423D03*
Y02363D03*
X00621Y02453D03*
Y02393D03*
X00651Y02483D03*
Y02423D03*
Y02363D03*
Y02303D03*
X00591D03*
X00621Y02333D03*
X00381Y02393D03*
X00441D03*
X00501D03*
G54D211*
X0275Y0772D03*
X02794D03*
X02837D03*
X0288D03*
X02924D03*
X0275Y07676D03*
X02794D03*
X02837D03*
X0288D03*
X02924D03*
X0275Y07633D03*
X02794D03*
X02837D03*
X0288D03*
X02924D03*
X0275Y0759D03*
X02794D03*
X02837D03*
X0288D03*
X02924D03*
X0275Y07546D03*
X02794D03*
X02837D03*
X0288D03*
X02924D03*
X05393Y06979D03*
X05416Y07017D03*
X05371D03*
X05393Y07054D03*
X01234Y0699D03*
Y07033D03*
Y07076D03*
X01277Y0699D03*
Y07033D03*
Y07076D03*
X01321Y0699D03*
Y07033D03*
Y07076D03*
X01364Y0699D03*
Y07033D03*
Y07076D03*
X01407Y0699D03*
Y07033D03*
Y07076D03*
X01451Y0699D03*
Y07033D03*
Y07076D03*
X01494Y0699D03*
Y07033D03*
Y07076D03*
X01537Y0699D03*
Y07033D03*
Y07076D03*
X01581Y0699D03*
Y07033D03*
Y07076D03*
X02554Y00998D03*
Y00955D03*
Y00912D03*
Y00868D03*
Y00825D03*
X02511Y00998D03*
Y00955D03*
Y00912D03*
Y00868D03*
Y00825D03*
X02468Y00998D03*
Y00955D03*
Y00912D03*
Y00868D03*
Y00825D03*
X02424Y00998D03*
Y00955D03*
Y00912D03*
Y00868D03*
Y00825D03*
X02381Y00998D03*
Y00955D03*
Y00912D03*
Y00868D03*
Y00825D03*
X01243Y00876D03*
X012D03*
X01243Y0092D03*
X012D03*
X0223Y03395D03*
Y03438D03*
Y03482D03*
Y03525D03*
Y03568D03*
X02274Y03395D03*
Y03438D03*
Y03482D03*
Y03525D03*
Y03568D03*
X02317Y03395D03*
Y03438D03*
Y03482D03*
Y03525D03*
Y03568D03*
X0236Y03395D03*
Y03438D03*
Y03482D03*
Y03525D03*
Y03568D03*
X02404Y03395D03*
Y03438D03*
Y03482D03*
Y03525D03*
Y03568D03*
M02*