%FSTAX23Y23*%
%MOIN*%
%SFA1B1*%

%IPPOS*%
%ADD10C,0.007874*%
%ADD11C,0.010000*%
%ADD13C,0.009843*%
%ADD14C,0.005000*%
%ADD17C,0.006000*%
%ADD18C,0.006890*%
%ADD190C,0.004000*%
%ADD231C,0.003937*%
%ADD232C,0.002559*%
%LNprob_s7cas_pcb-1*%
%LPD*%
G54D10*
X02385Y08634D02*
Y08654D01*
X02365D02*
X02385D01*
X02404*
X02385D02*
Y08674D01*
X02344Y08738D02*
X02425D01*
X02344Y0857D02*
Y08738D01*
Y0857D02*
X02425D01*
Y08738*
X00595Y02697D02*
X00763D01*
Y02616D02*
Y02697D01*
X00595Y02616D02*
X00763D01*
X00595D02*
Y02697D01*
X00659Y02657D02*
X00679D01*
Y02676*
Y02637D02*
Y02657D01*
X00699*
G54D11*
X03331Y03605D02*
D01*
X03331Y03607*
X03331Y03609*
X0333Y03611*
X0333Y03613*
X03329Y03615*
X03328Y03618*
X03327Y0362*
X03326Y03621*
X03325Y03623*
X03324Y03625*
X03322Y03627*
X03321Y03628*
X03319Y0363*
X03317Y03631*
X03315Y03632*
X03313Y03633*
X03311Y03634*
X03309Y03635*
X03307Y03636*
X03305Y03636*
X03302Y03636*
X033Y03637*
X03298*
X03296Y03636*
X03294Y03636*
X03291Y03636*
X03289Y03635*
X03287Y03634*
X03285Y03633*
X03283Y03632*
X03281Y03631*
X03279Y0363*
X03278Y03628*
X03276Y03627*
X03275Y03625*
X03273Y03623*
X03272Y03621*
X03271Y0362*
X0327Y03618*
X03269Y03615*
X03268Y03613*
X03268Y03611*
X03267Y03609*
X03267Y03607*
X03267Y03605*
X03267Y03602*
X03267Y036*
X03268Y03598*
X03268Y03596*
X03269Y03594*
X0327Y03592*
X03271Y03589*
X03272Y03588*
X03273Y03586*
X03275Y03584*
X03276Y03582*
X03278Y03581*
X03279Y03579*
X03281Y03578*
X03283Y03577*
X03285Y03576*
X03287Y03575*
X03289Y03574*
X03291Y03573*
X03294Y03573*
X03296Y03573*
X03298Y03573*
X033*
X03302Y03573*
X03305Y03573*
X03307Y03573*
X03309Y03574*
X03311Y03575*
X03313Y03576*
X03315Y03577*
X03317Y03578*
X03319Y03579*
X03321Y03581*
X03322Y03582*
X03324Y03584*
X03325Y03586*
X03326Y03588*
X03327Y03589*
X03328Y03592*
X03329Y03594*
X0333Y03596*
X0333Y03598*
X03331Y036*
X03331Y03602*
X03331Y03605*
X03239Y09223D02*
D01*
X03239Y09225*
X03239Y09228*
X03239Y0923*
X03238Y09232*
X03237Y09234*
X03237Y09236*
X03236Y09238*
X03234Y0924*
X03233Y09242*
X03232Y09244*
X0323Y09245*
X03229Y09247*
X03227Y09248*
X03225Y0925*
X03223Y09251*
X03221Y09252*
X03219Y09253*
X03217Y09254*
X03215Y09254*
X03213Y09255*
X03211Y09255*
X03208Y09255*
X03206*
X03204Y09255*
X03202Y09255*
X032Y09254*
X03197Y09254*
X03195Y09253*
X03193Y09252*
X03191Y09251*
X03189Y0925*
X03188Y09248*
X03186Y09247*
X03184Y09245*
X03183Y09244*
X03181Y09242*
X0318Y0924*
X03179Y09238*
X03178Y09236*
X03177Y09234*
X03177Y09232*
X03176Y0923*
X03176Y09228*
X03175Y09225*
X03175Y09223*
X03175Y09221*
X03176Y09219*
X03176Y09216*
X03177Y09214*
X03177Y09212*
X03178Y0921*
X03179Y09208*
X0318Y09206*
X03181Y09204*
X03183Y09202*
X03184Y09201*
X03186Y09199*
X03188Y09198*
X03189Y09197*
X03191Y09195*
X03193Y09194*
X03195Y09193*
X03197Y09193*
X032Y09192*
X03202Y09192*
X03204Y09191*
X03206Y09191*
X03208*
X03211Y09191*
X03213Y09192*
X03215Y09192*
X03217Y09193*
X03219Y09193*
X03221Y09194*
X03223Y09195*
X03225Y09197*
X03227Y09198*
X03229Y09199*
X0323Y09201*
X03232Y09202*
X03233Y09204*
X03234Y09206*
X03236Y09208*
X03237Y0921*
X03237Y09212*
X03238Y09214*
X03239Y09216*
X03239Y09219*
X03239Y09221*
X03239Y09223*
X04786Y08366D02*
D01*
X04786Y08368*
X04786Y0837*
X04786Y08373*
X04785Y08375*
X04784Y08377*
X04783Y08379*
X04783Y08381*
X04781Y08383*
X0478Y08385*
X04779Y08387*
X04777Y08388*
X04776Y0839*
X04774Y08391*
X04772Y08393*
X0477Y08394*
X04768Y08395*
X04766Y08396*
X04764Y08396*
X04762Y08397*
X0476Y08398*
X04758Y08398*
X04755Y08398*
X04753*
X04751Y08398*
X04749Y08398*
X04746Y08397*
X04744Y08396*
X04742Y08396*
X0474Y08395*
X04738Y08394*
X04736Y08393*
X04735Y08391*
X04733Y0839*
X04731Y08388*
X0473Y08387*
X04728Y08385*
X04727Y08383*
X04726Y08381*
X04725Y08379*
X04724Y08377*
X04723Y08375*
X04723Y08373*
X04723Y0837*
X04722Y08368*
X04722Y08366*
X04722Y08364*
X04723Y08362*
X04723Y08359*
X04723Y08357*
X04724Y08355*
X04725Y08353*
X04726Y08351*
X04727Y08349*
X04728Y08347*
X0473Y08345*
X04731Y08344*
X04733Y08342*
X04735Y08341*
X04736Y08339*
X04738Y08338*
X0474Y08337*
X04742Y08336*
X04744Y08336*
X04746Y08335*
X04749Y08334*
X04751Y08334*
X04753Y08334*
X04755*
X04758Y08334*
X0476Y08334*
X04762Y08335*
X04764Y08336*
X04766Y08336*
X04768Y08337*
X0477Y08338*
X04772Y08339*
X04774Y08341*
X04776Y08342*
X04777Y08344*
X04779Y08345*
X0478Y08347*
X04781Y08349*
X04783Y08351*
X04783Y08353*
X04784Y08355*
X04785Y08357*
X04786Y08359*
X04786Y08362*
X04786Y08364*
X04786Y08366*
X01077Y04732D02*
D01*
X01077Y04734*
X01077Y04736*
X01076Y04739*
X01076Y04741*
X01075Y04743*
X01074Y04745*
X01073Y04747*
X01072Y04749*
X01071Y04751*
X01069Y04753*
X01068Y04754*
X01066Y04756*
X01065Y04757*
X01063Y04759*
X01061Y0476*
X01059Y04761*
X01057Y04762*
X01055Y04762*
X01053Y04763*
X0105Y04764*
X01048Y04764*
X01046Y04764*
X01044*
X01042Y04764*
X01039Y04764*
X01037Y04763*
X01035Y04762*
X01033Y04762*
X01031Y04761*
X01029Y0476*
X01027Y04759*
X01025Y04757*
X01024Y04756*
X01022Y04754*
X0102Y04753*
X01019Y04751*
X01018Y04749*
X01017Y04747*
X01016Y04745*
X01015Y04743*
X01014Y04741*
X01014Y04739*
X01013Y04736*
X01013Y04734*
X01013Y04732*
X01013Y0473*
X01013Y04728*
X01014Y04725*
X01014Y04723*
X01015Y04721*
X01016Y04719*
X01017Y04717*
X01018Y04715*
X01019Y04713*
X0102Y04711*
X01022Y0471*
X01024Y04708*
X01025Y04707*
X01027Y04705*
X01029Y04704*
X01031Y04703*
X01033Y04702*
X01035Y04702*
X01037Y04701*
X01039Y047*
X01042Y047*
X01044Y047*
X01046*
X01048Y047*
X0105Y047*
X01053Y04701*
X01055Y04702*
X01057Y04702*
X01059Y04703*
X01061Y04704*
X01063Y04705*
X01065Y04707*
X01066Y04708*
X01068Y0471*
X01069Y04711*
X01071Y04713*
X01072Y04715*
X01073Y04717*
X01074Y04719*
X01075Y04721*
X01076Y04723*
X01076Y04725*
X01077Y04728*
X01077Y0473*
X01077Y04732*
X02205Y0649D02*
D01*
X02205Y06492*
X02205Y06494*
X02204Y06496*
X02204Y06498*
X02203Y06501*
X02202Y06503*
X02201Y06505*
X022Y06507*
X02199Y06508*
X02198Y0651*
X02196Y06512*
X02194Y06513*
X02193Y06515*
X02191Y06516*
X02189Y06517*
X02187Y06518*
X02185Y06519*
X02183Y0652*
X02181Y06521*
X02179Y06521*
X02176Y06521*
X02174Y06522*
X02172*
X0217Y06521*
X02167Y06521*
X02165Y06521*
X02163Y0652*
X02161Y06519*
X02159Y06518*
X02157Y06517*
X02155Y06516*
X02153Y06515*
X02152Y06513*
X0215Y06512*
X02148Y0651*
X02147Y06508*
X02146Y06507*
X02145Y06505*
X02144Y06503*
X02143Y06501*
X02142Y06498*
X02142Y06496*
X02141Y06494*
X02141Y06492*
X02141Y0649*
X02141Y06487*
X02141Y06485*
X02142Y06483*
X02142Y06481*
X02143Y06479*
X02144Y06477*
X02145Y06475*
X02146Y06473*
X02147Y06471*
X02148Y06469*
X0215Y06467*
X02152Y06466*
X02153Y06464*
X02155Y06463*
X02157Y06462*
X02159Y06461*
X02161Y0646*
X02163Y06459*
X02165Y06459*
X02167Y06458*
X0217Y06458*
X02172Y06458*
X02174*
X02176Y06458*
X02179Y06458*
X02181Y06459*
X02183Y06459*
X02185Y0646*
X02187Y06461*
X02189Y06462*
X02191Y06463*
X02193Y06464*
X02194Y06466*
X02196Y06467*
X02198Y06469*
X02199Y06471*
X022Y06473*
X02201Y06475*
X02202Y06477*
X02203Y06479*
X02204Y06481*
X02204Y06483*
X02205Y06485*
X02205Y06487*
X02205Y0649*
X01882Y05111D02*
D01*
X01882Y05111*
X01882Y05111*
X01882Y05112*
X01882Y05112*
X01882Y05112*
X01882Y05112*
X01882Y05112*
X01882Y05113*
X01882Y05113*
X01881Y05113*
X01881Y05113*
X01881Y05113*
X01881Y05113*
X01881Y05114*
X01881Y05114*
X0188Y05114*
X0188Y05114*
X0188Y05114*
X0188Y05114*
X0188Y05114*
X01879Y05114*
X01879Y05114*
X01879*
X01879Y05114*
X01879Y05114*
X01878Y05114*
X01878Y05114*
X01878Y05114*
X01878Y05114*
X01877Y05114*
X01877Y05114*
X01877Y05113*
X01877Y05113*
X01877Y05113*
X01877Y05113*
X01877Y05113*
X01876Y05113*
X01876Y05112*
X01876Y05112*
X01876Y05112*
X01876Y05112*
X01876Y05112*
X01876Y05111*
X01876Y05111*
X01876Y05111*
X01876Y05111*
X01876Y05111*
X01876Y0511*
X01876Y0511*
X01876Y0511*
X01876Y0511*
X01876Y05109*
X01876Y05109*
X01877Y05109*
X01877Y05109*
X01877Y05109*
X01877Y05109*
X01877Y05109*
X01877Y05108*
X01877Y05108*
X01878Y05108*
X01878Y05108*
X01878Y05108*
X01878Y05108*
X01879Y05108*
X01879Y05108*
X01879Y05108*
X01879*
X01879Y05108*
X0188Y05108*
X0188Y05108*
X0188Y05108*
X0188Y05108*
X0188Y05108*
X01881Y05108*
X01881Y05108*
X01881Y05109*
X01881Y05109*
X01881Y05109*
X01881Y05109*
X01882Y05109*
X01882Y05109*
X01882Y05109*
X01882Y0511*
X01882Y0511*
X01882Y0511*
X01882Y0511*
X01882Y05111*
X01882Y05111*
X01882Y05111*
X01152Y01909D02*
D01*
X01152Y01911*
X01152Y01914*
X01152Y01916*
X01151Y01918*
X0115Y0192*
X0115Y01922*
X01149Y01924*
X01147Y01926*
X01146Y01928*
X01145Y0193*
X01143Y01931*
X01142Y01933*
X0114Y01934*
X01138Y01936*
X01136Y01937*
X01134Y01938*
X01132Y01939*
X0113Y0194*
X01128Y0194*
X01126Y01941*
X01124Y01941*
X01121Y01941*
X01119*
X01117Y01941*
X01115Y01941*
X01113Y0194*
X0111Y0194*
X01108Y01939*
X01106Y01938*
X01104Y01937*
X01102Y01936*
X01101Y01934*
X01099Y01933*
X01097Y01931*
X01096Y0193*
X01094Y01928*
X01093Y01926*
X01092Y01924*
X01091Y01922*
X0109Y0192*
X0109Y01918*
X01089Y01916*
X01089Y01914*
X01088Y01911*
X01088Y01909*
X01088Y01907*
X01089Y01905*
X01089Y01902*
X0109Y019*
X0109Y01898*
X01091Y01896*
X01092Y01894*
X01093Y01892*
X01094Y0189*
X01096Y01888*
X01097Y01887*
X01099Y01885*
X01101Y01884*
X01102Y01883*
X01104Y01881*
X01106Y0188*
X01108Y01879*
X0111Y01879*
X01113Y01878*
X01115Y01878*
X01117Y01877*
X01119Y01877*
X01121*
X01124Y01877*
X01126Y01878*
X01128Y01878*
X0113Y01879*
X01132Y01879*
X01134Y0188*
X01136Y01881*
X01138Y01883*
X0114Y01884*
X01142Y01885*
X01143Y01887*
X01145Y01888*
X01146Y0189*
X01147Y01892*
X01149Y01894*
X0115Y01896*
X0115Y01898*
X01151Y019*
X01152Y01902*
X01152Y01905*
X01152Y01907*
X01152Y01909*
X02759Y03687D02*
X03379D01*
X02759Y02942D02*
Y03687D01*
Y02942D02*
X03379D01*
Y03687*
X03125Y09303D02*
X0387D01*
Y08683D02*
Y09303D01*
X03125Y08683D02*
X0387D01*
X03125D02*
Y09303D01*
X04672Y07826D02*
Y08446D01*
Y07826D02*
X05417D01*
Y08446*
X04672D02*
X05417D01*
X00962Y04192D02*
Y04812D01*
Y04192D02*
X01707D01*
Y04812*
X00962D02*
X01707D01*
X02091Y0657D02*
X02836D01*
Y0595D02*
Y0657D01*
X02091Y0595D02*
X02836D01*
X02091D02*
Y0657D01*
X01062Y01446D02*
Y01981D01*
X01972*
X01062Y01446D02*
X01972D01*
Y01981*
G54D13*
X00915Y08933D02*
D01*
X00915Y08933*
X00915Y08933*
X00915Y08933*
X00915Y08933*
X00915Y08934*
X00915Y08934*
X00915Y08934*
X00915Y08934*
X00914Y08934*
X00914Y08934*
X00914Y08934*
X00914Y08934*
X00914Y08934*
X00914Y08934*
X00914Y08934*
X00914Y08934*
X00914Y08934*
X00914Y08935*
X00914Y08935*
X00913Y08935*
X00913Y08935*
X00913Y08935*
X00913*
X00913Y08935*
X00913Y08935*
X00913Y08935*
X00913Y08935*
X00913Y08934*
X00912Y08934*
X00912Y08934*
X00912Y08934*
X00912Y08934*
X00912Y08934*
X00912Y08934*
X00912Y08934*
X00912Y08934*
X00912Y08934*
X00912Y08934*
X00912Y08934*
X00912Y08934*
X00912Y08933*
X00912Y08933*
X00912Y08933*
X00912Y08933*
X00912Y08933*
X00912Y08933*
X00912Y08933*
X00912Y08933*
X00912Y08933*
X00912Y08932*
X00912Y08932*
X00912Y08932*
X00912Y08932*
X00912Y08932*
X00912Y08932*
X00912Y08932*
X00912Y08932*
X00912Y08932*
X00912Y08932*
X00912Y08932*
X00912Y08931*
X00913Y08931*
X00913Y08931*
X00913Y08931*
X00913Y08931*
X00913Y08931*
X00913Y08931*
X00913*
X00913Y08931*
X00913Y08931*
X00914Y08931*
X00914Y08931*
X00914Y08931*
X00914Y08931*
X00914Y08932*
X00914Y08932*
X00914Y08932*
X00914Y08932*
X00914Y08932*
X00914Y08932*
X00914Y08932*
X00915Y08932*
X00915Y08932*
X00915Y08932*
X00915Y08932*
X00915Y08933*
X00915Y08933*
X00915Y08933*
X00915Y08933*
X00915Y08933*
G54D14*
X04616Y04964D02*
D01*
X04616Y04969*
X04615Y04973*
X04614Y04978*
X04613Y04982*
X04612Y04986*
X0461Y04991*
X04608Y04995*
X04606Y04999*
X04603Y05002*
X04601Y05006*
X04598Y05009*
X04594Y05012*
X04591Y05015*
X04587Y05018*
X04583Y0502*
X04579Y05023*
X04575Y05024*
X04571Y05026*
X04567Y05027*
X04562Y05028*
X04558Y05029*
X04553Y05029*
X04549*
X04544Y05029*
X0454Y05028*
X04535Y05027*
X04531Y05026*
X04527Y05024*
X04522Y05023*
X04518Y0502*
X04515Y05018*
X04511Y05015*
X04507Y05012*
X04504Y05009*
X04501Y05006*
X04498Y05002*
X04496Y04999*
X04494Y04995*
X04492Y04991*
X0449Y04986*
X04488Y04982*
X04487Y04978*
X04487Y04973*
X04486Y04969*
X04486Y04964*
X04486Y0496*
X04487Y04955*
X04487Y04951*
X04488Y04946*
X0449Y04942*
X04492Y04938*
X04494Y04934*
X04496Y0493*
X04498Y04926*
X04501Y04922*
X04504Y04919*
X04507Y04916*
X04511Y04913*
X04515Y0491*
X04518Y04908*
X04522Y04906*
X04527Y04904*
X04531Y04902*
X04535Y04901*
X0454Y049*
X04544Y049*
X04549Y04899*
X04553*
X04558Y049*
X04562Y049*
X04567Y04901*
X04571Y04902*
X04575Y04904*
X04579Y04906*
X04583Y04908*
X04587Y0491*
X04591Y04913*
X04594Y04916*
X04598Y04919*
X04601Y04922*
X04603Y04926*
X04606Y0493*
X04608Y04934*
X0461Y04938*
X04612Y04942*
X04613Y04946*
X04614Y04951*
X04615Y04955*
X04616Y0496*
X04616Y04964*
X04673D02*
D01*
X04673Y04973*
X04672Y04981*
X0467Y0499*
X04668Y04998*
X04666Y05006*
X04662Y05014*
X04659Y05021*
X04654Y05029*
X0465Y05036*
X04644Y05043*
X04639Y05049*
X04633Y05055*
X04626Y0506*
X04619Y05065*
X04612Y0507*
X04604Y05074*
X04597Y05077*
X04589Y0508*
X0458Y05083*
X04572Y05084*
X04564Y05086*
X04555Y05086*
X04547*
X04538Y05086*
X0453Y05084*
X04521Y05083*
X04513Y0508*
X04505Y05077*
X04497Y05074*
X0449Y0507*
X04483Y05065*
X04476Y0506*
X04469Y05055*
X04463Y05049*
X04457Y05043*
X04452Y05036*
X04447Y05029*
X04443Y05021*
X04439Y05014*
X04436Y05006*
X04434Y04998*
X04432Y0499*
X0443Y04981*
X04429Y04973*
X04429Y04964*
X04429Y04956*
X0443Y04947*
X04432Y04939*
X04434Y04931*
X04436Y04922*
X04439Y04915*
X04443Y04907*
X04447Y04899*
X04452Y04892*
X04457Y04886*
X04463Y04879*
X04469Y04873*
X04476Y04868*
X04483Y04863*
X0449Y04858*
X04497Y04854*
X04505Y04851*
X04513Y04848*
X04521Y04846*
X0453Y04844*
X04538Y04843*
X04547Y04842*
X04555*
X04564Y04843*
X04572Y04844*
X0458Y04846*
X04589Y04848*
X04597Y04851*
X04604Y04854*
X04612Y04858*
X04619Y04863*
X04626Y04868*
X04633Y04873*
X04639Y04879*
X04644Y04886*
X0465Y04892*
X04654Y04899*
X04659Y04907*
X04662Y04915*
X04666Y04922*
X04668Y04931*
X0467Y04939*
X04672Y04947*
X04673Y04956*
X04673Y04964*
X04408Y04029D02*
D01*
X04407Y04033*
X04407Y04038*
X04406Y04042*
X04405Y04047*
X04404Y04051*
X04402Y04055*
X044Y04059*
X04398Y04063*
X04395Y04067*
X04392Y04071*
X04389Y04074*
X04386Y04077*
X04383Y0408*
X04379Y04083*
X04375Y04085*
X04371Y04087*
X04367Y04089*
X04363Y04091*
X04358Y04092*
X04354Y04093*
X04349Y04093*
X04345Y04094*
X0434*
X04336Y04093*
X04331Y04093*
X04327Y04092*
X04322Y04091*
X04318Y04089*
X04314Y04087*
X0431Y04085*
X04306Y04083*
X04303Y0408*
X04299Y04077*
X04296Y04074*
X04293Y04071*
X0429Y04067*
X04287Y04063*
X04285Y04059*
X04283Y04055*
X04282Y04051*
X0428Y04047*
X04279Y04042*
X04278Y04038*
X04278Y04033*
X04278Y04029*
X04278Y04024*
X04278Y0402*
X04279Y04015*
X0428Y04011*
X04282Y04007*
X04283Y04002*
X04285Y03998*
X04287Y03994*
X0429Y03991*
X04293Y03987*
X04296Y03984*
X04299Y0398*
X04303Y03978*
X04306Y03975*
X0431Y03973*
X04314Y0397*
X04318Y03969*
X04322Y03967*
X04327Y03966*
X04331Y03965*
X04336Y03964*
X0434Y03964*
X04345*
X04349Y03964*
X04354Y03965*
X04358Y03966*
X04363Y03967*
X04367Y03969*
X04371Y0397*
X04375Y03973*
X04379Y03975*
X04383Y03978*
X04386Y0398*
X04389Y03984*
X04392Y03987*
X04395Y03991*
X04398Y03994*
X044Y03998*
X04402Y04002*
X04404Y04007*
X04405Y04011*
X04406Y04015*
X04407Y0402*
X04407Y04024*
X04408Y04029*
X04465D02*
D01*
X04464Y04037*
X04463Y04046*
X04462Y04054*
X0446Y04062*
X04457Y04071*
X04454Y04078*
X0445Y04086*
X04446Y04093*
X04441Y04101*
X04436Y04107*
X0443Y04114*
X04424Y04119*
X04418Y04125*
X04411Y0413*
X04404Y04134*
X04396Y04138*
X04388Y04142*
X0438Y04145*
X04372Y04147*
X04364Y04149*
X04355Y0415*
X04347Y04151*
X04338*
X0433Y0415*
X04321Y04149*
X04313Y04147*
X04305Y04145*
X04297Y04142*
X04289Y04138*
X04282Y04134*
X04274Y0413*
X04267Y04125*
X04261Y04119*
X04255Y04114*
X04249Y04107*
X04244Y04101*
X04239Y04093*
X04235Y04086*
X04231Y04078*
X04228Y04071*
X04225Y04062*
X04223Y04054*
X04222Y04046*
X04221Y04037*
X04221Y04029*
X04221Y0402*
X04222Y04012*
X04223Y04003*
X04225Y03995*
X04228Y03987*
X04231Y03979*
X04235Y03971*
X04239Y03964*
X04244Y03957*
X04249Y0395*
X04255Y03944*
X04261Y03938*
X04267Y03933*
X04274Y03928*
X04282Y03923*
X04289Y03919*
X04297Y03916*
X04305Y03913*
X04313Y0391*
X04321Y03909*
X0433Y03907*
X04338Y03907*
X04347*
X04355Y03907*
X04364Y03909*
X04372Y0391*
X0438Y03913*
X04388Y03916*
X04396Y03919*
X04404Y03923*
X04411Y03928*
X04418Y03933*
X04424Y03938*
X0443Y03944*
X04436Y0395*
X04441Y03957*
X04446Y03964*
X0445Y03971*
X04454Y03979*
X04457Y03987*
X0446Y03995*
X04462Y04003*
X04463Y04012*
X04464Y0402*
X04465Y04029*
X02412Y04963D02*
D01*
X02412Y04967*
X02411Y04972*
X02411Y04976*
X0241Y04981*
X02408Y04985*
X02406Y04989*
X02405Y04993*
X02402Y04997*
X024Y05001*
X02397Y05005*
X02394Y05008*
X02391Y05011*
X02387Y05014*
X02383Y05017*
X0238Y05019*
X02376Y05021*
X02371Y05023*
X02367Y05025*
X02363Y05026*
X02358Y05027*
X02354Y05027*
X02349Y05028*
X02345*
X0234Y05027*
X02336Y05027*
X02331Y05026*
X02327Y05025*
X02323Y05023*
X02319Y05021*
X02315Y05019*
X02311Y05017*
X02307Y05014*
X02304Y05011*
X023Y05008*
X02297Y05005*
X02295Y05001*
X02292Y04997*
X0229Y04993*
X02288Y04989*
X02286Y04985*
X02285Y04981*
X02284Y04976*
X02283Y04972*
X02282Y04967*
X02282Y04963*
X02282Y04958*
X02283Y04954*
X02284Y04949*
X02285Y04945*
X02286Y04941*
X02288Y04936*
X0229Y04932*
X02292Y04928*
X02295Y04925*
X02297Y04921*
X023Y04918*
X02304Y04915*
X02307Y04912*
X02311Y04909*
X02315Y04907*
X02319Y04904*
X02323Y04903*
X02327Y04901*
X02331Y049*
X02336Y04899*
X0234Y04898*
X02345Y04898*
X02349*
X02354Y04898*
X02358Y04899*
X02363Y049*
X02367Y04901*
X02371Y04903*
X02376Y04904*
X0238Y04907*
X02383Y04909*
X02387Y04912*
X02391Y04915*
X02394Y04918*
X02397Y04921*
X024Y04925*
X02402Y04928*
X02405Y04932*
X02406Y04936*
X02408Y04941*
X0241Y04945*
X02411Y04949*
X02411Y04954*
X02412Y04958*
X02412Y04963*
X02469D02*
D01*
X02469Y04971*
X02468Y0498*
X02467Y04988*
X02464Y04997*
X02462Y05005*
X02459Y05013*
X02455Y0502*
X02451Y05028*
X02446Y05035*
X02441Y05041*
X02435Y05048*
X02429Y05054*
X02422Y05059*
X02415Y05064*
X02408Y05069*
X02401Y05073*
X02393Y05076*
X02385Y05079*
X02377Y05081*
X02368Y05083*
X0236Y05084*
X02351Y05085*
X02343*
X02334Y05084*
X02326Y05083*
X02318Y05081*
X02309Y05079*
X02301Y05076*
X02294Y05073*
X02286Y05069*
X02279Y05064*
X02272Y05059*
X02265Y05054*
X02259Y05048*
X02254Y05041*
X02248Y05035*
X02244Y05028*
X02239Y0502*
X02236Y05013*
X02232Y05005*
X0223Y04997*
X02228Y04988*
X02226Y0498*
X02225Y04971*
X02225Y04963*
X02225Y04954*
X02226Y04946*
X02228Y04938*
X0223Y04929*
X02232Y04921*
X02236Y04913*
X02239Y04906*
X02244Y04898*
X02248Y04891*
X02254Y04884*
X02259Y04878*
X02265Y04872*
X02272Y04867*
X02279Y04862*
X02286Y04857*
X02294Y04853*
X02301Y0485*
X02309Y04847*
X02318Y04844*
X02326Y04843*
X02334Y04841*
X02343Y04841*
X02351*
X0236Y04841*
X02368Y04843*
X02377Y04844*
X02385Y04847*
X02393Y0485*
X02401Y04853*
X02408Y04857*
X02415Y04862*
X02422Y04867*
X02429Y04872*
X02435Y04878*
X02441Y04884*
X02446Y04891*
X02451Y04898*
X02455Y04906*
X02459Y04913*
X02462Y04921*
X02464Y04929*
X02467Y04938*
X02468Y04946*
X02469Y04954*
X02469Y04963*
X03763Y07559D02*
D01*
X03763Y0756*
X03763Y07562*
X03762Y07563*
X03762Y07564*
X03762Y07565*
X03761Y07566*
X03761Y07567*
X0376Y07568*
X0376Y07569*
X03759Y0757*
X03758Y07571*
X03757Y07572*
X03756Y07572*
X03755Y07573*
X03754Y07574*
X03753Y07574*
X03752Y07575*
X03751Y07575*
X0375Y07575*
X03749Y07576*
X03748Y07576*
X03747Y07576*
X03745*
X03744Y07576*
X03743Y07576*
X03742Y07575*
X03741Y07575*
X0374Y07575*
X03739Y07574*
X03738Y07574*
X03737Y07573*
X03736Y07572*
X03735Y07572*
X03734Y07571*
X03733Y0757*
X03733Y07569*
X03732Y07568*
X03731Y07567*
X03731Y07566*
X0373Y07565*
X0373Y07564*
X0373Y07563*
X03729Y07562*
X03729Y0756*
X03729Y07559*
X03729Y07558*
X03729Y07557*
X0373Y07556*
X0373Y07555*
X0373Y07554*
X03731Y07552*
X03731Y07551*
X03732Y0755*
X03733Y07549*
X03733Y07549*
X03734Y07548*
X03735Y07547*
X03736Y07546*
X03737Y07545*
X03738Y07545*
X03739Y07544*
X0374Y07544*
X03741Y07543*
X03742Y07543*
X03743Y07543*
X03744Y07543*
X03745Y07543*
X03747*
X03748Y07543*
X03749Y07543*
X0375Y07543*
X03751Y07543*
X03752Y07544*
X03753Y07544*
X03754Y07545*
X03755Y07545*
X03756Y07546*
X03757Y07547*
X03758Y07548*
X03759Y07549*
X0376Y07549*
X0376Y0755*
X03761Y07551*
X03761Y07552*
X03762Y07554*
X03762Y07555*
X03762Y07556*
X03763Y07557*
X03763Y07558*
X03763Y07559*
X00303Y00225D02*
D01*
X00303Y0023*
X00302Y00234*
X00302Y00239*
X003Y00243*
X00299Y00248*
X00297Y00252*
X00295Y00256*
X00293Y0026*
X00291Y00263*
X00288Y00267*
X00285Y0027*
X00282Y00274*
X00278Y00276*
X00274Y00279*
X00271Y00282*
X00267Y00284*
X00262Y00286*
X00258Y00287*
X00254Y00288*
X00249Y00289*
X00245Y0029*
X0024Y0029*
X00236*
X00231Y0029*
X00227Y00289*
X00222Y00288*
X00218Y00287*
X00214Y00286*
X0021Y00284*
X00206Y00282*
X00202Y00279*
X00198Y00276*
X00195Y00274*
X00191Y0027*
X00188Y00267*
X00185Y00263*
X00183Y0026*
X00181Y00256*
X00179Y00252*
X00177Y00248*
X00176Y00243*
X00174Y00239*
X00174Y00234*
X00173Y0023*
X00173Y00225*
X00173Y00221*
X00174Y00216*
X00174Y00212*
X00176Y00207*
X00177Y00203*
X00179Y00199*
X00181Y00195*
X00183Y00191*
X00185Y00187*
X00188Y00184*
X00191Y0018*
X00195Y00177*
X00198Y00174*
X00202Y00171*
X00206Y00169*
X0021Y00167*
X00214Y00165*
X00218Y00164*
X00222Y00162*
X00227Y00161*
X00231Y00161*
X00236Y0016*
X0024*
X00245Y00161*
X00249Y00161*
X00254Y00162*
X00258Y00164*
X00262Y00165*
X00267Y00167*
X00271Y00169*
X00274Y00171*
X00278Y00174*
X00282Y00177*
X00285Y0018*
X00288Y00184*
X00291Y00187*
X00293Y00191*
X00295Y00195*
X00297Y00199*
X00299Y00203*
X003Y00207*
X00302Y00212*
X00302Y00216*
X00303Y00221*
X00303Y00225*
X0036D02*
D01*
X0036Y00234*
X00359Y00242*
X00357Y00251*
X00355Y00259*
X00353Y00267*
X0035Y00275*
X00346Y00283*
X00342Y0029*
X00337Y00297*
X00332Y00304*
X00326Y0031*
X0032Y00316*
X00313Y00321*
X00306Y00326*
X00299Y00331*
X00292Y00335*
X00284Y00338*
X00276Y00341*
X00268Y00344*
X00259Y00345*
X00251Y00347*
X00242Y00347*
X00234*
X00225Y00347*
X00217Y00345*
X00209Y00344*
X002Y00341*
X00192Y00338*
X00185Y00335*
X00177Y00331*
X0017Y00326*
X00163Y00321*
X00156Y00316*
X0015Y0031*
X00145Y00304*
X00139Y00297*
X00135Y0029*
X0013Y00283*
X00127Y00275*
X00123Y00267*
X00121Y00259*
X00119Y00251*
X00117Y00242*
X00116Y00234*
X00116Y00225*
X00116Y00217*
X00117Y00208*
X00119Y002*
X00121Y00192*
X00123Y00184*
X00127Y00176*
X0013Y00168*
X00135Y00161*
X00139Y00154*
X00145Y00147*
X0015Y00141*
X00156Y00135*
X00163Y00129*
X0017Y00124*
X00177Y0012*
X00185Y00116*
X00192Y00112*
X002Y00109*
X00209Y00107*
X00217Y00105*
X00225Y00104*
X00234Y00103*
X00242*
X00251Y00104*
X00259Y00105*
X00268Y00107*
X00276Y00109*
X00284Y00112*
X00292Y00116*
X00299Y0012*
X00306Y00124*
X00313Y00129*
X0032Y00135*
X00326Y00141*
X00332Y00147*
X00337Y00154*
X00342Y00161*
X00346Y00168*
X0035Y00176*
X00353Y00184*
X00355Y00192*
X00357Y002*
X00359Y00208*
X0036Y00217*
X0036Y00225*
X05527Y00289D02*
D01*
X05527Y00293*
X05527Y00298*
X05526Y00302*
X05525Y00307*
X05523Y00311*
X05522Y00315*
X0552Y00319*
X05517Y00323*
X05515Y00327*
X05512Y0033*
X05509Y00334*
X05506Y00337*
X05502Y0034*
X05499Y00342*
X05495Y00345*
X05491Y00347*
X05487Y00349*
X05482Y0035*
X05478Y00352*
X05474Y00353*
X05469Y00353*
X05465Y00354*
X0546*
X05456Y00353*
X05451Y00353*
X05447Y00352*
X05442Y0035*
X05438Y00349*
X05434Y00347*
X0543Y00345*
X05426Y00342*
X05422Y0034*
X05419Y00337*
X05416Y00334*
X05413Y0033*
X0541Y00327*
X05407Y00323*
X05405Y00319*
X05403Y00315*
X05401Y00311*
X054Y00307*
X05399Y00302*
X05398Y00298*
X05398Y00293*
X05397Y00289*
X05398Y00284*
X05398Y0028*
X05399Y00275*
X054Y00271*
X05401Y00266*
X05403Y00262*
X05405Y00258*
X05407Y00254*
X0541Y0025*
X05413Y00247*
X05416Y00243*
X05419Y0024*
X05422Y00237*
X05426Y00235*
X0543Y00232*
X05434Y0023*
X05438Y00228*
X05442Y00227*
X05447Y00226*
X05451Y00225*
X05456Y00224*
X0546Y00224*
X05465*
X05469Y00224*
X05474Y00225*
X05478Y00226*
X05482Y00227*
X05487Y00228*
X05491Y0023*
X05495Y00232*
X05499Y00235*
X05502Y00237*
X05506Y0024*
X05509Y00243*
X05512Y00247*
X05515Y0025*
X05517Y00254*
X0552Y00258*
X05522Y00262*
X05523Y00266*
X05525Y00271*
X05526Y00275*
X05527Y0028*
X05527Y00284*
X05527Y00289*
X05584D02*
D01*
X05584Y00297*
X05583Y00306*
X05582Y00314*
X0558Y00322*
X05577Y0033*
X05574Y00338*
X0557Y00346*
X05566Y00353*
X05561Y0036*
X05556Y00367*
X0555Y00373*
X05544Y00379*
X05537Y00385*
X05531Y0039*
X05523Y00394*
X05516Y00398*
X05508Y00402*
X055Y00405*
X05492Y00407*
X05483Y00409*
X05475Y0041*
X05467Y00411*
X05458*
X0545Y0041*
X05441Y00409*
X05433Y00407*
X05425Y00405*
X05417Y00402*
X05409Y00398*
X05401Y00394*
X05394Y0039*
X05387Y00385*
X05381Y00379*
X05375Y00373*
X05369Y00367*
X05364Y0036*
X05359Y00353*
X05355Y00346*
X05351Y00338*
X05348Y0033*
X05345Y00322*
X05343Y00314*
X05341Y00306*
X05341Y00297*
X0534Y00289*
X05341Y0028*
X05341Y00272*
X05343Y00263*
X05345Y00255*
X05348Y00247*
X05351Y00239*
X05355Y00231*
X05359Y00224*
X05364Y00217*
X05369Y0021*
X05375Y00204*
X05381Y00198*
X05387Y00192*
X05394Y00187*
X05401Y00183*
X05409Y00179*
X05417Y00175*
X05425Y00173*
X05433Y0017*
X05441Y00168*
X0545Y00167*
X05458Y00167*
X05467*
X05475Y00167*
X05483Y00168*
X05492Y0017*
X055Y00173*
X05508Y00175*
X05516Y00179*
X05523Y00183*
X05531Y00187*
X05537Y00192*
X05544Y00198*
X0555Y00204*
X05556Y0021*
X05561Y00217*
X05566Y00224*
X0557Y00231*
X05574Y00239*
X05577Y00247*
X0558Y00255*
X05582Y00263*
X05583Y00272*
X05584Y0028*
X05584Y00289*
X05574Y10381D02*
D01*
X05574Y10386*
X05574Y10391*
X05573Y10395*
X05572Y10399*
X05571Y10404*
X05569Y10408*
X05567Y10412*
X05565Y10416*
X05562Y1042*
X05559Y10423*
X05556Y10427*
X05553Y1043*
X05549Y10433*
X05546Y10435*
X05542Y10438*
X05538Y1044*
X05534Y10442*
X0553Y10443*
X05525Y10445*
X05521Y10445*
X05516Y10446*
X05512Y10446*
X05507*
X05503Y10446*
X05498Y10445*
X05494Y10445*
X05489Y10443*
X05485Y10442*
X05481Y1044*
X05477Y10438*
X05473Y10435*
X0547Y10433*
X05466Y1043*
X05463Y10427*
X0546Y10423*
X05457Y1042*
X05454Y10416*
X05452Y10412*
X0545Y10408*
X05448Y10404*
X05447Y10399*
X05446Y10395*
X05445Y10391*
X05445Y10386*
X05445Y10381*
X05445Y10377*
X05445Y10372*
X05446Y10368*
X05447Y10364*
X05448Y10359*
X0545Y10355*
X05452Y10351*
X05454Y10347*
X05457Y10343*
X0546Y1034*
X05463Y10336*
X05466Y10333*
X0547Y1033*
X05473Y10328*
X05477Y10325*
X05481Y10323*
X05485Y10321*
X05489Y1032*
X05494Y10318*
X05498Y10318*
X05503Y10317*
X05507Y10317*
X05512*
X05516Y10317*
X05521Y10318*
X05525Y10318*
X0553Y1032*
X05534Y10321*
X05538Y10323*
X05542Y10325*
X05546Y10328*
X05549Y1033*
X05553Y10333*
X05556Y10336*
X05559Y1034*
X05562Y10343*
X05565Y10347*
X05567Y10351*
X05569Y10355*
X05571Y10359*
X05572Y10364*
X05573Y10368*
X05574Y10372*
X05574Y10377*
X05574Y10381*
X05632D02*
D01*
X05631Y1039*
X0563Y10398*
X05629Y10407*
X05627Y10415*
X05624Y10423*
X05621Y10431*
X05617Y10439*
X05613Y10446*
X05608Y10453*
X05603Y1046*
X05597Y10466*
X05591Y10472*
X05585Y10478*
X05578Y10483*
X05571Y10487*
X05563Y10491*
X05555Y10495*
X05547Y10498*
X05539Y105*
X05531Y10502*
X05522Y10503*
X05514Y10503*
X05505*
X05497Y10503*
X05488Y10502*
X0548Y105*
X05472Y10498*
X05464Y10495*
X05456Y10491*
X05448Y10487*
X05441Y10483*
X05434Y10478*
X05428Y10472*
X05422Y10466*
X05416Y1046*
X05411Y10453*
X05406Y10446*
X05402Y10439*
X05398Y10431*
X05395Y10423*
X05392Y10415*
X0539Y10407*
X05389Y10398*
X05388Y1039*
X05387Y10381*
X05388Y10373*
X05389Y10365*
X0539Y10356*
X05392Y10348*
X05395Y1034*
X05398Y10332*
X05402Y10324*
X05406Y10317*
X05411Y1031*
X05416Y10303*
X05422Y10297*
X05428Y10291*
X05434Y10285*
X05441Y1028*
X05448Y10276*
X05456Y10272*
X05464Y10268*
X05472Y10265*
X0548Y10263*
X05488Y10261*
X05497Y1026*
X05505Y1026*
X05514*
X05522Y1026*
X05531Y10261*
X05539Y10263*
X05547Y10265*
X05555Y10268*
X05563Y10272*
X05571Y10276*
X05578Y1028*
X05585Y10285*
X05591Y10291*
X05597Y10297*
X05603Y10303*
X05608Y1031*
X05613Y10317*
X05617Y10324*
X05621Y10332*
X05624Y1034*
X05627Y10348*
X05629Y10356*
X0563Y10365*
X05631Y10373*
X05632Y10381*
X00332Y10413D02*
D01*
X00332Y10418*
X00332Y10422*
X00331Y10427*
X0033Y10431*
X00328Y10435*
X00327Y1044*
X00325Y10444*
X00322Y10448*
X0032Y10451*
X00317Y10455*
X00314Y10458*
X00311Y10461*
X00307Y10464*
X00304Y10467*
X003Y10469*
X00296Y10471*
X00292Y10473*
X00287Y10475*
X00283Y10476*
X00279Y10477*
X00274Y10478*
X0027Y10478*
X00265*
X00261Y10478*
X00256Y10477*
X00252Y10476*
X00247Y10475*
X00243Y10473*
X00239Y10471*
X00235Y10469*
X00231Y10467*
X00227Y10464*
X00224Y10461*
X00221Y10458*
X00218Y10455*
X00215Y10451*
X00212Y10448*
X0021Y10444*
X00208Y1044*
X00206Y10435*
X00205Y10431*
X00204Y10427*
X00203Y10422*
X00202Y10418*
X00202Y10413*
X00202Y10409*
X00203Y10404*
X00204Y104*
X00205Y10395*
X00206Y10391*
X00208Y10387*
X0021Y10383*
X00212Y10379*
X00215Y10375*
X00218Y10371*
X00221Y10368*
X00224Y10365*
X00227Y10362*
X00231Y10359*
X00235Y10357*
X00239Y10355*
X00243Y10353*
X00247Y10351*
X00252Y1035*
X00256Y10349*
X00261Y10348*
X00265Y10348*
X0027*
X00274Y10348*
X00279Y10349*
X00283Y1035*
X00287Y10351*
X00292Y10353*
X00296Y10355*
X003Y10357*
X00304Y10359*
X00307Y10362*
X00311Y10365*
X00314Y10368*
X00317Y10371*
X0032Y10375*
X00322Y10379*
X00325Y10383*
X00327Y10387*
X00328Y10391*
X0033Y10395*
X00331Y104*
X00332Y10404*
X00332Y10409*
X00332Y10413*
X00389D02*
D01*
X00389Y10422*
X00388Y1043*
X00387Y10438*
X00385Y10447*
X00382Y10455*
X00379Y10463*
X00375Y1047*
X00371Y10478*
X00366Y10485*
X00361Y10492*
X00355Y10498*
X00349Y10504*
X00342Y10509*
X00336Y10514*
X00328Y10519*
X00321Y10523*
X00313Y10526*
X00305Y10529*
X00297Y10532*
X00288Y10533*
X0028Y10534*
X00272Y10535*
X00263*
X00255Y10534*
X00246Y10533*
X00238Y10532*
X0023Y10529*
X00222Y10526*
X00214Y10523*
X00206Y10519*
X00199Y10514*
X00192Y10509*
X00186Y10504*
X0018Y10498*
X00174Y10492*
X00169Y10485*
X00164Y10478*
X0016Y1047*
X00156Y10463*
X00153Y10455*
X0015Y10447*
X00148Y10438*
X00146Y1043*
X00146Y10422*
X00145Y10413*
X00146Y10405*
X00146Y10396*
X00148Y10388*
X0015Y10379*
X00153Y10371*
X00156Y10363*
X0016Y10356*
X00164Y10348*
X00169Y10341*
X00174Y10335*
X0018Y10328*
X00186Y10322*
X00192Y10317*
X00199Y10312*
X00206Y10307*
X00214Y10303*
X00222Y103*
X0023Y10297*
X00238Y10295*
X00246Y10293*
X00255Y10292*
X00263Y10291*
X00272*
X0028Y10292*
X00288Y10293*
X00297Y10295*
X00305Y10297*
X00313Y103*
X00321Y10303*
X00328Y10307*
X00336Y10312*
X00342Y10317*
X00349Y10322*
X00355Y10328*
X00361Y10335*
X00366Y10341*
X00371Y10348*
X00375Y10356*
X00379Y10363*
X00382Y10371*
X00385Y10379*
X00387Y10388*
X00388Y10396*
X00389Y10405*
X00389Y10413*
X00922Y08766D02*
D01*
X00922Y08766*
X00922Y08767*
X00922Y08768*
X00922Y08768*
X00922Y08769*
X00921Y0877*
X00921Y0877*
X00921Y08771*
X0092Y08771*
X0092Y08772*
X0092Y08772*
X00919Y08773*
X00919Y08773*
X00918Y08774*
X00917Y08774*
X00917Y08774*
X00916Y08775*
X00916Y08775*
X00915Y08775*
X00914Y08775*
X00914Y08775*
X00913Y08775*
X00912*
X00912Y08775*
X00911Y08775*
X0091Y08775*
X0091Y08775*
X00909Y08775*
X00908Y08774*
X00908Y08774*
X00907Y08774*
X00907Y08773*
X00906Y08773*
X00906Y08772*
X00905Y08772*
X00905Y08771*
X00904Y08771*
X00904Y0877*
X00904Y0877*
X00903Y08769*
X00903Y08768*
X00903Y08768*
X00903Y08767*
X00903Y08766*
X00903Y08766*
X00903Y08765*
X00903Y08764*
X00903Y08764*
X00903Y08763*
X00903Y08762*
X00904Y08762*
X00904Y08761*
X00904Y08761*
X00905Y0876*
X00905Y08759*
X00906Y08759*
X00906Y08758*
X00907Y08758*
X00907Y08758*
X00908Y08757*
X00908Y08757*
X00909Y08757*
X0091Y08756*
X0091Y08756*
X00911Y08756*
X00912Y08756*
X00912Y08756*
X00913*
X00914Y08756*
X00914Y08756*
X00915Y08756*
X00916Y08756*
X00916Y08757*
X00917Y08757*
X00917Y08757*
X00918Y08758*
X00919Y08758*
X00919Y08758*
X0092Y08759*
X0092Y08759*
X0092Y0876*
X00921Y08761*
X00921Y08761*
X00921Y08762*
X00922Y08762*
X00922Y08763*
X00922Y08764*
X00922Y08764*
X00922Y08765*
X00922Y08766*
X02142Y09339D02*
D01*
X02142Y0934*
X02142Y09341*
X02142Y09343*
X02141Y09344*
X02141Y09345*
X0214Y09347*
X0214Y09348*
X02139Y09349*
X02138Y0935*
X02137Y09351*
X02136Y09352*
X02136Y09353*
X02134Y09354*
X02133Y09355*
X02132Y09356*
X02131Y09356*
X0213Y09357*
X02128Y09357*
X02127Y09358*
X02126Y09358*
X02124Y09358*
X02123Y09358*
X02122*
X0212Y09358*
X02119Y09358*
X02118Y09358*
X02116Y09357*
X02115Y09357*
X02114Y09356*
X02112Y09356*
X02111Y09355*
X0211Y09354*
X02109Y09353*
X02108Y09352*
X02107Y09351*
X02106Y0935*
X02106Y09349*
X02105Y09348*
X02104Y09347*
X02104Y09345*
X02103Y09344*
X02103Y09343*
X02103Y09341*
X02103Y0934*
X02103Y09339*
X02103Y09337*
X02103Y09336*
X02103Y09335*
X02103Y09333*
X02104Y09332*
X02104Y09331*
X02105Y0933*
X02106Y09328*
X02106Y09327*
X02107Y09326*
X02108Y09325*
X02109Y09324*
X0211Y09323*
X02111Y09322*
X02112Y09322*
X02114Y09321*
X02115Y0932*
X02116Y0932*
X02118Y0932*
X02119Y09319*
X0212Y09319*
X02122Y09319*
X02123*
X02124Y09319*
X02126Y09319*
X02127Y0932*
X02128Y0932*
X0213Y0932*
X02131Y09321*
X02132Y09322*
X02133Y09322*
X02134Y09323*
X02136Y09324*
X02136Y09325*
X02137Y09326*
X02138Y09327*
X02139Y09328*
X0214Y0933*
X0214Y09331*
X02141Y09332*
X02141Y09333*
X02142Y09335*
X02142Y09336*
X02142Y09337*
X02142Y09339*
X04916Y00269D02*
D01*
X04916Y00273*
X04916Y00277*
X04915Y00281*
X04914Y00285*
X04913Y00289*
X04911Y00293*
X04909Y00296*
X04907Y003*
X04905Y00303*
X04903Y00307*
X049Y0031*
X04897Y00312*
X04894Y00315*
X0489Y00318*
X04887Y0032*
X04883Y00322*
X04879Y00323*
X04876Y00325*
X04872Y00326*
X04868Y00327*
X04863Y00327*
X04859Y00328*
X04855*
X04851Y00327*
X04847Y00327*
X04843Y00326*
X04839Y00325*
X04835Y00323*
X04831Y00322*
X04828Y0032*
X04824Y00318*
X04821Y00315*
X04818Y00312*
X04815Y0031*
X04812Y00307*
X0481Y00303*
X04807Y003*
X04805Y00296*
X04803Y00293*
X04802Y00289*
X04801Y00285*
X048Y00281*
X04799Y00277*
X04798Y00273*
X04798Y00269*
X04798Y00264*
X04799Y0026*
X048Y00256*
X04801Y00252*
X04802Y00248*
X04803Y00245*
X04805Y00241*
X04807Y00237*
X0481Y00234*
X04812Y00231*
X04815Y00228*
X04818Y00225*
X04821Y00222*
X04824Y0022*
X04828Y00217*
X04831Y00216*
X04835Y00214*
X04839Y00212*
X04843Y00211*
X04847Y0021*
X04851Y0021*
X04855Y0021*
X04859*
X04863Y0021*
X04868Y0021*
X04872Y00211*
X04876Y00212*
X04879Y00214*
X04883Y00216*
X04887Y00217*
X0489Y0022*
X04894Y00222*
X04897Y00225*
X049Y00228*
X04903Y00231*
X04905Y00234*
X04907Y00237*
X04909Y00241*
X04911Y00245*
X04913Y00248*
X04914Y00252*
X04915Y00256*
X04916Y0026*
X04916Y00264*
X04916Y00269*
X01001Y09256D02*
D01*
X01001Y0926*
X01001Y09264*
X01Y09269*
X00999Y09273*
X00998Y09276*
X00996Y0928*
X00995Y09284*
X00992Y09288*
X0099Y09291*
X00988Y09294*
X00985Y09297*
X00982Y093*
X00979Y09303*
X00975Y09305*
X00972Y09307*
X00968Y09309*
X00964Y09311*
X00961Y09312*
X00957Y09314*
X00953Y09314*
X00949Y09315*
X00944Y09315*
X0094*
X00936Y09315*
X00932Y09314*
X00928Y09314*
X00924Y09312*
X0092Y09311*
X00916Y09309*
X00913Y09307*
X00909Y09305*
X00906Y09303*
X00903Y093*
X009Y09297*
X00897Y09294*
X00895Y09291*
X00892Y09288*
X0089Y09284*
X00888Y0928*
X00887Y09276*
X00886Y09273*
X00885Y09269*
X00884Y09264*
X00883Y0926*
X00883Y09256*
X00883Y09252*
X00884Y09248*
X00885Y09244*
X00886Y0924*
X00887Y09236*
X00888Y09232*
X0089Y09229*
X00892Y09225*
X00895Y09222*
X00897Y09218*
X009Y09215*
X00903Y09212*
X00906Y0921*
X00909Y09207*
X00913Y09205*
X00916Y09203*
X0092Y09201*
X00924Y092*
X00928Y09199*
X00932Y09198*
X00936Y09197*
X0094Y09197*
X00944*
X00949Y09197*
X00953Y09198*
X00957Y09199*
X00961Y092*
X00964Y09201*
X00968Y09203*
X00972Y09205*
X00975Y09207*
X00979Y0921*
X00982Y09212*
X00985Y09215*
X00988Y09218*
X0099Y09222*
X00992Y09225*
X00995Y09229*
X00996Y09232*
X00998Y09236*
X00999Y0924*
X01Y09244*
X01001Y09248*
X01001Y09252*
X01001Y09256*
X04689Y1025D02*
D01*
X04688Y10254*
X04688Y10258*
X04687Y10262*
X04686Y10266*
X04685Y1027*
X04683Y10274*
X04682Y10277*
X0468Y10281*
X04677Y10284*
X04675Y10287*
X04672Y10291*
X04669Y10293*
X04666Y10296*
X04663Y10298*
X04659Y10301*
X04655Y10303*
X04652Y10304*
X04648Y10306*
X04644Y10307*
X0464Y10308*
X04636Y10308*
X04632Y10309*
X04627*
X04623Y10308*
X04619Y10308*
X04615Y10307*
X04611Y10306*
X04607Y10304*
X04604Y10303*
X046Y10301*
X04596Y10298*
X04593Y10296*
X0459Y10293*
X04587Y10291*
X04584Y10287*
X04582Y10284*
X04579Y10281*
X04577Y10277*
X04576Y10274*
X04574Y1027*
X04573Y10266*
X04572Y10262*
X04571Y10258*
X04571Y10254*
X0457Y1025*
X04571Y10245*
X04571Y10241*
X04572Y10237*
X04573Y10233*
X04574Y10229*
X04576Y10225*
X04577Y10222*
X04579Y10218*
X04582Y10215*
X04584Y10212*
X04587Y10208*
X0459Y10206*
X04593Y10203*
X04596Y10201*
X046Y10198*
X04604Y10196*
X04607Y10195*
X04611Y10193*
X04615Y10192*
X04619Y10191*
X04623Y10191*
X04627Y1019*
X04632*
X04636Y10191*
X0464Y10191*
X04644Y10192*
X04648Y10193*
X04652Y10195*
X04655Y10196*
X04659Y10198*
X04663Y10201*
X04666Y10203*
X04669Y10206*
X04672Y10208*
X04675Y10212*
X04677Y10215*
X0468Y10218*
X04682Y10222*
X04683Y10225*
X04685Y10229*
X04686Y10233*
X04687Y10237*
X04688Y10241*
X04688Y10245*
X04689Y1025*
X00864Y09711D02*
D01*
X00863Y09712*
X00863Y09712*
X00863Y09713*
X00863Y09713*
X00863Y09714*
X00863Y09714*
X00863Y09714*
X00862Y09715*
X00862Y09715*
X00862Y09716*
X00861Y09716*
X00861Y09716*
X00861Y09717*
X0086Y09717*
X0086Y09717*
X00859Y09718*
X00859Y09718*
X00859Y09718*
X00858Y09718*
X00858Y09718*
X00857Y09718*
X00857Y09718*
X00856*
X00856Y09718*
X00855Y09718*
X00855Y09718*
X00854Y09718*
X00854Y09718*
X00853Y09718*
X00853Y09717*
X00852Y09717*
X00852Y09717*
X00851Y09716*
X00851Y09716*
X00851Y09716*
X0085Y09715*
X0085Y09715*
X0085Y09714*
X0085Y09714*
X0085Y09714*
X00849Y09713*
X00849Y09713*
X00849Y09712*
X00849Y09712*
X00849Y09711*
X00849Y09711*
X00849Y0971*
X00849Y0971*
X00849Y09709*
X0085Y09709*
X0085Y09708*
X0085Y09708*
X0085Y09707*
X0085Y09707*
X00851Y09706*
X00851Y09706*
X00851Y09706*
X00852Y09705*
X00852Y09705*
X00853Y09705*
X00853Y09705*
X00854Y09704*
X00854Y09704*
X00855Y09704*
X00855Y09704*
X00856Y09704*
X00856Y09704*
X00857*
X00857Y09704*
X00858Y09704*
X00858Y09704*
X00859Y09704*
X00859Y09704*
X00859Y09705*
X0086Y09705*
X0086Y09705*
X00861Y09705*
X00861Y09706*
X00861Y09706*
X00862Y09706*
X00862Y09707*
X00862Y09707*
X00863Y09708*
X00863Y09708*
X00863Y09709*
X00863Y09709*
X00863Y0971*
X00863Y0971*
X00863Y09711*
X00864Y09711*
X01266Y09958D02*
D01*
X01266Y0996*
X01266Y09961*
X01265Y09962*
X01265Y09964*
X01265Y09965*
X01264Y09966*
X01263Y09968*
X01263Y09969*
X01262Y0997*
X01261Y09971*
X0126Y09972*
X01259Y09973*
X01258Y09974*
X01257Y09975*
X01256Y09975*
X01255Y09976*
X01253Y09977*
X01252Y09977*
X01251Y09977*
X01249Y09978*
X01248Y09978*
X01247Y09978*
X01245*
X01244Y09978*
X01243Y09978*
X01241Y09977*
X0124Y09977*
X01239Y09977*
X01237Y09976*
X01236Y09975*
X01235Y09975*
X01234Y09974*
X01233Y09973*
X01232Y09972*
X01231Y09971*
X0123Y0997*
X01229Y09969*
X01229Y09968*
X01228Y09966*
X01228Y09965*
X01227Y09964*
X01227Y09962*
X01227Y09961*
X01226Y0996*
X01226Y09958*
X01226Y09957*
X01227Y09956*
X01227Y09954*
X01227Y09953*
X01228Y09952*
X01228Y0995*
X01229Y09949*
X01229Y09948*
X0123Y09947*
X01231Y09946*
X01232Y09945*
X01233Y09944*
X01234Y09943*
X01235Y09942*
X01236Y09941*
X01237Y09941*
X01239Y0994*
X0124Y0994*
X01241Y09939*
X01243Y09939*
X01244Y09939*
X01245Y09939*
X01247*
X01248Y09939*
X01249Y09939*
X01251Y09939*
X01252Y0994*
X01253Y0994*
X01255Y09941*
X01256Y09941*
X01257Y09942*
X01258Y09943*
X01259Y09944*
X0126Y09945*
X01261Y09946*
X01262Y09947*
X01263Y09948*
X01263Y09949*
X01264Y0995*
X01265Y09952*
X01265Y09953*
X01265Y09954*
X01266Y09956*
X01266Y09957*
X01266Y09958*
X02463Y01615D02*
X027D01*
X02463Y01851D02*
X027D01*
Y01615D02*
Y01851D01*
X02463Y01615D02*
Y01851D01*
X0194Y05403D02*
Y05566D01*
X0195Y05571*
X0194Y05576D02*
X0195Y05571D01*
X0194Y05576D02*
Y056D01*
X02137*
Y05403D02*
Y056D01*
X0194Y05403D02*
X02137D01*
X03787Y07522D02*
Y07802D01*
X03587Y07522D02*
Y07802D01*
X03787*
X03587Y07522D02*
X03787D01*
X01014Y08745D02*
Y08808D01*
X00896Y08745D02*
Y08808D01*
X01014*
X00896Y08745D02*
X01014D01*
X01989Y10116D02*
X02885D01*
Y0927D02*
Y10116D01*
X01989Y09329D02*
Y10116D01*
Y09329D02*
X02048Y0927D01*
X02885D01*
X0226Y0987D02*
X02614D01*
Y09516D02*
Y0987D01*
X0226Y09516D02*
X02614D01*
X0226D02*
Y0987D01*
X00975Y0713D02*
Y07317D01*
X0082Y0713D02*
Y07317D01*
X00975*
X0082Y0713D02*
X00975D01*
X0082Y0673D02*
Y06917D01*
X00975Y0673D02*
Y06917D01*
X0082Y0673D02*
X00975D01*
X0082Y06917D02*
X00975D01*
X04798Y00269D02*
X04916D01*
X04857Y0021D02*
Y00328D01*
X00883Y09256D02*
X01001D01*
X00942Y09197D02*
Y09315D01*
X0457Y1025D02*
X04689D01*
X0463Y1019D02*
Y10309D01*
X00087Y09472D02*
X00737D01*
Y09954*
X00087D02*
X00737D01*
X00087Y09472D02*
Y09954D01*
X00363Y08974D02*
X00747D01*
Y08776D02*
Y08974D01*
X00363Y08776D02*
X00747D01*
X00363D02*
Y08974D01*
X005Y06727D02*
X00655D01*
X005Y0654D02*
X00655D01*
Y06727*
X005Y0654D02*
Y06727D01*
Y07314D02*
X00655D01*
X005Y07501D02*
X00655D01*
X005Y07314D02*
Y07501D01*
X00655Y07314D02*
Y07501D01*
X00842Y0966D02*
X00893D01*
X00842Y09727D02*
X00893D01*
Y0966D02*
Y09727D01*
X00842Y0966D02*
Y09727D01*
X01226Y08751D02*
X01381D01*
X01226Y08938D02*
X01381D01*
X01226Y08751D02*
Y08938D01*
X01381Y08751D02*
Y08938D01*
X01208Y09996D02*
X01507D01*
Y09582D02*
Y09996D01*
X01208Y09582D02*
X01507D01*
X01208D02*
Y09996D01*
X03003Y01615D02*
Y01851D01*
X0324Y01615D02*
Y01851D01*
X03003D02*
X0324D01*
X03003Y01615D02*
X0324D01*
X03673Y01635D02*
X0391D01*
X03673Y01871D02*
X0391D01*
Y01635D02*
Y01871D01*
X03673Y01635D02*
Y01871D01*
G54D17*
X01861Y05175D02*
X01962D01*
X01861Y05094D02*
X01962D01*
Y05175*
X01861Y05094D02*
Y05175D01*
G54D18*
X01847Y08636D02*
D01*
X01847Y08638*
X01847Y0864*
X01847Y08642*
X01846Y08644*
X01845Y08646*
X01845Y08648*
X01844Y0865*
X01843Y08652*
X01842Y08653*
X0184Y08655*
X01839Y08657*
X01837Y08658*
X01836Y08659*
X01834Y08661*
X01832Y08662*
X0183Y08663*
X01829Y08664*
X01827Y08664*
X01825Y08665*
X01823Y08665*
X0182Y08666*
X01818Y08666*
X01816*
X01814Y08666*
X01812Y08665*
X0181Y08665*
X01808Y08664*
X01806Y08664*
X01804Y08663*
X01802Y08662*
X01801Y08661*
X01799Y08659*
X01797Y08658*
X01796Y08657*
X01794Y08655*
X01793Y08653*
X01792Y08652*
X01791Y0865*
X0179Y08648*
X01789Y08646*
X01788Y08644*
X01788Y08642*
X01788Y0864*
X01787Y08638*
X01787Y08636*
X01787Y08634*
X01788Y08632*
X01788Y08629*
X01788Y08627*
X01789Y08625*
X0179Y08623*
X01791Y08622*
X01792Y0862*
X01793Y08618*
X01794Y08616*
X01796Y08615*
X01797Y08613*
X01799Y08612*
X01801Y08611*
X01802Y0861*
X01804Y08609*
X01806Y08608*
X01808Y08607*
X0181Y08607*
X01812Y08606*
X01814Y08606*
X01816Y08606*
X01818*
X0182Y08606*
X01823Y08606*
X01825Y08607*
X01827Y08607*
X01829Y08608*
X0183Y08609*
X01832Y0861*
X01834Y08611*
X01836Y08612*
X01837Y08613*
X01839Y08615*
X0184Y08616*
X01842Y08618*
X01843Y0862*
X01844Y08622*
X01845Y08623*
X01845Y08625*
X01846Y08627*
X01847Y08629*
X01847Y08632*
X01847Y08634*
X01847Y08636*
X00691Y02233D02*
D01*
X00691Y02235*
X00691Y02237*
X00691Y02239*
X0069Y02241*
X0069Y02243*
X00689Y02245*
X00688Y02247*
X00687Y02249*
X00686Y02251*
X00684Y02252*
X00683Y02254*
X00682Y02255*
X0068Y02257*
X00678Y02258*
X00676Y02259*
X00675Y0226*
X00673Y02261*
X00671Y02262*
X00669Y02262*
X00667Y02263*
X00665Y02263*
X00663Y02263*
X0066*
X00658Y02263*
X00656Y02263*
X00654Y02262*
X00652Y02262*
X0065Y02261*
X00648Y0226*
X00646Y02259*
X00645Y02258*
X00643Y02257*
X00641Y02255*
X0064Y02254*
X00638Y02252*
X00637Y02251*
X00636Y02249*
X00635Y02247*
X00634Y02245*
X00633Y02243*
X00633Y02241*
X00632Y02239*
X00632Y02237*
X00632Y02235*
X00631Y02233*
X00632Y02231*
X00632Y02229*
X00632Y02227*
X00633Y02225*
X00633Y02223*
X00634Y02221*
X00635Y02219*
X00636Y02217*
X00637Y02215*
X00638Y02214*
X0064Y02212*
X00641Y02211*
X00643Y02209*
X00645Y02208*
X00646Y02207*
X00648Y02206*
X0065Y02205*
X00652Y02205*
X00654Y02204*
X00656Y02204*
X00658Y02203*
X0066Y02203*
X00663*
X00665Y02203*
X00667Y02204*
X00669Y02204*
X00671Y02205*
X00673Y02205*
X00675Y02206*
X00676Y02207*
X00678Y02208*
X0068Y02209*
X00682Y02211*
X00683Y02212*
X00684Y02214*
X00686Y02215*
X00687Y02217*
X00688Y02219*
X00689Y02221*
X0069Y02223*
X0069Y02225*
X00691Y02227*
X00691Y02229*
X00691Y02231*
X00691Y02233*
X01777Y08996D02*
X02177D01*
Y08596D02*
Y08996D01*
X01777Y08596D02*
X02177D01*
X01777D02*
Y08996D01*
X00301Y02193D02*
Y02593D01*
X00701*
Y02193D02*
Y02593D01*
X00301Y02193D02*
X00701D01*
G54D190*
X00094Y07407D02*
Y07397D01*
Y07402*
X00063*
Y07407*
Y07397*
Y07381D02*
X00094D01*
X00063Y0736*
X00094*
X00089Y07329D02*
X00094Y07334D01*
Y07344*
X00089Y0735*
X00084*
X00078Y07344*
Y07334*
X00073Y07329*
X00068*
X00063Y07334*
Y07344*
X00068Y0735*
X00094Y07297D02*
Y07318D01*
X00063*
Y07297*
X00078Y07318D02*
Y07308D01*
X00063Y07287D02*
X00094D01*
Y07271*
X00089Y07266*
X00078*
X00073Y07271*
Y07287*
Y07276D02*
X00063Y07266D01*
X00094Y07255D02*
Y07234D01*
Y07245*
X00063*
X00094Y07192D02*
X00063D01*
X00073Y07182*
X00063Y07171*
X00094*
Y07161D02*
Y0715D01*
Y07155*
X00063*
Y07161*
Y0715*
Y07134D02*
X00094D01*
Y07119*
X00089Y07113*
X00078*
X00073Y07119*
Y07134*
Y07124D02*
X00063Y07113D01*
X00094Y07082D02*
Y07103D01*
X00063*
Y07082*
X00078Y07103D02*
Y07092D01*
X00089Y0705D02*
X00094Y07056D01*
Y07066*
X00089Y07071*
X00084*
X00078Y07066*
Y07056*
X00073Y0705*
X00068*
X00063Y07056*
Y07066*
X00068Y07071*
X00094Y06993D02*
Y07003D01*
X00089Y07009*
X00068*
X00063Y07003*
Y06993*
X00068Y06988*
X00089*
X00094Y06993*
X00063Y06977D02*
X00094D01*
X00063Y06956*
X00094*
Y06914D02*
Y06893D01*
Y06904*
X00063*
X00094Y06883D02*
X00063D01*
X00078*
Y06862*
X00094*
X00063*
X00094Y06851D02*
Y06841D01*
Y06846*
X00063*
Y06851*
Y06841*
X00089Y06804D02*
X00094Y06809D01*
Y0682*
X00089Y06825*
X00084*
X00078Y0682*
Y06809*
X00073Y06804*
X00068*
X00063Y06809*
Y0682*
X00068Y06825*
X00089Y06741D02*
X00094Y06746D01*
Y06757*
X00089Y06762*
X00084*
X00078Y06757*
Y06746*
X00073Y06741*
X00068*
X00063Y06746*
Y06757*
X00068Y06762*
X00094Y0673D02*
Y0672D01*
Y06725*
X00063*
Y0673*
Y0672*
X00094Y06704D02*
X00063D01*
Y06688*
X00068Y06683*
X00089*
X00094Y06688*
Y06704*
Y06652D02*
Y06673D01*
X00063*
Y06652*
X00078Y06673D02*
Y06662D01*
G54D231*
X05366Y07056D02*
D01*
X05366Y07057*
X05366Y07058*
X05365Y07059*
X05365Y07059*
X05365Y0706*
X05365Y07061*
X05364Y07062*
X05364Y07062*
X05363Y07063*
X05363Y07064*
X05362Y07064*
X05362Y07065*
X05361Y07065*
X0536Y07066*
X0536Y07066*
X05359Y07067*
X05358Y07067*
X05357Y07067*
X05357Y07068*
X05356Y07068*
X05355Y07068*
X05354Y07068*
X05353*
X05353Y07068*
X05352Y07068*
X05351Y07068*
X0535Y07067*
X05349Y07067*
X05349Y07067*
X05348Y07066*
X05347Y07066*
X05347Y07065*
X05346Y07065*
X05345Y07064*
X05345Y07064*
X05344Y07063*
X05344Y07062*
X05343Y07062*
X05343Y07061*
X05343Y0706*
X05342Y07059*
X05342Y07059*
X05342Y07058*
X05342Y07057*
X05342Y07056*
X05342Y07055*
X05342Y07054*
X05342Y07054*
X05342Y07053*
X05343Y07052*
X05343Y07051*
X05343Y07051*
X05344Y0705*
X05344Y07049*
X05345Y07048*
X05345Y07048*
X05346Y07047*
X05347Y07047*
X05347Y07046*
X05348Y07046*
X05349Y07045*
X05349Y07045*
X0535Y07045*
X05351Y07045*
X05352Y07044*
X05353Y07044*
X05353Y07044*
X05354*
X05355Y07044*
X05356Y07044*
X05357Y07045*
X05357Y07045*
X05358Y07045*
X05359Y07045*
X0536Y07046*
X0536Y07046*
X05361Y07047*
X05362Y07047*
X05362Y07048*
X05363Y07048*
X05363Y07049*
X05364Y0705*
X05364Y07051*
X05365Y07051*
X05365Y07052*
X05365Y07053*
X05365Y07054*
X05366Y07054*
X05366Y07055*
X05366Y07056*
X05332Y06956D02*
Y07078D01*
X05454Y06956D02*
Y07078D01*
X05332D02*
X05454D01*
X05332Y06956D02*
X05454D01*
X00895Y08919D02*
X01015D01*
X00895Y08975D02*
X01015D01*
X00895Y08919D02*
Y08975D01*
X01015Y08919D02*
Y08975D01*
X00077Y08053D02*
X00577D01*
Y08618*
X00077Y08053D02*
Y08618D01*
X00577*
G54D232*
X00796Y01044D02*
Y01088D01*
X00768Y01044D02*
Y01088D01*
X00796*
X00768Y01044D02*
X00796D01*
X008Y00672D02*
Y00715D01*
X00772Y00672D02*
Y00715D01*
X008*
X00772Y00672D02*
X008D01*
X00802Y03068D02*
X00829D01*
X00802Y03111D02*
X00829D01*
X00802Y03068D02*
Y03111D01*
X00829Y03068D02*
Y03111D01*
X00806Y03508D02*
X00833D01*
X00806Y03551D02*
X00833D01*
X00806Y03508D02*
Y03551D01*
X00833Y03508D02*
Y03551D01*
M02*