G04*
G04 #@! TF.GenerationSoftware,Altium Limited,Altium Designer,22.11.1 (43)*
G04*
G04 Layer_Color=32768*
%FSLAX44Y44*%
%MOMM*%
G71*
G04*
G04 #@! TF.SameCoordinates,53296E8D-2C6D-437B-9D4A-58ED0EF3D4B0*
G04*
G04*
G04 #@! TF.FilePolarity,Positive*
G04*
G01*
G75*
%ADD11C,0.2540*%
%ADD14C,0.1270*%
%ADD17C,0.1524*%
%ADD18C,0.1750*%
%ADD230C,0.0500*%
%ADD231C,0.1000*%
%ADD232C,0.0650*%
D11*
X64760Y2399949D02*
G03*
X77460Y2387249I12700J0D01*
G01*
X89310D02*
G03*
X102010Y2399949I0J12700D01*
G01*
X104310Y2402249D02*
G03*
X102010Y2399949I0J-2300D01*
G01*
Y2534549D02*
G03*
X104310Y2532249I2300J0D01*
G01*
X102010Y2534549D02*
G03*
X89310Y2547249I-12700J0D01*
G01*
X77460D02*
G03*
X64760Y2534549I0J-12700D01*
G01*
X779690Y829316D02*
Y854716D01*
X765720Y842016D02*
X793660D01*
X868590Y736606D02*
Y947426D01*
X690790Y736606D02*
Y947426D01*
X720000Y736606D02*
X836840D01*
X690790Y947426D02*
X868590D01*
X690790Y736606D02*
X720000D01*
X836840D02*
X868590D01*
X993850Y2341519D02*
Y2373269D01*
Y2195469D02*
Y2224679D01*
X783030Y2195469D02*
Y2373269D01*
X993850Y2224679D02*
Y2341519D01*
X783030Y2195469D02*
X993850D01*
X783030Y2373269D02*
X993850D01*
X888440Y2270399D02*
Y2298339D01*
X875740Y2284369D02*
X901140D01*
X1268665Y2066673D02*
X1294066D01*
X1281366Y2052703D02*
Y2080643D01*
X1175956Y2155573D02*
X1386776D01*
X1175956Y1977773D02*
X1386776D01*
Y2006983D02*
Y2123823D01*
X1175956Y1977773D02*
Y2155573D01*
X1386776Y1977773D02*
Y2006983D01*
Y2123823D02*
Y2155573D01*
X326501Y1143634D02*
X351901D01*
X339201Y1129664D02*
Y1157604D01*
X233791Y1232534D02*
X444611D01*
X233791Y1054734D02*
X444611D01*
Y1083944D02*
Y1200784D01*
X233791Y1054734D02*
Y1232534D01*
X444611Y1054734D02*
Y1083944D01*
Y1200784D02*
Y1232534D01*
X731143Y1647213D02*
Y1678963D01*
Y1501163D02*
Y1530373D01*
X520323Y1501163D02*
Y1678963D01*
X731143Y1530373D02*
Y1647213D01*
X520323Y1501163D02*
X731143D01*
X520323Y1678963D02*
X731143D01*
X625733Y1576093D02*
Y1604033D01*
X613033Y1590063D02*
X638433D01*
X64760Y2399949D02*
Y2402249D01*
X77460Y2387249D02*
X89310D01*
X104310Y2402249D02*
X190760D01*
Y2532249D01*
X104310D02*
X190760D01*
X77460Y2547249D02*
X89310D01*
X64760Y2532249D02*
Y2534549D01*
X18260Y2532249D02*
X64760D01*
X18260Y2402249D02*
Y2532249D01*
Y2402249D02*
X64760D01*
X372820Y435249D02*
X398220D01*
X385520Y421279D02*
Y449219D01*
X264870Y508274D02*
X506170D01*
X264870Y362224D02*
X506170D01*
Y508274D01*
X264870Y362224D02*
Y508274D01*
D14*
X1190065Y1261027D02*
G03*
X1190065Y1261027I-34000J0D01*
G01*
X1137140Y1023435D02*
G03*
X1137140Y1023435I-34000J0D01*
G01*
X630303Y1260698D02*
G03*
X630303Y1260698I-34000J0D01*
G01*
X94589Y57350D02*
G03*
X94589Y57350I-34000J0D01*
G01*
X1421552Y73434D02*
G03*
X1421552Y73434I-34000J0D01*
G01*
X1433540Y2637025D02*
G03*
X1433540Y2637025I-34000J0D01*
G01*
X102020Y2645049D02*
G03*
X102020Y2645049I-34000J0D01*
G01*
X1150985Y1261027D02*
X1161145D01*
X1156065Y1255947D02*
Y1266107D01*
X1098060Y1023435D02*
X1108220D01*
X1103140Y1018355D02*
Y1028515D01*
X591223Y1260698D02*
X601383D01*
X596303Y1255618D02*
Y1265778D01*
X650720Y440319D02*
X655800D01*
X660880D01*
X655800Y435239D02*
Y445399D01*
X622800Y387319D02*
Y493319D01*
X688800D01*
Y387319D02*
Y493319D01*
X622800Y387319D02*
X688800D01*
X1029762Y1952315D02*
Y2085665D01*
X1140760D01*
Y1952315D02*
Y2085665D01*
X1029762Y1952315D02*
X1140760D01*
X974720Y1902996D02*
Y1989356D01*
X898520D02*
X974720D01*
X898520Y1902996D02*
Y1989356D01*
Y1902996D02*
X974720D01*
X936620Y1936016D02*
Y1956336D01*
X926460Y1946176D02*
X946780D01*
X1017528Y2329505D02*
X1128526D01*
X1017528Y2196155D02*
Y2329505D01*
Y2196155D02*
X1128526D01*
Y2329505D01*
X635304Y2162850D02*
X746302D01*
Y2296200D01*
X635304D02*
X746302D01*
X635304Y2162850D02*
Y2296200D01*
X914998Y774823D02*
X1025996D01*
Y908173D01*
X914998D02*
X1025996D01*
X914998Y774823D02*
Y908173D01*
X587607Y976506D02*
Y1087504D01*
Y976506D02*
X720957D01*
Y1087504D01*
X587607D02*
X720957D01*
X531327Y1708200D02*
Y1819198D01*
Y1708200D02*
X664677D01*
Y1819198D01*
X531327D02*
X664677D01*
X770220Y1642641D02*
X881218D01*
X770220Y1509291D02*
Y1642641D01*
Y1509291D02*
X881218D01*
Y1642641D01*
X1185726Y1865953D02*
Y1976951D01*
Y1865953D02*
X1319076D01*
Y1976951D01*
X1185726D02*
X1319076D01*
X55509Y57350D02*
X65669D01*
X60589Y52270D02*
Y62429D01*
X1382472Y73434D02*
X1392632D01*
X1387552Y68354D02*
Y78514D01*
X1394460Y2637025D02*
X1404620D01*
X1399540Y2631945D02*
Y2642105D01*
X62940Y2645049D02*
X73100D01*
X68020Y2639969D02*
Y2650129D01*
X260236Y2210591D02*
Y2248091D01*
X225236Y2210591D02*
Y2248091D01*
X260236D01*
X225236Y2210591D02*
X260236D01*
X294443Y1981898D02*
Y2092896D01*
Y1981898D02*
X427793D01*
Y2092896D01*
X294443D02*
X427793D01*
X294546Y2093400D02*
Y2204397D01*
Y2093400D02*
X427896D01*
Y2204397D01*
X294546D02*
X427896D01*
X495200Y2372169D02*
Y2579169D01*
Y2372169D02*
X522200Y2345169D01*
X743200D01*
Y2579169D01*
X495200Y2579169D02*
X743200Y2579169D01*
X614200Y2462169D02*
X624200D01*
X619200Y2457169D02*
Y2467169D01*
X480656Y1304310D02*
X490656D01*
X485656Y1299310D02*
Y1309310D01*
X250540Y1803539D02*
Y1866039D01*
X205540Y1803539D02*
Y1866039D01*
X250540D01*
X205540Y1803539D02*
X250540D01*
X205540Y1701939D02*
Y1764439D01*
X250540Y1701939D02*
Y1764439D01*
X205540Y1701939D02*
X250540D01*
X205540Y1764439D02*
X250540D01*
X485305Y1166187D02*
X596303D01*
X485305Y1032837D02*
Y1166187D01*
Y1032837D02*
X596303D01*
Y1166187D01*
X420743Y547517D02*
Y658515D01*
X287393D02*
X420743D01*
X287393Y547517D02*
Y658515D01*
Y547517D02*
X420743D01*
X203669Y1056967D02*
Y1190317D01*
X92671Y1056967D02*
X203669D01*
X92671D02*
Y1190317D01*
X203669D01*
X205003Y262659D02*
Y279159D01*
X192503Y262659D02*
X205003D01*
X192503D02*
Y279159D01*
X205003D01*
X206003Y168061D02*
Y184561D01*
X193503Y168061D02*
X206003D01*
X193503D02*
Y184561D01*
X206003D01*
X201008Y793037D02*
X213508D01*
X201008Y776537D02*
Y793037D01*
Y776537D02*
X213508D01*
Y793037D01*
X202008Y904797D02*
X214508D01*
X202008Y888297D02*
Y904797D01*
Y888297D02*
X214508D01*
Y904797D01*
X1233880Y63274D02*
Y73434D01*
X1228800Y68354D02*
X1238960D01*
X1216100Y86134D02*
X1251660D01*
Y50574D02*
Y86134D01*
X1216100Y50574D02*
X1251660D01*
X1216100D02*
Y86134D01*
X239487Y2346129D02*
Y2356289D01*
X234407Y2351209D02*
X244567D01*
X221707Y2368989D02*
X257267D01*
Y2333429D02*
Y2368989D01*
X221707Y2333429D02*
X257267D01*
X221707D02*
Y2368989D01*
X1176020Y2598420D02*
Y2608580D01*
X1170940Y2603500D02*
X1181100D01*
X1158240Y2621280D02*
X1193800D01*
Y2585720D02*
Y2621280D01*
X1158240Y2585720D02*
X1193800D01*
X1158240D02*
Y2621280D01*
X78260Y2467249D02*
X88260D01*
X83260Y2462249D02*
Y2472249D01*
X124260Y1716179D02*
X169260D01*
X124260Y1653679D02*
X169260D01*
Y1716179D01*
X124260Y1653679D02*
Y1716179D01*
Y1850339D02*
X169260D01*
X124260Y1912839D02*
X169260D01*
X124260Y1850339D02*
Y1912839D01*
X169260Y1850339D02*
Y1912839D01*
X220420Y2457169D02*
Y2467169D01*
X215420Y2462169D02*
X225420D01*
X209420Y2451169D02*
X231420D01*
X209420Y2473169D02*
X231420D01*
Y2451169D02*
Y2473169D01*
X209420Y2451169D02*
Y2473169D01*
X308680Y2215456D02*
X353680D01*
X308680Y2277956D02*
X353680D01*
X308680Y2215456D02*
Y2277956D01*
X353680Y2215456D02*
Y2277956D01*
X99228Y397731D02*
Y531081D01*
X210226D01*
Y397731D02*
Y531081D01*
X99228Y397731D02*
X210226D01*
X285880Y2431050D02*
Y2545050D01*
Y2431050D02*
X403880D01*
Y2545050D01*
X285880D02*
X403880D01*
X342880Y2486550D02*
X346880D01*
X344880Y2484550D02*
Y2488550D01*
X759960Y387319D02*
X825960D01*
Y493319D01*
X759960D02*
X825960D01*
X759960Y387319D02*
Y493319D01*
X792960Y435239D02*
Y445399D01*
Y440319D02*
X798040D01*
X787880D02*
X792960D01*
X958060Y445409D02*
X963140D01*
X968220D01*
X963140Y440329D02*
Y450489D01*
X930140Y392409D02*
Y498409D01*
X996140D01*
Y392409D02*
Y498409D01*
X930140Y392409D02*
X996140D01*
X185442Y1555643D02*
Y1666641D01*
Y1555643D02*
X318792D01*
Y1666641D01*
X185442D02*
X318792D01*
D17*
X470656Y1290310D02*
Y1318310D01*
X500656Y1290310D02*
Y1318310D01*
X470656Y1290310D02*
X500656D01*
X470656Y1318310D02*
X500656D01*
D18*
X449020Y2137712D02*
Y2287572D01*
X555700Y2137712D02*
Y2287572D01*
X502360Y2234232D02*
X509980D01*
X502360D02*
Y2241852D01*
X494740Y2234232D02*
X502360D01*
X449020Y2137712D02*
X555700D01*
X449020Y2287572D02*
X555700D01*
X502360Y2226612D02*
Y2234232D01*
X74160Y554629D02*
X224020D01*
X74160Y661309D02*
X224020D01*
X127500Y607969D02*
Y615589D01*
X119880Y607969D02*
X127500D01*
Y600349D02*
Y607969D01*
X224020Y554629D02*
Y661309D01*
X74160Y554629D02*
Y661309D01*
X127500Y607969D02*
X135120D01*
X141132Y2249261D02*
Y2254341D01*
X136052D02*
X141132D01*
Y2259421D01*
Y2254341D02*
X146212D01*
X81442Y2225131D02*
Y2283551D01*
Y2225131D02*
X200822D01*
Y2283551D01*
X81442D02*
X200822D01*
D230*
X669470Y1887679D02*
Y1990179D01*
X771970Y1887679D02*
Y1990179D01*
X669470D02*
X771970D01*
X669470Y1887679D02*
X771970D01*
X1060140Y856113D02*
X1123140D01*
X1060140Y892113D02*
X1123140D01*
Y856113D02*
Y892113D01*
X1060140Y856113D02*
Y892113D01*
X1348954Y1764371D02*
Y1800371D01*
X1391054Y1764371D02*
Y1800371D01*
X1348954D02*
X1391054D01*
X1348954Y1764371D02*
X1391054D01*
X928300Y1720969D02*
X1021300D01*
X928300Y1780969D02*
X1021300D01*
Y1720969D02*
Y1780969D01*
X928300Y1720969D02*
Y1780969D01*
X306080Y1747529D02*
Y1825529D01*
X409080Y1747529D02*
Y1825529D01*
X306080Y1747529D02*
X409080D01*
X306080Y1825529D02*
X409080D01*
X410030Y278708D02*
X478530D01*
X410030Y334708D02*
X478530D01*
Y278708D02*
Y334708D01*
X410030Y278708D02*
Y334708D01*
Y64349D02*
X478530D01*
X410030Y120349D02*
X478530D01*
Y64349D02*
Y120349D01*
X410030Y64349D02*
Y120349D01*
X409950Y120404D02*
X478450D01*
X409950Y176404D02*
X478450D01*
Y120404D02*
Y176404D01*
X409950Y120404D02*
Y176404D01*
X575660Y282939D02*
X678160D01*
X575660Y180439D02*
X678160D01*
Y282939D01*
X575660Y180439D02*
Y282939D01*
X190300Y257411D02*
Y332211D01*
X35650D02*
X190300D01*
X35650Y257411D02*
X190300D01*
X35650D02*
Y332211D01*
X190300Y155811D02*
Y230611D01*
X35650D02*
X190300D01*
X35650Y155811D02*
X190300D01*
X35650D02*
Y230611D01*
X280880Y198732D02*
X339880D01*
X280880Y257732D02*
X339880D01*
Y198732D02*
Y257732D01*
X280880Y198732D02*
Y257732D01*
X410029Y223020D02*
X478529D01*
X410029Y279020D02*
X478529D01*
Y223020D02*
Y279020D01*
X410029Y223020D02*
Y279020D01*
X547156Y842960D02*
X630156D01*
X547156Y925960D02*
X630156D01*
X547156Y842960D02*
Y925960D01*
X630156Y842960D02*
Y925960D01*
X415667Y704987D02*
Y760987D01*
X347167Y704987D02*
Y760987D01*
Y704987D02*
X415667D01*
X347167Y760987D02*
X415667D01*
X419307Y870373D02*
Y926373D01*
X350807Y870373D02*
Y926373D01*
Y870373D02*
X419307D01*
X350807Y926373D02*
X419307D01*
X258062Y816511D02*
Y881011D01*
X295063Y816511D02*
Y881011D01*
X258062Y816511D02*
X295063D01*
X258062Y881011D02*
X295063D01*
X419307Y927347D02*
Y983347D01*
X350807Y927347D02*
Y983347D01*
Y927347D02*
X419307D01*
X350807Y983347D02*
X419307D01*
X415667Y762525D02*
Y818525D01*
X347167Y762525D02*
Y818525D01*
Y762525D02*
X415667D01*
X347167Y818525D02*
X415667D01*
X377599Y1340667D02*
Y1466667D01*
X253599Y1340667D02*
Y1466667D01*
Y1340667D02*
X377599D01*
X253599Y1466667D02*
X377599D01*
X39207Y759197D02*
Y833997D01*
Y759197D02*
X193857D01*
X39207Y833997D02*
X193857D01*
Y759197D02*
Y833997D01*
X39207Y870957D02*
Y945757D01*
Y870957D02*
X193857D01*
X39207Y945757D02*
X193857D01*
Y870957D02*
Y945757D01*
X352930Y2351209D02*
X435930D01*
X352930Y2398209D02*
X435930D01*
Y2351209D02*
Y2398209D01*
X352930Y2351209D02*
Y2398209D01*
D231*
X715720Y1938929D02*
X725720D01*
X720720Y1933929D02*
Y1943929D01*
X1091640Y869113D02*
Y879113D01*
X1086640Y874113D02*
X1096640D01*
X1365004Y1782371D02*
X1375004D01*
X1370004Y1777371D02*
Y1787371D01*
X974800Y1745969D02*
Y1755969D01*
X969800Y1750969D02*
X979800D01*
X275579Y2258888D02*
X285579D01*
X280579Y2253888D02*
Y2263888D01*
X288579Y2243888D02*
Y2273388D01*
X272579Y2243888D02*
Y2273388D01*
X288579D01*
X272579Y2243888D02*
X288579D01*
X225237Y2253406D02*
X260237D01*
X225237Y2291906D02*
X260237D01*
X225237Y2253406D02*
Y2291906D01*
X260237Y2253406D02*
Y2291906D01*
X242737Y2267656D02*
Y2277656D01*
X237737Y2272656D02*
X247737D01*
X237736Y2229341D02*
X247736D01*
X242736Y2224341D02*
Y2234341D01*
X352580Y1786529D02*
X362580D01*
X357580Y1781529D02*
Y1791529D01*
X223040Y1834789D02*
X233040D01*
X228040Y1829789D02*
Y1839789D01*
X223040Y1733189D02*
X233040D01*
X228040Y1728189D02*
Y1738189D01*
X190899Y1372307D02*
X226899D01*
X190899Y1411307D02*
X226899D01*
X190899Y1372307D02*
Y1411307D01*
X226899Y1372307D02*
Y1411307D01*
X208899Y1386807D02*
Y1396807D01*
X203899Y1391807D02*
X213899D01*
X92059Y1270807D02*
Y1306807D01*
X131059Y1270807D02*
Y1306807D01*
X92059D02*
X131059D01*
X92059Y1270807D02*
X131059D01*
X106559Y1288807D02*
X116559D01*
X111559Y1283807D02*
Y1293807D01*
X444280Y301708D02*
Y311708D01*
X439280Y306708D02*
X449280D01*
X444280Y87349D02*
Y97349D01*
X439280Y92349D02*
X449280D01*
X444200Y143404D02*
Y153404D01*
X439200Y148404D02*
X449200D01*
X626910Y226689D02*
Y236689D01*
X621910Y231689D02*
X631910D01*
X152900Y289811D02*
Y299811D01*
X147900Y294811D02*
X157900D01*
X152900Y188211D02*
Y198211D01*
X147900Y193211D02*
X157900D01*
X310380Y223232D02*
Y233232D01*
X305380Y228232D02*
X315380D01*
X444279Y246019D02*
Y256019D01*
X439279Y251019D02*
X449279D01*
X588656Y879460D02*
Y889460D01*
X583656Y884460D02*
X593656D01*
X376417Y732987D02*
X386417D01*
X381417Y727987D02*
Y737987D01*
X380057Y898373D02*
X390057D01*
X385057Y893373D02*
Y903373D01*
X271562Y848761D02*
X281562D01*
X276562Y843761D02*
Y853761D01*
X380057Y955347D02*
X390057D01*
X385057Y950347D02*
Y960347D01*
X376417Y790525D02*
X386417D01*
X381417Y785525D02*
Y795525D01*
X310599Y1403667D02*
X320599D01*
X315599Y1398667D02*
Y1408667D01*
X151458Y796597D02*
X161457D01*
X156457Y791597D02*
Y801597D01*
X151458Y908357D02*
X161457D01*
X156457Y903357D02*
Y913357D01*
X28020Y1889589D02*
X118020D01*
X28020Y1677589D02*
Y1889589D01*
X65270Y1858589D02*
X70770D01*
X68020Y1855839D02*
Y1861339D01*
X118020Y1677589D02*
Y1889589D01*
X28020Y1677589D02*
X118020D01*
X27380Y1313497D02*
X179780D01*
Y1482407D01*
X27380Y1313497D02*
Y1482407D01*
X179780D01*
X113740Y2114269D02*
Y2124269D01*
X108740Y2119269D02*
X118740D01*
X18490Y2044339D02*
Y2190389D01*
Y2044339D02*
X233120D01*
Y2190389D01*
X18490D02*
X233120D01*
X146760Y1679929D02*
Y1689929D01*
X141760Y1684929D02*
X151760D01*
X146760Y1876589D02*
Y1886589D01*
X141760Y1881589D02*
X151760D01*
X331180Y2241706D02*
Y2251706D01*
X326180Y2246706D02*
X336180D01*
X394431Y2369709D02*
Y2379709D01*
X389431Y2374709D02*
X399431D01*
X613509Y655627D02*
Y671627D01*
X584009Y655627D02*
Y671627D01*
Y655627D02*
X613509D01*
X584009Y671627D02*
X613509D01*
X593509Y663627D02*
X603509D01*
X598509Y658627D02*
Y668627D01*
X613901Y602077D02*
Y618077D01*
X584401Y602077D02*
Y618077D01*
Y602077D02*
X613901D01*
X584401Y618077D02*
X613901D01*
X593901Y610077D02*
X603901D01*
X598901Y605077D02*
Y615077D01*
X525210Y658188D02*
Y674188D01*
X495710Y658188D02*
Y674188D01*
Y658188D02*
X525210D01*
X495710Y674188D02*
X525210D01*
X505210Y666188D02*
X515210D01*
X510210Y661188D02*
Y671188D01*
X524818Y599768D02*
Y615768D01*
X495318Y599768D02*
Y615768D01*
Y599768D02*
X524818D01*
X495318Y615768D02*
X524818D01*
X504818Y607768D02*
X514818D01*
X509818Y602768D02*
Y612768D01*
D232*
X198753Y269909D02*
Y271909D01*
X197753Y270909D02*
X199753D01*
Y175311D02*
Y177311D01*
X198753Y176311D02*
X200753D01*
X206258Y784787D02*
X208258D01*
X207258Y783787D02*
Y785787D01*
Y896547D02*
X209258D01*
X208258Y895547D02*
Y897547D01*
M02*
