G04*
G04 #@! TF.GenerationSoftware,Altium Limited,Altium Designer,22.11.1 (43)*
G04*
G04 Layer_Color=128*
%FSLAX44Y44*%
%MOMM*%
G71*
G04*
G04 #@! TF.SameCoordinates,53296E8D-2C6D-437B-9D4A-58ED0EF3D4B0*
G04*
G04*
G04 #@! TF.FilePolarity,Positive*
G04*
G01*
G75*
%ADD14C,0.1270*%
D14*
X1139565Y1261027D02*
X1172565D01*
X1156065Y1244527D02*
Y1277527D01*
X1086640Y1023435D02*
X1119640D01*
X1103140Y1006935D02*
Y1039935D01*
X579803Y1260698D02*
X612803D01*
X596303Y1244198D02*
Y1277198D01*
X526860Y1386859D02*
X530359D01*
X528610Y1385109D02*
Y1388609D01*
X516160Y1386859D02*
X519660D01*
X517910Y1385109D02*
Y1388609D01*
X505460Y1386859D02*
X508960D01*
X507210Y1385109D02*
Y1388609D01*
X526860Y1397559D02*
X530359D01*
X528610Y1395809D02*
Y1399309D01*
X516160Y1397559D02*
X519660D01*
X517910Y1395809D02*
Y1399309D01*
X505460Y1397559D02*
X508960D01*
X507210Y1395809D02*
Y1399309D01*
X526860Y1408259D02*
X530359D01*
X528610Y1406509D02*
Y1410009D01*
X516160Y1408259D02*
X519660D01*
X517910Y1406509D02*
Y1410009D01*
X505460Y1408259D02*
X508960D01*
X507210Y1406509D02*
Y1410009D01*
X44089Y57350D02*
X77088D01*
X60589Y40849D02*
Y73850D01*
X1371052Y73434D02*
X1404052D01*
X1387552Y56934D02*
Y89934D01*
X1383040Y2637025D02*
X1416040D01*
X1399540Y2620526D02*
Y2653525D01*
X51520Y2645049D02*
X84520D01*
X68020Y2628549D02*
Y2661549D01*
X144650Y294811D02*
X161150D01*
X152900Y286561D02*
Y303061D01*
X170050Y269411D02*
X186550D01*
X178300Y261161D02*
Y277661D01*
X119250Y269411D02*
X135750D01*
X127500Y261161D02*
Y277661D01*
X119250Y320211D02*
X135750D01*
X127500Y311961D02*
Y328461D01*
X170050Y320211D02*
X186550D01*
X178300Y311961D02*
Y328461D01*
X144650Y193211D02*
X161150D01*
X152900Y184961D02*
Y201461D01*
X170050Y167811D02*
X186550D01*
X178300Y159561D02*
Y176061D01*
X119250Y167811D02*
X135750D01*
X127500Y159561D02*
Y176061D01*
X119250Y218611D02*
X135750D01*
X127500Y210361D02*
Y226861D01*
X170050Y218611D02*
X186550D01*
X178300Y210361D02*
Y226861D01*
X173608Y821997D02*
X190107D01*
X181857Y813747D02*
Y830247D01*
X122808Y821997D02*
X139307D01*
X131057Y813747D02*
Y830247D01*
X122808Y771197D02*
X139307D01*
X131057Y762947D02*
Y779447D01*
X173608Y771197D02*
X190107D01*
X181857Y762947D02*
Y779447D01*
X148208Y796597D02*
X164707D01*
X156457Y788347D02*
Y804847D01*
X173608Y933757D02*
X190107D01*
X181857Y925507D02*
Y942007D01*
X122808Y933757D02*
X139307D01*
X131057Y925507D02*
Y942007D01*
X122808Y882957D02*
X139307D01*
X131057Y874707D02*
Y891207D01*
X173608Y882957D02*
X190107D01*
X181857Y874707D02*
Y891207D01*
X148208Y908357D02*
X164707D01*
X156457Y900107D02*
Y916607D01*
X61520Y1708589D02*
X74520D01*
X68020Y1702089D02*
Y1715089D01*
X61520Y1758589D02*
X74520D01*
X68020Y1752089D02*
Y1765089D01*
X61520Y1808589D02*
X74520D01*
X68020Y1802089D02*
Y1815089D01*
X61520Y1858589D02*
X74520D01*
X68020Y1852089D02*
Y1865089D01*
X71760Y2527449D02*
X94760D01*
X83260Y2515949D02*
Y2538949D01*
X71760Y2407049D02*
X94760D01*
X83260Y2395549D02*
Y2418549D01*
X51760Y2454749D02*
X60760D01*
X56260Y2450249D02*
Y2459249D01*
X51760Y2479749D02*
X60760D01*
X56260Y2475249D02*
Y2484249D01*
X31760Y2454749D02*
X40760D01*
X36260Y2450249D02*
Y2459249D01*
X31760Y2479749D02*
X40760D01*
X36260Y2475249D02*
Y2484249D01*
X61924Y1335087D02*
X94436D01*
X78180Y1318831D02*
Y1351343D01*
X61924Y1462087D02*
X94436D01*
X78180Y1445831D02*
Y1478343D01*
X99135Y1363027D02*
X108025D01*
X103580Y1358582D02*
Y1367472D01*
X99135Y1383347D02*
X108025D01*
X103580Y1378902D02*
Y1387792D01*
X99135Y1403667D02*
X108025D01*
X103580Y1399222D02*
Y1408112D01*
X99135Y1423987D02*
X108025D01*
X103580Y1419542D02*
Y1428432D01*
X116915Y1373187D02*
X125805D01*
X121360Y1368742D02*
Y1377632D01*
X116915Y1393507D02*
X125805D01*
X121360Y1389062D02*
Y1397952D01*
X116915Y1413827D02*
X125805D01*
X121360Y1409382D02*
Y1418272D01*
X116915Y1434147D02*
X125805D01*
X121360Y1429702D02*
Y1438592D01*
X165175Y1330007D02*
X174065D01*
X169620Y1325562D02*
Y1334452D01*
X165175Y1444307D02*
X174065D01*
X169620Y1439862D02*
Y1448752D01*
X165175Y1467167D02*
X174065D01*
X169620Y1462722D02*
Y1471612D01*
X165175Y1352867D02*
X174065D01*
X169620Y1348422D02*
Y1357312D01*
X150548Y2077269D02*
X168582D01*
X159565Y2068252D02*
Y2086286D01*
X150548Y2119269D02*
X168582D01*
X159565Y2110252D02*
Y2128286D01*
X150548Y2161269D02*
X168582D01*
X159565Y2152252D02*
Y2170286D01*
X205548Y2077269D02*
X223582D01*
X214565Y2068252D02*
Y2086286D01*
X205548Y2119269D02*
X223582D01*
X214565Y2110252D02*
Y2128286D01*
X205548Y2161269D02*
X223582D01*
X214565Y2152252D02*
Y2170286D01*
X71579Y2161269D02*
X101551D01*
X86565Y2146283D02*
Y2176255D01*
X71579Y2077269D02*
X101551D01*
X86565Y2062283D02*
Y2092255D01*
X747205Y1210941D02*
X748221D01*
X747713Y1210433D02*
Y1211449D01*
X736570Y1211576D02*
X737586D01*
X737077Y1211068D02*
Y1212084D01*
X1288374Y1642812D02*
X1289390D01*
X1288882Y1642304D02*
Y1643320D01*
X1265318Y1659270D02*
X1266334D01*
X1265826Y1658762D02*
Y1659778D01*
X1225653Y1658528D02*
X1226669D01*
X1226161Y1658020D02*
Y1659036D01*
X1240268Y1658705D02*
X1241284D01*
X1240776Y1658197D02*
Y1659214D01*
X1163269Y1643156D02*
X1164285D01*
X1163777Y1642648D02*
Y1643664D01*
X1166455Y1655590D02*
X1167471D01*
X1166963Y1655082D02*
Y1656098D01*
X849207Y1338342D02*
X850223D01*
X849715Y1337834D02*
Y1338850D01*
X865956Y1342169D02*
X866972D01*
X866464Y1341661D02*
Y1342677D01*
X846099Y1322047D02*
X847115D01*
X846607Y1321539D02*
Y1322554D01*
X837559Y1320587D02*
X838575D01*
X838067Y1320079D02*
Y1321095D01*
X847559Y1330587D02*
X848575D01*
X848067Y1330079D02*
Y1331095D01*
X939455Y1328691D02*
X940471D01*
X939963Y1328183D02*
Y1329199D01*
X1182082Y1565106D02*
X1183098D01*
X1182589Y1564598D02*
Y1565614D01*
X1174050Y1557074D02*
X1175066D01*
X1174558Y1556566D02*
Y1557582D01*
X975614Y1352532D02*
X976630D01*
X976122Y1352024D02*
Y1353040D01*
X874023Y1224123D02*
X875039D01*
X874531Y1223615D02*
Y1224631D01*
X866594Y1211811D02*
X867610D01*
X867102Y1211303D02*
Y1212319D01*
X1227365Y1553745D02*
X1228381D01*
X1227873Y1553237D02*
Y1554253D01*
X866297Y1291849D02*
X867313D01*
X866805Y1291341D02*
Y1292357D01*
X856297Y1281849D02*
X857313D01*
X856805Y1281341D02*
Y1282357D01*
X922555Y1345591D02*
X923571D01*
X923063Y1345083D02*
Y1346099D01*
X866492Y1311654D02*
X867508D01*
X867000Y1311146D02*
Y1312162D01*
X1168528Y1628901D02*
X1169544D01*
X1169036Y1628393D02*
Y1629409D01*
X883886Y1344260D02*
X884902D01*
X884394Y1343752D02*
Y1344768D01*
X1183984Y1638251D02*
X1185000D01*
X1184492Y1637743D02*
Y1638759D01*
X1168250Y1638356D02*
X1169266D01*
X1168758Y1637848D02*
Y1638864D01*
X899169Y1369275D02*
X900185D01*
X899677Y1368767D02*
Y1369783D01*
X904127Y1374234D02*
X905143D01*
X904635Y1373726D02*
Y1374742D01*
X855015Y1253131D02*
X856031D01*
X855523Y1252623D02*
Y1253639D01*
X895015Y1293131D02*
X896031D01*
X895523Y1292623D02*
Y1293639D01*
X905015Y1303131D02*
X906031D01*
X905523Y1302623D02*
Y1303639D01*
X845015Y1243131D02*
X846031D01*
X845523Y1242623D02*
Y1243639D01*
X836562Y1232276D02*
X837578D01*
X837070Y1231768D02*
Y1232784D01*
X1204436Y1588172D02*
X1205452D01*
X1204945Y1587664D02*
Y1588680D01*
X1182479Y1571841D02*
X1183495D01*
X1182987Y1571333D02*
Y1572348D01*
X1183414Y1554514D02*
X1184430D01*
X1183922Y1554006D02*
Y1555022D01*
X1204673Y1583047D02*
X1205689D01*
X1205181Y1582540D02*
Y1583555D01*
X856578Y1211658D02*
X857594D01*
X857086Y1211150D02*
Y1212166D01*
X866533Y1221613D02*
X867549D01*
X867041Y1221105D02*
Y1222121D01*
X876533Y1231613D02*
X877549D01*
X877041Y1231105D02*
Y1232121D01*
X966533Y1321613D02*
X967549D01*
X967041Y1321105D02*
Y1322121D01*
X946533Y1301613D02*
X947549D01*
X947041Y1301105D02*
Y1302121D01*
X886533Y1241613D02*
X887549D01*
X887041Y1241105D02*
Y1242121D01*
X928883Y1269263D02*
X929899D01*
X929391Y1268755D02*
Y1269771D01*
X965315Y1302830D02*
X966331D01*
X965824Y1302322D02*
Y1303338D01*
X993976Y1334356D02*
X994992D01*
X994484Y1333848D02*
Y1334864D01*
X877985Y1210161D02*
X879001D01*
X878493Y1209653D02*
Y1210669D01*
X946573Y1281573D02*
X947589D01*
X947081Y1281065D02*
Y1282081D01*
X990135Y1350630D02*
X991152D01*
X990643Y1350122D02*
Y1351138D01*
X867205Y1230941D02*
X868221D01*
X867713Y1230433D02*
Y1231449D01*
X877205Y1240940D02*
X878221D01*
X877713Y1240433D02*
Y1241449D01*
X907205Y1270941D02*
X908221D01*
X907713Y1270433D02*
Y1271449D01*
X847205Y1211199D02*
X848221D01*
X847713Y1210691D02*
Y1211707D01*
X991484Y1353575D02*
X992500D01*
X991992Y1353067D02*
Y1354083D01*
X857205Y1220941D02*
X858221D01*
X857713Y1220433D02*
Y1221449D01*
X1204278Y1563488D02*
X1205294D01*
X1204786Y1562980D02*
Y1563996D01*
X1204479Y1554797D02*
X1205495D01*
X1204987Y1554289D02*
Y1555305D01*
X1204372Y1569682D02*
X1205388D01*
X1204881Y1569173D02*
Y1570190D01*
X1160819Y1564955D02*
X1161835D01*
X1161327Y1564447D02*
Y1565462D01*
X838952Y1249194D02*
X839968D01*
X839460Y1248686D02*
Y1249702D01*
X833952Y1244194D02*
X834968D01*
X834460Y1243686D02*
Y1244702D01*
X843952Y1254194D02*
X844968D01*
X844460Y1253686D02*
Y1254702D01*
X823952Y1234194D02*
X824968D01*
X824460Y1233686D02*
Y1234702D01*
X819801Y1230043D02*
X820817D01*
X820309Y1229535D02*
Y1230551D01*
X895361Y1272785D02*
X896377D01*
X895869Y1272277D02*
Y1273293D01*
X935361Y1312785D02*
X936377D01*
X935869Y1312277D02*
Y1313293D01*
X885481Y1262905D02*
X886497D01*
X885989Y1262397D02*
Y1263413D01*
X925361Y1302785D02*
X926377D01*
X925869Y1302277D02*
Y1303293D01*
X855361Y1232785D02*
X856377D01*
X855869Y1232277D02*
Y1233293D01*
X865361Y1242785D02*
X866377D01*
X865869Y1242277D02*
Y1243293D01*
X1184669Y1581457D02*
X1185685D01*
X1185177Y1580949D02*
Y1581965D01*
X1160272Y1583239D02*
X1161288D01*
X1160780Y1582731D02*
Y1583747D01*
X1228471Y1573999D02*
X1229487D01*
X1228979Y1573492D02*
Y1574507D01*
X878414Y1249732D02*
X879430D01*
X878922Y1249224D02*
Y1250240D01*
X1166911Y1576872D02*
X1167927D01*
X1167419Y1576364D02*
Y1577380D01*
X1180073Y1596141D02*
X1181089D01*
X1180581Y1595633D02*
Y1596649D01*
X826039Y1242107D02*
X827055D01*
X826547Y1241599D02*
Y1242615D01*
X807205Y1230941D02*
X808221D01*
X807713Y1230433D02*
Y1231449D01*
X827205Y1250941D02*
X828221D01*
X827713Y1250433D02*
Y1251449D01*
X1167892Y1594771D02*
X1168908D01*
X1168400Y1594263D02*
Y1595279D01*
X817205Y1240940D02*
X818221D01*
X817713Y1240433D02*
Y1241449D01*
X1226312Y1592612D02*
X1227328D01*
X1226820Y1592104D02*
Y1593120D01*
X1160272Y1594771D02*
X1161288D01*
X1160780Y1594263D02*
Y1595279D01*
X892476Y1395332D02*
X893492D01*
X892984Y1394824D02*
Y1395840D01*
X824505Y1313640D02*
X825521D01*
X825014Y1313132D02*
Y1314148D01*
X1160675Y1626302D02*
X1161691D01*
X1161183Y1625794D02*
Y1626810D01*
X847116Y1303189D02*
X848132D01*
X847624Y1302681D02*
Y1303697D01*
X836037Y1292109D02*
X837053D01*
X836545Y1291601D02*
Y1292617D01*
X892039Y1386421D02*
X893055D01*
X892548Y1385913D02*
Y1386929D01*
X816882Y1311263D02*
X817898D01*
X817390Y1310755D02*
Y1311772D01*
X836882Y1331263D02*
X837898D01*
X837390Y1330755D02*
Y1331772D01*
X846742Y1311404D02*
X847758D01*
X847250Y1310896D02*
Y1311912D01*
X789928Y1245969D02*
X790944D01*
X790436Y1245461D02*
Y1246477D01*
X787409Y1240936D02*
X788425D01*
X787917Y1240428D02*
Y1241444D01*
X777205Y1240940D02*
X778221D01*
X777713Y1240433D02*
Y1241449D01*
X911308Y1375970D02*
X912324D01*
X911816Y1375462D02*
Y1376478D01*
X826037Y1282109D02*
X827053D01*
X826544Y1281601D02*
Y1282617D01*
X805046Y1270941D02*
X806062D01*
X805554Y1270433D02*
Y1271449D01*
X827205Y1298782D02*
X828221D01*
X827713Y1298274D02*
Y1299290D01*
X817205Y1290941D02*
X818221D01*
X817713Y1290432D02*
Y1291449D01*
X878106Y1408209D02*
X879122D01*
X878614Y1407701D02*
Y1408717D01*
X1153417Y1682534D02*
X1154433D01*
X1153925Y1682026D02*
Y1683042D01*
X877756Y1430366D02*
X878772D01*
X878264Y1429858D02*
Y1430874D01*
X872075Y1424369D02*
X873091D01*
X872583Y1423861D02*
Y1424877D01*
X806439Y1350360D02*
X807455D01*
X806947Y1349852D02*
Y1350868D01*
X876321Y1418474D02*
X877337D01*
X876829Y1417966D02*
Y1418982D01*
X871280Y1447372D02*
X872296D01*
X871788Y1446864D02*
Y1447880D01*
X833997Y1403983D02*
X835013D01*
X834505Y1403475D02*
Y1404491D01*
X825407Y1395393D02*
X826423D01*
X825916Y1394885D02*
Y1395901D01*
X707898Y1255337D02*
X708914D01*
X708406Y1254829D02*
Y1255845D01*
X761852Y1342973D02*
X762868D01*
X762360Y1342465D02*
Y1343481D01*
X786665Y1341992D02*
X787681D01*
X787173Y1341484D02*
Y1342500D01*
X737205Y1280941D02*
X738221D01*
X737713Y1280432D02*
Y1281449D01*
X757205Y1300941D02*
X758221D01*
X757713Y1300433D02*
Y1301449D01*
X875504Y1454827D02*
X876520D01*
X876012Y1454319D02*
Y1455335D01*
X875868Y1441135D02*
X876884D01*
X876376Y1440627D02*
Y1441643D01*
X816612Y1380752D02*
X817628D01*
X817120Y1380244D02*
Y1381260D01*
X867616Y1468585D02*
X868632D01*
X868124Y1468077D02*
Y1469093D01*
X867979Y1478268D02*
X868995D01*
X868487Y1477760D02*
Y1478776D01*
X861846Y1473588D02*
X862862D01*
X862354Y1473080D02*
Y1474096D01*
X862169Y1483876D02*
X863185D01*
X862677Y1483368D02*
Y1484384D01*
X867979Y1488440D02*
X868995D01*
X868487Y1487932D02*
Y1488948D01*
X727205Y1350941D02*
X728221D01*
X727713Y1350433D02*
Y1351449D01*
X736353Y1321783D02*
X737369D01*
X736861Y1321275D02*
Y1322291D01*
X747205Y1340941D02*
X748221D01*
X747713Y1340432D02*
Y1341449D01*
X757205Y1320941D02*
X758221D01*
X757713Y1320432D02*
Y1321449D01*
X1019940Y1299327D02*
X1020956D01*
X1020449Y1298819D02*
Y1299835D01*
X986954Y1254952D02*
X987970D01*
X987462Y1254444D02*
Y1255460D01*
X1023456Y1291453D02*
X1024472D01*
X1023964Y1290945D02*
Y1291961D01*
X967318Y1220828D02*
X968334D01*
X967826Y1220320D02*
Y1221336D01*
X963831Y1204315D02*
X964847D01*
X964339Y1203807D02*
Y1204823D01*
X1021177Y1252088D02*
X1022193D01*
X1021685Y1251580D02*
Y1252596D01*
X1026250Y1257161D02*
X1027266D01*
X1026758Y1256653D02*
Y1257669D01*
X969483Y1178662D02*
X970499D01*
X969992Y1178154D02*
Y1179170D01*
X945173Y1162973D02*
X946189D01*
X945681Y1162465D02*
Y1163481D01*
X997315Y1203887D02*
X998331D01*
X997823Y1203379D02*
Y1204395D01*
X1003440Y1198818D02*
X1004456D01*
X1003948Y1198310D02*
Y1199326D01*
X927438Y1180948D02*
X928454D01*
X927946Y1180440D02*
Y1181456D01*
X917318Y1170828D02*
X918334D01*
X917826Y1170320D02*
Y1171336D01*
X967205Y1160941D02*
X968221D01*
X967713Y1160433D02*
Y1161449D01*
X1000735Y1300706D02*
X1001751D01*
X1001243Y1300198D02*
Y1301214D01*
X1255540Y1698580D02*
X1256556D01*
X1256048Y1698072D02*
Y1699088D01*
X1263540Y1698580D02*
X1264556D01*
X1264048Y1698072D02*
Y1699088D01*
X872079Y1399668D02*
X873095D01*
X872587Y1399160D02*
Y1400176D01*
X819173Y1349276D02*
X820189D01*
X819681Y1348768D02*
Y1349784D01*
X809022Y1339124D02*
X810038D01*
X809529Y1338616D02*
Y1339632D01*
X1255540Y1690534D02*
X1256556D01*
X1256048Y1690026D02*
Y1691042D01*
X1240268Y1684312D02*
X1241284D01*
X1240776Y1683804D02*
Y1684820D01*
X1255540Y1684312D02*
X1256556D01*
X1256048Y1683804D02*
Y1684820D01*
X1288268Y1674706D02*
X1289284D01*
X1288776Y1674198D02*
Y1675213D01*
X1263850Y1682844D02*
X1264866D01*
X1264358Y1682336D02*
Y1683352D01*
X1174104Y1682534D02*
X1175120D01*
X1174612Y1682026D02*
Y1683042D01*
X1263540Y1666534D02*
X1264556D01*
X1264048Y1666026D02*
Y1667042D01*
X836377Y1341748D02*
X837393D01*
X836885Y1341240D02*
Y1342256D01*
X846377Y1351748D02*
X847393D01*
X846885Y1351240D02*
Y1352256D01*
X822327Y1327697D02*
X823343D01*
X822835Y1327189D02*
Y1328205D01*
X816388Y1321758D02*
X817404D01*
X816896Y1321250D02*
Y1322266D01*
X1160261Y1654642D02*
X1161277D01*
X1160769Y1654135D02*
Y1655150D01*
X1204618Y1657869D02*
X1205634D01*
X1205126Y1657361D02*
Y1658377D01*
X1240268Y1666706D02*
X1241284D01*
X1240776Y1666198D02*
Y1667214D01*
X1288268Y1650706D02*
X1289284D01*
X1288776Y1650197D02*
Y1651214D01*
X727205Y1140940D02*
X728221D01*
X727713Y1140433D02*
Y1141449D01*
X727205Y1130941D02*
X728221D01*
X727713Y1130433D02*
Y1131449D01*
X817205Y1130941D02*
X818221D01*
X817713Y1130433D02*
Y1131449D01*
X947205Y1170941D02*
X948221D01*
X947713Y1170433D02*
Y1171449D01*
X727205Y1190991D02*
X728221D01*
X727713Y1190483D02*
Y1191499D01*
X747205Y1220941D02*
X748221D01*
X747713Y1220433D02*
Y1221449D01*
X757205Y1230941D02*
X758221D01*
X757713Y1230433D02*
Y1231449D01*
X767052Y1241094D02*
X768068D01*
X767560Y1240586D02*
Y1241602D01*
X967205Y1240940D02*
X968221D01*
X967713Y1240433D02*
Y1241449D01*
X727190Y1210941D02*
X728206D01*
X727698Y1210433D02*
Y1211449D01*
X990250Y1270658D02*
X991266D01*
X990758Y1270150D02*
Y1271166D01*
X737195Y1240940D02*
X738211D01*
X737703Y1240433D02*
Y1241449D01*
X1183132Y1648759D02*
X1184148D01*
X1183640Y1648251D02*
Y1649267D01*
X1311540Y1634534D02*
X1312556D01*
X1312048Y1634026D02*
Y1635042D01*
X1303540Y1642534D02*
X1304556D01*
X1304048Y1642026D02*
Y1643042D01*
X1288268Y1634706D02*
X1289284D01*
X1288776Y1634198D02*
Y1635214D01*
X1303540Y1634534D02*
X1304556D01*
X1304048Y1634026D02*
Y1635042D01*
X757205Y1210941D02*
X758221D01*
X757713Y1210433D02*
Y1211449D01*
X937205Y1250941D02*
X938221D01*
X937713Y1250433D02*
Y1251449D01*
X1303540Y1602534D02*
X1304556D01*
X1304048Y1602026D02*
Y1603042D01*
X797052Y1271094D02*
X798068D01*
X797560Y1270586D02*
Y1271602D01*
X767205Y1220941D02*
X768221D01*
X767713Y1220433D02*
Y1221449D01*
X1183132Y1620487D02*
X1184148D01*
X1183640Y1619979D02*
Y1620995D01*
X1204602Y1638909D02*
X1205618D01*
X1205110Y1638401D02*
Y1639417D01*
X1288610Y1611129D02*
X1289626D01*
X1289118Y1610621D02*
Y1611637D01*
X757205Y1220941D02*
X758221D01*
X757713Y1220433D02*
Y1221449D01*
X1205815Y1611224D02*
X1206831D01*
X1206323Y1610716D02*
Y1611732D01*
X1204772Y1601560D02*
X1205788D01*
X1205280Y1601052D02*
Y1602068D01*
X1226312Y1629537D02*
X1227328D01*
X1226820Y1629029D02*
Y1630045D01*
X1226312Y1638714D02*
X1227328D01*
X1226820Y1638206D02*
Y1639222D01*
X1263523Y1626534D02*
X1264539D01*
X1264031Y1626026D02*
Y1627042D01*
X1255540Y1634534D02*
X1256556D01*
X1256048Y1634026D02*
Y1635042D01*
X1263540Y1642534D02*
X1264556D01*
X1264048Y1642026D02*
Y1643042D01*
X1263540Y1634534D02*
X1264556D01*
X1264048Y1634026D02*
Y1635042D01*
X1255540Y1642534D02*
X1256556D01*
X1256048Y1642026D02*
Y1643042D01*
X1255540Y1650699D02*
X1256556D01*
X1256048Y1650191D02*
Y1651207D01*
X1255540Y1626534D02*
X1256556D01*
X1256048Y1626026D02*
Y1627042D01*
X844902Y1263484D02*
X845918D01*
X845410Y1262976D02*
Y1263992D01*
X1304144Y1618374D02*
X1305159D01*
X1304651Y1617866D02*
Y1618882D01*
X1240268Y1634706D02*
X1241284D01*
X1240776Y1634198D02*
Y1635214D01*
X1226312Y1620586D02*
X1227328D01*
X1226820Y1620078D02*
Y1621094D01*
X907185Y1340941D02*
X908201D01*
X907693Y1340432D02*
Y1341449D01*
X827359Y1261027D02*
X828375D01*
X827867Y1260519D02*
Y1261535D01*
X817205Y1250941D02*
X818221D01*
X817713Y1250433D02*
Y1251449D01*
X887205Y1320941D02*
X888221D01*
X887713Y1320432D02*
Y1321449D01*
X928463Y1129683D02*
X929479D01*
X928971Y1129175D02*
Y1130191D01*
X887205Y1160941D02*
X888221D01*
X887713Y1160433D02*
Y1161449D01*
X1322832Y1594025D02*
X1323848D01*
X1323340Y1593517D02*
Y1594533D01*
X947205Y1220941D02*
X948221D01*
X947713Y1220433D02*
Y1221449D01*
X927205Y1200940D02*
X928221D01*
X927713Y1200433D02*
Y1201449D01*
X877205Y1150941D02*
X878221D01*
X877713Y1150433D02*
Y1151449D01*
X1311540Y1586534D02*
X1312556D01*
X1312048Y1586026D02*
Y1587042D01*
X1311540Y1698534D02*
X1312556D01*
X1312048Y1698026D02*
Y1699042D01*
X1287401Y1562749D02*
X1288417D01*
X1287909Y1562241D02*
Y1563257D01*
X1263523Y1610534D02*
X1264539D01*
X1264031Y1610026D02*
Y1611042D01*
X1263523Y1618534D02*
X1264539D01*
X1264031Y1618026D02*
Y1619042D01*
X1263523Y1602534D02*
X1264539D01*
X1264031Y1602026D02*
Y1603042D01*
X1288268Y1626706D02*
X1289284D01*
X1288776Y1626198D02*
Y1627214D01*
X1288268Y1602706D02*
X1289284D01*
X1288776Y1602198D02*
Y1603214D01*
X1288268Y1666706D02*
X1289284D01*
X1288776Y1666198D02*
Y1667214D01*
X1288268Y1682706D02*
X1289284D01*
X1288776Y1682198D02*
Y1683214D01*
X1288268Y1658705D02*
X1289284D01*
X1288776Y1658197D02*
Y1659214D01*
X1303540Y1610534D02*
X1304556D01*
X1304048Y1610026D02*
Y1611042D01*
X1322832Y1575597D02*
X1323848D01*
X1323340Y1575089D02*
Y1576105D01*
X1322832Y1649412D02*
X1323848D01*
X1323340Y1648904D02*
Y1649920D01*
X1311540Y1650534D02*
X1312556D01*
X1312048Y1650026D02*
Y1651042D01*
X1303540Y1658534D02*
X1304556D01*
X1304048Y1658026D02*
Y1659042D01*
X1349597Y1787371D02*
X1350613D01*
X1350105Y1786863D02*
Y1787879D01*
X1346636Y1818640D02*
X1347652D01*
X1347144Y1818132D02*
Y1819148D01*
X727205Y1220941D02*
X728221D01*
X727713Y1220433D02*
Y1221449D01*
X727205Y1201571D02*
X728221D01*
X727713Y1201063D02*
Y1202079D01*
X726835Y1180940D02*
X727851D01*
X727343Y1180433D02*
Y1181449D01*
X1240268Y1706706D02*
X1241284D01*
X1240776Y1706198D02*
Y1707214D01*
X1263540Y1706534D02*
X1264556D01*
X1264048Y1706026D02*
Y1707042D01*
X727195Y1160941D02*
X728211D01*
X727703Y1160433D02*
Y1161449D01*
X727205Y1170941D02*
X728221D01*
X727713Y1170433D02*
Y1171449D01*
X806311Y1512763D02*
X807327D01*
X806819Y1512255D02*
Y1513271D01*
X747205Y1140941D02*
X748221D01*
X747713Y1140433D02*
Y1141449D01*
X1018511Y1327847D02*
X1019527D01*
X1019019Y1327339D02*
Y1328355D01*
X966079Y1262067D02*
X967095D01*
X966587Y1261559D02*
Y1262575D01*
X896156Y1192144D02*
X897172D01*
X896664Y1191636D02*
Y1192652D01*
X757205Y1170966D02*
X758221D01*
X757713Y1170458D02*
Y1171474D01*
X747205Y1170966D02*
X748221D01*
X747713Y1170458D02*
Y1171474D01*
X994899Y1284074D02*
X995915D01*
X995407Y1283566D02*
Y1284582D01*
X1263499Y1650493D02*
X1264515D01*
X1264007Y1649984D02*
Y1651001D01*
X807359Y1180740D02*
X808375D01*
X807867Y1180231D02*
Y1181247D01*
X747359Y1181027D02*
X748375D01*
X747867Y1180519D02*
Y1181535D01*
X737084Y1190941D02*
X738100D01*
X737592Y1190433D02*
Y1191449D01*
X1227325Y1563488D02*
X1228341D01*
X1227833Y1562980D02*
Y1563996D01*
X1263891Y1594182D02*
X1264907D01*
X1264399Y1593674D02*
Y1594690D01*
X1255540Y1602534D02*
X1256556D01*
X1256048Y1602026D02*
Y1603042D01*
X1240268Y1602706D02*
X1241284D01*
X1240776Y1602198D02*
Y1603214D01*
X1255581Y1594492D02*
X1256597D01*
X1256089Y1593985D02*
Y1595000D01*
X1240268Y1586705D02*
X1241284D01*
X1240776Y1586198D02*
Y1587213D01*
X777205Y1220941D02*
X778221D01*
X777713Y1220433D02*
Y1221449D01*
X787205Y1220941D02*
X788221D01*
X787713Y1220433D02*
Y1221449D01*
X777205Y1230941D02*
X778221D01*
X777713Y1230433D02*
Y1231449D01*
X797205Y1240940D02*
X798221D01*
X797713Y1240433D02*
Y1241449D01*
X847049Y1221096D02*
X848065D01*
X847557Y1220589D02*
Y1221605D01*
X837205Y1220941D02*
X838221D01*
X837713Y1220433D02*
Y1221449D01*
X817274Y1220721D02*
X818290D01*
X817782Y1220213D02*
Y1221229D01*
X857205Y1240940D02*
X858221D01*
X857713Y1240433D02*
Y1241449D01*
X806956Y1221190D02*
X807972D01*
X807464Y1220682D02*
Y1221698D01*
X797205Y1220941D02*
X798221D01*
X797713Y1220433D02*
Y1221449D01*
X837205Y1211199D02*
X838221D01*
X837713Y1210691D02*
Y1211707D01*
X1240425Y1593479D02*
X1241441D01*
X1240933Y1592971D02*
Y1593987D01*
X1226312Y1579367D02*
X1227328D01*
X1226820Y1578859D02*
Y1579875D01*
X1240268Y1618706D02*
X1241284D01*
X1240776Y1618198D02*
Y1619214D01*
X1240268Y1610706D02*
X1241284D01*
X1240776Y1610197D02*
Y1611214D01*
X1263540Y1586534D02*
X1264556D01*
X1264048Y1586026D02*
Y1587042D01*
X697683Y1323166D02*
X698699D01*
X698192Y1322658D02*
Y1323674D01*
X772588Y1512763D02*
X773604D01*
X773096Y1512255D02*
Y1513271D01*
X747205Y1230941D02*
X748221D01*
X747713Y1230433D02*
Y1231449D01*
X1183132Y1601922D02*
X1184148D01*
X1183640Y1601414D02*
Y1602430D01*
X824756Y1915536D02*
X825772D01*
X825264Y1915028D02*
Y1916044D01*
X827731Y1919523D02*
X828747D01*
X828239Y1919015D02*
Y1920031D01*
X824725Y1922529D02*
X825741D01*
X825233Y1922021D02*
Y1923037D01*
X777055Y1886487D02*
X778071D01*
X777563Y1885979D02*
Y1886995D01*
X780129Y1882742D02*
X781145D01*
X780638Y1882234D02*
Y1883250D01*
X726781Y1889523D02*
X727797D01*
X727289Y1889016D02*
Y1890031D01*
X728634Y1886273D02*
X729650D01*
X729142Y1885765D02*
Y1886781D01*
X718727Y1857359D02*
X719743D01*
X719235Y1856850D02*
Y1857867D01*
X716368Y1859755D02*
X717384D01*
X716876Y1859247D02*
Y1860263D01*
X698172Y1857359D02*
X699188D01*
X698680Y1856850D02*
Y1857867D01*
X695813Y1859755D02*
X696829D01*
X696321Y1859247D02*
Y1860263D01*
X751908Y1872338D02*
X752924D01*
X752416Y1871830D02*
Y1872846D01*
X748134Y1875404D02*
X749150D01*
X748642Y1874896D02*
Y1875912D01*
X736874Y1871867D02*
X737890D01*
X737382Y1871359D02*
Y1872375D01*
X733396Y1875287D02*
X734412D01*
X733904Y1874778D02*
Y1875795D01*
X711431Y1878068D02*
X712447D01*
X711939Y1877560D02*
Y1878576D01*
X708408Y1873524D02*
X709424D01*
X708916Y1873016D02*
Y1874032D01*
X696431Y1878068D02*
X697447D01*
X696939Y1877560D02*
Y1878576D01*
X693408Y1873524D02*
X694424D01*
X693916Y1873016D02*
Y1874032D01*
X661138Y1874159D02*
X662154D01*
X661646Y1873651D02*
Y1874667D01*
X664161Y1878703D02*
X665177D01*
X664669Y1878195D02*
Y1879211D01*
X659523Y1885694D02*
X660539D01*
X660031Y1885186D02*
Y1886202D01*
X661340Y1890640D02*
X662356D01*
X661848Y1890132D02*
Y1891148D01*
X707699Y1860167D02*
X708715D01*
X708207Y1859659D02*
Y1860675D01*
X710170Y1857022D02*
X711186D01*
X710678Y1856514D02*
Y1857530D01*
X686923Y1859755D02*
X687939D01*
X687431Y1859247D02*
Y1860263D01*
X689282Y1857359D02*
X690298D01*
X689790Y1856850D02*
Y1857867D01*
X765782Y1887153D02*
X766798D01*
X766290Y1886644D02*
Y1887661D01*
X770774Y1884162D02*
X771790D01*
X771282Y1883654D02*
Y1884670D01*
X768360Y1881638D02*
X769376D01*
X768868Y1881131D02*
Y1882146D01*
X758677Y1886522D02*
X759693D01*
X759185Y1886014D02*
Y1887030D01*
X756812Y1890691D02*
X757828D01*
X757320Y1890183D02*
Y1891199D01*
X743561Y1886394D02*
X744577D01*
X744069Y1885886D02*
Y1886902D01*
X741656Y1889465D02*
X742672D01*
X742164Y1888957D02*
Y1889973D01*
X703529Y1886384D02*
X704545D01*
X704037Y1885876D02*
Y1886892D01*
X701738Y1890132D02*
X702754D01*
X702246Y1889624D02*
Y1890640D01*
X688603Y1886243D02*
X689619D01*
X689111Y1885735D02*
Y1886751D01*
X686698Y1889735D02*
X687714D01*
X687206Y1889227D02*
Y1890243D01*
X621247Y1942406D02*
X622263D01*
X621755Y1941898D02*
Y1942914D01*
X617531Y1947249D02*
X618546D01*
X618038Y1946741D02*
Y1947757D01*
X668308Y1942418D02*
X669324D01*
X668816Y1941910D02*
Y1942926D01*
X671927Y1940485D02*
X672943D01*
X672436Y1939977D02*
Y1940993D01*
X672081Y1925486D02*
X673097D01*
X672589Y1924978D02*
Y1925994D01*
X668523Y1927480D02*
X669539D01*
X669031Y1926972D02*
Y1927988D01*
X640097Y2001834D02*
X641113D01*
X640605Y2001326D02*
Y2002342D01*
X603212Y2004334D02*
X604228D01*
X603720Y2003826D02*
Y2004842D01*
X881729Y1937401D02*
X882745D01*
X882237Y1936893D02*
Y1937909D01*
X884669Y1927040D02*
X885685D01*
X885177Y1926532D02*
Y1927548D01*
X891453Y1937295D02*
X892469D01*
X891961Y1936787D02*
Y1937803D01*
X893164Y1927185D02*
X894180D01*
X893672Y1926677D02*
Y1927693D01*
X942044Y1968372D02*
X943060D01*
X942552Y1967864D02*
Y1968880D01*
X945563Y1975217D02*
X946579D01*
X946071Y1974709D02*
Y1975725D01*
X912704Y1775384D02*
X913720D01*
X913213Y1774876D02*
Y1775892D01*
X909914Y1778945D02*
X910930D01*
X910422Y1778437D02*
Y1779453D01*
X921703Y1746278D02*
X922719D01*
X922211Y1745770D02*
Y1746786D01*
X925744Y1742910D02*
X926760D01*
X926252Y1742402D02*
Y1743418D01*
X1033003Y1786193D02*
X1034019D01*
X1033511Y1785685D02*
Y1786701D01*
X1036211Y1775555D02*
X1037227D01*
X1036719Y1775047D02*
Y1776063D01*
X1044150Y1726190D02*
X1045166D01*
X1044659Y1725683D02*
Y1726698D01*
X1041035Y1729031D02*
X1042051D01*
X1041543Y1728523D02*
Y1729539D01*
X1044633Y1750206D02*
X1045649D01*
X1045141Y1749698D02*
Y1750714D01*
X1041328Y1754038D02*
X1042344D01*
X1041836Y1753530D02*
Y1754546D01*
X1020049Y1790559D02*
X1021065D01*
X1020557Y1790051D02*
Y1791067D01*
X1024612Y1786239D02*
X1025628D01*
X1025120Y1785730D02*
Y1786747D01*
X1018273Y1780747D02*
X1019289D01*
X1018781Y1780239D02*
Y1781255D01*
X1024169Y1775293D02*
X1025185D01*
X1024677Y1774785D02*
Y1775801D01*
X1020010Y1769963D02*
X1021026D01*
X1020518Y1769455D02*
Y1770471D01*
X1012984Y1766127D02*
X1014000D01*
X1013492Y1765619D02*
Y1766635D01*
X1016901Y1761241D02*
X1017917D01*
X1017409Y1760733D02*
Y1761749D01*
X461225Y2388461D02*
X462241D01*
X461733Y2387953D02*
Y2388969D01*
X465342Y2392581D02*
X466358D01*
X465850Y2392073D02*
Y2393089D01*
X533048Y2382335D02*
X534064D01*
X533556Y2381827D02*
Y2382843D01*
X544057Y2382419D02*
X545073D01*
X544565Y2381911D02*
Y2382927D01*
X737265Y2458401D02*
X738281D01*
X737774Y2457893D02*
Y2458909D01*
X747754Y2451397D02*
X748770D01*
X748262Y2450889D02*
Y2451905D01*
X584004Y2382419D02*
X585020D01*
X584512Y2381911D02*
Y2382927D01*
X572994Y2382335D02*
X574010D01*
X573502Y2381827D02*
Y2382843D01*
X741556Y2470241D02*
X742572D01*
X742064Y2469733D02*
Y2470749D01*
X748560Y2480730D02*
X749576D01*
X749068Y2480222D02*
Y2481238D01*
X495510Y2572447D02*
X496526D01*
X496018Y2571939D02*
Y2572955D01*
X474924Y2572447D02*
X475939D01*
X475432Y2571939D02*
Y2572955D01*
X484501Y2576105D02*
X485518D01*
X485009Y2575598D02*
Y2576613D01*
X520346Y2564842D02*
X521362D01*
X520854Y2564333D02*
Y2565350D01*
X525525Y2561429D02*
X526541D01*
X526033Y2560922D02*
Y2561938D01*
X377278Y2527336D02*
X378294D01*
X377786Y2526828D02*
Y2527844D01*
X376589Y2482394D02*
X377605D01*
X377097Y2481886D02*
Y2482902D01*
X376156Y2495792D02*
X377172D01*
X376664Y2495284D02*
Y2496300D01*
X377283Y2509146D02*
X378299D01*
X377791Y2508638D02*
Y2509654D01*
X404859Y2520064D02*
X405875D01*
X405367Y2519556D02*
Y2520572D01*
X415482Y2516378D02*
X416498D01*
X415990Y2515870D02*
Y2516886D01*
X404556Y2528996D02*
X405572D01*
X405064Y2528488D02*
Y2529503D01*
X415482Y2532204D02*
X416498D01*
X415990Y2531696D02*
Y2532712D01*
X475052Y2562845D02*
X476068D01*
X475560Y2562337D02*
Y2563353D01*
X484505Y2568951D02*
X485521D01*
X485013Y2568443D02*
Y2569459D01*
X491258Y2558793D02*
X492274D01*
X491766Y2558285D02*
Y2559301D01*
X495839Y2562433D02*
X496855D01*
X496347Y2561925D02*
Y2562941D01*
X502709Y2539943D02*
X503725D01*
X503217Y2539435D02*
Y2540451D01*
X507994Y2536596D02*
X509010D01*
X508502Y2536088D02*
Y2537104D01*
X143277Y2346789D02*
X144293D01*
X143785Y2346281D02*
Y2347297D01*
X143277Y2356289D02*
X144293D01*
X143785Y2355781D02*
Y2356797D01*
X340822Y1826741D02*
X341838D01*
X341330Y1826233D02*
Y1827249D01*
X323423Y1933084D02*
X324439D01*
X323931Y1932576D02*
Y1933592D01*
X351307Y1881589D02*
X352323D01*
X351815Y1881081D02*
Y1882097D01*
X880736Y1047082D02*
X881752D01*
X881244Y1046574D02*
Y1047590D01*
X884804Y1055712D02*
X885820D01*
X885312Y1055204D02*
Y1056220D01*
X887655Y1060692D02*
X888671D01*
X888163Y1060184D02*
Y1061200D01*
X880812Y1060768D02*
X881828D01*
X881320Y1060260D02*
Y1061276D01*
X887830Y1083807D02*
X888846D01*
X888338Y1083299D02*
Y1084315D01*
X881639Y1083768D02*
X882655D01*
X882147Y1083260D02*
Y1084276D01*
X804685Y1059451D02*
X805701D01*
X805193Y1058943D02*
Y1059959D01*
X793975Y1059408D02*
X794991D01*
X794483Y1058900D02*
Y1059916D01*
X804473Y1048069D02*
X805489D01*
X804981Y1047561D02*
Y1048577D01*
X801476Y1051649D02*
X802492D01*
X801984Y1051141D02*
Y1052157D01*
X798340Y1047819D02*
X799356D01*
X798848Y1047311D02*
Y1048327D01*
X795120Y1051566D02*
X796136D01*
X795628Y1051058D02*
Y1052074D01*
X791790Y1047847D02*
X792806D01*
X792298Y1047339D02*
Y1048355D01*
X806741Y1084529D02*
X807757D01*
X807249Y1084021D02*
Y1085037D01*
X804506Y1082040D02*
X805522D01*
X805014Y1081532D02*
Y1082548D01*
X792947Y1084746D02*
X793963D01*
X793455Y1084238D02*
Y1085254D01*
X795762Y1081742D02*
X796778D01*
X796271Y1081234D02*
Y1082250D01*
X799228Y1086046D02*
X800244D01*
X799735Y1085537D02*
Y1086553D01*
X862749Y1089353D02*
X863765D01*
X863257Y1088845D02*
Y1089861D01*
X840642Y1089353D02*
X841658D01*
X841150Y1088845D02*
Y1089861D01*
X1393330Y1778030D02*
X1394346D01*
X1393838Y1777522D02*
Y1778538D01*
X1387747Y1776521D02*
X1388763D01*
X1388255Y1776013D02*
Y1777029D01*
X591675Y181595D02*
X592691D01*
X592183Y181087D02*
Y182103D01*
X587458Y182558D02*
X588475D01*
X587966Y182050D02*
Y183066D01*
X588999Y162039D02*
X590015D01*
X589507Y161531D02*
Y162547D01*
X586019Y171611D02*
X587035D01*
X586527Y171103D02*
Y172119D01*
X585349Y187221D02*
X586365D01*
X585857Y186713D02*
Y187729D01*
X576617Y183006D02*
X577633D01*
X577125Y182498D02*
Y183514D01*
X574443Y187255D02*
X575459D01*
X574951Y186747D02*
Y187763D01*
X589726Y282003D02*
X590742D01*
X590234Y281495D02*
Y282511D01*
X586037Y275282D02*
X587053D01*
X586545Y274774D02*
Y275790D01*
X583661Y282048D02*
X584677D01*
X584169Y281540D02*
Y282556D01*
X576192Y278090D02*
X577208D01*
X576700Y277582D02*
Y278598D01*
X573635Y274854D02*
X574651D01*
X574143Y274346D02*
Y275362D01*
X1019693Y480562D02*
X1020709D01*
X1020201Y480054D02*
Y481070D01*
X1015263Y485098D02*
X1016279D01*
X1015771Y484590D02*
Y485606D01*
X775309Y422287D02*
X776325D01*
X775817Y421779D02*
Y422795D01*
X770784Y428143D02*
X771800D01*
X771292Y427635D02*
Y428651D01*
X803208Y458597D02*
X804224D01*
X803716Y458089D02*
Y459105D01*
X797351Y453007D02*
X798367D01*
X797859Y452499D02*
Y453515D01*
X660191Y453007D02*
X661207D01*
X660699Y452499D02*
Y453515D01*
X666048Y458597D02*
X667064D01*
X666556Y458089D02*
Y459105D01*
X633624Y428143D02*
X634640D01*
X634132Y427635D02*
Y428651D01*
X638149Y422287D02*
X639165D01*
X638657Y421779D02*
Y422795D01*
X547161Y856455D02*
X548177D01*
X547669Y855947D02*
Y856963D01*
X540513Y871960D02*
X541529D01*
X541021Y871452D02*
Y872468D01*
X541418Y896960D02*
X542434D01*
X541926Y896452D02*
Y897468D01*
X488155Y937861D02*
X489171D01*
X488663Y937353D02*
Y938369D01*
X500409Y938053D02*
X501425D01*
X500917Y937544D02*
Y938560D01*
X512854Y937938D02*
X513870D01*
X513362Y937430D02*
Y938446D01*
X530777Y938183D02*
X531793D01*
X531285Y937675D02*
Y938691D01*
X538900Y931531D02*
X539916D01*
X539408Y931023D02*
Y932039D01*
X553398Y916585D02*
X554414D01*
X553906Y916077D02*
Y917093D01*
X551305Y1543676D02*
X552321D01*
X551813Y1543168D02*
Y1544184D01*
X540295Y1543592D02*
X541311D01*
X540803Y1543084D02*
Y1544100D01*
X542799Y1684159D02*
X543815D01*
X543307Y1683651D02*
Y1684667D01*
X554673Y1666954D02*
X555689D01*
X555181Y1666446D02*
Y1667462D01*
X527336Y1753808D02*
X528352D01*
X527844Y1753300D02*
Y1754317D01*
X515462Y1771014D02*
X516478D01*
X515970Y1770506D02*
Y1771522D01*
X241567Y1699101D02*
X242583D01*
X242075Y1698593D02*
Y1699609D01*
X228403Y1692865D02*
X229419D01*
X228911Y1692357D02*
Y1693373D01*
X214373Y1699880D02*
X215389D01*
X214881Y1699372D02*
Y1700388D01*
X164314Y1673638D02*
X165330D01*
X164822Y1673130D02*
Y1674146D01*
X171242Y1663678D02*
X172258D01*
X171750Y1663170D02*
Y1664186D01*
X164833Y1652332D02*
X165849D01*
X165341Y1651824D02*
Y1652840D01*
X453415Y2154595D02*
X454431D01*
X453923Y2154087D02*
Y2155103D01*
X464690Y2140856D02*
X465706D01*
X465198Y2140348D02*
Y2141364D01*
X416375Y2177671D02*
X417391D01*
X416883Y2177163D02*
Y2178179D01*
X424456Y2150397D02*
X425472D01*
X424964Y2149889D02*
Y2150905D01*
X416642Y2122448D02*
X417658D01*
X417150Y2121940D02*
Y2122956D01*
X415904Y2069855D02*
X416920D01*
X416412Y2069347D02*
Y2070363D01*
X423984Y2047902D02*
X425000D01*
X424492Y2047394D02*
Y2048410D01*
X415267Y2032865D02*
X416283D01*
X415775Y2032357D02*
Y2033373D01*
X444233Y2229470D02*
X445249D01*
X444741Y2228962D02*
Y2229978D01*
X384948Y2229362D02*
X385964D01*
X385456Y2228855D02*
Y2229870D01*
X438689Y2216888D02*
X439705D01*
X439197Y2216380D02*
Y2217396D01*
X429092Y2227337D02*
X430108D01*
X429600Y2226829D02*
Y2227845D01*
X415124Y2216461D02*
X416140D01*
X415632Y2215953D02*
Y2216969D01*
X400729Y2227870D02*
X401745D01*
X401237Y2227362D02*
Y2228378D01*
X390706Y2217207D02*
X391722D01*
X391214Y2216699D02*
Y2217715D01*
X357864Y2227231D02*
X358880D01*
X358372Y2226723D02*
Y2227738D01*
X345666Y2212613D02*
X346682D01*
X346174Y2212105D02*
Y2213121D01*
X373991Y1724452D02*
X375007D01*
X374499Y1723944D02*
Y1724960D01*
X380968Y1717888D02*
X381984D01*
X381476Y1717380D02*
Y1718396D01*
X373629Y1711842D02*
X374645D01*
X374137Y1711334D02*
Y1712350D01*
X348864Y1709462D02*
X349880D01*
X349372Y1708954D02*
Y1709971D01*
X342300Y1702486D02*
X343316D01*
X342808Y1701978D02*
Y1702994D01*
X336254Y1709824D02*
X337270D01*
X336762Y1709316D02*
Y1710332D01*
X353822Y1745475D02*
X354838D01*
X354330Y1744967D02*
Y1745983D01*
X399079Y1746411D02*
X400095D01*
X399587Y1745903D02*
Y1746918D01*
X314486Y1746411D02*
X315502D01*
X314994Y1745903D02*
Y1746919D01*
X216005Y1637102D02*
X217021D01*
X216513Y1636594D02*
Y1637610D01*
X209959Y1644441D02*
X210975D01*
X210467Y1643933D02*
Y1644949D01*
X203396Y1637464D02*
X204412D01*
X203904Y1636956D02*
Y1637972D01*
X300005Y1637102D02*
X301021D01*
X300513Y1636594D02*
Y1637610D01*
X293959Y1644441D02*
X294975D01*
X294467Y1643933D02*
Y1644949D01*
X287395Y1637464D02*
X288412D01*
X287903Y1636956D02*
Y1637972D01*
X279405Y563472D02*
X280421D01*
X279913Y562964D02*
Y563980D01*
X263332Y551584D02*
X264348D01*
X263840Y551076D02*
Y552092D01*
X250551Y566095D02*
X251567D01*
X251059Y565587D02*
Y566603D01*
X235985Y551417D02*
X237001D01*
X236493Y550909D02*
Y551925D01*
X221639Y569778D02*
X222655D01*
X222147Y569270D02*
Y570286D01*
X214830Y558392D02*
X215846D01*
X215338Y557884D02*
Y558900D01*
X601811Y928377D02*
X602827D01*
X602319Y927869D02*
Y928885D01*
X595652Y924034D02*
X596668D01*
X596160Y923526D02*
Y924542D01*
X558144Y931247D02*
X559160D01*
X558652Y930739D02*
Y931755D01*
X565759Y924265D02*
X566775D01*
X566267Y923756D02*
Y924772D01*
X637070Y1037425D02*
X638086D01*
X637578Y1036917D02*
Y1037933D01*
X644047Y1030862D02*
X645063D01*
X644555Y1030354D02*
Y1031370D01*
X636708Y1024815D02*
X637724D01*
X637216Y1024307D02*
Y1025323D01*
X784694Y960594D02*
X785710D01*
X785202Y960086D02*
Y961102D01*
X800898Y949581D02*
X801914D01*
X801406Y949073D02*
Y950089D01*
X785185Y939340D02*
X786201D01*
X785694Y938831D02*
Y939847D01*
X800547Y931413D02*
X801563D01*
X801055Y930905D02*
Y931921D01*
X846864Y939067D02*
X847880D01*
X847372Y938559D02*
Y939575D01*
X840200Y934680D02*
X841216D01*
X840708Y934172D02*
Y935188D01*
X726474Y912617D02*
X727490D01*
X726982Y912109D02*
Y913125D01*
X733812Y918663D02*
X734828D01*
X734320Y918155D02*
Y919171D01*
X726835Y925227D02*
X727851D01*
X727343Y924718D02*
Y925734D01*
X837729Y967642D02*
X838745D01*
X838237Y967134D02*
Y968150D01*
X844706Y961078D02*
X845722D01*
X845214Y960571D02*
Y961587D01*
X837368Y955032D02*
X838384D01*
X837876Y954524D02*
Y955540D01*
X996058Y805637D02*
X997074D01*
X996565Y805129D02*
Y806145D01*
X1003034Y799073D02*
X1004050D01*
X1003542Y798565D02*
Y799581D01*
X995696Y793027D02*
X996712D01*
X996204Y792519D02*
Y793535D01*
X1060794Y859008D02*
X1061810D01*
X1061302Y858500D02*
Y859516D01*
X1048279Y862542D02*
X1049295D01*
X1048787Y862034D02*
Y863050D01*
X1054247Y855068D02*
X1055263D01*
X1054755Y854560D02*
Y855576D01*
X1054283Y873684D02*
X1055299D01*
X1054791Y873176D02*
Y874192D01*
X1058080Y869261D02*
X1059096D01*
X1058588Y868753D02*
Y869769D01*
X987285Y900959D02*
X988301D01*
X987793Y900452D02*
Y901468D01*
X984886Y887205D02*
X985902D01*
X985394Y886696D02*
Y887712D01*
X974490Y907197D02*
X975506D01*
X974998Y906689D02*
Y907705D01*
X1059225Y890474D02*
X1060241D01*
X1059733Y889966D02*
Y890982D01*
X1066871Y886527D02*
X1067887D01*
X1067379Y886020D02*
Y887036D01*
X1059471Y879189D02*
X1060487D01*
X1059979Y878681D02*
Y879697D01*
X1077817Y870863D02*
X1078833D01*
X1078325Y870355D02*
Y871371D01*
X1018661Y1134320D02*
X1019678D01*
X1019169Y1133812D02*
Y1134828D01*
X995489Y1141024D02*
X996505D01*
X995997Y1140516D02*
Y1141532D01*
X991935Y1133072D02*
X992951D01*
X992443Y1132564D02*
Y1133580D01*
X690656Y782579D02*
X691672D01*
X691164Y782070D02*
Y783086D01*
X698503Y792317D02*
X699519D01*
X699011Y791809D02*
Y792825D01*
X704081Y802717D02*
X705098D01*
X704589Y802209D02*
Y803225D01*
X699260Y772935D02*
X700276D01*
X699768Y772427D02*
Y773443D01*
X712969Y779175D02*
X713985D01*
X713477Y778667D02*
Y779683D01*
X601394Y839630D02*
X602410D01*
X601902Y839122D02*
Y840138D01*
X595581Y844167D02*
X596597D01*
X596089Y843659D02*
Y844675D01*
X562956Y844815D02*
X563972D01*
X563464Y844307D02*
Y845323D01*
X551277Y832288D02*
X552293D01*
X551785Y831780D02*
Y832796D01*
X543230Y836010D02*
X544246D01*
X543738Y835502D02*
Y836518D01*
X666083Y287142D02*
X667098D01*
X666590Y286634D02*
Y287650D01*
X661497Y297792D02*
X662513D01*
X662005Y297284D02*
Y298300D01*
X674815Y296376D02*
X675831D01*
X675323Y295868D02*
Y296884D01*
X670882Y299067D02*
X671898D01*
X671389Y298559D02*
Y299575D01*
X678299Y239071D02*
X679315D01*
X678808Y238563D02*
Y239579D01*
X686690Y244190D02*
X687706D01*
X687198Y243682D02*
Y244698D01*
X676277Y244160D02*
X677293D01*
X676785Y243652D02*
Y244668D01*
X613957Y180917D02*
X614973D01*
X614465Y180410D02*
Y181425D01*
X684247Y170077D02*
X685263D01*
X684755Y169569D02*
Y170585D01*
X690845Y173471D02*
X691861D01*
X691353Y172963D02*
Y173979D01*
X676115Y165484D02*
X677131D01*
X676623Y164976D02*
Y165992D01*
X662707Y180683D02*
X663723D01*
X663215Y180175D02*
Y181191D01*
X658240Y172515D02*
X659256D01*
X658748Y172007D02*
Y173023D01*
X672312Y181481D02*
X673328D01*
X672820Y180973D02*
Y181989D01*
X677193Y185916D02*
X678209D01*
X677701Y185408D02*
Y186424D01*
X667174Y185693D02*
X668190D01*
X667682Y185185D02*
Y186201D01*
X679493Y194189D02*
X680509D01*
X680001Y193681D02*
Y194697D01*
X1005893Y1289062D02*
X1006909D01*
X1006401Y1288554D02*
Y1289570D01*
X989233Y1306109D02*
X990249D01*
X989741Y1305601D02*
Y1306617D01*
X991919Y1316433D02*
X992935D01*
X992427Y1315925D02*
Y1316941D01*
X887205Y1200940D02*
X888221D01*
X887713Y1200433D02*
Y1201449D01*
X877205Y1190941D02*
X878221D01*
X877713Y1190433D02*
Y1191449D01*
X1025003Y1339154D02*
X1026019D01*
X1025511Y1338646D02*
Y1339662D01*
X500930Y2423265D02*
X501946D01*
X501438Y2422757D02*
Y2423773D01*
X530137Y2423126D02*
X531153D01*
X530645Y2422618D02*
Y2423634D01*
X624008Y1737490D02*
X625024D01*
X624516Y1736982D02*
Y1737998D01*
X613774Y1745111D02*
X614790D01*
X614282Y1744603D02*
Y1745619D01*
X610399Y1697102D02*
X611415D01*
X610907Y1696594D02*
Y1697610D01*
X602343Y1686651D02*
X603359D01*
X602851Y1686143D02*
Y1687159D01*
X578067Y1643323D02*
X579083D01*
X578575Y1642815D02*
Y1643831D01*
X555858Y1621223D02*
X556874D01*
X556366Y1620715D02*
Y1621732D01*
X661781Y1334200D02*
X662797D01*
X662289Y1333692D02*
Y1334708D01*
X673185Y1323507D02*
X674201D01*
X673693Y1322999D02*
Y1324015D01*
X703975Y1202227D02*
X704991D01*
X704483Y1201719D02*
Y1202735D01*
X312569Y254328D02*
X313585D01*
X313077Y253820D02*
Y254836D01*
X305577Y256488D02*
X306593D01*
X306085Y255980D02*
Y256996D01*
X294924Y264615D02*
X295940D01*
X295432Y264107D02*
Y265123D01*
X288701Y267946D02*
X289716D01*
X289209Y267438D02*
Y268454D01*
X349898Y218204D02*
X350914D01*
X350406Y217696D02*
Y218712D01*
X339098Y226454D02*
X340114D01*
X339606Y225946D02*
Y226962D01*
X335437Y230302D02*
X336453D01*
X335945Y229794D02*
Y230810D01*
X323791Y216611D02*
X324807D01*
X324299Y216103D02*
Y217119D01*
X295621Y234719D02*
X296637D01*
X296129Y234211D02*
Y235227D01*
X250813Y889002D02*
X251829D01*
X251321Y888494D02*
Y889510D01*
X266476Y883404D02*
X267492D01*
X266984Y882896D02*
Y883912D01*
X262605Y877598D02*
X263621D01*
X263113Y877090D02*
Y878106D01*
X328946Y191704D02*
X329962D01*
X329454Y191196D02*
Y192212D01*
X322510Y187849D02*
X323526D01*
X323018Y187341D02*
Y188357D01*
X309708Y201500D02*
X310724D01*
X310216Y200992D02*
Y202008D01*
X272362Y216673D02*
X273378D01*
X272870Y216165D02*
Y217181D01*
X282547Y228697D02*
X283563D01*
X283055Y228189D02*
Y229205D01*
X273787Y429677D02*
X274803D01*
X274295Y429169D02*
Y430185D01*
X254453Y447060D02*
X255469D01*
X254961Y446552D02*
Y447568D01*
X302598Y810964D02*
X303615D01*
X303106Y810456D02*
Y811472D01*
X291668Y806095D02*
X292684D01*
X292176Y805587D02*
Y806603D01*
X287246Y816281D02*
X288262D01*
X287754Y815773D02*
Y816789D01*
X977205Y1100940D02*
X978221D01*
X977713Y1100433D02*
Y1101449D01*
X897205Y1110941D02*
X898221D01*
X897713Y1110433D02*
Y1111449D01*
X777195Y1110941D02*
X778211D01*
X777703Y1110433D02*
Y1111449D01*
X678321Y1168573D02*
X679337D01*
X678829Y1168065D02*
Y1169081D01*
X684231Y1174758D02*
X685247D01*
X684739Y1174250D02*
Y1175266D01*
X695974Y1150881D02*
X696990D01*
X696482Y1150372D02*
Y1151388D01*
X703385Y1157616D02*
X704401D01*
X703893Y1157108D02*
Y1158124D01*
X677250Y1141353D02*
X678266D01*
X677758Y1140845D02*
Y1141861D01*
X667734Y1132496D02*
X668749D01*
X668242Y1131988D02*
Y1133004D01*
X701699Y1137970D02*
X702715D01*
X702207Y1137462D02*
Y1138478D01*
X707100Y1116515D02*
X708116D01*
X707608Y1116007D02*
Y1117023D01*
X703277Y1111272D02*
X704293D01*
X703785Y1110764D02*
Y1111780D01*
X1144989Y858150D02*
X1146005D01*
X1145497Y857642D02*
Y858658D01*
X1141986Y853575D02*
X1143002D01*
X1142494Y853067D02*
Y854083D01*
X1121976Y861211D02*
X1122992D01*
X1122484Y860703D02*
Y861719D01*
X1117198Y857955D02*
X1118214D01*
X1117706Y857447D02*
Y858463D01*
X1141043Y881833D02*
X1142059D01*
X1141551Y881326D02*
Y882342D01*
X1135153Y889741D02*
X1136169D01*
X1135661Y889233D02*
Y890249D01*
X1120374Y889905D02*
X1121390D01*
X1120882Y889397D02*
Y890413D01*
X709361Y1086768D02*
X710377D01*
X709869Y1086260D02*
Y1087276D01*
X893242Y1404036D02*
X894258D01*
X893750Y1403528D02*
Y1404544D01*
X690241Y1254649D02*
X691257D01*
X690749Y1254141D02*
Y1255157D01*
X546311Y1376750D02*
X547327D01*
X546819Y1376242D02*
Y1377258D01*
X542435Y1373880D02*
X543451D01*
X542943Y1373371D02*
Y1374388D01*
X546171Y1370618D02*
X547188D01*
X546679Y1370110D02*
Y1371126D01*
X1045346Y1030468D02*
X1046362D01*
X1045854Y1029960D02*
Y1030976D01*
X1050589Y1026645D02*
X1051605D01*
X1051097Y1026137D02*
Y1027153D01*
X1050589Y1036145D02*
X1051605D01*
X1051097Y1035637D02*
Y1036653D01*
X1045346Y1039968D02*
X1046362D01*
X1045854Y1039460D02*
Y1040476D01*
X278578Y2044712D02*
X279594D01*
X279086Y2044204D02*
Y2045220D01*
X290452Y2027507D02*
X291468D01*
X290960Y2026999D02*
Y2028015D01*
X278681Y2156214D02*
X279697D01*
X279189Y2155706D02*
Y2156722D01*
X290555Y2139008D02*
X291571D01*
X291063Y2138501D02*
Y2139516D01*
X371142Y2276985D02*
X372158D01*
X371650Y2276477D02*
Y2277493D01*
X428635Y2280662D02*
X429651D01*
X429143Y2280154D02*
Y2281170D01*
X400669Y2281351D02*
X401685D01*
X401177Y2280843D02*
Y2281859D01*
X362923Y2265369D02*
X363938D01*
X363430Y2264861D02*
Y2265877D01*
X352864Y2276945D02*
X353881D01*
X353372Y2276437D02*
Y2277453D01*
X277482Y2300953D02*
X278498D01*
X277990Y2300445D02*
Y2301461D01*
X284305Y2294656D02*
X285320D01*
X284813Y2294148D02*
Y2295164D01*
X212089Y2242341D02*
X213105D01*
X212597Y2241832D02*
Y2242849D01*
X218911Y2236043D02*
X219927D01*
X219419Y2235535D02*
Y2236551D01*
X244059Y2077269D02*
X245075D01*
X244567Y2076761D02*
Y2077777D01*
X232728Y2099276D02*
X233744D01*
X233236Y2098768D02*
Y2099783D01*
X244059Y2119269D02*
X245075D01*
X244567Y2118761D02*
Y2119777D01*
X232728Y2141220D02*
X233744D01*
X233236Y2140712D02*
Y2141728D01*
X244059Y2161269D02*
X245075D01*
X244567Y2160761D02*
Y2161777D01*
X478742Y2177800D02*
X479758D01*
X479250Y2177292D02*
Y2178308D01*
X548762Y2168312D02*
X549778D01*
X549270Y2167804D02*
Y2168820D01*
X593490Y2212626D02*
X594506D01*
X593998Y2212118D02*
Y2213134D01*
X579303Y2220421D02*
X580319D01*
X579811Y2219913D02*
Y2220929D01*
X562757Y2209657D02*
X563773D01*
X563265Y2209149D02*
Y2210164D01*
X506381Y2180222D02*
X507397D01*
X506889Y2179714D02*
Y2180730D01*
X502434Y2184734D02*
X503450D01*
X502942Y2184226D02*
Y2185242D01*
X598932Y2168312D02*
X599948D01*
X599440Y2167804D02*
Y2168820D01*
X574662Y2168312D02*
X575678D01*
X575170Y2167804D02*
Y2168820D01*
X586604Y2162279D02*
X587620D01*
X587112Y2161771D02*
Y2162787D01*
X561357Y2168312D02*
X562373D01*
X561865Y2167804D02*
Y2168820D01*
X478230Y2272332D02*
X480770D01*
X479500Y2271062D02*
Y2273602D01*
X493470Y2272332D02*
X496010D01*
X494740Y2271062D02*
Y2273602D01*
X508710Y2272332D02*
X511250D01*
X509980Y2271062D02*
Y2273602D01*
X523950Y2272332D02*
X526490D01*
X525220Y2271062D02*
Y2273602D01*
X516330Y2264712D02*
X518870D01*
X517600Y2263442D02*
Y2265982D01*
X485850Y2264712D02*
X488390D01*
X487120Y2263442D02*
Y2265982D01*
X523950Y2257092D02*
X526490D01*
X525220Y2255822D02*
Y2258362D01*
X508710Y2257092D02*
X511250D01*
X509980Y2255822D02*
Y2258362D01*
X493470Y2257092D02*
X496010D01*
X494740Y2255822D02*
Y2258362D01*
X478230Y2257092D02*
X480770D01*
X479500Y2255822D02*
Y2258362D01*
X516330Y2249472D02*
X518870D01*
X517600Y2248202D02*
Y2250742D01*
X485850Y2249472D02*
X488390D01*
X487120Y2248202D02*
Y2250742D01*
X523950Y2241852D02*
X526490D01*
X525220Y2240582D02*
Y2243122D01*
X508710Y2241852D02*
X511250D01*
X509980Y2240582D02*
Y2243122D01*
X493470Y2241852D02*
X496010D01*
X494740Y2240582D02*
Y2243122D01*
X478230Y2241852D02*
X480770D01*
X479500Y2240582D02*
Y2243122D01*
X516330Y2234232D02*
X518870D01*
X517600Y2232962D02*
Y2235502D01*
X485850Y2234232D02*
X488390D01*
X487120Y2232962D02*
Y2235502D01*
X523950Y2226612D02*
X526490D01*
X525220Y2225342D02*
Y2227882D01*
X508710Y2226612D02*
X511250D01*
X509980Y2225342D02*
Y2227882D01*
X493470Y2226612D02*
X496010D01*
X494740Y2225342D02*
Y2227882D01*
X478230Y2226612D02*
X480770D01*
X479500Y2225342D02*
Y2227882D01*
X516330Y2218992D02*
X518870D01*
X517600Y2217722D02*
Y2220262D01*
X501090Y2218992D02*
X503630D01*
X502360Y2217722D02*
Y2220262D01*
X485850Y2218992D02*
X488390D01*
X487120Y2217722D02*
Y2220262D01*
X523950Y2211372D02*
X526490D01*
X525220Y2210102D02*
Y2212642D01*
X508710Y2211372D02*
X511250D01*
X509980Y2210102D02*
Y2212642D01*
X493470Y2211372D02*
X496010D01*
X494740Y2210102D02*
Y2212642D01*
X516330Y2203752D02*
X518870D01*
X517600Y2202482D02*
Y2205022D01*
X501090Y2203752D02*
X503630D01*
X502360Y2202482D02*
Y2205022D01*
X523950Y2196132D02*
X526490D01*
X525220Y2194862D02*
Y2197402D01*
X508710Y2196132D02*
X511250D01*
X509980Y2194862D02*
Y2197402D01*
X493470Y2196132D02*
X496010D01*
X494740Y2194862D02*
Y2197402D01*
X478230Y2196132D02*
X480770D01*
X479500Y2194862D02*
Y2197402D01*
X478230Y2211372D02*
X480770D01*
X479500Y2210102D02*
Y2212642D01*
X485850Y2203752D02*
X488390D01*
X487120Y2202482D02*
Y2205022D01*
X501090Y2264712D02*
X503630D01*
X502360Y2263442D02*
Y2265982D01*
X501090Y2249472D02*
X503630D01*
X502360Y2248202D02*
Y2250742D01*
X501090Y2234232D02*
X503630D01*
X502360Y2232962D02*
Y2235502D01*
X555159Y2162279D02*
X556175D01*
X555667Y2161771D02*
Y2162787D01*
X682980Y2147493D02*
X683996D01*
X683488Y2146985D02*
Y2148001D01*
X700185Y2159367D02*
X701201D01*
X700693Y2158859D02*
Y2159875D01*
X794271Y2221040D02*
X795287D01*
X794779Y2220532D02*
Y2221548D01*
X774902Y2339465D02*
X775918D01*
X775410Y2338957D02*
Y2339973D01*
X791455Y2347994D02*
X792471D01*
X791963Y2347486D02*
Y2348502D01*
X926569Y2176327D02*
X927585D01*
X927077Y2175819D02*
Y2176835D01*
X919593Y2182890D02*
X920609D01*
X920101Y2182382D02*
Y2183398D01*
X926931Y2188937D02*
X927947D01*
X927439Y2188429D02*
Y2189445D01*
X1378764Y1958300D02*
X1379780D01*
X1379272Y1957792D02*
Y1958808D01*
X1386102Y1964347D02*
X1387118D01*
X1386610Y1963839D02*
Y1964855D01*
X1379125Y1970910D02*
X1380141D01*
X1379633Y1970402D02*
Y1971418D01*
X1318107Y1960681D02*
X1319123D01*
X1318615Y1960173D02*
Y1961190D01*
X1324868Y1977762D02*
X1325884D01*
X1325376Y1977254D02*
Y1978270D01*
X1345032Y1991877D02*
X1346048D01*
X1345540Y1991369D02*
Y1992385D01*
X1310160Y1993063D02*
X1311176D01*
X1310668Y1992555D02*
Y1993571D01*
X1300552Y1944907D02*
X1301568D01*
X1301060Y1944399D02*
Y1945415D01*
X1327477Y1934231D02*
X1328493D01*
X1327985Y1933723D02*
Y1934739D01*
X781958Y2311133D02*
X782974D01*
X782466Y2310625D02*
Y2311641D01*
X724166Y2311133D02*
X725182D01*
X724674Y2310625D02*
Y2311641D01*
X744686Y2299496D02*
X745702D01*
X745194Y2298988D02*
Y2300004D01*
X1137612Y2081800D02*
X1138628D01*
X1138120Y2081292D02*
Y2082308D01*
X1117092Y2093437D02*
X1118108D01*
X1117600Y2092929D02*
Y2093945D01*
X1174884Y2093437D02*
X1175900D01*
X1175392Y2092929D02*
Y2093945D01*
X1190752Y2118360D02*
X1191768D01*
X1191260Y2117852D02*
Y2118868D01*
X1201482Y2025045D02*
X1202498D01*
X1201991Y2024537D02*
Y2025553D01*
X1077438Y1939192D02*
X1078454D01*
X1077946Y1938684D02*
Y1939700D01*
X1094643Y1951066D02*
X1095659D01*
X1095151Y1950558D02*
Y1951573D01*
X903563Y1924193D02*
X904579D01*
X904071Y1923685D02*
Y1924701D01*
X900044Y1917347D02*
X901060D01*
X900552Y1916839D02*
Y1917855D01*
X1000391Y2176881D02*
X1001407D01*
X1000899Y2176373D02*
Y2177389D01*
X1016782Y2200549D02*
X1017798D01*
X1017290Y2200041D02*
Y2201057D01*
X1000391Y2222440D02*
X1001407D01*
X1000899Y2221932D02*
Y2222948D01*
X1062629Y2332988D02*
X1063645D01*
X1063137Y2332480D02*
Y2333496D01*
X1079835Y2344862D02*
X1080851D01*
X1080342Y2344354D02*
Y2345370D01*
X769815Y1918289D02*
X770831D01*
X770323Y1917781D02*
Y1918797D01*
X802001Y1903573D02*
X803017D01*
X802509Y1903065D02*
Y1904082D01*
X791075Y1904021D02*
X792091D01*
X791583Y1903513D02*
Y1904529D01*
X1181735Y1911562D02*
X1182751D01*
X1182243Y1911054D02*
Y1912070D01*
X1169861Y1928767D02*
X1170877D01*
X1170369Y1928259D02*
Y1929275D01*
X467926Y490381D02*
X468942D01*
X468434Y489873D02*
Y490888D01*
X477354Y502730D02*
X478370D01*
X477862Y502223D02*
Y503238D01*
X404607Y637175D02*
X405623D01*
X405115Y636668D02*
Y637683D01*
X385924Y625764D02*
X386940D01*
X386432Y625256D02*
Y626272D01*
X271652Y473372D02*
X272668D01*
X272160Y472864D02*
Y473880D01*
X279100Y482747D02*
X280116D01*
X279608Y482239D02*
Y483255D01*
X520821Y1140593D02*
X521837D01*
X521329Y1140085D02*
Y1141101D01*
X479306Y1098764D02*
X480322D01*
X479814Y1098256D02*
Y1099272D01*
X208981Y685049D02*
X209997D01*
X209489Y684541D02*
Y685557D01*
X225279Y692534D02*
X226295D01*
X225787Y692026D02*
Y693042D01*
X182898Y691399D02*
X183914D01*
X183406Y690891D02*
Y691907D01*
X165749Y691399D02*
X166765D01*
X166257Y690891D02*
Y691907D01*
X514137Y370840D02*
X515153D01*
X514645Y370332D02*
Y371348D01*
X301924Y625764D02*
X302940D01*
X302432Y625256D02*
Y626272D01*
X319129Y637638D02*
X320145D01*
X319637Y637130D02*
Y638146D01*
X225390Y619139D02*
X226406D01*
X225898Y618631D02*
Y619647D01*
X225799Y605432D02*
X226815D01*
X226307Y604924D02*
Y605940D01*
X219543Y612287D02*
X220559D01*
X220051Y611779D02*
Y612795D01*
X203134Y428603D02*
X204150D01*
X203642Y428095D02*
Y429111D01*
X187604Y417886D02*
X188620D01*
X188112Y417378D02*
Y418394D01*
X173252Y428603D02*
X174268D01*
X173760Y428095D02*
Y429111D01*
X223251Y660520D02*
X224267D01*
X223759Y660012D02*
Y661028D01*
X205171Y653764D02*
X206187D01*
X205679Y653256D02*
Y654272D01*
X192284Y667349D02*
X193300D01*
X192792Y666841D02*
Y667857D01*
X212381Y469114D02*
X213397D01*
X212889Y468606D02*
Y469622D01*
X195179Y484448D02*
X196194D01*
X195686Y483940D02*
Y484956D01*
X180345Y497369D02*
X181361D01*
X180853Y496861D02*
Y497877D01*
X737185Y1110941D02*
X738201D01*
X737693Y1110433D02*
Y1111449D01*
X727205Y1110941D02*
X728221D01*
X727713Y1110433D02*
Y1111449D01*
X727195Y1120941D02*
X728211D01*
X727703Y1120433D02*
Y1121449D01*
X737084Y1151615D02*
X738100D01*
X737592Y1151107D02*
Y1152123D01*
X737185Y1130941D02*
X738201D01*
X737693Y1130433D02*
Y1131449D01*
X727205Y1151615D02*
X728221D01*
X727713Y1151107D02*
Y1152123D01*
X737084Y1170941D02*
X738100D01*
X737592Y1170433D02*
Y1171449D01*
X827205Y1220941D02*
X828221D01*
X827713Y1220433D02*
Y1221449D01*
X827205Y1211199D02*
X828221D01*
X827713Y1210691D02*
Y1211707D01*
X847205Y1230941D02*
X848221D01*
X847713Y1230433D02*
Y1231449D01*
X867205Y1250941D02*
X868221D01*
X867713Y1250433D02*
Y1251449D01*
X817205Y1298782D02*
X818221D01*
X817713Y1298274D02*
Y1299290D01*
X767096Y1200940D02*
X768112D01*
X767604Y1200433D02*
Y1201449D01*
X845948Y1202198D02*
X846964D01*
X846456Y1201690D02*
Y1202706D01*
X777205Y1190941D02*
X778221D01*
X777713Y1190433D02*
Y1191449D01*
X857205Y1190941D02*
X858221D01*
X857713Y1190433D02*
Y1191449D01*
X867205Y1200940D02*
X868221D01*
X867713Y1200433D02*
Y1201449D01*
X817124Y1190859D02*
X818140D01*
X817632Y1190351D02*
Y1191367D01*
X827205Y1190941D02*
X828221D01*
X827713Y1190433D02*
Y1191449D01*
X787205Y1200940D02*
X788221D01*
X787713Y1200433D02*
Y1201449D01*
X797205Y1210941D02*
X798221D01*
X797713Y1210433D02*
Y1211449D01*
X837205Y1200940D02*
X838221D01*
X837713Y1200433D02*
Y1201449D01*
X827205Y1200940D02*
X828221D01*
X827713Y1200433D02*
Y1201449D01*
X857205Y1200940D02*
X858221D01*
X857713Y1200433D02*
Y1201449D01*
X777205Y1171816D02*
X778221D01*
X777713Y1171308D02*
Y1172324D01*
X877359Y1261027D02*
X878375D01*
X877867Y1260519D02*
Y1261535D01*
X1322832Y1584833D02*
X1323848D01*
X1323340Y1584325D02*
Y1585341D01*
X1322832Y1603326D02*
X1323848D01*
X1323340Y1602818D02*
Y1603834D01*
X1322832Y1612586D02*
X1323848D01*
X1323340Y1612078D02*
Y1613094D01*
X1322832Y1621946D02*
X1323848D01*
X1323340Y1621438D02*
Y1622454D01*
X1322832Y1631034D02*
X1323848D01*
X1323340Y1630526D02*
Y1631542D01*
X1322832Y1640243D02*
X1323848D01*
X1323340Y1639735D02*
Y1640751D01*
X1226312Y1601839D02*
X1227328D01*
X1226820Y1601331D02*
Y1602347D01*
X1226312Y1610952D02*
X1227328D01*
X1226820Y1610444D02*
Y1611460D01*
X1226312Y1648759D02*
X1227328D01*
X1226820Y1648251D02*
Y1649267D01*
X1226312Y1667590D02*
X1227328D01*
X1226820Y1667082D02*
Y1668098D01*
X1226312Y1676997D02*
X1227328D01*
X1226820Y1676489D02*
Y1677505D01*
X1384526Y1797620D02*
X1385542D01*
X1385034Y1797112D02*
Y1798128D01*
X1386332Y1803400D02*
X1387348D01*
X1386840Y1802892D02*
Y1803908D01*
X1378712Y1801101D02*
X1379728D01*
X1379220Y1800593D02*
Y1801609D01*
X1315212Y1823931D02*
X1316228D01*
X1315720Y1823423D02*
Y1824439D01*
X1349597Y1782371D02*
X1350613D01*
X1350105Y1781863D02*
Y1782879D01*
X1349744Y1772072D02*
X1350760D01*
X1350252Y1771564D02*
Y1772580D01*
X1315212Y1762760D02*
X1316228D01*
X1315720Y1762252D02*
Y1763268D01*
X1315212Y1782371D02*
X1316228D01*
X1315720Y1781863D02*
Y1782879D01*
X1315212Y1803400D02*
X1316228D01*
X1315720Y1802892D02*
Y1803908D01*
X1378712Y1622153D02*
X1379728D01*
X1379220Y1621645D02*
Y1622661D01*
X1369496Y1623060D02*
X1370512D01*
X1370004Y1622552D02*
Y1623568D01*
X1293856Y1823931D02*
X1294872D01*
X1294364Y1823423D02*
Y1824439D01*
X1299900Y1762760D02*
X1300916D01*
X1300408Y1762252D02*
Y1763268D01*
X1299900Y1803400D02*
X1300916D01*
X1300408Y1802892D02*
Y1803908D01*
X1299910Y1782371D02*
X1300926D01*
X1300418Y1781863D02*
Y1782879D01*
X1366996Y1809872D02*
X1368012D01*
X1367504Y1809364D02*
Y1810380D01*
X1364496Y1801101D02*
X1365513D01*
X1365004Y1800593D02*
Y1801609D01*
X1394896Y1803400D02*
X1395912D01*
X1395404Y1802892D02*
Y1803908D01*
X1389971Y1760431D02*
X1390988D01*
X1390479Y1759923D02*
Y1760939D01*
X1389949Y1769367D02*
X1390965D01*
X1390457Y1768859D02*
Y1769875D01*
X1383496Y1769321D02*
X1384512D01*
X1384004Y1768813D02*
Y1769829D01*
X1236914Y1724660D02*
X1237930D01*
X1237422Y1724152D02*
Y1725168D01*
X1296220Y1573619D02*
X1297236D01*
X1296728Y1573111D02*
Y1574127D01*
X1311206Y1573619D02*
X1312222D01*
X1311714Y1573111D02*
Y1574127D01*
X1346636Y1694833D02*
X1347652D01*
X1347144Y1694325D02*
Y1695341D01*
X1346636Y1677647D02*
X1347652D01*
X1347144Y1677139D02*
Y1678155D01*
X1398482Y1622153D02*
X1399498D01*
X1398990Y1621645D02*
Y1622661D01*
X1386332Y1623060D02*
X1387348D01*
X1386840Y1622552D02*
Y1623568D01*
X1167892Y1612586D02*
X1168908D01*
X1168400Y1612078D02*
Y1613094D01*
X1160272Y1607820D02*
X1161288D01*
X1160780Y1607312D02*
Y1608328D01*
X1251910Y1724660D02*
X1252926D01*
X1252418Y1724152D02*
Y1725168D01*
X1346636Y1710153D02*
X1347652D01*
X1347144Y1709645D02*
Y1710661D01*
X1346636Y1662153D02*
X1347652D01*
X1347144Y1661645D02*
Y1662661D01*
X1391479Y1592612D02*
X1392495D01*
X1391987Y1592104D02*
Y1593120D01*
X1373496Y1592612D02*
X1374512D01*
X1374004Y1592104D02*
Y1593120D01*
X1373170Y1654153D02*
X1374186D01*
X1373678Y1653645D02*
Y1654661D01*
X1391481Y1654153D02*
X1392497D01*
X1391989Y1653645D02*
Y1654661D01*
X1183132Y1610952D02*
X1184148D01*
X1183640Y1610444D02*
Y1611460D01*
X1183132Y1630098D02*
X1184148D01*
X1183640Y1629590D02*
Y1630606D01*
X1183132Y1657869D02*
X1184148D01*
X1183640Y1657361D02*
Y1658377D01*
X1183132Y1667326D02*
X1184148D01*
X1183640Y1666818D02*
Y1667834D01*
X1183132Y1676997D02*
X1184148D01*
X1183640Y1676489D02*
Y1677505D01*
X1204576Y1677119D02*
X1205592D01*
X1205084Y1676611D02*
Y1677627D01*
X1204951Y1667458D02*
X1205967D01*
X1205459Y1666950D02*
Y1667966D01*
X1204559Y1648759D02*
X1205575D01*
X1205067Y1648251D02*
Y1649267D01*
X1204510Y1629817D02*
X1205526D01*
X1205018Y1629309D02*
Y1630325D01*
X1204398Y1620536D02*
X1205414D01*
X1204906Y1620029D02*
Y1621044D01*
X1343157Y1575744D02*
X1344173D01*
X1343665Y1575236D02*
Y1576252D01*
X1343237Y1584832D02*
X1344253D01*
X1343745Y1584324D02*
Y1585340D01*
X1343222Y1594026D02*
X1344238D01*
X1343730Y1593518D02*
Y1594534D01*
X1343262Y1603180D02*
X1344278D01*
X1343770Y1602672D02*
Y1603688D01*
X1343449Y1612586D02*
X1344465D01*
X1343957Y1612078D02*
Y1613094D01*
X1343544Y1621947D02*
X1344560D01*
X1344052Y1621439D02*
Y1622455D01*
X1343436Y1631035D02*
X1344452D01*
X1343944Y1630527D02*
Y1631543D01*
X1343483Y1640243D02*
X1344499D01*
X1343991Y1639735D02*
Y1640751D01*
X1343585Y1649411D02*
X1344601D01*
X1344093Y1648903D02*
Y1649919D01*
X1363746Y1575597D02*
X1364762D01*
X1364254Y1575089D02*
Y1576105D01*
X1363746Y1584831D02*
X1364762D01*
X1364254Y1584323D02*
Y1585339D01*
X1363746Y1594025D02*
X1364762D01*
X1364254Y1593517D02*
Y1594533D01*
X1363746Y1603034D02*
X1364762D01*
X1364254Y1602526D02*
Y1603542D01*
X1363746Y1612586D02*
X1364762D01*
X1364254Y1612078D02*
Y1613094D01*
X1364386Y1622153D02*
X1365402D01*
X1364894Y1621645D02*
Y1622661D01*
X1364386Y1631034D02*
X1365402D01*
X1364894Y1630526D02*
Y1631542D01*
X1364386Y1640243D02*
X1365402D01*
X1364894Y1639735D02*
Y1640751D01*
X1364386Y1649410D02*
X1365402D01*
X1364894Y1648902D02*
Y1649918D01*
X828470Y1330941D02*
X829486D01*
X828978Y1330432D02*
Y1331449D01*
X521752Y1357060D02*
X522767D01*
X522259Y1356552D02*
Y1357568D01*
X504592Y1446690D02*
X505608D01*
X505100Y1446182D02*
Y1447198D01*
X528102Y1446754D02*
X529118D01*
X528610Y1446246D02*
Y1447262D01*
X816888Y1327029D02*
X817904D01*
X817396Y1326521D02*
Y1327537D01*
X827205Y1340941D02*
X828221D01*
X827713Y1340432D02*
Y1341449D01*
X817401Y1340884D02*
X818417D01*
X817909Y1340376D02*
Y1341392D01*
X560212Y1330966D02*
X561228D01*
X560720Y1330458D02*
Y1331474D01*
X568269Y1365600D02*
X569285D01*
X568777Y1365092D02*
Y1366108D01*
X578679Y1385715D02*
X579695D01*
X579187Y1385208D02*
Y1386223D01*
X581104Y1396183D02*
X582120D01*
X581612Y1395675D02*
Y1396691D01*
X249586Y1064894D02*
X250602D01*
X250094Y1064386D02*
Y1065402D01*
X234777Y1081679D02*
X235793D01*
X235285Y1081171D02*
Y1082187D01*
X154977Y1205674D02*
X155993D01*
X155485Y1205166D02*
Y1206182D01*
X137772Y1193800D02*
X138787D01*
X138279Y1193292D02*
Y1194308D01*
X259319Y1237298D02*
X260335D01*
X259827Y1236790D02*
Y1237806D01*
X195072Y1102995D02*
X196088D01*
X195580Y1102487D02*
Y1103503D01*
X171938Y1075668D02*
X172953D01*
X172446Y1075161D02*
Y1076177D01*
X208750Y1129664D02*
X209766D01*
X209258Y1129156D02*
Y1130172D01*
X226982Y1156335D02*
X227998D01*
X227490Y1155827D02*
Y1156843D01*
X388055Y1171588D02*
X389071D01*
X388563Y1171080D02*
Y1172096D01*
X400732Y1185336D02*
X401748D01*
X401240Y1184828D02*
Y1185844D01*
X550444Y1030158D02*
X551460D01*
X550952Y1029650D02*
Y1030666D01*
X539813Y1018445D02*
X540829D01*
X540321Y1017936D02*
Y1018952D01*
X528690Y1031241D02*
X529706D01*
X529198Y1030733D02*
Y1031749D01*
X403049Y1064546D02*
X404065D01*
X403557Y1064038D02*
Y1065054D01*
X445173Y1063679D02*
X446189D01*
X445681Y1063171D02*
Y1064187D01*
X490151Y1442247D02*
X491167D01*
X490659Y1441739D02*
Y1442755D01*
X819683Y1647172D02*
X820699D01*
X820191Y1646664D02*
Y1647680D01*
X830692Y1647256D02*
X831708D01*
X831200Y1646748D02*
Y1647764D01*
X753291Y1562158D02*
X754307D01*
X753799Y1561650D02*
Y1562666D01*
X742282Y1562074D02*
X743298D01*
X742790Y1561566D02*
Y1562582D01*
X789871Y1529993D02*
X790887D01*
X790379Y1529485D02*
Y1530501D01*
X730635Y1523253D02*
X731651D01*
X731143Y1522745D02*
Y1523761D01*
X877359Y1389918D02*
X878375D01*
X877867Y1389410D02*
Y1390426D01*
X827185Y1350941D02*
X828201D01*
X827693Y1350433D02*
Y1351449D01*
X580457Y1402189D02*
X581473D01*
X580965Y1401681D02*
Y1402697D01*
X837569Y1351325D02*
X838585D01*
X838077Y1350817D02*
Y1351833D01*
X534902Y1429547D02*
X535918D01*
X535410Y1429039D02*
Y1430055D01*
X549842Y1414333D02*
X550858D01*
X550350Y1413825D02*
Y1414841D01*
X577092Y1413418D02*
X578108D01*
X577600Y1412910D02*
Y1413926D01*
X577219Y1422663D02*
X578235D01*
X577727Y1422155D02*
Y1423171D01*
X568269Y1376117D02*
X569285D01*
X568777Y1375609D02*
Y1376625D01*
X540101Y1330941D02*
X541117D01*
X540609Y1330432D02*
Y1331449D01*
X550052Y1330941D02*
X551068D01*
X550560Y1330432D02*
Y1331449D01*
X529732Y1330941D02*
X530748D01*
X530240Y1330432D02*
Y1331449D01*
X487501Y1403447D02*
X488517D01*
X488009Y1402939D02*
Y1403955D01*
X476964Y1408366D02*
X477980D01*
X477472Y1407858D02*
Y1408874D01*
X464384Y1318260D02*
X465400D01*
X464892Y1317752D02*
Y1318768D01*
X514902Y1344560D02*
X515918D01*
X515410Y1344052D02*
Y1345068D01*
X476427Y1320800D02*
X477443D01*
X476935Y1320292D02*
Y1321308D01*
X475007Y1336991D02*
X476023D01*
X475515Y1336483D02*
Y1337499D01*
X475007Y1349818D02*
X476023D01*
X475515Y1349310D02*
Y1350326D01*
X504592Y1344560D02*
X505608D01*
X505100Y1344052D02*
Y1345068D01*
X461535Y1328101D02*
X462551D01*
X462043Y1327593D02*
Y1328609D01*
X493397Y1287780D02*
X494413D01*
X493905Y1287272D02*
Y1288288D01*
X454063Y1318260D02*
X455079D01*
X454571Y1317752D02*
Y1318768D01*
X490151Y1420961D02*
X491167D01*
X490659Y1420453D02*
Y1421469D01*
X503803Y1432300D02*
X504819D01*
X504311Y1431792D02*
Y1432808D01*
X517351Y1367759D02*
X518368D01*
X517859Y1367251D02*
Y1368267D01*
X544651Y1419860D02*
X545667D01*
X545159Y1419352D02*
Y1420368D01*
X529902Y1433242D02*
X530918D01*
X530410Y1432735D02*
Y1433750D01*
X524902Y1429558D02*
X525918D01*
X525410Y1429050D02*
Y1430066D01*
X967205Y1120941D02*
X968221D01*
X967713Y1120433D02*
Y1121449D01*
X967195Y1280941D02*
X968211D01*
X967703Y1280432D02*
Y1281449D01*
X737195Y1201571D02*
X738211D01*
X737703Y1201063D02*
Y1202079D01*
X737195Y1120941D02*
X738211D01*
X737703Y1120433D02*
Y1121449D01*
X737195Y1160941D02*
X738211D01*
X737703Y1160433D02*
Y1161449D01*
X837185Y1110941D02*
X838201D01*
X837693Y1110433D02*
Y1111449D01*
X797195Y1110941D02*
X798211D01*
X797703Y1110433D02*
Y1111449D01*
X937195Y1100940D02*
X938211D01*
X937703Y1100433D02*
Y1101449D01*
X917195Y1110941D02*
X918211D01*
X917703Y1110433D02*
Y1111449D01*
X877060Y1110941D02*
X878076D01*
X877569Y1110433D02*
Y1111449D01*
X486174Y1411193D02*
X487190D01*
X486682Y1410685D02*
Y1411701D01*
X481240Y1419620D02*
X482256D01*
X481748Y1419112D02*
Y1420128D01*
X478099Y1422837D02*
X479115D01*
X478607Y1422329D02*
Y1423345D01*
X464384Y1419860D02*
X465400D01*
X464892Y1419352D02*
Y1420368D01*
X470190Y1419860D02*
X471206D01*
X470698Y1419352D02*
Y1420368D01*
X472350Y1397317D02*
X473366D01*
X472858Y1396809D02*
Y1397825D01*
X454063Y1349818D02*
X455079D01*
X454571Y1349310D02*
Y1350326D01*
X423157Y1466659D02*
X424173D01*
X423665Y1466151D02*
Y1467167D01*
X393196Y1427480D02*
X394212D01*
X393704Y1426972D02*
Y1427988D01*
X431292Y1349818D02*
X432308D01*
X431800Y1349310D02*
Y1350326D01*
X393196Y1380059D02*
X394212D01*
X393704Y1379551D02*
Y1380567D01*
X251816Y1359296D02*
X252832D01*
X252324Y1358788D02*
Y1359804D01*
X226391Y1378807D02*
X227407D01*
X226899Y1378299D02*
Y1379315D01*
X251816Y1384617D02*
X252832D01*
X252324Y1384109D02*
Y1385125D01*
X225807Y1405045D02*
X226823D01*
X226315Y1404537D02*
Y1405553D01*
X203359Y1475740D02*
X204375D01*
X203867Y1475232D02*
Y1476248D01*
X509902Y1429547D02*
X510918D01*
X510410Y1429039D02*
Y1430055D01*
X737205Y1300941D02*
X738221D01*
X737713Y1300433D02*
Y1301449D01*
X737205Y1220941D02*
X738221D01*
X737713Y1220433D02*
Y1221449D01*
X737205Y1140940D02*
X738221D01*
X737713Y1140433D02*
Y1141449D01*
X737205Y1180940D02*
X738221D01*
X737713Y1180433D02*
Y1181449D01*
X737205Y1260941D02*
X738221D01*
X737713Y1260433D02*
Y1261449D01*
X967205Y1140940D02*
X968221D01*
X967713Y1140433D02*
Y1141449D01*
X937205Y1110941D02*
X938221D01*
X937713Y1110433D02*
Y1111449D01*
X857205Y1110941D02*
X858221D01*
X857713Y1110433D02*
Y1111449D01*
X817205Y1110941D02*
X818221D01*
X817713Y1110433D02*
Y1111449D01*
X727205Y1100940D02*
X728221D01*
X727713Y1100433D02*
Y1101449D01*
X947205Y1130941D02*
X948221D01*
X947713Y1130433D02*
Y1131449D01*
X947205Y1140940D02*
X948221D01*
X947713Y1140433D02*
Y1141449D01*
X947205Y1150940D02*
X948221D01*
X947713Y1150433D02*
Y1151449D01*
X907205Y1160941D02*
X908221D01*
X907713Y1160433D02*
Y1161449D01*
X917205Y1120941D02*
X918221D01*
X917713Y1120433D02*
Y1121449D01*
X917205Y1140941D02*
X918221D01*
X917713Y1140433D02*
Y1141449D01*
X927205Y1150941D02*
X928221D01*
X927713Y1150433D02*
Y1151449D01*
X937205Y1120941D02*
X938221D01*
X937713Y1120433D02*
Y1121449D01*
X867205Y1170941D02*
X868221D01*
X867713Y1170433D02*
Y1171449D01*
X877205Y1120941D02*
X878221D01*
X877713Y1120433D02*
Y1121449D01*
X877205Y1140941D02*
X878221D01*
X877713Y1140433D02*
Y1141449D01*
X897205Y1130941D02*
X898221D01*
X897713Y1130433D02*
Y1131449D01*
X827205Y1160941D02*
X828221D01*
X827713Y1160433D02*
Y1161449D01*
X827205Y1150941D02*
X828221D01*
X827713Y1150433D02*
Y1151449D01*
X827205Y1140941D02*
X828221D01*
X827713Y1140433D02*
Y1141449D01*
X827205Y1130941D02*
X828221D01*
X827713Y1130433D02*
Y1131449D01*
X827205Y1120941D02*
X828221D01*
X827713Y1120433D02*
Y1121449D01*
X837205Y1140941D02*
X838221D01*
X837713Y1140433D02*
Y1141449D01*
X837205Y1160941D02*
X838221D01*
X837713Y1160433D02*
Y1161449D01*
X837205Y1170941D02*
X838221D01*
X837713Y1170433D02*
Y1171449D01*
X847205Y1140941D02*
X848221D01*
X847713Y1140433D02*
Y1141449D01*
X847205Y1150941D02*
X848221D01*
X847713Y1150433D02*
Y1151449D01*
X847205Y1160941D02*
X848221D01*
X847713Y1160433D02*
Y1161449D01*
X847205Y1170941D02*
X848221D01*
X847713Y1170433D02*
Y1171449D01*
X857205Y1140941D02*
X858221D01*
X857713Y1140433D02*
Y1141449D01*
X857205Y1170941D02*
X858221D01*
X857713Y1170433D02*
Y1171449D01*
X787205Y1160941D02*
X788221D01*
X787713Y1160433D02*
Y1161449D01*
X787205Y1120941D02*
X788221D01*
X787713Y1120433D02*
Y1121449D01*
X797205Y1130941D02*
X798221D01*
X797713Y1130433D02*
Y1131449D01*
X817205Y1140941D02*
X818221D01*
X817713Y1140433D02*
Y1141449D01*
X817205Y1150941D02*
X818221D01*
X817713Y1150433D02*
Y1151449D01*
X817205Y1160941D02*
X818221D01*
X817713Y1160433D02*
Y1161449D01*
X777205Y1150941D02*
X778221D01*
X777713Y1150433D02*
Y1151449D01*
X777205Y1130941D02*
X778221D01*
X777713Y1130433D02*
Y1131449D01*
X757205Y1160941D02*
X758221D01*
X757713Y1160433D02*
Y1161449D01*
X747205Y1120941D02*
X748221D01*
X747713Y1120433D02*
Y1121449D01*
X747205Y1160941D02*
X748221D01*
X747713Y1160433D02*
Y1161449D01*
X947205Y1190941D02*
X948221D01*
X947713Y1190433D02*
Y1191449D01*
X937205Y1190941D02*
X938221D01*
X937713Y1190433D02*
Y1191449D01*
X937205Y1200940D02*
X938221D01*
X937713Y1200433D02*
Y1201449D01*
X937205Y1210941D02*
X938221D01*
X937713Y1210433D02*
Y1211449D01*
X937205Y1240940D02*
X938221D01*
X937713Y1240433D02*
Y1241449D01*
X927205Y1190941D02*
X928221D01*
X927713Y1190433D02*
Y1191449D01*
X927205Y1210941D02*
X928221D01*
X927713Y1210433D02*
Y1211449D01*
X917205Y1190941D02*
X918221D01*
X917713Y1190433D02*
Y1191449D01*
X917205Y1200940D02*
X918221D01*
X917713Y1200433D02*
Y1201449D01*
X917205Y1210941D02*
X918221D01*
X917713Y1210433D02*
Y1211449D01*
X917205Y1240940D02*
X918221D01*
X917713Y1240433D02*
Y1241449D01*
X907359Y1181027D02*
X908375D01*
X907867Y1180519D02*
Y1181535D01*
X907205Y1200940D02*
X908221D01*
X907713Y1200433D02*
Y1201449D01*
X907205Y1210941D02*
X908221D01*
X907713Y1210433D02*
Y1211449D01*
X907205Y1220941D02*
X908221D01*
X907713Y1220433D02*
Y1221449D01*
X897359Y1181027D02*
X898375D01*
X897867Y1180519D02*
Y1181535D01*
X897205Y1200940D02*
X898221D01*
X897713Y1200433D02*
Y1201449D01*
X897205Y1210941D02*
X898221D01*
X897713Y1210433D02*
Y1211449D01*
X897205Y1220941D02*
X898221D01*
X897713Y1220433D02*
Y1221449D01*
X887359Y1181027D02*
X888375D01*
X887867Y1180519D02*
Y1181535D01*
X887205Y1190941D02*
X888221D01*
X887713Y1190433D02*
Y1191449D01*
X887205Y1210941D02*
X888221D01*
X887713Y1210433D02*
Y1211449D01*
X887205Y1220941D02*
X888221D01*
X887713Y1220433D02*
Y1221449D01*
X877205Y1200940D02*
X878221D01*
X877713Y1200433D02*
Y1201449D01*
X867205Y1190941D02*
X868221D01*
X867713Y1190433D02*
Y1191449D01*
X857359Y1181027D02*
X858375D01*
X857867Y1180519D02*
Y1181535D01*
X847359Y1181027D02*
X848375D01*
X847867Y1180519D02*
Y1181535D01*
X847205Y1190941D02*
X848221D01*
X847713Y1190433D02*
Y1191449D01*
X947359Y1261027D02*
X948375D01*
X947867Y1260519D02*
Y1261535D01*
X947205Y1330941D02*
X948221D01*
X947713Y1330432D02*
Y1331449D01*
X927205Y1310941D02*
X928221D01*
X927713Y1310433D02*
Y1311449D01*
X927205Y1320941D02*
X928221D01*
X927713Y1320432D02*
Y1321449D01*
X917205Y1300941D02*
X918221D01*
X917713Y1300433D02*
Y1301449D01*
X917205Y1310941D02*
X918221D01*
X917713Y1310433D02*
Y1311449D01*
X917205Y1320941D02*
X918221D01*
X917713Y1320432D02*
Y1321449D01*
X917205Y1330941D02*
X918221D01*
X917713Y1330432D02*
Y1331449D01*
X907205Y1310941D02*
X908221D01*
X907713Y1310433D02*
Y1311449D01*
X907205Y1320941D02*
X908221D01*
X907713Y1320432D02*
Y1321449D01*
X897205Y1300941D02*
X898221D01*
X897713Y1300433D02*
Y1301449D01*
X897205Y1310941D02*
X898221D01*
X897713Y1310433D02*
Y1311449D01*
X897205Y1320941D02*
X898221D01*
X897713Y1320432D02*
Y1321449D01*
X897205Y1330941D02*
X898221D01*
X897713Y1330432D02*
Y1331449D01*
X887205Y1290941D02*
X888221D01*
X887713Y1290432D02*
Y1291449D01*
X887205Y1300941D02*
X888221D01*
X887713Y1300433D02*
Y1301449D01*
X887205Y1310941D02*
X888221D01*
X887713Y1310433D02*
Y1311449D01*
X887205Y1330941D02*
X888221D01*
X887713Y1330432D02*
Y1331449D01*
X877205Y1280941D02*
X878221D01*
X877713Y1280432D02*
Y1281449D01*
X877205Y1290941D02*
X878221D01*
X877713Y1290432D02*
Y1291449D01*
X877205Y1300941D02*
X878221D01*
X877713Y1300433D02*
Y1301449D01*
X877205Y1310941D02*
X878221D01*
X877713Y1310433D02*
Y1311449D01*
X877205Y1320941D02*
X878221D01*
X877713Y1320432D02*
Y1321449D01*
X877205Y1330941D02*
X878221D01*
X877713Y1330432D02*
Y1331449D01*
X867205Y1270941D02*
X868221D01*
X867713Y1270433D02*
Y1271449D01*
X867205Y1280941D02*
X868221D01*
X867713Y1280432D02*
Y1281449D01*
X867205Y1300941D02*
X868221D01*
X867713Y1300433D02*
Y1301449D01*
X867205Y1320941D02*
X868221D01*
X867713Y1320432D02*
Y1321449D01*
X867205Y1330941D02*
X868221D01*
X867713Y1330432D02*
Y1331449D01*
X857205Y1270941D02*
X858221D01*
X857713Y1270433D02*
Y1271449D01*
X857205Y1290941D02*
X858221D01*
X857713Y1290432D02*
Y1291449D01*
X857205Y1310941D02*
X858221D01*
X857713Y1310433D02*
Y1311449D01*
X857205Y1320941D02*
X858221D01*
X857713Y1320432D02*
Y1321449D01*
X857205Y1330941D02*
X858221D01*
X857713Y1330432D02*
Y1331449D01*
X837359Y1181027D02*
X838375D01*
X837867Y1180519D02*
Y1181535D01*
X837205Y1190941D02*
X838221D01*
X837713Y1190433D02*
Y1191449D01*
X807205Y1210941D02*
X808221D01*
X807713Y1210433D02*
Y1211449D01*
X807205Y1240940D02*
X808221D01*
X807713Y1240433D02*
Y1241449D01*
X807205Y1300941D02*
X808221D01*
X807713Y1300433D02*
Y1301449D01*
X807205Y1310941D02*
X808221D01*
X807713Y1310433D02*
Y1311449D01*
X807205Y1320941D02*
X808221D01*
X807713Y1320432D02*
Y1321449D01*
X807205Y1330941D02*
X808221D01*
X807713Y1330432D02*
Y1331449D01*
X797205Y1230941D02*
X798221D01*
X797713Y1230433D02*
Y1231449D01*
X797205Y1290941D02*
X798221D01*
X797713Y1290432D02*
Y1291449D01*
X797205Y1310941D02*
X798221D01*
X797713Y1310433D02*
Y1311449D01*
X797205Y1320941D02*
X798221D01*
X797713Y1320432D02*
Y1321449D01*
X797205Y1330941D02*
X798221D01*
X797713Y1330432D02*
Y1331449D01*
X787205Y1230941D02*
X788221D01*
X787713Y1230433D02*
Y1231449D01*
X787205Y1330941D02*
X788221D01*
X787713Y1330432D02*
Y1331449D01*
X787205Y1320941D02*
X788221D01*
X787713Y1320432D02*
Y1321449D01*
X787205Y1310941D02*
X788221D01*
X787713Y1310433D02*
Y1311449D01*
X787205Y1300941D02*
X788221D01*
X787713Y1300433D02*
Y1301449D01*
X777205Y1250941D02*
X778221D01*
X777713Y1250433D02*
Y1251449D01*
X777205Y1210941D02*
X778221D01*
X777713Y1210433D02*
Y1211449D01*
X777359Y1181027D02*
X778375D01*
X777867Y1180519D02*
Y1181535D01*
X777205Y1320941D02*
X778221D01*
X777713Y1320432D02*
Y1321449D01*
X777205Y1310941D02*
X778221D01*
X777713Y1310433D02*
Y1311449D01*
X777205Y1300941D02*
X778221D01*
X777713Y1300433D02*
Y1301449D01*
X777205Y1270941D02*
X778221D01*
X777713Y1270433D02*
Y1271449D01*
X767205Y1250941D02*
X768221D01*
X767713Y1250433D02*
Y1251449D01*
X767205Y1230941D02*
X768221D01*
X767713Y1230433D02*
Y1231449D01*
X767205Y1330941D02*
X768221D01*
X767713Y1330432D02*
Y1331449D01*
X767205Y1320941D02*
X768221D01*
X767713Y1320432D02*
Y1321449D01*
X757205Y1250941D02*
X758221D01*
X757713Y1250433D02*
Y1251449D01*
X757359Y1181027D02*
X758375D01*
X757867Y1180519D02*
Y1181535D01*
X757205Y1280941D02*
X758221D01*
X757713Y1280432D02*
Y1281449D01*
X757359Y1261027D02*
X758375D01*
X757867Y1260519D02*
Y1261535D01*
X747205Y1250941D02*
X748221D01*
X747713Y1250433D02*
Y1251449D01*
X747205Y1200940D02*
X748221D01*
X747713Y1200433D02*
Y1201449D01*
X697720Y1960929D02*
X699720D01*
X698720Y1959929D02*
Y1961929D01*
X708720Y1960929D02*
X710720D01*
X709720Y1959929D02*
Y1961929D01*
X719720Y1960929D02*
X721720D01*
X720720Y1959929D02*
Y1961929D01*
X730720Y1960929D02*
X732720D01*
X731720Y1959929D02*
Y1961929D01*
X741720Y1960929D02*
X743720D01*
X742720Y1959929D02*
Y1961929D01*
X697720Y1949929D02*
X699720D01*
X698720Y1948929D02*
Y1950929D01*
X708720Y1949929D02*
X710720D01*
X709720Y1948929D02*
Y1950929D01*
X719720Y1949929D02*
X721720D01*
X720720Y1948929D02*
Y1950929D01*
X730720Y1949929D02*
X732720D01*
X731720Y1948929D02*
Y1950929D01*
X741720Y1949929D02*
X743720D01*
X742720Y1948929D02*
Y1950929D01*
X697720Y1938929D02*
X699720D01*
X698720Y1937929D02*
Y1939929D01*
X708720Y1938929D02*
X710720D01*
X709720Y1937929D02*
Y1939929D01*
X719720Y1938929D02*
X721720D01*
X720720Y1937929D02*
Y1939929D01*
X730720Y1938929D02*
X732720D01*
X731720Y1937929D02*
Y1939929D01*
X741720Y1938929D02*
X743720D01*
X742720Y1937929D02*
Y1939929D01*
X697720Y1927929D02*
X699720D01*
X698720Y1926929D02*
Y1928929D01*
X708720Y1927929D02*
X710720D01*
X709720Y1926929D02*
Y1928929D01*
X719720Y1927929D02*
X721720D01*
X720720Y1926929D02*
Y1928929D01*
X730720Y1927929D02*
X732720D01*
X731720Y1926929D02*
Y1928929D01*
X741720Y1927929D02*
X743720D01*
X742720Y1926929D02*
Y1928929D01*
X697720Y1916929D02*
X699720D01*
X698720Y1915929D02*
Y1917929D01*
X708720Y1916929D02*
X710720D01*
X709720Y1915929D02*
Y1917929D01*
X719720Y1916929D02*
X721720D01*
X720720Y1915929D02*
Y1917929D01*
X730720Y1916929D02*
X732720D01*
X731720Y1915929D02*
Y1917929D01*
X741720Y1916929D02*
X743720D01*
X742720Y1915929D02*
Y1917929D01*
X1369004Y1772871D02*
X1371004D01*
X1370004Y1771871D02*
Y1773871D01*
X1374754Y1782371D02*
X1376754D01*
X1375754Y1781371D02*
Y1783371D01*
X1363254Y1782371D02*
X1365254D01*
X1364254Y1781371D02*
Y1783371D01*
X1369004Y1791871D02*
X1371004D01*
X1370004Y1790871D02*
Y1792871D01*
X1288268Y1594706D02*
X1289284D01*
X1288776Y1594198D02*
Y1595213D01*
X1288268Y1706706D02*
X1289284D01*
X1288776Y1706198D02*
Y1707214D01*
X1311540Y1690534D02*
X1312556D01*
X1312048Y1690026D02*
Y1691042D01*
X1311540Y1682534D02*
X1312556D01*
X1312048Y1682026D02*
Y1683042D01*
X1303540Y1698534D02*
X1304556D01*
X1304048Y1698026D02*
Y1699042D01*
X1303540Y1690534D02*
X1304556D01*
X1304048Y1690026D02*
Y1691042D01*
X1303540Y1682534D02*
X1304556D01*
X1304048Y1682026D02*
Y1683042D01*
X1288268Y1690706D02*
X1289284D01*
X1288776Y1690198D02*
Y1691214D01*
X1288268Y1698706D02*
X1289284D01*
X1288776Y1698198D02*
Y1699214D01*
X1263540Y1690534D02*
X1264556D01*
X1264048Y1690026D02*
Y1691042D01*
X1311540Y1666534D02*
X1312556D01*
X1312048Y1666026D02*
Y1667042D01*
X1311540Y1674534D02*
X1312556D01*
X1312048Y1674026D02*
Y1675042D01*
X1303540Y1674534D02*
X1304556D01*
X1304048Y1674026D02*
Y1675042D01*
X1303540Y1666534D02*
X1304556D01*
X1304048Y1666026D02*
Y1667042D01*
X1255540Y1618534D02*
X1256556D01*
X1256048Y1618026D02*
Y1619042D01*
X1255540Y1666534D02*
X1256556D01*
X1256048Y1666026D02*
Y1667042D01*
X1255540Y1658534D02*
X1256556D01*
X1256048Y1658026D02*
Y1659042D01*
X1311540Y1706534D02*
X1312556D01*
X1312048Y1706026D02*
Y1707042D01*
X1303540Y1706534D02*
X1304556D01*
X1304048Y1706026D02*
Y1707042D01*
X1311540Y1610534D02*
X1312556D01*
X1312048Y1610026D02*
Y1611042D01*
X1311540Y1602534D02*
X1312556D01*
X1312048Y1602026D02*
Y1603042D01*
X1303540Y1594534D02*
X1304556D01*
X1304048Y1594026D02*
Y1595042D01*
X1303540Y1586534D02*
X1304556D01*
X1304048Y1586026D02*
Y1587042D01*
X1311540Y1594534D02*
X1312556D01*
X1312048Y1594026D02*
Y1595042D01*
X1311540Y1618534D02*
X1312556D01*
X1312048Y1618026D02*
Y1619042D01*
X1303540Y1650534D02*
X1304556D01*
X1304048Y1650026D02*
Y1651042D01*
X1311540Y1658534D02*
X1312556D01*
X1312048Y1658026D02*
Y1659042D01*
X1255540Y1586534D02*
X1256556D01*
X1256048Y1586026D02*
Y1587042D01*
X1255540Y1610534D02*
X1256556D01*
X1256048Y1610026D02*
Y1611042D01*
X1240268Y1674706D02*
X1241284D01*
X1240776Y1674198D02*
Y1675213D01*
X1240268Y1698706D02*
X1241284D01*
X1240776Y1698198D02*
Y1699214D01*
X1240268Y1690706D02*
X1241284D01*
X1240776Y1690198D02*
Y1691214D01*
X1240268Y1650706D02*
X1241284D01*
X1240776Y1650197D02*
Y1651214D01*
X1263540Y1674534D02*
X1264556D01*
X1264048Y1674026D02*
Y1675042D01*
X1255540Y1674534D02*
X1256556D01*
X1256048Y1674026D02*
Y1675042D01*
X1255540Y1706534D02*
X1256556D01*
X1256048Y1706026D02*
Y1707042D01*
X312580Y1775529D02*
X314580D01*
X313580Y1774529D02*
Y1776529D01*
X312580Y1786529D02*
X314580D01*
X313580Y1785529D02*
Y1787529D01*
X312580Y1797529D02*
X314580D01*
X313580Y1796529D02*
Y1798529D01*
X323580Y1775529D02*
X325580D01*
X324580Y1774529D02*
Y1776529D01*
X323580Y1786529D02*
X325580D01*
X324580Y1785529D02*
Y1787529D01*
X323580Y1797529D02*
X325580D01*
X324580Y1796529D02*
Y1798529D01*
X334580Y1775529D02*
X336580D01*
X335580Y1774529D02*
Y1776529D01*
X334580Y1786529D02*
X336580D01*
X335580Y1785529D02*
Y1787529D01*
X334580Y1797529D02*
X336580D01*
X335580Y1796529D02*
Y1798529D01*
X345580Y1775529D02*
X347580D01*
X346580Y1774529D02*
Y1776529D01*
X345580Y1786529D02*
X347580D01*
X346580Y1785529D02*
Y1787529D01*
X345580Y1797529D02*
X347580D01*
X346580Y1796529D02*
Y1798529D01*
X356580Y1775529D02*
X358580D01*
X357580Y1774529D02*
Y1776529D01*
X356580Y1786529D02*
X358580D01*
X357580Y1785529D02*
Y1787529D01*
X356580Y1797529D02*
X358580D01*
X357580Y1796529D02*
Y1798529D01*
X367580Y1775529D02*
X369580D01*
X368580Y1774529D02*
Y1776529D01*
X367580Y1786529D02*
X369580D01*
X368580Y1785529D02*
Y1787529D01*
X367580Y1797529D02*
X369580D01*
X368580Y1796529D02*
Y1798529D01*
X378580Y1775529D02*
X380580D01*
X379580Y1774529D02*
Y1776529D01*
X378580Y1786529D02*
X380580D01*
X379580Y1785529D02*
Y1787529D01*
X378580Y1797529D02*
X380580D01*
X379580Y1796529D02*
Y1798529D01*
X389580Y1775529D02*
X391580D01*
X390580Y1774529D02*
Y1776529D01*
X389580Y1786529D02*
X391580D01*
X390580Y1785529D02*
Y1787529D01*
X389580Y1797529D02*
X391580D01*
X390580Y1796529D02*
Y1798529D01*
X400580Y1775529D02*
X402580D01*
X401580Y1774529D02*
Y1776529D01*
X400580Y1786529D02*
X402580D01*
X401580Y1785529D02*
Y1787529D01*
X400580Y1797529D02*
X402580D01*
X401580Y1796529D02*
Y1798529D01*
X88130Y585109D02*
X90670D01*
X89400Y583839D02*
Y586379D01*
X88130Y600349D02*
X90670D01*
X89400Y599079D02*
Y601619D01*
X88130Y615589D02*
X90670D01*
X89400Y614319D02*
Y616859D01*
X88130Y630829D02*
X90670D01*
X89400Y629559D02*
Y632099D01*
X95750Y623209D02*
X98290D01*
X97020Y621939D02*
Y624479D01*
X95750Y592729D02*
X98290D01*
X97020Y591459D02*
Y593999D01*
X103370Y630829D02*
X105910D01*
X104640Y629559D02*
Y632099D01*
X103370Y615589D02*
X105910D01*
X104640Y614319D02*
Y616859D01*
X103370Y600349D02*
X105910D01*
X104640Y599079D02*
Y601619D01*
X103370Y585109D02*
X105910D01*
X104640Y583839D02*
Y586379D01*
X110990Y623209D02*
X113530D01*
X112260Y621939D02*
Y624479D01*
X110990Y592729D02*
X113530D01*
X112260Y591459D02*
Y593999D01*
X118610Y630829D02*
X121150D01*
X119880Y629559D02*
Y632099D01*
X118610Y615589D02*
X121150D01*
X119880Y614319D02*
Y616859D01*
X118610Y600349D02*
X121150D01*
X119880Y599079D02*
Y601619D01*
X118610Y585109D02*
X121150D01*
X119880Y583839D02*
Y586379D01*
X126230Y623209D02*
X128770D01*
X127500Y621939D02*
Y624479D01*
X126230Y592729D02*
X128770D01*
X127500Y591459D02*
Y593999D01*
X133850Y630829D02*
X136390D01*
X135120Y629559D02*
Y632099D01*
X133850Y615589D02*
X136390D01*
X135120Y614319D02*
Y616859D01*
X133850Y600349D02*
X136390D01*
X135120Y599079D02*
Y601619D01*
X133850Y585109D02*
X136390D01*
X135120Y583839D02*
Y586379D01*
X141470Y623209D02*
X144010D01*
X142740Y621939D02*
Y624479D01*
X141470Y607969D02*
X144010D01*
X142740Y606699D02*
Y609239D01*
X141470Y592729D02*
X144010D01*
X142740Y591459D02*
Y593999D01*
X149090Y630829D02*
X151630D01*
X150360Y629559D02*
Y632099D01*
X149090Y615589D02*
X151630D01*
X150360Y614319D02*
Y616859D01*
X149090Y600349D02*
X151630D01*
X150360Y599079D02*
Y601619D01*
X156710Y623209D02*
X159250D01*
X157980Y621939D02*
Y624479D01*
X156710Y607969D02*
X159250D01*
X157980Y606699D02*
Y609239D01*
X164330Y630829D02*
X166870D01*
X165600Y629559D02*
Y632099D01*
X164330Y615589D02*
X166870D01*
X165600Y614319D02*
Y616859D01*
X164330Y600349D02*
X166870D01*
X165600Y599079D02*
Y601619D01*
X164330Y585109D02*
X166870D01*
X165600Y583839D02*
Y586379D01*
X149090Y585109D02*
X151630D01*
X150360Y583839D02*
Y586379D01*
X156710Y592729D02*
X159250D01*
X157980Y591459D02*
Y593999D01*
X95750Y607969D02*
X98290D01*
X97020Y606699D02*
Y609239D01*
X110990Y607969D02*
X113530D01*
X112260Y606699D02*
Y609239D01*
X126230Y607969D02*
X128770D01*
X127500Y606699D02*
Y609239D01*
X647910Y253689D02*
X649910D01*
X648910Y252689D02*
Y254689D01*
X647910Y242689D02*
X649910D01*
X648910Y241689D02*
Y243689D01*
X647910Y231689D02*
X649910D01*
X648910Y230689D02*
Y232689D01*
X647910Y220689D02*
X649910D01*
X648910Y219689D02*
Y221689D01*
X647910Y209689D02*
X649910D01*
X648910Y208689D02*
Y210689D01*
X636910Y253689D02*
X638910D01*
X637910Y252689D02*
Y254689D01*
X636910Y242689D02*
X638910D01*
X637910Y241689D02*
Y243689D01*
X636910Y231689D02*
X638910D01*
X637910Y230689D02*
Y232689D01*
X636910Y220689D02*
X638910D01*
X637910Y219689D02*
Y221689D01*
X636910Y209689D02*
X638910D01*
X637910Y208689D02*
Y210689D01*
X625910Y253689D02*
X627910D01*
X626910Y252689D02*
Y254689D01*
X625910Y242689D02*
X627910D01*
X626910Y241689D02*
Y243689D01*
X625910Y231689D02*
X627910D01*
X626910Y230689D02*
Y232689D01*
X625910Y220689D02*
X627910D01*
X626910Y219689D02*
Y221689D01*
X625910Y209689D02*
X627910D01*
X626910Y208689D02*
Y210689D01*
X614910Y253689D02*
X616910D01*
X615910Y252689D02*
Y254689D01*
X614910Y242689D02*
X616910D01*
X615910Y241689D02*
Y243689D01*
X614910Y231689D02*
X616910D01*
X615910Y230689D02*
Y232689D01*
X614910Y220689D02*
X616910D01*
X615910Y219689D02*
Y221689D01*
X614910Y209689D02*
X616910D01*
X615910Y208689D02*
Y210689D01*
X603910Y253689D02*
X605910D01*
X604910Y252689D02*
Y254689D01*
X603910Y242689D02*
X605910D01*
X604910Y241689D02*
Y243689D01*
X603910Y231689D02*
X605910D01*
X604910Y230689D02*
Y232689D01*
X603910Y220689D02*
X605910D01*
X604910Y219689D02*
Y221689D01*
X603910Y209689D02*
X605910D01*
X604910Y208689D02*
Y210689D01*
X314880Y222732D02*
X316880D01*
X315880Y221732D02*
Y223732D01*
X303880Y222732D02*
X305880D01*
X304880Y221732D02*
Y223732D01*
X314880Y233732D02*
X316880D01*
X315880Y232732D02*
Y234732D01*
X303880Y233732D02*
X305880D01*
X304880Y232732D02*
Y234732D01*
X565657Y862460D02*
X567656D01*
X566656Y861460D02*
Y863460D01*
X565657Y873460D02*
X567656D01*
X566656Y872460D02*
Y874460D01*
X565657Y884460D02*
X567656D01*
X566656Y883460D02*
Y885460D01*
X565657Y895460D02*
X567656D01*
X566656Y894460D02*
Y896460D01*
X565657Y906460D02*
X567656D01*
X566656Y905460D02*
Y907460D01*
X576656Y862460D02*
X578656D01*
X577656Y861460D02*
Y863460D01*
X576656Y873460D02*
X578656D01*
X577656Y872460D02*
Y874460D01*
X576656Y884460D02*
X578656D01*
X577656Y883460D02*
Y885460D01*
X576656Y895460D02*
X578656D01*
X577656Y894460D02*
Y896460D01*
X576656Y906460D02*
X578656D01*
X577656Y905460D02*
Y907460D01*
X587656Y862460D02*
X589656D01*
X588656Y861460D02*
Y863460D01*
X587656Y873460D02*
X589656D01*
X588656Y872460D02*
Y874460D01*
X587656Y884460D02*
X589656D01*
X588656Y883460D02*
Y885460D01*
X587656Y895460D02*
X589656D01*
X588656Y894460D02*
Y896460D01*
X587656Y906460D02*
X589656D01*
X588656Y905460D02*
Y907460D01*
X598656Y862460D02*
X600656D01*
X599656Y861460D02*
Y863460D01*
X598656Y873460D02*
X600656D01*
X599656Y872460D02*
Y874460D01*
X598656Y884460D02*
X600656D01*
X599656Y883460D02*
Y885460D01*
X598656Y895460D02*
X600656D01*
X599656Y894460D02*
Y896460D01*
X598656Y906460D02*
X600656D01*
X599656Y905460D02*
Y907460D01*
X609656Y862460D02*
X611656D01*
X610656Y861460D02*
Y863460D01*
X609656Y873460D02*
X611656D01*
X610656Y872460D02*
Y874460D01*
X609656Y884460D02*
X611656D01*
X610656Y883460D02*
Y885460D01*
X609656Y895460D02*
X611656D01*
X610656Y894460D02*
Y896460D01*
X609656Y906460D02*
X611656D01*
X610656Y905460D02*
Y907460D01*
X255649Y905853D02*
X256665D01*
X256157Y905345D02*
Y906361D01*
X297115Y791625D02*
X298638D01*
X297876Y790863D02*
Y792387D01*
M02*
