G04*
G04 #@! TF.GenerationSoftware,Altium Limited,Altium Designer,22.11.1 (43)*
G04*
G04 Layer_Physical_Order=1*
G04 Layer_Color=255*
%FSLAX44Y44*%
%MOMM*%
G71*
G04*
G04 #@! TF.SameCoordinates,34125678-5B9D-45F6-926E-A613B9C88BDA*
G04*
G04*
G04 #@! TF.FilePolarity,Positive*
G04*
G01*
G75*
%ADD10C,0.2540*%
%ADD11C,0.5080*%
%ADD17C,0.1524*%
%ADD24C,0.3810*%
%ADD25C,0.3048*%
%ADD26C,0.6350*%
G04:AMPARAMS|DCode=33|XSize=1.397mm|YSize=1.0922mm|CornerRadius=0.2021mm|HoleSize=0mm|Usage=FLASHONLY|Rotation=90.000|XOffset=0mm|YOffset=0mm|HoleType=Round|Shape=RoundedRectangle|*
%AMROUNDEDRECTD33*
21,1,1.3970,0.6881,0,0,90.0*
21,1,0.9929,1.0922,0,0,90.0*
1,1,0.4041,0.3440,0.4964*
1,1,0.4041,0.3440,-0.4964*
1,1,0.4041,-0.3440,-0.4964*
1,1,0.4041,-0.3440,0.4964*
%
%ADD33ROUNDEDRECTD33*%
%ADD35C,2.1590*%
G04:AMPARAMS|DCode=36|XSize=4.4mm|YSize=2.5mm|CornerRadius=0.625mm|HoleSize=0mm|Usage=FLASHONLY|Rotation=90.000|XOffset=0mm|YOffset=0mm|HoleType=Round|Shape=RoundedRectangle|*
%AMROUNDEDRECTD36*
21,1,4.4000,1.2500,0,0,90.0*
21,1,3.1500,2.5000,0,0,90.0*
1,1,1.2500,0.6250,1.5750*
1,1,1.2500,0.6250,-1.5750*
1,1,1.2500,-0.6250,-1.5750*
1,1,1.2500,-0.6250,1.5750*
%
%ADD36ROUNDEDRECTD36*%
G04:AMPARAMS|DCode=37|XSize=0.508mm|YSize=0.508mm|CornerRadius=0.1524mm|HoleSize=0mm|Usage=FLASHONLY|Rotation=180.000|XOffset=0mm|YOffset=0mm|HoleType=Round|Shape=RoundedRectangle|*
%AMROUNDEDRECTD37*
21,1,0.5080,0.2032,0,0,180.0*
21,1,0.2032,0.5080,0,0,180.0*
1,1,0.3048,-0.1016,0.1016*
1,1,0.3048,0.1016,0.1016*
1,1,0.3048,0.1016,-0.1016*
1,1,0.3048,-0.1016,-0.1016*
%
%ADD37ROUNDEDRECTD37*%
%ADD38C,0.4500*%
G04:AMPARAMS|DCode=40|XSize=3.06mm|YSize=0.89mm|CornerRadius=0.2225mm|HoleSize=0mm|Usage=FLASHONLY|Rotation=90.000|XOffset=0mm|YOffset=0mm|HoleType=Round|Shape=RoundedRectangle|*
%AMROUNDEDRECTD40*
21,1,3.0600,0.4450,0,0,90.0*
21,1,2.6150,0.8900,0,0,90.0*
1,1,0.4450,0.2225,1.3075*
1,1,0.4450,0.2225,-1.3075*
1,1,0.4450,-0.2225,-1.3075*
1,1,0.4450,-0.2225,1.3075*
%
%ADD40ROUNDEDRECTD40*%
G04:AMPARAMS|DCode=41|XSize=1.8034mm|YSize=1.1938mm|CornerRadius=0.203mm|HoleSize=0mm|Usage=FLASHONLY|Rotation=270.000|XOffset=0mm|YOffset=0mm|HoleType=Round|Shape=RoundedRectangle|*
%AMROUNDEDRECTD41*
21,1,1.8034,0.7879,0,0,270.0*
21,1,1.3975,1.1938,0,0,270.0*
1,1,0.4059,-0.3940,-0.6988*
1,1,0.4059,-0.3940,0.6988*
1,1,0.4059,0.3940,0.6988*
1,1,0.4059,0.3940,-0.6988*
%
%ADD41ROUNDEDRECTD41*%
G04:AMPARAMS|DCode=42|XSize=0.508mm|YSize=0.508mm|CornerRadius=0.1524mm|HoleSize=0mm|Usage=FLASHONLY|Rotation=270.000|XOffset=0mm|YOffset=0mm|HoleType=Round|Shape=RoundedRectangle|*
%AMROUNDEDRECTD42*
21,1,0.5080,0.2032,0,0,270.0*
21,1,0.2032,0.5080,0,0,270.0*
1,1,0.3048,-0.1016,-0.1016*
1,1,0.3048,-0.1016,0.1016*
1,1,0.3048,0.1016,0.1016*
1,1,0.3048,0.1016,-0.1016*
%
%ADD42ROUNDEDRECTD42*%
G04:AMPARAMS|DCode=43|XSize=1.8034mm|YSize=1.1938mm|CornerRadius=0.203mm|HoleSize=0mm|Usage=FLASHONLY|Rotation=0.000|XOffset=0mm|YOffset=0mm|HoleType=Round|Shape=RoundedRectangle|*
%AMROUNDEDRECTD43*
21,1,1.8034,0.7879,0,0,0.0*
21,1,1.3975,1.1938,0,0,0.0*
1,1,0.4059,0.6988,-0.3940*
1,1,0.4059,-0.6988,-0.3940*
1,1,0.4059,-0.6988,0.3940*
1,1,0.4059,0.6988,0.3940*
%
%ADD43ROUNDEDRECTD43*%
%ADD44R,0.8000X0.2500*%
G04:AMPARAMS|DCode=45|XSize=3.4mm|YSize=3.4mm|CornerRadius=0mm|HoleSize=0mm|Usage=FLASHONLY|Rotation=0.000|XOffset=0mm|YOffset=0mm|HoleType=Round|Shape=RoundedRectangle|*
%AMROUNDEDRECTD45*
21,1,3.4000,3.4000,0,0,0.0*
21,1,3.4000,3.4000,0,0,0.0*
1,1,0.0000,1.7000,-1.7000*
1,1,0.0000,-1.7000,-1.7000*
1,1,0.0000,-1.7000,1.7000*
1,1,0.0000,1.7000,1.7000*
%
%ADD45ROUNDEDRECTD45*%
%ADD46R,0.2500X0.8000*%
%ADD47O,0.8000X0.2300*%
%ADD48O,0.2300X0.8000*%
%ADD49R,7.4000X7.4000*%
%ADD51O,1.3500X0.3000*%
G04:AMPARAMS|DCode=52|XSize=4.4mm|YSize=2.5mm|CornerRadius=0.625mm|HoleSize=0mm|Usage=FLASHONLY|Rotation=0.000|XOffset=0mm|YOffset=0mm|HoleType=Round|Shape=RoundedRectangle|*
%AMROUNDEDRECTD52*
21,1,4.4000,1.2500,0,0,0.0*
21,1,3.1500,2.5000,0,0,0.0*
1,1,1.2500,1.5750,-0.6250*
1,1,1.2500,-1.5750,-0.6250*
1,1,1.2500,-1.5750,0.6250*
1,1,1.2500,1.5750,0.6250*
%
%ADD52ROUNDEDRECTD52*%
G04:AMPARAMS|DCode=53|XSize=2.5mm|YSize=1.5mm|CornerRadius=0.3mm|HoleSize=0mm|Usage=FLASHONLY|Rotation=270.000|XOffset=0mm|YOffset=0mm|HoleType=Round|Shape=RoundedRectangle|*
%AMROUNDEDRECTD53*
21,1,2.5000,0.9000,0,0,270.0*
21,1,1.9000,1.5000,0,0,270.0*
1,1,0.6000,-0.4500,-0.9500*
1,1,0.6000,-0.4500,0.9500*
1,1,0.6000,0.4500,0.9500*
1,1,0.6000,0.4500,-0.9500*
%
%ADD53ROUNDEDRECTD53*%
G04:AMPARAMS|DCode=54|XSize=2.5mm|YSize=1.5mm|CornerRadius=0.3mm|HoleSize=0mm|Usage=FLASHONLY|Rotation=0.000|XOffset=0mm|YOffset=0mm|HoleType=Round|Shape=RoundedRectangle|*
%AMROUNDEDRECTD54*
21,1,2.5000,0.9000,0,0,0.0*
21,1,1.9000,1.5000,0,0,0.0*
1,1,0.6000,0.9500,-0.4500*
1,1,0.6000,-0.9500,-0.4500*
1,1,0.6000,-0.9500,0.4500*
1,1,0.6000,0.9500,0.4500*
%
%ADD54ROUNDEDRECTD54*%
G04:AMPARAMS|DCode=55|XSize=1.397mm|YSize=1.0922mm|CornerRadius=0.2021mm|HoleSize=0mm|Usage=FLASHONLY|Rotation=0.000|XOffset=0mm|YOffset=0mm|HoleType=Round|Shape=RoundedRectangle|*
%AMROUNDEDRECTD55*
21,1,1.3970,0.6881,0,0,0.0*
21,1,0.9929,1.0922,0,0,0.0*
1,1,0.4041,0.4964,-0.3440*
1,1,0.4041,-0.4964,-0.3440*
1,1,0.4041,-0.4964,0.3440*
1,1,0.4041,0.4964,0.3440*
%
%ADD55ROUNDEDRECTD55*%
%ADD56R,1.3500X2.2000*%
G04:AMPARAMS|DCode=57|XSize=0.24mm|YSize=0.6mm|CornerRadius=0.0492mm|HoleSize=0mm|Usage=FLASHONLY|Rotation=90.000|XOffset=0mm|YOffset=0mm|HoleType=Round|Shape=RoundedRectangle|*
%AMROUNDEDRECTD57*
21,1,0.2400,0.5016,0,0,90.0*
21,1,0.1416,0.6000,0,0,90.0*
1,1,0.0984,0.2508,0.0708*
1,1,0.0984,0.2508,-0.0708*
1,1,0.0984,-0.2508,-0.0708*
1,1,0.0984,-0.2508,0.0708*
%
%ADD57ROUNDEDRECTD57*%
G04:AMPARAMS|DCode=58|XSize=0.889mm|YSize=0.8636mm|CornerRadius=0.1511mm|HoleSize=0mm|Usage=FLASHONLY|Rotation=270.000|XOffset=0mm|YOffset=0mm|HoleType=Round|Shape=RoundedRectangle|*
%AMROUNDEDRECTD58*
21,1,0.8890,0.5613,0,0,270.0*
21,1,0.5867,0.8636,0,0,270.0*
1,1,0.3023,-0.2807,-0.2934*
1,1,0.3023,-0.2807,0.2934*
1,1,0.3023,0.2807,0.2934*
1,1,0.3023,0.2807,-0.2934*
%
%ADD58ROUNDEDRECTD58*%
G04:AMPARAMS|DCode=59|XSize=0.889mm|YSize=0.8636mm|CornerRadius=0.1511mm|HoleSize=0mm|Usage=FLASHONLY|Rotation=0.000|XOffset=0mm|YOffset=0mm|HoleType=Round|Shape=RoundedRectangle|*
%AMROUNDEDRECTD59*
21,1,0.8890,0.5613,0,0,0.0*
21,1,0.5867,0.8636,0,0,0.0*
1,1,0.3023,0.2934,-0.2807*
1,1,0.3023,-0.2934,-0.2807*
1,1,0.3023,-0.2934,0.2807*
1,1,0.3023,0.2934,0.2807*
%
%ADD59ROUNDEDRECTD59*%
%ADD60O,1.6500X0.6000*%
G04:AMPARAMS|DCode=61|XSize=1mm|YSize=0.8mm|CornerRadius=0.2mm|HoleSize=0mm|Usage=FLASHONLY|Rotation=180.000|XOffset=0mm|YOffset=0mm|HoleType=Round|Shape=RoundedRectangle|*
%AMROUNDEDRECTD61*
21,1,1.0000,0.4000,0,0,180.0*
21,1,0.6000,0.8000,0,0,180.0*
1,1,0.4000,-0.3000,0.2000*
1,1,0.4000,0.3000,0.2000*
1,1,0.4000,0.3000,-0.2000*
1,1,0.4000,-0.3000,-0.2000*
%
%ADD61ROUNDEDRECTD61*%
%ADD67O,0.3000X1.6000*%
G04:AMPARAMS|DCode=68|XSize=2.26mm|YSize=2.16mm|CornerRadius=0.54mm|HoleSize=0mm|Usage=FLASHONLY|Rotation=180.000|XOffset=0mm|YOffset=0mm|HoleType=Round|Shape=RoundedRectangle|*
%AMROUNDEDRECTD68*
21,1,2.2600,1.0800,0,0,180.0*
21,1,1.1800,2.1600,0,0,180.0*
1,1,1.0800,-0.5900,0.5400*
1,1,1.0800,0.5900,0.5400*
1,1,1.0800,0.5900,-0.5400*
1,1,1.0800,-0.5900,-0.5400*
%
%ADD68ROUNDEDRECTD68*%
%ADD69R,1.2000X1.4000*%
%ADD70R,1.0000X1.4000*%
%ADD71R,1.4000X1.2000*%
%ADD72R,1.4000X1.0000*%
G04:AMPARAMS|DCode=73|XSize=3.06mm|YSize=0.89mm|CornerRadius=0.2225mm|HoleSize=0mm|Usage=FLASHONLY|Rotation=180.000|XOffset=0mm|YOffset=0mm|HoleType=Round|Shape=RoundedRectangle|*
%AMROUNDEDRECTD73*
21,1,3.0600,0.4450,0,0,180.0*
21,1,2.6150,0.8900,0,0,180.0*
1,1,0.4450,-1.3075,0.2225*
1,1,0.4450,1.3075,0.2225*
1,1,0.4450,1.3075,-0.2225*
1,1,0.4450,-1.3075,-0.2225*
%
%ADD73ROUNDEDRECTD73*%
%ADD74R,2.6000X2.5000*%
%ADD75R,7.4000X7.4000*%
%ADD76R,2.1000X2.1000*%
%ADD77O,0.2000X0.8000*%
%ADD78O,0.8000X0.2000*%
%ADD80O,0.2800X0.8500*%
%ADD81O,0.8500X0.2800*%
%ADD82R,5.6000X5.6000*%
%ADD83O,0.4000X1.8000*%
%ADD84R,0.4572X0.3048*%
%ADD85O,2.9210X0.7620*%
%ADD86R,4.2418X3.8100*%
%ADD90R,2.2000X1.3500*%
%ADD91O,1.6000X0.6000*%
G04:AMPARAMS|DCode=93|XSize=1mm|YSize=0.8mm|CornerRadius=0.2mm|HoleSize=0mm|Usage=FLASHONLY|Rotation=270.000|XOffset=0mm|YOffset=0mm|HoleType=Round|Shape=RoundedRectangle|*
%AMROUNDEDRECTD93*
21,1,1.0000,0.4000,0,0,270.0*
21,1,0.6000,0.8000,0,0,270.0*
1,1,0.4000,-0.2000,-0.3000*
1,1,0.4000,-0.2000,0.3000*
1,1,0.4000,0.2000,0.3000*
1,1,0.4000,0.2000,-0.3000*
%
%ADD93ROUNDEDRECTD93*%
%ADD174R,1.4000X2.7500*%
%ADD175R,1.0500X0.6000*%
%ADD176R,5.3500X8.5400*%
%ADD177R,1.9500X1.5500*%
G04:AMPARAMS|DCode=178|XSize=2.4mm|YSize=1.65mm|CornerRadius=0.0413mm|HoleSize=0mm|Usage=FLASHONLY|Rotation=90.000|XOffset=0mm|YOffset=0mm|HoleType=Round|Shape=RoundedRectangle|*
%AMROUNDEDRECTD178*
21,1,2.4000,1.5675,0,0,90.0*
21,1,2.3175,1.6500,0,0,90.0*
1,1,0.0825,0.7838,1.1588*
1,1,0.0825,0.7838,-1.1588*
1,1,0.0825,-0.7838,-1.1588*
1,1,0.0825,-0.7838,1.1588*
%
%ADD178ROUNDEDRECTD178*%
G04:AMPARAMS|DCode=179|XSize=0.8mm|YSize=0.9mm|CornerRadius=0.08mm|HoleSize=0mm|Usage=FLASHONLY|Rotation=180.000|XOffset=0mm|YOffset=0mm|HoleType=Round|Shape=RoundedRectangle|*
%AMROUNDEDRECTD179*
21,1,0.8000,0.7400,0,0,180.0*
21,1,0.6400,0.9000,0,0,180.0*
1,1,0.1600,-0.3200,0.3700*
1,1,0.1600,0.3200,0.3700*
1,1,0.1600,0.3200,-0.3700*
1,1,0.1600,-0.3200,-0.3700*
%
%ADD179ROUNDEDRECTD179*%
G04:AMPARAMS|DCode=180|XSize=0.8mm|YSize=1mm|CornerRadius=0.2mm|HoleSize=0mm|Usage=FLASHONLY|Rotation=180.000|XOffset=0mm|YOffset=0mm|HoleType=Round|Shape=RoundedRectangle|*
%AMROUNDEDRECTD180*
21,1,0.8000,0.6000,0,0,180.0*
21,1,0.4000,1.0000,0,0,180.0*
1,1,0.4000,-0.2000,0.3000*
1,1,0.4000,0.2000,0.3000*
1,1,0.4000,0.2000,-0.3000*
1,1,0.4000,-0.2000,-0.3000*
%
%ADD180ROUNDEDRECTD180*%
%ADD181R,2.8000X2.3000*%
%ADD182R,2.3000X2.8000*%
G04:AMPARAMS|DCode=183|XSize=0.65mm|YSize=0.85mm|CornerRadius=0.1625mm|HoleSize=0mm|Usage=FLASHONLY|Rotation=0.000|XOffset=0mm|YOffset=0mm|HoleType=Round|Shape=RoundedRectangle|*
%AMROUNDEDRECTD183*
21,1,0.6500,0.5250,0,0,0.0*
21,1,0.3250,0.8500,0,0,0.0*
1,1,0.3250,0.1625,-0.2625*
1,1,0.3250,-0.1625,-0.2625*
1,1,0.3250,-0.1625,0.2625*
1,1,0.3250,0.1625,0.2625*
%
%ADD183ROUNDEDRECTD183*%
%ADD184R,9.7000X3.4000*%
%ADD185R,8.5400X5.3500*%
G04:AMPARAMS|DCode=186|XSize=0.4mm|YSize=0.7mm|CornerRadius=0.05mm|HoleSize=0mm|Usage=FLASHONLY|Rotation=270.000|XOffset=0mm|YOffset=0mm|HoleType=Round|Shape=RoundedRectangle|*
%AMROUNDEDRECTD186*
21,1,0.4000,0.6000,0,0,270.0*
21,1,0.3000,0.7000,0,0,270.0*
1,1,0.1000,-0.3000,-0.1500*
1,1,0.1000,-0.3000,0.1500*
1,1,0.1000,0.3000,0.1500*
1,1,0.1000,0.3000,-0.1500*
%
%ADD186ROUNDEDRECTD186*%
%ADD187C,1.0000*%
G04:AMPARAMS|DCode=188|XSize=0.3mm|YSize=0.45mm|CornerRadius=0.075mm|HoleSize=0mm|Usage=FLASHONLY|Rotation=90.000|XOffset=0mm|YOffset=0mm|HoleType=Round|Shape=RoundedRectangle|*
%AMROUNDEDRECTD188*
21,1,0.3000,0.3000,0,0,90.0*
21,1,0.1500,0.4500,0,0,90.0*
1,1,0.1500,0.1500,0.0750*
1,1,0.1500,0.1500,-0.0750*
1,1,0.1500,-0.1500,-0.0750*
1,1,0.1500,-0.1500,0.0750*
%
%ADD188ROUNDEDRECTD188*%
%ADD189R,2.2990X0.5590*%
%ADD190C,0.1016*%
%ADD191C,0.7620*%
%ADD192C,0.5588*%
%ADD193C,1.0160*%
%ADD194C,0.8890*%
%ADD195C,1.2700*%
%ADD196C,2.0320*%
%ADD197C,6.2000*%
%ADD198C,0.6000*%
%ADD199C,2.2000*%
%ADD200C,1.9050*%
%ADD201R,1.9050X1.9050*%
%ADD202C,3.0000*%
%ADD203C,1.6000*%
%ADD204C,3.8100*%
G04:AMPARAMS|DCode=205|XSize=1.524mm|YSize=1.524mm|CornerRadius=0mm|HoleSize=0mm|Usage=FLASHONLY|Rotation=270.000|XOffset=0mm|YOffset=0mm|HoleType=Round|Shape=Octagon|*
%AMOCTAGOND205*
4,1,8,-0.3810,-0.7620,0.3810,-0.7620,0.7620,-0.3810,0.7620,0.3810,0.3810,0.7620,-0.3810,0.7620,-0.7620,0.3810,-0.7620,-0.3810,-0.3810,-0.7620,0.0*
%
%ADD205OCTAGOND205*%

%ADD206C,1.5240*%
%ADD207R,3.0000X3.0000*%
%ADD208C,0.1778*%
%ADD209C,0.3810*%
%ADD210C,0.5080*%
%ADD211C,0.5000*%
G36*
X751092Y2481212D02*
Y2468931D01*
X749427Y2467266D01*
X737828D01*
X733899Y2471195D01*
Y2479456D01*
X737606Y2483163D01*
Y2483227D01*
X749068D01*
X751092Y2481212D01*
D02*
G37*
G36*
X751238Y2458760D02*
Y2447161D01*
X747309Y2443232D01*
X739048D01*
X735341Y2446939D01*
X735277D01*
Y2458401D01*
X737292Y2460425D01*
X749573D01*
X751238Y2458760D01*
D02*
G37*
G36*
X586967Y2382694D02*
Y2371095D01*
X583037Y2367166D01*
X574777D01*
X571069Y2370874D01*
X571006D01*
Y2382335D01*
X573021Y2384360D01*
X585301D01*
X586967Y2382694D01*
D02*
G37*
G36*
X547021D02*
Y2371095D01*
X543091Y2367166D01*
X534831D01*
X531123Y2370874D01*
X531059D01*
Y2382335D01*
X533075Y2384360D01*
X545355D01*
X547021Y2382694D01*
D02*
G37*
G36*
X1082160Y2353568D02*
X1088616Y2347112D01*
Y2321541D01*
X1077265Y2310191D01*
X1068356Y2310036D01*
X1059256Y2319135D01*
Y2339839D01*
X1072985Y2353568D01*
X1082160Y2353568D01*
D02*
G37*
G36*
X809064Y2305479D02*
X809064Y2303890D01*
X807142Y2301967D01*
X806552Y2301085D01*
X806345Y2300045D01*
X806552Y2299004D01*
X807142Y2298122D01*
X807690Y2297755D01*
Y2297069D01*
X808092Y2296097D01*
X808309Y2295008D01*
X804188Y2290887D01*
X738977D01*
X716858Y2268767D01*
X706668D01*
X704325Y2266424D01*
X698822D01*
X690177Y2275069D01*
Y2294364D01*
X715577Y2319764D01*
X794779D01*
X809064Y2305479D01*
D02*
G37*
G36*
X444547Y2274202D02*
X444546Y2274201D01*
Y2259109D01*
X443186Y2257749D01*
X342096D01*
X330815Y2269030D01*
Y2277879D01*
X337969Y2285032D01*
X433718D01*
X444547Y2274202D01*
D02*
G37*
G36*
X1083103Y2228804D02*
Y2170548D01*
X1074095Y2161540D01*
X960485D01*
X955040Y2166985D01*
Y2197100D01*
X936065Y2216075D01*
Y2228804D01*
X942460Y2235200D01*
X964471D01*
X966293Y2234712D01*
X969336D01*
X971158Y2235200D01*
X1076707D01*
X1083103Y2228804D01*
D02*
G37*
G36*
X602590Y2220180D02*
Y2205897D01*
X600332Y2203640D01*
X566875D01*
X542468Y2179233D01*
X509323D01*
Y2178952D01*
X504836Y2174465D01*
X503663Y2174951D01*
Y2178674D01*
X503456Y2179715D01*
X502866Y2180597D01*
X502866Y2180597D01*
X499560Y2183903D01*
Y2184126D01*
X503254Y2187820D01*
X530849D01*
X565468Y2222440D01*
X600330D01*
X602590Y2220180D01*
D02*
G37*
G36*
X929109Y2194238D02*
X940636Y2182710D01*
Y2174861D01*
X937956Y2172908D01*
X922551D01*
X915117Y2180342D01*
Y2191797D01*
X917905Y2194586D01*
X929109D01*
Y2194238D01*
D02*
G37*
G36*
X609595Y2192128D02*
Y2173185D01*
X595536Y2159126D01*
X543179D01*
Y2161182D01*
X542972Y2162222D01*
X542382Y2163104D01*
X541500Y2163694D01*
X540460Y2163901D01*
Y2171227D01*
X542418Y2173220D01*
X551932D01*
X557945Y2179233D01*
X565785D01*
X584554Y2198002D01*
X603720D01*
X609595Y2192128D01*
D02*
G37*
G36*
X187960Y2170144D02*
Y2065453D01*
X176780Y2054274D01*
X140851D01*
X125760Y2069366D01*
Y2164404D01*
X130596Y2169241D01*
X142454Y2157383D01*
X142699Y2156152D01*
X144021Y2152960D01*
X145940Y2150088D01*
X148384Y2147645D01*
X151256Y2145725D01*
X154448Y2144403D01*
X157837Y2143729D01*
X158294D01*
Y2161269D01*
Y2178809D01*
X157837D01*
X154448Y2178135D01*
X153326Y2177670D01*
X146175Y2184820D01*
X150474Y2189119D01*
X168986D01*
X187960Y2170144D01*
D02*
G37*
G36*
X704574Y2173220D02*
Y2152517D01*
X690845Y2138788D01*
X681671Y2138788D01*
X675214Y2145244D01*
Y2170814D01*
X686565Y2182164D01*
X695474Y2182320D01*
X704574Y2173220D01*
D02*
G37*
G36*
X313860Y2153137D02*
X314016Y2144227D01*
X304916Y2135127D01*
X284213D01*
X270484Y2148856D01*
X270484Y2158031D01*
X276940Y2164487D01*
X302510D01*
X313860Y2153137D01*
D02*
G37*
G36*
X248370Y2169172D02*
Y2074133D01*
X228011Y2053774D01*
X206551Y2053774D01*
X193040Y2067285D01*
Y2170578D01*
X206726Y2184264D01*
X233278D01*
X248370Y2169172D01*
D02*
G37*
G36*
X1201990Y2086295D02*
X1201990Y2082303D01*
X1200526Y2080838D01*
X1200076Y2080166D01*
X1199919Y2079373D01*
X1200076Y2078580D01*
X1200526Y2077908D01*
X1201140Y2077497D01*
X1201205Y2077426D01*
X1201512Y2076101D01*
X1197114Y2071703D01*
X1131903D01*
X1109783Y2049583D01*
X1099594D01*
X1097251Y2047240D01*
X1091748D01*
X1083103Y2055885D01*
Y2075180D01*
X1108503Y2100580D01*
X1187705D01*
X1201990Y2086295D01*
D02*
G37*
G36*
X313757Y2041635D02*
X313912Y2032725D01*
X304813Y2023625D01*
X284109D01*
X270380Y2037354D01*
X270380Y2046529D01*
X276836Y2052985D01*
X302407D01*
X313757Y2041635D01*
D02*
G37*
G36*
X469900Y2234889D02*
Y2134055D01*
X465877Y2130032D01*
X427484D01*
Y2029174D01*
X416612Y2018303D01*
X383744D01*
X363430Y2038616D01*
Y2194261D01*
X343055D01*
X327660Y2209657D01*
Y2215032D01*
X331180D01*
X333037Y2215277D01*
X334767Y2215993D01*
X336253Y2217133D01*
X337393Y2218619D01*
X338109Y2220349D01*
X338354Y2222206D01*
X338109Y2224062D01*
X337393Y2225792D01*
X336253Y2227278D01*
X334767Y2228418D01*
X333037Y2229135D01*
X331458Y2229342D01*
X330815Y2230496D01*
X347921Y2247601D01*
X457187D01*
X469900Y2234889D01*
D02*
G37*
G36*
X957620Y1974204D02*
Y1968948D01*
X953935Y1965263D01*
X938615D01*
Y1965451D01*
X934805Y1969261D01*
Y1973071D01*
X939552Y1977818D01*
X954006D01*
X957620Y1974204D01*
D02*
G37*
G36*
X1391594Y1966895D02*
Y1955440D01*
X1388806Y1952651D01*
X1377602D01*
Y1952999D01*
X1366074Y1964527D01*
Y1972375D01*
X1368754Y1974329D01*
X1384159D01*
X1391594Y1966895D01*
D02*
G37*
G36*
X780585Y1959901D02*
Y1936429D01*
X778685Y1934529D01*
X776311D01*
X772461Y1930680D01*
X765004D01*
X764203Y1931317D01*
X764155Y1932630D01*
X765244Y1933719D01*
X769841D01*
X771670Y1935548D01*
Y1937585D01*
X770651Y1938604D01*
X770651Y1942973D01*
X769592Y1944032D01*
X766402D01*
X765470Y1944964D01*
Y1946429D01*
X767743Y1948702D01*
X769576D01*
X770651Y1949777D01*
Y1954251D01*
X770307Y1954595D01*
X766115D01*
X764942Y1955767D01*
Y1956979D01*
X766109Y1958146D01*
X770072D01*
X773770Y1961843D01*
X778643D01*
X780585Y1959901D01*
D02*
G37*
G36*
X1099032Y1964918D02*
Y1944215D01*
X1085303Y1930486D01*
X1076129Y1930486D01*
X1069672Y1936942D01*
Y1962513D01*
X1081023Y1973863D01*
X1089932Y1974018D01*
X1099032Y1964918D01*
D02*
G37*
G36*
X659195Y1963031D02*
Y1923996D01*
X657793Y1922619D01*
X652962Y1922619D01*
X651505Y1924077D01*
Y1962906D01*
X653237Y1964638D01*
X657588D01*
X659195Y1963031D01*
D02*
G37*
G36*
X1361936Y2003173D02*
X1362760D01*
Y1990531D01*
X1350004Y1977775D01*
Y1944171D01*
X1322614Y1916781D01*
X1294692D01*
X1291150Y1920323D01*
Y1987836D01*
X1309914Y2006600D01*
X1358509D01*
X1361936Y2003173D01*
D02*
G37*
G36*
X915620Y1923179D02*
Y1917923D01*
X911935Y1914238D01*
X896615D01*
Y1914426D01*
X892936Y1918104D01*
X893097Y1919385D01*
X893845Y1919534D01*
X894727Y1920123D01*
X894767Y1920163D01*
X895357Y1921046D01*
X895564Y1922086D01*
X895564Y1922086D01*
Y1924805D01*
X897552Y1926793D01*
X912006D01*
X915620Y1923179D01*
D02*
G37*
G36*
X823055Y1917347D02*
Y1914238D01*
X820229Y1911412D01*
X797393Y1911412D01*
X792756Y1916050D01*
X784178D01*
X782066Y1913956D01*
Y1896729D01*
X780585Y1895249D01*
X773180Y1895249D01*
X771842Y1896597D01*
Y1901679D01*
X769501Y1904021D01*
X764937Y1903988D01*
X764181D01*
X762171Y1905998D01*
Y1911456D01*
X764949Y1914235D01*
X770007D01*
X774008Y1918236D01*
X775682Y1919910D01*
X820492D01*
X823055Y1917347D01*
D02*
G37*
G36*
X1205040Y1925690D02*
X1205195Y1916781D01*
X1196096Y1907681D01*
X1175392D01*
X1161663Y1921410D01*
X1161663Y1930584D01*
X1168120Y1937041D01*
X1193690D01*
X1205040Y1925690D01*
D02*
G37*
G36*
X793476Y1907619D02*
X808978D01*
X811443Y1905154D01*
Y1901429D01*
X808806Y1898792D01*
X786200D01*
X785936Y1898529D01*
X783958Y1900508D01*
Y1909530D01*
X785840Y1911412D01*
X789683D01*
X793476Y1907619D01*
D02*
G37*
G36*
X1391757Y1804609D02*
Y1793293D01*
X1389333Y1790869D01*
X1384131D01*
X1375754Y1799246D01*
Y1804889D01*
X1380253Y1809127D01*
X1387239D01*
X1391757Y1804609D01*
D02*
G37*
G36*
X1026059Y1792993D02*
X1027699Y1791353D01*
Y1788551D01*
X1026235Y1787087D01*
Y1768604D01*
X1023800Y1766170D01*
X1023127Y1766256D01*
X1022939Y1766455D01*
X1022524Y1767583D01*
X1023125Y1768483D01*
X1023431Y1770019D01*
X1023125Y1771555D01*
X1022255Y1772857D01*
X1020953Y1773727D01*
X1019417Y1774033D01*
X1017880Y1773727D01*
X1016578Y1772857D01*
X1015947Y1772225D01*
X1014595Y1772670D01*
X1014524Y1773142D01*
X1017052Y1775670D01*
Y1789106D01*
X1020939Y1792993D01*
X1026059Y1792993D01*
D02*
G37*
G36*
X1373537Y1799295D02*
X1373678Y1799155D01*
X1373754Y1798971D01*
Y1765772D01*
X1373678Y1765588D01*
X1373537Y1765448D01*
X1373354Y1765371D01*
X1371655D01*
X1371471Y1765448D01*
X1371330Y1765588D01*
X1371254Y1765772D01*
Y1798971D01*
X1371330Y1799155D01*
X1371471Y1799295D01*
X1371655Y1799371D01*
X1373354D01*
X1373537Y1799295D01*
D02*
G37*
G36*
X1368537D02*
X1368678Y1799155D01*
X1368754Y1798971D01*
Y1765772D01*
X1368678Y1765588D01*
X1368537Y1765448D01*
X1368354Y1765371D01*
X1366655D01*
X1366471Y1765448D01*
X1366330Y1765588D01*
X1366254Y1765772D01*
Y1798971D01*
X1366330Y1799155D01*
X1366471Y1799295D01*
X1366655Y1799371D01*
X1368354D01*
X1368537Y1799295D01*
D02*
G37*
G36*
X550642Y1767937D02*
X550797Y1759027D01*
X541697Y1749927D01*
X520994D01*
X507265Y1763656D01*
X507265Y1772831D01*
X513721Y1779287D01*
X539291D01*
X550642Y1767937D01*
D02*
G37*
G36*
X386460Y1720436D02*
Y1708981D01*
X383671Y1706193D01*
X372468D01*
Y1706541D01*
X360940Y1718068D01*
Y1725917D01*
X363620Y1727871D01*
X379025D01*
X386460Y1720436D01*
D02*
G37*
G36*
X352791Y1720342D02*
Y1704936D01*
X345356Y1697502D01*
X333901D01*
X331113Y1700290D01*
Y1711494D01*
X331461D01*
X342988Y1723022D01*
X350837D01*
X352791Y1720342D01*
D02*
G37*
G36*
X562712Y1686693D02*
Y1665989D01*
X548983Y1652260D01*
X539809Y1652260D01*
X533352Y1658717D01*
Y1684287D01*
X544702Y1695637D01*
X553612Y1695792D01*
X562712Y1686693D01*
D02*
G37*
G36*
X833656Y1647531D02*
Y1635932D01*
X829726Y1632003D01*
X821466D01*
X817758Y1635710D01*
X817695D01*
Y1647172D01*
X819710Y1649197D01*
X831990D01*
X833656Y1647531D01*
D02*
G37*
G36*
X306162Y1642730D02*
Y1620852D01*
X302858Y1617547D01*
X287189Y1617547D01*
X284484Y1621257D01*
Y1641990D01*
X291919Y1649425D01*
X299467D01*
X306162Y1642730D01*
D02*
G37*
G36*
X254004Y1693337D02*
Y1674135D01*
X253568D01*
X222162Y1642730D01*
Y1620852D01*
X218858Y1617547D01*
X203189Y1617547D01*
X200484Y1621257D01*
Y1631624D01*
X186016Y1646092D01*
X154768D01*
X146760Y1654100D01*
Y1674313D01*
X180635Y1708189D01*
X239153D01*
X254004Y1693337D01*
D02*
G37*
G36*
X656030Y1764777D02*
X656030Y1709837D01*
X551675Y1605482D01*
X546358D01*
X545317Y1605275D01*
X544435Y1604686D01*
X544094Y1604175D01*
X542887Y1603878D01*
X542571Y1603902D01*
X538801Y1607672D01*
Y1615595D01*
X574040Y1650834D01*
Y1726156D01*
X620647Y1772763D01*
X648043D01*
X656030Y1764777D01*
D02*
G37*
G36*
X756254Y1562433D02*
Y1550834D01*
X752325Y1546905D01*
X744064D01*
X740357Y1550612D01*
X740293D01*
Y1562074D01*
X742309Y1564099D01*
X754589D01*
X756254Y1562433D01*
D02*
G37*
G36*
X554268Y1543951D02*
Y1532352D01*
X550338Y1528423D01*
X542078D01*
X538371Y1532130D01*
X538307D01*
Y1543592D01*
X540322Y1545617D01*
X552602D01*
X554268Y1543951D01*
D02*
G37*
G36*
X836083Y1543003D02*
X836062Y1542983D01*
Y1517003D01*
X825302Y1506243D01*
X672606D01*
X666732Y1512117D01*
X675006Y1520392D01*
X675511Y1521148D01*
X675689Y1522040D01*
X675511Y1522932D01*
X675430Y1523054D01*
Y1526563D01*
X675272Y1527356D01*
X674823Y1528028D01*
X674151Y1528477D01*
X673358Y1528635D01*
X672565Y1528477D01*
X671893Y1528028D01*
X671444Y1527356D01*
X671286Y1526563D01*
Y1523264D01*
X663436Y1515414D01*
X657845Y1521004D01*
Y1536685D01*
X660400Y1539240D01*
X801768D01*
X809433Y1546905D01*
X832181D01*
X836083Y1543003D01*
D02*
G37*
G36*
X429085Y1448728D02*
Y1430652D01*
X427315Y1428882D01*
X407687D01*
X389816Y1446754D01*
Y1451436D01*
X391813Y1453197D01*
X424616D01*
X429085Y1448728D01*
D02*
G37*
G36*
X466662Y1429558D02*
X473057Y1423163D01*
Y1410768D01*
X473060Y1410729D01*
X471968Y1409637D01*
X469588D01*
X460196Y1419030D01*
Y1427480D01*
X464078Y1429558D01*
X466662Y1429558D01*
D02*
G37*
G36*
X482179Y1427331D02*
Y1423259D01*
X482356Y1422367D01*
X482861Y1421611D01*
X483618Y1421106D01*
X484510Y1420929D01*
X484908Y1421008D01*
X486006Y1420322D01*
X486178Y1420098D01*
X486178Y1415541D01*
X488647Y1413072D01*
Y1413047D01*
X488672D01*
X491074Y1410645D01*
X491069Y1409261D01*
X490249Y1408456D01*
X485406D01*
X475736Y1418126D01*
X475736Y1429094D01*
X478607Y1430903D01*
X482179Y1427331D01*
D02*
G37*
G36*
X889362Y1488885D02*
X889353Y1470585D01*
Y1457408D01*
X889960D01*
X894314Y1453055D01*
Y1418962D01*
X890298D01*
X886725Y1415390D01*
Y1378456D01*
X882556D01*
X868124Y1392888D01*
Y1461110D01*
X858042Y1471192D01*
Y1488885D01*
X862677Y1493520D01*
X884678D01*
X889362Y1488885D01*
D02*
G37*
G36*
X842926Y1409214D02*
Y1405493D01*
X828683Y1391251D01*
Y1370522D01*
X824968Y1366807D01*
X817438D01*
X817287Y1366656D01*
X809667Y1374276D01*
Y1385948D01*
X836042Y1412323D01*
X839817D01*
X842926Y1409214D01*
D02*
G37*
G36*
X558240Y1376350D02*
Y1362950D01*
X556959Y1361757D01*
X549674D01*
X540609Y1370822D01*
Y1378807D01*
X543598Y1380886D01*
X553703D01*
X558240Y1376350D01*
D02*
G37*
G36*
X429977Y1376021D02*
Y1357945D01*
X428223Y1356190D01*
X395330D01*
X394575Y1357066D01*
X394597Y1358244D01*
X395000Y1359216D01*
X394917Y1359418D01*
X394597Y1360188D01*
X394596Y1360189D01*
X393624Y1360592D01*
X392652Y1360190D01*
X391474Y1360342D01*
X390953Y1360786D01*
X390945Y1362152D01*
X409836Y1378807D01*
X427190D01*
X429977Y1376021D01*
D02*
G37*
G36*
X1035976Y1335500D02*
Y1323674D01*
X1034382Y1322081D01*
X991645Y1322081D01*
X987800Y1325925D01*
Y1327474D01*
X987851Y1327489D01*
X987851Y1327489D01*
Y1337140D01*
X991046Y1340335D01*
X1031141D01*
X1035976Y1335500D01*
D02*
G37*
G36*
X703724Y1333925D02*
Y1332375D01*
X703673Y1332361D01*
X703673Y1332361D01*
Y1322709D01*
X700478Y1319515D01*
X660383D01*
X655548Y1324350D01*
Y1331146D01*
X662171Y1337769D01*
X699879D01*
X703724Y1333925D01*
D02*
G37*
G36*
X1032036Y1299717D02*
X1040399D01*
X1043894Y1296222D01*
Y1291138D01*
X1041537Y1288781D01*
X1024576Y1288781D01*
X1018047Y1288781D01*
X994223Y1264957D01*
X990834D01*
X987299Y1268492D01*
X988082Y1317812D01*
X988891Y1318621D01*
X1013132D01*
X1032036Y1299717D01*
D02*
G37*
G36*
X714073Y1257109D02*
Y1252845D01*
X711841Y1250612D01*
X686188D01*
X684201Y1252599D01*
Y1255847D01*
X689052Y1260698D01*
X710483D01*
X714073Y1257109D01*
D02*
G37*
G36*
X1043696Y1259893D02*
X1047274Y1256315D01*
X1047274Y1252624D01*
X1044191Y1249541D01*
X986972D01*
X984073Y1253301D01*
X984073Y1257561D01*
X986405Y1259893D01*
X1043696Y1259893D01*
D02*
G37*
G36*
X157302Y1214379D02*
X163758Y1207923D01*
Y1182353D01*
X152408Y1171003D01*
X143498Y1170847D01*
X134398Y1179947D01*
Y1200650D01*
X148127Y1214379D01*
X157302Y1214379D01*
D02*
G37*
G36*
X417501Y1186180D02*
Y1174411D01*
X402218Y1159128D01*
X383428D01*
X377599Y1164956D01*
Y1174389D01*
X393527Y1190317D01*
X413364D01*
X417501Y1186180D01*
D02*
G37*
G36*
X707371Y1156810D02*
Y1150895D01*
X706257Y1149781D01*
X692097D01*
X679130Y1162748D01*
X656391D01*
X648722Y1170417D01*
Y1177571D01*
X650685Y1179533D01*
X684648D01*
X707371Y1156810D01*
D02*
G37*
G36*
X706782Y1144289D02*
Y1142740D01*
X706731Y1142725D01*
X706731Y1142725D01*
Y1133074D01*
X703537Y1129879D01*
X663442D01*
X658607Y1134715D01*
Y1141510D01*
X665230Y1148133D01*
X702938D01*
X706782Y1144289D01*
D02*
G37*
G36*
X1038848Y1138491D02*
Y1131658D01*
X1032261Y1125072D01*
X994516Y1125072D01*
X990672Y1128916D01*
Y1130466D01*
X990723Y1130480D01*
X990723Y1130480D01*
Y1140132D01*
X993649Y1143057D01*
X1034281D01*
X1038848Y1138491D01*
D02*
G37*
G36*
X549552Y1148133D02*
Y1140211D01*
X543900Y1134560D01*
X522346D01*
X474934Y1087147D01*
X465276D01*
X464272Y1088150D01*
X464260Y1091585D01*
X530202Y1157527D01*
X540158D01*
X549552Y1148133D01*
D02*
G37*
G36*
X279599Y1165997D02*
Y1141863D01*
X235285Y1097549D01*
X215039D01*
X182384Y1064894D01*
X151917D01*
X140469Y1074402D01*
Y1094740D01*
X220140Y1174411D01*
X271185D01*
X279599Y1165997D01*
D02*
G37*
G36*
X265166Y1076331D02*
X265166Y1067157D01*
X258710Y1060700D01*
X233139D01*
X221789Y1072051D01*
X221634Y1080960D01*
X230733Y1090060D01*
X251437D01*
X265166Y1076331D01*
D02*
G37*
G36*
X890572Y1084743D02*
X890572Y1042069D01*
X888315Y1039812D01*
X884688D01*
X879502Y1044998D01*
X879502Y1083970D01*
X883469Y1087937D01*
X887378Y1087937D01*
X890572Y1084743D01*
D02*
G37*
G36*
X795923Y1087014D02*
X795923Y1087014D01*
X807592D01*
X808769Y1085837D01*
Y1043725D01*
X803934Y1038890D01*
X797138D01*
X790515Y1045513D01*
Y1083221D01*
X794359Y1087066D01*
X795909D01*
X795923Y1087014D01*
D02*
G37*
G36*
X649539Y1033410D02*
Y1021955D01*
X646750Y1019166D01*
X635547D01*
Y1019514D01*
X624019Y1031041D01*
Y1038890D01*
X626699Y1040844D01*
X642104D01*
X649539Y1033410D01*
D02*
G37*
G36*
X434699Y1081679D02*
X466846D01*
X496055Y1052469D01*
X546077D01*
X558379Y1040167D01*
Y1022314D01*
X549452Y1013388D01*
Y1013125D01*
X494974D01*
X447249Y1060850D01*
X387896D01*
X382859Y1065887D01*
Y1077869D01*
X392933Y1090679D01*
X425699D01*
X434699Y1081679D01*
D02*
G37*
G36*
X850198Y963626D02*
Y921460D01*
X847410Y918672D01*
Y918663D01*
X841808D01*
X838204Y922267D01*
Y947733D01*
X836206Y949731D01*
X824678Y961258D01*
Y969107D01*
X827358Y971061D01*
X842763D01*
X850198Y963626D01*
D02*
G37*
G36*
X767045Y971746D02*
X804889D01*
X807703Y968932D01*
Y925778D01*
X799653Y917728D01*
X795109D01*
Y921391D01*
X794902Y922431D01*
X794313Y923313D01*
X793431Y923903D01*
X792390Y924110D01*
X791349Y923903D01*
X790467Y923313D01*
X789878Y922431D01*
X789671Y921391D01*
Y917728D01*
X788320D01*
X783363Y922685D01*
X758316Y947732D01*
X699025Y947733D01*
X659232Y987526D01*
Y1014234D01*
X677889Y1032892D01*
X705899D01*
X767045Y971746D01*
D02*
G37*
G36*
X739304Y921211D02*
Y909756D01*
X736516Y906968D01*
X725312D01*
Y907315D01*
X713784Y918843D01*
Y926692D01*
X716464Y928646D01*
X731869D01*
X739304Y921211D01*
D02*
G37*
G36*
X994684Y897326D02*
X1041377D01*
X1045264Y893439D01*
X1065563D01*
X1069390Y889613D01*
Y884951D01*
X1068971Y884532D01*
Y881102D01*
X1068597Y881027D01*
X1067925Y880578D01*
X1067476Y879906D01*
X1067318Y879113D01*
X1067476Y878320D01*
X1067689Y878001D01*
X1066886Y876931D01*
X1042737D01*
X1035554Y884113D01*
X975389D01*
X965331Y894171D01*
Y905174D01*
X969113Y908956D01*
X983054D01*
X994684Y897326D01*
D02*
G37*
G36*
X1160780Y888637D02*
Y879613D01*
X1160234D01*
X1156558Y875937D01*
X1140997D01*
X1137821Y879113D01*
X1129936D01*
X1129080Y879284D01*
X1127048D01*
X1126191Y879113D01*
X1115114D01*
X1113889Y880338D01*
X1113890Y883214D01*
Y887315D01*
X1119323Y892749D01*
X1156668D01*
X1160780Y888637D01*
D02*
G37*
G36*
X266270Y889027D02*
X268167Y887129D01*
X268167Y872597D01*
X266716Y871145D01*
X265179D01*
X262141Y874182D01*
Y881937D01*
X258400Y885679D01*
X248097D01*
X245806Y887970D01*
X245806Y890855D01*
X246985Y892034D01*
X263692D01*
X266270Y889027D01*
D02*
G37*
G36*
X1064156Y875937D02*
X1064818Y875275D01*
X1065329Y874764D01*
Y873565D01*
X1064036Y872226D01*
X1061769D01*
X1060662Y871119D01*
Y867584D01*
X1062430Y865817D01*
X1066488D01*
X1068467Y863838D01*
Y856837D01*
X1064004Y852374D01*
X1045052D01*
X1043168Y854258D01*
Y858359D01*
X1046789Y861980D01*
Y868677D01*
X1054049Y875937D01*
X1064156Y875937D01*
D02*
G37*
G36*
X1126362Y861094D02*
X1152827D01*
X1156178Y857743D01*
Y852848D01*
X1154230Y850900D01*
X1141902D01*
X1138016Y854787D01*
X1117716D01*
X1113890Y858613D01*
Y863276D01*
X1114727Y864113D01*
X1123342D01*
X1126362Y861094D01*
D02*
G37*
G36*
X568616Y847907D02*
Y836720D01*
X566206Y834310D01*
X557451D01*
X549518Y826377D01*
X536094Y826377D01*
X534080Y828391D01*
X534089Y829712D01*
X542953Y838576D01*
X550022Y838576D01*
X561156Y849710D01*
X566813D01*
X568616Y847907D01*
D02*
G37*
G36*
X290984Y823340D02*
Y815585D01*
X294183Y812386D01*
X304485D01*
X308295Y808576D01*
Y806676D01*
X305670Y804051D01*
X290665D01*
X286855Y808496D01*
X284958Y810393D01*
X284958Y824926D01*
X286409Y826377D01*
X287946D01*
X290984Y823340D01*
D02*
G37*
G36*
X1008526Y801621D02*
Y794073D01*
X1001831Y787378D01*
X979953D01*
X976649Y790682D01*
X976649Y806351D01*
X980359Y809056D01*
X1001092D01*
X1008526Y801621D01*
D02*
G37*
G36*
X719617Y793489D02*
Y764872D01*
X716190Y761445D01*
Y760621D01*
X703548D01*
X685522Y778647D01*
X660400D01*
X654293Y784753D01*
Y801058D01*
X662104Y808868D01*
X704238Y808868D01*
X719617Y793489D01*
D02*
G37*
G36*
X235447Y703473D02*
Y693454D01*
X229582Y687589D01*
X216729D01*
X213540Y684400D01*
Y679649D01*
X210909Y677018D01*
X208254D01*
X205679Y679593D01*
Y684019D01*
X202108Y687589D01*
X174635D01*
Y685687D01*
X166257Y677308D01*
X154600D01*
Y689435D01*
X160798Y695633D01*
X209012D01*
X220160Y706781D01*
X232138D01*
X235447Y703473D01*
D02*
G37*
G36*
X203008Y671977D02*
X231807D01*
X234771Y669012D01*
Y653335D01*
X233691Y652255D01*
X231146Y654800D01*
X230474Y655249D01*
X229681Y655407D01*
X228888Y655249D01*
X228216Y654800D01*
X227767Y654128D01*
X227610Y653335D01*
X227767Y652542D01*
X228216Y651870D01*
X230761Y649325D01*
X225787Y644352D01*
X203642D01*
X203239Y645324D01*
X201522Y647041D01*
X200550Y647443D01*
X199578Y647041D01*
X199175Y646069D01*
X199361Y645622D01*
X198664Y644352D01*
X192818D01*
X183406Y653764D01*
Y667276D01*
X178300Y672382D01*
Y674672D01*
X180590Y676962D01*
X198023D01*
X203008Y671977D01*
D02*
G37*
G36*
X321454Y646343D02*
X327910Y639887D01*
Y614316D01*
X316560Y602966D01*
X307651Y602811D01*
X298551Y611911D01*
Y632614D01*
X312280Y646343D01*
X321454Y646343D01*
D02*
G37*
G36*
X236561Y622375D02*
X236561Y608167D01*
X243364Y601365D01*
X258928D01*
X263850Y596442D01*
Y587773D01*
X260529Y584452D01*
X227840D01*
X223956Y588336D01*
Y592221D01*
X213629Y604865D01*
X213530Y604766D01*
X208591D01*
X207258Y606098D01*
Y610270D01*
X208259Y611271D01*
X213604Y611368D01*
X226715Y624479D01*
X234458D01*
X236561Y622375D01*
D02*
G37*
G36*
X284233Y567069D02*
Y559596D01*
X271990Y549249D01*
X224414Y549249D01*
X207586Y566078D01*
Y569099D01*
X215716Y577229D01*
X274073Y577229D01*
X284233Y567069D01*
D02*
G37*
G36*
X405454Y646343D02*
X411911Y639887D01*
Y563773D01*
X466523Y509160D01*
X479474D01*
X489380Y499254D01*
X489437D01*
Y486106D01*
X483020Y479689D01*
X470810D01*
X391651Y558848D01*
Y602811D01*
X382551Y611911D01*
Y632614D01*
X396280Y646343D01*
X405454Y646343D01*
D02*
G37*
G36*
X291621Y486106D02*
X291621Y481723D01*
X271563Y461665D01*
X264895D01*
X260529Y466031D01*
Y471925D01*
X277103Y488499D01*
X289880D01*
X291621Y486106D01*
D02*
G37*
G36*
X230628Y472481D02*
X230603Y465339D01*
X242913Y453029D01*
X272731D01*
X302114Y423645D01*
Y419331D01*
X296177Y413393D01*
X275384Y413393D01*
X253134Y435643D01*
X227305D01*
X211570Y451377D01*
X202395Y451377D01*
X157980Y495793D01*
X157980Y504967D01*
X164436Y511423D01*
X191687D01*
X230628Y472481D01*
D02*
G37*
G36*
X225131Y426720D02*
Y419247D01*
X212889Y408900D01*
X158689D01*
X149703Y417886D01*
Y428603D01*
X157980Y436880D01*
X214971D01*
X225131Y426720D01*
D02*
G37*
G36*
X592118Y286861D02*
Y275951D01*
X589554Y273386D01*
X571140D01*
X569366Y275160D01*
X569028Y275499D01*
Y278370D01*
X570464Y279805D01*
X580611D01*
X582682Y281877D01*
Y286824D01*
X584983Y289126D01*
X589853D01*
X592118Y286861D01*
D02*
G37*
G36*
X302500Y265157D02*
X308229D01*
X314203Y259183D01*
Y248727D01*
X312703Y247227D01*
X309027D01*
X307505Y247227D01*
X305403Y249328D01*
X305492Y252930D01*
X296699Y261723D01*
X290005D01*
X285343Y266386D01*
Y273680D01*
X286795Y275132D01*
X292524D01*
X302500Y265157D01*
D02*
G37*
G36*
X287117Y232093D02*
X287854Y230962D01*
X287808Y230732D01*
X287966Y229939D01*
X288415Y229267D01*
X289087Y228818D01*
X289880Y228660D01*
Y227056D01*
X289880Y225534D01*
X287778Y223432D01*
X285677Y223484D01*
X275384Y213191D01*
Y208034D01*
X270721Y203372D01*
X263427D01*
X261975Y204824D01*
Y213143D01*
X281063Y232232D01*
X286911D01*
X287117Y232093D01*
D02*
G37*
G36*
X347211Y229513D02*
Y222857D01*
X356755Y213313D01*
Y205996D01*
X355255Y204496D01*
X352921D01*
X333497Y223920D01*
X329320Y223920D01*
X327895Y225345D01*
Y230415D01*
X329881Y232401D01*
X344324D01*
X347211Y229513D01*
D02*
G37*
G36*
X315417Y205459D02*
X315417Y201963D01*
X324144Y193236D01*
X330577D01*
X335240Y188573D01*
Y181278D01*
X333788Y179826D01*
X324234D01*
X322211Y181849D01*
Y185603D01*
X316435Y191380D01*
X314579Y193236D01*
X306157Y193236D01*
X304880Y194513D01*
X304881Y202934D01*
Y204733D01*
X307880Y207732D01*
X313145D01*
X315417Y205459D01*
D02*
G37*
G36*
X682877Y186425D02*
X682883D01*
Y183549D01*
X678678Y179344D01*
X668392D01*
X665452Y176404D01*
Y166684D01*
X663368Y164600D01*
X659201D01*
X657478Y166323D01*
Y179713D01*
X658934Y181169D01*
X661017D01*
Y181316D01*
X663101Y183399D01*
Y185629D01*
X666772Y189301D01*
X680001D01*
X682877Y186425D01*
D02*
G37*
G36*
X694680Y173588D02*
X694680Y170000D01*
X687966Y163286D01*
X673034D01*
X670364Y165956D01*
X670251Y172451D01*
X673501Y175700D01*
X692568D01*
X694680Y173588D01*
D02*
G37*
G36*
X595161Y187361D02*
Y180343D01*
X591301Y176565D01*
Y157164D01*
X589558Y155420D01*
X586294D01*
X584883Y156831D01*
Y178432D01*
X582811Y180503D01*
X574071D01*
X570201Y184373D01*
X570201Y187122D01*
X573018Y189939D01*
X588737Y189939D01*
X592582D01*
X595161Y187361D01*
D02*
G37*
%LPC*%
G36*
X161292Y2178809D02*
X160834D01*
Y2162539D01*
X177105D01*
Y2162996D01*
X176430Y2166385D01*
X175108Y2169577D01*
X173189Y2172450D01*
X170746Y2174893D01*
X167873Y2176812D01*
X164681Y2178135D01*
X161292Y2178809D01*
D02*
G37*
G36*
X177105Y2159999D02*
X160834D01*
Y2143729D01*
X161292D01*
X164681Y2144403D01*
X167873Y2145725D01*
X170746Y2147645D01*
X173189Y2150088D01*
X175108Y2152960D01*
X176430Y2156152D01*
X177105Y2159541D01*
Y2159999D01*
D02*
G37*
G36*
X161292Y2136809D02*
X160834D01*
Y2120539D01*
X177105D01*
Y2120996D01*
X176430Y2124385D01*
X175108Y2127577D01*
X173189Y2130450D01*
X170746Y2132893D01*
X167873Y2134812D01*
X164681Y2136135D01*
X161292Y2136809D01*
D02*
G37*
G36*
X158294D02*
X157837D01*
X154448Y2136135D01*
X151256Y2134812D01*
X148384Y2132893D01*
X145940Y2130450D01*
X144021Y2127577D01*
X142699Y2124385D01*
X142025Y2120996D01*
Y2120539D01*
X158294D01*
Y2136809D01*
D02*
G37*
G36*
X177105Y2117999D02*
X160834D01*
Y2101729D01*
X161292D01*
X164681Y2102403D01*
X167873Y2103725D01*
X170746Y2105645D01*
X173189Y2108088D01*
X175108Y2110960D01*
X176430Y2114153D01*
X177105Y2117541D01*
Y2117999D01*
D02*
G37*
G36*
X158294D02*
X142025D01*
Y2117541D01*
X142699Y2114153D01*
X144021Y2110960D01*
X145940Y2108088D01*
X148384Y2105645D01*
X151256Y2103725D01*
X154448Y2102403D01*
X157837Y2101729D01*
X158294D01*
Y2117999D01*
D02*
G37*
G36*
X177105Y2094809D02*
X160835D01*
Y2078539D01*
X177105D01*
Y2094809D01*
D02*
G37*
G36*
X158295D02*
X142025D01*
Y2078539D01*
X158295D01*
Y2094809D01*
D02*
G37*
G36*
X177105Y2075999D02*
X160835D01*
Y2059729D01*
X177105D01*
Y2075999D01*
D02*
G37*
G36*
X158295D02*
X142025D01*
Y2059729D01*
X158295D01*
Y2075999D01*
D02*
G37*
G36*
X216292Y2178809D02*
X215834D01*
Y2162538D01*
X232105D01*
Y2162996D01*
X231430Y2166385D01*
X230108Y2169577D01*
X228189Y2172450D01*
X225746Y2174893D01*
X222873Y2176812D01*
X219681Y2178135D01*
X216292Y2178809D01*
D02*
G37*
G36*
X213294D02*
X212837D01*
X209448Y2178135D01*
X206256Y2176812D01*
X203384Y2174893D01*
X200940Y2172450D01*
X199021Y2169577D01*
X197699Y2166385D01*
X197025Y2162996D01*
Y2162538D01*
X213294D01*
Y2178809D01*
D02*
G37*
G36*
X232105Y2159998D02*
X215834D01*
Y2143729D01*
X216292D01*
X219681Y2144403D01*
X222873Y2145725D01*
X225746Y2147645D01*
X228189Y2150088D01*
X230108Y2152960D01*
X231430Y2156152D01*
X232105Y2159541D01*
Y2159998D01*
D02*
G37*
G36*
X213294D02*
X197025D01*
Y2159541D01*
X197699Y2156152D01*
X199021Y2152960D01*
X200940Y2150088D01*
X203384Y2147645D01*
X206256Y2145725D01*
X209448Y2144403D01*
X212837Y2143729D01*
X213294D01*
Y2159998D01*
D02*
G37*
G36*
X216292Y2136809D02*
X215835D01*
Y2120539D01*
X232105D01*
Y2120996D01*
X231430Y2124385D01*
X230108Y2127577D01*
X228189Y2130450D01*
X225746Y2132893D01*
X222873Y2134812D01*
X219681Y2136135D01*
X216292Y2136809D01*
D02*
G37*
G36*
X213295D02*
X212837D01*
X209448Y2136135D01*
X206256Y2134812D01*
X203384Y2132893D01*
X200940Y2130450D01*
X199021Y2127577D01*
X197699Y2124385D01*
X197025Y2120996D01*
Y2120539D01*
X213295D01*
Y2136809D01*
D02*
G37*
G36*
X232105Y2117999D02*
X215835D01*
Y2101729D01*
X216292D01*
X219681Y2102403D01*
X222873Y2103725D01*
X225746Y2105645D01*
X228189Y2108088D01*
X230108Y2110960D01*
X231430Y2114153D01*
X232105Y2117541D01*
Y2117999D01*
D02*
G37*
G36*
X213295D02*
X197025D01*
Y2117541D01*
X197699Y2114153D01*
X199021Y2110960D01*
X200940Y2108088D01*
X203384Y2105645D01*
X206256Y2103725D01*
X209448Y2102403D01*
X212837Y2101729D01*
X213295D01*
Y2117999D01*
D02*
G37*
G36*
X216292Y2094809D02*
X215835D01*
Y2078539D01*
X232105D01*
Y2078996D01*
X231430Y2082385D01*
X230108Y2085577D01*
X228189Y2088450D01*
X225746Y2090893D01*
X222873Y2092812D01*
X219681Y2094135D01*
X216292Y2094809D01*
D02*
G37*
G36*
X213295D02*
X212837D01*
X209448Y2094135D01*
X206256Y2092812D01*
X203384Y2090893D01*
X200940Y2088450D01*
X199021Y2085577D01*
X197699Y2082385D01*
X197025Y2078996D01*
Y2078539D01*
X213295D01*
Y2094809D01*
D02*
G37*
G36*
X232105Y2075999D02*
X215835D01*
Y2059729D01*
X216292D01*
X219681Y2060403D01*
X222873Y2061725D01*
X225746Y2063645D01*
X228189Y2066088D01*
X230108Y2068960D01*
X231430Y2072153D01*
X232105Y2075541D01*
Y2075999D01*
D02*
G37*
G36*
X213295D02*
X197025D01*
Y2075541D01*
X197699Y2072153D01*
X199021Y2068960D01*
X200940Y2066088D01*
X203384Y2063645D01*
X206256Y2061725D01*
X209448Y2060403D01*
X212837Y2059729D01*
X213295D01*
Y2075999D01*
D02*
G37*
G36*
X423464Y1451046D02*
X422491Y1450643D01*
Y1450643D01*
X422454Y1450605D01*
X422454Y1450605D01*
X422394Y1450460D01*
X422134Y1449834D01*
X422051Y1449633D01*
X422454Y1448661D01*
X422655Y1448577D01*
X423426Y1448258D01*
X423476Y1448279D01*
X423484Y1448275D01*
X423627Y1448334D01*
X424255Y1448595D01*
X424456Y1448678D01*
X424859Y1449650D01*
X424776Y1449851D01*
X424456Y1450622D01*
X424436Y1450643D01*
X423665Y1450962D01*
X423476Y1451040D01*
X423471Y1451042D01*
X423464Y1451046D01*
D02*
G37*
G36*
X393662Y1451008D02*
X393659Y1451006D01*
X392690Y1450605D01*
X392652Y1450567D01*
X392652Y1450567D01*
X392591Y1450419D01*
X392249Y1449595D01*
X392652Y1448623D01*
X393624Y1448220D01*
X394596Y1448623D01*
X394596Y1448623D01*
X394634Y1448661D01*
X395035Y1449629D01*
X395037Y1449633D01*
X394634Y1450605D01*
X393662Y1451008D01*
D02*
G37*
G36*
X423484Y1433242D02*
X422512Y1432840D01*
X422110Y1431868D01*
X422512Y1430896D01*
X422533Y1430875D01*
X423304Y1430556D01*
X423505Y1430472D01*
X424477Y1430875D01*
X424880Y1431847D01*
X424797Y1432048D01*
X424477Y1432819D01*
X424456Y1432840D01*
X423484Y1433242D01*
D02*
G37*
G36*
X423505Y1376798D02*
X422533Y1376395D01*
X422532Y1376394D01*
X422130Y1375422D01*
X422532Y1374450D01*
X423504Y1374048D01*
X424476Y1374450D01*
X424477Y1374451D01*
X424880Y1375423D01*
X424477Y1376395D01*
X423505Y1376798D01*
D02*
G37*
G36*
X423504Y1360591D02*
X423503Y1360591D01*
X423503Y1360591D01*
X422530Y1360188D01*
X422128Y1359216D01*
X422530Y1358244D01*
X422531Y1358244D01*
X423503Y1357841D01*
X424475Y1358244D01*
X424476Y1358244D01*
X424879Y1359216D01*
X424476Y1360188D01*
X423504Y1360591D01*
D02*
G37*
%LPD*%
D10*
X844649Y1343984D02*
X849715Y1338918D01*
Y1338342D02*
Y1338918D01*
X864073Y1344560D02*
X866464Y1342169D01*
X939834Y1328820D02*
X939963Y1328691D01*
X939834Y1328820D02*
Y1328820D01*
X974094Y1354560D02*
X976122Y1352532D01*
X974084Y1354560D02*
X974094D01*
X874084Y1224560D02*
X874094D01*
X864353Y1214560D02*
X867102Y1211811D01*
X864084Y1214560D02*
X864353D01*
X874094Y1224560D02*
X874531Y1224123D01*
X924084Y1344560D02*
Y1344570D01*
X923063Y1345591D02*
X924084Y1344570D01*
X864094Y1294560D02*
X866805Y1291849D01*
X854094Y1284560D02*
X856805Y1281849D01*
X864084Y1314560D02*
X864094D01*
X867000Y1311654D01*
X884094Y1344560D02*
X884394Y1344260D01*
X836888Y1232276D02*
X837070D01*
X934094Y1334560D02*
X939834Y1328820D01*
X904094Y1304560D02*
X905523Y1303131D01*
X834604Y1234560D02*
X836888Y1232276D01*
X834073Y1234560D02*
X834604D01*
X844094Y1244560D02*
X845523Y1243131D01*
X854094Y1254560D02*
X855523Y1253131D01*
X894094Y1294560D02*
X895523Y1293131D01*
X934073Y1334560D02*
X934094D01*
X844073Y1244560D02*
X844094D01*
X854073Y1254560D02*
X854094D01*
X904084Y1304560D02*
X904094D01*
X894073Y1294560D02*
X894094D01*
X944094Y1304560D02*
X947041Y1301613D01*
X854073Y1214560D02*
X854185D01*
X864073Y1224560D02*
X864094D01*
X854185Y1214560D02*
X857086Y1211658D01*
X874073Y1234560D02*
X874094D01*
X964094Y1324560D02*
X967041Y1321613D01*
X884094Y1244560D02*
X887041Y1241613D01*
X864094Y1224560D02*
X867041Y1221613D01*
X874094Y1234560D02*
X877041Y1231613D01*
X944073Y1304560D02*
X944094D01*
X924073Y1274560D02*
X924094D01*
X964094Y1304560D02*
X965824Y1302830D01*
X964084Y1304560D02*
X964094D01*
X924094Y1274560D02*
X929391Y1269263D01*
X874073Y1214560D02*
X878472Y1210161D01*
X944094Y1284560D02*
X947081Y1281573D01*
X878472Y1210161D02*
X878493D01*
X988554Y1347663D02*
X991082Y1350192D01*
X844084Y1214560D02*
X844084D01*
X847445Y1211199D01*
X847713D01*
X991082Y1350192D02*
Y1352665D01*
X991992Y1353575D01*
X864084Y1234560D02*
X867703Y1230940D01*
X904073Y1274560D02*
X907693Y1270941D01*
X874084Y1244560D02*
X877703Y1240940D01*
X854084Y1224560D02*
X857703Y1220941D01*
X834094Y1244560D02*
X834460Y1244194D01*
X839439Y1249194D02*
X839460D01*
X844094Y1254560D02*
X844460Y1254194D01*
X834073Y1254560D02*
X839439Y1249194D01*
X814073Y1234560D02*
X818590Y1230043D01*
X820309D01*
X824094Y1234560D02*
X824460Y1234194D01*
X924073Y1304560D02*
X924094D01*
X894094Y1274560D02*
X895869Y1272785D01*
X924094Y1304560D02*
X925869Y1302785D01*
X884334Y1264560D02*
X885989Y1262905D01*
X854094Y1234560D02*
X855869Y1232785D01*
X934094Y1314560D02*
X935869Y1312785D01*
X894073Y1274560D02*
X894094D01*
X864094Y1244560D02*
X865869Y1242785D01*
X934084Y1314560D02*
X934094D01*
X854073Y1234560D02*
X854094D01*
X884073Y1264560D02*
X884334D01*
X874073Y1254560D02*
X878901Y1249732D01*
X878922D01*
X864073Y1244560D02*
X864094D01*
X964073Y1324560D02*
X964094D01*
X884073Y1244560D02*
X884094D01*
X824094D02*
X826547Y1242107D01*
X824073Y1244560D02*
X824094D01*
X854073Y1284560D02*
X854094D01*
X864073Y1294560D02*
X864094D01*
X824084Y1254560D02*
X827703Y1250941D01*
X844118Y1343984D02*
X844649D01*
X824094Y1314560D02*
X825014Y1313640D01*
X824084Y1314560D02*
X824094D01*
X834073Y1294560D02*
X834094D01*
X836545Y1292109D01*
X784724Y1243930D02*
X787718Y1240936D01*
X844094Y1314560D02*
X847250Y1311404D01*
X784073Y1244560D02*
X784703Y1243930D01*
X787718Y1240936D02*
X787917D01*
X784703Y1243930D02*
X784724D01*
X804448Y1272047D02*
X805554Y1270941D01*
X804073Y1274560D02*
X804448Y1274185D01*
X824094Y1284560D02*
X826544Y1282109D01*
X804448Y1272047D02*
Y1274185D01*
X884073Y1344560D02*
X884094D01*
X824084Y1284560D02*
X824094D01*
X814073Y1294560D02*
X817693Y1290941D01*
X817713D01*
X814073Y1294560D02*
X814073D01*
X763947Y1344560D02*
X764084D01*
X762360Y1342973D02*
X763947Y1344560D01*
X784604D02*
X787172Y1341992D01*
X787173D01*
X734094Y1284560D02*
X737713Y1280941D01*
X754094Y1304560D02*
X757713Y1300941D01*
X724084Y1354560D02*
X727703Y1350941D01*
X734073Y1324560D02*
X734084D01*
X736861Y1321783D01*
X747693Y1340941D02*
X747713D01*
X744073Y1344560D02*
X744073D01*
X747693Y1340941D01*
X754084Y1324560D02*
X757703Y1320941D01*
X754073Y1304560D02*
X754094D01*
X964073Y1224560D02*
X967805Y1220828D01*
X967826D01*
X964073Y1224560D02*
X964073D01*
X964094Y1204560D02*
X964339Y1204315D01*
X964073Y1204560D02*
X964094D01*
X944094Y1164560D02*
X945681Y1162973D01*
X944084Y1164560D02*
X944094D01*
X964084Y1184560D02*
Y1184560D01*
X969981Y1178662D02*
X969992D01*
X964084Y1184560D02*
X969981Y1178662D01*
X990834Y1202182D02*
X997823D01*
Y1203887D01*
Y1202182D02*
X1000948D01*
X1003817Y1198949D02*
X1003948Y1198818D01*
X1003817Y1198949D02*
Y1199313D01*
X914084Y1174560D02*
X917816Y1170828D01*
X917826D01*
X914084Y1174560D02*
X914084D01*
X924334Y1184560D02*
X927946Y1180948D01*
X924073Y1184560D02*
X924334D01*
X964094Y1164560D02*
X967713Y1160941D01*
X1000948Y1202182D02*
X1003817Y1199313D01*
X964073Y1164560D02*
X964094D01*
X809509Y1339124D02*
X809529D01*
X804073Y1344560D02*
X809509Y1339124D01*
X814094Y1134560D02*
X817713Y1130941D01*
X814073Y1134560D02*
X814094D01*
X944073Y1174560D02*
X947693Y1170941D01*
X944073Y1174560D02*
X944073D01*
X947693Y1170941D02*
X947713D01*
X764084Y1244560D02*
X767549Y1241094D01*
X767560D01*
X764084Y1244560D02*
X764084D01*
X964094D02*
X967713Y1240940D01*
X964073Y1244560D02*
X964094D01*
X734073D02*
X737693Y1240940D01*
X734073Y1244560D02*
X734073D01*
X737693Y1240940D02*
X737703D01*
X934094Y1254560D02*
X937713Y1250941D01*
X794084Y1274560D02*
X797549Y1271094D01*
X794084Y1274560D02*
X794084D01*
X797549Y1271094D02*
X797560D01*
X754073Y1224560D02*
X754073D01*
X757693Y1220941D02*
X757713D01*
X754073Y1224560D02*
X757693Y1220941D01*
X844334Y1264560D02*
X845410Y1263484D01*
X844084Y1254560D02*
X844094D01*
X844073Y1264560D02*
X844334D01*
X824084Y1234560D02*
X824094D01*
X904073Y1344560D02*
X907693Y1340941D01*
X884073Y1324560D02*
X884073D01*
X814084Y1254560D02*
X817703Y1250941D01*
X887693Y1320941D02*
X887713D01*
X824073Y1264560D02*
X827693Y1260941D01*
X884073Y1324560D02*
X887693Y1320941D01*
X924703Y1133930D02*
X924724D01*
X924073Y1134560D02*
X924703Y1133930D01*
X924724D02*
X928971Y1129683D01*
X884094Y1164560D02*
X887713Y1160941D01*
X874094Y1154560D02*
X877713Y1150941D01*
X944094Y1224560D02*
X947713Y1220941D01*
X924084Y1204560D02*
X927703Y1200940D01*
X1282623Y1562749D02*
X1287909D01*
X1365004Y1801101D02*
Y1805284D01*
X1364894Y1805394D02*
X1365004Y1805284D01*
X1364894Y1814234D02*
X1367504Y1811624D01*
X1364894Y1814234D02*
Y1814371D01*
X1367504Y1809872D02*
Y1811624D01*
X1347144Y1818640D02*
Y1823931D01*
X1282483Y1562888D02*
X1282623Y1562749D01*
X754073Y1174560D02*
X754714Y1173920D01*
X894248Y1194560D02*
X896664Y1192144D01*
X894073Y1194560D02*
X894248D01*
X964094Y1264560D02*
X966587Y1262067D01*
X754714Y1173920D02*
X757667Y1170966D01*
X754714Y1173920D02*
X754714D01*
X757667Y1170966D02*
X757713D01*
X964084Y1264560D02*
X964094D01*
X944073Y1224560D02*
X944094D01*
X804073Y1184533D02*
X807867Y1180740D01*
X804073Y1184533D02*
Y1184560D01*
X944073Y1284560D02*
X944094D01*
X987962Y1343759D02*
X988554Y1344351D01*
Y1347663D01*
X847537Y1221096D02*
X847557D01*
X844073Y1224560D02*
X847537Y1221096D01*
X844073Y1224560D02*
X844073D01*
X804094D02*
X807464Y1221190D01*
X804073Y1224560D02*
X804094D01*
X834084D02*
X837703Y1220941D01*
X854084Y1244560D02*
X857703Y1240940D01*
X837434Y1211199D02*
X837713D01*
X834073Y1214560D02*
X834073D01*
X837434Y1211199D01*
X834084Y1244560D02*
X834094D01*
X844073Y1314560D02*
X844094D01*
X861795Y1087890D02*
X863257Y1089353D01*
X856649Y1087890D02*
X861795D01*
X842613D02*
X847759D01*
X841150Y1089353D02*
X842613Y1087890D01*
X1069390Y869113D02*
X1074764D01*
X1074994Y869343D01*
X1076684D02*
X1078172Y870831D01*
Y877395D01*
X1074994Y869343D02*
X1076684D01*
X1069478Y879025D02*
X1076542D01*
X1069390Y879113D02*
X1069478Y879025D01*
X1076542D02*
X1078172Y877395D01*
X678808Y239071D02*
X683711D01*
X671778D02*
X678808D01*
X614410Y175534D02*
Y186939D01*
X664410Y276439D02*
Y285114D01*
X683711Y239071D02*
X683760Y239022D01*
X671660Y239189D02*
X671778Y239071D01*
X671660Y244189D02*
X687483D01*
X692650Y239022D01*
X671660Y194189D02*
X680001D01*
X1038114Y1029514D02*
X1048228D01*
X764084Y1204560D02*
Y1204560D01*
X706654Y1114141D02*
Y1124255D01*
X884073Y1204560D02*
X887693Y1200940D01*
X874073Y1194560D02*
X877693Y1190940D01*
X704593Y1202227D02*
X707582Y1199238D01*
X328420Y220732D02*
X330880D01*
X324299Y216611D02*
X328420Y220732D01*
X317880Y257971D02*
X321839Y261930D01*
Y261930D01*
X317880Y248732D02*
Y257971D01*
X300006Y241732D02*
X313340D01*
X317880Y246272D01*
Y248732D01*
X296202Y237927D02*
X300006Y241732D01*
X296202Y234594D02*
Y237927D01*
X292340Y230732D02*
X296202Y234594D01*
X289880Y230732D02*
X292340D01*
X229681Y653335D02*
X241078Y641939D01*
Y633369D02*
Y641939D01*
X974073Y1104560D02*
X977693Y1100940D01*
X894073Y1114560D02*
X897693Y1110941D01*
X874073Y1124560D02*
X877693Y1120941D01*
X877713D01*
X874073Y1124560D02*
X874073D01*
X774073Y1114560D02*
X777693Y1110941D01*
X703785Y1111272D02*
X706654Y1114141D01*
X764073Y1254560D02*
X767693Y1250941D01*
X764073Y1254560D02*
X764073D01*
X767693Y1250941D02*
X767713D01*
X1048228Y1039014D02*
X1051097Y1036145D01*
X1038114Y1039014D02*
X1048228D01*
Y1029514D02*
X1051097Y1026645D01*
X1037328Y1028728D02*
X1038114Y1029514D01*
X280579Y2267138D02*
Y2278211D01*
X233237Y2262156D02*
Y2262656D01*
Y2251840D02*
Y2262156D01*
Y2251840D02*
X242736Y2242341D01*
Y2241340D02*
Y2242341D01*
X216830Y2258786D02*
X229867D01*
X233237Y2262156D01*
X512839Y2129192D02*
X523135D01*
X513269Y2129621D02*
Y2159391D01*
X1201991Y2079373D02*
X1227391Y2104773D01*
X1360741D01*
X824073Y1224560D02*
X827693Y1220941D01*
X844084Y1234560D02*
X847703Y1230940D01*
X864084Y1254560D02*
X867703Y1250941D01*
X824084Y1214560D02*
X827445Y1211199D01*
X827713D01*
X824084Y1214560D02*
X824084D01*
X767604Y1200940D02*
Y1201039D01*
X764084Y1204560D02*
X767604Y1201039D01*
X844094Y1204560D02*
X846456Y1202198D01*
X844073Y1204560D02*
X844094D01*
X774094Y1194560D02*
X777713Y1190941D01*
X774073Y1194560D02*
X774094D01*
X857693Y1190941D02*
X857713D01*
X854073Y1194560D02*
X854073D01*
X857693Y1190941D01*
X864073Y1204560D02*
X867693Y1200940D01*
X784073Y1204560D02*
X787693Y1200940D01*
X824084Y1194560D02*
X827703Y1190940D01*
X817632Y1190859D02*
Y1191001D01*
X784073Y1204560D02*
X784073D01*
X814073Y1194560D02*
X817632Y1191001D01*
X787693Y1200940D02*
X787713D01*
X814073Y1194560D02*
Y1194560D01*
X794084Y1214560D02*
X797703Y1210941D01*
X834084Y1204560D02*
X837703Y1200940D01*
X824073Y1204560D02*
X827693Y1200940D01*
X854084Y1204560D02*
X857703Y1200940D01*
X774604Y1174560D02*
X777347Y1171816D01*
X777713D01*
X774073Y1174560D02*
X774604D01*
X874084Y1264560D02*
X877703Y1260941D01*
X824094Y1344560D02*
X827713Y1340941D01*
X824073Y1344560D02*
X824094D01*
X259826Y1207134D02*
X259827Y1207135D01*
Y1237298D01*
X418532Y1103269D02*
X441236D01*
X418531Y1128669D02*
X451259D01*
X441236Y1103269D02*
X454571Y1116604D01*
X451259Y1128669D02*
X454434Y1125494D01*
X454571D01*
X673358Y1522040D02*
Y1526563D01*
X914073Y1244560D02*
X914073D01*
X917693Y1240940D01*
X917713D01*
X944073Y1144560D02*
X944094D01*
X947713Y1140940D01*
X964073Y1124560D02*
X967693Y1120941D01*
X967713D01*
X964073Y1124560D02*
X964073D01*
X934094Y1244560D02*
X937713Y1240940D01*
X934073Y1244560D02*
X934094D01*
X964073Y1284560D02*
X964084D01*
X967703Y1280941D01*
X944334Y1264560D02*
X947867Y1261027D01*
X944073Y1264560D02*
X944334D01*
X734073Y1284560D02*
X734094D01*
X774094Y1274560D02*
X777713Y1270941D01*
X774073Y1274560D02*
X774094D01*
X754073Y1264560D02*
X754334D01*
X757867Y1261027D01*
X734604Y1204560D02*
X737592Y1201571D01*
X737703D01*
X734073Y1204560D02*
X734604D01*
X734073Y1164560D02*
X734073D01*
X737693Y1160941D01*
X737703D01*
X774073Y1134560D02*
X774094D01*
X777713Y1130941D01*
X734073Y1124560D02*
X737693Y1120941D01*
X737703D01*
X734073Y1124560D02*
X734073D01*
X914084Y1114560D02*
X917703Y1110941D01*
X914073Y1114560D02*
X914084D01*
X934084Y1104560D02*
X937703Y1100940D01*
X934073Y1104560D02*
X934084D01*
X924094Y1154560D02*
X927713Y1150941D01*
X924073Y1154560D02*
X924094D01*
X907693Y1160941D02*
X907713D01*
X904073Y1164560D02*
X904073D01*
X907693Y1160941D01*
X884073Y1164560D02*
X884094D01*
X874073Y1154560D02*
X874094D01*
X834073Y1164560D02*
X834094D01*
X837713Y1160941D01*
X854073Y1144560D02*
X854094D01*
X857713Y1140941D01*
X897693Y1130941D02*
X897713D01*
X894073Y1134560D02*
X894073D01*
X897693Y1130941D01*
X874073Y1114436D02*
X877569Y1110941D01*
X874073Y1114436D02*
Y1114560D01*
X834073D02*
X837693Y1110941D01*
X794073Y1114560D02*
X794084D01*
X797703Y1110941D01*
X814073Y1154560D02*
X814094D01*
X817713Y1150941D01*
X774094Y1154560D02*
X777713Y1150941D01*
X774073Y1154560D02*
X774094D01*
X934073Y1254560D02*
X934094D01*
X774094Y1304560D02*
X777713Y1300941D01*
X774073Y1304560D02*
X774094D01*
X804073Y1324560D02*
X804094D01*
X807713Y1320941D01*
X784073Y1344560D02*
X784604D01*
X874073Y1204560D02*
X877693Y1200940D01*
X904084Y1224560D02*
X907703Y1220941D01*
X784084Y1314560D02*
X787703Y1310941D01*
X754084Y1284560D02*
X757703Y1280941D01*
X864084Y1174560D02*
X867703Y1170941D01*
X824084Y1164560D02*
X827703Y1160941D01*
X784084Y1164560D02*
X787703Y1160941D01*
X754084Y1164560D02*
X757703Y1160941D01*
X794084Y1134560D02*
X797703Y1130941D01*
X834084Y1144560D02*
X837703Y1140940D01*
X874084Y1144560D02*
X877703Y1140940D01*
X914084Y1144560D02*
X917703Y1140940D01*
X734084Y1304560D02*
X737703Y1300941D01*
X734084Y1264560D02*
X737703Y1260941D01*
X734084Y1224560D02*
X737703Y1220941D01*
X734084Y1184560D02*
X737703Y1180940D01*
X734084Y1144560D02*
X737703Y1140940D01*
X724084Y1104560D02*
X727703Y1100940D01*
X814084Y1114560D02*
X817703Y1110941D01*
X854084Y1114560D02*
X857703Y1110941D01*
X934084Y1114560D02*
X937703Y1110941D01*
X964084Y1144560D02*
X967703Y1140940D01*
D11*
X892984Y1390813D02*
X893839Y1389957D01*
Y1385085D02*
Y1389957D01*
X892984Y1390813D02*
Y1395332D01*
X892548Y1381536D02*
Y1386421D01*
Y1381536D02*
X893839Y1380245D01*
X911816Y1371208D02*
Y1375970D01*
Y1371208D02*
X912292Y1370732D01*
X912228Y1375970D02*
Y1380204D01*
X893839Y1395332D02*
Y1399312D01*
Y1404036D02*
Y1408512D01*
Y1399312D02*
Y1404036D01*
X826765Y1911412D02*
Y1922146D01*
X718220Y1852569D02*
Y1859218D01*
X697665Y1852569D02*
Y1859218D01*
X655950Y1883049D02*
X662366Y1889465D01*
X709330Y1852569D02*
Y1859467D01*
X688775Y1852569D02*
Y1859218D01*
X766606Y1886859D02*
X770250Y1883215D01*
Y1877494D02*
Y1883215D01*
X920825Y1770019D02*
X939050D01*
X1034409Y1735094D02*
X1034411Y1735093D01*
X1034409Y1735094D02*
Y1744619D01*
X1010550D02*
X1034409D01*
X532596Y937895D02*
X544586Y925905D01*
X494974Y937895D02*
X507040D01*
X482274D02*
X494974D01*
X507040D02*
X532596D01*
X399831Y1738143D02*
X399831Y1738142D01*
X399830Y1758529D02*
X399831Y1758528D01*
Y1738143D02*
Y1758528D01*
X315330Y1738142D02*
Y1758529D01*
X596117Y929718D02*
X602652D01*
X606315Y933382D01*
X556073Y933390D02*
Y938140D01*
X559825Y929638D02*
X566156D01*
X556073Y933390D02*
X559825Y929638D01*
X601215Y838835D02*
X605633Y834417D01*
X596156Y838835D02*
X601215D01*
X710248Y1087147D02*
X717552D01*
X709869Y1086768D02*
X710248Y1087147D01*
X893682Y1408668D02*
X893839Y1408512D01*
D17*
X252502Y826442D02*
X252915D01*
D24*
X758220Y1882494D02*
Y1894179D01*
X743220Y1882414D02*
Y1894179D01*
X728220D02*
X728280Y1894119D01*
Y1882474D02*
Y1894119D01*
Y1882474D02*
X728340Y1882414D01*
X703220D02*
Y1894179D01*
X688220Y1882414D02*
Y1894179D01*
X618921Y1945240D02*
X621755Y1942406D01*
X618921Y1945240D02*
Y1953049D01*
X664840Y1941429D02*
X675970D01*
X664920Y1926429D02*
X675970D01*
X640605Y2001834D02*
X646480D01*
X603720Y2004334D02*
X609595D01*
X892845Y1922086D02*
Y1942326D01*
X892805Y1922046D02*
X892845Y1922086D01*
X371978Y2515077D02*
X380372Y2506683D01*
X371978Y2521524D02*
X381455Y2531000D01*
X371978Y2515077D02*
Y2521524D01*
X389265Y2481090D02*
X390155Y2480200D01*
X374627Y2484891D02*
X378428Y2481090D01*
X374627Y2488048D02*
X378590Y2492010D01*
X380565D01*
X378428Y2481090D02*
X389265D01*
X381455Y2492900D02*
X390155D01*
X374627Y2484891D02*
Y2488048D01*
X380565Y2492010D02*
X381455Y2492900D01*
Y2505600D02*
X390155D01*
X374627Y2497782D02*
Y2500938D01*
Y2497782D02*
X380482Y2491927D01*
X374627Y2500938D02*
X380372Y2506683D01*
X381455Y2531000D02*
X390155D01*
X1384004Y1777371D02*
X1394005D01*
X538116Y901405D02*
X542561Y896960D01*
X546227Y856455D02*
X553401D01*
X543859Y854088D02*
X546227Y856455D01*
X553401D02*
X553906Y856960D01*
X541021Y871960D02*
X553906D01*
X538076Y869015D02*
X541021Y871960D01*
X542561Y896960D02*
X553906D01*
X596156Y838835D02*
Y849710D01*
X673233Y302568D02*
X673266Y302535D01*
Y293042D02*
Y302535D01*
Y293042D02*
X673300Y293009D01*
X500943Y2178674D02*
Y2178674D01*
Y2162598D02*
Y2178674D01*
X502360Y2161182D02*
X503109Y2160432D01*
X500943Y2162598D02*
X502360Y2161182D01*
X466182Y2423160D02*
X530860D01*
X425430Y2387409D02*
X430430D01*
X466182Y2423160D01*
X281214Y2287736D02*
Y2292424D01*
X283446Y2294656D01*
X277990Y2300953D02*
X281214Y2297730D01*
Y2292424D02*
Y2297730D01*
X216195Y2239267D02*
Y2244572D01*
Y2239267D02*
X219419Y2236043D01*
X213964Y2242341D02*
X216195Y2244572D01*
X212597Y2242341D02*
X213964D01*
X216195Y2244572D02*
Y2249261D01*
X216830Y2249896D01*
X496186Y2183432D02*
X500943Y2178674D01*
X479250Y2177800D02*
X484882Y2183432D01*
X496186D01*
X479250Y2163472D02*
Y2177800D01*
X476960Y2161182D02*
X479250Y2163472D01*
X503744Y2128987D02*
X512865Y2119866D01*
X503109Y2129621D02*
X503744Y2128987D01*
X512865Y2119866D02*
X519327D01*
X532865Y2133045D02*
X540460Y2140639D01*
Y2161182D01*
X532230Y2129397D02*
X532865Y2130032D01*
Y2133045D01*
X512839Y2129192D02*
X513269Y2129621D01*
X512634Y2128987D02*
X512839Y2129192D01*
X523135D02*
X523340Y2129397D01*
X513269Y2159391D02*
X515060Y2161182D01*
X503109Y2129621D02*
Y2160432D01*
X808893Y2221040D02*
X809065Y2220869D01*
X763980Y2331083D02*
X767028D01*
X1201991Y2129091D02*
Y2130173D01*
X1191260Y2118360D02*
X1201991Y2129091D01*
X1160078Y2049583D02*
X1177452D01*
X1201991Y2025045D01*
Y2003173D02*
Y2025045D01*
X831489Y2322469D02*
X967815D01*
X809065Y2300045D02*
X831489Y2322469D01*
X679708Y1602763D02*
X705108Y1628163D01*
X546358Y1602763D02*
X679708D01*
X792390Y788041D02*
X817790Y762641D01*
X792390Y788041D02*
Y921391D01*
D25*
X143785Y2356289D02*
X154080D01*
X143785Y2346789D02*
X154080D01*
X341330Y1814529D02*
Y1826741D01*
Y1833599D01*
X323931Y1933084D02*
X331600D01*
X351815Y1881589D02*
X360012D01*
X544586Y925905D02*
X553906Y916585D01*
Y911960D02*
Y916585D01*
X354330Y1745475D02*
Y1758529D01*
X360830D02*
X360854Y1758505D01*
Y1738094D02*
Y1758505D01*
Y1738094D02*
X363346Y1735602D01*
X347806Y1737872D02*
Y1758505D01*
X347830Y1758529D01*
X345536Y1735602D02*
X347806Y1737872D01*
X596137Y919230D02*
Y929698D01*
Y919230D02*
X596156Y919210D01*
X596117Y929718D02*
X596137Y929698D01*
X566156Y919210D02*
Y929638D01*
X643650Y1492331D02*
X673358Y1522040D01*
X511354Y1492331D02*
X643650D01*
X484510Y1465487D02*
X511354Y1492331D01*
X484510Y1423259D02*
Y1465487D01*
D26*
X911935Y1770019D02*
Y1777724D01*
X923262Y1744619D02*
X939050D01*
X1043299D02*
Y1753507D01*
X1015625Y1757494D02*
Y1766227D01*
X1019417Y1770019D01*
X1015450Y1757319D02*
X1015625Y1757494D01*
X1010550Y1757319D02*
X1015450D01*
X664410Y285114D02*
Y293009D01*
Y302501D01*
X664343Y302568D02*
X664410Y302501D01*
D33*
X799747Y1070976D02*
D03*
X782729D02*
D03*
X906371Y1447756D02*
D03*
X889353D02*
D03*
X906824Y1425095D02*
D03*
X889806D02*
D03*
X907197Y1072439D02*
D03*
X890179D02*
D03*
X666164Y1251267D02*
D03*
X683182D02*
D03*
X841861Y1387173D02*
D03*
X824843D02*
D03*
D35*
X843190Y921391D02*
D03*
X792390D02*
D03*
X716190D02*
D03*
X843190Y762641D02*
D03*
X792390D02*
D03*
X817790D02*
D03*
X741590D02*
D03*
X766990D02*
D03*
X716190Y794391D02*
D03*
Y762641D02*
D03*
X967815Y2220869D02*
D03*
X936065D02*
D03*
X967815Y2271669D02*
D03*
Y2246269D02*
D03*
Y2322469D02*
D03*
Y2297069D02*
D03*
Y2347869D02*
D03*
X809065Y2220869D02*
D03*
Y2297069D02*
D03*
Y2347869D02*
D03*
X1201991Y2130173D02*
D03*
Y2079373D02*
D03*
Y2003173D02*
D03*
X1360741Y2130173D02*
D03*
Y2079373D02*
D03*
Y2104773D02*
D03*
Y2028573D02*
D03*
Y2053973D02*
D03*
X1328990Y2003173D02*
D03*
X1360741D02*
D03*
X259826Y1207134D02*
D03*
Y1156334D02*
D03*
Y1080134D02*
D03*
X418576Y1207134D02*
D03*
Y1156334D02*
D03*
Y1181734D02*
D03*
Y1105534D02*
D03*
Y1130934D02*
D03*
X386826Y1080134D02*
D03*
X418576D02*
D03*
X705108Y1526563D02*
D03*
X673358D02*
D03*
X705108Y1577363D02*
D03*
Y1551963D02*
D03*
Y1628163D02*
D03*
Y1602763D02*
D03*
Y1653563D02*
D03*
X546358Y1526563D02*
D03*
Y1602763D02*
D03*
Y1653563D02*
D03*
X485850Y387497D02*
D03*
X295350D02*
D03*
Y419247D02*
D03*
X485850Y482747D02*
D03*
X295350D02*
D03*
D36*
X1085134Y1976953D02*
D03*
Y2060953D02*
D03*
X1073154Y2220867D02*
D03*
Y2304867D02*
D03*
X690676Y2271488D02*
D03*
Y2187488D02*
D03*
X970370Y883461D02*
D03*
Y799461D02*
D03*
X825846Y1534003D02*
D03*
Y1618003D02*
D03*
X540931Y1057549D02*
D03*
Y1141549D02*
D03*
X148297Y1165679D02*
D03*
Y1081679D02*
D03*
X154600Y422369D02*
D03*
Y506369D02*
D03*
D37*
X308295Y799686D02*
D03*
Y808576D02*
D03*
X758220Y1882494D02*
D03*
Y1873604D02*
D03*
X688220Y1882414D02*
D03*
Y1873524D02*
D03*
X728340Y1882414D02*
D03*
Y1873524D02*
D03*
X743220Y1882414D02*
D03*
Y1873524D02*
D03*
X703220Y1882414D02*
D03*
Y1873524D02*
D03*
X655950Y1883049D02*
D03*
Y1874159D02*
D03*
X629586Y2003699D02*
D03*
Y1994809D02*
D03*
X807633Y1911492D02*
D03*
Y1902602D02*
D03*
X797393Y1911412D02*
D03*
Y1902522D02*
D03*
X777126Y1983679D02*
D03*
Y1992569D02*
D03*
X745680Y1827175D02*
D03*
Y1836065D02*
D03*
X1000899Y2266109D02*
D03*
Y2257219D02*
D03*
X1128124Y857852D02*
D03*
Y866742D02*
D03*
X1128064Y884827D02*
D03*
Y875937D02*
D03*
X1137821Y866633D02*
D03*
Y857743D02*
D03*
X987962Y1343759D02*
D03*
Y1334870D02*
D03*
X706731Y1151615D02*
D03*
Y1142725D02*
D03*
X706654Y1124255D02*
D03*
Y1133145D02*
D03*
X990834Y1193292D02*
D03*
Y1202182D02*
D03*
Y1146751D02*
D03*
Y1137861D02*
D03*
Y1119372D02*
D03*
Y1128262D02*
D03*
X990834Y1264957D02*
D03*
Y1256067D02*
D03*
X987996Y1316226D02*
D03*
Y1325116D02*
D03*
X707582Y1190348D02*
D03*
Y1199238D02*
D03*
X697869Y1246322D02*
D03*
Y1255212D02*
D03*
X707534Y1245670D02*
D03*
Y1254560D02*
D03*
X703754Y1314955D02*
D03*
Y1323845D02*
D03*
X703724Y1341992D02*
D03*
Y1333102D02*
D03*
X740255Y1587587D02*
D03*
Y1578697D02*
D03*
X561755Y2183678D02*
D03*
Y2174788D02*
D03*
X1282483Y1562888D02*
D03*
Y1571778D02*
D03*
X1395404Y1760431D02*
D03*
Y1769321D02*
D03*
X1393907Y2043954D02*
D03*
Y2035064D02*
D03*
X280579Y2287101D02*
D03*
Y2278211D02*
D03*
X216830Y2258786D02*
D03*
Y2249896D02*
D03*
X470640Y2565122D02*
D03*
Y2574012D02*
D03*
X480338Y2565281D02*
D03*
Y2574171D02*
D03*
X489660Y2565224D02*
D03*
Y2574114D02*
D03*
X410950Y2529551D02*
D03*
Y2520661D02*
D03*
X420946Y2529550D02*
D03*
Y2520660D02*
D03*
X458989Y2382329D02*
D03*
Y2373439D02*
D03*
X276220Y2482104D02*
D03*
Y2490995D02*
D03*
X276260Y2529550D02*
D03*
Y2520660D02*
D03*
X530240Y1347198D02*
D03*
Y1338308D02*
D03*
X540609Y1347196D02*
D03*
Y1338306D02*
D03*
X550560Y1347198D02*
D03*
Y1338308D02*
D03*
X560720Y1347198D02*
D03*
Y1338308D02*
D03*
X512262Y1437802D02*
D03*
Y1446692D02*
D03*
X497216Y1433357D02*
D03*
Y1442247D02*
D03*
X522259Y1437800D02*
D03*
Y1446690D02*
D03*
X515010Y1359296D02*
D03*
Y1350406D02*
D03*
X495410Y1359296D02*
D03*
Y1350406D02*
D03*
X505100D02*
D03*
Y1359296D02*
D03*
X469086Y1336991D02*
D03*
Y1328101D02*
D03*
X331780Y1898479D02*
D03*
Y1889589D02*
D03*
X416423Y1906617D02*
D03*
Y1897726D02*
D03*
X399830Y1839789D02*
D03*
Y1830899D02*
D03*
X315330Y1839787D02*
D03*
Y1830897D02*
D03*
X423464Y1458561D02*
D03*
Y1449671D02*
D03*
X423505Y1422957D02*
D03*
Y1431847D02*
D03*
X423503Y1350326D02*
D03*
Y1359216D02*
D03*
X423505Y1384313D02*
D03*
Y1375423D02*
D03*
X454571Y1125494D02*
D03*
Y1116604D02*
D03*
X514645Y386653D02*
D03*
Y377763D02*
D03*
X209489Y676962D02*
D03*
Y668072D02*
D03*
X241078Y633369D02*
D03*
Y624479D02*
D03*
X231637Y624610D02*
D03*
Y633500D02*
D03*
X522262Y228634D02*
D03*
Y219744D02*
D03*
X488086Y116479D02*
D03*
Y125369D02*
D03*
X683811Y175587D02*
D03*
Y184477D02*
D03*
X614410Y166644D02*
D03*
Y175534D02*
D03*
X211565Y275359D02*
D03*
Y266469D02*
D03*
X212239Y180534D02*
D03*
Y171644D02*
D03*
X485627Y272318D02*
D03*
Y281208D02*
D03*
X304880Y185592D02*
D03*
Y194482D02*
D03*
X302799Y261785D02*
D03*
Y270675D02*
D03*
X292880Y273872D02*
D03*
Y282762D02*
D03*
X273908Y250622D02*
D03*
Y241732D02*
D03*
X276860Y176801D02*
D03*
Y185691D02*
D03*
X283418Y273969D02*
D03*
Y282859D02*
D03*
X334831Y172892D02*
D03*
Y181782D02*
D03*
X315180Y185592D02*
D03*
Y194482D02*
D03*
X325620Y172892D02*
D03*
Y181782D02*
D03*
X312283Y261803D02*
D03*
Y270693D02*
D03*
X577905Y781978D02*
D03*
Y773088D02*
D03*
X588101Y781978D02*
D03*
Y773088D02*
D03*
X479424Y824476D02*
D03*
Y833366D02*
D03*
X421887Y710591D02*
D03*
Y719481D02*
D03*
X425697Y980112D02*
D03*
Y971222D02*
D03*
Y874914D02*
D03*
Y883804D02*
D03*
X252502Y817552D02*
D03*
Y826442D02*
D03*
X275445Y897809D02*
D03*
Y888919D02*
D03*
X256312Y897738D02*
D03*
Y888848D02*
D03*
X246284Y897738D02*
D03*
Y888848D02*
D03*
X266131Y897764D02*
D03*
Y888874D02*
D03*
X297876Y808499D02*
D03*
Y799609D02*
D03*
X286855Y808496D02*
D03*
Y799606D02*
D03*
X482274Y937895D02*
D03*
Y929005D02*
D03*
X507040Y937895D02*
D03*
Y929005D02*
D03*
X494974Y937895D02*
D03*
Y929005D02*
D03*
X544586Y925905D02*
D03*
Y917015D02*
D03*
X538116Y901405D02*
D03*
Y892515D02*
D03*
X538076Y869015D02*
D03*
Y877905D02*
D03*
X560352Y838755D02*
D03*
Y829865D02*
D03*
X543859Y854088D02*
D03*
Y845198D02*
D03*
X606315Y933382D02*
D03*
Y942272D02*
D03*
X556073Y938140D02*
D03*
Y947030D02*
D03*
X605633Y834417D02*
D03*
Y825527D02*
D03*
X566156Y929638D02*
D03*
Y938528D02*
D03*
X596117Y929718D02*
D03*
Y938608D02*
D03*
X596156Y838835D02*
D03*
Y829945D02*
D03*
X534266Y828205D02*
D03*
Y819315D02*
D03*
X544187Y828285D02*
D03*
Y819395D02*
D03*
X569062Y838835D02*
D03*
Y829945D02*
D03*
X421887Y813742D02*
D03*
Y804852D02*
D03*
X203867Y1459943D02*
D03*
Y1468833D02*
D03*
X751280Y2459629D02*
D03*
Y2468519D02*
D03*
X698980Y479689D02*
D03*
Y470799D02*
D03*
X836140Y482864D02*
D03*
Y473974D02*
D03*
X1008860Y473984D02*
D03*
Y482874D02*
D03*
D38*
X974073Y1104560D02*
D03*
Y1114560D02*
D03*
Y1124560D02*
D03*
Y1134560D02*
D03*
Y1144560D02*
D03*
Y1154560D02*
D03*
Y1164560D02*
D03*
Y1174560D02*
D03*
Y1184560D02*
D03*
Y1194560D02*
D03*
Y1204560D02*
D03*
Y1214560D02*
D03*
Y1224560D02*
D03*
Y1234560D02*
D03*
Y1244560D02*
D03*
Y1254560D02*
D03*
Y1264560D02*
D03*
Y1274560D02*
D03*
Y1284560D02*
D03*
Y1294560D02*
D03*
Y1304560D02*
D03*
Y1314560D02*
D03*
Y1324560D02*
D03*
Y1334560D02*
D03*
Y1344560D02*
D03*
Y1354560D02*
D03*
X964073Y1104560D02*
D03*
Y1114560D02*
D03*
Y1124560D02*
D03*
Y1134560D02*
D03*
Y1144560D02*
D03*
Y1154560D02*
D03*
Y1164560D02*
D03*
Y1174560D02*
D03*
Y1184560D02*
D03*
Y1194560D02*
D03*
Y1204560D02*
D03*
Y1214560D02*
D03*
Y1224560D02*
D03*
Y1234560D02*
D03*
Y1244560D02*
D03*
Y1254560D02*
D03*
Y1264560D02*
D03*
Y1274560D02*
D03*
Y1284560D02*
D03*
Y1294560D02*
D03*
Y1304560D02*
D03*
Y1314560D02*
D03*
Y1324560D02*
D03*
Y1334560D02*
D03*
Y1344560D02*
D03*
Y1354560D02*
D03*
X954073Y1104560D02*
D03*
Y1114560D02*
D03*
Y1124560D02*
D03*
Y1134560D02*
D03*
Y1144560D02*
D03*
Y1154560D02*
D03*
Y1164560D02*
D03*
Y1174560D02*
D03*
Y1184560D02*
D03*
Y1194560D02*
D03*
Y1204560D02*
D03*
Y1214560D02*
D03*
Y1224560D02*
D03*
Y1234560D02*
D03*
Y1244560D02*
D03*
Y1254560D02*
D03*
Y1264560D02*
D03*
Y1274560D02*
D03*
Y1284560D02*
D03*
Y1294560D02*
D03*
Y1304560D02*
D03*
Y1314560D02*
D03*
Y1324560D02*
D03*
Y1334560D02*
D03*
Y1344560D02*
D03*
Y1354560D02*
D03*
X944073Y1104560D02*
D03*
Y1114560D02*
D03*
Y1124560D02*
D03*
Y1134560D02*
D03*
Y1144560D02*
D03*
Y1154560D02*
D03*
Y1164560D02*
D03*
Y1174560D02*
D03*
Y1184560D02*
D03*
Y1194560D02*
D03*
Y1204560D02*
D03*
Y1214560D02*
D03*
Y1224560D02*
D03*
Y1234560D02*
D03*
Y1244560D02*
D03*
Y1254560D02*
D03*
Y1264560D02*
D03*
Y1274560D02*
D03*
Y1284560D02*
D03*
Y1294560D02*
D03*
Y1304560D02*
D03*
Y1314560D02*
D03*
Y1324560D02*
D03*
Y1334560D02*
D03*
Y1344560D02*
D03*
Y1354560D02*
D03*
X934073Y1104560D02*
D03*
Y1114560D02*
D03*
Y1124560D02*
D03*
Y1134560D02*
D03*
Y1144560D02*
D03*
Y1154560D02*
D03*
Y1164560D02*
D03*
Y1174560D02*
D03*
Y1184560D02*
D03*
Y1194560D02*
D03*
Y1204560D02*
D03*
Y1214560D02*
D03*
Y1224560D02*
D03*
Y1234560D02*
D03*
Y1244560D02*
D03*
Y1254560D02*
D03*
Y1264560D02*
D03*
Y1274560D02*
D03*
Y1284560D02*
D03*
Y1294560D02*
D03*
Y1304560D02*
D03*
Y1314560D02*
D03*
Y1324560D02*
D03*
Y1334560D02*
D03*
Y1344560D02*
D03*
Y1354560D02*
D03*
X924073Y1104560D02*
D03*
Y1114560D02*
D03*
Y1124560D02*
D03*
Y1134560D02*
D03*
Y1144560D02*
D03*
Y1154560D02*
D03*
Y1164560D02*
D03*
Y1174560D02*
D03*
Y1184560D02*
D03*
Y1194560D02*
D03*
Y1204560D02*
D03*
Y1214560D02*
D03*
Y1224560D02*
D03*
Y1234560D02*
D03*
Y1244560D02*
D03*
Y1254560D02*
D03*
Y1264560D02*
D03*
Y1274560D02*
D03*
Y1284560D02*
D03*
Y1294560D02*
D03*
Y1304560D02*
D03*
Y1314560D02*
D03*
Y1324560D02*
D03*
Y1334560D02*
D03*
Y1344560D02*
D03*
Y1354560D02*
D03*
X914073Y1104560D02*
D03*
Y1114560D02*
D03*
Y1124560D02*
D03*
Y1134560D02*
D03*
Y1144560D02*
D03*
Y1154560D02*
D03*
Y1164560D02*
D03*
Y1174560D02*
D03*
Y1184560D02*
D03*
Y1194560D02*
D03*
Y1204560D02*
D03*
Y1214560D02*
D03*
Y1224560D02*
D03*
Y1234560D02*
D03*
Y1244560D02*
D03*
Y1254560D02*
D03*
Y1264560D02*
D03*
Y1274560D02*
D03*
Y1284560D02*
D03*
Y1294560D02*
D03*
Y1304560D02*
D03*
Y1314560D02*
D03*
Y1324560D02*
D03*
Y1334560D02*
D03*
Y1344560D02*
D03*
Y1354560D02*
D03*
X904073Y1104560D02*
D03*
Y1114560D02*
D03*
Y1124560D02*
D03*
Y1134560D02*
D03*
Y1144560D02*
D03*
Y1154560D02*
D03*
Y1164560D02*
D03*
Y1174560D02*
D03*
Y1184560D02*
D03*
Y1194560D02*
D03*
Y1204560D02*
D03*
Y1214560D02*
D03*
Y1224560D02*
D03*
Y1234560D02*
D03*
Y1244560D02*
D03*
Y1254560D02*
D03*
Y1264560D02*
D03*
Y1274560D02*
D03*
Y1284560D02*
D03*
Y1294560D02*
D03*
Y1304560D02*
D03*
Y1314560D02*
D03*
Y1324560D02*
D03*
Y1334560D02*
D03*
Y1344560D02*
D03*
Y1354560D02*
D03*
X894073Y1104560D02*
D03*
Y1114560D02*
D03*
Y1124560D02*
D03*
Y1134560D02*
D03*
Y1144560D02*
D03*
Y1154560D02*
D03*
Y1164560D02*
D03*
Y1174560D02*
D03*
Y1184560D02*
D03*
Y1194560D02*
D03*
Y1204560D02*
D03*
Y1214560D02*
D03*
Y1224560D02*
D03*
Y1234560D02*
D03*
Y1244560D02*
D03*
Y1254560D02*
D03*
Y1264560D02*
D03*
Y1274560D02*
D03*
Y1284560D02*
D03*
Y1294560D02*
D03*
Y1304560D02*
D03*
Y1314560D02*
D03*
Y1324560D02*
D03*
Y1334560D02*
D03*
Y1344560D02*
D03*
Y1354560D02*
D03*
X884073Y1104560D02*
D03*
Y1114560D02*
D03*
Y1124560D02*
D03*
Y1134560D02*
D03*
Y1144560D02*
D03*
Y1154560D02*
D03*
Y1164560D02*
D03*
Y1174560D02*
D03*
Y1184560D02*
D03*
Y1194560D02*
D03*
Y1204560D02*
D03*
Y1214560D02*
D03*
Y1224560D02*
D03*
Y1234560D02*
D03*
Y1244560D02*
D03*
Y1254560D02*
D03*
Y1264560D02*
D03*
Y1274560D02*
D03*
Y1284560D02*
D03*
Y1294560D02*
D03*
Y1304560D02*
D03*
Y1314560D02*
D03*
Y1324560D02*
D03*
Y1334560D02*
D03*
Y1344560D02*
D03*
Y1354560D02*
D03*
X874073Y1104560D02*
D03*
Y1114560D02*
D03*
Y1124560D02*
D03*
Y1134560D02*
D03*
Y1144560D02*
D03*
Y1154560D02*
D03*
Y1164560D02*
D03*
Y1174560D02*
D03*
Y1184560D02*
D03*
Y1194560D02*
D03*
Y1204560D02*
D03*
Y1214560D02*
D03*
Y1224560D02*
D03*
Y1234560D02*
D03*
Y1244560D02*
D03*
Y1254560D02*
D03*
Y1264560D02*
D03*
Y1274560D02*
D03*
Y1284560D02*
D03*
Y1294560D02*
D03*
Y1304560D02*
D03*
Y1314560D02*
D03*
Y1324560D02*
D03*
Y1334560D02*
D03*
Y1344560D02*
D03*
Y1354560D02*
D03*
X864073Y1104560D02*
D03*
Y1114560D02*
D03*
Y1124560D02*
D03*
Y1134560D02*
D03*
Y1144560D02*
D03*
Y1154560D02*
D03*
Y1164560D02*
D03*
Y1174560D02*
D03*
Y1184560D02*
D03*
Y1194560D02*
D03*
Y1204560D02*
D03*
Y1214560D02*
D03*
Y1224560D02*
D03*
Y1234560D02*
D03*
Y1244560D02*
D03*
Y1254560D02*
D03*
Y1264560D02*
D03*
Y1274560D02*
D03*
Y1284560D02*
D03*
Y1294560D02*
D03*
Y1304560D02*
D03*
Y1314560D02*
D03*
Y1324560D02*
D03*
Y1334560D02*
D03*
Y1344560D02*
D03*
Y1354560D02*
D03*
X854073Y1104560D02*
D03*
Y1114560D02*
D03*
Y1124560D02*
D03*
Y1134560D02*
D03*
Y1144560D02*
D03*
Y1154560D02*
D03*
Y1164560D02*
D03*
Y1174560D02*
D03*
Y1184560D02*
D03*
Y1194560D02*
D03*
Y1204560D02*
D03*
Y1214560D02*
D03*
Y1224560D02*
D03*
Y1234560D02*
D03*
Y1244560D02*
D03*
Y1254560D02*
D03*
Y1264560D02*
D03*
Y1274560D02*
D03*
Y1284560D02*
D03*
Y1294560D02*
D03*
Y1304560D02*
D03*
Y1314560D02*
D03*
Y1324560D02*
D03*
Y1334560D02*
D03*
Y1344560D02*
D03*
Y1354560D02*
D03*
X844073Y1104560D02*
D03*
Y1114560D02*
D03*
Y1124560D02*
D03*
Y1134560D02*
D03*
Y1144560D02*
D03*
Y1154560D02*
D03*
Y1164560D02*
D03*
Y1174560D02*
D03*
Y1184560D02*
D03*
Y1194560D02*
D03*
Y1204560D02*
D03*
Y1214560D02*
D03*
Y1224560D02*
D03*
Y1234560D02*
D03*
Y1244560D02*
D03*
Y1254560D02*
D03*
Y1264560D02*
D03*
Y1274560D02*
D03*
Y1284560D02*
D03*
Y1294560D02*
D03*
Y1304560D02*
D03*
Y1314560D02*
D03*
Y1324560D02*
D03*
Y1334560D02*
D03*
Y1344560D02*
D03*
Y1354560D02*
D03*
X834073Y1104560D02*
D03*
Y1114560D02*
D03*
Y1124560D02*
D03*
Y1134560D02*
D03*
Y1144560D02*
D03*
Y1154560D02*
D03*
Y1164560D02*
D03*
Y1174560D02*
D03*
Y1184560D02*
D03*
Y1194560D02*
D03*
Y1204560D02*
D03*
Y1214560D02*
D03*
Y1224560D02*
D03*
Y1234560D02*
D03*
Y1244560D02*
D03*
Y1254560D02*
D03*
Y1264560D02*
D03*
Y1274560D02*
D03*
Y1284560D02*
D03*
Y1294560D02*
D03*
Y1304560D02*
D03*
Y1314560D02*
D03*
Y1324560D02*
D03*
Y1334560D02*
D03*
Y1344560D02*
D03*
Y1354560D02*
D03*
X824073Y1104560D02*
D03*
Y1114560D02*
D03*
Y1124560D02*
D03*
Y1134560D02*
D03*
Y1144560D02*
D03*
Y1154560D02*
D03*
Y1164560D02*
D03*
Y1174560D02*
D03*
Y1184560D02*
D03*
Y1194560D02*
D03*
Y1204560D02*
D03*
Y1214560D02*
D03*
Y1224560D02*
D03*
Y1234560D02*
D03*
Y1244560D02*
D03*
Y1254560D02*
D03*
Y1264560D02*
D03*
Y1274560D02*
D03*
Y1284560D02*
D03*
Y1294560D02*
D03*
Y1304560D02*
D03*
Y1314560D02*
D03*
Y1324560D02*
D03*
Y1334560D02*
D03*
Y1344560D02*
D03*
Y1354560D02*
D03*
X814073Y1104560D02*
D03*
Y1114560D02*
D03*
Y1124560D02*
D03*
Y1134560D02*
D03*
Y1144560D02*
D03*
Y1154560D02*
D03*
Y1164560D02*
D03*
Y1174560D02*
D03*
Y1184560D02*
D03*
Y1194560D02*
D03*
Y1204560D02*
D03*
Y1214560D02*
D03*
Y1224560D02*
D03*
Y1234560D02*
D03*
Y1244560D02*
D03*
Y1254560D02*
D03*
Y1264560D02*
D03*
Y1274560D02*
D03*
Y1284560D02*
D03*
Y1294560D02*
D03*
Y1304560D02*
D03*
Y1314560D02*
D03*
Y1324560D02*
D03*
Y1334560D02*
D03*
Y1344560D02*
D03*
Y1354560D02*
D03*
X804073Y1104560D02*
D03*
Y1114560D02*
D03*
Y1124560D02*
D03*
Y1134560D02*
D03*
Y1144560D02*
D03*
Y1154560D02*
D03*
Y1164560D02*
D03*
Y1174560D02*
D03*
Y1184560D02*
D03*
Y1194560D02*
D03*
Y1204560D02*
D03*
Y1214560D02*
D03*
Y1224560D02*
D03*
Y1234560D02*
D03*
Y1244560D02*
D03*
Y1254560D02*
D03*
Y1264560D02*
D03*
Y1274560D02*
D03*
Y1284560D02*
D03*
Y1294560D02*
D03*
Y1304560D02*
D03*
Y1314560D02*
D03*
Y1324560D02*
D03*
Y1334560D02*
D03*
Y1344560D02*
D03*
Y1354560D02*
D03*
X794073Y1104560D02*
D03*
Y1114560D02*
D03*
Y1124560D02*
D03*
Y1134560D02*
D03*
Y1144560D02*
D03*
Y1154560D02*
D03*
Y1164560D02*
D03*
Y1174560D02*
D03*
Y1184560D02*
D03*
Y1194560D02*
D03*
Y1204560D02*
D03*
Y1214560D02*
D03*
Y1224560D02*
D03*
Y1234560D02*
D03*
Y1244560D02*
D03*
Y1254560D02*
D03*
Y1264560D02*
D03*
Y1274560D02*
D03*
Y1284560D02*
D03*
Y1294560D02*
D03*
Y1304560D02*
D03*
Y1314560D02*
D03*
Y1324560D02*
D03*
Y1334560D02*
D03*
Y1344560D02*
D03*
Y1354560D02*
D03*
X784073Y1104560D02*
D03*
Y1114560D02*
D03*
Y1124560D02*
D03*
Y1134560D02*
D03*
Y1144560D02*
D03*
Y1154560D02*
D03*
Y1164560D02*
D03*
Y1174560D02*
D03*
Y1184560D02*
D03*
Y1194560D02*
D03*
Y1204560D02*
D03*
Y1214560D02*
D03*
Y1224560D02*
D03*
Y1234560D02*
D03*
Y1244560D02*
D03*
Y1254560D02*
D03*
Y1264560D02*
D03*
Y1274560D02*
D03*
Y1284560D02*
D03*
Y1294560D02*
D03*
Y1304560D02*
D03*
Y1314560D02*
D03*
Y1324560D02*
D03*
Y1334560D02*
D03*
Y1344560D02*
D03*
Y1354560D02*
D03*
X774073Y1104560D02*
D03*
Y1114560D02*
D03*
Y1124560D02*
D03*
Y1134560D02*
D03*
Y1144560D02*
D03*
Y1154560D02*
D03*
Y1164560D02*
D03*
Y1174560D02*
D03*
Y1184560D02*
D03*
Y1194560D02*
D03*
Y1204560D02*
D03*
Y1214560D02*
D03*
Y1224560D02*
D03*
Y1234560D02*
D03*
Y1244560D02*
D03*
Y1254560D02*
D03*
Y1264560D02*
D03*
Y1274560D02*
D03*
Y1284560D02*
D03*
Y1294560D02*
D03*
Y1304560D02*
D03*
Y1314560D02*
D03*
Y1324560D02*
D03*
Y1334560D02*
D03*
Y1344560D02*
D03*
Y1354560D02*
D03*
X764073Y1104560D02*
D03*
Y1114560D02*
D03*
Y1124560D02*
D03*
Y1134560D02*
D03*
Y1144560D02*
D03*
Y1154560D02*
D03*
Y1164560D02*
D03*
Y1174560D02*
D03*
Y1184560D02*
D03*
Y1194560D02*
D03*
Y1204560D02*
D03*
Y1214560D02*
D03*
Y1224560D02*
D03*
Y1234560D02*
D03*
Y1244560D02*
D03*
Y1254560D02*
D03*
Y1264560D02*
D03*
Y1274560D02*
D03*
Y1284560D02*
D03*
Y1294560D02*
D03*
Y1304560D02*
D03*
Y1314560D02*
D03*
Y1324560D02*
D03*
Y1334560D02*
D03*
Y1344560D02*
D03*
Y1354560D02*
D03*
X754073Y1104560D02*
D03*
Y1114560D02*
D03*
Y1124560D02*
D03*
Y1134560D02*
D03*
Y1144560D02*
D03*
Y1154560D02*
D03*
Y1164560D02*
D03*
Y1174560D02*
D03*
Y1184560D02*
D03*
Y1194560D02*
D03*
Y1204560D02*
D03*
Y1214560D02*
D03*
Y1224560D02*
D03*
Y1234560D02*
D03*
Y1244560D02*
D03*
Y1254560D02*
D03*
Y1264560D02*
D03*
Y1274560D02*
D03*
Y1284560D02*
D03*
Y1294560D02*
D03*
Y1304560D02*
D03*
Y1314560D02*
D03*
Y1324560D02*
D03*
Y1334560D02*
D03*
Y1344560D02*
D03*
Y1354560D02*
D03*
X744073Y1104560D02*
D03*
Y1114560D02*
D03*
Y1124560D02*
D03*
Y1134560D02*
D03*
Y1144560D02*
D03*
Y1154560D02*
D03*
Y1164560D02*
D03*
Y1174560D02*
D03*
Y1184560D02*
D03*
Y1194560D02*
D03*
Y1204560D02*
D03*
Y1214560D02*
D03*
Y1224560D02*
D03*
Y1234560D02*
D03*
Y1244560D02*
D03*
Y1254560D02*
D03*
Y1264560D02*
D03*
Y1274560D02*
D03*
Y1284560D02*
D03*
Y1294560D02*
D03*
Y1304560D02*
D03*
Y1314560D02*
D03*
Y1324560D02*
D03*
Y1334560D02*
D03*
Y1344560D02*
D03*
Y1354560D02*
D03*
X734073Y1104560D02*
D03*
Y1114560D02*
D03*
Y1124560D02*
D03*
Y1134560D02*
D03*
Y1144560D02*
D03*
Y1154560D02*
D03*
Y1164560D02*
D03*
Y1174560D02*
D03*
Y1184560D02*
D03*
Y1194560D02*
D03*
Y1204560D02*
D03*
Y1214560D02*
D03*
Y1224560D02*
D03*
Y1234560D02*
D03*
Y1244560D02*
D03*
Y1254560D02*
D03*
Y1264560D02*
D03*
Y1274560D02*
D03*
Y1284560D02*
D03*
Y1294560D02*
D03*
Y1304560D02*
D03*
Y1314560D02*
D03*
Y1324560D02*
D03*
Y1334560D02*
D03*
Y1344560D02*
D03*
Y1354560D02*
D03*
X724073Y1104560D02*
D03*
Y1114560D02*
D03*
Y1164560D02*
D03*
Y1154560D02*
D03*
Y1144560D02*
D03*
Y1124560D02*
D03*
Y1134560D02*
D03*
Y1174560D02*
D03*
Y1194560D02*
D03*
Y1184560D02*
D03*
Y1204560D02*
D03*
Y1214560D02*
D03*
Y1224560D02*
D03*
Y1234560D02*
D03*
Y1294560D02*
D03*
Y1254560D02*
D03*
Y1244560D02*
D03*
Y1264560D02*
D03*
Y1274560D02*
D03*
Y1284560D02*
D03*
Y1304560D02*
D03*
Y1314560D02*
D03*
Y1334560D02*
D03*
Y1324560D02*
D03*
Y1344560D02*
D03*
Y1354560D02*
D03*
X1308408Y1590153D02*
D03*
X1300408D02*
D03*
X1292408D02*
D03*
X1260408D02*
D03*
X1252408D02*
D03*
X1244408D02*
D03*
X1308408Y1598153D02*
D03*
X1300408D02*
D03*
X1292408D02*
D03*
X1260408D02*
D03*
X1252408D02*
D03*
X1244408D02*
D03*
X1308408Y1606153D02*
D03*
X1300408D02*
D03*
X1292408D02*
D03*
X1260408D02*
D03*
X1252408D02*
D03*
X1244408D02*
D03*
X1308408Y1614153D02*
D03*
X1300408D02*
D03*
X1292408D02*
D03*
X1260408D02*
D03*
X1252408D02*
D03*
X1244408D02*
D03*
X1308408Y1622153D02*
D03*
X1300408D02*
D03*
X1292408D02*
D03*
X1260408D02*
D03*
X1252408D02*
D03*
X1244408D02*
D03*
X1308408Y1630153D02*
D03*
X1300408D02*
D03*
X1292408D02*
D03*
X1260408D02*
D03*
X1252408D02*
D03*
X1244408D02*
D03*
X1308408Y1638153D02*
D03*
X1300408D02*
D03*
X1292408D02*
D03*
X1260408D02*
D03*
X1252408D02*
D03*
X1244408D02*
D03*
X1308408Y1646153D02*
D03*
X1300408D02*
D03*
X1292408D02*
D03*
X1260408D02*
D03*
X1252408D02*
D03*
X1244408D02*
D03*
X1308408Y1654153D02*
D03*
X1300408D02*
D03*
X1292408D02*
D03*
X1260408D02*
D03*
X1252408D02*
D03*
X1244408D02*
D03*
X1308408Y1662153D02*
D03*
X1300408D02*
D03*
X1292408D02*
D03*
X1260408D02*
D03*
X1252408D02*
D03*
X1244408D02*
D03*
X1308408Y1670153D02*
D03*
X1300408D02*
D03*
X1292408D02*
D03*
X1260408D02*
D03*
X1252408D02*
D03*
X1244408D02*
D03*
X1308408Y1678153D02*
D03*
X1300408D02*
D03*
X1292408D02*
D03*
X1260408D02*
D03*
X1252408D02*
D03*
X1244408D02*
D03*
X1308408Y1686153D02*
D03*
X1300408D02*
D03*
X1292408D02*
D03*
X1260408D02*
D03*
X1252408D02*
D03*
X1244408D02*
D03*
X1308408Y1694153D02*
D03*
X1300408D02*
D03*
X1292408D02*
D03*
X1260408D02*
D03*
X1252408D02*
D03*
X1244408D02*
D03*
X1308408Y1702153D02*
D03*
X1300408D02*
D03*
X1292408D02*
D03*
X1260408D02*
D03*
X1252408D02*
D03*
X1244408D02*
D03*
X1308408Y1710153D02*
D03*
X1300408D02*
D03*
X1292408D02*
D03*
X1260408D02*
D03*
X1252408D02*
D03*
X1244408D02*
D03*
D40*
X464260Y2161182D02*
D03*
X476960D02*
D03*
X489660D02*
D03*
X502360D02*
D03*
X515060D02*
D03*
X527760D02*
D03*
X540460D02*
D03*
D41*
X1368480Y1967074D02*
D03*
X1339524D02*
D03*
X967187Y2180163D02*
D03*
X938231D02*
D03*
X798128Y963806D02*
D03*
X827084D02*
D03*
X586740Y1691261D02*
D03*
X557784D02*
D03*
X1308764Y1833625D02*
D03*
X1279808D02*
D03*
D42*
X1402110Y1795824D02*
D03*
X1393220D02*
D03*
X884949Y1380245D02*
D03*
X893839D02*
D03*
X610109Y1983686D02*
D03*
X618999D02*
D03*
X655370Y2001834D02*
D03*
X646480D02*
D03*
X665742Y2001834D02*
D03*
X674632D02*
D03*
X657855Y1981679D02*
D03*
X648965D02*
D03*
X610109Y1973889D02*
D03*
X618999D02*
D03*
X618921Y1953049D02*
D03*
X610031D02*
D03*
X618919Y1963049D02*
D03*
X610029D02*
D03*
X664920Y1926429D02*
D03*
X656030D02*
D03*
X664205Y1963049D02*
D03*
X655315D02*
D03*
X664205Y1952419D02*
D03*
X655315D02*
D03*
X664840Y1941429D02*
D03*
X655950D02*
D03*
X618485Y2004334D02*
D03*
X609595D02*
D03*
X770250Y1877494D02*
D03*
X779140D02*
D03*
X776966Y1911429D02*
D03*
X785856D02*
D03*
X892805Y1922046D02*
D03*
X883915D02*
D03*
X892805Y1932206D02*
D03*
X883915D02*
D03*
X826765Y1911412D02*
D03*
X817875D02*
D03*
X892885Y1942366D02*
D03*
X883995D02*
D03*
X776858Y1936207D02*
D03*
X785748D02*
D03*
X777046Y1902339D02*
D03*
X785936D02*
D03*
X776698Y1926793D02*
D03*
X785588D02*
D03*
X777046Y1946429D02*
D03*
X785936D02*
D03*
X777046Y1971429D02*
D03*
X785936D02*
D03*
X777095Y1956166D02*
D03*
X785985D02*
D03*
X792475Y1983679D02*
D03*
X801365D02*
D03*
X688775Y1852569D02*
D03*
X697665D02*
D03*
X709330D02*
D03*
X718220D02*
D03*
X759565Y730455D02*
D03*
X750675D02*
D03*
X787173Y1088253D02*
D03*
X796063D02*
D03*
X815027D02*
D03*
X806137D02*
D03*
X717552Y1087147D02*
D03*
X726442D02*
D03*
X893797Y1389957D02*
D03*
X884907D02*
D03*
X893682Y1408668D02*
D03*
X884792D02*
D03*
X894249Y1088607D02*
D03*
X885359D02*
D03*
X856649Y1087890D02*
D03*
X847759D02*
D03*
X893744Y1399312D02*
D03*
X884854D02*
D03*
X833208Y1370617D02*
D03*
X824318D02*
D03*
X912228Y1380204D02*
D03*
X903338D02*
D03*
X805578Y1370466D02*
D03*
X814468D02*
D03*
X884777Y1370732D02*
D03*
X893667D02*
D03*
X912292D02*
D03*
X903402D02*
D03*
X519327Y2119866D02*
D03*
X528217D02*
D03*
X532230Y2129397D02*
D03*
X523340D02*
D03*
X512634Y2128987D02*
D03*
X503744D02*
D03*
X1221588Y1638714D02*
D03*
X1212698D02*
D03*
X1221342Y1601839D02*
D03*
X1212452D02*
D03*
X1221512Y1629537D02*
D03*
X1212622D02*
D03*
X1221291Y1610952D02*
D03*
X1212401D02*
D03*
X1221245Y1620487D02*
D03*
X1212355D02*
D03*
X1221460Y1564058D02*
D03*
X1212570D02*
D03*
X1221420Y1573618D02*
D03*
X1212530D02*
D03*
X1221530Y1583239D02*
D03*
X1212640D02*
D03*
X1221587Y1592612D02*
D03*
X1212697D02*
D03*
X1221460Y1554798D02*
D03*
X1212570D02*
D03*
X1221507Y1676997D02*
D03*
X1212617D02*
D03*
X1197551Y1677242D02*
D03*
X1188661D02*
D03*
X1035044Y1780969D02*
D03*
X1026154D02*
D03*
X911935Y1770019D02*
D03*
X920825D02*
D03*
X911933Y1757319D02*
D03*
X920823D02*
D03*
X1034411Y1735093D02*
D03*
X1043301D02*
D03*
X1043299Y1744619D02*
D03*
X1034409D02*
D03*
X1035125Y1770019D02*
D03*
X1026235D02*
D03*
X1035125Y1791609D02*
D03*
X1026235D02*
D03*
X1328214Y1594025D02*
D03*
X1337104D02*
D03*
X1328434Y1631034D02*
D03*
X1337324D02*
D03*
X1328447Y1612586D02*
D03*
X1337337D02*
D03*
X1328243Y1584831D02*
D03*
X1337133D02*
D03*
X1328295Y1603326D02*
D03*
X1337184D02*
D03*
X1328506Y1621946D02*
D03*
X1337397D02*
D03*
X1328447Y1649410D02*
D03*
X1337337D02*
D03*
X1328244Y1640243D02*
D03*
X1337134D02*
D03*
X1197404Y1554796D02*
D03*
X1188514D02*
D03*
X1197610Y1648759D02*
D03*
X1188720D02*
D03*
X1350707Y1621948D02*
D03*
X1359597D02*
D03*
X1350849Y1649412D02*
D03*
X1359738D02*
D03*
X1350252Y1575891D02*
D03*
X1359142D02*
D03*
X1350356Y1584833D02*
D03*
X1359246D02*
D03*
X1350849Y1640243D02*
D03*
X1359738D02*
D03*
X1350577Y1612586D02*
D03*
X1359467D02*
D03*
X1350356Y1603034D02*
D03*
X1359246D02*
D03*
X1197457Y1620586D02*
D03*
X1188567D02*
D03*
X1197466Y1601922D02*
D03*
X1188576D02*
D03*
X1221413Y1648759D02*
D03*
X1212523D02*
D03*
X1197413Y1630098D02*
D03*
X1188523D02*
D03*
X1197466Y1610950D02*
D03*
X1188576D02*
D03*
X1197657Y1573619D02*
D03*
X1188767D02*
D03*
X1197658Y1592612D02*
D03*
X1188768D02*
D03*
X1197404Y1564056D02*
D03*
X1188514D02*
D03*
X1197721Y1582856D02*
D03*
X1188831D02*
D03*
X1197521Y1639103D02*
D03*
X1188631D02*
D03*
X1197612Y1657869D02*
D03*
X1188722D02*
D03*
X1221531D02*
D03*
X1212641D02*
D03*
X1198127Y1667326D02*
D03*
X1189237D02*
D03*
X1221682Y1667590D02*
D03*
X1212792D02*
D03*
X1350564Y1631036D02*
D03*
X1359454D02*
D03*
X1328189Y1575597D02*
D03*
X1337079D02*
D03*
X1350356Y1594027D02*
D03*
X1359246D02*
D03*
X1347144Y1823931D02*
D03*
X1356034D02*
D03*
X1356004Y1814371D02*
D03*
X1364894D02*
D03*
Y1805394D02*
D03*
X1356004D02*
D03*
X479474Y607768D02*
D03*
X488364D02*
D03*
X479474Y666188D02*
D03*
X488364D02*
D03*
X568165Y609887D02*
D03*
X577055D02*
D03*
X566257Y663437D02*
D03*
X575147D02*
D03*
X457246Y2470038D02*
D03*
X448356D02*
D03*
X457247Y2457340D02*
D03*
X448357D02*
D03*
X458989Y2362500D02*
D03*
X450099D02*
D03*
X342241Y2362009D02*
D03*
X333351D02*
D03*
X278719Y2454800D02*
D03*
X269829D02*
D03*
X278720Y2467500D02*
D03*
X269830D02*
D03*
X562050Y1422897D02*
D03*
X570940D02*
D03*
X562125Y1394688D02*
D03*
X571015D02*
D03*
X562049Y1404157D02*
D03*
X570939D02*
D03*
X562120Y1385258D02*
D03*
X571010D02*
D03*
X562050Y1413447D02*
D03*
X570940D02*
D03*
X464166Y1312060D02*
D03*
X455276D02*
D03*
X553795Y1365567D02*
D03*
X562685D02*
D03*
X553795Y1376117D02*
D03*
X562685D02*
D03*
X475515Y1428882D02*
D03*
X466625D02*
D03*
X481748Y1413447D02*
D03*
X472858D02*
D03*
X469086Y1349818D02*
D03*
X460196D02*
D03*
X481846Y1403447D02*
D03*
X472956D02*
D03*
X354799Y1933084D02*
D03*
X363689D02*
D03*
X340490D02*
D03*
X331600D02*
D03*
X387826Y1881590D02*
D03*
X378936D02*
D03*
X368902Y1881589D02*
D03*
X360012D02*
D03*
X384734Y1449595D02*
D03*
X393624D02*
D03*
X384734Y1359217D02*
D03*
X393624D02*
D03*
X393704Y1372307D02*
D03*
X384814D02*
D03*
X393704Y1435338D02*
D03*
X384814D02*
D03*
X212757Y1449595D02*
D03*
X203867D02*
D03*
X194289Y1428882D02*
D03*
X203179D02*
D03*
X194289Y1418893D02*
D03*
X203179D02*
D03*
X212757Y1439676D02*
D03*
X203867D02*
D03*
X240859Y611128D02*
D03*
X231969D02*
D03*
X560442Y220050D02*
D03*
X569332D02*
D03*
X560442Y229498D02*
D03*
X569332D02*
D03*
X560442Y239189D02*
D03*
X569332D02*
D03*
X373913Y177549D02*
D03*
X365023D02*
D03*
X373880Y188340D02*
D03*
X364990D02*
D03*
X692650Y239022D02*
D03*
X683760D02*
D03*
X673300Y175534D02*
D03*
X664410D02*
D03*
X670086Y166055D02*
D03*
X661196D02*
D03*
X560607Y185620D02*
D03*
X569497D02*
D03*
X578985Y176404D02*
D03*
X587875D02*
D03*
X578985Y166644D02*
D03*
X587875D02*
D03*
X578986Y157327D02*
D03*
X587876D02*
D03*
X211944Y284886D02*
D03*
X220834D02*
D03*
X222214Y275439D02*
D03*
X231104D02*
D03*
X212198Y190627D02*
D03*
X221088D02*
D03*
X222626Y180612D02*
D03*
X231516D02*
D03*
X330729Y261930D02*
D03*
X321839D02*
D03*
X264895Y260224D02*
D03*
X273785D02*
D03*
X257530Y203372D02*
D03*
X266420D02*
D03*
X266112Y232192D02*
D03*
X275002D02*
D03*
X266112Y223192D02*
D03*
X275002D02*
D03*
X257530Y213186D02*
D03*
X266420D02*
D03*
X286450Y185592D02*
D03*
X295340D02*
D03*
X344436Y231958D02*
D03*
X353326D02*
D03*
X353962Y213608D02*
D03*
X362852D02*
D03*
X344400Y222991D02*
D03*
X353290D02*
D03*
X373880Y241732D02*
D03*
X364990D02*
D03*
X373847Y251038D02*
D03*
X364957D02*
D03*
X354065Y204496D02*
D03*
X362955D02*
D03*
X560442Y277197D02*
D03*
X569332D02*
D03*
X673300Y293009D02*
D03*
X664410D02*
D03*
X673233Y302568D02*
D03*
X664343D02*
D03*
X578350Y287929D02*
D03*
X587240D02*
D03*
X587520Y763551D02*
D03*
X578630D02*
D03*
X265758Y732815D02*
D03*
X256868D02*
D03*
X265759Y742405D02*
D03*
X256869D02*
D03*
X304780Y920167D02*
D03*
X295890D02*
D03*
X304782Y909547D02*
D03*
X295892D02*
D03*
X294794Y885111D02*
D03*
X303684D02*
D03*
X267660Y799609D02*
D03*
X276550D02*
D03*
X213507Y801597D02*
D03*
X204617D02*
D03*
X214810Y913357D02*
D03*
X205920D02*
D03*
X213181Y2515509D02*
D03*
X222071D02*
D03*
D43*
X674996Y794390D02*
D03*
Y823346D02*
D03*
X763980Y2302127D02*
D03*
Y2331083D02*
D03*
X1156558Y884113D02*
D03*
Y855157D02*
D03*
X1043168Y884113D02*
D03*
Y855157D02*
D03*
X748126Y1521399D02*
D03*
Y1550355D02*
D03*
X401668Y2238695D02*
D03*
Y2267651D02*
D03*
X429798Y2238696D02*
D03*
Y2267652D02*
D03*
X580357Y2179393D02*
D03*
Y2208349D02*
D03*
X1160078Y2078539D02*
D03*
Y2049583D02*
D03*
X464260Y1091585D02*
D03*
Y1062629D02*
D03*
X225131Y424073D02*
D03*
Y453029D02*
D03*
X219618Y1075668D02*
D03*
Y1104624D02*
D03*
X228159Y703571D02*
D03*
Y674615D02*
D03*
X238326Y592729D02*
D03*
Y563773D02*
D03*
X263850Y592729D02*
D03*
Y563773D02*
D03*
D44*
X493410Y1385059D02*
D03*
X542410Y1415059D02*
D03*
Y1410059D02*
D03*
Y1405059D02*
D03*
Y1400059D02*
D03*
Y1395059D02*
D03*
Y1390059D02*
D03*
Y1385059D02*
D03*
Y1380059D02*
D03*
X493410D02*
D03*
Y1390059D02*
D03*
Y1395059D02*
D03*
Y1400059D02*
D03*
Y1405059D02*
D03*
Y1410059D02*
D03*
Y1415059D02*
D03*
D45*
X517910Y1397559D02*
D03*
D46*
X500410Y1422059D02*
D03*
X505410D02*
D03*
X510410D02*
D03*
X515410D02*
D03*
X520410D02*
D03*
X525410D02*
D03*
X530410D02*
D03*
X535410D02*
D03*
Y1373059D02*
D03*
X530410D02*
D03*
X525410D02*
D03*
X520410D02*
D03*
X515410D02*
D03*
X510410D02*
D03*
X505410D02*
D03*
X500410D02*
D03*
D47*
X675970Y1976429D02*
D03*
Y1971429D02*
D03*
Y1966429D02*
D03*
Y1961429D02*
D03*
Y1956429D02*
D03*
Y1951429D02*
D03*
Y1946429D02*
D03*
Y1941429D02*
D03*
Y1936429D02*
D03*
Y1931429D02*
D03*
Y1926429D02*
D03*
Y1921429D02*
D03*
Y1916429D02*
D03*
Y1911429D02*
D03*
Y1906429D02*
D03*
Y1901429D02*
D03*
X765470D02*
D03*
Y1906429D02*
D03*
Y1911429D02*
D03*
Y1916429D02*
D03*
Y1921429D02*
D03*
Y1926429D02*
D03*
Y1931429D02*
D03*
Y1936429D02*
D03*
Y1941429D02*
D03*
Y1946429D02*
D03*
Y1951429D02*
D03*
Y1956429D02*
D03*
Y1961429D02*
D03*
Y1966429D02*
D03*
Y1971429D02*
D03*
Y1976429D02*
D03*
X582160Y269189D02*
D03*
Y264189D02*
D03*
Y259189D02*
D03*
Y254189D02*
D03*
Y249189D02*
D03*
Y244189D02*
D03*
Y239189D02*
D03*
Y234189D02*
D03*
Y229189D02*
D03*
Y224189D02*
D03*
Y219189D02*
D03*
Y214189D02*
D03*
Y209189D02*
D03*
Y204189D02*
D03*
Y199189D02*
D03*
Y194189D02*
D03*
X671660D02*
D03*
Y199189D02*
D03*
Y204189D02*
D03*
Y209189D02*
D03*
Y214189D02*
D03*
Y219189D02*
D03*
Y224189D02*
D03*
Y229189D02*
D03*
Y234189D02*
D03*
Y239189D02*
D03*
Y244189D02*
D03*
Y249189D02*
D03*
Y254189D02*
D03*
Y259189D02*
D03*
Y264189D02*
D03*
Y269189D02*
D03*
D48*
X683220Y1894179D02*
D03*
X688220D02*
D03*
X693220D02*
D03*
X698220D02*
D03*
X703220D02*
D03*
X708220D02*
D03*
X713220D02*
D03*
X718220D02*
D03*
X723220D02*
D03*
X728220D02*
D03*
X733220D02*
D03*
X738220D02*
D03*
X743220D02*
D03*
X748220D02*
D03*
X753220D02*
D03*
X758220D02*
D03*
Y1983679D02*
D03*
X753220D02*
D03*
X748220D02*
D03*
X743220D02*
D03*
X738220D02*
D03*
X733220D02*
D03*
X728220D02*
D03*
X723220D02*
D03*
X718220D02*
D03*
X713220D02*
D03*
X708220D02*
D03*
X703220D02*
D03*
X698220D02*
D03*
X693220D02*
D03*
X688220D02*
D03*
X683220D02*
D03*
X664410Y276439D02*
D03*
X659410D02*
D03*
X654410D02*
D03*
X649410D02*
D03*
X644410D02*
D03*
X639410D02*
D03*
X634410D02*
D03*
X629410D02*
D03*
X624410D02*
D03*
X619410D02*
D03*
X614410D02*
D03*
X609410D02*
D03*
X604410D02*
D03*
X599410D02*
D03*
X594410D02*
D03*
X589410D02*
D03*
Y186939D02*
D03*
X594410D02*
D03*
X599410D02*
D03*
X604410D02*
D03*
X609410D02*
D03*
X614410D02*
D03*
X619410D02*
D03*
X624410D02*
D03*
X629410D02*
D03*
X634410D02*
D03*
X639410D02*
D03*
X644410D02*
D03*
X649410D02*
D03*
X654410D02*
D03*
X659410D02*
D03*
X664410D02*
D03*
D49*
X720720Y1938929D02*
D03*
D51*
X1113890Y864113D02*
D03*
Y869113D02*
D03*
Y874113D02*
D03*
Y879113D02*
D03*
Y884113D02*
D03*
X1069390Y864113D02*
D03*
Y869113D02*
D03*
Y874113D02*
D03*
Y879113D02*
D03*
Y884113D02*
D03*
D52*
X696245Y1032132D02*
D03*
X612245D02*
D03*
X639965Y1763826D02*
D03*
X555965D02*
D03*
X1294364Y1921579D02*
D03*
X1210364D02*
D03*
X403081Y2037524D02*
D03*
X319081D02*
D03*
X403184Y2149026D02*
D03*
X319184D02*
D03*
X312105Y602889D02*
D03*
X396105D02*
D03*
X294080Y1611269D02*
D03*
X210080D02*
D03*
D53*
X881862Y1479045D02*
D03*
X913862D02*
D03*
X798745Y1039706D02*
D03*
X766745D02*
D03*
X891269Y1041215D02*
D03*
X923269D02*
D03*
X839992Y1417846D02*
D03*
X807992D02*
D03*
D54*
X658607Y1141510D02*
D03*
Y1173511D02*
D03*
X1038183Y1134802D02*
D03*
Y1166802D02*
D03*
X1042108Y1256460D02*
D03*
Y1224460D02*
D03*
X1039916Y1327924D02*
D03*
Y1295925D02*
D03*
X653642Y1325083D02*
D03*
Y1293083D02*
D03*
D55*
X690717Y1157527D02*
D03*
Y1140509D02*
D03*
X1007923Y1150815D02*
D03*
Y1133797D02*
D03*
Y1278657D02*
D03*
Y1261639D02*
D03*
X1006013Y1311908D02*
D03*
Y1328926D02*
D03*
X686080Y1309067D02*
D03*
Y1326085D02*
D03*
D56*
X605843Y2184126D02*
D03*
Y2212327D02*
D03*
D57*
X1356004Y1792371D02*
D03*
Y1787371D02*
D03*
Y1782371D02*
D03*
Y1777371D02*
D03*
Y1772371D02*
D03*
X1384004Y1792371D02*
D03*
Y1787371D02*
D03*
Y1782371D02*
D03*
Y1777371D02*
D03*
Y1772371D02*
D03*
D58*
X1174612Y1659259D02*
D03*
Y1674245D02*
D03*
X1153925Y1565501D02*
D03*
Y1580487D02*
D03*
X1355247Y1662661D02*
D03*
Y1677647D02*
D03*
X1174614Y1580487D02*
D03*
Y1565501D02*
D03*
X1174612Y1596468D02*
D03*
Y1611454D02*
D03*
X1153926Y1673711D02*
D03*
Y1658725D02*
D03*
X1153927Y1627014D02*
D03*
Y1642000D02*
D03*
X1174614Y1642743D02*
D03*
Y1627757D02*
D03*
X1153927Y1611428D02*
D03*
Y1596442D02*
D03*
X1391989Y1600047D02*
D03*
Y1615033D02*
D03*
X1374004D02*
D03*
Y1600047D02*
D03*
Y1631167D02*
D03*
Y1646153D02*
D03*
X1391987D02*
D03*
Y1631167D02*
D03*
X1355249Y1709819D02*
D03*
Y1694833D02*
D03*
X363346Y1735602D02*
D03*
Y1720616D02*
D03*
X313399Y1907275D02*
D03*
Y1892289D02*
D03*
X439277Y1915412D02*
D03*
Y1900426D02*
D03*
X345536Y1720616D02*
D03*
Y1735602D02*
D03*
X315330Y1723156D02*
D03*
Y1738142D02*
D03*
X399831Y1723156D02*
D03*
Y1738142D02*
D03*
X494934Y815172D02*
D03*
Y830158D02*
D03*
X341330Y1833599D02*
D03*
Y1848585D02*
D03*
D59*
X1295828Y1809872D02*
D03*
X1310814D02*
D03*
X1295828Y1772072D02*
D03*
X1310814D02*
D03*
X1295828Y1791285D02*
D03*
X1310814D02*
D03*
X1237422Y1731571D02*
D03*
X1252408D02*
D03*
X1296728Y1567333D02*
D03*
X1311714D02*
D03*
X1398990Y1809204D02*
D03*
X1384004D02*
D03*
X394323Y1692549D02*
D03*
X379337D02*
D03*
X395318Y1907540D02*
D03*
X380332D02*
D03*
D60*
X1010550Y1731919D02*
D03*
Y1744619D02*
D03*
Y1757319D02*
D03*
Y1770019D02*
D03*
X939050Y1731919D02*
D03*
Y1744619D02*
D03*
Y1757319D02*
D03*
Y1770019D02*
D03*
D61*
X280579Y2267138D02*
D03*
Y2250638D02*
D03*
D67*
X315330Y1758529D02*
D03*
X321830D02*
D03*
X328330D02*
D03*
X334830D02*
D03*
X341330D02*
D03*
X347830D02*
D03*
X354330D02*
D03*
X360830D02*
D03*
X367330D02*
D03*
X373830D02*
D03*
X380330D02*
D03*
X386830D02*
D03*
X393330D02*
D03*
X399830D02*
D03*
X315330Y1814529D02*
D03*
X321830D02*
D03*
X328330D02*
D03*
X334830D02*
D03*
X341330D02*
D03*
X347830D02*
D03*
X354330D02*
D03*
X360830D02*
D03*
X367330D02*
D03*
X373830D02*
D03*
X380330D02*
D03*
X386830D02*
D03*
X393330D02*
D03*
X399830D02*
D03*
D68*
X228040Y1859289D02*
D03*
Y1810289D02*
D03*
Y1708689D02*
D03*
Y1757689D02*
D03*
X146760Y1709429D02*
D03*
Y1660429D02*
D03*
Y1857089D02*
D03*
Y1906089D02*
D03*
X331180Y2222206D02*
D03*
Y2271206D02*
D03*
D69*
X201299Y1380807D02*
D03*
D70*
X218499D02*
D03*
Y1402807D02*
D03*
X199299D02*
D03*
D71*
X100559Y1296407D02*
D03*
D72*
Y1279207D02*
D03*
X122559D02*
D03*
Y1298407D02*
D03*
D73*
X200550Y569869D02*
D03*
Y582569D02*
D03*
Y595269D02*
D03*
Y607969D02*
D03*
Y620669D02*
D03*
Y633369D02*
D03*
Y646069D02*
D03*
D74*
X462780Y306708D02*
D03*
X425780D02*
D03*
X462780Y92349D02*
D03*
X425780D02*
D03*
X462700Y148404D02*
D03*
X425700D02*
D03*
X462779Y251019D02*
D03*
X425779D02*
D03*
X399917Y732987D02*
D03*
X362917D02*
D03*
X403557Y898373D02*
D03*
X366557D02*
D03*
X403557Y955347D02*
D03*
X366557D02*
D03*
X399917Y790525D02*
D03*
X362917D02*
D03*
D75*
X626910Y231689D02*
D03*
D76*
X310380Y228232D02*
D03*
D77*
X297880Y248732D02*
D03*
X302880D02*
D03*
X307880D02*
D03*
X312880D02*
D03*
X317880D02*
D03*
X322880D02*
D03*
Y207732D02*
D03*
X317880D02*
D03*
X312880D02*
D03*
X307880D02*
D03*
X302880D02*
D03*
X297880D02*
D03*
D78*
X330880Y240732D02*
D03*
Y235732D02*
D03*
Y230732D02*
D03*
Y225732D02*
D03*
Y220732D02*
D03*
Y215732D02*
D03*
X289880D02*
D03*
Y220732D02*
D03*
Y225732D02*
D03*
Y230732D02*
D03*
Y235732D02*
D03*
Y240732D02*
D03*
D80*
X561156Y849710D02*
D03*
X566156D02*
D03*
X571156D02*
D03*
X576156D02*
D03*
X581156D02*
D03*
X586156D02*
D03*
X591156D02*
D03*
X596156D02*
D03*
X601156D02*
D03*
X606156D02*
D03*
X611156D02*
D03*
X616156D02*
D03*
Y919210D02*
D03*
X611156D02*
D03*
X606156D02*
D03*
X601156D02*
D03*
X596156D02*
D03*
X591156D02*
D03*
X586156D02*
D03*
X581156D02*
D03*
X576156D02*
D03*
X571156D02*
D03*
X566156D02*
D03*
X561156D02*
D03*
D81*
X623406Y856960D02*
D03*
Y861960D02*
D03*
Y866960D02*
D03*
Y871960D02*
D03*
Y876960D02*
D03*
Y881960D02*
D03*
Y886960D02*
D03*
Y891960D02*
D03*
Y896960D02*
D03*
Y901960D02*
D03*
Y906960D02*
D03*
Y911960D02*
D03*
X553906D02*
D03*
Y906960D02*
D03*
Y901960D02*
D03*
Y896960D02*
D03*
Y891960D02*
D03*
Y886960D02*
D03*
Y881960D02*
D03*
Y876960D02*
D03*
Y871960D02*
D03*
Y866960D02*
D03*
Y861960D02*
D03*
Y856960D02*
D03*
D82*
X588656Y884460D02*
D03*
D83*
X266812Y828011D02*
D03*
X273312D02*
D03*
X279813D02*
D03*
X286313D02*
D03*
X266812Y869511D02*
D03*
X273312D02*
D03*
X279813D02*
D03*
X286313D02*
D03*
D84*
X321557Y913311D02*
D03*
Y918899D02*
D03*
X283563Y733859D02*
D03*
Y739447D02*
D03*
D85*
X361319Y1359217D02*
D03*
Y1371917D02*
D03*
Y1384617D02*
D03*
Y1397317D02*
D03*
Y1410017D02*
D03*
Y1422717D02*
D03*
Y1435417D02*
D03*
Y1448117D02*
D03*
X269879Y1359217D02*
D03*
Y1371917D02*
D03*
Y1384617D02*
D03*
Y1397317D02*
D03*
Y1410017D02*
D03*
Y1422717D02*
D03*
Y1435417D02*
D03*
Y1448117D02*
D03*
D86*
X172982Y2254341D02*
D03*
X109282D02*
D03*
D90*
X158493Y674889D02*
D03*
X186693D02*
D03*
D91*
X425430Y2362009D02*
D03*
Y2387409D02*
D03*
X363430Y2362009D02*
D03*
Y2387409D02*
D03*
D93*
X606759Y663627D02*
D03*
X590259D02*
D03*
X607151Y610077D02*
D03*
X590651D02*
D03*
X518460Y666188D02*
D03*
X501960D02*
D03*
X518068Y607768D02*
D03*
X501568D02*
D03*
D174*
X635800Y474069D02*
D03*
X675800Y406569D02*
D03*
Y474069D02*
D03*
X635800Y406569D02*
D03*
X772960D02*
D03*
X812960Y474069D02*
D03*
Y406569D02*
D03*
X772960Y474069D02*
D03*
X943140Y479159D02*
D03*
X983140Y411659D02*
D03*
Y479159D02*
D03*
X943140Y411659D02*
D03*
D175*
X1011328Y1019228D02*
D03*
Y1038228D02*
D03*
X1037328D02*
D03*
Y1028728D02*
D03*
Y1019228D02*
D03*
X154080Y2365789D02*
D03*
Y2356289D02*
D03*
Y2346789D02*
D03*
X180080D02*
D03*
Y2365789D02*
D03*
D176*
X502360Y2234232D02*
D03*
D177*
X915620Y1920776D02*
D03*
Y1971576D02*
D03*
Y1946176D02*
D03*
X957620D02*
D03*
Y1971576D02*
D03*
Y1920776D02*
D03*
D178*
X1370004Y1782371D02*
D03*
D179*
X233237Y2262656D02*
D03*
X252237D02*
D03*
X242737Y2282656D02*
D03*
D180*
X242736Y2241340D02*
D03*
X252236Y2217341D02*
D03*
X233236D02*
D03*
D181*
X726450Y2522169D02*
D03*
Y2482169D02*
D03*
Y2442169D02*
D03*
Y2402169D02*
D03*
X511950D02*
D03*
Y2442169D02*
D03*
Y2482169D02*
D03*
Y2522169D02*
D03*
D182*
X539200Y2563169D02*
D03*
X579200D02*
D03*
X619200D02*
D03*
X659200D02*
D03*
X699200D02*
D03*
Y2361169D02*
D03*
X659200D02*
D03*
X619200D02*
D03*
X579200D02*
D03*
X539200D02*
D03*
D183*
X477406Y1296560D02*
D03*
X493905D02*
D03*
Y1312060D02*
D03*
X477406D02*
D03*
D184*
X357580Y1786529D02*
D03*
D185*
X127500Y607969D02*
D03*
D186*
X198753Y267409D02*
D03*
Y274411D02*
D03*
X199753Y172811D02*
D03*
Y179814D02*
D03*
X207258Y788290D02*
D03*
Y781287D02*
D03*
X208258Y900050D02*
D03*
Y893047D02*
D03*
D187*
X1233880Y68354D02*
D03*
X239487Y2351209D02*
D03*
X1176020Y2603500D02*
D03*
D188*
X227170Y2467169D02*
D03*
Y2457169D02*
D03*
X213670D02*
D03*
Y2462169D02*
D03*
Y2467169D02*
D03*
D189*
X390155Y2492900D02*
D03*
Y2505600D02*
D03*
Y2518300D02*
D03*
Y2531000D02*
D03*
Y2480200D02*
D03*
Y2467500D02*
D03*
Y2454800D02*
D03*
Y2442100D02*
D03*
X299605D02*
D03*
Y2454800D02*
D03*
Y2467500D02*
D03*
Y2480200D02*
D03*
Y2531000D02*
D03*
Y2518300D02*
D03*
Y2505600D02*
D03*
Y2492900D02*
D03*
D190*
X744073Y1214560D02*
X744084D01*
X747703Y1210941D01*
X747713D01*
X737067Y1211576D02*
X737077D01*
X734084Y1214560D02*
X737067Y1211576D01*
X734073Y1214560D02*
X734084D01*
X1288882Y1642812D02*
X1288974D01*
X1292316Y1646153D01*
X1263291Y1659270D02*
X1265826D01*
X1221531Y1657869D02*
X1225295D01*
X1225954Y1658528D01*
X1226161D01*
X1240776Y1658705D02*
X1240868D01*
X1244316Y1662153D01*
X1244408D01*
X1156508Y1644581D02*
X1162146D01*
X1163571Y1643156D01*
X1163777D01*
X1166963Y1655590D02*
X1167169D01*
X1168413Y1656834D01*
X1172187D01*
X1153927Y1642000D02*
X1156508Y1644581D01*
X846597Y1322047D02*
X846607D01*
X844084Y1324560D02*
X846597Y1322047D01*
X844073Y1334560D02*
X844084D01*
X848056Y1330587D01*
X838056Y1320587D02*
X838067D01*
X848056Y1330587D02*
X848067D01*
X834084Y1324560D02*
X838056Y1320587D01*
X844073Y1324560D02*
X844084D01*
X1174558Y1557074D02*
Y1565445D01*
X1182796Y1565106D02*
X1183846Y1564056D01*
X1174558Y1565445D02*
X1174614Y1565501D01*
X1182589Y1565106D02*
X1182796D01*
X1183846Y1564056D02*
X1188514D01*
X1227667Y1553745D02*
X1227873D01*
X1226614Y1554798D02*
X1227667Y1553745D01*
X1184492Y1638251D02*
X1184638Y1638397D01*
X1187925D01*
X1188631Y1639103D01*
X1169036Y1628901D02*
X1173469D01*
X1174614Y1627757D01*
X1168758Y1638356D02*
X1168904Y1638502D01*
X1169957D01*
X1174198Y1642743D01*
X1174614D01*
X1204441Y1591093D02*
Y1592612D01*
X1204945Y1588172D02*
Y1590589D01*
X1182987Y1571841D02*
X1183193D01*
X1184703Y1573351D01*
X1204441Y1591093D02*
X1204945Y1590589D01*
X1188499Y1573351D02*
X1188767Y1573619D01*
X1184703Y1573351D02*
X1188499D01*
X1184063Y1554655D02*
X1188374D01*
X1188514Y1554796D01*
X1183922Y1554514D02*
X1184063Y1554655D01*
X1197721Y1582856D02*
X1197913Y1583047D01*
X1212448D01*
X1204786Y1563488D02*
Y1564057D01*
X1212569D01*
X1197506Y1564157D02*
X1204685D01*
X1197405Y1554797D02*
X1212569D01*
X1204881Y1569682D02*
Y1573619D01*
X1160484Y1565591D02*
X1161120Y1564955D01*
X1161327D01*
X1154015Y1565591D02*
X1160484D01*
X1185322Y1581603D02*
X1187441D01*
X1185177Y1581457D02*
X1185322Y1581603D01*
X1187441D02*
X1187509Y1581534D01*
X1160634Y1583093D02*
X1160780Y1583239D01*
X1156531Y1583093D02*
X1160634D01*
X1153925Y1580487D02*
X1156531Y1583093D01*
X1228773Y1573999D02*
X1228979D01*
X1221420Y1573618D02*
X1228392D01*
X1228773Y1573999D01*
X1197404Y1554796D02*
X1197405Y1554797D01*
X1182316Y1593745D02*
Y1594406D01*
X1180581Y1596141D02*
X1182316Y1594406D01*
X1167419Y1576872D02*
X1167625D01*
X1168772Y1578019D01*
X1182316Y1593745D02*
X1183449Y1592612D01*
X1172145Y1578019D02*
X1174614Y1580487D01*
X1168772Y1578019D02*
X1172145D01*
X1153925Y1565501D02*
X1154015Y1565591D01*
X1168400Y1594771D02*
X1172915D01*
X1174612Y1596468D01*
X1183449Y1592612D02*
X1188768D01*
X804084Y1234560D02*
X807703Y1230941D01*
X814084Y1244560D02*
X817703Y1240940D01*
X807703Y1230941D02*
X807713D01*
X817703Y1240940D02*
X817713D01*
X1197710Y1573673D02*
X1204827D01*
X1221587Y1592612D02*
X1226820D01*
X1155598Y1594771D02*
X1160780D01*
X1153927Y1596442D02*
X1155598Y1594771D01*
X1187509Y1581534D02*
X1188831Y1582856D01*
X1197658Y1592612D02*
X1204441D01*
X1204881Y1573619D02*
X1212530D01*
X1172187Y1656834D02*
X1174612Y1659259D01*
X834073Y1324560D02*
X834084D01*
X1160574Y1626706D02*
X1160977Y1626302D01*
X1154235Y1626706D02*
X1160574D01*
X1160977Y1626302D02*
X1161183D01*
X846713Y1303893D02*
X847418Y1303189D01*
X847624D01*
X844740Y1303893D02*
X846713D01*
X844073Y1304560D02*
X844740Y1303893D01*
X837380Y1331263D02*
X837390D01*
X817380Y1311263D02*
X817390D01*
X814084Y1314560D02*
X817380Y1311263D01*
X834084Y1334560D02*
X837380Y1331263D01*
X834073Y1334560D02*
X834084D01*
X814073Y1314560D02*
X814084D01*
X787703Y1248702D02*
X790436Y1245969D01*
X777703Y1240940D02*
X777713D01*
X787703Y1248702D02*
Y1250941D01*
X774084Y1244560D02*
X777703Y1240940D01*
X784084Y1254560D02*
X787703Y1250941D01*
X824084Y1304560D02*
X827568Y1301076D01*
X824073Y1304560D02*
X824084D01*
X827568Y1298927D02*
Y1301076D01*
Y1298927D02*
X827713Y1298782D01*
X1153925Y1673712D02*
Y1682534D01*
X806802Y1350506D02*
Y1351832D01*
Y1350506D02*
X806947Y1350360D01*
X804073Y1354560D02*
X806802Y1351832D01*
X747703Y1120941D02*
X747713D01*
X744073Y1124560D02*
X744084D01*
X747703Y1120941D01*
X1237422Y1724660D02*
Y1731571D01*
X744097Y1174560D02*
X747690Y1170966D01*
X744073Y1174560D02*
X744097D01*
X747690Y1170966D02*
X747713D01*
X724084Y1174560D02*
X727703Y1170941D01*
X724073Y1174560D02*
X724084D01*
X727703Y1170941D02*
X727713D01*
X724079Y1164560D02*
X727698Y1160941D01*
X724073Y1164560D02*
X724079D01*
X727698Y1160941D02*
X727703D01*
X734073Y1154560D02*
X736872Y1151761D01*
X737447D01*
X737592Y1151615D01*
X744084Y1144560D02*
X747703Y1140941D01*
X744073Y1144560D02*
X744084D01*
X747703Y1140941D02*
X747713D01*
X1260441Y1702153D02*
X1264014Y1698580D01*
X1264048D01*
X1252408Y1702153D02*
X1252441D01*
X1256014Y1698580D01*
X1256048D01*
X1260408Y1702153D02*
X1260441D01*
X814236Y1354560D02*
X819519Y1349276D01*
X819681D01*
X1256037Y1690534D02*
X1256048D01*
X1252418Y1694153D02*
X1256037Y1690534D01*
X1252408Y1694153D02*
X1252418D01*
X1255046Y1684457D02*
X1255902D01*
X1256048Y1684312D01*
X1240776D02*
X1240922Y1684457D01*
X1241769D01*
X1288868Y1674706D02*
X1292316Y1678153D01*
X1288776Y1674706D02*
X1288868D01*
X1292316Y1678153D02*
X1292408D01*
X1263581Y1682990D02*
X1264212D01*
X1260418Y1686153D02*
X1263581Y1682990D01*
X1252408Y1686153D02*
X1253351D01*
X1255046Y1684457D01*
X1260408Y1686153D02*
X1260418D01*
X1243465D02*
X1244408D01*
X1241769Y1684457D02*
X1243465Y1686153D01*
X1264212Y1682990D02*
X1264358Y1682844D01*
X727678Y1190991D02*
X727713D01*
X724073Y1194560D02*
X724109D01*
X727678Y1190991D01*
X1174612Y1674245D02*
Y1682534D01*
X1264037Y1666534D02*
X1264048D01*
X1260418Y1670153D02*
X1264037Y1666534D01*
X1260408Y1670153D02*
X1260418D01*
X754084Y1214560D02*
X757703Y1210941D01*
X754073Y1214560D02*
X754084D01*
X757703Y1210941D02*
X757713D01*
X814084Y1324560D02*
X816885Y1321758D01*
X834073Y1344560D02*
X836885Y1341748D01*
X844073Y1354560D02*
X846885Y1351748D01*
X822835Y1327491D02*
X823407Y1326919D01*
X822835Y1327491D02*
Y1327697D01*
X816885Y1321758D02*
X816896D01*
X1160563Y1654642D02*
X1160769D01*
X1159768Y1655438D02*
X1160563Y1654642D01*
X1157214Y1655438D02*
X1159768D01*
X1153926Y1658725D02*
X1157214Y1655438D01*
X1197612Y1657869D02*
X1212641D01*
X1240776Y1666706D02*
X1240868D01*
X1244316Y1670153D02*
X1244408D01*
X1240868Y1666706D02*
X1244316Y1670153D01*
X1288868Y1650706D02*
X1292316Y1654153D01*
X1288776Y1650706D02*
X1288868D01*
X724519Y1204560D02*
X727507Y1201571D01*
X727713D01*
X724073Y1204560D02*
X724519D01*
X1260408Y1662153D02*
X1263291Y1659270D01*
X754084Y1234560D02*
X757703Y1230941D01*
X757713D01*
X754073Y1234560D02*
X754084D01*
X724084Y1144560D02*
X727703Y1140940D01*
X727713D01*
X724073Y1144560D02*
X724084D01*
X724084Y1134560D02*
X727703Y1130941D01*
X724073Y1134560D02*
X724084D01*
X727703Y1130941D02*
X727713D01*
X747703Y1220941D02*
X747713D01*
X744084Y1224560D02*
X747703Y1220941D01*
X744073Y1224560D02*
X744084D01*
X724073Y1214560D02*
X724076D01*
X727695Y1210941D01*
X727698D01*
X744073Y1254560D02*
X744084D01*
X747703Y1250941D01*
X747713D01*
X1183640Y1648759D02*
X1188720D01*
X1308408Y1638153D02*
X1308418D01*
X1312037Y1634534D02*
X1312048D01*
X1308418Y1638153D02*
X1312037Y1634534D01*
X1300418Y1646153D02*
X1304037Y1642534D01*
X1300408Y1646153D02*
X1300418D01*
X1304037Y1642534D02*
X1304048D01*
X1292316Y1646153D02*
X1292408D01*
X1288868Y1634706D02*
X1292316Y1638153D01*
X1300408D02*
X1300418D01*
X1304037Y1634534D01*
X1292316Y1638153D02*
X1292408D01*
X1304037Y1634534D02*
X1304048D01*
X1288776Y1634706D02*
X1288868D01*
X724084Y1224560D02*
X727703Y1220941D01*
X724073Y1224560D02*
X724084D01*
X727703Y1220941D02*
X727713D01*
X1304037Y1602534D02*
X1304048D01*
X1300418Y1606153D02*
X1304037Y1602534D01*
X1300408Y1606153D02*
X1300418D01*
X754084Y1254560D02*
X757703Y1250941D01*
X757713D01*
X754073Y1254560D02*
X754084D01*
X774084Y1234560D02*
X777703Y1230941D01*
X777713D01*
X774073Y1234560D02*
X774084D01*
X767703Y1220941D02*
X767713D01*
X764084Y1224560D02*
X767703Y1220941D01*
X764073Y1224560D02*
X764084D01*
X1183640Y1620487D02*
X1183689Y1620536D01*
X1188518D02*
X1188567Y1620586D01*
X1183689Y1620536D02*
X1188518D01*
X1197715Y1638909D02*
X1212504D01*
X1197521Y1639103D02*
X1197715Y1638909D01*
X1289118Y1611129D02*
X1289251D01*
X1292274Y1614153D02*
X1292408D01*
X1289251Y1611129D02*
X1292274Y1614153D01*
X804073Y1234560D02*
X804084D01*
X1203402Y1610893D02*
X1203733Y1611224D01*
X1206323D01*
X1197472Y1601917D02*
X1202359D01*
X1197523Y1610893D02*
X1203402D01*
X1202359Y1601917D02*
X1202715Y1601560D01*
X1205280D01*
X1221512Y1629537D02*
X1226820D01*
X1221588Y1638714D02*
X1226820D01*
X1260410Y1630153D02*
X1264029Y1626534D01*
X1252418Y1638153D02*
X1256037Y1634534D01*
X1252408Y1638153D02*
X1252418D01*
X1260408Y1630153D02*
X1260410D01*
X1264029Y1626534D02*
X1264031D01*
X1256037Y1634534D02*
X1256048D01*
X1260418Y1646153D02*
X1264037Y1642534D01*
X1264048D01*
X1260408Y1646153D02*
X1260418D01*
X1252418D02*
X1256037Y1642534D01*
X1252408Y1646153D02*
X1252418D01*
X1260408Y1638153D02*
X1260418D01*
X1264037Y1634534D01*
X1256037Y1642534D02*
X1256048D01*
X1264037Y1634534D02*
X1264048D01*
X1252408Y1654153D02*
X1252501D01*
X1255955Y1650699D01*
X1256048D01*
X1256037Y1626534D02*
X1256048D01*
X1252408Y1630153D02*
X1252418D01*
X1256037Y1626534D01*
X794084Y1234560D02*
X797703Y1230941D01*
X794073Y1234560D02*
X794084D01*
X797703Y1230941D02*
X797713D01*
X814073Y1244560D02*
X814084D01*
X1304506Y1618520D02*
X1304651Y1618374D01*
X1300418Y1622153D02*
X1304051Y1618520D01*
X1300408Y1622153D02*
X1300418D01*
X1304051Y1618520D02*
X1304506D01*
X1240868Y1634706D02*
X1244316Y1638153D01*
X1240776Y1634706D02*
X1240868D01*
X1206711Y1610951D02*
X1212400D01*
X1197466Y1610950D02*
X1197523Y1610893D01*
X807703Y1240940D02*
X807713D01*
X804073Y1244560D02*
X804084D01*
X807703Y1240940D01*
X794084Y1244560D02*
X797703Y1240940D01*
X794073Y1244560D02*
X794084D01*
X797703Y1240940D02*
X797713D01*
X1226770Y1620536D02*
X1226820Y1620586D01*
X1221294Y1620536D02*
X1226770D01*
X817703Y1250941D02*
X817713D01*
X1312037Y1586534D02*
X1312048D01*
X1308418Y1590153D02*
X1312037Y1586534D01*
X1308408Y1702153D02*
X1308418D01*
X1312037Y1698534D01*
X1312048D01*
X737693Y1110941D02*
X737693D01*
X734073Y1114560D02*
X737693Y1110941D01*
X734073Y1134560D02*
X737693Y1130941D01*
X734073Y1134560D02*
X734073D01*
X1292316Y1654153D02*
X1292408D01*
X1264029Y1618534D02*
X1264031D01*
X1260410Y1606153D02*
X1264029Y1602534D01*
Y1610534D02*
X1264031D01*
X1260408Y1614153D02*
X1260410D01*
Y1622153D02*
X1264029Y1618534D01*
X1260408Y1622153D02*
X1260410D01*
Y1614153D02*
X1264029Y1610534D01*
X1260408Y1606153D02*
X1260410D01*
X1264029Y1602534D02*
X1264031D01*
X1292316Y1630153D02*
X1292408D01*
X1288776Y1626706D02*
X1288868D01*
X1292316Y1630153D01*
X1288776Y1602706D02*
X1288868D01*
X1292316Y1606153D01*
X1292408D01*
X1288868Y1666706D02*
X1292316Y1670153D01*
X1288776Y1666706D02*
X1288868D01*
X1292316Y1670153D02*
X1292408D01*
X1292316Y1686153D02*
X1292408D01*
X1288776Y1682706D02*
X1288868D01*
X1292316Y1686153D01*
X1288776Y1658705D02*
X1288868D01*
X1292316Y1662153D01*
X1292408D01*
X1300418Y1614153D02*
X1304037Y1610534D01*
X1304048D01*
X1300408Y1614153D02*
X1300418D01*
X1323340Y1575597D02*
X1328189D01*
X1323341Y1649411D02*
X1328446D01*
X1323340Y1649412D02*
X1323341Y1649411D01*
X1312037Y1650534D02*
X1312048D01*
X1308418Y1654153D02*
X1312037Y1650534D01*
X1308408Y1654153D02*
X1308418D01*
X1300408Y1662153D02*
X1300418D01*
X1304037Y1658534D01*
X1304048D01*
X1356004Y1792371D02*
Y1805394D01*
Y1814371D01*
X1356019Y1823916D02*
X1356034Y1823931D01*
X1356019Y1814386D02*
Y1823916D01*
X1356004Y1814371D02*
X1356019Y1814386D01*
X1395404Y1803606D02*
X1395672Y1803875D01*
Y1805887D02*
X1398990Y1809204D01*
X1395672Y1803875D02*
Y1805887D01*
X1395404Y1803400D02*
Y1803606D01*
X1350105Y1787371D02*
X1356004D01*
X1295928Y1625673D02*
X1300408Y1630153D01*
X1290950Y1625673D02*
X1295928D01*
X1282483Y1617206D02*
X1290950Y1625673D01*
X1282483Y1571778D02*
Y1617206D01*
X1296728Y1567333D02*
Y1573619D01*
X777703Y1250941D02*
X777713D01*
X774073Y1254560D02*
X774084D01*
X777703Y1250941D01*
X777703Y1210941D02*
X777713D01*
X774073Y1214560D02*
X774084D01*
X777703Y1210941D01*
X774073Y1184560D02*
X774204D01*
X777737Y1181027D01*
X777867D01*
X784073Y1124560D02*
X784084D01*
X787703Y1120941D01*
X787713D01*
X727698D02*
X727703D01*
X724073Y1124560D02*
X724079D01*
X727698Y1120941D01*
X727703Y1110941D02*
X727713D01*
X724073Y1114560D02*
X724084D01*
X727703Y1110941D01*
X724073Y1184385D02*
X727343Y1181115D01*
X724073Y1184385D02*
Y1184560D01*
X727343Y1180940D02*
Y1181115D01*
X1240868Y1706706D02*
X1244316Y1710153D01*
X1244408D01*
X1240776Y1706706D02*
X1240868D01*
X1264037Y1706534D02*
X1264048D01*
X1260418Y1710153D02*
X1264037Y1706534D01*
X1260408Y1710153D02*
X1260418D01*
X726872Y1151761D02*
X727568D01*
X724073Y1154560D02*
X726872Y1151761D01*
X727568D02*
X727713Y1151615D01*
X757737Y1181027D02*
X757867D01*
X754073Y1184560D02*
X754204D01*
X757737Y1181027D01*
X744073Y1164560D02*
X744084D01*
X747703Y1160941D01*
X747713D01*
X734073Y1174510D02*
X737592Y1170991D01*
X734073Y1174510D02*
Y1174560D01*
X737592Y1170941D02*
Y1170991D01*
X896664Y1192144D02*
X900728Y1188080D01*
X896664Y1192144D02*
X896664D01*
X947713Y1220941D02*
X952671D01*
X1260408Y1654122D02*
X1264007Y1650523D01*
Y1650493D02*
Y1650523D01*
X1260408Y1654122D02*
Y1654153D01*
X747737Y1181027D02*
X747867D01*
X744073Y1184560D02*
X744204D01*
X747737Y1181027D01*
X734073Y1194510D02*
X737592Y1190991D01*
Y1190941D02*
Y1190991D01*
X734073Y1194510D02*
Y1194560D01*
X747703Y1200940D02*
X747713D01*
X744073Y1204560D02*
X744084D01*
X747703Y1200940D01*
X1227627Y1563488D02*
X1227833D01*
X1227059Y1564057D02*
X1227627Y1563488D01*
X1221461Y1564057D02*
X1227059D01*
X1260418Y1598153D02*
X1264389Y1594182D01*
X1264399D01*
X1260408Y1598153D02*
X1260418D01*
X794084Y1224560D02*
X797703Y1220941D01*
X794073Y1224560D02*
X794084D01*
X797703Y1220941D02*
X797713D01*
X1221460Y1564058D02*
X1221461Y1564057D01*
X1252418Y1606153D02*
X1256037Y1602534D01*
X1256048D01*
X1244316Y1606153D02*
X1244408D01*
X1252408D02*
X1252418D01*
X1240776Y1602706D02*
X1240868D01*
X1244316Y1606153D01*
X1256078Y1594492D02*
X1256089D01*
X1252408Y1598153D02*
X1252418D01*
X1256078Y1594492D01*
X1240776Y1586705D02*
X1240868D01*
X1244316Y1590153D01*
X1244408D01*
X1204929Y1601881D02*
X1212410D01*
X1197466Y1601922D02*
X1197472Y1601917D01*
X784073Y1254560D02*
X784084D01*
X787703Y1220941D02*
X787713D01*
X784084Y1224560D02*
X787703Y1220941D01*
X784073Y1224560D02*
X784084D01*
X1221245Y1620487D02*
X1221294Y1620536D01*
X814073Y1224495D02*
X817782Y1220786D01*
X814073Y1224495D02*
Y1224560D01*
X817782Y1220721D02*
Y1220786D01*
X1197657Y1573619D02*
X1197710Y1573673D01*
X1226820Y1579367D02*
Y1582012D01*
X1221530Y1583239D02*
X1225594D01*
X1226820Y1582012D01*
X1240922Y1593490D02*
Y1594759D01*
Y1593490D02*
X1240933Y1593479D01*
X1244316Y1598153D02*
X1244408D01*
X1240922Y1594759D02*
X1244316Y1598153D01*
X1197404Y1564056D02*
X1197506Y1564157D01*
X1221460Y1554798D02*
X1226614D01*
X1240776Y1618706D02*
X1240868D01*
X1244316Y1622153D02*
X1244408D01*
X1240868Y1618706D02*
X1244316Y1622153D01*
X1240776Y1610706D02*
X1240868D01*
X1244316Y1614153D02*
X1244408D01*
X1240868Y1610706D02*
X1244316Y1614153D01*
X1260418Y1590153D02*
X1264037Y1586534D01*
X1264048D01*
X764084Y1234560D02*
X767703Y1230941D01*
X764073Y1234560D02*
X764084D01*
X767703Y1230941D02*
X767713D01*
X747703D02*
X747713D01*
X1183640Y1601922D02*
X1188576D01*
X784084Y1234560D02*
X787703Y1230941D01*
X784073Y1234560D02*
X784084D01*
X787703Y1230941D02*
X787713D01*
X1204441Y1592612D02*
X1212697D01*
X917713Y1240940D02*
X922671D01*
X932571Y1231040D01*
X937593D01*
X944073Y1224560D01*
X952671Y1220941D02*
X964073Y1209538D01*
Y1204560D02*
Y1209538D01*
X900728Y1188080D02*
X920553D01*
X924073Y1184560D01*
X1125203Y869113D02*
X1127574Y866742D01*
X1113890Y869113D02*
X1125203D01*
X1127574Y866742D02*
X1128124D01*
X1137594Y866633D02*
X1137821D01*
X1128064Y875937D02*
X1128291D01*
X1137594Y866633D01*
X1127514Y875937D02*
X1128064D01*
X1113890Y874113D02*
X1125690D01*
X1127514Y875937D01*
X749175Y1090768D02*
Y1109674D01*
X754060Y1114560D01*
X745554Y1087147D02*
X749175Y1090768D01*
X726442Y1087147D02*
X745554D01*
X528217Y2119866D02*
Y2160724D01*
X527760Y2161182D02*
X528217Y2160724D01*
X892845Y1942326D02*
X892885Y1942366D01*
X809065Y2297069D02*
Y2300045D01*
X967815Y2246269D02*
X978765Y2257219D01*
X1000899D01*
X978942Y2266109D02*
X1000899D01*
X973382Y2271669D02*
X978942Y2266109D01*
X967815Y2271669D02*
X973382D01*
X768391Y1916429D02*
X770251Y1918289D01*
X770323D01*
X765470Y1916429D02*
X768391D01*
X1385908Y2051953D02*
X1393907Y2043954D01*
X1362760Y2051953D02*
X1385908D01*
X1360741Y2053973D02*
X1362760Y2051953D01*
X1360741Y2028573D02*
X1387417D01*
X1393907Y2035064D01*
X514645Y370840D02*
Y377763D01*
X485850Y387497D02*
X486271Y387075D01*
X514223D01*
X514645Y386653D01*
X200550Y646069D02*
X202267Y644352D01*
X200681Y633500D02*
X231637D01*
X200550Y633369D02*
X200681Y633500D01*
X240968Y624369D02*
X241078Y624479D01*
X240859Y611128D02*
X240968Y611237D01*
Y624369D01*
X236598Y628958D02*
X241078Y624479D01*
X225787Y628958D02*
X236598D01*
X217498Y620669D02*
X225787Y628958D01*
X200550Y620669D02*
X217498D01*
X180170Y607969D02*
X200550D01*
X174635Y602434D02*
X180170Y607969D01*
X174635Y586639D02*
Y602434D01*
X178705Y582569D02*
X200550D01*
X174635Y586639D02*
X178705Y582569D01*
X319527Y920167D02*
X320795Y918899D01*
X321557Y913311D02*
X322319D01*
X320795D02*
X321557D01*
X366057Y955347D02*
X366557D01*
X403557D02*
X415549Y967339D01*
X804084Y1214560D02*
X807703Y1210941D01*
X804073Y1214560D02*
X804084D01*
X807703Y1210941D02*
X807713D01*
X817568Y1298927D02*
Y1301076D01*
Y1298927D02*
X817713Y1298782D01*
X814084Y1304560D02*
X817568Y1301076D01*
X774073Y1244560D02*
X774084D01*
X744084Y1234560D02*
X747703Y1230941D01*
X744073Y1234560D02*
X744084D01*
X1328446Y1649411D02*
X1328447Y1649410D01*
X1323340Y1640243D02*
X1328244D01*
X1323340Y1631034D02*
X1328434D01*
X1323340Y1621946D02*
X1328506D01*
X1323340Y1612586D02*
X1328447D01*
X1323340Y1603326D02*
X1328295D01*
X1323340Y1594025D02*
X1328214D01*
X1323340Y1584833D02*
X1323341Y1584832D01*
X1328242D02*
X1328243Y1584831D01*
X1323341Y1584832D02*
X1328242D01*
X1221342Y1601839D02*
X1226820D01*
X1221291Y1610952D02*
X1226820D01*
X1221413Y1648759D02*
X1226820D01*
X1221682Y1667590D02*
X1226820D01*
X1221507Y1676997D02*
X1226820D01*
X1365004Y1777371D02*
X1370004Y1782371D01*
X1356004Y1777371D02*
X1365004D01*
X1375754Y1782371D02*
X1384004D01*
X1393658Y1787371D02*
X1402110Y1795824D01*
X1384004Y1787371D02*
X1393658D01*
X1390479Y1760431D02*
X1395404D01*
X1298254Y1764914D02*
X1300408Y1762760D01*
X1295828Y1772072D02*
X1298254Y1769646D01*
Y1764914D02*
Y1769646D01*
Y1784535D02*
Y1788859D01*
X1295828Y1791285D02*
X1298254Y1788859D01*
Y1784535D02*
X1300418Y1782371D01*
X1300262Y1803546D02*
Y1805023D01*
X1295828Y1809456D02*
Y1809872D01*
Y1809456D02*
X1300262Y1805023D01*
Y1803546D02*
X1300408Y1803400D01*
X1285154Y1827145D02*
X1291150D01*
X1294364Y1823931D01*
X1279808Y1832491D02*
Y1833625D01*
Y1832491D02*
X1285154Y1827145D01*
X1308764Y1830732D02*
X1315565Y1823931D01*
X1315720D01*
X1308764Y1830732D02*
Y1833625D01*
X1310814Y1809456D02*
X1315574Y1804697D01*
X1310814Y1809456D02*
Y1809872D01*
X1315574Y1803546D02*
Y1804697D01*
Y1803546D02*
X1315720Y1803400D01*
X1310814Y1771656D02*
X1315720Y1766750D01*
Y1762760D02*
Y1766750D01*
X1310814Y1771656D02*
Y1772072D01*
Y1790869D02*
X1315720Y1785963D01*
Y1782371D02*
Y1785963D01*
X1310814Y1790869D02*
Y1791285D01*
X1350458Y1772072D02*
X1350758Y1772371D01*
X1356004D01*
X1350252Y1772072D02*
X1350458D01*
X1350105Y1782371D02*
X1356004D01*
X1379074Y1620229D02*
Y1622007D01*
X1379220Y1622153D01*
X1374004Y1615033D02*
Y1615160D01*
X1379074Y1620229D01*
X1370004Y1623069D02*
X1371706Y1624771D01*
Y1628868D02*
X1374004Y1631167D01*
X1371706Y1624771D02*
Y1628868D01*
X1370004Y1623060D02*
Y1623069D01*
X1390479Y1769344D02*
X1395381D01*
X1395404Y1769321D01*
X1390457Y1769367D02*
X1390479Y1769344D01*
X1384004Y1769321D02*
Y1772371D01*
X1252418Y1724660D02*
Y1731561D01*
X1252408Y1731571D02*
X1252418Y1731561D01*
X1347350Y1710153D02*
X1347684Y1709819D01*
X1347144Y1710153D02*
X1347350D01*
X1347684Y1709819D02*
X1355249D01*
X1347144Y1694833D02*
X1355249D01*
X1347144Y1677647D02*
X1355247D01*
X1347858Y1662661D02*
X1355247D01*
X1347350Y1662153D02*
X1347858Y1662661D01*
X1347144Y1662153D02*
X1347350D01*
X1374004Y1646153D02*
Y1653620D01*
X1373678Y1653947D02*
X1374004Y1653620D01*
X1373678Y1653947D02*
Y1654153D01*
X1391987Y1646153D02*
X1391989Y1646154D01*
Y1654153D01*
X1391987Y1631040D02*
Y1631167D01*
X1386840Y1625893D02*
X1391987Y1631040D01*
X1386840Y1623060D02*
Y1625893D01*
X1391989Y1615033D02*
Y1615155D01*
X1398986Y1622153D01*
X1398990D01*
X1391987Y1600045D02*
X1391989Y1600047D01*
X1391987Y1592612D02*
Y1600045D01*
X1374004Y1592612D02*
Y1600047D01*
X1173480Y1612586D02*
X1174612Y1611454D01*
X1168400Y1612586D02*
X1173480D01*
X1158076Y1608111D02*
X1158367Y1607820D01*
X1160780D01*
X1153927Y1611428D02*
X1157244Y1608111D01*
X1158076D01*
X1153927Y1627014D02*
X1154235Y1626706D01*
X1153925Y1673712D02*
X1153926Y1673711D01*
X1183640Y1676997D02*
X1183763Y1677119D01*
X1188539D02*
X1188661Y1677242D01*
X1183763Y1677119D02*
X1188539D01*
X1183640Y1667326D02*
X1189237D01*
X1183640Y1657869D02*
X1188722D01*
X1183640Y1630098D02*
X1188523D01*
X1183641Y1610951D02*
X1188575D01*
X1188576Y1610950D01*
X1183640Y1610952D02*
X1183641Y1610951D01*
X1212569Y1554797D02*
X1212570Y1554798D01*
X1212569Y1564057D02*
X1212570Y1564058D01*
X1212530Y1573619D02*
X1212530Y1573618D01*
X1212448Y1583047D02*
X1212640Y1583239D01*
X1212410Y1601881D02*
X1212452Y1601839D01*
X1212400Y1610951D02*
X1212401Y1610952D01*
X1197506Y1620536D02*
X1212305D01*
X1212355Y1620487D01*
X1197457Y1620586D02*
X1197506Y1620536D01*
X1197694Y1629817D02*
X1212342D01*
X1212622Y1629537D01*
X1197413Y1630098D02*
X1197694Y1629817D01*
X1212504Y1638909D02*
X1212698Y1638714D01*
X1197610Y1648759D02*
X1212523D01*
X1212660Y1667458D02*
X1212792Y1667590D01*
X1198259Y1667458D02*
X1212660D01*
X1198127Y1667326D02*
X1198259Y1667458D01*
X1197674Y1677119D02*
X1212495D01*
X1212617Y1676997D01*
X1197551Y1677242D02*
X1197674Y1677119D01*
X1359739Y1649411D02*
X1364893D01*
X1364894Y1649410D01*
X1359738Y1649412D02*
X1359739Y1649411D01*
X1359738Y1640243D02*
X1364894D01*
X1359455Y1631035D02*
X1364893D01*
X1359454Y1631036D02*
X1359455Y1631035D01*
X1364893D02*
X1364894Y1631034D01*
X1364792Y1622051D02*
X1364894Y1622153D01*
X1359597Y1621948D02*
X1359700Y1622051D01*
X1364792D01*
X1359467Y1612586D02*
X1364254D01*
X1359246Y1603034D02*
X1364254D01*
X1359246Y1594027D02*
X1359247Y1594026D01*
X1364253D01*
X1364254Y1594025D01*
X1359246Y1584833D02*
X1359247Y1584832D01*
X1364253D01*
X1364254Y1584831D01*
X1363754Y1575891D02*
X1364048Y1575597D01*
X1364254D01*
X1359142Y1575891D02*
X1363754D01*
X1337079Y1575597D02*
X1337226Y1575744D01*
X1350105D01*
X1350252Y1575891D01*
X1350355Y1584832D02*
X1350356Y1584833D01*
X1337133Y1584831D02*
X1337134Y1584832D01*
X1350355D01*
Y1594026D02*
X1350356Y1594027D01*
X1337104Y1594025D02*
X1337105Y1594026D01*
X1350355D01*
X1337330Y1603180D02*
X1350211D01*
X1350356Y1603034D01*
X1337184Y1603326D02*
X1337330Y1603180D01*
X1337337Y1612586D02*
X1350577D01*
X1337397Y1621947D02*
X1350706D01*
X1337397Y1621946D02*
X1337397Y1621947D01*
X1350706D02*
X1350707Y1621948D01*
X1337325Y1631035D02*
X1350563D01*
X1337324Y1631034D02*
X1337325Y1631035D01*
X1350563D02*
X1350564Y1631036D01*
X1337134Y1640243D02*
X1350849D01*
X1337338Y1649411D02*
X1350848D01*
X1350849Y1649412D01*
X1337337Y1649410D02*
X1337338Y1649411D01*
X1292316Y1710153D02*
X1292408D01*
X1288868Y1706706D02*
X1292316Y1710153D01*
X1288776Y1706706D02*
X1288868D01*
X1300418Y1710153D02*
X1304037Y1706534D01*
X1300408Y1710153D02*
X1300418D01*
X1304037Y1706534D02*
X1304048D01*
X1308408Y1710153D02*
X1308418D01*
X1312037Y1706534D01*
X1312048D01*
X1300408Y1702153D02*
X1300418D01*
X1304037Y1698534D01*
X1304048D01*
X1288776Y1698706D02*
X1288868D01*
X1292316Y1702153D02*
X1292408D01*
X1288868Y1698706D02*
X1292316Y1702153D01*
Y1694153D02*
X1292408D01*
X1288868Y1690706D02*
X1292316Y1694153D01*
X1288776Y1690706D02*
X1288868D01*
X1300408Y1694153D02*
X1300418D01*
X1304037Y1690534D01*
X1304048D01*
X1312037D02*
X1312048D01*
X1308408Y1694153D02*
X1308418D01*
X1312037Y1690534D01*
X1308408Y1686153D02*
X1308418D01*
X1312037Y1682534D01*
X1312048D01*
X1300408Y1686153D02*
X1300418D01*
X1304037Y1682534D01*
X1304048D01*
X1300408Y1678153D02*
X1300418D01*
X1304037Y1674534D01*
X1304048D01*
X1312037D02*
X1312048D01*
X1308408Y1678153D02*
X1308418D01*
X1312037Y1674534D01*
X1308418Y1670153D02*
X1312037Y1666534D01*
X1312048D01*
X1308408Y1670153D02*
X1308418D01*
X1300418D02*
X1304037Y1666534D01*
X1300408Y1670153D02*
X1300418D01*
X1304037Y1666534D02*
X1304048D01*
X1308418Y1662153D02*
X1312037Y1658534D01*
X1312048D01*
X1308408Y1662153D02*
X1308418D01*
X1304037Y1650534D02*
X1304048D01*
X1300408Y1654153D02*
X1300418D01*
X1304037Y1650534D01*
X1300408Y1630153D02*
X1300418D01*
X1312037Y1618534D02*
X1312048D01*
X1308408Y1622153D02*
X1308418D01*
X1312037Y1618534D01*
X1312037Y1610534D02*
X1312048D01*
X1308408Y1614153D02*
X1308418D01*
X1312037Y1610534D01*
X1308418Y1606153D02*
X1312037Y1602534D01*
X1312048D01*
X1308408Y1606153D02*
X1308418D01*
X1288868Y1594706D02*
X1292316Y1598153D01*
X1292408D01*
X1288776Y1594706D02*
X1288868D01*
X1300408Y1598153D02*
X1300418D01*
X1304037Y1594534D01*
X1304048D01*
X1308408Y1598153D02*
X1308418D01*
X1312037Y1594534D01*
X1312048D01*
X1308408Y1590153D02*
X1308418D01*
X1300418D02*
X1304037Y1586534D01*
X1304048D01*
X1300408Y1590153D02*
X1300418D01*
X1260408D02*
X1260418D01*
X1252408D02*
X1252418D01*
X1256037Y1586534D01*
X1256048D01*
X1256037Y1610534D02*
X1256048D01*
X1252408Y1614153D02*
X1252418D01*
X1256037Y1610534D01*
X1256037Y1618534D02*
X1256048D01*
X1252408Y1622153D02*
X1252418D01*
X1256037Y1618534D01*
X1244316Y1638153D02*
X1244408D01*
X1240868Y1650706D02*
X1244316Y1654153D01*
X1244408D01*
X1240776Y1650706D02*
X1240868D01*
X1256037Y1658534D02*
X1256048D01*
X1252408Y1662153D02*
X1252418D01*
X1256037Y1658534D01*
X1252418Y1670153D02*
X1256037Y1666534D01*
X1252408Y1670153D02*
X1252418D01*
X1256037Y1666534D02*
X1256048D01*
X1264037Y1674534D02*
X1264048D01*
X1260408Y1678153D02*
X1260418D01*
X1264037Y1674534D01*
X1252408Y1678153D02*
X1252418D01*
X1256037Y1674534D01*
X1256048D01*
X1240776Y1674706D02*
X1240868D01*
X1244316Y1678153D02*
X1244408D01*
X1240868Y1674706D02*
X1244316Y1678153D01*
X1260418Y1694153D02*
X1264037Y1690534D01*
X1260408Y1694153D02*
X1260418D01*
X1264037Y1690534D02*
X1264048D01*
X1244316Y1694153D02*
X1244408D01*
X1240868Y1690706D02*
X1244316Y1694153D01*
X1240776Y1690706D02*
X1240868D01*
Y1698706D02*
X1244316Y1702153D01*
X1244408D01*
X1240776Y1698706D02*
X1240868D01*
X1252408Y1710153D02*
X1252418D01*
X1256037Y1706534D01*
X1256048D01*
X505100Y1446691D02*
X512261D01*
X505100Y1446690D02*
X505100Y1446691D01*
X512261D02*
X512262Y1446692D01*
X522259Y1446690D02*
X522291Y1446722D01*
X528578D01*
X528610Y1446754D01*
X824073Y1334560D02*
X824084D01*
X823407Y1325226D02*
X824073Y1324560D01*
X827557Y1331086D02*
X828832D01*
X824084Y1334560D02*
X827557Y1331086D01*
X828832D02*
X828978Y1330941D01*
X823407Y1325226D02*
Y1326919D01*
X520024Y1359296D02*
X522259Y1357060D01*
X515010Y1359296D02*
X520024D01*
X817542Y1327175D02*
Y1329413D01*
X817703Y1329575D01*
Y1330941D01*
X817396Y1327029D02*
X817542Y1327175D01*
X814084Y1334560D02*
X817703Y1330941D01*
X814073Y1354560D02*
X814236D01*
X814073Y1344560D02*
X817749Y1340884D01*
X817909D01*
X814073Y1344560D02*
X814073D01*
X814073Y1334560D02*
X814084D01*
X560720Y1330966D02*
Y1338308D01*
X562701Y1365584D02*
X568761D01*
X562685Y1365567D02*
X562701Y1365584D01*
X571149Y1385118D02*
X576266D01*
X578690Y1395390D02*
X578691D01*
X579338Y1396037D02*
X581466D01*
X581612Y1396183D01*
X576266Y1385118D02*
X576774Y1385627D01*
X579098D01*
X579187Y1385715D01*
X568761Y1365584D02*
X568777Y1365600D01*
X578691Y1395390D02*
X579338Y1396037D01*
X490659Y1442247D02*
X497216D01*
X724393Y1571248D02*
X732805D01*
X740255Y1578697D01*
X705108Y1551963D02*
X724393Y1571248D01*
X705108Y1577363D02*
X708220Y1580475D01*
X733142D02*
X740255Y1587587D01*
X708220Y1580475D02*
X733142D01*
X824073Y1354560D02*
X827693Y1350941D01*
X578044Y1394744D02*
X578690Y1395390D01*
X578275Y1403631D02*
X579317D01*
X580759Y1402189D01*
X580965D01*
X577742Y1404164D02*
X578275Y1403631D01*
X571070Y1394744D02*
X578044D01*
X837162Y1351471D02*
X837932D01*
X834073Y1354560D02*
X837162Y1351471D01*
X837932D02*
X838077Y1351325D01*
X535410Y1422059D02*
Y1429547D01*
X570946Y1404164D02*
X577742D01*
X545159Y1410059D02*
X547543Y1412443D01*
X548460D02*
X550350Y1414333D01*
X547543Y1412443D02*
X548460D01*
X571010Y1385258D02*
X571149Y1385118D01*
X814073Y1304560D02*
X814084D01*
X814073Y1324560D02*
X814084D01*
X571015Y1394688D02*
X571070Y1394744D01*
X570939Y1404157D02*
X570946Y1404164D01*
X577585Y1413433D02*
X577600Y1413418D01*
X570940Y1413447D02*
X570954Y1413433D01*
X577585D01*
X570940Y1422897D02*
X571057Y1422780D01*
X577610D02*
X577727Y1422663D01*
X571057Y1422780D02*
X577610D01*
X562685Y1376117D02*
X568777D01*
X540609Y1330941D02*
Y1338306D01*
X530240Y1330941D02*
Y1338308D01*
X550560Y1330941D02*
Y1338308D01*
X515410Y1344560D02*
Y1344766D01*
X515010Y1345166D02*
Y1350406D01*
Y1345166D02*
X515410Y1344766D01*
X477406Y1312060D02*
Y1320123D01*
X476935Y1320594D02*
X477406Y1320123D01*
X476935Y1320594D02*
Y1320800D01*
X464166Y1317328D02*
X464892Y1318054D01*
X464166Y1312060D02*
Y1317328D01*
X464892Y1318054D02*
Y1318260D01*
X469086Y1349818D02*
X475515D01*
X469086Y1336991D02*
X475515D01*
X481846Y1403447D02*
X488009D01*
X488155Y1403593D02*
X489193D01*
X490659Y1405059D02*
X493410D01*
X488009Y1403447D02*
X488155Y1403593D01*
X489193D02*
X490659Y1405059D01*
X477472Y1408366D02*
X477618Y1408220D01*
Y1407675D02*
X481846Y1403447D01*
X477618Y1407675D02*
Y1408220D01*
X480169Y1396837D02*
X484926D01*
X488148Y1400059D02*
X493410D01*
X484926Y1396837D02*
X488148Y1400059D01*
X478490Y1395158D02*
X480169Y1396837D01*
X495410Y1313564D02*
Y1350406D01*
X493905Y1312060D02*
X495410Y1313564D01*
X505100Y1344560D02*
Y1350406D01*
X462043Y1328101D02*
X469086D01*
X493905Y1287780D02*
Y1296560D01*
X454571Y1318054D02*
X455276Y1317349D01*
Y1312060D02*
Y1317349D01*
X454571Y1318054D02*
Y1318260D01*
X490659Y1420961D02*
X493410Y1418211D01*
Y1415059D02*
Y1418211D01*
X504311Y1432094D02*
X505410Y1430996D01*
Y1422059D02*
Y1430996D01*
X504311Y1432094D02*
Y1432300D01*
X525410Y1422059D02*
Y1429558D01*
X530410Y1422059D02*
Y1433242D01*
X542410Y1415059D02*
X544417D01*
X545159Y1415801D01*
Y1419860D01*
X542410Y1410059D02*
X545159D01*
X515410Y1370309D02*
X517859Y1367859D01*
X515410Y1370309D02*
Y1373059D01*
X517859Y1367759D02*
Y1367859D01*
X510410Y1370309D02*
X515010Y1365709D01*
Y1359296D02*
Y1365709D01*
X389816Y1426361D02*
Y1436320D01*
X384734Y1441401D02*
X389816Y1436320D01*
X384734Y1441401D02*
Y1449595D01*
X390855Y1425321D02*
X408759D01*
X410205Y1426767D01*
X389816Y1426361D02*
X390855Y1425321D01*
X410205Y1426767D02*
X426155D01*
X426263Y1426659D01*
X431086D01*
X479227Y1393380D02*
X480906Y1395059D01*
X423625Y1422837D02*
X453082Y1393380D01*
X480906Y1395059D02*
X493410D01*
X431086Y1426659D02*
X462587Y1395158D01*
X453082Y1393380D02*
X479227D01*
X462587Y1395158D02*
X478490D01*
X361439Y1422837D02*
X423625D01*
X384734Y1359217D02*
X389136Y1354816D01*
X431800D01*
X462043Y1385059D01*
X493410D01*
X361471Y1384465D02*
X423657D01*
X429251Y1390059D02*
X493410D01*
X423657Y1384465D02*
X429251Y1390059D01*
X495410Y1359296D02*
Y1365309D01*
X500410Y1370309D01*
Y1373059D01*
X505100Y1359296D02*
X505255Y1359451D01*
Y1372904D01*
X505410Y1373059D01*
X510410Y1370309D02*
Y1373059D01*
X530240Y1347198D02*
Y1354816D01*
X520410Y1364646D02*
X530240Y1354816D01*
X520410Y1364646D02*
Y1373059D01*
X540609Y1347196D02*
Y1352130D01*
X525410Y1367330D02*
X540609Y1352130D01*
X525410Y1367330D02*
Y1373059D01*
X530410Y1367348D02*
Y1373059D01*
Y1367348D02*
X550560Y1347198D01*
X536152Y1369567D02*
X538350D01*
X535410Y1370309D02*
Y1373059D01*
X538350Y1369567D02*
X560720Y1347198D01*
X535410Y1370309D02*
X536152Y1369567D01*
X542410Y1385059D02*
X542509Y1385159D01*
X562020D02*
X562120Y1385258D01*
X542509Y1385159D02*
X562020D01*
X550350Y1390059D02*
X554979Y1394688D01*
X542410Y1390059D02*
X550350D01*
X554979Y1394688D02*
X562125D01*
X548078Y1395059D02*
X557175Y1404157D01*
X542410Y1395059D02*
X548078D01*
X557175Y1404157D02*
X562049D01*
X548661Y1400059D02*
X562050Y1413447D01*
X542410Y1400059D02*
X548661D01*
X553136Y1413036D02*
Y1413983D01*
X562050Y1422897D01*
X545159Y1405059D02*
X553136Y1413036D01*
X542410Y1405059D02*
X545159D01*
X520410Y1422059D02*
Y1424809D01*
X522259Y1426659D02*
Y1437800D01*
X520410Y1424809D02*
X522259Y1426659D01*
X512262Y1431902D02*
X515410Y1428754D01*
X512262Y1431902D02*
Y1437802D01*
X515410Y1422059D02*
Y1428754D01*
X497216Y1428003D02*
X500410Y1424809D01*
X497216Y1428003D02*
Y1433357D01*
X500410Y1422059D02*
Y1424809D01*
X472907Y1397366D02*
Y1403399D01*
X472956Y1403447D01*
X472858Y1397317D02*
X472907Y1397366D01*
X454571Y1349818D02*
X460196D01*
X423564Y1458661D02*
Y1466558D01*
X423464Y1458561D02*
X423564Y1458661D01*
Y1466558D02*
X423665Y1466659D01*
X393704Y1427480D02*
Y1435338D01*
Y1372307D02*
Y1380059D01*
X423503Y1350326D02*
X431086D01*
X431594Y1349818D01*
X431800D01*
X423484Y1431868D02*
X423505Y1431847D01*
X423464Y1449671D02*
X423484Y1449650D01*
X393624Y1449595D02*
X393662Y1449633D01*
X423426D02*
X423464Y1449671D01*
X423503Y1359216D02*
X423504Y1359216D01*
Y1375422D02*
X423505Y1375423D01*
X423503Y1359216D02*
X423503Y1359216D01*
X393624Y1359217D02*
X393625Y1359216D01*
X361319Y1359217D02*
X384734D01*
X384424Y1371917D02*
X384814Y1372307D01*
X361319Y1371917D02*
X384424D01*
X361319Y1384617D02*
X361471Y1384465D01*
X361319Y1422717D02*
X361439Y1422837D01*
X361359Y1435378D02*
X384774D01*
X384814Y1435338D01*
X361319Y1435417D02*
X361359Y1435378D01*
X383995Y1448856D02*
X384734Y1449595D01*
X361319Y1448117D02*
X362058Y1448856D01*
X383995D01*
X252324Y1359296D02*
X252363Y1359256D01*
X269840D02*
X269879Y1359217D01*
X252363Y1359256D02*
X269840D01*
X218499Y1380807D02*
X224899D01*
X226899Y1378807D01*
X240034Y1381777D02*
Y1429067D01*
X229016Y1370759D02*
X240034Y1381777D01*
X123788Y1370759D02*
X229016D01*
X224170Y1363027D02*
X241812Y1380669D01*
X103580Y1363027D02*
X224170D01*
X241812Y1380669D02*
Y1405445D01*
X252324Y1384617D02*
X269879D01*
X220737Y1405045D02*
X226315D01*
X218499Y1402807D02*
X220737Y1405045D01*
X288339Y1372513D02*
Y1422237D01*
X241812Y1405445D02*
X259084Y1422717D01*
X240034Y1429067D02*
X259084Y1448117D01*
X287743Y1371917D02*
X288339Y1372513D01*
X281509Y1429067D02*
X288339Y1422237D01*
X254004Y1437522D02*
X258250Y1441767D01*
X256980Y1453197D02*
X282778D01*
X283515Y1454975D02*
X287532Y1450958D01*
X258250Y1429067D02*
X281509D01*
X240287Y1436504D02*
X256980Y1453197D01*
X282778D02*
X285754Y1450222D01*
X281508Y1441767D02*
X285754Y1446013D01*
X287532Y1442275D02*
Y1450958D01*
X258250Y1441767D02*
X281508D01*
X252324Y1454975D02*
X283515D01*
X285754Y1446013D02*
Y1450222D01*
X215928Y1436504D02*
X240287D01*
X280674Y1435417D02*
X287532Y1442275D01*
X246944Y1449595D02*
X252324Y1454975D01*
X120559Y1279207D02*
X122559D01*
X114289Y1272937D02*
X120559Y1279207D01*
X93033Y1272937D02*
X114289D01*
X92289Y1273681D02*
X93033Y1272937D01*
X92289Y1273681D02*
Y1306292D01*
X98500Y1312502D01*
Y1345112D01*
X94690Y1348922D02*
X98500Y1345112D01*
X94690Y1348922D02*
Y1367363D01*
X100513Y1373187D01*
X121360D01*
X100559Y1279207D02*
Y1285731D01*
X102634Y1287806D01*
X106754D01*
X108829Y1289881D01*
Y1320273D01*
X103580Y1325523D02*
X108829Y1320273D01*
X103580Y1325523D02*
Y1363027D01*
X203867Y1459943D02*
X203867Y1459942D01*
Y1449595D02*
X203867Y1449595D01*
X203867Y1449595D02*
Y1459942D01*
Y1439676D02*
X203867Y1439676D01*
Y1449595D01*
X203867Y1449595D01*
X203179Y1428882D02*
X203523Y1429226D01*
Y1439332D01*
X203867Y1439676D01*
X203179Y1418893D02*
Y1428882D01*
X269879Y1371917D02*
X287743D01*
X254004Y1433313D02*
Y1437522D01*
Y1433313D02*
X258250Y1429067D01*
X212757Y1439676D02*
X215928Y1436504D01*
X269879Y1435417D02*
X280674D01*
X212757Y1449595D02*
X246944D01*
X203867Y1475740D02*
X203867Y1475740D01*
X203867Y1468833D02*
X203867Y1468833D01*
Y1475740D01*
X510410Y1422059D02*
Y1429547D01*
X259084Y1422717D02*
X269879D01*
X259084Y1448117D02*
X269879D01*
X121360Y1373187D02*
X123788Y1370759D01*
X218499Y1378807D02*
Y1380807D01*
X212229Y1372537D02*
X218499Y1378807D01*
X163758Y1372537D02*
X212229D01*
X103580Y1383347D02*
X152948D01*
X163758Y1372537D01*
X199362Y1416727D02*
X202261Y1413827D01*
X196463Y1422703D02*
X199362Y1419803D01*
Y1416727D02*
Y1419803D01*
X202261Y1413827D02*
X209479D01*
X168904Y1393507D02*
X194289Y1418893D01*
X121360Y1393507D02*
X168904D01*
X130235Y1422703D02*
X196463D01*
X121360Y1413827D02*
X130235Y1422703D01*
X103580Y1403667D02*
X112216Y1395031D01*
X119836D01*
X121360Y1393507D01*
Y1434147D02*
X189024D01*
X194289Y1428882D01*
X119836Y1432623D02*
X121360Y1434147D01*
X112215Y1432623D02*
X119836D01*
X103580Y1423987D02*
X112215Y1432623D01*
X218499Y1402807D02*
Y1404807D01*
X209479Y1413827D02*
X218499Y1404807D01*
X814073Y1254560D02*
X814084D01*
X964073Y1184560D02*
X964084D01*
D191*
X903338Y1374234D02*
X904635D01*
X899677Y1369275D02*
Y1370732D01*
X903402D01*
X893667D02*
X899677D01*
X903338Y1370796D02*
Y1380204D01*
Y1370796D02*
X903402Y1370732D01*
X794779Y2221040D02*
X808893D01*
D192*
X1311714Y1567333D02*
Y1573619D01*
X779140Y1877494D02*
Y1885729D01*
X743220Y1873524D02*
X758139D01*
X728340D02*
X743220D01*
X758139D02*
X758220Y1873604D01*
X703220Y1873524D02*
X708916D01*
X712190Y1876797D01*
X688220Y1873524D02*
X693916D01*
X697190Y1876797D01*
X661646Y1874159D02*
X664920Y1877432D01*
X655950Y1874159D02*
X661646D01*
X883915Y1932206D02*
Y1942286D01*
Y1922046D02*
Y1932206D01*
Y1942286D02*
X883995Y1942366D01*
X1035125Y1770019D02*
Y1791609D01*
X1043301Y1727201D02*
Y1735093D01*
X458989Y2385720D02*
X465850Y2392581D01*
X458989Y2382329D02*
Y2385720D01*
X505129Y2395348D02*
X511950Y2402169D01*
X470932Y2373439D02*
X492841Y2395348D01*
X458989Y2373439D02*
X470932D01*
X492841Y2395348D02*
X505129D01*
X458989Y2362500D02*
Y2373439D01*
X425430Y2362009D02*
X425509Y2362088D01*
X442210Y2362500D02*
X450099D01*
X441797Y2362088D02*
X442210Y2362500D01*
X425509Y2362088D02*
X441797D01*
X470640Y2574012D02*
X494453D01*
X505297Y2563169D01*
X539200D01*
X390155Y2518300D02*
X418586D01*
X420946Y2520660D01*
X390155Y2531000D02*
X419496D01*
X420946Y2529550D01*
D193*
X470742Y2565224D02*
X489660D01*
X470640Y2565122D02*
X470742Y2565224D01*
X505975Y2528144D02*
Y2548909D01*
Y2528144D02*
X511950Y2522169D01*
X489660Y2565224D02*
X505975Y2548909D01*
D194*
X1008860Y482874D02*
X1019472D01*
X772960Y427319D02*
X809865Y464225D01*
X772960Y406569D02*
Y427319D01*
X673245Y471514D02*
X675800Y474069D01*
X636339Y407108D02*
Y427858D01*
X673245Y464764D02*
Y471514D01*
X636339Y427858D02*
X673245Y464764D01*
X635800Y406569D02*
X636339Y407108D01*
X783813Y2347869D02*
X809065D01*
X775410Y2339465D02*
X783813Y2347869D01*
X767028Y2331083D02*
X775410Y2339465D01*
D195*
X258871Y2238475D02*
Y2256021D01*
Y2223976D02*
Y2238475D01*
X268416D01*
X280579Y2250638D01*
X289026Y2217341D02*
X293891Y2222206D01*
X331180D01*
X252236Y2217341D02*
X289026D01*
X252237Y2262656D02*
X258871Y2256021D01*
X252236Y2217341D02*
X258871Y2223976D01*
X185682Y2267041D02*
X198688D01*
X214303Y2282656D01*
X242737D01*
X172982Y2254341D02*
X185682Y2267041D01*
D196*
X109282Y2206134D02*
X152296Y2163121D01*
X157712D02*
X159565Y2161269D01*
X152296Y2163121D02*
X157712D01*
X109282Y2206134D02*
Y2254341D01*
D197*
X1156065Y1261027D02*
D03*
X1103140Y1023435D02*
D03*
X596303Y1260698D02*
D03*
X60589Y57350D02*
D03*
X1387552Y73434D02*
D03*
X1399540Y2637025D02*
D03*
X68020Y2645049D02*
D03*
D198*
X528610Y1386859D02*
D03*
X517910D02*
D03*
X507210D02*
D03*
X528610Y1397559D02*
D03*
X517910D02*
D03*
X507210D02*
D03*
X528610Y1408259D02*
D03*
X517910D02*
D03*
X507210D02*
D03*
D199*
X152900Y294811D02*
D03*
X178300Y269411D02*
D03*
X127500D02*
D03*
Y320211D02*
D03*
X178300D02*
D03*
X152900Y193211D02*
D03*
X178300Y167811D02*
D03*
X127500D02*
D03*
Y218611D02*
D03*
X178300D02*
D03*
X181857Y821997D02*
D03*
X131057D02*
D03*
Y771197D02*
D03*
X181857D02*
D03*
X156457Y796597D02*
D03*
X181857Y933757D02*
D03*
X131057D02*
D03*
Y882957D02*
D03*
X181857D02*
D03*
X156457Y908357D02*
D03*
D200*
X68020Y1708589D02*
D03*
Y1758589D02*
D03*
Y1808589D02*
D03*
D201*
Y1858589D02*
D03*
D202*
X83260Y2527449D02*
D03*
Y2407049D02*
D03*
X159565Y2119269D02*
D03*
Y2161269D02*
D03*
X214565Y2077269D02*
D03*
Y2119269D02*
D03*
Y2161269D02*
D03*
D203*
X56260Y2454749D02*
D03*
Y2479749D02*
D03*
X36260Y2454749D02*
D03*
Y2479749D02*
D03*
D204*
X78180Y1335087D02*
D03*
Y1462087D02*
D03*
D205*
X103580Y1363027D02*
D03*
D206*
Y1383347D02*
D03*
Y1403667D02*
D03*
Y1423987D02*
D03*
X121360Y1373187D02*
D03*
Y1393507D02*
D03*
Y1413827D02*
D03*
Y1434147D02*
D03*
X169620Y1330007D02*
D03*
Y1444307D02*
D03*
Y1467167D02*
D03*
Y1352867D02*
D03*
D207*
X159565Y2077269D02*
D03*
D208*
X747713Y1210941D02*
D03*
X737077Y1211576D02*
D03*
X1288882Y1642812D02*
D03*
X1265826Y1659270D02*
D03*
X1226161Y1658528D02*
D03*
X1240776Y1658705D02*
D03*
X1163777Y1643156D02*
D03*
X1166963Y1655590D02*
D03*
X849715Y1338342D02*
D03*
X866464Y1342169D02*
D03*
X846607Y1322047D02*
D03*
X838067Y1320587D02*
D03*
X848067Y1330587D02*
D03*
X939963Y1328691D02*
D03*
X1182589Y1565106D02*
D03*
X1174558Y1557074D02*
D03*
X976122Y1352532D02*
D03*
X874531Y1224123D02*
D03*
X867102Y1211811D02*
D03*
X1227873Y1553745D02*
D03*
X866805Y1291849D02*
D03*
X856805Y1281849D02*
D03*
X923063Y1345591D02*
D03*
X867000Y1311654D02*
D03*
X1169036Y1628901D02*
D03*
X884394Y1344260D02*
D03*
X1184492Y1638251D02*
D03*
X1168758Y1638356D02*
D03*
X899677Y1369275D02*
D03*
X904635Y1374234D02*
D03*
X855523Y1253131D02*
D03*
X895523Y1293131D02*
D03*
X905523Y1303131D02*
D03*
X845523Y1243131D02*
D03*
X837070Y1232276D02*
D03*
X1204945Y1588172D02*
D03*
X1182987Y1571841D02*
D03*
X1183922Y1554514D02*
D03*
X1205181Y1583047D02*
D03*
X857086Y1211658D02*
D03*
X867041Y1221613D02*
D03*
X877041Y1231613D02*
D03*
X967041Y1321613D02*
D03*
X947041Y1301613D02*
D03*
X887041Y1241613D02*
D03*
X929391Y1269263D02*
D03*
X965824Y1302830D02*
D03*
X994484Y1334356D02*
D03*
X878493Y1210161D02*
D03*
X947081Y1281573D02*
D03*
X990643Y1350630D02*
D03*
X867713Y1230941D02*
D03*
X877713Y1240940D02*
D03*
X907713Y1270941D02*
D03*
X847713Y1211199D02*
D03*
X991992Y1353575D02*
D03*
X857713Y1220941D02*
D03*
X1204786Y1563488D02*
D03*
X1204987Y1554797D02*
D03*
X1204881Y1569682D02*
D03*
X1161327Y1564955D02*
D03*
X839460Y1249194D02*
D03*
X834460Y1244194D02*
D03*
X844460Y1254194D02*
D03*
X824460Y1234194D02*
D03*
X820309Y1230043D02*
D03*
X895869Y1272785D02*
D03*
X935869Y1312785D02*
D03*
X885989Y1262905D02*
D03*
X925869Y1302785D02*
D03*
X855869Y1232785D02*
D03*
X865869Y1242785D02*
D03*
X1185177Y1581457D02*
D03*
X1160780Y1583239D02*
D03*
X1228979Y1573999D02*
D03*
X878922Y1249732D02*
D03*
X1167419Y1576872D02*
D03*
X1180581Y1596141D02*
D03*
X826547Y1242107D02*
D03*
X807713Y1230941D02*
D03*
X827713Y1250941D02*
D03*
X1168400Y1594771D02*
D03*
X817713Y1240940D02*
D03*
X1226820Y1592612D02*
D03*
X1160780Y1594771D02*
D03*
X892984Y1395332D02*
D03*
X825014Y1313640D02*
D03*
X1161183Y1626302D02*
D03*
X847624Y1303189D02*
D03*
X836545Y1292109D02*
D03*
X892548Y1386421D02*
D03*
X817390Y1311263D02*
D03*
X837390Y1331263D02*
D03*
X847250Y1311404D02*
D03*
X790436Y1245969D02*
D03*
X787917Y1240936D02*
D03*
X777713Y1240940D02*
D03*
X911816Y1375970D02*
D03*
X826544Y1282109D02*
D03*
X805554Y1270941D02*
D03*
X827713Y1298782D02*
D03*
X817713Y1290941D02*
D03*
X878614Y1408209D02*
D03*
X1153925Y1682534D02*
D03*
X878264Y1430366D02*
D03*
X872583Y1424369D02*
D03*
X806947Y1350360D02*
D03*
X876829Y1418474D02*
D03*
X871788Y1447372D02*
D03*
X834505Y1403983D02*
D03*
X825916Y1395393D02*
D03*
X708406Y1255337D02*
D03*
X762360Y1342973D02*
D03*
X787173Y1341992D02*
D03*
X737713Y1280941D02*
D03*
X757713Y1300941D02*
D03*
X876012Y1454827D02*
D03*
X876376Y1441135D02*
D03*
X817120Y1380752D02*
D03*
X868124Y1468585D02*
D03*
X868487Y1478268D02*
D03*
X862354Y1473588D02*
D03*
X862677Y1483876D02*
D03*
X868487Y1488440D02*
D03*
X727713Y1350941D02*
D03*
X736861Y1321783D02*
D03*
X747713Y1340941D02*
D03*
X757713Y1320941D02*
D03*
X1020449Y1299327D02*
D03*
X987462Y1254952D02*
D03*
X1023964Y1291453D02*
D03*
X967826Y1220828D02*
D03*
X964339Y1204315D02*
D03*
X1021685Y1252088D02*
D03*
X1026758Y1257161D02*
D03*
X969992Y1178662D02*
D03*
X945681Y1162973D02*
D03*
X997823Y1203887D02*
D03*
X1003948Y1198818D02*
D03*
X927946Y1180948D02*
D03*
X917826Y1170828D02*
D03*
X967713Y1160941D02*
D03*
X1001243Y1300706D02*
D03*
X1256048Y1698580D02*
D03*
X1264048D02*
D03*
X872587Y1399668D02*
D03*
X819681Y1349276D02*
D03*
X809529Y1339124D02*
D03*
X1256048Y1690534D02*
D03*
X1240776Y1684312D02*
D03*
X1256048D02*
D03*
X1288776Y1674706D02*
D03*
X1264358Y1682844D02*
D03*
X1174612Y1682534D02*
D03*
X1264048Y1666534D02*
D03*
X836885Y1341748D02*
D03*
X846885Y1351748D02*
D03*
X822835Y1327697D02*
D03*
X816896Y1321758D02*
D03*
X1160769Y1654642D02*
D03*
X1205126Y1657869D02*
D03*
X1240776Y1666706D02*
D03*
X1288776Y1650706D02*
D03*
X727713Y1140940D02*
D03*
Y1130941D02*
D03*
X817713D02*
D03*
X947713Y1170941D02*
D03*
X727713Y1190991D02*
D03*
X747713Y1220941D02*
D03*
X757713Y1230941D02*
D03*
X767560Y1241094D02*
D03*
X967713Y1240940D02*
D03*
X727698Y1210941D02*
D03*
X990758Y1270658D02*
D03*
X737703Y1240940D02*
D03*
X1183640Y1648759D02*
D03*
X1312048Y1634534D02*
D03*
X1304048Y1642534D02*
D03*
X1288776Y1634706D02*
D03*
X1304048Y1634534D02*
D03*
X757713Y1210941D02*
D03*
X937713Y1250941D02*
D03*
X1304048Y1602534D02*
D03*
X797560Y1271094D02*
D03*
X767713Y1220941D02*
D03*
X1183640Y1620487D02*
D03*
X1205110Y1638909D02*
D03*
X1289118Y1611129D02*
D03*
X757713Y1220941D02*
D03*
X1206323Y1611224D02*
D03*
X1205280Y1601560D02*
D03*
X1226820Y1629537D02*
D03*
Y1638714D02*
D03*
X1264031Y1626534D02*
D03*
X1256048Y1634534D02*
D03*
X1264048Y1642534D02*
D03*
Y1634534D02*
D03*
X1256048Y1642534D02*
D03*
Y1650699D02*
D03*
Y1626534D02*
D03*
X845410Y1263484D02*
D03*
X1304651Y1618374D02*
D03*
X1240776Y1634706D02*
D03*
X1226820Y1620586D02*
D03*
X907693Y1340941D02*
D03*
X827867Y1261027D02*
D03*
X817713Y1250941D02*
D03*
X887713Y1320941D02*
D03*
X928971Y1129683D02*
D03*
X887713Y1160941D02*
D03*
X1323340Y1594025D02*
D03*
X947713Y1220941D02*
D03*
X927713Y1200940D02*
D03*
X877713Y1150941D02*
D03*
X1312048Y1586534D02*
D03*
Y1698534D02*
D03*
X1287909Y1562749D02*
D03*
X1264031Y1610534D02*
D03*
Y1618534D02*
D03*
Y1602534D02*
D03*
X1288776Y1626706D02*
D03*
Y1602706D02*
D03*
Y1666706D02*
D03*
Y1682706D02*
D03*
Y1658705D02*
D03*
X1304048Y1610534D02*
D03*
X1323340Y1575597D02*
D03*
Y1649412D02*
D03*
X1312048Y1650534D02*
D03*
X1304048Y1658534D02*
D03*
X1350105Y1787371D02*
D03*
X1347144Y1818640D02*
D03*
X727713Y1220941D02*
D03*
Y1201571D02*
D03*
X727343Y1180940D02*
D03*
X1240776Y1706706D02*
D03*
X1264048Y1706534D02*
D03*
X727703Y1160941D02*
D03*
X727713Y1170941D02*
D03*
X806819Y1512763D02*
D03*
X747713Y1140941D02*
D03*
X1019019Y1327847D02*
D03*
X966587Y1262067D02*
D03*
X896664Y1192144D02*
D03*
X757713Y1170966D02*
D03*
X747713D02*
D03*
X995407Y1284074D02*
D03*
X1264007Y1650493D02*
D03*
X807867Y1180740D02*
D03*
X747867Y1181027D02*
D03*
X737592Y1190941D02*
D03*
X1227833Y1563488D02*
D03*
X1264399Y1594182D02*
D03*
X1256048Y1602534D02*
D03*
X1240776Y1602706D02*
D03*
X1256089Y1594492D02*
D03*
X1240776Y1586705D02*
D03*
X777713Y1220941D02*
D03*
X787713D02*
D03*
X777713Y1230941D02*
D03*
X797713Y1240940D02*
D03*
X847557Y1221096D02*
D03*
X837713Y1220941D02*
D03*
X817782Y1220721D02*
D03*
X857713Y1240940D02*
D03*
X807464Y1221190D02*
D03*
X797713Y1220941D02*
D03*
X837713Y1211199D02*
D03*
X1240933Y1593479D02*
D03*
X1226820Y1579367D02*
D03*
X1240776Y1618706D02*
D03*
Y1610706D02*
D03*
X1264048Y1586534D02*
D03*
X698192Y1323166D02*
D03*
X773096Y1512763D02*
D03*
X747713Y1230941D02*
D03*
X1183640Y1601922D02*
D03*
X825264Y1915536D02*
D03*
X828239Y1919523D02*
D03*
X825233Y1922529D02*
D03*
X777563Y1886487D02*
D03*
X780638Y1882742D02*
D03*
X727289Y1889523D02*
D03*
X729142Y1886273D02*
D03*
X719235Y1857359D02*
D03*
X716876Y1859755D02*
D03*
X698680Y1857359D02*
D03*
X696321Y1859755D02*
D03*
X752416Y1872338D02*
D03*
X748642Y1875404D02*
D03*
X737382Y1871867D02*
D03*
X733904Y1875287D02*
D03*
X711939Y1878068D02*
D03*
X708916Y1873524D02*
D03*
X696939Y1878068D02*
D03*
X693916Y1873524D02*
D03*
X661646Y1874159D02*
D03*
X664669Y1878703D02*
D03*
X660031Y1885694D02*
D03*
X661848Y1890640D02*
D03*
X708207Y1860167D02*
D03*
X710678Y1857022D02*
D03*
X687431Y1859755D02*
D03*
X689790Y1857359D02*
D03*
X766290Y1887153D02*
D03*
X771282Y1884162D02*
D03*
X768868Y1881638D02*
D03*
X759185Y1886522D02*
D03*
X757320Y1890691D02*
D03*
X744069Y1886394D02*
D03*
X742164Y1889465D02*
D03*
X704037Y1886384D02*
D03*
X702246Y1890132D02*
D03*
X689111Y1886243D02*
D03*
X687206Y1889735D02*
D03*
X621755Y1942406D02*
D03*
X618038Y1947249D02*
D03*
X668816Y1942418D02*
D03*
X672436Y1940485D02*
D03*
X672589Y1925486D02*
D03*
X669031Y1927480D02*
D03*
X640605Y2001834D02*
D03*
X603720Y2004334D02*
D03*
X882237Y1937401D02*
D03*
X885177Y1927040D02*
D03*
X891961Y1937295D02*
D03*
X893672Y1927185D02*
D03*
X942552Y1968372D02*
D03*
X946071Y1975217D02*
D03*
X913213Y1775384D02*
D03*
X910422Y1778945D02*
D03*
X922211Y1746278D02*
D03*
X926252Y1742910D02*
D03*
X1033511Y1786193D02*
D03*
X1036719Y1775555D02*
D03*
X1044659Y1726190D02*
D03*
X1041543Y1729031D02*
D03*
X1045141Y1750206D02*
D03*
X1041836Y1754038D02*
D03*
X1020557Y1790559D02*
D03*
X1025120Y1786239D02*
D03*
X1018781Y1780747D02*
D03*
X1024677Y1775293D02*
D03*
X1020518Y1769963D02*
D03*
X1013492Y1766127D02*
D03*
X1017409Y1761241D02*
D03*
X461733Y2388461D02*
D03*
X465850Y2392581D02*
D03*
X533556Y2382335D02*
D03*
X544565Y2382419D02*
D03*
X737774Y2458401D02*
D03*
X748262Y2451397D02*
D03*
X584512Y2382419D02*
D03*
X573502Y2382335D02*
D03*
X742064Y2470241D02*
D03*
X749068Y2480730D02*
D03*
X496018Y2572447D02*
D03*
X475432D02*
D03*
X485009Y2576105D02*
D03*
X520854Y2564842D02*
D03*
X526033Y2561429D02*
D03*
X377786Y2527336D02*
D03*
X377097Y2482394D02*
D03*
X376664Y2495792D02*
D03*
X377791Y2509146D02*
D03*
X405367Y2520064D02*
D03*
X415990Y2516378D02*
D03*
X405064Y2528996D02*
D03*
X415990Y2532204D02*
D03*
X475560Y2562845D02*
D03*
X485013Y2568951D02*
D03*
X491766Y2558793D02*
D03*
X496347Y2562433D02*
D03*
X503217Y2539943D02*
D03*
X508502Y2536596D02*
D03*
X143785Y2346789D02*
D03*
Y2356289D02*
D03*
X341330Y1826741D02*
D03*
X323931Y1933084D02*
D03*
X351815Y1881589D02*
D03*
X881244Y1047082D02*
D03*
X885312Y1055712D02*
D03*
X888163Y1060692D02*
D03*
X881320Y1060768D02*
D03*
X888338Y1083807D02*
D03*
X882147Y1083768D02*
D03*
X805193Y1059451D02*
D03*
X794483Y1059408D02*
D03*
X804981Y1048069D02*
D03*
X801984Y1051649D02*
D03*
X798848Y1047819D02*
D03*
X795628Y1051566D02*
D03*
X792298Y1047847D02*
D03*
X807249Y1084529D02*
D03*
X805014Y1082040D02*
D03*
X793455Y1084746D02*
D03*
X796271Y1081742D02*
D03*
X799735Y1086046D02*
D03*
X863257Y1089353D02*
D03*
X841150D02*
D03*
X1393838Y1778030D02*
D03*
X1388255Y1776521D02*
D03*
X592183Y181595D02*
D03*
X587966Y182558D02*
D03*
X589507Y162039D02*
D03*
X586527Y171611D02*
D03*
X585857Y187221D02*
D03*
X577125Y183006D02*
D03*
X574951Y187255D02*
D03*
X590234Y282003D02*
D03*
X586545Y275282D02*
D03*
X584169Y282048D02*
D03*
X576700Y278090D02*
D03*
X574143Y274854D02*
D03*
X1020201Y480562D02*
D03*
X1015771Y485098D02*
D03*
X775817Y422287D02*
D03*
X771292Y428143D02*
D03*
X803716Y458597D02*
D03*
X797859Y453007D02*
D03*
X660699D02*
D03*
X666556Y458597D02*
D03*
X634132Y428143D02*
D03*
X638657Y422287D02*
D03*
X547669Y856455D02*
D03*
X541021Y871960D02*
D03*
X541926Y896960D02*
D03*
X488663Y937861D02*
D03*
X500917Y938053D02*
D03*
X513362Y937938D02*
D03*
X531285Y938183D02*
D03*
X539408Y931531D02*
D03*
X553906Y916585D02*
D03*
X551813Y1543676D02*
D03*
X540803Y1543592D02*
D03*
X543307Y1684159D02*
D03*
X555181Y1666954D02*
D03*
X527844Y1753808D02*
D03*
X515970Y1771014D02*
D03*
X242075Y1699101D02*
D03*
X228911Y1692865D02*
D03*
X214881Y1699880D02*
D03*
X164822Y1673638D02*
D03*
X171750Y1663678D02*
D03*
X165341Y1652332D02*
D03*
X453923Y2154595D02*
D03*
X465198Y2140856D02*
D03*
X416883Y2177671D02*
D03*
X424964Y2150397D02*
D03*
X417150Y2122448D02*
D03*
X416412Y2069855D02*
D03*
X424492Y2047902D02*
D03*
X415775Y2032865D02*
D03*
X444741Y2229470D02*
D03*
X385456Y2229362D02*
D03*
X439197Y2216888D02*
D03*
X429600Y2227337D02*
D03*
X415632Y2216461D02*
D03*
X401237Y2227870D02*
D03*
X391214Y2217207D02*
D03*
X358372Y2227231D02*
D03*
X346174Y2212613D02*
D03*
X374499Y1724452D02*
D03*
X381476Y1717888D02*
D03*
X374137Y1711842D02*
D03*
X349372Y1709462D02*
D03*
X342808Y1702486D02*
D03*
X336762Y1709824D02*
D03*
X354330Y1745475D02*
D03*
X399587Y1746411D02*
D03*
X314994Y1746411D02*
D03*
X216513Y1637102D02*
D03*
X210467Y1644441D02*
D03*
X203904Y1637464D02*
D03*
X300513Y1637102D02*
D03*
X294467Y1644441D02*
D03*
X287903Y1637464D02*
D03*
X279913Y563472D02*
D03*
X263840Y551584D02*
D03*
X251059Y566095D02*
D03*
X236493Y551417D02*
D03*
X222147Y569778D02*
D03*
X215338Y558392D02*
D03*
X602319Y928377D02*
D03*
X596160Y924034D02*
D03*
X558652Y931247D02*
D03*
X566267Y924265D02*
D03*
X637578Y1037425D02*
D03*
X644555Y1030862D02*
D03*
X637216Y1024815D02*
D03*
X785202Y960594D02*
D03*
X801406Y949581D02*
D03*
X785694Y939340D02*
D03*
X801055Y931413D02*
D03*
X847372Y939067D02*
D03*
X840708Y934680D02*
D03*
X726982Y912617D02*
D03*
X734320Y918663D02*
D03*
X727343Y925227D02*
D03*
X838237Y967642D02*
D03*
X845214Y961078D02*
D03*
X837876Y955032D02*
D03*
X996565Y805637D02*
D03*
X1003542Y799073D02*
D03*
X996204Y793027D02*
D03*
X1061302Y859008D02*
D03*
X1048787Y862542D02*
D03*
X1054755Y855068D02*
D03*
X1054791Y873684D02*
D03*
X1058588Y869261D02*
D03*
X987793Y900959D02*
D03*
X985394Y887205D02*
D03*
X974998Y907197D02*
D03*
X1059733Y890474D02*
D03*
X1067379Y886527D02*
D03*
X1059979Y879189D02*
D03*
X1078325Y870863D02*
D03*
X1019169Y1134320D02*
D03*
X995997Y1141024D02*
D03*
X992443Y1133072D02*
D03*
X691164Y782579D02*
D03*
X699011Y792317D02*
D03*
X704589Y802717D02*
D03*
X699768Y772935D02*
D03*
X713477Y779175D02*
D03*
X601902Y839630D02*
D03*
X596089Y844167D02*
D03*
X563464Y844815D02*
D03*
X551785Y832288D02*
D03*
X543738Y836010D02*
D03*
X666590Y287142D02*
D03*
X662005Y297792D02*
D03*
X675323Y296376D02*
D03*
X671389Y299067D02*
D03*
X678808Y239071D02*
D03*
X687198Y244190D02*
D03*
X676785Y244160D02*
D03*
X614465Y180917D02*
D03*
X684755Y170077D02*
D03*
X691353Y173471D02*
D03*
X676623Y165484D02*
D03*
X663215Y180683D02*
D03*
X658748Y172515D02*
D03*
X672820Y181481D02*
D03*
X677701Y185916D02*
D03*
X667682Y185693D02*
D03*
X680001Y194189D02*
D03*
X1006401Y1289062D02*
D03*
X989741Y1306109D02*
D03*
X992427Y1316433D02*
D03*
X887713Y1200940D02*
D03*
X877713Y1190941D02*
D03*
X1025511Y1339154D02*
D03*
X501438Y2423265D02*
D03*
X530645Y2423126D02*
D03*
X624516Y1737490D02*
D03*
X614282Y1745111D02*
D03*
X610907Y1697102D02*
D03*
X602851Y1686651D02*
D03*
X578575Y1643323D02*
D03*
X556366Y1621223D02*
D03*
X662289Y1334200D02*
D03*
X673693Y1323507D02*
D03*
X704483Y1202227D02*
D03*
X313077Y254328D02*
D03*
X306085Y256488D02*
D03*
X295432Y264615D02*
D03*
X289209Y267946D02*
D03*
X350406Y218204D02*
D03*
X339606Y226454D02*
D03*
X335945Y230302D02*
D03*
X324299Y216611D02*
D03*
X296129Y234719D02*
D03*
X251321Y889002D02*
D03*
X266984Y883404D02*
D03*
X263113Y877598D02*
D03*
X329454Y191704D02*
D03*
X323018Y187849D02*
D03*
X310216Y201500D02*
D03*
X272870Y216673D02*
D03*
X283055Y228697D02*
D03*
X274295Y429677D02*
D03*
X254961Y447060D02*
D03*
X303106Y810964D02*
D03*
X292176Y806095D02*
D03*
X287754Y816281D02*
D03*
X977713Y1100940D02*
D03*
X897713Y1110941D02*
D03*
X777703D02*
D03*
X678829Y1168573D02*
D03*
X684739Y1174758D02*
D03*
X696482Y1150881D02*
D03*
X703893Y1157616D02*
D03*
X677758Y1141353D02*
D03*
X668242Y1132496D02*
D03*
X702207Y1137970D02*
D03*
X707608Y1116515D02*
D03*
X703785Y1111272D02*
D03*
X1145497Y858150D02*
D03*
X1142494Y853575D02*
D03*
X1122484Y861211D02*
D03*
X1117706Y857955D02*
D03*
X1141551Y881833D02*
D03*
X1135661Y889741D02*
D03*
X1120882Y889905D02*
D03*
X709869Y1086768D02*
D03*
X893750Y1404036D02*
D03*
X690749Y1254649D02*
D03*
X546819Y1376750D02*
D03*
X542943Y1373880D02*
D03*
X546679Y1370618D02*
D03*
X1045854Y1030468D02*
D03*
X1051097Y1026645D02*
D03*
Y1036145D02*
D03*
X1045854Y1039968D02*
D03*
X279086Y2044712D02*
D03*
X290960Y2027507D02*
D03*
X279189Y2156214D02*
D03*
X291063Y2139008D02*
D03*
X371650Y2276985D02*
D03*
X429143Y2280662D02*
D03*
X401177Y2281351D02*
D03*
X363430Y2265369D02*
D03*
X353372Y2276945D02*
D03*
X277990Y2300953D02*
D03*
X284813Y2294656D02*
D03*
X212597Y2242341D02*
D03*
X219419Y2236043D02*
D03*
X479250Y2177800D02*
D03*
X549270Y2168312D02*
D03*
X593998Y2212626D02*
D03*
X579811Y2220421D02*
D03*
X563265Y2209657D02*
D03*
X506889Y2180222D02*
D03*
X502942Y2184734D02*
D03*
X599440Y2168312D02*
D03*
X575170D02*
D03*
X587112Y2162279D02*
D03*
X561865Y2168312D02*
D03*
X555667Y2162279D02*
D03*
X683488Y2147493D02*
D03*
X700693Y2159367D02*
D03*
X794779Y2221040D02*
D03*
X775410Y2339465D02*
D03*
X791963Y2347994D02*
D03*
X927077Y2176327D02*
D03*
X920101Y2182890D02*
D03*
X927439Y2188937D02*
D03*
X1379272Y1958300D02*
D03*
X1386610Y1964347D02*
D03*
X1379633Y1970910D02*
D03*
X1318615Y1960681D02*
D03*
X1325376Y1977762D02*
D03*
X1345540Y1991877D02*
D03*
X1310668Y1993063D02*
D03*
X1301060Y1944907D02*
D03*
X1327985Y1934231D02*
D03*
X782466Y2311133D02*
D03*
X724674D02*
D03*
X745194Y2299496D02*
D03*
X1138120Y2081800D02*
D03*
X1117600Y2093437D02*
D03*
X1175392D02*
D03*
X1191260Y2118360D02*
D03*
X1201991Y2025045D02*
D03*
X1077946Y1939192D02*
D03*
X1095151Y1951066D02*
D03*
X904071Y1924193D02*
D03*
X900552Y1917347D02*
D03*
X1000899Y2176881D02*
D03*
X1017290Y2200549D02*
D03*
X1000899Y2222440D02*
D03*
X1063137Y2332988D02*
D03*
X1080342Y2344862D02*
D03*
X770323Y1918289D02*
D03*
X802509Y1903573D02*
D03*
X791583Y1904021D02*
D03*
X1182243Y1911562D02*
D03*
X1170369Y1928767D02*
D03*
X468434Y490381D02*
D03*
X477862Y502730D02*
D03*
X405115Y637175D02*
D03*
X386432Y625764D02*
D03*
X272160Y473372D02*
D03*
X279608Y482747D02*
D03*
X521329Y1140593D02*
D03*
X479814Y1098764D02*
D03*
X209489Y685049D02*
D03*
X225787Y692534D02*
D03*
X183406Y691399D02*
D03*
X166257D02*
D03*
X514645Y370840D02*
D03*
X302432Y625764D02*
D03*
X319637Y637638D02*
D03*
X225898Y619139D02*
D03*
X226307Y605432D02*
D03*
X220051Y612287D02*
D03*
X203642Y428603D02*
D03*
X188112Y417886D02*
D03*
X173760Y428603D02*
D03*
X223759Y660520D02*
D03*
X205679Y653764D02*
D03*
X192792Y667349D02*
D03*
X212889Y469114D02*
D03*
X195686Y484448D02*
D03*
X180853Y497369D02*
D03*
X737693Y1110941D02*
D03*
X727713D02*
D03*
X727703Y1120941D02*
D03*
X737592Y1151615D02*
D03*
X737693Y1130941D02*
D03*
X727713Y1151615D02*
D03*
X737592Y1170941D02*
D03*
X827713Y1220941D02*
D03*
Y1211199D02*
D03*
X847713Y1230941D02*
D03*
X867713Y1250941D02*
D03*
X817713Y1298782D02*
D03*
X767604Y1200940D02*
D03*
X846456Y1202198D02*
D03*
X777713Y1190941D02*
D03*
X857713D02*
D03*
X867713Y1200940D02*
D03*
X817632Y1190859D02*
D03*
X827713Y1190941D02*
D03*
X787713Y1200940D02*
D03*
X797713Y1210941D02*
D03*
X837713Y1200940D02*
D03*
X827713D02*
D03*
X857713D02*
D03*
X777713Y1171816D02*
D03*
X877867Y1261027D02*
D03*
X1323340Y1584833D02*
D03*
Y1603326D02*
D03*
Y1612586D02*
D03*
Y1621946D02*
D03*
Y1631034D02*
D03*
Y1640243D02*
D03*
X1226820Y1601839D02*
D03*
Y1610952D02*
D03*
Y1648759D02*
D03*
Y1667590D02*
D03*
Y1676997D02*
D03*
X1385034Y1797620D02*
D03*
X1386840Y1803400D02*
D03*
X1379220Y1801101D02*
D03*
X1315720Y1823931D02*
D03*
X1350105Y1782371D02*
D03*
X1350252Y1772072D02*
D03*
X1315720Y1762760D02*
D03*
Y1782371D02*
D03*
Y1803400D02*
D03*
X1379220Y1622153D02*
D03*
X1370004Y1623060D02*
D03*
X1294364Y1823931D02*
D03*
X1300408Y1762760D02*
D03*
Y1803400D02*
D03*
X1300418Y1782371D02*
D03*
X1367504Y1809872D02*
D03*
X1365004Y1801101D02*
D03*
X1395404Y1803400D02*
D03*
X1390479Y1760431D02*
D03*
X1390457Y1769367D02*
D03*
X1384004Y1769321D02*
D03*
X1237422Y1724660D02*
D03*
X1296728Y1573619D02*
D03*
X1311714D02*
D03*
X1347144Y1694833D02*
D03*
Y1677647D02*
D03*
X1398990Y1622153D02*
D03*
X1386840Y1623060D02*
D03*
X1168400Y1612586D02*
D03*
X1160780Y1607820D02*
D03*
X1252418Y1724660D02*
D03*
X1347144Y1710153D02*
D03*
Y1662153D02*
D03*
X1391987Y1592612D02*
D03*
X1374004D02*
D03*
X1373678Y1654153D02*
D03*
X1391989D02*
D03*
X1183640Y1610952D02*
D03*
Y1630098D02*
D03*
Y1657869D02*
D03*
Y1667326D02*
D03*
Y1676997D02*
D03*
X1205084Y1677119D02*
D03*
X1205459Y1667458D02*
D03*
X1205067Y1648759D02*
D03*
X1205018Y1629817D02*
D03*
X1204906Y1620536D02*
D03*
X1343665Y1575744D02*
D03*
X1343745Y1584832D02*
D03*
X1343730Y1594026D02*
D03*
X1343770Y1603180D02*
D03*
X1343957Y1612586D02*
D03*
X1344052Y1621947D02*
D03*
X1343944Y1631035D02*
D03*
X1343991Y1640243D02*
D03*
X1344093Y1649411D02*
D03*
X1364254Y1575597D02*
D03*
Y1584831D02*
D03*
Y1594025D02*
D03*
Y1603034D02*
D03*
Y1612586D02*
D03*
X1364894Y1622153D02*
D03*
Y1631034D02*
D03*
Y1640243D02*
D03*
Y1649410D02*
D03*
X828978Y1330941D02*
D03*
X522259Y1357060D02*
D03*
X505100Y1446690D02*
D03*
X528610Y1446754D02*
D03*
X817396Y1327029D02*
D03*
X827713Y1340941D02*
D03*
X817909Y1340884D02*
D03*
X560720Y1330966D02*
D03*
X568777Y1365600D02*
D03*
X579187Y1385715D02*
D03*
X581612Y1396183D02*
D03*
X250094Y1064894D02*
D03*
X235285Y1081679D02*
D03*
X155485Y1205674D02*
D03*
X138279Y1193800D02*
D03*
X259827Y1237298D02*
D03*
X195580Y1102995D02*
D03*
X172446Y1075668D02*
D03*
X209258Y1129664D02*
D03*
X227490Y1156335D02*
D03*
X388563Y1171588D02*
D03*
X401240Y1185336D02*
D03*
X550952Y1030158D02*
D03*
X540321Y1018445D02*
D03*
X529198Y1031241D02*
D03*
X403557Y1064546D02*
D03*
X445681Y1063679D02*
D03*
X490659Y1442247D02*
D03*
X820191Y1647172D02*
D03*
X831200Y1647256D02*
D03*
X753799Y1562158D02*
D03*
X742790Y1562074D02*
D03*
X790379Y1529993D02*
D03*
X731143Y1523253D02*
D03*
X877867Y1389918D02*
D03*
X827693Y1350941D02*
D03*
X580965Y1402189D02*
D03*
X838077Y1351325D02*
D03*
X535410Y1429547D02*
D03*
X550350Y1414333D02*
D03*
X577600Y1413418D02*
D03*
X577727Y1422663D02*
D03*
X568777Y1376117D02*
D03*
X540609Y1330941D02*
D03*
X550560D02*
D03*
X530240D02*
D03*
X488009Y1403447D02*
D03*
X477472Y1408366D02*
D03*
X464892Y1318260D02*
D03*
X515410Y1344560D02*
D03*
X476935Y1320800D02*
D03*
X475515Y1336991D02*
D03*
Y1349818D02*
D03*
X505100Y1344560D02*
D03*
X462043Y1328101D02*
D03*
X493905Y1287780D02*
D03*
X454571Y1318260D02*
D03*
X490659Y1420961D02*
D03*
X504311Y1432300D02*
D03*
X517859Y1367759D02*
D03*
X545159Y1419860D02*
D03*
X530410Y1433242D02*
D03*
X525410Y1429558D02*
D03*
X967713Y1120941D02*
D03*
X967703Y1280941D02*
D03*
X737703Y1201571D02*
D03*
Y1120941D02*
D03*
Y1160941D02*
D03*
X837693Y1110941D02*
D03*
X797703D02*
D03*
X937703Y1100940D02*
D03*
X917703Y1110941D02*
D03*
X877569D02*
D03*
X486682Y1411193D02*
D03*
X481748Y1419620D02*
D03*
X478607Y1422837D02*
D03*
X464892Y1419860D02*
D03*
X470698D02*
D03*
X472858Y1397317D02*
D03*
X454571Y1349818D02*
D03*
X423665Y1466659D02*
D03*
X393704Y1427480D02*
D03*
X431800Y1349818D02*
D03*
X393704Y1380059D02*
D03*
X252324Y1359296D02*
D03*
X226899Y1378807D02*
D03*
X252324Y1384617D02*
D03*
X226315Y1405045D02*
D03*
X203867Y1475740D02*
D03*
X510410Y1429547D02*
D03*
X737713Y1300941D02*
D03*
Y1220941D02*
D03*
Y1140940D02*
D03*
Y1180940D02*
D03*
Y1260941D02*
D03*
X967713Y1140940D02*
D03*
X937713Y1110941D02*
D03*
X857713D02*
D03*
X817713D02*
D03*
X727713Y1100940D02*
D03*
X947713Y1130941D02*
D03*
Y1140940D02*
D03*
Y1150940D02*
D03*
X907713Y1160941D02*
D03*
X917713Y1120941D02*
D03*
Y1140941D02*
D03*
X927713Y1150941D02*
D03*
X937713Y1120941D02*
D03*
X867713Y1170941D02*
D03*
X877713Y1120941D02*
D03*
Y1140941D02*
D03*
X897713Y1130941D02*
D03*
X827713Y1160941D02*
D03*
Y1150941D02*
D03*
Y1140941D02*
D03*
Y1130941D02*
D03*
Y1120941D02*
D03*
X837713Y1140941D02*
D03*
Y1160941D02*
D03*
Y1170941D02*
D03*
X847713Y1140941D02*
D03*
Y1150941D02*
D03*
Y1160941D02*
D03*
Y1170941D02*
D03*
X857713Y1140941D02*
D03*
Y1170941D02*
D03*
X787713Y1160941D02*
D03*
Y1120941D02*
D03*
X797713Y1130941D02*
D03*
X817713Y1140941D02*
D03*
Y1150941D02*
D03*
Y1160941D02*
D03*
X777713Y1150941D02*
D03*
Y1130941D02*
D03*
X757713Y1160941D02*
D03*
X747713Y1120941D02*
D03*
Y1160941D02*
D03*
X947713Y1190941D02*
D03*
X937713D02*
D03*
Y1200940D02*
D03*
Y1210941D02*
D03*
Y1240940D02*
D03*
X927713Y1190941D02*
D03*
Y1210941D02*
D03*
X917713Y1190941D02*
D03*
Y1200940D02*
D03*
Y1210941D02*
D03*
Y1240940D02*
D03*
X907867Y1181027D02*
D03*
X907713Y1200940D02*
D03*
Y1210941D02*
D03*
Y1220941D02*
D03*
X897867Y1181027D02*
D03*
X897713Y1200940D02*
D03*
Y1210941D02*
D03*
Y1220941D02*
D03*
X887867Y1181027D02*
D03*
X887713Y1190941D02*
D03*
Y1210941D02*
D03*
Y1220941D02*
D03*
X877713Y1200940D02*
D03*
X867713Y1190941D02*
D03*
X857867Y1181027D02*
D03*
X847867D02*
D03*
X847713Y1190941D02*
D03*
X947867Y1261027D02*
D03*
X947713Y1330941D02*
D03*
X927713Y1310941D02*
D03*
Y1320941D02*
D03*
X917713Y1300941D02*
D03*
Y1310941D02*
D03*
Y1320941D02*
D03*
Y1330941D02*
D03*
X907713Y1310941D02*
D03*
Y1320941D02*
D03*
X897713Y1300941D02*
D03*
Y1310941D02*
D03*
Y1320941D02*
D03*
Y1330941D02*
D03*
X887713Y1290941D02*
D03*
Y1300941D02*
D03*
Y1310941D02*
D03*
Y1330941D02*
D03*
X877713Y1280941D02*
D03*
Y1290941D02*
D03*
Y1300941D02*
D03*
Y1310941D02*
D03*
Y1320941D02*
D03*
Y1330941D02*
D03*
X867713Y1270941D02*
D03*
Y1280941D02*
D03*
Y1300941D02*
D03*
Y1320941D02*
D03*
Y1330941D02*
D03*
X857713Y1270941D02*
D03*
Y1290941D02*
D03*
Y1310941D02*
D03*
Y1320941D02*
D03*
Y1330941D02*
D03*
X837867Y1181027D02*
D03*
X837713Y1190941D02*
D03*
X807713Y1210941D02*
D03*
Y1240940D02*
D03*
Y1300941D02*
D03*
Y1310941D02*
D03*
Y1320941D02*
D03*
Y1330941D02*
D03*
X797713Y1230941D02*
D03*
Y1290941D02*
D03*
Y1310941D02*
D03*
Y1320941D02*
D03*
Y1330941D02*
D03*
X787713Y1230941D02*
D03*
Y1330941D02*
D03*
Y1320941D02*
D03*
Y1310941D02*
D03*
Y1300941D02*
D03*
X777713Y1250941D02*
D03*
Y1210941D02*
D03*
X777867Y1181027D02*
D03*
X777713Y1320941D02*
D03*
Y1310941D02*
D03*
Y1300941D02*
D03*
Y1270941D02*
D03*
X767713Y1250941D02*
D03*
Y1230941D02*
D03*
Y1330941D02*
D03*
Y1320941D02*
D03*
X757713Y1250941D02*
D03*
X757867Y1181027D02*
D03*
X757713Y1280941D02*
D03*
X757867Y1261027D02*
D03*
X747713Y1250941D02*
D03*
Y1200940D02*
D03*
X1288776Y1594706D02*
D03*
Y1706706D02*
D03*
X1312048Y1690534D02*
D03*
Y1682534D02*
D03*
X1304048Y1698534D02*
D03*
Y1690534D02*
D03*
Y1682534D02*
D03*
X1288776Y1690706D02*
D03*
Y1698706D02*
D03*
X1264048Y1690534D02*
D03*
X1312048Y1666534D02*
D03*
Y1674534D02*
D03*
X1304048D02*
D03*
Y1666534D02*
D03*
X1256048Y1618534D02*
D03*
Y1666534D02*
D03*
Y1658534D02*
D03*
X1312048Y1706534D02*
D03*
X1304048D02*
D03*
X1312048Y1610534D02*
D03*
Y1602534D02*
D03*
X1304048Y1594534D02*
D03*
Y1586534D02*
D03*
X1312048Y1594534D02*
D03*
Y1618534D02*
D03*
X1304048Y1650534D02*
D03*
X1312048Y1658534D02*
D03*
X1256048Y1586534D02*
D03*
Y1610534D02*
D03*
X1240776Y1674706D02*
D03*
Y1698706D02*
D03*
Y1690706D02*
D03*
Y1650706D02*
D03*
X1264048Y1674534D02*
D03*
X1256048D02*
D03*
Y1706534D02*
D03*
X256157Y905853D02*
D03*
D209*
X244567Y2077269D02*
D03*
X233236Y2099276D02*
D03*
X244567Y2119269D02*
D03*
X233236Y2141220D02*
D03*
X244567Y2161269D02*
D03*
X297876Y791625D02*
D03*
D210*
X479500Y2272332D02*
D03*
X494740D02*
D03*
X509980D02*
D03*
X525220D02*
D03*
X517600Y2264712D02*
D03*
X487120D02*
D03*
X525220Y2257092D02*
D03*
X509980D02*
D03*
X494740D02*
D03*
X479500D02*
D03*
X517600Y2249472D02*
D03*
X487120D02*
D03*
X525220Y2241852D02*
D03*
X509980D02*
D03*
X494740D02*
D03*
X479500D02*
D03*
X517600Y2234232D02*
D03*
X487120D02*
D03*
X525220Y2226612D02*
D03*
X509980D02*
D03*
X494740D02*
D03*
X479500D02*
D03*
X517600Y2218992D02*
D03*
X502360D02*
D03*
X487120D02*
D03*
X525220Y2211372D02*
D03*
X509980D02*
D03*
X494740D02*
D03*
X517600Y2203752D02*
D03*
X502360D02*
D03*
X525220Y2196132D02*
D03*
X509980D02*
D03*
X494740D02*
D03*
X479500D02*
D03*
Y2211372D02*
D03*
X487120Y2203752D02*
D03*
X502360Y2264712D02*
D03*
Y2249472D02*
D03*
Y2234232D02*
D03*
X89400Y585109D02*
D03*
Y600349D02*
D03*
Y615589D02*
D03*
Y630829D02*
D03*
X97020Y623209D02*
D03*
Y592729D02*
D03*
X104640Y630829D02*
D03*
Y615589D02*
D03*
Y600349D02*
D03*
Y585109D02*
D03*
X112260Y623209D02*
D03*
Y592729D02*
D03*
X119880Y630829D02*
D03*
Y615589D02*
D03*
Y600349D02*
D03*
Y585109D02*
D03*
X127500Y623209D02*
D03*
Y592729D02*
D03*
X135120Y630829D02*
D03*
Y615589D02*
D03*
Y600349D02*
D03*
Y585109D02*
D03*
X142740Y623209D02*
D03*
Y607969D02*
D03*
Y592729D02*
D03*
X150360Y630829D02*
D03*
Y615589D02*
D03*
Y600349D02*
D03*
X157980Y623209D02*
D03*
Y607969D02*
D03*
X165600Y630829D02*
D03*
Y615589D02*
D03*
Y600349D02*
D03*
Y585109D02*
D03*
X150360D02*
D03*
X157980Y592729D02*
D03*
X97020Y607969D02*
D03*
X112260D02*
D03*
X127500D02*
D03*
D211*
X698720Y1960929D02*
D03*
X709720D02*
D03*
X720720D02*
D03*
X731720D02*
D03*
X742720D02*
D03*
X698720Y1949929D02*
D03*
X709720D02*
D03*
X720720D02*
D03*
X731720D02*
D03*
X742720D02*
D03*
X698720Y1938929D02*
D03*
X709720D02*
D03*
X720720D02*
D03*
X731720D02*
D03*
X742720D02*
D03*
X698720Y1927929D02*
D03*
X709720D02*
D03*
X720720D02*
D03*
X731720D02*
D03*
X742720D02*
D03*
X698720Y1916929D02*
D03*
X709720D02*
D03*
X720720D02*
D03*
X731720D02*
D03*
X742720D02*
D03*
X1370004Y1772871D02*
D03*
X1375754Y1782371D02*
D03*
X1364254D02*
D03*
X1370004Y1791871D02*
D03*
X313580Y1775529D02*
D03*
Y1786529D02*
D03*
Y1797529D02*
D03*
X324580Y1775529D02*
D03*
Y1786529D02*
D03*
Y1797529D02*
D03*
X335580Y1775529D02*
D03*
Y1786529D02*
D03*
Y1797529D02*
D03*
X346580Y1775529D02*
D03*
Y1786529D02*
D03*
Y1797529D02*
D03*
X357580Y1775529D02*
D03*
Y1786529D02*
D03*
Y1797529D02*
D03*
X368580Y1775529D02*
D03*
Y1786529D02*
D03*
Y1797529D02*
D03*
X379580Y1775529D02*
D03*
Y1786529D02*
D03*
Y1797529D02*
D03*
X390580Y1775529D02*
D03*
Y1786529D02*
D03*
Y1797529D02*
D03*
X401580Y1775529D02*
D03*
Y1786529D02*
D03*
Y1797529D02*
D03*
X648910Y253689D02*
D03*
Y242689D02*
D03*
Y231689D02*
D03*
Y220689D02*
D03*
Y209689D02*
D03*
X637910Y253689D02*
D03*
Y242689D02*
D03*
Y231689D02*
D03*
Y220689D02*
D03*
Y209689D02*
D03*
X626910Y253689D02*
D03*
Y242689D02*
D03*
Y231689D02*
D03*
Y220689D02*
D03*
Y209689D02*
D03*
X615910Y253689D02*
D03*
Y242689D02*
D03*
Y231689D02*
D03*
Y220689D02*
D03*
Y209689D02*
D03*
X604910Y253689D02*
D03*
Y242689D02*
D03*
Y231689D02*
D03*
Y220689D02*
D03*
Y209689D02*
D03*
X315880Y222732D02*
D03*
X304880D02*
D03*
X315880Y233732D02*
D03*
X304880D02*
D03*
X566656Y862460D02*
D03*
Y873460D02*
D03*
Y884460D02*
D03*
Y895460D02*
D03*
Y906460D02*
D03*
X577656Y862460D02*
D03*
Y873460D02*
D03*
Y884460D02*
D03*
Y895460D02*
D03*
Y906460D02*
D03*
X588656Y862460D02*
D03*
Y873460D02*
D03*
Y884460D02*
D03*
Y895460D02*
D03*
Y906460D02*
D03*
X599656Y862460D02*
D03*
Y873460D02*
D03*
Y884460D02*
D03*
Y895460D02*
D03*
Y906460D02*
D03*
X610656Y862460D02*
D03*
Y873460D02*
D03*
Y884460D02*
D03*
Y895460D02*
D03*
Y906460D02*
D03*
M02*
