G04*
G04 #@! TF.GenerationSoftware,Altium Limited,Altium Designer,22.11.1 (43)*
G04*
G04 Layer_Color=0*
%FSLAX44Y44*%
%MOMM*%
G71*
G04*
G04 #@! TF.SameCoordinates,53296E8D-2C6D-437B-9D4A-58ED0EF3D4B0*
G04*
G04*
G04 #@! TF.FilePolarity,Positive*
G04*
G01*
G75*
%ADD14C,0.1270*%
D14*
X1190065Y1261027D02*
G03*
X1190065Y1261027I-34000J0D01*
G01*
X1137140Y1023435D02*
G03*
X1137140Y1023435I-34000J0D01*
G01*
X630303Y1260698D02*
G03*
X630303Y1260698I-34000J0D01*
G01*
X94589Y57350D02*
G03*
X94589Y57350I-34000J0D01*
G01*
X1421552Y73434D02*
G03*
X1421552Y73434I-34000J0D01*
G01*
X1433540Y2637025D02*
G03*
X1433540Y2637025I-34000J0D01*
G01*
X102020Y2645049D02*
G03*
X102020Y2645049I-34000J0D01*
G01*
X1156065Y1255947D02*
Y1266107D01*
X1150985Y1261027D02*
X1161145D01*
X1103140Y1018355D02*
Y1028515D01*
X1098060Y1023435D02*
X1108220D01*
X596303Y1255618D02*
Y1265778D01*
X591223Y1260698D02*
X601383D01*
X60589Y52270D02*
Y62429D01*
X55509Y57350D02*
X65669D01*
X1387552Y68354D02*
Y78514D01*
X1382472Y73434D02*
X1392632D01*
X1399540Y2631945D02*
Y2642105D01*
X1394460Y2637025D02*
X1404620D01*
X68020Y2639969D02*
Y2650129D01*
X62940Y2645049D02*
X73100D01*
X1216100Y86134D02*
X1251660D01*
X1216100Y50574D02*
X1251660D01*
X1228800Y68354D02*
X1238960D01*
X1233880Y63274D02*
Y73434D01*
X1251660Y50574D02*
Y86134D01*
X1216100Y50574D02*
Y86134D01*
X221707Y2368989D02*
X257267D01*
X221707Y2333429D02*
X257267D01*
X234407Y2351209D02*
X244567D01*
X239487Y2346129D02*
Y2356289D01*
X257267Y2333429D02*
Y2368989D01*
X221707Y2333429D02*
Y2368989D01*
X1158240Y2621280D02*
X1193800D01*
X1158240Y2585720D02*
X1193800D01*
X1170940Y2603500D02*
X1181100D01*
X1176020Y2598420D02*
Y2608580D01*
X1193800Y2585720D02*
Y2621280D01*
X1158240Y2585720D02*
Y2621280D01*
M02*
