G04*
G04 #@! TF.GenerationSoftware,Altium Limited,Altium Designer,22.11.1 (43)*
G04*
G04 Layer_Physical_Order=3*
G04 Layer_Color=36540*
%FSLAX44Y44*%
%MOMM*%
G71*
G04*
G04 #@! TF.SameCoordinates,53296E8D-2C6D-437B-9D4A-58ED0EF3D4B0*
G04*
G04*
G04 #@! TF.FilePolarity,Positive*
G04*
G01*
G75*
%ADD190C,0.1016*%
%ADD197C,6.2000*%
%ADD198C,0.6000*%
%ADD199C,2.2000*%
%ADD200C,1.9050*%
%ADD201R,1.9050X1.9050*%
%ADD202C,3.0000*%
%ADD203C,1.6000*%
%ADD204C,3.8100*%
G04:AMPARAMS|DCode=205|XSize=1.524mm|YSize=1.524mm|CornerRadius=0mm|HoleSize=0mm|Usage=FLASHONLY|Rotation=270.000|XOffset=0mm|YOffset=0mm|HoleType=Round|Shape=Octagon|*
%AMOCTAGOND205*
4,1,8,-0.3810,-0.7620,0.3810,-0.7620,0.7620,-0.3810,0.7620,0.3810,0.3810,0.7620,-0.3810,0.7620,-0.7620,0.3810,-0.7620,-0.3810,-0.3810,-0.7620,0.0*
%
%ADD205OCTAGOND205*%

%ADD206C,1.5240*%
%ADD207R,3.0000X3.0000*%
%ADD208C,0.1778*%
%ADD209C,0.3810*%
%ADD210C,0.5080*%
%ADD211C,0.5000*%
D190*
X845425Y1333652D02*
X848055D01*
X835146Y1321583D02*
X835996Y1320733D01*
X847921Y1330441D02*
X848067Y1330587D01*
X845285Y1329238D02*
X846488Y1330441D01*
X850226Y1324119D02*
Y1331481D01*
X834018Y1321583D02*
X835146D01*
X846488Y1330441D02*
X847921D01*
X848055Y1333652D02*
X850226Y1331481D01*
X835996Y1320733D02*
X837921D01*
X838067Y1320587D01*
X850226Y1324119D02*
X855554Y1318790D01*
X840554Y1328781D02*
X845425Y1333652D01*
X845285Y1328512D02*
Y1329238D01*
X824780Y1294953D02*
Y1310353D01*
X829872Y1315446D01*
Y1325728D01*
X851630Y1344857D02*
Y1352571D01*
X839133Y1333006D02*
X839779D01*
X851630Y1344857D01*
X837439Y1294268D02*
X842926Y1288781D01*
X829332Y1296269D02*
X831332Y1294268D01*
X837439D01*
X829332Y1296269D02*
Y1296987D01*
X837390Y1331263D02*
X839133Y1333006D01*
X843776Y1327003D02*
X845285Y1328512D01*
X831650Y1323950D02*
X834018Y1321583D01*
X818608Y1288781D02*
X824780Y1294953D01*
X836819Y1328781D02*
X840554D01*
X836083Y1327003D02*
X843776D01*
X835206Y1330394D02*
X836819Y1328781D01*
X833428Y1329658D02*
Y1338279D01*
X835206Y1330394D02*
Y1339015D01*
X833428Y1329658D02*
X836083Y1327003D01*
X827713Y1298606D02*
X829332Y1296987D01*
X827713Y1298606D02*
Y1298782D01*
X789548Y1367759D02*
X806947Y1350360D01*
X739701Y1365981D02*
X773231D01*
X725554Y1330036D02*
X746809Y1308782D01*
X725554Y1351835D02*
X739701Y1365981D01*
X725554Y1330036D02*
Y1351835D01*
X813975Y1321626D02*
X816764D01*
X846740Y1349987D02*
Y1351602D01*
X846885Y1351748D01*
X838798Y1343660D02*
X846328D01*
X816764Y1321626D02*
X816896Y1321758D01*
X836885Y1341748D02*
X838798Y1343660D01*
X845492Y1348740D02*
X846740Y1349987D01*
X806819Y1328781D02*
X813975Y1321626D01*
X792926Y1298782D02*
X817713D01*
X842926Y1288781D02*
X858608D01*
X827713Y1327887D02*
Y1329470D01*
X818803Y1344169D02*
X831650Y1331322D01*
X818803Y1344169D02*
Y1347101D01*
X827713Y1329470D02*
X828978Y1330734D01*
X831650Y1323950D02*
Y1331322D01*
X828978Y1330734D02*
Y1330941D01*
X779767Y1386757D02*
X815008Y1351516D01*
Y1350896D02*
Y1351516D01*
Y1350896D02*
X818803Y1347101D01*
X585470Y1386757D02*
X779767D01*
X591575Y1367759D02*
X789548D01*
X792694Y1371315D02*
X813230Y1350780D01*
X812662Y1347898D02*
X813230Y1348465D01*
X809433Y1347183D02*
X811452Y1349202D01*
X791559Y1371315D02*
X792694D01*
X791958Y1369537D02*
X811452Y1350043D01*
X592312Y1369537D02*
X791958D01*
X811452Y1349202D02*
Y1350043D01*
X813230Y1348465D02*
Y1350780D01*
X593587Y1371315D02*
X791559D01*
X810170Y1345405D02*
X812662Y1347898D01*
X791292Y1345405D02*
X810170D01*
X792029Y1347183D02*
X809433D01*
X773231Y1365981D02*
X792029Y1347183D01*
X772494Y1364203D02*
X791292Y1345405D01*
X575250Y1384085D02*
X591575Y1367759D01*
X575250Y1384085D02*
Y1391949D01*
X573472Y1393727D02*
X575250Y1391949D01*
X573472Y1393727D02*
Y1394265D01*
X551245Y1416492D02*
X573472Y1394265D01*
X549456Y1416492D02*
X551245D01*
X548191Y1415228D02*
X549456Y1416492D01*
X548191Y1406598D02*
Y1415228D01*
Y1406598D02*
X570936Y1383853D01*
X563472Y1367759D02*
X570936Y1375223D01*
X575250Y1394463D02*
Y1411067D01*
X746809Y1308782D02*
X782926D01*
X792926Y1298782D01*
X752834Y1362767D02*
Y1363608D01*
X753429Y1364203D01*
X772494D01*
X579187Y1385715D02*
X593587Y1371315D01*
X577028Y1395199D02*
X585470Y1386757D01*
X578806Y1395936D02*
X586207Y1388535D01*
X584025Y1396043D02*
X584533Y1395535D01*
X581751Y1396043D02*
X584025D01*
X581612Y1396183D02*
X581751Y1396043D01*
X752834Y1362767D02*
X786819Y1328781D01*
X586207Y1388535D02*
X790379D01*
X575250Y1394463D02*
X577028Y1392685D01*
X570936Y1375223D02*
Y1383853D01*
X577028Y1384821D02*
Y1392685D01*
X517859Y1367759D02*
X563472D01*
X584533Y1395535D02*
X788408D01*
X577028Y1395199D02*
Y1403820D01*
Y1384821D02*
X592312Y1369537D01*
X575250Y1411067D02*
X577600Y1413418D01*
X578806Y1395936D02*
Y1403083D01*
X827312Y1351528D02*
Y1351603D01*
X827693Y1350941D02*
Y1351147D01*
X790379Y1388535D02*
X827312Y1351603D01*
Y1351528D02*
X827693Y1351147D01*
X831373Y1340335D02*
Y1352571D01*
Y1340335D02*
X833428Y1338279D01*
X594440Y1405950D02*
X783023D01*
X837609Y1348740D02*
X845492D01*
X574211Y1419860D02*
X579759Y1414312D01*
X578806Y1403083D02*
X581537Y1405815D01*
Y1415049D01*
X574355Y1422231D02*
X581537Y1415049D01*
X532737Y1422231D02*
X574355D01*
X525410Y1429558D02*
X532737Y1422231D01*
X545159Y1419860D02*
X574211D01*
X788408Y1395535D02*
X831373Y1352571D01*
X833150Y1341071D02*
X835206Y1339015D01*
X833150Y1341071D02*
Y1353308D01*
X784269Y1402189D02*
X833150Y1353308D01*
X580965Y1402189D02*
X784269D01*
X783023Y1405950D02*
X834929Y1354044D01*
Y1351421D02*
X837609Y1348740D01*
X834929Y1351421D02*
Y1354044D01*
X764680Y1429547D02*
X838077Y1356150D01*
Y1351325D02*
Y1356150D01*
X535410Y1429547D02*
X764680D01*
X849852Y1347183D02*
Y1351835D01*
X530410Y1433242D02*
X768444D01*
X849852Y1351835D01*
X768799Y1435401D02*
X851630Y1352571D01*
X519462Y1435401D02*
X768799D01*
X827713Y1327887D02*
X829872Y1325728D01*
X516360Y1432300D02*
X519462Y1435401D01*
X504311Y1432300D02*
X516360D01*
X855554Y1316153D02*
Y1318790D01*
Y1316153D02*
X859872Y1311835D01*
Y1290046D02*
Y1311835D01*
X846328Y1343660D02*
X849852Y1347183D01*
X577727Y1422663D02*
X594440Y1405950D01*
X573472Y1383348D02*
Y1391212D01*
X550350Y1414333D02*
X573472Y1391212D01*
X577028Y1403820D02*
X579759Y1406551D01*
Y1414312D01*
X786819Y1328781D02*
X806819D01*
X573472Y1383348D02*
X678038Y1278782D01*
X738608D01*
X802926Y1288781D02*
X818608D01*
X752926Y1293100D02*
X798608D01*
X802926Y1288781D01*
X738608Y1278782D02*
X752926Y1293100D01*
X858608Y1288781D02*
X859872Y1290046D01*
X433730Y1352867D02*
X510410Y1429547D01*
X169620Y1352867D02*
X433730D01*
X226899Y1378807D02*
X246411Y1359296D01*
X252324D01*
X231897Y1405045D02*
X252324Y1384617D01*
X226315Y1405045D02*
X231897D01*
D197*
X1156065Y1261027D02*
D03*
X1103140Y1023435D02*
D03*
X596303Y1260698D02*
D03*
X60589Y57350D02*
D03*
X1387552Y73434D02*
D03*
X1399540Y2637025D02*
D03*
X68020Y2645049D02*
D03*
D198*
X528610Y1386859D02*
D03*
X517910D02*
D03*
X507210D02*
D03*
X528610Y1397559D02*
D03*
X517910D02*
D03*
X507210D02*
D03*
X528610Y1408259D02*
D03*
X517910D02*
D03*
X507210D02*
D03*
D199*
X152900Y294811D02*
D03*
X178300Y269411D02*
D03*
X127500D02*
D03*
Y320211D02*
D03*
X178300D02*
D03*
X152900Y193211D02*
D03*
X178300Y167811D02*
D03*
X127500D02*
D03*
Y218611D02*
D03*
X178300D02*
D03*
X181857Y821997D02*
D03*
X131057D02*
D03*
Y771197D02*
D03*
X181857D02*
D03*
X156457Y796597D02*
D03*
X181857Y933757D02*
D03*
X131057D02*
D03*
Y882957D02*
D03*
X181857D02*
D03*
X156457Y908357D02*
D03*
D200*
X68020Y1708589D02*
D03*
Y1758589D02*
D03*
Y1808589D02*
D03*
D201*
Y1858589D02*
D03*
D202*
X83260Y2527449D02*
D03*
Y2407049D02*
D03*
X159565Y2119269D02*
D03*
Y2161269D02*
D03*
X214565Y2077269D02*
D03*
Y2119269D02*
D03*
Y2161269D02*
D03*
D203*
X56260Y2454749D02*
D03*
Y2479749D02*
D03*
X36260Y2454749D02*
D03*
Y2479749D02*
D03*
D204*
X78180Y1335087D02*
D03*
Y1462087D02*
D03*
D205*
X103580Y1363027D02*
D03*
D206*
Y1383347D02*
D03*
Y1403667D02*
D03*
Y1423987D02*
D03*
X121360Y1373187D02*
D03*
Y1393507D02*
D03*
Y1413827D02*
D03*
Y1434147D02*
D03*
X169620Y1330007D02*
D03*
Y1444307D02*
D03*
Y1467167D02*
D03*
Y1352867D02*
D03*
D207*
X159565Y2077269D02*
D03*
D208*
X747713Y1210941D02*
D03*
X737077Y1211576D02*
D03*
X1288882Y1642812D02*
D03*
X1265826Y1659270D02*
D03*
X1226161Y1658528D02*
D03*
X1240776Y1658705D02*
D03*
X1163777Y1643156D02*
D03*
X1166963Y1655590D02*
D03*
X849715Y1338342D02*
D03*
X866464Y1342169D02*
D03*
X846607Y1322047D02*
D03*
X838067Y1320587D02*
D03*
X848067Y1330587D02*
D03*
X939963Y1328691D02*
D03*
X1182589Y1565106D02*
D03*
X1174558Y1557074D02*
D03*
X976122Y1352532D02*
D03*
X874531Y1224123D02*
D03*
X867102Y1211811D02*
D03*
X1227873Y1553745D02*
D03*
X866805Y1291849D02*
D03*
X856805Y1281849D02*
D03*
X923063Y1345591D02*
D03*
X867000Y1311654D02*
D03*
X1169036Y1628901D02*
D03*
X884394Y1344260D02*
D03*
X1184492Y1638251D02*
D03*
X1168758Y1638356D02*
D03*
X899677Y1369275D02*
D03*
X904635Y1374234D02*
D03*
X855523Y1253131D02*
D03*
X895523Y1293131D02*
D03*
X905523Y1303131D02*
D03*
X845523Y1243131D02*
D03*
X837070Y1232276D02*
D03*
X1204945Y1588172D02*
D03*
X1182987Y1571841D02*
D03*
X1183922Y1554514D02*
D03*
X1205181Y1583047D02*
D03*
X857086Y1211658D02*
D03*
X867041Y1221613D02*
D03*
X877041Y1231613D02*
D03*
X967041Y1321613D02*
D03*
X947041Y1301613D02*
D03*
X887041Y1241613D02*
D03*
X929391Y1269263D02*
D03*
X965824Y1302830D02*
D03*
X994484Y1334356D02*
D03*
X878493Y1210161D02*
D03*
X947081Y1281573D02*
D03*
X990643Y1350630D02*
D03*
X867713Y1230941D02*
D03*
X877713Y1240940D02*
D03*
X907713Y1270941D02*
D03*
X847713Y1211199D02*
D03*
X991992Y1353575D02*
D03*
X857713Y1220941D02*
D03*
X1204786Y1563488D02*
D03*
X1204987Y1554797D02*
D03*
X1204881Y1569682D02*
D03*
X1161327Y1564955D02*
D03*
X839460Y1249194D02*
D03*
X834460Y1244194D02*
D03*
X844460Y1254194D02*
D03*
X824460Y1234194D02*
D03*
X820309Y1230043D02*
D03*
X895869Y1272785D02*
D03*
X935869Y1312785D02*
D03*
X885989Y1262905D02*
D03*
X925869Y1302785D02*
D03*
X855869Y1232785D02*
D03*
X865869Y1242785D02*
D03*
X1185177Y1581457D02*
D03*
X1160780Y1583239D02*
D03*
X1228979Y1573999D02*
D03*
X878922Y1249732D02*
D03*
X1167419Y1576872D02*
D03*
X1180581Y1596141D02*
D03*
X826547Y1242107D02*
D03*
X807713Y1230941D02*
D03*
X827713Y1250941D02*
D03*
X1168400Y1594771D02*
D03*
X817713Y1240940D02*
D03*
X1226820Y1592612D02*
D03*
X1160780Y1594771D02*
D03*
X892984Y1395332D02*
D03*
X825014Y1313640D02*
D03*
X1161183Y1626302D02*
D03*
X847624Y1303189D02*
D03*
X836545Y1292109D02*
D03*
X892548Y1386421D02*
D03*
X817390Y1311263D02*
D03*
X837390Y1331263D02*
D03*
X847250Y1311404D02*
D03*
X790436Y1245969D02*
D03*
X787917Y1240936D02*
D03*
X777713Y1240940D02*
D03*
X911816Y1375970D02*
D03*
X826544Y1282109D02*
D03*
X805554Y1270941D02*
D03*
X827713Y1298782D02*
D03*
X817713Y1290941D02*
D03*
X878614Y1408209D02*
D03*
X1153925Y1682534D02*
D03*
X878264Y1430366D02*
D03*
X872583Y1424369D02*
D03*
X806947Y1350360D02*
D03*
X876829Y1418474D02*
D03*
X871788Y1447372D02*
D03*
X834505Y1403983D02*
D03*
X825916Y1395393D02*
D03*
X708406Y1255337D02*
D03*
X762360Y1342973D02*
D03*
X787173Y1341992D02*
D03*
X737713Y1280941D02*
D03*
X757713Y1300941D02*
D03*
X876012Y1454827D02*
D03*
X876376Y1441135D02*
D03*
X817120Y1380752D02*
D03*
X868124Y1468585D02*
D03*
X868487Y1478268D02*
D03*
X862354Y1473588D02*
D03*
X862677Y1483876D02*
D03*
X868487Y1488440D02*
D03*
X727713Y1350941D02*
D03*
X736861Y1321783D02*
D03*
X747713Y1340941D02*
D03*
X757713Y1320941D02*
D03*
X1020449Y1299327D02*
D03*
X987462Y1254952D02*
D03*
X1023964Y1291453D02*
D03*
X967826Y1220828D02*
D03*
X964339Y1204315D02*
D03*
X1021685Y1252088D02*
D03*
X1026758Y1257161D02*
D03*
X969992Y1178662D02*
D03*
X945681Y1162973D02*
D03*
X997823Y1203887D02*
D03*
X1003948Y1198818D02*
D03*
X927946Y1180948D02*
D03*
X917826Y1170828D02*
D03*
X967713Y1160941D02*
D03*
X1001243Y1300706D02*
D03*
X1256048Y1698580D02*
D03*
X1264048D02*
D03*
X872587Y1399668D02*
D03*
X819681Y1349276D02*
D03*
X809529Y1339124D02*
D03*
X1256048Y1690534D02*
D03*
X1240776Y1684312D02*
D03*
X1256048D02*
D03*
X1288776Y1674706D02*
D03*
X1264358Y1682844D02*
D03*
X1174612Y1682534D02*
D03*
X1264048Y1666534D02*
D03*
X836885Y1341748D02*
D03*
X846885Y1351748D02*
D03*
X822835Y1327697D02*
D03*
X816896Y1321758D02*
D03*
X1160769Y1654642D02*
D03*
X1205126Y1657869D02*
D03*
X1240776Y1666706D02*
D03*
X1288776Y1650706D02*
D03*
X727713Y1140940D02*
D03*
Y1130941D02*
D03*
X817713D02*
D03*
X947713Y1170941D02*
D03*
X727713Y1190991D02*
D03*
X747713Y1220941D02*
D03*
X757713Y1230941D02*
D03*
X767560Y1241094D02*
D03*
X967713Y1240940D02*
D03*
X727698Y1210941D02*
D03*
X990758Y1270658D02*
D03*
X737703Y1240940D02*
D03*
X1183640Y1648759D02*
D03*
X1312048Y1634534D02*
D03*
X1304048Y1642534D02*
D03*
X1288776Y1634706D02*
D03*
X1304048Y1634534D02*
D03*
X757713Y1210941D02*
D03*
X937713Y1250941D02*
D03*
X1304048Y1602534D02*
D03*
X797560Y1271094D02*
D03*
X767713Y1220941D02*
D03*
X1183640Y1620487D02*
D03*
X1205110Y1638909D02*
D03*
X1289118Y1611129D02*
D03*
X757713Y1220941D02*
D03*
X1206323Y1611224D02*
D03*
X1205280Y1601560D02*
D03*
X1226820Y1629537D02*
D03*
Y1638714D02*
D03*
X1264031Y1626534D02*
D03*
X1256048Y1634534D02*
D03*
X1264048Y1642534D02*
D03*
Y1634534D02*
D03*
X1256048Y1642534D02*
D03*
Y1650699D02*
D03*
Y1626534D02*
D03*
X845410Y1263484D02*
D03*
X1304651Y1618374D02*
D03*
X1240776Y1634706D02*
D03*
X1226820Y1620586D02*
D03*
X907693Y1340941D02*
D03*
X827867Y1261027D02*
D03*
X817713Y1250941D02*
D03*
X887713Y1320941D02*
D03*
X928971Y1129683D02*
D03*
X887713Y1160941D02*
D03*
X1323340Y1594025D02*
D03*
X947713Y1220941D02*
D03*
X927713Y1200940D02*
D03*
X877713Y1150941D02*
D03*
X1312048Y1586534D02*
D03*
Y1698534D02*
D03*
X1287909Y1562749D02*
D03*
X1264031Y1610534D02*
D03*
Y1618534D02*
D03*
Y1602534D02*
D03*
X1288776Y1626706D02*
D03*
Y1602706D02*
D03*
Y1666706D02*
D03*
Y1682706D02*
D03*
Y1658705D02*
D03*
X1304048Y1610534D02*
D03*
X1323340Y1575597D02*
D03*
Y1649412D02*
D03*
X1312048Y1650534D02*
D03*
X1304048Y1658534D02*
D03*
X1350105Y1787371D02*
D03*
X1347144Y1818640D02*
D03*
X727713Y1220941D02*
D03*
Y1201571D02*
D03*
X727343Y1180940D02*
D03*
X1240776Y1706706D02*
D03*
X1264048Y1706534D02*
D03*
X727703Y1160941D02*
D03*
X727713Y1170941D02*
D03*
X806819Y1512763D02*
D03*
X747713Y1140941D02*
D03*
X1019019Y1327847D02*
D03*
X966587Y1262067D02*
D03*
X896664Y1192144D02*
D03*
X757713Y1170966D02*
D03*
X747713D02*
D03*
X995407Y1284074D02*
D03*
X1264007Y1650493D02*
D03*
X807867Y1180740D02*
D03*
X747867Y1181027D02*
D03*
X737592Y1190941D02*
D03*
X1227833Y1563488D02*
D03*
X1264399Y1594182D02*
D03*
X1256048Y1602534D02*
D03*
X1240776Y1602706D02*
D03*
X1256089Y1594492D02*
D03*
X1240776Y1586705D02*
D03*
X777713Y1220941D02*
D03*
X787713D02*
D03*
X777713Y1230941D02*
D03*
X797713Y1240940D02*
D03*
X847557Y1221096D02*
D03*
X837713Y1220941D02*
D03*
X817782Y1220721D02*
D03*
X857713Y1240940D02*
D03*
X807464Y1221190D02*
D03*
X797713Y1220941D02*
D03*
X837713Y1211199D02*
D03*
X1240933Y1593479D02*
D03*
X1226820Y1579367D02*
D03*
X1240776Y1618706D02*
D03*
Y1610706D02*
D03*
X1264048Y1586534D02*
D03*
X698192Y1323166D02*
D03*
X773096Y1512763D02*
D03*
X747713Y1230941D02*
D03*
X1183640Y1601922D02*
D03*
X825264Y1915536D02*
D03*
X828239Y1919523D02*
D03*
X825233Y1922529D02*
D03*
X777563Y1886487D02*
D03*
X780638Y1882742D02*
D03*
X727289Y1889523D02*
D03*
X729142Y1886273D02*
D03*
X719235Y1857359D02*
D03*
X716876Y1859755D02*
D03*
X698680Y1857359D02*
D03*
X696321Y1859755D02*
D03*
X752416Y1872338D02*
D03*
X748642Y1875404D02*
D03*
X737382Y1871867D02*
D03*
X733904Y1875287D02*
D03*
X711939Y1878068D02*
D03*
X708916Y1873524D02*
D03*
X696939Y1878068D02*
D03*
X693916Y1873524D02*
D03*
X661646Y1874159D02*
D03*
X664669Y1878703D02*
D03*
X660031Y1885694D02*
D03*
X661848Y1890640D02*
D03*
X708207Y1860167D02*
D03*
X710678Y1857022D02*
D03*
X687431Y1859755D02*
D03*
X689790Y1857359D02*
D03*
X766290Y1887153D02*
D03*
X771282Y1884162D02*
D03*
X768868Y1881638D02*
D03*
X759185Y1886522D02*
D03*
X757320Y1890691D02*
D03*
X744069Y1886394D02*
D03*
X742164Y1889465D02*
D03*
X704037Y1886384D02*
D03*
X702246Y1890132D02*
D03*
X689111Y1886243D02*
D03*
X687206Y1889735D02*
D03*
X621755Y1942406D02*
D03*
X618038Y1947249D02*
D03*
X668816Y1942418D02*
D03*
X672436Y1940485D02*
D03*
X672589Y1925486D02*
D03*
X669031Y1927480D02*
D03*
X640605Y2001834D02*
D03*
X603720Y2004334D02*
D03*
X882237Y1937401D02*
D03*
X885177Y1927040D02*
D03*
X891961Y1937295D02*
D03*
X893672Y1927185D02*
D03*
X942552Y1968372D02*
D03*
X946071Y1975217D02*
D03*
X913213Y1775384D02*
D03*
X910422Y1778945D02*
D03*
X922211Y1746278D02*
D03*
X926252Y1742910D02*
D03*
X1033511Y1786193D02*
D03*
X1036719Y1775555D02*
D03*
X1044659Y1726190D02*
D03*
X1041543Y1729031D02*
D03*
X1045141Y1750206D02*
D03*
X1041836Y1754038D02*
D03*
X1020557Y1790559D02*
D03*
X1025120Y1786239D02*
D03*
X1018781Y1780747D02*
D03*
X1024677Y1775293D02*
D03*
X1020518Y1769963D02*
D03*
X1013492Y1766127D02*
D03*
X1017409Y1761241D02*
D03*
X461733Y2388461D02*
D03*
X465850Y2392581D02*
D03*
X533556Y2382335D02*
D03*
X544565Y2382419D02*
D03*
X737774Y2458401D02*
D03*
X748262Y2451397D02*
D03*
X584512Y2382419D02*
D03*
X573502Y2382335D02*
D03*
X742064Y2470241D02*
D03*
X749068Y2480730D02*
D03*
X496018Y2572447D02*
D03*
X475432D02*
D03*
X485009Y2576105D02*
D03*
X520854Y2564842D02*
D03*
X526033Y2561429D02*
D03*
X377786Y2527336D02*
D03*
X377097Y2482394D02*
D03*
X376664Y2495792D02*
D03*
X377791Y2509146D02*
D03*
X405367Y2520064D02*
D03*
X415990Y2516378D02*
D03*
X405064Y2528996D02*
D03*
X415990Y2532204D02*
D03*
X475560Y2562845D02*
D03*
X485013Y2568951D02*
D03*
X491766Y2558793D02*
D03*
X496347Y2562433D02*
D03*
X503217Y2539943D02*
D03*
X508502Y2536596D02*
D03*
X143785Y2346789D02*
D03*
Y2356289D02*
D03*
X341330Y1826741D02*
D03*
X323931Y1933084D02*
D03*
X351815Y1881589D02*
D03*
X881244Y1047082D02*
D03*
X885312Y1055712D02*
D03*
X888163Y1060692D02*
D03*
X881320Y1060768D02*
D03*
X888338Y1083807D02*
D03*
X882147Y1083768D02*
D03*
X805193Y1059451D02*
D03*
X794483Y1059408D02*
D03*
X804981Y1048069D02*
D03*
X801984Y1051649D02*
D03*
X798848Y1047819D02*
D03*
X795628Y1051566D02*
D03*
X792298Y1047847D02*
D03*
X807249Y1084529D02*
D03*
X805014Y1082040D02*
D03*
X793455Y1084746D02*
D03*
X796271Y1081742D02*
D03*
X799735Y1086046D02*
D03*
X863257Y1089353D02*
D03*
X841150D02*
D03*
X1393838Y1778030D02*
D03*
X1388255Y1776521D02*
D03*
X592183Y181595D02*
D03*
X587966Y182558D02*
D03*
X589507Y162039D02*
D03*
X586527Y171611D02*
D03*
X585857Y187221D02*
D03*
X577125Y183006D02*
D03*
X574951Y187255D02*
D03*
X590234Y282003D02*
D03*
X586545Y275282D02*
D03*
X584169Y282048D02*
D03*
X576700Y278090D02*
D03*
X574143Y274854D02*
D03*
X1020201Y480562D02*
D03*
X1015771Y485098D02*
D03*
X775817Y422287D02*
D03*
X771292Y428143D02*
D03*
X803716Y458597D02*
D03*
X797859Y453007D02*
D03*
X660699D02*
D03*
X666556Y458597D02*
D03*
X634132Y428143D02*
D03*
X638657Y422287D02*
D03*
X547669Y856455D02*
D03*
X541021Y871960D02*
D03*
X541926Y896960D02*
D03*
X488663Y937861D02*
D03*
X500917Y938053D02*
D03*
X513362Y937938D02*
D03*
X531285Y938183D02*
D03*
X539408Y931531D02*
D03*
X553906Y916585D02*
D03*
X551813Y1543676D02*
D03*
X540803Y1543592D02*
D03*
X543307Y1684159D02*
D03*
X555181Y1666954D02*
D03*
X527844Y1753808D02*
D03*
X515970Y1771014D02*
D03*
X242075Y1699101D02*
D03*
X228911Y1692865D02*
D03*
X214881Y1699880D02*
D03*
X164822Y1673638D02*
D03*
X171750Y1663678D02*
D03*
X165341Y1652332D02*
D03*
X453923Y2154595D02*
D03*
X465198Y2140856D02*
D03*
X416883Y2177671D02*
D03*
X424964Y2150397D02*
D03*
X417150Y2122448D02*
D03*
X416412Y2069855D02*
D03*
X424492Y2047902D02*
D03*
X415775Y2032865D02*
D03*
X444741Y2229470D02*
D03*
X385456Y2229362D02*
D03*
X439197Y2216888D02*
D03*
X429600Y2227337D02*
D03*
X415632Y2216461D02*
D03*
X401237Y2227870D02*
D03*
X391214Y2217207D02*
D03*
X358372Y2227231D02*
D03*
X346174Y2212613D02*
D03*
X374499Y1724452D02*
D03*
X381476Y1717888D02*
D03*
X374137Y1711842D02*
D03*
X349372Y1709462D02*
D03*
X342808Y1702486D02*
D03*
X336762Y1709824D02*
D03*
X354330Y1745475D02*
D03*
X399587Y1746411D02*
D03*
X314994Y1746411D02*
D03*
X216513Y1637102D02*
D03*
X210467Y1644441D02*
D03*
X203904Y1637464D02*
D03*
X300513Y1637102D02*
D03*
X294467Y1644441D02*
D03*
X287903Y1637464D02*
D03*
X279913Y563472D02*
D03*
X263840Y551584D02*
D03*
X251059Y566095D02*
D03*
X236493Y551417D02*
D03*
X222147Y569778D02*
D03*
X215338Y558392D02*
D03*
X602319Y928377D02*
D03*
X596160Y924034D02*
D03*
X558652Y931247D02*
D03*
X566267Y924265D02*
D03*
X637578Y1037425D02*
D03*
X644555Y1030862D02*
D03*
X637216Y1024815D02*
D03*
X785202Y960594D02*
D03*
X801406Y949581D02*
D03*
X785694Y939340D02*
D03*
X801055Y931413D02*
D03*
X847372Y939067D02*
D03*
X840708Y934680D02*
D03*
X726982Y912617D02*
D03*
X734320Y918663D02*
D03*
X727343Y925227D02*
D03*
X838237Y967642D02*
D03*
X845214Y961078D02*
D03*
X837876Y955032D02*
D03*
X996565Y805637D02*
D03*
X1003542Y799073D02*
D03*
X996204Y793027D02*
D03*
X1061302Y859008D02*
D03*
X1048787Y862542D02*
D03*
X1054755Y855068D02*
D03*
X1054791Y873684D02*
D03*
X1058588Y869261D02*
D03*
X987793Y900959D02*
D03*
X985394Y887205D02*
D03*
X974998Y907197D02*
D03*
X1059733Y890474D02*
D03*
X1067379Y886527D02*
D03*
X1059979Y879189D02*
D03*
X1078325Y870863D02*
D03*
X1019169Y1134320D02*
D03*
X995997Y1141024D02*
D03*
X992443Y1133072D02*
D03*
X691164Y782579D02*
D03*
X699011Y792317D02*
D03*
X704589Y802717D02*
D03*
X699768Y772935D02*
D03*
X713477Y779175D02*
D03*
X601902Y839630D02*
D03*
X596089Y844167D02*
D03*
X563464Y844815D02*
D03*
X551785Y832288D02*
D03*
X543738Y836010D02*
D03*
X666590Y287142D02*
D03*
X662005Y297792D02*
D03*
X675323Y296376D02*
D03*
X671389Y299067D02*
D03*
X678808Y239071D02*
D03*
X687198Y244190D02*
D03*
X676785Y244160D02*
D03*
X614465Y180917D02*
D03*
X684755Y170077D02*
D03*
X691353Y173471D02*
D03*
X676623Y165484D02*
D03*
X663215Y180683D02*
D03*
X658748Y172515D02*
D03*
X672820Y181481D02*
D03*
X677701Y185916D02*
D03*
X667682Y185693D02*
D03*
X680001Y194189D02*
D03*
X1006401Y1289062D02*
D03*
X989741Y1306109D02*
D03*
X992427Y1316433D02*
D03*
X887713Y1200940D02*
D03*
X877713Y1190941D02*
D03*
X1025511Y1339154D02*
D03*
X501438Y2423265D02*
D03*
X530645Y2423126D02*
D03*
X624516Y1737490D02*
D03*
X614282Y1745111D02*
D03*
X610907Y1697102D02*
D03*
X602851Y1686651D02*
D03*
X578575Y1643323D02*
D03*
X556366Y1621223D02*
D03*
X662289Y1334200D02*
D03*
X673693Y1323507D02*
D03*
X704483Y1202227D02*
D03*
X313077Y254328D02*
D03*
X306085Y256488D02*
D03*
X295432Y264615D02*
D03*
X289209Y267946D02*
D03*
X350406Y218204D02*
D03*
X339606Y226454D02*
D03*
X335945Y230302D02*
D03*
X324299Y216611D02*
D03*
X296129Y234719D02*
D03*
X251321Y889002D02*
D03*
X266984Y883404D02*
D03*
X263113Y877598D02*
D03*
X329454Y191704D02*
D03*
X323018Y187849D02*
D03*
X310216Y201500D02*
D03*
X272870Y216673D02*
D03*
X283055Y228697D02*
D03*
X274295Y429677D02*
D03*
X254961Y447060D02*
D03*
X303106Y810964D02*
D03*
X292176Y806095D02*
D03*
X287754Y816281D02*
D03*
X977713Y1100940D02*
D03*
X897713Y1110941D02*
D03*
X777703D02*
D03*
X678829Y1168573D02*
D03*
X684739Y1174758D02*
D03*
X696482Y1150881D02*
D03*
X703893Y1157616D02*
D03*
X677758Y1141353D02*
D03*
X668242Y1132496D02*
D03*
X702207Y1137970D02*
D03*
X707608Y1116515D02*
D03*
X703785Y1111272D02*
D03*
X1145497Y858150D02*
D03*
X1142494Y853575D02*
D03*
X1122484Y861211D02*
D03*
X1117706Y857955D02*
D03*
X1141551Y881833D02*
D03*
X1135661Y889741D02*
D03*
X1120882Y889905D02*
D03*
X709869Y1086768D02*
D03*
X893750Y1404036D02*
D03*
X690749Y1254649D02*
D03*
X546819Y1376750D02*
D03*
X542943Y1373880D02*
D03*
X546679Y1370618D02*
D03*
X1045854Y1030468D02*
D03*
X1051097Y1026645D02*
D03*
Y1036145D02*
D03*
X1045854Y1039968D02*
D03*
X279086Y2044712D02*
D03*
X290960Y2027507D02*
D03*
X279189Y2156214D02*
D03*
X291063Y2139008D02*
D03*
X371650Y2276985D02*
D03*
X429143Y2280662D02*
D03*
X401177Y2281351D02*
D03*
X363430Y2265369D02*
D03*
X353372Y2276945D02*
D03*
X277990Y2300953D02*
D03*
X284813Y2294656D02*
D03*
X212597Y2242341D02*
D03*
X219419Y2236043D02*
D03*
X479250Y2177800D02*
D03*
X549270Y2168312D02*
D03*
X593998Y2212626D02*
D03*
X579811Y2220421D02*
D03*
X563265Y2209657D02*
D03*
X506889Y2180222D02*
D03*
X502942Y2184734D02*
D03*
X599440Y2168312D02*
D03*
X575170D02*
D03*
X587112Y2162279D02*
D03*
X561865Y2168312D02*
D03*
X555667Y2162279D02*
D03*
X683488Y2147493D02*
D03*
X700693Y2159367D02*
D03*
X794779Y2221040D02*
D03*
X775410Y2339465D02*
D03*
X791963Y2347994D02*
D03*
X927077Y2176327D02*
D03*
X920101Y2182890D02*
D03*
X927439Y2188937D02*
D03*
X1379272Y1958300D02*
D03*
X1386610Y1964347D02*
D03*
X1379633Y1970910D02*
D03*
X1318615Y1960681D02*
D03*
X1325376Y1977762D02*
D03*
X1345540Y1991877D02*
D03*
X1310668Y1993063D02*
D03*
X1301060Y1944907D02*
D03*
X1327985Y1934231D02*
D03*
X782466Y2311133D02*
D03*
X724674D02*
D03*
X745194Y2299496D02*
D03*
X1138120Y2081800D02*
D03*
X1117600Y2093437D02*
D03*
X1175392D02*
D03*
X1191260Y2118360D02*
D03*
X1201991Y2025045D02*
D03*
X1077946Y1939192D02*
D03*
X1095151Y1951066D02*
D03*
X904071Y1924193D02*
D03*
X900552Y1917347D02*
D03*
X1000899Y2176881D02*
D03*
X1017290Y2200549D02*
D03*
X1000899Y2222440D02*
D03*
X1063137Y2332988D02*
D03*
X1080342Y2344862D02*
D03*
X770323Y1918289D02*
D03*
X802509Y1903573D02*
D03*
X791583Y1904021D02*
D03*
X1182243Y1911562D02*
D03*
X1170369Y1928767D02*
D03*
X468434Y490381D02*
D03*
X477862Y502730D02*
D03*
X405115Y637175D02*
D03*
X386432Y625764D02*
D03*
X272160Y473372D02*
D03*
X279608Y482747D02*
D03*
X521329Y1140593D02*
D03*
X479814Y1098764D02*
D03*
X209489Y685049D02*
D03*
X225787Y692534D02*
D03*
X183406Y691399D02*
D03*
X166257D02*
D03*
X514645Y370840D02*
D03*
X302432Y625764D02*
D03*
X319637Y637638D02*
D03*
X225898Y619139D02*
D03*
X226307Y605432D02*
D03*
X220051Y612287D02*
D03*
X203642Y428603D02*
D03*
X188112Y417886D02*
D03*
X173760Y428603D02*
D03*
X223759Y660520D02*
D03*
X205679Y653764D02*
D03*
X192792Y667349D02*
D03*
X212889Y469114D02*
D03*
X195686Y484448D02*
D03*
X180853Y497369D02*
D03*
X737693Y1110941D02*
D03*
X727713D02*
D03*
X727703Y1120941D02*
D03*
X737592Y1151615D02*
D03*
X737693Y1130941D02*
D03*
X727713Y1151615D02*
D03*
X737592Y1170941D02*
D03*
X827713Y1220941D02*
D03*
Y1211199D02*
D03*
X847713Y1230941D02*
D03*
X867713Y1250941D02*
D03*
X817713Y1298782D02*
D03*
X767604Y1200940D02*
D03*
X846456Y1202198D02*
D03*
X777713Y1190941D02*
D03*
X857713D02*
D03*
X867713Y1200940D02*
D03*
X817632Y1190859D02*
D03*
X827713Y1190941D02*
D03*
X787713Y1200940D02*
D03*
X797713Y1210941D02*
D03*
X837713Y1200940D02*
D03*
X827713D02*
D03*
X857713D02*
D03*
X777713Y1171816D02*
D03*
X877867Y1261027D02*
D03*
X1323340Y1584833D02*
D03*
Y1603326D02*
D03*
Y1612586D02*
D03*
Y1621946D02*
D03*
Y1631034D02*
D03*
Y1640243D02*
D03*
X1226820Y1601839D02*
D03*
Y1610952D02*
D03*
Y1648759D02*
D03*
Y1667590D02*
D03*
Y1676997D02*
D03*
X1385034Y1797620D02*
D03*
X1386840Y1803400D02*
D03*
X1379220Y1801101D02*
D03*
X1315720Y1823931D02*
D03*
X1350105Y1782371D02*
D03*
X1350252Y1772072D02*
D03*
X1315720Y1762760D02*
D03*
Y1782371D02*
D03*
Y1803400D02*
D03*
X1379220Y1622153D02*
D03*
X1370004Y1623060D02*
D03*
X1294364Y1823931D02*
D03*
X1300408Y1762760D02*
D03*
Y1803400D02*
D03*
X1300418Y1782371D02*
D03*
X1367504Y1809872D02*
D03*
X1365004Y1801101D02*
D03*
X1395404Y1803400D02*
D03*
X1390479Y1760431D02*
D03*
X1390457Y1769367D02*
D03*
X1384004Y1769321D02*
D03*
X1237422Y1724660D02*
D03*
X1296728Y1573619D02*
D03*
X1311714D02*
D03*
X1347144Y1694833D02*
D03*
Y1677647D02*
D03*
X1398990Y1622153D02*
D03*
X1386840Y1623060D02*
D03*
X1168400Y1612586D02*
D03*
X1160780Y1607820D02*
D03*
X1252418Y1724660D02*
D03*
X1347144Y1710153D02*
D03*
Y1662153D02*
D03*
X1391987Y1592612D02*
D03*
X1374004D02*
D03*
X1373678Y1654153D02*
D03*
X1391989D02*
D03*
X1183640Y1610952D02*
D03*
Y1630098D02*
D03*
Y1657869D02*
D03*
Y1667326D02*
D03*
Y1676997D02*
D03*
X1205084Y1677119D02*
D03*
X1205459Y1667458D02*
D03*
X1205067Y1648759D02*
D03*
X1205018Y1629817D02*
D03*
X1204906Y1620536D02*
D03*
X1343665Y1575744D02*
D03*
X1343745Y1584832D02*
D03*
X1343730Y1594026D02*
D03*
X1343770Y1603180D02*
D03*
X1343957Y1612586D02*
D03*
X1344052Y1621947D02*
D03*
X1343944Y1631035D02*
D03*
X1343991Y1640243D02*
D03*
X1344093Y1649411D02*
D03*
X1364254Y1575597D02*
D03*
Y1584831D02*
D03*
Y1594025D02*
D03*
Y1603034D02*
D03*
Y1612586D02*
D03*
X1364894Y1622153D02*
D03*
Y1631034D02*
D03*
Y1640243D02*
D03*
Y1649410D02*
D03*
X828978Y1330941D02*
D03*
X522259Y1357060D02*
D03*
X505100Y1446690D02*
D03*
X528610Y1446754D02*
D03*
X817396Y1327029D02*
D03*
X827713Y1340941D02*
D03*
X817909Y1340884D02*
D03*
X560720Y1330966D02*
D03*
X568777Y1365600D02*
D03*
X579187Y1385715D02*
D03*
X581612Y1396183D02*
D03*
X250094Y1064894D02*
D03*
X235285Y1081679D02*
D03*
X155485Y1205674D02*
D03*
X138279Y1193800D02*
D03*
X259827Y1237298D02*
D03*
X195580Y1102995D02*
D03*
X172446Y1075668D02*
D03*
X209258Y1129664D02*
D03*
X227490Y1156335D02*
D03*
X388563Y1171588D02*
D03*
X401240Y1185336D02*
D03*
X550952Y1030158D02*
D03*
X540321Y1018445D02*
D03*
X529198Y1031241D02*
D03*
X403557Y1064546D02*
D03*
X445681Y1063679D02*
D03*
X490659Y1442247D02*
D03*
X820191Y1647172D02*
D03*
X831200Y1647256D02*
D03*
X753799Y1562158D02*
D03*
X742790Y1562074D02*
D03*
X790379Y1529993D02*
D03*
X731143Y1523253D02*
D03*
X877867Y1389918D02*
D03*
X827693Y1350941D02*
D03*
X580965Y1402189D02*
D03*
X838077Y1351325D02*
D03*
X535410Y1429547D02*
D03*
X550350Y1414333D02*
D03*
X577600Y1413418D02*
D03*
X577727Y1422663D02*
D03*
X568777Y1376117D02*
D03*
X540609Y1330941D02*
D03*
X550560D02*
D03*
X530240D02*
D03*
X488009Y1403447D02*
D03*
X477472Y1408366D02*
D03*
X464892Y1318260D02*
D03*
X515410Y1344560D02*
D03*
X476935Y1320800D02*
D03*
X475515Y1336991D02*
D03*
Y1349818D02*
D03*
X505100Y1344560D02*
D03*
X462043Y1328101D02*
D03*
X493905Y1287780D02*
D03*
X454571Y1318260D02*
D03*
X490659Y1420961D02*
D03*
X504311Y1432300D02*
D03*
X517859Y1367759D02*
D03*
X545159Y1419860D02*
D03*
X530410Y1433242D02*
D03*
X525410Y1429558D02*
D03*
X967713Y1120941D02*
D03*
X967703Y1280941D02*
D03*
X737703Y1201571D02*
D03*
Y1120941D02*
D03*
Y1160941D02*
D03*
X837693Y1110941D02*
D03*
X797703D02*
D03*
X937703Y1100940D02*
D03*
X917703Y1110941D02*
D03*
X877569D02*
D03*
X486682Y1411193D02*
D03*
X481748Y1419620D02*
D03*
X478607Y1422837D02*
D03*
X464892Y1419860D02*
D03*
X470698D02*
D03*
X472858Y1397317D02*
D03*
X454571Y1349818D02*
D03*
X423665Y1466659D02*
D03*
X393704Y1427480D02*
D03*
X431800Y1349818D02*
D03*
X393704Y1380059D02*
D03*
X252324Y1359296D02*
D03*
X226899Y1378807D02*
D03*
X252324Y1384617D02*
D03*
X226315Y1405045D02*
D03*
X203867Y1475740D02*
D03*
X510410Y1429547D02*
D03*
X737713Y1300941D02*
D03*
Y1220941D02*
D03*
Y1140940D02*
D03*
Y1180940D02*
D03*
Y1260941D02*
D03*
X967713Y1140940D02*
D03*
X937713Y1110941D02*
D03*
X857713D02*
D03*
X817713D02*
D03*
X727713Y1100940D02*
D03*
X947713Y1130941D02*
D03*
Y1140940D02*
D03*
Y1150940D02*
D03*
X907713Y1160941D02*
D03*
X917713Y1120941D02*
D03*
Y1140941D02*
D03*
X927713Y1150941D02*
D03*
X937713Y1120941D02*
D03*
X867713Y1170941D02*
D03*
X877713Y1120941D02*
D03*
Y1140941D02*
D03*
X897713Y1130941D02*
D03*
X827713Y1160941D02*
D03*
Y1150941D02*
D03*
Y1140941D02*
D03*
Y1130941D02*
D03*
Y1120941D02*
D03*
X837713Y1140941D02*
D03*
Y1160941D02*
D03*
Y1170941D02*
D03*
X847713Y1140941D02*
D03*
Y1150941D02*
D03*
Y1160941D02*
D03*
Y1170941D02*
D03*
X857713Y1140941D02*
D03*
Y1170941D02*
D03*
X787713Y1160941D02*
D03*
Y1120941D02*
D03*
X797713Y1130941D02*
D03*
X817713Y1140941D02*
D03*
Y1150941D02*
D03*
Y1160941D02*
D03*
X777713Y1150941D02*
D03*
Y1130941D02*
D03*
X757713Y1160941D02*
D03*
X747713Y1120941D02*
D03*
Y1160941D02*
D03*
X947713Y1190941D02*
D03*
X937713D02*
D03*
Y1200940D02*
D03*
Y1210941D02*
D03*
Y1240940D02*
D03*
X927713Y1190941D02*
D03*
Y1210941D02*
D03*
X917713Y1190941D02*
D03*
Y1200940D02*
D03*
Y1210941D02*
D03*
Y1240940D02*
D03*
X907867Y1181027D02*
D03*
X907713Y1200940D02*
D03*
Y1210941D02*
D03*
Y1220941D02*
D03*
X897867Y1181027D02*
D03*
X897713Y1200940D02*
D03*
Y1210941D02*
D03*
Y1220941D02*
D03*
X887867Y1181027D02*
D03*
X887713Y1190941D02*
D03*
Y1210941D02*
D03*
Y1220941D02*
D03*
X877713Y1200940D02*
D03*
X867713Y1190941D02*
D03*
X857867Y1181027D02*
D03*
X847867D02*
D03*
X847713Y1190941D02*
D03*
X947867Y1261027D02*
D03*
X947713Y1330941D02*
D03*
X927713Y1310941D02*
D03*
Y1320941D02*
D03*
X917713Y1300941D02*
D03*
Y1310941D02*
D03*
Y1320941D02*
D03*
Y1330941D02*
D03*
X907713Y1310941D02*
D03*
Y1320941D02*
D03*
X897713Y1300941D02*
D03*
Y1310941D02*
D03*
Y1320941D02*
D03*
Y1330941D02*
D03*
X887713Y1290941D02*
D03*
Y1300941D02*
D03*
Y1310941D02*
D03*
Y1330941D02*
D03*
X877713Y1280941D02*
D03*
Y1290941D02*
D03*
Y1300941D02*
D03*
Y1310941D02*
D03*
Y1320941D02*
D03*
Y1330941D02*
D03*
X867713Y1270941D02*
D03*
Y1280941D02*
D03*
Y1300941D02*
D03*
Y1320941D02*
D03*
Y1330941D02*
D03*
X857713Y1270941D02*
D03*
Y1290941D02*
D03*
Y1310941D02*
D03*
Y1320941D02*
D03*
Y1330941D02*
D03*
X837867Y1181027D02*
D03*
X837713Y1190941D02*
D03*
X807713Y1210941D02*
D03*
Y1240940D02*
D03*
Y1300941D02*
D03*
Y1310941D02*
D03*
Y1320941D02*
D03*
Y1330941D02*
D03*
X797713Y1230941D02*
D03*
Y1290941D02*
D03*
Y1310941D02*
D03*
Y1320941D02*
D03*
Y1330941D02*
D03*
X787713Y1230941D02*
D03*
Y1330941D02*
D03*
Y1320941D02*
D03*
Y1310941D02*
D03*
Y1300941D02*
D03*
X777713Y1250941D02*
D03*
Y1210941D02*
D03*
X777867Y1181027D02*
D03*
X777713Y1320941D02*
D03*
Y1310941D02*
D03*
Y1300941D02*
D03*
Y1270941D02*
D03*
X767713Y1250941D02*
D03*
Y1230941D02*
D03*
Y1330941D02*
D03*
Y1320941D02*
D03*
X757713Y1250941D02*
D03*
X757867Y1181027D02*
D03*
X757713Y1280941D02*
D03*
X757867Y1261027D02*
D03*
X747713Y1250941D02*
D03*
Y1200940D02*
D03*
X1288776Y1594706D02*
D03*
Y1706706D02*
D03*
X1312048Y1690534D02*
D03*
Y1682534D02*
D03*
X1304048Y1698534D02*
D03*
Y1690534D02*
D03*
Y1682534D02*
D03*
X1288776Y1690706D02*
D03*
Y1698706D02*
D03*
X1264048Y1690534D02*
D03*
X1312048Y1666534D02*
D03*
Y1674534D02*
D03*
X1304048D02*
D03*
Y1666534D02*
D03*
X1256048Y1618534D02*
D03*
Y1666534D02*
D03*
Y1658534D02*
D03*
X1312048Y1706534D02*
D03*
X1304048D02*
D03*
X1312048Y1610534D02*
D03*
Y1602534D02*
D03*
X1304048Y1594534D02*
D03*
Y1586534D02*
D03*
X1312048Y1594534D02*
D03*
Y1618534D02*
D03*
X1304048Y1650534D02*
D03*
X1312048Y1658534D02*
D03*
X1256048Y1586534D02*
D03*
Y1610534D02*
D03*
X1240776Y1674706D02*
D03*
Y1698706D02*
D03*
Y1690706D02*
D03*
Y1650706D02*
D03*
X1264048Y1674534D02*
D03*
X1256048D02*
D03*
Y1706534D02*
D03*
X256157Y905853D02*
D03*
D209*
X244567Y2077269D02*
D03*
X233236Y2099276D02*
D03*
X244567Y2119269D02*
D03*
X233236Y2141220D02*
D03*
X244567Y2161269D02*
D03*
X297876Y791625D02*
D03*
D210*
X479500Y2272332D02*
D03*
X494740D02*
D03*
X509980D02*
D03*
X525220D02*
D03*
X517600Y2264712D02*
D03*
X487120D02*
D03*
X525220Y2257092D02*
D03*
X509980D02*
D03*
X494740D02*
D03*
X479500D02*
D03*
X517600Y2249472D02*
D03*
X487120D02*
D03*
X525220Y2241852D02*
D03*
X509980D02*
D03*
X494740D02*
D03*
X479500D02*
D03*
X517600Y2234232D02*
D03*
X487120D02*
D03*
X525220Y2226612D02*
D03*
X509980D02*
D03*
X494740D02*
D03*
X479500D02*
D03*
X517600Y2218992D02*
D03*
X502360D02*
D03*
X487120D02*
D03*
X525220Y2211372D02*
D03*
X509980D02*
D03*
X494740D02*
D03*
X517600Y2203752D02*
D03*
X502360D02*
D03*
X525220Y2196132D02*
D03*
X509980D02*
D03*
X494740D02*
D03*
X479500D02*
D03*
Y2211372D02*
D03*
X487120Y2203752D02*
D03*
X502360Y2264712D02*
D03*
Y2249472D02*
D03*
Y2234232D02*
D03*
X89400Y585109D02*
D03*
Y600349D02*
D03*
Y615589D02*
D03*
Y630829D02*
D03*
X97020Y623209D02*
D03*
Y592729D02*
D03*
X104640Y630829D02*
D03*
Y615589D02*
D03*
Y600349D02*
D03*
Y585109D02*
D03*
X112260Y623209D02*
D03*
Y592729D02*
D03*
X119880Y630829D02*
D03*
Y615589D02*
D03*
Y600349D02*
D03*
Y585109D02*
D03*
X127500Y623209D02*
D03*
Y592729D02*
D03*
X135120Y630829D02*
D03*
Y615589D02*
D03*
Y600349D02*
D03*
Y585109D02*
D03*
X142740Y623209D02*
D03*
Y607969D02*
D03*
Y592729D02*
D03*
X150360Y630829D02*
D03*
Y615589D02*
D03*
Y600349D02*
D03*
X157980Y623209D02*
D03*
Y607969D02*
D03*
X165600Y630829D02*
D03*
Y615589D02*
D03*
Y600349D02*
D03*
Y585109D02*
D03*
X150360D02*
D03*
X157980Y592729D02*
D03*
X97020Y607969D02*
D03*
X112260D02*
D03*
X127500D02*
D03*
D211*
X698720Y1960929D02*
D03*
X709720D02*
D03*
X720720D02*
D03*
X731720D02*
D03*
X742720D02*
D03*
X698720Y1949929D02*
D03*
X709720D02*
D03*
X720720D02*
D03*
X731720D02*
D03*
X742720D02*
D03*
X698720Y1938929D02*
D03*
X709720D02*
D03*
X720720D02*
D03*
X731720D02*
D03*
X742720D02*
D03*
X698720Y1927929D02*
D03*
X709720D02*
D03*
X720720D02*
D03*
X731720D02*
D03*
X742720D02*
D03*
X698720Y1916929D02*
D03*
X709720D02*
D03*
X720720D02*
D03*
X731720D02*
D03*
X742720D02*
D03*
X1370004Y1772871D02*
D03*
X1375754Y1782371D02*
D03*
X1364254D02*
D03*
X1370004Y1791871D02*
D03*
X313580Y1775529D02*
D03*
Y1786529D02*
D03*
Y1797529D02*
D03*
X324580Y1775529D02*
D03*
Y1786529D02*
D03*
Y1797529D02*
D03*
X335580Y1775529D02*
D03*
Y1786529D02*
D03*
Y1797529D02*
D03*
X346580Y1775529D02*
D03*
Y1786529D02*
D03*
Y1797529D02*
D03*
X357580Y1775529D02*
D03*
Y1786529D02*
D03*
Y1797529D02*
D03*
X368580Y1775529D02*
D03*
Y1786529D02*
D03*
Y1797529D02*
D03*
X379580Y1775529D02*
D03*
Y1786529D02*
D03*
Y1797529D02*
D03*
X390580Y1775529D02*
D03*
Y1786529D02*
D03*
Y1797529D02*
D03*
X401580Y1775529D02*
D03*
Y1786529D02*
D03*
Y1797529D02*
D03*
X648910Y253689D02*
D03*
Y242689D02*
D03*
Y231689D02*
D03*
Y220689D02*
D03*
Y209689D02*
D03*
X637910Y253689D02*
D03*
Y242689D02*
D03*
Y231689D02*
D03*
Y220689D02*
D03*
Y209689D02*
D03*
X626910Y253689D02*
D03*
Y242689D02*
D03*
Y231689D02*
D03*
Y220689D02*
D03*
Y209689D02*
D03*
X615910Y253689D02*
D03*
Y242689D02*
D03*
Y231689D02*
D03*
Y220689D02*
D03*
Y209689D02*
D03*
X604910Y253689D02*
D03*
Y242689D02*
D03*
Y231689D02*
D03*
Y220689D02*
D03*
Y209689D02*
D03*
X315880Y222732D02*
D03*
X304880D02*
D03*
X315880Y233732D02*
D03*
X304880D02*
D03*
X566656Y862460D02*
D03*
Y873460D02*
D03*
Y884460D02*
D03*
Y895460D02*
D03*
Y906460D02*
D03*
X577656Y862460D02*
D03*
Y873460D02*
D03*
Y884460D02*
D03*
Y895460D02*
D03*
Y906460D02*
D03*
X588656Y862460D02*
D03*
Y873460D02*
D03*
Y884460D02*
D03*
Y895460D02*
D03*
Y906460D02*
D03*
X599656Y862460D02*
D03*
Y873460D02*
D03*
Y884460D02*
D03*
Y895460D02*
D03*
Y906460D02*
D03*
X610656Y862460D02*
D03*
Y873460D02*
D03*
Y884460D02*
D03*
Y895460D02*
D03*
Y906460D02*
D03*
M02*
