G04*
G04 #@! TF.GenerationSoftware,Altium Limited,Altium Designer,22.11.1 (43)*
G04*
G04 Layer_Color=8388736*
%FSLAX44Y44*%
%MOMM*%
G71*
G04*
G04 #@! TF.SameCoordinates,53296E8D-2C6D-437B-9D4A-58ED0EF3D4B0*
G04*
G04*
G04 #@! TF.FilePolarity,Positive*
G04*
G01*
G75*
%ADD14C,0.1270*%
D14*
X1172565Y1261027D02*
G03*
X1172565Y1261027I-16500J0D01*
G01*
X1187065D02*
G03*
X1187065Y1261027I-31000J0D01*
G01*
X1119640Y1023435D02*
G03*
X1119640Y1023435I-16500J0D01*
G01*
X1134140D02*
G03*
X1134140Y1023435I-31000J0D01*
G01*
X612803Y1260698D02*
G03*
X612803Y1260698I-16500J0D01*
G01*
X627303D02*
G03*
X627303Y1260698I-31000J0D01*
G01*
X77088Y57350D02*
G03*
X77088Y57350I-16500J0D01*
G01*
X91588D02*
G03*
X91588Y57350I-31000J0D01*
G01*
X1404052Y73434D02*
G03*
X1404052Y73434I-16500J0D01*
G01*
X1418552D02*
G03*
X1418552Y73434I-31000J0D01*
G01*
X1416040Y2637025D02*
G03*
X1416040Y2637025I-16500J0D01*
G01*
X1430540D02*
G03*
X1430540Y2637025I-31000J0D01*
G01*
X84520Y2645049D02*
G03*
X84520Y2645049I-16500J0D01*
G01*
X99020D02*
G03*
X99020Y2645049I-31000J0D01*
G01*
X1248880Y68354D02*
G03*
X1248880Y68354I-15000J0D01*
G01*
X254487Y2351209D02*
G03*
X254487Y2351209I-15000J0D01*
G01*
X1191020Y2603500D02*
G03*
X1191020Y2603500I-15000J0D01*
G01*
X1233880Y53355D02*
Y83354D01*
X1218880Y68354D02*
X1248880D01*
X239487Y2336209D02*
Y2366209D01*
X224487Y2351209D02*
X254487D01*
X1176020Y2588500D02*
Y2618500D01*
X1161020Y2603500D02*
X1191020D01*
M02*
