G04*
G04 #@! TF.GenerationSoftware,Altium Limited,Altium Designer,22.11.1 (43)*
G04*
G04 Layer_Color=16711935*
%FSLAX44Y44*%
%MOMM*%
G71*
G04*
G04 #@! TF.SameCoordinates,53296E8D-2C6D-437B-9D4A-58ED0EF3D4B0*
G04*
G04*
G04 #@! TF.FilePolarity,Positive*
G04*
G01*
G75*
%ADD230C,0.0500*%
%ADD231C,0.1000*%
D230*
X120153Y265812D02*
Y323810D01*
Y164212D02*
Y222210D01*
X123710Y767598D02*
Y825596D01*
Y879358D02*
Y937356D01*
D231*
X688970Y1975679D02*
G03*
X688970Y1975679I-5000J0D01*
G01*
X1090140Y880613D02*
G03*
X1090140Y880613I-5000J0D01*
G01*
X961300Y1769469D02*
G03*
X961300Y1769469I-5000J0D01*
G01*
X402580Y1800029D02*
G03*
X402580Y1800029I-5000J0D01*
G01*
X668660Y268439D02*
G03*
X668660Y268439I-5000J0D01*
G01*
X183649Y294811D02*
G03*
X183649Y294811I-30749J0D01*
G01*
X159250D02*
G03*
X159250Y294811I-6350J0D01*
G01*
X123904Y326561D02*
G03*
X121152Y323809I28996J-31749D01*
G01*
X121150Y265816D02*
G03*
X123902Y263064I31749J28996D01*
G01*
X181896Y263062D02*
G03*
X184647Y265814I-28996J31749D01*
G01*
X184649Y323807D02*
G03*
X181898Y326559I-31749J-28996D01*
G01*
X182399Y294811D02*
G03*
X182399Y294811I-29499J0D01*
G01*
X173400D02*
G03*
X173400Y294811I-20500J0D01*
G01*
X183649Y193211D02*
G03*
X183649Y193211I-30749J0D01*
G01*
X159250D02*
G03*
X159250Y193211I-6350J0D01*
G01*
X123904Y224961D02*
G03*
X121152Y222209I28996J-31749D01*
G01*
X121150Y164216D02*
G03*
X123902Y161464I31749J28996D01*
G01*
X181896Y161462D02*
G03*
X184647Y164214I-28996J31749D01*
G01*
X184649Y222207D02*
G03*
X181898Y224959I-31749J-28996D01*
G01*
X182399Y193211D02*
G03*
X182399Y193211I-29499J0D01*
G01*
X173400D02*
G03*
X173400Y193211I-20500J0D01*
G01*
X304380Y239232D02*
G03*
X304380Y239232I-5000J0D01*
G01*
X567156Y857960D02*
G03*
X567156Y857960I-5000J0D01*
G01*
X288563Y855761D02*
G03*
X288563Y855761I-5000J0D01*
G01*
X344099Y1360167D02*
G03*
X344099Y1360167I-5000J0D01*
G01*
X176958Y796597D02*
G03*
X176958Y796597I-20500J0D01*
G01*
X185956D02*
G03*
X185956Y796597I-29499J0D01*
G01*
X188207Y825593D02*
G03*
X185455Y828345I-31749J-28996D01*
G01*
X185453Y764848D02*
G03*
X188205Y767599I-28996J31749D01*
G01*
X124708Y767602D02*
G03*
X127460Y764850I31749J28996D01*
G01*
X127462Y828347D02*
G03*
X124710Y825595I28996J-31749D01*
G01*
X162807Y796597D02*
G03*
X162807Y796597I-6350J0D01*
G01*
X187206D02*
G03*
X187206Y796597I-30749J0D01*
G01*
X176958Y908357D02*
G03*
X176958Y908357I-20500J0D01*
G01*
X185956D02*
G03*
X185956Y908357I-29499J0D01*
G01*
X188207Y937353D02*
G03*
X185455Y940105I-31749J-28996D01*
G01*
X185453Y876608D02*
G03*
X188205Y879360I-28996J31749D01*
G01*
X124708Y879362D02*
G03*
X127460Y876610I31749J28996D01*
G01*
X127462Y940107D02*
G03*
X124710Y937355I28996J-31749D01*
G01*
X162807Y908357D02*
G03*
X162807Y908357I-6350J0D01*
G01*
X187206D02*
G03*
X187206Y908357I-30749J0D01*
G01*
X385430Y2386709D02*
G03*
X385430Y2386709I-5000J0D01*
G01*
X674970Y1893179D02*
Y1984679D01*
X766470Y1893179D02*
Y1984679D01*
X674970D02*
X766470D01*
X674970Y1893179D02*
X766470D01*
X1076140Y858613D02*
X1107140D01*
X1076140Y889613D02*
X1107140D01*
Y858613D02*
Y889613D01*
X1076140Y858613D02*
Y889613D01*
X947300Y1723469D02*
X1002300D01*
X947300Y1778469D02*
X1002300D01*
Y1723469D02*
Y1778469D01*
X947300Y1723469D02*
Y1778469D01*
X286929Y2247888D02*
Y2269888D01*
X274229Y2247888D02*
Y2269888D01*
X286929D01*
X274229Y2247888D02*
X286929D01*
X308580Y1764029D02*
Y1809029D01*
X406580Y1764029D02*
Y1809029D01*
X308580Y1764029D02*
X406580D01*
X308580Y1809029D02*
X406580D01*
X193699Y1384807D02*
X224099D01*
X193699Y1398807D02*
X224099D01*
X193699Y1384807D02*
Y1398807D01*
X224099Y1384807D02*
Y1398807D01*
X104559Y1273607D02*
Y1304007D01*
X118559Y1273607D02*
Y1304007D01*
X104559D02*
X118559D01*
X104559Y1273607D02*
X118559D01*
X418030Y281458D02*
X470530D01*
X418030Y331958D02*
X470530D01*
Y281458D02*
Y331958D01*
X418030Y281458D02*
Y331958D01*
Y67099D02*
X470530D01*
X418030Y117599D02*
X470530D01*
Y67099D02*
Y117599D01*
X418030Y67099D02*
Y117599D01*
X417950Y123154D02*
X470450D01*
X417950Y173654D02*
X470450D01*
Y123154D02*
Y173654D01*
X417950Y123154D02*
Y173654D01*
X581160Y277439D02*
X672660D01*
X581160Y185939D02*
X672660D01*
Y277439D01*
X581160Y185939D02*
Y277439D01*
X173300Y264411D02*
X183300D01*
Y274411D01*
X173300D02*
X183300D01*
X173300Y264411D02*
Y274411D01*
Y315211D02*
X183300D01*
X173300D02*
Y325211D01*
X183300D01*
Y315211D02*
Y325211D01*
X132500Y315211D02*
Y325211D01*
X122500Y315211D02*
X132500D01*
X122500D02*
Y325211D01*
X132500D01*
X122500Y274411D02*
X132500D01*
Y264411D02*
Y274411D01*
X122500Y264411D02*
X132500D01*
X122500D02*
Y274411D01*
X121150Y265761D02*
Y323806D01*
X123850Y263061D02*
X181895D01*
X123905Y326561D02*
X181895D01*
X184650Y265816D02*
Y323807D01*
X120153Y323810D02*
X121150Y323806D01*
X117653Y321310D02*
X120153Y323810D01*
X82653Y321310D02*
X117653D01*
X77403Y326561D02*
X82653Y321310D01*
X49903Y326561D02*
X77403D01*
X44653Y321310D02*
X49903Y326561D01*
X37153Y321310D02*
X44653D01*
X36653Y320810D02*
X37153Y321310D01*
X36653Y318561D02*
Y320810D01*
Y268812D02*
Y271062D01*
Y268812D02*
X37153Y268312D01*
X44653D01*
X49903Y263062D01*
X77403D01*
X82653Y268312D01*
X117653D01*
X120153Y265812D01*
X121150Y265816D01*
X36653Y271062D02*
Y318561D01*
X44653Y268312D02*
Y321310D01*
X49903Y263062D02*
Y326561D01*
X77403Y263062D02*
Y326561D01*
X82653Y268312D02*
Y321310D01*
X117653Y268312D02*
Y321310D01*
X173300Y162811D02*
X183300D01*
Y172811D01*
X173300D02*
X183300D01*
X173300Y162811D02*
Y172811D01*
Y213611D02*
X183300D01*
X173300D02*
Y223611D01*
X183300D01*
Y213611D02*
Y223611D01*
X132500Y213611D02*
Y223611D01*
X122500Y213611D02*
X132500D01*
X122500D02*
Y223611D01*
X132500D01*
X122500Y172811D02*
X132500D01*
Y162811D02*
Y172811D01*
X122500Y162811D02*
X132500D01*
X122500D02*
Y172811D01*
X121150Y164161D02*
Y222206D01*
X123850Y161461D02*
X181895D01*
X123905Y224961D02*
X181895D01*
X184650Y164216D02*
Y222207D01*
X120153Y222210D02*
X121150Y222206D01*
X117653Y219710D02*
X120153Y222210D01*
X82653Y219710D02*
X117653D01*
X77403Y224961D02*
X82653Y219710D01*
X49903Y224961D02*
X77403D01*
X44653Y219710D02*
X49903Y224961D01*
X37153Y219710D02*
X44653D01*
X36653Y219210D02*
X37153Y219710D01*
X36653Y216960D02*
Y219210D01*
Y167212D02*
Y169462D01*
Y167212D02*
X37153Y166712D01*
X44653D01*
X49903Y161462D01*
X77403D01*
X82653Y166712D01*
X117653D01*
X120153Y164212D01*
X121150Y164216D01*
X36653Y169462D02*
Y216960D01*
X44653Y166712D02*
Y219710D01*
X49903Y161462D02*
Y224961D01*
X77403Y161462D02*
Y224961D01*
X82653Y166712D02*
Y219710D01*
X117653Y166712D02*
Y219710D01*
X290380Y208232D02*
X330380D01*
X290380Y248232D02*
X330380D01*
Y208232D02*
Y248232D01*
X290380Y208232D02*
Y248232D01*
X418029Y225770D02*
X470529D01*
X418029Y276269D02*
X470529D01*
Y225770D02*
Y276269D01*
X418029Y225770D02*
Y276269D01*
X553156Y848960D02*
X624156D01*
X553156Y919960D02*
X624156D01*
X553156Y848960D02*
Y919960D01*
X624156Y848960D02*
Y919960D01*
X407667Y707737D02*
Y758237D01*
X355167Y707737D02*
Y758237D01*
Y707737D02*
X407667D01*
X355167Y758237D02*
X407667D01*
X411307Y873123D02*
Y923623D01*
X358807Y873123D02*
Y923623D01*
Y873123D02*
X411307D01*
X358807Y923623D02*
X411307D01*
X260562Y832761D02*
Y864761D01*
X292563Y832761D02*
Y864761D01*
X260562Y832761D02*
X292563D01*
X260562Y864761D02*
X292563D01*
X411307Y930097D02*
Y980597D01*
X358807Y930097D02*
Y980597D01*
Y930097D02*
X411307D01*
X358807Y980597D02*
X411307D01*
X407667Y765275D02*
Y815775D01*
X355167Y765275D02*
Y815775D01*
Y765275D02*
X407667D01*
X355167Y815775D02*
X407667D01*
X351599Y1340667D02*
Y1466667D01*
X279599Y1340667D02*
Y1466667D01*
Y1340667D02*
X351599D01*
X279599Y1466667D02*
X351599D01*
X121210Y770098D02*
Y823096D01*
X86210Y770098D02*
Y823096D01*
X80961Y764848D02*
Y828347D01*
X53461Y764848D02*
Y828347D01*
X48210Y770098D02*
Y823096D01*
X40211Y772848D02*
Y820347D01*
X123710Y767598D02*
X124707Y767602D01*
X121210Y770098D02*
X123710Y767598D01*
X86210Y770098D02*
X121210D01*
X80961Y764848D02*
X86210Y770098D01*
X53461Y764848D02*
X80961D01*
X48210Y770098D02*
X53461Y764848D01*
X40711Y770098D02*
X48210D01*
X40211Y770598D02*
X40711Y770098D01*
X40211Y770598D02*
Y772848D01*
Y820347D02*
Y822596D01*
X40711Y823096D01*
X48210D01*
X53461Y828347D01*
X80961D01*
X86210Y823096D01*
X121210D01*
X123710Y825596D01*
X124707Y825592D01*
X188207Y767602D02*
Y825593D01*
X127462Y828347D02*
X185453D01*
X127408Y764847D02*
X185453D01*
X124707Y767547D02*
Y825592D01*
X126058Y766197D02*
Y776197D01*
Y766197D02*
X136057D01*
Y776197D01*
X126058D02*
X136057D01*
X126058Y826997D02*
X136057D01*
X126058Y816997D02*
Y826997D01*
Y816997D02*
X136057D01*
Y826997D01*
X186857Y816997D02*
Y826997D01*
X176857D02*
X186857D01*
X176857Y816997D02*
Y826997D01*
Y816997D02*
X186857D01*
X176857Y766197D02*
Y776197D01*
X186857D01*
Y766197D02*
Y776197D01*
X176857Y766197D02*
X186857D01*
X121210Y881858D02*
Y934856D01*
X86210Y881858D02*
Y934856D01*
X80961Y876608D02*
Y940107D01*
X53461Y876608D02*
Y940107D01*
X48210Y881858D02*
Y934856D01*
X40211Y884608D02*
Y932106D01*
X123710Y879358D02*
X124707Y879362D01*
X121210Y881858D02*
X123710Y879358D01*
X86210Y881858D02*
X121210D01*
X80961Y876608D02*
X86210Y881858D01*
X53461Y876608D02*
X80961D01*
X48210Y881858D02*
X53461Y876608D01*
X40711Y881858D02*
X48210D01*
X40211Y882358D02*
X40711Y881858D01*
X40211Y882358D02*
Y884608D01*
Y932106D02*
Y934356D01*
X40711Y934856D01*
X48210D01*
X53461Y940107D01*
X80961D01*
X86210Y934856D01*
X121210D01*
X123710Y937356D01*
X124707Y937353D01*
X188207Y879362D02*
Y937353D01*
X127462Y940107D02*
X185453D01*
X127408Y876607D02*
X185453D01*
X124707Y879307D02*
Y937353D01*
X126058Y877957D02*
Y887957D01*
Y877957D02*
X136057D01*
Y887957D01*
X126058D02*
X136057D01*
X126058Y938757D02*
X136057D01*
X126058Y928757D02*
Y938757D01*
Y928757D02*
X136057D01*
Y938757D01*
X186857Y928757D02*
Y938757D01*
X176857D02*
X186857D01*
X176857Y928757D02*
Y938757D01*
Y928757D02*
X186857D01*
X176857Y877957D02*
Y887957D01*
X186857D01*
Y877957D02*
Y887957D01*
X176857Y877957D02*
X186857D01*
X28020Y1889589D02*
X118020D01*
X28020Y1677589D02*
X118020D01*
X28020D02*
Y1889589D01*
X118020Y1677589D02*
Y1889589D01*
X179780Y1313497D02*
Y1482407D01*
X27380Y1313497D02*
Y1482407D01*
Y1313497D02*
X179780D01*
X27380Y1482407D02*
X179780D01*
X371431Y2353709D02*
X417430D01*
X371431Y2395709D02*
X417430D01*
Y2353709D02*
Y2395709D01*
X371431Y2353709D02*
Y2395709D01*
X609509Y657277D02*
Y669977D01*
X587509Y657277D02*
Y669977D01*
Y657277D02*
X609509D01*
X587509Y669977D02*
X609509D01*
X609901Y603727D02*
Y616427D01*
X587901Y603727D02*
Y616427D01*
Y603727D02*
X609901D01*
X587901Y616427D02*
X609901D01*
X521210Y659838D02*
Y672538D01*
X499210Y659838D02*
Y672538D01*
Y659838D02*
X521210D01*
X499210Y672538D02*
X521210D01*
X520818Y601418D02*
Y614118D01*
X498818Y601418D02*
Y614118D01*
Y601418D02*
X520818D01*
X498818Y614118D02*
X520818D01*
M02*
